<?xml version="1.0" encoding="utf-8"?>
<svg xmlns="http://www.w3.org/2000/svg" xmlns:xlink="http://www.w3.org/1999/xlink" width="672" height="480" viewBox="0 0 2688 1920">
<defs>
  <clipPath id="clip630">
    <rect x="0" y="0" width="2688" height="1920"/>
  </clipPath>
</defs>
<path clip-path="url(#clip630)" d="M0 1920 L2688 1920 L2688 -4.26326e-14 L0 -4.26326e-14  Z" fill="#ffffff" fill-rule="evenodd" fill-opacity="1"/>
<defs>
  <clipPath id="clip631">
    <rect x="256" y="127" width="2385" height="1607"/>
  </clipPath>
</defs>
<path clip-path="url(#clip630)" d="M256.302 1734.12 L2640.76 1734.12 L2640.76 127.792 L256.302 127.792  Z" fill="#ffffff" fill-rule="evenodd" fill-opacity="1"/>
<polyline clip-path="url(#clip631)" style="stroke:#000000; stroke-linecap:round; stroke-linejoin:round; stroke-width:2; stroke-opacity:0.1; fill:none" points="323.787,1734.12 323.787,127.792 "/>
<polyline clip-path="url(#clip631)" style="stroke:#000000; stroke-linecap:round; stroke-linejoin:round; stroke-width:2; stroke-opacity:0.1; fill:none" points="886.158,1734.12 886.158,127.792 "/>
<polyline clip-path="url(#clip631)" style="stroke:#000000; stroke-linecap:round; stroke-linejoin:round; stroke-width:2; stroke-opacity:0.1; fill:none" points="1448.53,1734.12 1448.53,127.792 "/>
<polyline clip-path="url(#clip631)" style="stroke:#000000; stroke-linecap:round; stroke-linejoin:round; stroke-width:2; stroke-opacity:0.1; fill:none" points="2010.9,1734.12 2010.9,127.792 "/>
<polyline clip-path="url(#clip631)" style="stroke:#000000; stroke-linecap:round; stroke-linejoin:round; stroke-width:2; stroke-opacity:0.1; fill:none" points="2573.27,1734.12 2573.27,127.792 "/>
<polyline clip-path="url(#clip631)" style="stroke:#000000; stroke-linecap:round; stroke-linejoin:round; stroke-width:2; stroke-opacity:0.1; fill:none" points="256.302,1688.65 2640.76,1688.65 "/>
<polyline clip-path="url(#clip631)" style="stroke:#000000; stroke-linecap:round; stroke-linejoin:round; stroke-width:2; stroke-opacity:0.1; fill:none" points="256.302,1399.09 2640.76,1399.09 "/>
<polyline clip-path="url(#clip631)" style="stroke:#000000; stroke-linecap:round; stroke-linejoin:round; stroke-width:2; stroke-opacity:0.1; fill:none" points="256.302,1109.52 2640.76,1109.52 "/>
<polyline clip-path="url(#clip631)" style="stroke:#000000; stroke-linecap:round; stroke-linejoin:round; stroke-width:2; stroke-opacity:0.1; fill:none" points="256.302,819.954 2640.76,819.954 "/>
<polyline clip-path="url(#clip631)" style="stroke:#000000; stroke-linecap:round; stroke-linejoin:round; stroke-width:2; stroke-opacity:0.1; fill:none" points="256.302,530.387 2640.76,530.387 "/>
<polyline clip-path="url(#clip631)" style="stroke:#000000; stroke-linecap:round; stroke-linejoin:round; stroke-width:2; stroke-opacity:0.1; fill:none" points="256.302,240.82 2640.76,240.82 "/>
<polyline clip-path="url(#clip630)" style="stroke:#000000; stroke-linecap:round; stroke-linejoin:round; stroke-width:4; stroke-opacity:1; fill:none" points="256.302,1734.12 2640.76,1734.12 "/>
<polyline clip-path="url(#clip630)" style="stroke:#000000; stroke-linecap:round; stroke-linejoin:round; stroke-width:4; stroke-opacity:1; fill:none" points="323.787,1734.12 323.787,1715.22 "/>
<polyline clip-path="url(#clip630)" style="stroke:#000000; stroke-linecap:round; stroke-linejoin:round; stroke-width:4; stroke-opacity:1; fill:none" points="886.158,1734.12 886.158,1715.22 "/>
<polyline clip-path="url(#clip630)" style="stroke:#000000; stroke-linecap:round; stroke-linejoin:round; stroke-width:4; stroke-opacity:1; fill:none" points="1448.53,1734.12 1448.53,1715.22 "/>
<polyline clip-path="url(#clip630)" style="stroke:#000000; stroke-linecap:round; stroke-linejoin:round; stroke-width:4; stroke-opacity:1; fill:none" points="2010.9,1734.12 2010.9,1715.22 "/>
<polyline clip-path="url(#clip630)" style="stroke:#000000; stroke-linecap:round; stroke-linejoin:round; stroke-width:4; stroke-opacity:1; fill:none" points="2573.27,1734.12 2573.27,1715.22 "/>
<path clip-path="url(#clip630)" d="M323.787 1767.34 Q320.176 1767.34 318.347 1770.9 Q316.542 1774.45 316.542 1781.58 Q316.542 1788.68 318.347 1792.25 Q320.176 1795.79 323.787 1795.79 Q327.421 1795.79 329.227 1792.25 Q331.055 1788.68 331.055 1781.58 Q331.055 1774.45 329.227 1770.9 Q327.421 1767.34 323.787 1767.34 M323.787 1763.64 Q329.597 1763.64 332.653 1768.24 Q335.731 1772.83 335.731 1781.58 Q335.731 1790.3 332.653 1794.91 Q329.597 1799.49 323.787 1799.49 Q317.977 1799.49 314.898 1794.91 Q311.843 1790.3 311.843 1781.58 Q311.843 1772.83 314.898 1768.24 Q317.977 1763.64 323.787 1763.64 Z" fill="#000000" fill-rule="nonzero" fill-opacity="1" /><path clip-path="url(#clip630)" d="M860.846 1794.89 L868.485 1794.89 L868.485 1768.52 L860.174 1770.19 L860.174 1765.93 L868.438 1764.26 L873.114 1764.26 L873.114 1794.89 L880.753 1794.89 L880.753 1798.82 L860.846 1798.82 L860.846 1794.89 Z" fill="#000000" fill-rule="nonzero" fill-opacity="1" /><path clip-path="url(#clip630)" d="M900.197 1767.34 Q896.586 1767.34 894.758 1770.9 Q892.952 1774.45 892.952 1781.58 Q892.952 1788.68 894.758 1792.25 Q896.586 1795.79 900.197 1795.79 Q903.832 1795.79 905.637 1792.25 Q907.466 1788.68 907.466 1781.58 Q907.466 1774.45 905.637 1770.9 Q903.832 1767.34 900.197 1767.34 M900.197 1763.64 Q906.007 1763.64 909.063 1768.24 Q912.142 1772.83 912.142 1781.58 Q912.142 1790.3 909.063 1794.91 Q906.007 1799.49 900.197 1799.49 Q894.387 1799.49 891.308 1794.91 Q888.253 1790.3 888.253 1781.58 Q888.253 1772.83 891.308 1768.24 Q894.387 1763.64 900.197 1763.64 Z" fill="#000000" fill-rule="nonzero" fill-opacity="1" /><path clip-path="url(#clip630)" d="M1427.3 1794.89 L1443.62 1794.89 L1443.62 1798.82 L1421.68 1798.82 L1421.68 1794.89 Q1424.34 1792.13 1428.92 1787.5 Q1433.53 1782.85 1434.71 1781.51 Q1436.96 1778.98 1437.83 1777.25 Q1438.74 1775.49 1438.74 1773.8 Q1438.74 1771.04 1436.79 1769.31 Q1434.87 1767.57 1431.77 1767.57 Q1429.57 1767.57 1427.12 1768.34 Q1424.69 1769.1 1421.91 1770.65 L1421.91 1765.93 Q1424.73 1764.79 1427.19 1764.21 Q1429.64 1763.64 1431.68 1763.64 Q1437.05 1763.64 1440.24 1766.32 Q1443.44 1769.01 1443.44 1773.5 Q1443.44 1775.63 1442.63 1777.55 Q1441.84 1779.45 1439.73 1782.04 Q1439.15 1782.71 1436.05 1785.93 Q1432.95 1789.12 1427.3 1794.89 Z" fill="#000000" fill-rule="nonzero" fill-opacity="1" /><path clip-path="url(#clip630)" d="M1463.44 1767.34 Q1459.83 1767.34 1458 1770.9 Q1456.19 1774.45 1456.19 1781.58 Q1456.19 1788.68 1458 1792.25 Q1459.83 1795.79 1463.44 1795.79 Q1467.07 1795.79 1468.88 1792.25 Q1470.7 1788.68 1470.7 1781.58 Q1470.7 1774.45 1468.88 1770.9 Q1467.07 1767.34 1463.44 1767.34 M1463.44 1763.64 Q1469.25 1763.64 1472.3 1768.24 Q1475.38 1772.83 1475.38 1781.58 Q1475.38 1790.3 1472.3 1794.91 Q1469.25 1799.49 1463.44 1799.49 Q1457.63 1799.49 1454.55 1794.91 Q1451.49 1790.3 1451.49 1781.58 Q1451.49 1772.83 1454.55 1768.24 Q1457.63 1763.64 1463.44 1763.64 Z" fill="#000000" fill-rule="nonzero" fill-opacity="1" /><path clip-path="url(#clip630)" d="M1999.74 1780.19 Q2003.1 1780.9 2004.97 1783.17 Q2006.87 1785.44 2006.87 1788.77 Q2006.87 1793.89 2003.35 1796.69 Q1999.84 1799.49 1993.35 1799.49 Q1991.18 1799.49 1988.86 1799.05 Q1986.57 1798.64 1984.12 1797.78 L1984.12 1793.27 Q1986.06 1794.4 1988.38 1794.98 Q1990.69 1795.56 1993.22 1795.56 Q1997.61 1795.56 1999.9 1793.82 Q2002.22 1792.08 2002.22 1788.77 Q2002.22 1785.72 2000.07 1784.01 Q1997.94 1782.27 1994.12 1782.27 L1990.09 1782.27 L1990.09 1778.43 L1994.3 1778.43 Q1997.75 1778.43 1999.58 1777.06 Q2001.41 1775.67 2001.41 1773.08 Q2001.41 1770.42 1999.51 1769.01 Q1997.64 1767.57 1994.12 1767.57 Q1992.2 1767.57 1990 1767.99 Q1987.8 1768.4 1985.16 1769.28 L1985.16 1765.12 Q1987.82 1764.38 1990.14 1764.01 Q1992.47 1763.64 1994.53 1763.64 Q1999.86 1763.64 2002.96 1766.07 Q2006.06 1768.47 2006.06 1772.59 Q2006.06 1775.46 2004.42 1777.46 Q2002.78 1779.42 1999.74 1780.19 Z" fill="#000000" fill-rule="nonzero" fill-opacity="1" /><path clip-path="url(#clip630)" d="M2025.74 1767.34 Q2022.13 1767.34 2020.3 1770.9 Q2018.49 1774.45 2018.49 1781.58 Q2018.49 1788.68 2020.3 1792.25 Q2022.13 1795.79 2025.74 1795.79 Q2029.37 1795.79 2031.18 1792.25 Q2033.01 1788.68 2033.01 1781.58 Q2033.01 1774.45 2031.18 1770.9 Q2029.37 1767.34 2025.74 1767.34 M2025.74 1763.64 Q2031.55 1763.64 2034.6 1768.24 Q2037.68 1772.83 2037.68 1781.58 Q2037.68 1790.3 2034.6 1794.91 Q2031.55 1799.49 2025.74 1799.49 Q2019.93 1799.49 2016.85 1794.91 Q2013.79 1790.3 2013.79 1781.58 Q2013.79 1772.83 2016.85 1768.24 Q2019.93 1763.64 2025.74 1763.64 Z" fill="#000000" fill-rule="nonzero" fill-opacity="1" /><path clip-path="url(#clip630)" d="M2561.44 1768.34 L2549.64 1786.78 L2561.44 1786.78 L2561.44 1768.34 M2560.22 1764.26 L2566.1 1764.26 L2566.1 1786.78 L2571.03 1786.78 L2571.03 1790.67 L2566.1 1790.67 L2566.1 1798.82 L2561.44 1798.82 L2561.44 1790.67 L2545.84 1790.67 L2545.84 1786.16 L2560.22 1764.26 Z" fill="#000000" fill-rule="nonzero" fill-opacity="1" /><path clip-path="url(#clip630)" d="M2588.76 1767.34 Q2585.15 1767.34 2583.32 1770.9 Q2581.51 1774.45 2581.51 1781.58 Q2581.51 1788.68 2583.32 1792.25 Q2585.15 1795.79 2588.76 1795.79 Q2592.39 1795.79 2594.2 1792.25 Q2596.03 1788.68 2596.03 1781.58 Q2596.03 1774.45 2594.2 1770.9 Q2592.39 1767.34 2588.76 1767.34 M2588.76 1763.64 Q2594.57 1763.64 2597.62 1768.24 Q2600.7 1772.83 2600.7 1781.58 Q2600.7 1790.3 2597.62 1794.91 Q2594.57 1799.49 2588.76 1799.49 Q2582.95 1799.49 2579.87 1794.91 Q2576.81 1790.3 2576.81 1781.58 Q2576.81 1772.83 2579.87 1768.24 Q2582.95 1763.64 2588.76 1763.64 Z" fill="#000000" fill-rule="nonzero" fill-opacity="1" /><path clip-path="url(#clip630)" d="M1394.77 1841.06 L1394.77 1878.02 L1402.54 1878.02 Q1412.37 1878.02 1416.92 1873.56 Q1421.51 1869.11 1421.51 1859.49 Q1421.51 1849.94 1416.92 1845.52 Q1412.37 1841.06 1402.54 1841.06 L1394.77 1841.06 M1388.34 1835.78 L1401.55 1835.78 Q1415.36 1835.78 1421.83 1841.54 Q1428.29 1847.27 1428.29 1859.49 Q1428.29 1871.78 1421.79 1877.54 Q1415.3 1883.3 1401.55 1883.3 L1388.34 1883.3 L1388.34 1835.78 Z" fill="#000000" fill-rule="nonzero" fill-opacity="1" /><path clip-path="url(#clip630)" d="M1454.48 1865.38 Q1447.38 1865.38 1444.65 1867 Q1441.91 1868.63 1441.91 1872.54 Q1441.91 1875.66 1443.95 1877.51 Q1446.01 1879.32 1449.55 1879.32 Q1454.42 1879.32 1457.35 1875.88 Q1460.31 1872.42 1460.31 1866.69 L1460.31 1865.38 L1454.48 1865.38 M1466.16 1862.96 L1466.16 1883.3 L1460.31 1883.3 L1460.31 1877.89 Q1458.3 1881.14 1455.31 1882.7 Q1452.32 1884.22 1447.99 1884.22 Q1442.51 1884.22 1439.27 1881.17 Q1436.05 1878.08 1436.05 1872.92 Q1436.05 1866.91 1440.06 1863.85 Q1444.11 1860.8 1452.09 1860.8 L1460.31 1860.8 L1460.31 1860.23 Q1460.31 1856.18 1457.63 1853.99 Q1454.99 1851.76 1450.18 1851.76 Q1447.13 1851.76 1444.23 1852.49 Q1441.34 1853.22 1438.66 1854.69 L1438.66 1849.28 Q1441.88 1848.03 1444.9 1847.43 Q1447.92 1846.79 1450.79 1846.79 Q1458.52 1846.79 1462.34 1850.8 Q1466.16 1854.81 1466.16 1862.96 Z" fill="#000000" fill-rule="nonzero" fill-opacity="1" /><path clip-path="url(#clip630)" d="M1493.06 1886.61 Q1490.57 1892.98 1488.22 1894.92 Q1485.86 1896.86 1481.92 1896.86 L1477.24 1896.86 L1477.24 1891.96 L1480.68 1891.96 Q1483.09 1891.96 1484.43 1890.81 Q1485.77 1889.67 1487.39 1885.4 L1488.44 1882.73 L1474.02 1847.65 L1480.23 1847.65 L1491.37 1875.53 L1502.51 1847.65 L1508.72 1847.65 L1493.06 1886.61 Z" fill="#000000" fill-rule="nonzero" fill-opacity="1" /><polyline clip-path="url(#clip630)" style="stroke:#000000; stroke-linecap:round; stroke-linejoin:round; stroke-width:4; stroke-opacity:1; fill:none" points="256.302,1734.12 256.302,127.792 "/>
<polyline clip-path="url(#clip630)" style="stroke:#000000; stroke-linecap:round; stroke-linejoin:round; stroke-width:4; stroke-opacity:1; fill:none" points="256.302,1688.65 275.2,1688.65 "/>
<polyline clip-path="url(#clip630)" style="stroke:#000000; stroke-linecap:round; stroke-linejoin:round; stroke-width:4; stroke-opacity:1; fill:none" points="256.302,1399.09 275.2,1399.09 "/>
<polyline clip-path="url(#clip630)" style="stroke:#000000; stroke-linecap:round; stroke-linejoin:round; stroke-width:4; stroke-opacity:1; fill:none" points="256.302,1109.52 275.2,1109.52 "/>
<polyline clip-path="url(#clip630)" style="stroke:#000000; stroke-linecap:round; stroke-linejoin:round; stroke-width:4; stroke-opacity:1; fill:none" points="256.302,819.954 275.2,819.954 "/>
<polyline clip-path="url(#clip630)" style="stroke:#000000; stroke-linecap:round; stroke-linejoin:round; stroke-width:4; stroke-opacity:1; fill:none" points="256.302,530.387 275.2,530.387 "/>
<polyline clip-path="url(#clip630)" style="stroke:#000000; stroke-linecap:round; stroke-linejoin:round; stroke-width:4; stroke-opacity:1; fill:none" points="256.302,240.82 275.2,240.82 "/>
<path clip-path="url(#clip630)" d="M129.872 1674.45 Q126.261 1674.45 124.432 1678.02 Q122.626 1681.56 122.626 1688.69 Q122.626 1695.8 124.432 1699.36 Q126.261 1702.9 129.872 1702.9 Q133.506 1702.9 135.312 1699.36 Q137.14 1695.8 137.14 1688.69 Q137.14 1681.56 135.312 1678.02 Q133.506 1674.45 129.872 1674.45 M129.872 1670.75 Q135.682 1670.75 138.737 1675.36 Q141.816 1679.94 141.816 1688.69 Q141.816 1697.42 138.737 1702.02 Q135.682 1706.61 129.872 1706.61 Q124.062 1706.61 120.983 1702.02 Q117.927 1697.42 117.927 1688.69 Q117.927 1679.94 120.983 1675.36 Q124.062 1670.75 129.872 1670.75 Z" fill="#000000" fill-rule="nonzero" fill-opacity="1" /><path clip-path="url(#clip630)" d="M150.034 1700.06 L154.918 1700.06 L154.918 1705.93 L150.034 1705.93 L150.034 1700.06 Z" fill="#000000" fill-rule="nonzero" fill-opacity="1" /><path clip-path="url(#clip630)" d="M175.103 1674.45 Q171.492 1674.45 169.663 1678.02 Q167.858 1681.56 167.858 1688.69 Q167.858 1695.8 169.663 1699.36 Q171.492 1702.9 175.103 1702.9 Q178.737 1702.9 180.543 1699.36 Q182.371 1695.8 182.371 1688.69 Q182.371 1681.56 180.543 1678.02 Q178.737 1674.45 175.103 1674.45 M175.103 1670.75 Q180.913 1670.75 183.969 1675.36 Q187.047 1679.94 187.047 1688.69 Q187.047 1697.42 183.969 1702.02 Q180.913 1706.61 175.103 1706.61 Q169.293 1706.61 166.214 1702.02 Q163.159 1697.42 163.159 1688.69 Q163.159 1679.94 166.214 1675.36 Q169.293 1670.75 175.103 1670.75 Z" fill="#000000" fill-rule="nonzero" fill-opacity="1" /><path clip-path="url(#clip630)" d="M196.075 1702 L203.714 1702 L203.714 1675.63 L195.404 1677.3 L195.404 1673.04 L203.668 1671.37 L208.344 1671.37 L208.344 1702 L215.982 1702 L215.982 1705.93 L196.075 1705.93 L196.075 1702 Z" fill="#000000" fill-rule="nonzero" fill-opacity="1" /><path clip-path="url(#clip630)" d="M130.242 1384.89 Q126.631 1384.89 124.802 1388.45 Q122.997 1391.99 122.997 1399.12 Q122.997 1406.23 124.802 1409.79 Q126.631 1413.34 130.242 1413.34 Q133.876 1413.34 135.682 1409.79 Q137.511 1406.23 137.511 1399.12 Q137.511 1391.99 135.682 1388.45 Q133.876 1384.89 130.242 1384.89 M130.242 1381.18 Q136.052 1381.18 139.108 1385.79 Q142.187 1390.37 142.187 1399.12 Q142.187 1407.85 139.108 1412.46 Q136.052 1417.04 130.242 1417.04 Q124.432 1417.04 121.353 1412.46 Q118.298 1407.85 118.298 1399.12 Q118.298 1390.37 121.353 1385.79 Q124.432 1381.18 130.242 1381.18 Z" fill="#000000" fill-rule="nonzero" fill-opacity="1" /><path clip-path="url(#clip630)" d="M150.404 1410.49 L155.288 1410.49 L155.288 1416.37 L150.404 1416.37 L150.404 1410.49 Z" fill="#000000" fill-rule="nonzero" fill-opacity="1" /><path clip-path="url(#clip630)" d="M175.473 1384.89 Q171.862 1384.89 170.034 1388.45 Q168.228 1391.99 168.228 1399.12 Q168.228 1406.23 170.034 1409.79 Q171.862 1413.34 175.473 1413.34 Q179.108 1413.34 180.913 1409.79 Q182.742 1406.23 182.742 1399.12 Q182.742 1391.99 180.913 1388.45 Q179.108 1384.89 175.473 1384.89 M175.473 1381.18 Q181.284 1381.18 184.339 1385.79 Q187.418 1390.37 187.418 1399.12 Q187.418 1407.85 184.339 1412.46 Q181.284 1417.04 175.473 1417.04 Q169.663 1417.04 166.585 1412.46 Q163.529 1407.85 163.529 1399.12 Q163.529 1390.37 166.585 1385.79 Q169.663 1381.18 175.473 1381.18 Z" fill="#000000" fill-rule="nonzero" fill-opacity="1" /><path clip-path="url(#clip630)" d="M199.663 1412.43 L215.982 1412.43 L215.982 1416.37 L194.038 1416.37 L194.038 1412.43 Q196.7 1409.68 201.283 1405.05 Q205.89 1400.4 207.07 1399.05 Q209.316 1396.53 210.195 1394.79 Q211.098 1393.03 211.098 1391.34 Q211.098 1388.59 209.154 1386.85 Q207.232 1385.12 204.131 1385.12 Q201.932 1385.12 199.478 1385.88 Q197.047 1386.65 194.27 1388.2 L194.27 1383.47 Q197.094 1382.34 199.547 1381.76 Q202.001 1381.18 204.038 1381.18 Q209.408 1381.18 212.603 1383.87 Q215.797 1386.55 215.797 1391.04 Q215.797 1393.17 214.987 1395.09 Q214.2 1396.99 212.094 1399.59 Q211.515 1400.26 208.413 1403.47 Q205.311 1406.67 199.663 1412.43 Z" fill="#000000" fill-rule="nonzero" fill-opacity="1" /><path clip-path="url(#clip630)" d="M129.293 1095.32 Q125.682 1095.32 123.853 1098.88 Q122.048 1102.43 122.048 1109.56 Q122.048 1116.66 123.853 1120.23 Q125.682 1123.77 129.293 1123.77 Q132.927 1123.77 134.733 1120.23 Q136.562 1116.66 136.562 1109.56 Q136.562 1102.43 134.733 1098.88 Q132.927 1095.32 129.293 1095.32 M129.293 1091.62 Q135.103 1091.62 138.159 1096.22 Q141.237 1100.81 141.237 1109.56 Q141.237 1118.28 138.159 1122.89 Q135.103 1127.47 129.293 1127.47 Q123.483 1127.47 120.404 1122.89 Q117.349 1118.28 117.349 1109.56 Q117.349 1100.81 120.404 1096.22 Q123.483 1091.62 129.293 1091.62 Z" fill="#000000" fill-rule="nonzero" fill-opacity="1" /><path clip-path="url(#clip630)" d="M149.455 1120.92 L154.339 1120.92 L154.339 1126.8 L149.455 1126.8 L149.455 1120.92 Z" fill="#000000" fill-rule="nonzero" fill-opacity="1" /><path clip-path="url(#clip630)" d="M174.524 1095.32 Q170.913 1095.32 169.085 1098.88 Q167.279 1102.43 167.279 1109.56 Q167.279 1116.66 169.085 1120.23 Q170.913 1123.77 174.524 1123.77 Q178.159 1123.77 179.964 1120.23 Q181.793 1116.66 181.793 1109.56 Q181.793 1102.43 179.964 1098.88 Q178.159 1095.32 174.524 1095.32 M174.524 1091.62 Q180.334 1091.62 183.39 1096.22 Q186.469 1100.81 186.469 1109.56 Q186.469 1118.28 183.39 1122.89 Q180.334 1127.47 174.524 1127.47 Q168.714 1127.47 165.635 1122.89 Q162.58 1118.28 162.58 1109.56 Q162.58 1100.81 165.635 1096.22 Q168.714 1091.62 174.524 1091.62 Z" fill="#000000" fill-rule="nonzero" fill-opacity="1" /><path clip-path="url(#clip630)" d="M208.853 1108.17 Q212.209 1108.88 214.084 1111.15 Q215.982 1113.42 215.982 1116.75 Q215.982 1121.87 212.464 1124.67 Q208.945 1127.47 202.464 1127.47 Q200.288 1127.47 197.973 1127.03 Q195.682 1126.62 193.228 1125.76 L193.228 1121.25 Q195.172 1122.38 197.487 1122.96 Q199.802 1123.54 202.325 1123.54 Q206.723 1123.54 209.015 1121.8 Q211.33 1120.06 211.33 1116.75 Q211.33 1113.7 209.177 1111.99 Q207.047 1110.25 203.228 1110.25 L199.2 1110.25 L199.2 1106.41 L203.413 1106.41 Q206.862 1106.41 208.691 1105.04 Q210.519 1103.65 210.519 1101.06 Q210.519 1098.4 208.621 1096.99 Q206.746 1095.55 203.228 1095.55 Q201.307 1095.55 199.108 1095.97 Q196.908 1096.38 194.27 1097.26 L194.27 1093.1 Q196.932 1092.36 199.246 1091.99 Q201.584 1091.62 203.645 1091.62 Q208.969 1091.62 212.07 1094.05 Q215.172 1096.45 215.172 1100.57 Q215.172 1103.44 213.529 1105.44 Q211.885 1107.4 208.853 1108.17 Z" fill="#000000" fill-rule="nonzero" fill-opacity="1" /><path clip-path="url(#clip630)" d="M128.159 805.753 Q124.548 805.753 122.719 809.317 Q120.913 812.859 120.913 819.989 Q120.913 827.095 122.719 830.66 Q124.548 834.201 128.159 834.201 Q131.793 834.201 133.599 830.66 Q135.427 827.095 135.427 819.989 Q135.427 812.859 133.599 809.317 Q131.793 805.753 128.159 805.753 M128.159 802.049 Q133.969 802.049 137.025 806.655 Q140.103 811.239 140.103 819.989 Q140.103 828.715 137.025 833.322 Q133.969 837.905 128.159 837.905 Q122.349 837.905 119.27 833.322 Q116.214 828.715 116.214 819.989 Q116.214 811.239 119.27 806.655 Q122.349 802.049 128.159 802.049 Z" fill="#000000" fill-rule="nonzero" fill-opacity="1" /><path clip-path="url(#clip630)" d="M148.321 831.354 L153.205 831.354 L153.205 837.234 L148.321 837.234 L148.321 831.354 Z" fill="#000000" fill-rule="nonzero" fill-opacity="1" /><path clip-path="url(#clip630)" d="M173.39 805.753 Q169.779 805.753 167.95 809.317 Q166.145 812.859 166.145 819.989 Q166.145 827.095 167.95 830.66 Q169.779 834.201 173.39 834.201 Q177.024 834.201 178.83 830.66 Q180.659 827.095 180.659 819.989 Q180.659 812.859 178.83 809.317 Q177.024 805.753 173.39 805.753 M173.39 802.049 Q179.2 802.049 182.256 806.655 Q185.334 811.239 185.334 819.989 Q185.334 828.715 182.256 833.322 Q179.2 837.905 173.39 837.905 Q167.58 837.905 164.501 833.322 Q161.446 828.715 161.446 819.989 Q161.446 811.239 164.501 806.655 Q167.58 802.049 173.39 802.049 Z" fill="#000000" fill-rule="nonzero" fill-opacity="1" /><path clip-path="url(#clip630)" d="M206.399 806.748 L194.594 825.197 L206.399 825.197 L206.399 806.748 M205.172 802.674 L211.052 802.674 L211.052 825.197 L215.982 825.197 L215.982 829.086 L211.052 829.086 L211.052 837.234 L206.399 837.234 L206.399 829.086 L190.797 829.086 L190.797 824.572 L205.172 802.674 Z" fill="#000000" fill-rule="nonzero" fill-opacity="1" /><path clip-path="url(#clip630)" d="M129.64 516.186 Q126.029 516.186 124.201 519.75 Q122.395 523.292 122.395 530.422 Q122.395 537.528 124.201 541.093 Q126.029 544.634 129.64 544.634 Q133.275 544.634 135.08 541.093 Q136.909 537.528 136.909 530.422 Q136.909 523.292 135.08 519.75 Q133.275 516.186 129.64 516.186 M129.64 512.482 Q135.45 512.482 138.506 517.088 Q141.585 521.672 141.585 530.422 Q141.585 539.148 138.506 543.755 Q135.45 548.338 129.64 548.338 Q123.83 548.338 120.751 543.755 Q117.696 539.148 117.696 530.422 Q117.696 521.672 120.751 517.088 Q123.83 512.482 129.64 512.482 Z" fill="#000000" fill-rule="nonzero" fill-opacity="1" /><path clip-path="url(#clip630)" d="M149.802 541.787 L154.686 541.787 L154.686 547.667 L149.802 547.667 L149.802 541.787 Z" fill="#000000" fill-rule="nonzero" fill-opacity="1" /><path clip-path="url(#clip630)" d="M174.872 516.186 Q171.26 516.186 169.432 519.75 Q167.626 523.292 167.626 530.422 Q167.626 537.528 169.432 541.093 Q171.26 544.634 174.872 544.634 Q178.506 544.634 180.311 541.093 Q182.14 537.528 182.14 530.422 Q182.14 523.292 180.311 519.75 Q178.506 516.186 174.872 516.186 M174.872 512.482 Q180.682 512.482 183.737 517.088 Q186.816 521.672 186.816 530.422 Q186.816 539.148 183.737 543.755 Q180.682 548.338 174.872 548.338 Q169.061 548.338 165.983 543.755 Q162.927 539.148 162.927 530.422 Q162.927 521.672 165.983 517.088 Q169.061 512.482 174.872 512.482 Z" fill="#000000" fill-rule="nonzero" fill-opacity="1" /><path clip-path="url(#clip630)" d="M195.08 513.107 L213.436 513.107 L213.436 517.042 L199.362 517.042 L199.362 525.514 Q200.381 525.167 201.399 525.005 Q202.418 524.82 203.436 524.82 Q209.223 524.82 212.603 527.991 Q215.982 531.162 215.982 536.579 Q215.982 542.158 212.51 545.259 Q209.038 548.338 202.719 548.338 Q200.543 548.338 198.274 547.968 Q196.029 547.597 193.621 546.857 L193.621 542.158 Q195.705 543.292 197.927 543.847 Q200.149 544.403 202.626 544.403 Q206.631 544.403 208.969 542.296 Q211.307 540.19 211.307 536.579 Q211.307 532.968 208.969 530.861 Q206.631 528.755 202.626 528.755 Q200.751 528.755 198.876 529.172 Q197.024 529.588 195.08 530.468 L195.08 513.107 Z" fill="#000000" fill-rule="nonzero" fill-opacity="1" /><path clip-path="url(#clip630)" d="M128.483 226.618 Q124.872 226.618 123.043 230.183 Q121.238 233.725 121.238 240.855 Q121.238 247.961 123.043 251.526 Q124.872 255.067 128.483 255.067 Q132.117 255.067 133.923 251.526 Q135.751 247.961 135.751 240.855 Q135.751 233.725 133.923 230.183 Q132.117 226.618 128.483 226.618 M128.483 222.915 Q134.293 222.915 137.349 227.521 Q140.427 232.105 140.427 240.855 Q140.427 249.581 137.349 254.188 Q134.293 258.771 128.483 258.771 Q122.673 258.771 119.594 254.188 Q116.539 249.581 116.539 240.855 Q116.539 232.105 119.594 227.521 Q122.673 222.915 128.483 222.915 Z" fill="#000000" fill-rule="nonzero" fill-opacity="1" /><path clip-path="url(#clip630)" d="M148.645 252.22 L153.529 252.22 L153.529 258.1 L148.645 258.1 L148.645 252.22 Z" fill="#000000" fill-rule="nonzero" fill-opacity="1" /><path clip-path="url(#clip630)" d="M173.714 226.618 Q170.103 226.618 168.274 230.183 Q166.469 233.725 166.469 240.855 Q166.469 247.961 168.274 251.526 Q170.103 255.067 173.714 255.067 Q177.348 255.067 179.154 251.526 Q180.983 247.961 180.983 240.855 Q180.983 233.725 179.154 230.183 Q177.348 226.618 173.714 226.618 M173.714 222.915 Q179.524 222.915 182.58 227.521 Q185.659 232.105 185.659 240.855 Q185.659 249.581 182.58 254.188 Q179.524 258.771 173.714 258.771 Q167.904 258.771 164.825 254.188 Q161.77 249.581 161.77 240.855 Q161.77 232.105 164.825 227.521 Q167.904 222.915 173.714 222.915 Z" fill="#000000" fill-rule="nonzero" fill-opacity="1" /><path clip-path="url(#clip630)" d="M204.455 238.956 Q201.307 238.956 199.455 241.109 Q197.626 243.262 197.626 247.012 Q197.626 250.739 199.455 252.915 Q201.307 255.067 204.455 255.067 Q207.603 255.067 209.432 252.915 Q211.283 250.739 211.283 247.012 Q211.283 243.262 209.432 241.109 Q207.603 238.956 204.455 238.956 M213.737 224.304 L213.737 228.563 Q211.978 227.73 210.172 227.29 Q208.39 226.85 206.631 226.85 Q202.001 226.85 199.547 229.975 Q197.117 233.1 196.77 239.419 Q198.135 237.405 200.195 236.341 Q202.256 235.253 204.732 235.253 Q209.941 235.253 212.95 238.424 Q215.982 241.572 215.982 247.012 Q215.982 252.336 212.834 255.554 Q209.686 258.771 204.455 258.771 Q198.459 258.771 195.288 254.188 Q192.117 249.581 192.117 240.855 Q192.117 232.66 196.006 227.799 Q199.895 222.915 206.445 222.915 Q208.205 222.915 209.987 223.262 Q211.793 223.609 213.737 224.304 Z" fill="#000000" fill-rule="nonzero" fill-opacity="1" /><path clip-path="url(#clip630)" d="M19.402 1098.4 L37.2578 1098.4 L37.2578 1090.32 Q37.2578 1085.83 34.9343 1083.38 Q32.6108 1080.93 28.314 1080.93 Q24.0489 1080.93 21.7255 1083.38 Q19.402 1085.83 19.402 1090.32 L19.402 1098.4 M14.1184 1104.83 L14.1184 1090.32 Q14.1184 1082.33 17.7469 1078.26 Q21.3435 1074.15 28.314 1074.15 Q35.3481 1074.15 38.9447 1078.26 Q42.5413 1082.33 42.5413 1090.32 L42.5413 1098.4 L61.6384 1098.4 L61.6384 1104.83 L14.1184 1104.83 Z" fill="#000000" fill-rule="nonzero" fill-opacity="1" /><path clip-path="url(#clip630)" d="M31.465 1046.27 Q30.8921 1047.26 30.6375 1048.43 Q30.351 1049.58 30.351 1050.98 Q30.351 1055.95 33.5975 1058.62 Q36.8122 1061.26 42.8596 1061.26 L61.6384 1061.26 L61.6384 1067.15 L25.9905 1067.15 L25.9905 1061.26 L31.5287 1061.26 Q28.2821 1059.41 26.7225 1056.45 Q25.1311 1053.49 25.1311 1049.26 Q25.1311 1048.66 25.2266 1047.92 Q25.2903 1047.19 25.4494 1046.3 L31.465 1046.27 Z" fill="#000000" fill-rule="nonzero" fill-opacity="1" /><path clip-path="url(#clip630)" d="M42.3504 1011.07 L45.2149 1011.07 L45.2149 1037.99 Q51.2623 1037.61 54.4452 1034.37 Q57.5962 1031.09 57.5962 1025.26 Q57.5962 1021.89 56.7687 1018.74 Q55.9411 1015.55 54.2861 1012.44 L59.8242 1012.44 Q61.161 1015.59 61.8612 1018.9 Q62.5615 1022.21 62.5615 1025.61 Q62.5615 1034.14 57.5962 1039.14 Q52.631 1044.1 44.1646 1044.1 Q35.4117 1044.1 30.2873 1039.39 Q25.1311 1034.65 25.1311 1026.63 Q25.1311 1019.44 29.7781 1015.27 Q34.3932 1011.07 42.3504 1011.07 M40.6316 1016.92 Q35.8255 1016.99 32.9609 1019.63 Q30.0964 1022.24 30.0964 1026.57 Q30.0964 1031.47 32.8654 1034.43 Q35.6345 1037.36 40.6634 1037.8 L40.6316 1016.92 Z" fill="#000000" fill-rule="nonzero" fill-opacity="1" /><path clip-path="url(#clip630)" d="M25.9905 1005.66 L25.9905 999.45 L55.9093 988.31 L25.9905 977.17 L25.9905 970.963 L61.6384 984.331 L61.6384 992.288 L25.9905 1005.66 Z" fill="#000000" fill-rule="nonzero" fill-opacity="1" /><path clip-path="url(#clip630)" d="M43.719 946.678 Q43.719 953.776 45.3422 956.513 Q46.9655 959.25 50.8804 959.25 Q53.9996 959.25 55.8457 957.213 Q57.6599 955.144 57.6599 951.611 Q57.6599 946.742 54.2224 943.813 Q50.7531 940.853 45.0239 940.853 L43.719 940.853 L43.719 946.678 M41.3 934.997 L61.6384 934.997 L61.6384 940.853 L56.2276 940.853 Q59.4741 942.858 61.0337 945.85 Q62.5615 948.842 62.5615 953.171 Q62.5615 958.645 59.5059 961.892 Q56.4186 965.107 51.2623 965.107 Q45.2467 965.107 42.1912 961.096 Q39.1357 957.054 39.1357 949.065 L39.1357 940.853 L38.5628 940.853 Q34.5205 940.853 32.3244 943.527 Q30.0964 946.169 30.0964 950.975 Q30.0964 954.03 30.8284 956.927 Q31.5605 959.823 33.0246 962.497 L27.6137 962.497 Q26.3724 959.282 25.7677 956.258 Q25.1311 953.235 25.1311 950.37 Q25.1311 942.636 29.1415 938.816 Q33.1519 934.997 41.3 934.997 Z" fill="#000000" fill-rule="nonzero" fill-opacity="1" /><path clip-path="url(#clip630)" d="M12.1132 922.934 L12.1132 917.077 L61.6384 917.077 L61.6384 922.934 L12.1132 922.934 Z" fill="#000000" fill-rule="nonzero" fill-opacity="1" /><path clip-path="url(#clip630)" d="M42.3504 874.332 L45.2149 874.332 L45.2149 901.259 Q51.2623 900.877 54.4452 897.63 Q57.5962 894.352 57.5962 888.527 Q57.5962 885.153 56.7687 882.002 Q55.9411 878.819 54.2861 875.7 L59.8242 875.7 Q61.161 878.851 61.8612 882.161 Q62.5615 885.472 62.5615 888.877 Q62.5615 897.407 57.5962 902.404 Q52.631 907.37 44.1646 907.37 Q35.4117 907.37 30.2873 902.659 Q25.1311 897.917 25.1311 889.896 Q25.1311 882.702 29.7781 878.533 Q34.3932 874.332 42.3504 874.332 M40.6316 880.188 Q35.8255 880.252 32.9609 882.893 Q30.0964 885.503 30.0964 889.832 Q30.0964 894.734 32.8654 897.694 Q35.6345 900.622 40.6634 901.068 L40.6316 880.188 Z" fill="#000000" fill-rule="nonzero" fill-opacity="1" /><path clip-path="url(#clip630)" d="M40.1224 835.087 L61.6384 835.087 L61.6384 840.943 L40.3133 840.943 Q35.2526 840.943 32.7381 842.917 Q30.2237 844.89 30.2237 848.837 Q30.2237 853.579 33.2474 856.317 Q36.2711 859.054 41.491 859.054 L61.6384 859.054 L61.6384 864.942 L25.9905 864.942 L25.9905 859.054 L31.5287 859.054 Q28.314 856.953 26.7225 854.12 Q25.1311 851.256 25.1311 847.532 Q25.1311 841.389 28.9505 838.238 Q32.7381 835.087 40.1224 835.087 Z" fill="#000000" fill-rule="nonzero" fill-opacity="1" /><path clip-path="url(#clip630)" d="M27.3591 797.752 L32.8336 797.752 Q31.465 800.235 30.7966 802.749 Q30.0964 805.232 30.0964 807.778 Q30.0964 813.475 33.7248 816.626 Q37.3214 819.777 43.8463 819.777 Q50.3711 819.777 53.9996 816.626 Q57.5962 813.475 57.5962 807.778 Q57.5962 805.232 56.9278 802.749 Q56.2276 800.235 54.859 797.752 L60.2698 797.752 Q61.4156 800.203 61.9886 802.845 Q62.5615 805.455 62.5615 808.415 Q62.5615 816.467 57.5007 821.21 Q52.44 825.952 43.8463 825.952 Q35.1253 825.952 30.1282 821.178 Q25.1311 816.372 25.1311 808.033 Q25.1311 805.327 25.704 802.749 Q26.2451 800.171 27.3591 797.752 Z" fill="#000000" fill-rule="nonzero" fill-opacity="1" /><path clip-path="url(#clip630)" d="M42.3504 757.075 L45.2149 757.075 L45.2149 784.002 Q51.2623 783.62 54.4452 780.374 Q57.5962 777.095 57.5962 771.271 Q57.5962 767.897 56.7687 764.746 Q55.9411 761.563 54.2861 758.444 L59.8242 758.444 Q61.161 761.595 61.8612 764.905 Q62.5615 768.215 62.5615 771.621 Q62.5615 780.151 57.5962 785.148 Q52.631 790.113 44.1646 790.113 Q35.4117 790.113 30.2873 785.403 Q25.1311 780.66 25.1311 772.639 Q25.1311 765.446 29.7781 761.277 Q34.3932 757.075 42.3504 757.075 M40.6316 762.932 Q35.8255 762.995 32.9609 765.637 Q30.0964 768.247 30.0964 772.576 Q30.0964 777.477 32.8654 780.437 Q35.6345 783.366 40.6634 783.811 L40.6316 762.932 Z" fill="#000000" fill-rule="nonzero" fill-opacity="1" /><path clip-path="url(#clip630)" d="M917.577 14.0809 L917.577 22.0612 Q912.919 19.8332 908.787 18.7395 Q904.655 17.6457 900.806 17.6457 Q894.122 17.6457 890.477 20.2383 Q886.871 22.8309 886.871 27.611 Q886.871 31.6214 889.261 33.6873 Q891.692 35.7128 898.416 36.9686 L903.358 37.9813 Q912.514 39.7232 916.848 44.1387 Q921.223 48.5136 921.223 55.8863 Q921.223 64.6767 915.309 69.2137 Q909.435 73.7508 898.052 73.7508 Q893.758 73.7508 888.897 72.7785 Q884.076 71.8063 878.891 69.9024 L878.891 61.4765 Q883.874 64.2716 888.654 65.6895 Q893.434 67.1073 898.052 67.1073 Q905.06 67.1073 908.868 64.3527 Q912.676 61.598 912.676 56.4939 Q912.676 52.0379 909.921 49.5264 Q907.207 47.0148 900.968 45.759 L895.986 44.7868 Q886.831 42.9639 882.739 39.075 Q878.648 35.1862 878.648 28.2591 Q878.648 20.2383 884.279 15.6203 Q889.95 11.0023 899.875 11.0023 Q904.128 11.0023 908.544 11.7719 Q912.959 12.5416 917.577 14.0809 Z" fill="#000000" fill-rule="nonzero" fill-opacity="1" /><path clip-path="url(#clip630)" d="M933.659 27.2059 L941.113 27.2059 L941.113 72.576 L933.659 72.576 L933.659 27.2059 M933.659 9.54393 L941.113 9.54393 L941.113 18.9825 L933.659 18.9825 L933.659 9.54393 Z" fill="#000000" fill-rule="nonzero" fill-opacity="1" /><path clip-path="url(#clip630)" d="M994.423 45.1919 L994.423 72.576 L986.969 72.576 L986.969 45.4349 Q986.969 38.994 984.458 35.7938 Q981.946 32.5936 976.923 32.5936 Q970.887 32.5936 967.403 36.4419 Q963.919 40.2903 963.919 46.9338 L963.919 72.576 L956.425 72.576 L956.425 27.2059 L963.919 27.2059 L963.919 34.2544 Q966.593 30.163 970.198 28.1376 Q973.844 26.1121 978.584 26.1121 Q986.402 26.1121 990.412 30.9732 Q994.423 35.7938 994.423 45.1919 Z" fill="#000000" fill-rule="nonzero" fill-opacity="1" /><path clip-path="url(#clip630)" d="M1039.14 49.3643 Q1039.14 41.2625 1035.78 36.8065 Q1032.46 32.3505 1026.42 32.3505 Q1020.43 32.3505 1017.07 36.8065 Q1013.75 41.2625 1013.75 49.3643 Q1013.75 57.4256 1017.07 61.8816 Q1020.43 66.3376 1026.42 66.3376 Q1032.46 66.3376 1035.78 61.8816 Q1039.14 57.4256 1039.14 49.3643 M1046.6 66.9452 Q1046.6 78.5308 1041.45 84.1616 Q1036.31 89.8329 1025.7 89.8329 Q1021.77 89.8329 1018.28 89.2252 Q1014.8 88.6581 1011.52 87.4428 L1011.52 80.1917 Q1014.8 81.9741 1018 82.8248 Q1021.2 83.6755 1024.52 83.6755 Q1031.85 83.6755 1035.5 79.8271 Q1039.14 76.0193 1039.14 68.282 L1039.14 64.5957 Q1036.84 68.6061 1033.23 70.5911 Q1029.63 72.576 1024.6 72.576 Q1016.26 72.576 1011.15 66.2161 Q1006.05 59.8562 1006.05 49.3643 Q1006.05 38.832 1011.15 32.472 Q1016.26 26.1121 1024.6 26.1121 Q1029.63 26.1121 1033.23 28.0971 Q1036.84 30.082 1039.14 34.0924 L1039.14 27.2059 L1046.6 27.2059 L1046.6 66.9452 Z" fill="#000000" fill-rule="nonzero" fill-opacity="1" /><path clip-path="url(#clip630)" d="M1061.95 9.54393 L1069.41 9.54393 L1069.41 72.576 L1061.95 72.576 L1061.95 9.54393 Z" fill="#000000" fill-rule="nonzero" fill-opacity="1" /><path clip-path="url(#clip630)" d="M1123.81 48.0275 L1123.81 51.6733 L1089.54 51.6733 Q1090.02 59.3701 1094.16 63.421 Q1098.33 67.4314 1105.74 67.4314 Q1110.04 67.4314 1114.05 66.3781 Q1118.1 65.3249 1122.07 63.2184 L1122.07 70.267 Q1118.06 71.9684 1113.84 72.8596 Q1109.63 73.7508 1105.3 73.7508 Q1094.44 73.7508 1088.08 67.4314 Q1081.76 61.1119 1081.76 50.3365 Q1081.76 39.1965 1087.76 32.6746 Q1093.79 26.1121 1104 26.1121 Q1113.15 26.1121 1118.46 32.0264 Q1123.81 37.9003 1123.81 48.0275 M1116.36 45.84 Q1116.27 39.7232 1112.91 36.0774 Q1109.59 32.4315 1104.08 32.4315 Q1097.84 32.4315 1094.08 35.9558 Q1090.35 39.4801 1089.78 45.8805 L1116.36 45.84 Z" fill="#000000" fill-rule="nonzero" fill-opacity="1" /><path clip-path="url(#clip630)" d="M1157.07 27.2059 L1164.97 27.2059 L1179.14 65.2844 L1193.32 27.2059 L1201.22 27.2059 L1184.21 72.576 L1174.08 72.576 L1157.07 27.2059 Z" fill="#000000" fill-rule="nonzero" fill-opacity="1" /><path clip-path="url(#clip630)" d="M1240.43 28.5427 L1240.43 35.5912 Q1237.27 33.9709 1233.87 33.1607 Q1230.47 32.3505 1226.82 32.3505 Q1221.27 32.3505 1218.48 34.0519 Q1215.72 35.7533 1215.72 39.156 Q1215.72 41.7486 1217.71 43.2475 Q1219.69 44.7058 1225.69 46.0426 L1228.24 46.6097 Q1236.18 48.3111 1239.5 51.4303 Q1242.86 54.509 1242.86 60.0587 Q1242.86 66.3781 1237.84 70.0644 Q1232.86 73.7508 1224.11 73.7508 Q1220.46 73.7508 1216.49 73.0216 Q1212.56 72.3329 1208.19 70.9151 L1208.19 63.2184 Q1212.32 65.3654 1216.33 66.4591 Q1220.34 67.5124 1224.27 67.5124 Q1229.54 67.5124 1232.37 65.73 Q1235.21 63.9071 1235.21 60.6258 Q1235.21 57.5877 1233.14 55.9673 Q1231.12 54.3469 1224.19 52.8481 L1221.6 52.2405 Q1214.67 50.7821 1211.59 47.7845 Q1208.51 44.7463 1208.51 39.4801 Q1208.51 33.0797 1213.05 29.5959 Q1217.59 26.1121 1225.93 26.1121 Q1230.06 26.1121 1233.71 26.7198 Q1237.36 27.3274 1240.43 28.5427 Z" fill="#000000" fill-rule="nonzero" fill-opacity="1" /><path clip-path="url(#clip630)" d="M1281.43 12.096 L1289.61 12.096 L1289.61 65.6895 L1319.06 65.6895 L1319.06 72.576 L1281.43 72.576 L1281.43 12.096 Z" fill="#000000" fill-rule="nonzero" fill-opacity="1" /><path clip-path="url(#clip630)" d="M1347.95 49.7694 Q1338.91 49.7694 1335.43 51.8354 Q1331.94 53.9013 1331.94 58.8839 Q1331.94 62.8538 1334.54 65.2034 Q1337.17 67.5124 1341.67 67.5124 Q1347.86 67.5124 1351.59 63.1374 Q1355.36 58.7219 1355.36 51.4303 L1355.36 49.7694 L1347.95 49.7694 M1362.81 46.6907 L1362.81 72.576 L1355.36 72.576 L1355.36 65.6895 Q1352.81 69.8214 1349 71.8063 Q1345.19 73.7508 1339.68 73.7508 Q1332.71 73.7508 1328.58 69.8619 Q1324.49 65.9325 1324.49 59.3701 Q1324.49 51.7138 1329.59 47.825 Q1334.74 43.9361 1344.91 43.9361 L1355.36 43.9361 L1355.36 43.2069 Q1355.36 38.0623 1351.96 35.2672 Q1348.59 32.4315 1342.48 32.4315 Q1338.59 32.4315 1334.9 33.3632 Q1331.21 34.295 1327.81 36.1584 L1327.81 29.2718 Q1331.9 27.692 1335.75 26.9223 Q1339.6 26.1121 1343.25 26.1121 Q1353.09 26.1121 1357.95 31.2163 Q1362.81 36.3204 1362.81 46.6907 Z" fill="#000000" fill-rule="nonzero" fill-opacity="1" /><path clip-path="url(#clip630)" d="M1397.04 76.7889 Q1393.88 84.8907 1390.88 87.3618 Q1387.89 89.8329 1382.86 89.8329 L1376.91 89.8329 L1376.91 83.5945 L1381.28 83.5945 Q1384.36 83.5945 1386.06 82.1361 Q1387.77 80.6778 1389.83 75.2496 L1391.17 71.8468 L1372.82 27.2059 L1380.72 27.2059 L1394.9 62.6918 L1409.07 27.2059 L1416.97 27.2059 L1397.04 76.7889 Z" fill="#000000" fill-rule="nonzero" fill-opacity="1" /><path clip-path="url(#clip630)" d="M1466.07 48.0275 L1466.07 51.6733 L1431.8 51.6733 Q1432.29 59.3701 1436.42 63.421 Q1440.59 67.4314 1448 67.4314 Q1452.3 67.4314 1456.31 66.3781 Q1460.36 65.3249 1464.33 63.2184 L1464.33 70.267 Q1460.32 71.9684 1456.1 72.8596 Q1451.89 73.7508 1447.56 73.7508 Q1436.7 73.7508 1430.34 67.4314 Q1424.02 61.1119 1424.02 50.3365 Q1424.02 39.1965 1430.02 32.6746 Q1436.05 26.1121 1446.26 26.1121 Q1455.42 26.1121 1460.72 32.0264 Q1466.07 37.9003 1466.07 48.0275 M1458.62 45.84 Q1458.53 39.7232 1455.17 36.0774 Q1451.85 32.4315 1446.34 32.4315 Q1440.1 32.4315 1436.34 35.9558 Q1432.61 39.4801 1432.04 45.8805 L1458.62 45.84 Z" fill="#000000" fill-rule="nonzero" fill-opacity="1" /><path clip-path="url(#clip630)" d="M1504.59 34.1734 Q1503.34 33.4443 1501.84 33.1202 Q1500.38 32.7556 1498.6 32.7556 Q1492.28 32.7556 1488.88 36.8875 Q1485.51 40.9789 1485.51 48.6757 L1485.51 72.576 L1478.02 72.576 L1478.02 27.2059 L1485.51 27.2059 L1485.51 34.2544 Q1487.86 30.1225 1491.63 28.1376 Q1495.4 26.1121 1500.79 26.1121 Q1501.56 26.1121 1502.49 26.2337 Q1503.42 26.3147 1504.55 26.5172 L1504.59 34.1734 Z" fill="#000000" fill-rule="nonzero" fill-opacity="1" /><path clip-path="url(#clip630)" d="M1549.4 48.0275 L1549.4 51.6733 L1515.13 51.6733 Q1515.61 59.3701 1519.74 63.421 Q1523.92 67.4314 1531.33 67.4314 Q1535.62 67.4314 1539.63 66.3781 Q1543.68 65.3249 1547.65 63.2184 L1547.65 70.267 Q1543.64 71.9684 1539.43 72.8596 Q1535.22 73.7508 1530.88 73.7508 Q1520.03 73.7508 1513.67 67.4314 Q1507.35 61.1119 1507.35 50.3365 Q1507.35 39.1965 1513.34 32.6746 Q1519.38 26.1121 1529.59 26.1121 Q1538.74 26.1121 1544.05 32.0264 Q1549.4 37.9003 1549.4 48.0275 M1541.94 45.84 Q1541.86 39.7232 1538.5 36.0774 Q1535.18 32.4315 1529.67 32.4315 Q1523.43 32.4315 1519.66 35.9558 Q1515.94 39.4801 1515.37 45.8805 L1541.94 45.84 Z" fill="#000000" fill-rule="nonzero" fill-opacity="1" /><path clip-path="url(#clip630)" d="M1591.49 34.0924 L1591.49 9.54393 L1598.94 9.54393 L1598.94 72.576 L1591.49 72.576 L1591.49 65.7705 Q1589.14 69.8214 1585.53 71.8063 Q1581.97 73.7508 1576.94 73.7508 Q1568.72 73.7508 1563.53 67.1883 Q1558.39 60.6258 1558.39 49.9314 Q1558.39 39.2371 1563.53 32.6746 Q1568.72 26.1121 1576.94 26.1121 Q1581.97 26.1121 1585.53 28.0971 Q1589.14 30.0415 1591.49 34.0924 M1566.09 49.9314 Q1566.09 58.1548 1569.45 62.8538 Q1572.85 67.5124 1578.77 67.5124 Q1584.68 67.5124 1588.08 62.8538 Q1591.49 58.1548 1591.49 49.9314 Q1591.49 41.7081 1588.08 37.0496 Q1584.68 32.3505 1578.77 32.3505 Q1572.85 32.3505 1569.45 37.0496 Q1566.09 41.7081 1566.09 49.9314 Z" fill="#000000" fill-rule="nonzero" fill-opacity="1" /><path clip-path="url(#clip630)" d="M1640.99 12.096 L1652.01 12.096 L1678.82 62.6918 L1678.82 12.096 L1686.76 12.096 L1686.76 72.576 L1675.74 72.576 L1648.93 21.9802 L1648.93 72.576 L1640.99 72.576 L1640.99 12.096 Z" fill="#000000" fill-rule="nonzero" fill-opacity="1" /><path clip-path="url(#clip630)" d="M1741.53 48.0275 L1741.53 51.6733 L1707.26 51.6733 Q1707.75 59.3701 1711.88 63.421 Q1716.05 67.4314 1723.46 67.4314 Q1727.76 67.4314 1731.77 66.3781 Q1735.82 65.3249 1739.79 63.2184 L1739.79 70.267 Q1735.78 71.9684 1731.57 72.8596 Q1727.35 73.7508 1723.02 73.7508 Q1712.16 73.7508 1705.8 67.4314 Q1699.48 61.1119 1699.48 50.3365 Q1699.48 39.1965 1705.48 32.6746 Q1711.51 26.1121 1721.72 26.1121 Q1730.88 26.1121 1736.18 32.0264 Q1741.53 37.9003 1741.53 48.0275 M1734.08 45.84 Q1734 39.7232 1730.63 36.0774 Q1727.31 32.4315 1721.8 32.4315 Q1715.56 32.4315 1711.8 35.9558 Q1708.07 39.4801 1707.5 45.8805 L1734.08 45.84 Z" fill="#000000" fill-rule="nonzero" fill-opacity="1" /><path clip-path="url(#clip630)" d="M1761.14 14.324 L1761.14 27.2059 L1776.49 27.2059 L1776.49 32.9987 L1761.14 32.9987 L1761.14 57.6282 Q1761.14 63.1779 1762.64 64.7578 Q1764.18 66.3376 1768.83 66.3376 L1776.49 66.3376 L1776.49 72.576 L1768.83 72.576 Q1760.21 72.576 1756.92 69.3758 Q1753.64 66.1351 1753.64 57.6282 L1753.64 32.9987 L1748.17 32.9987 L1748.17 27.2059 L1753.64 27.2059 L1753.64 14.324 L1761.14 14.324 Z" fill="#000000" fill-rule="nonzero" fill-opacity="1" /><path clip-path="url(#clip630)" d="M1781.96 27.2059 L1789.41 27.2059 L1798.73 62.6108 L1808.01 27.2059 L1816.8 27.2059 L1826.11 62.6108 L1835.39 27.2059 L1842.84 27.2059 L1830.98 72.576 L1822.18 72.576 L1812.42 35.3887 L1802.62 72.576 L1793.83 72.576 L1781.96 27.2059 Z" fill="#000000" fill-rule="nonzero" fill-opacity="1" /><path clip-path="url(#clip630)" d="M1871.73 32.4315 Q1865.73 32.4315 1862.25 37.1306 Q1858.76 41.7891 1858.76 49.9314 Q1858.76 58.0738 1862.21 62.7728 Q1865.69 67.4314 1871.73 67.4314 Q1877.68 67.4314 1881.17 62.7323 Q1884.65 58.0333 1884.65 49.9314 Q1884.65 41.8701 1881.17 37.1711 Q1877.68 32.4315 1871.73 32.4315 M1871.73 26.1121 Q1881.45 26.1121 1887 32.4315 Q1892.55 38.7509 1892.55 49.9314 Q1892.55 61.0714 1887 67.4314 Q1881.45 73.7508 1871.73 73.7508 Q1861.96 73.7508 1856.41 67.4314 Q1850.91 61.0714 1850.91 49.9314 Q1850.91 38.7509 1856.41 32.4315 Q1861.96 26.1121 1871.73 26.1121 Z" fill="#000000" fill-rule="nonzero" fill-opacity="1" /><path clip-path="url(#clip630)" d="M1931.19 34.1734 Q1929.94 33.4443 1928.44 33.1202 Q1926.98 32.7556 1925.2 32.7556 Q1918.88 32.7556 1915.48 36.8875 Q1912.11 40.9789 1912.11 48.6757 L1912.11 72.576 L1904.62 72.576 L1904.62 27.2059 L1912.11 27.2059 L1912.11 34.2544 Q1914.46 30.1225 1918.23 28.1376 Q1922 26.1121 1927.39 26.1121 Q1928.16 26.1121 1929.09 26.2337 Q1930.02 26.3147 1931.15 26.5172 L1931.19 34.1734 Z" fill="#000000" fill-rule="nonzero" fill-opacity="1" /><path clip-path="url(#clip630)" d="M1938.73 9.54393 L1946.22 9.54393 L1946.22 46.7717 L1968.46 27.2059 L1977.98 27.2059 L1953.92 48.4326 L1979 72.576 L1969.27 72.576 L1946.22 50.4176 L1946.22 72.576 L1938.73 72.576 L1938.73 9.54393 Z" fill="#000000" fill-rule="nonzero" fill-opacity="1" /><path clip-path="url(#clip630)" d="M2015.98 28.5427 L2015.98 35.5912 Q2012.82 33.9709 2009.42 33.1607 Q2006.01 32.3505 2002.37 32.3505 Q1996.82 32.3505 1994.02 34.0519 Q1991.27 35.7533 1991.27 39.156 Q1991.27 41.7486 1993.25 43.2475 Q1995.24 44.7058 2001.23 46.0426 L2003.79 46.6097 Q2011.73 48.3111 2015.05 51.4303 Q2018.41 54.509 2018.41 60.0587 Q2018.41 66.3781 2013.39 70.0644 Q2008.4 73.7508 1999.65 73.7508 Q1996.01 73.7508 1992.04 73.0216 Q1988.11 72.3329 1983.73 70.9151 L1983.73 63.2184 Q1987.87 65.3654 1991.88 66.4591 Q1995.89 67.5124 1999.82 67.5124 Q2005.08 67.5124 2007.92 65.73 Q2010.75 63.9071 2010.75 60.6258 Q2010.75 57.5877 2008.69 55.9673 Q2006.66 54.3469 1999.74 52.8481 L1997.14 52.2405 Q1990.22 50.7821 1987.14 47.7845 Q1984.06 44.7463 1984.06 39.4801 Q1984.06 33.0797 1988.6 29.5959 Q1993.13 26.1121 2001.48 26.1121 Q2005.61 26.1121 2009.26 26.7198 Q2012.9 27.3274 2015.98 28.5427 Z" fill="#000000" fill-rule="nonzero" fill-opacity="1" /><polyline clip-path="url(#clip631)" style="stroke:#0000ff; stroke-linecap:round; stroke-linejoin:round; stroke-width:8; stroke-opacity:1; fill:none" stroke-dasharray="32, 20" points="323.787,1601.78 380.024,1457 436.261,1355.65 492.498,1196.39 548.735,979.216 604.973,877.867 661.21,805.476 717.447,834.432 773.684,733.084 829.921,747.562 886.158,704.127 942.395,776.519 998.632,892.346 1054.87,950.259 1111.11,993.694 1167.34,1008.17 1223.58,1008.17 1279.82,1022.65 1336.05,979.216 1392.29,1066.09 1448.53,1109.52 1504.77,1225.35 1561,1355.65 1617.24,1413.57 1673.48,1428.04 1729.71,1457 1785.95,1442.52 1842.19,1413.57 1898.43,1428.04 1954.66,1428.04 2010.9,1428.04 2067.14,1543.87 2123.37,1471.48 2179.61,1543.87 2235.85,1543.87 2292.09,1659.7 2348.32,1674.18 2404.56,1659.7 2460.8,1674.18 2517.03,1688.65 2573.27,1688.65 "/>
<polyline clip-path="url(#clip631)" style="stroke:#ff0000; stroke-linecap:round; stroke-linejoin:round; stroke-width:8; stroke-opacity:1; fill:none" points="323.787,1630.74 380.024,1534.22 436.261,1408.74 492.498,1312.22 548.735,1148.13 604.973,1128.83 661.21,1206.04 717.447,1263.96 773.684,1215.7 829.921,1196.39 886.158,1206.04 942.395,1186.74 998.632,1167.43 1054.87,1196.39 1111.11,1273.61 1167.34,1244.65 1223.58,1312.22 1279.82,1321.87 1336.05,1321.87 1392.29,1312.22 1448.53,1399.09 1504.77,1370.13 1561,1321.87 1617.24,1263.96 1673.48,1167.43 1729.71,1022.65 1785.95,935.781 1842.19,819.954 1898.43,771.693 1954.66,790.997 2010.9,762.04 2067.14,684.823 2123.37,684.823 2179.61,704.127 2235.85,665.518 2292.09,578.648 2348.32,511.082 2404.56,443.517 2460.8,337.342 2517.03,182.906 2573.27,173.254 "/>
<path clip-path="url(#clip630)" d="M335.784 336.856 L1187.17 336.856 L1187.17 181.336 L335.784 181.336  Z" fill="#ffffff" fill-rule="evenodd" fill-opacity="1"/>
<polyline clip-path="url(#clip630)" style="stroke:#000000; stroke-linecap:round; stroke-linejoin:round; stroke-width:4; stroke-opacity:1; fill:none" points="335.784,336.856 1187.17,336.856 1187.17,181.336 335.784,181.336 335.784,336.856 "/>
<polyline clip-path="url(#clip630)" style="stroke:#0000ff; stroke-linecap:round; stroke-linejoin:round; stroke-width:8; stroke-opacity:1; fill:none" stroke-dasharray="32, 20" points="362.278,233.176 521.242,233.176 "/>
<path clip-path="url(#clip630)" d="M569.981 217.031 L569.981 221.591 Q567.319 220.318 564.958 219.693 Q562.597 219.068 560.398 219.068 Q556.578 219.068 554.495 220.549 Q552.435 222.031 552.435 224.762 Q552.435 227.054 553.8 228.234 Q555.189 229.392 559.032 230.109 L561.856 230.688 Q567.087 231.683 569.564 234.206 Q572.064 236.706 572.064 240.919 Q572.064 245.942 568.685 248.535 Q565.328 251.128 558.824 251.128 Q556.37 251.128 553.592 250.572 Q550.837 250.016 547.875 248.929 L547.875 244.114 Q550.722 245.711 553.453 246.521 Q556.185 247.331 558.824 247.331 Q562.828 247.331 565.004 245.757 Q567.18 244.183 567.18 241.267 Q567.18 238.72 565.606 237.285 Q564.055 235.85 560.49 235.132 L557.643 234.577 Q552.412 233.535 550.074 231.313 Q547.736 229.091 547.736 225.132 Q547.736 220.549 550.953 217.91 Q554.194 215.271 559.865 215.271 Q562.296 215.271 564.819 215.711 Q567.342 216.151 569.981 217.031 Z" fill="#000000" fill-rule="nonzero" fill-opacity="1" /><path clip-path="url(#clip630)" d="M579.171 224.531 L583.43 224.531 L583.43 250.456 L579.171 250.456 L579.171 224.531 M579.171 214.438 L583.43 214.438 L583.43 219.831 L579.171 219.831 L579.171 214.438 Z" fill="#000000" fill-rule="nonzero" fill-opacity="1" /><path clip-path="url(#clip630)" d="M613.893 234.808 L613.893 250.456 L609.633 250.456 L609.633 234.947 Q609.633 231.267 608.198 229.438 Q606.763 227.609 603.893 227.609 Q600.444 227.609 598.453 229.808 Q596.462 232.007 596.462 235.804 L596.462 250.456 L592.18 250.456 L592.18 224.531 L596.462 224.531 L596.462 228.558 Q597.99 226.22 600.05 225.063 Q602.133 223.906 604.842 223.906 Q609.309 223.906 611.601 226.683 Q613.893 229.438 613.893 234.808 Z" fill="#000000" fill-rule="nonzero" fill-opacity="1" /><path clip-path="url(#clip630)" d="M639.448 237.192 Q639.448 232.563 637.527 230.017 Q635.629 227.47 632.18 227.47 Q628.754 227.47 626.832 230.017 Q624.934 232.563 624.934 237.192 Q624.934 241.799 626.832 244.345 Q628.754 246.891 632.18 246.891 Q635.629 246.891 637.527 244.345 Q639.448 241.799 639.448 237.192 M643.707 247.239 Q643.707 253.859 640.768 257.077 Q637.828 260.317 631.763 260.317 Q629.518 260.317 627.527 259.97 Q625.536 259.646 623.661 258.952 L623.661 254.808 Q625.536 255.827 627.365 256.313 Q629.194 256.799 631.092 256.799 Q635.281 256.799 637.365 254.6 Q639.448 252.424 639.448 248.003 L639.448 245.896 Q638.129 248.188 636.068 249.322 Q634.008 250.456 631.138 250.456 Q626.369 250.456 623.453 246.822 Q620.536 243.188 620.536 237.192 Q620.536 231.174 623.453 227.54 Q626.369 223.906 631.138 223.906 Q634.008 223.906 636.068 225.04 Q638.129 226.174 639.448 228.466 L639.448 224.531 L643.707 224.531 L643.707 247.239 Z" fill="#000000" fill-rule="nonzero" fill-opacity="1" /><path clip-path="url(#clip630)" d="M652.48 214.438 L656.74 214.438 L656.74 250.456 L652.48 250.456 L652.48 214.438 Z" fill="#000000" fill-rule="nonzero" fill-opacity="1" /><path clip-path="url(#clip630)" d="M687.827 236.429 L687.827 238.512 L668.244 238.512 Q668.522 242.91 670.883 245.225 Q673.267 247.516 677.503 247.516 Q679.957 247.516 682.249 246.915 Q684.564 246.313 686.832 245.109 L686.832 249.137 Q684.54 250.109 682.133 250.618 Q679.726 251.128 677.249 251.128 Q671.045 251.128 667.411 247.516 Q663.8 243.905 663.8 237.748 Q663.8 231.382 667.226 227.655 Q670.675 223.906 676.508 223.906 Q681.74 223.906 684.772 227.285 Q687.827 230.642 687.827 236.429 M683.568 235.179 Q683.522 231.683 681.601 229.6 Q679.703 227.517 676.554 227.517 Q672.99 227.517 670.837 229.53 Q668.707 231.544 668.383 235.202 L683.568 235.179 Z" fill="#000000" fill-rule="nonzero" fill-opacity="1" /><path clip-path="url(#clip630)" d="M731.438 234.808 L731.438 250.456 L727.179 250.456 L727.179 234.947 Q727.179 231.267 725.744 229.438 Q724.309 227.609 721.438 227.609 Q717.989 227.609 715.999 229.808 Q714.008 232.007 714.008 235.804 L714.008 250.456 L709.726 250.456 L709.726 224.531 L714.008 224.531 L714.008 228.558 Q715.536 226.22 717.596 225.063 Q719.679 223.906 722.387 223.906 Q726.855 223.906 729.147 226.683 Q731.438 229.438 731.438 234.808 Z" fill="#000000" fill-rule="nonzero" fill-opacity="1" /><path clip-path="url(#clip630)" d="M762.109 236.429 L762.109 238.512 L742.526 238.512 Q742.804 242.91 745.165 245.225 Q747.549 247.516 751.785 247.516 Q754.239 247.516 756.531 246.915 Q758.846 246.313 761.114 245.109 L761.114 249.137 Q758.822 250.109 756.415 250.618 Q754.008 251.128 751.531 251.128 Q745.327 251.128 741.693 247.516 Q738.082 243.905 738.082 237.748 Q738.082 231.382 741.508 227.655 Q744.957 223.906 750.79 223.906 Q756.022 223.906 759.054 227.285 Q762.109 230.642 762.109 236.429 M757.85 235.179 Q757.804 231.683 755.883 229.6 Q753.985 227.517 750.836 227.517 Q747.272 227.517 745.119 229.53 Q742.989 231.544 742.665 235.202 L757.85 235.179 Z" fill="#000000" fill-rule="nonzero" fill-opacity="1" /><path clip-path="url(#clip630)" d="M773.313 217.169 L773.313 224.531 L782.086 224.531 L782.086 227.841 L773.313 227.841 L773.313 241.915 Q773.313 245.086 774.17 245.989 Q775.049 246.891 777.711 246.891 L782.086 246.891 L782.086 250.456 L777.711 250.456 Q772.781 250.456 770.906 248.628 Q769.031 246.776 769.031 241.915 L769.031 227.841 L765.906 227.841 L765.906 224.531 L769.031 224.531 L769.031 217.169 L773.313 217.169 Z" fill="#000000" fill-rule="nonzero" fill-opacity="1" /><path clip-path="url(#clip630)" d="M812.989 214.484 Q809.887 219.808 808.382 225.017 Q806.878 230.225 806.878 235.572 Q806.878 240.919 808.382 246.174 Q809.91 251.405 812.989 256.706 L809.285 256.706 Q805.813 251.266 804.077 246.012 Q802.364 240.757 802.364 235.572 Q802.364 230.41 804.077 225.179 Q805.79 219.947 809.285 214.484 L812.989 214.484 Z" fill="#000000" fill-rule="nonzero" fill-opacity="1" /><path clip-path="url(#clip630)" d="M822.665 246.521 L830.304 246.521 L830.304 220.156 L821.993 221.822 L821.993 217.563 L830.257 215.896 L834.933 215.896 L834.933 246.521 L842.572 246.521 L842.572 250.456 L822.665 250.456 L822.665 246.521 Z" fill="#000000" fill-rule="nonzero" fill-opacity="1" /><path clip-path="url(#clip630)" d="M862.016 218.975 Q858.405 218.975 856.577 222.54 Q854.771 226.081 854.771 233.211 Q854.771 240.317 856.577 243.882 Q858.405 247.424 862.016 247.424 Q865.651 247.424 867.456 243.882 Q869.285 240.317 869.285 233.211 Q869.285 226.081 867.456 222.54 Q865.651 218.975 862.016 218.975 M862.016 215.271 Q867.827 215.271 870.882 219.878 Q873.961 224.461 873.961 233.211 Q873.961 241.938 870.882 246.544 Q867.827 251.128 862.016 251.128 Q856.206 251.128 853.128 246.544 Q850.072 241.938 850.072 233.211 Q850.072 224.461 853.128 219.878 Q856.206 215.271 862.016 215.271 Z" fill="#000000" fill-rule="nonzero" fill-opacity="1" /><path clip-path="url(#clip630)" d="M915.303 225.526 L915.303 229.507 Q913.498 228.512 911.669 228.026 Q909.863 227.517 908.011 227.517 Q903.868 227.517 901.576 230.155 Q899.285 232.771 899.285 237.517 Q899.285 242.262 901.576 244.901 Q903.868 247.516 908.011 247.516 Q909.863 247.516 911.669 247.03 Q913.498 246.521 915.303 245.526 L915.303 249.461 Q913.521 250.294 911.599 250.711 Q909.701 251.128 907.549 251.128 Q901.692 251.128 898.243 247.447 Q894.794 243.767 894.794 237.517 Q894.794 231.174 898.266 227.54 Q901.762 223.906 907.826 223.906 Q909.794 223.906 911.669 224.322 Q913.544 224.716 915.303 225.526 Z" fill="#000000" fill-rule="nonzero" fill-opacity="1" /><path clip-path="url(#clip630)" d="M932.757 227.517 Q929.331 227.517 927.34 230.202 Q925.349 232.864 925.349 237.517 Q925.349 242.169 927.317 244.854 Q929.308 247.516 932.757 247.516 Q936.159 247.516 938.15 244.831 Q940.141 242.146 940.141 237.517 Q940.141 232.91 938.15 230.225 Q936.159 227.517 932.757 227.517 M932.757 223.906 Q938.312 223.906 941.484 227.517 Q944.655 231.128 944.655 237.517 Q944.655 243.882 941.484 247.516 Q938.312 251.128 932.757 251.128 Q927.178 251.128 924.007 247.516 Q920.859 243.882 920.859 237.517 Q920.859 231.128 924.007 227.517 Q927.178 223.906 932.757 223.906 Z" fill="#000000" fill-rule="nonzero" fill-opacity="1" /><path clip-path="url(#clip630)" d="M973.266 234.808 L973.266 250.456 L969.007 250.456 L969.007 234.947 Q969.007 231.267 967.571 229.438 Q966.136 227.609 963.266 227.609 Q959.817 227.609 957.826 229.808 Q955.835 232.007 955.835 235.804 L955.835 250.456 L951.553 250.456 L951.553 224.531 L955.835 224.531 L955.835 228.558 Q957.363 226.22 959.423 225.063 Q961.507 223.906 964.215 223.906 Q968.682 223.906 970.974 226.683 Q973.266 229.438 973.266 234.808 Z" fill="#000000" fill-rule="nonzero" fill-opacity="1" /><path clip-path="url(#clip630)" d="M985.974 217.169 L985.974 224.531 L994.747 224.531 L994.747 227.841 L985.974 227.841 L985.974 241.915 Q985.974 245.086 986.83 245.989 Q987.71 246.891 990.372 246.891 L994.747 246.891 L994.747 250.456 L990.372 250.456 Q985.442 250.456 983.567 248.628 Q981.692 246.776 981.692 241.915 L981.692 227.841 L978.567 227.841 L978.567 224.531 L981.692 224.531 L981.692 217.169 L985.974 217.169 Z" fill="#000000" fill-rule="nonzero" fill-opacity="1" /><path clip-path="url(#clip630)" d="M1012.13 237.424 Q1006.97 237.424 1004.98 238.604 Q1002.99 239.785 1002.99 242.632 Q1002.99 244.901 1004.47 246.243 Q1005.97 247.563 1008.54 247.563 Q1012.08 247.563 1014.21 245.063 Q1016.37 242.54 1016.37 238.373 L1016.37 237.424 L1012.13 237.424 M1020.63 235.665 L1020.63 250.456 L1016.37 250.456 L1016.37 246.521 Q1014.91 248.882 1012.73 250.016 Q1010.56 251.128 1007.41 251.128 Q1003.43 251.128 1001.07 248.905 Q998.729 246.66 998.729 242.91 Q998.729 238.535 1001.65 236.313 Q1004.59 234.091 1010.4 234.091 L1016.37 234.091 L1016.37 233.674 Q1016.37 230.734 1014.42 229.137 Q1012.5 227.517 1009.01 227.517 Q1006.78 227.517 1004.68 228.049 Q1002.57 228.581 1000.63 229.646 L1000.63 225.711 Q1002.96 224.808 1005.16 224.368 Q1007.36 223.906 1009.45 223.906 Q1015.07 223.906 1017.85 226.822 Q1020.63 229.739 1020.63 235.665 Z" fill="#000000" fill-rule="nonzero" fill-opacity="1" /><path clip-path="url(#clip630)" d="M1048.06 225.526 L1048.06 229.507 Q1046.25 228.512 1044.42 228.026 Q1042.62 227.517 1040.77 227.517 Q1036.62 227.517 1034.33 230.155 Q1032.04 232.771 1032.04 237.517 Q1032.04 242.262 1034.33 244.901 Q1036.62 247.516 1040.77 247.516 Q1042.62 247.516 1044.42 247.03 Q1046.25 246.521 1048.06 245.526 L1048.06 249.461 Q1046.27 250.294 1044.35 250.711 Q1042.46 251.128 1040.3 251.128 Q1034.45 251.128 1031 247.447 Q1027.55 243.767 1027.55 237.517 Q1027.55 231.174 1031.02 227.54 Q1034.52 223.906 1040.58 223.906 Q1042.55 223.906 1044.42 224.322 Q1046.3 224.716 1048.06 225.526 Z" fill="#000000" fill-rule="nonzero" fill-opacity="1" /><path clip-path="url(#clip630)" d="M1059.68 217.169 L1059.68 224.531 L1068.45 224.531 L1068.45 227.841 L1059.68 227.841 L1059.68 241.915 Q1059.68 245.086 1060.53 245.989 Q1061.41 246.891 1064.08 246.891 L1068.45 246.891 L1068.45 250.456 L1064.08 250.456 Q1059.14 250.456 1057.27 248.628 Q1055.39 246.776 1055.39 241.915 L1055.39 227.841 L1052.27 227.841 L1052.27 224.531 L1055.39 224.531 L1055.39 217.169 L1059.68 217.169 Z" fill="#000000" fill-rule="nonzero" fill-opacity="1" /><path clip-path="url(#clip630)" d="M1090.58 225.294 L1090.58 229.322 Q1088.77 228.396 1086.83 227.933 Q1084.89 227.47 1082.8 227.47 Q1079.63 227.47 1078.03 228.443 Q1076.46 229.415 1076.46 231.359 Q1076.46 232.841 1077.59 233.697 Q1078.73 234.53 1082.15 235.294 L1083.61 235.618 Q1088.15 236.591 1090.05 238.373 Q1091.97 240.132 1091.97 243.304 Q1091.97 246.915 1089.1 249.021 Q1086.25 251.128 1081.25 251.128 Q1079.17 251.128 1076.9 250.711 Q1074.65 250.317 1072.15 249.507 L1072.15 245.109 Q1074.52 246.336 1076.81 246.961 Q1079.1 247.563 1081.34 247.563 Q1084.35 247.563 1085.97 246.544 Q1087.59 245.503 1087.59 243.628 Q1087.59 241.892 1086.41 240.966 Q1085.26 240.04 1081.3 239.183 L1079.82 238.836 Q1075.86 238.003 1074.1 236.29 Q1072.34 234.554 1072.34 231.544 Q1072.34 227.887 1074.93 225.896 Q1077.52 223.906 1082.29 223.906 Q1084.65 223.906 1086.74 224.253 Q1088.82 224.6 1090.58 225.294 Z" fill="#000000" fill-rule="nonzero" fill-opacity="1" /><path clip-path="url(#clip630)" d="M1098.08 214.484 L1101.78 214.484 Q1105.26 219.947 1106.97 225.179 Q1108.7 230.41 1108.7 235.572 Q1108.7 240.757 1106.97 246.012 Q1105.26 251.266 1101.78 256.706 L1098.08 256.706 Q1101.16 251.405 1102.66 246.174 Q1104.19 240.919 1104.19 235.572 Q1104.19 230.225 1102.66 225.017 Q1101.16 219.808 1098.08 214.484 Z" fill="#000000" fill-rule="nonzero" fill-opacity="1" /><polyline clip-path="url(#clip630)" style="stroke:#ff0000; stroke-linecap:round; stroke-linejoin:round; stroke-width:8; stroke-opacity:1; fill:none" points="362.278,285.016 521.242,285.016 "/>
<path clip-path="url(#clip630)" d="M547.736 267.736 L576.972 267.736 L576.972 271.671 L564.703 271.671 L564.703 302.296 L560.004 302.296 L560.004 271.671 L547.736 271.671 L547.736 267.736 Z" fill="#000000" fill-rule="nonzero" fill-opacity="1" /><path clip-path="url(#clip630)" d="M570.976 276.371 L575.235 276.371 L580.56 296.602 L585.86 276.371 L590.884 276.371 L596.208 296.602 L601.508 276.371 L605.768 276.371 L598.985 302.296 L593.962 302.296 L588.384 281.046 L582.782 302.296 L577.759 302.296 L570.976 276.371 Z" fill="#000000" fill-rule="nonzero" fill-opacity="1" /><path clip-path="url(#clip630)" d="M622.272 279.357 Q618.846 279.357 616.856 282.042 Q614.865 284.704 614.865 289.357 Q614.865 294.009 616.832 296.694 Q618.823 299.356 622.272 299.356 Q625.675 299.356 627.666 296.671 Q629.656 293.986 629.656 289.357 Q629.656 284.75 627.666 282.065 Q625.675 279.357 622.272 279.357 M622.272 275.746 Q627.828 275.746 630.999 279.357 Q634.17 282.968 634.17 289.357 Q634.17 295.722 630.999 299.356 Q627.828 302.968 622.272 302.968 Q616.694 302.968 613.522 299.356 Q610.374 295.722 610.374 289.357 Q610.374 282.968 613.522 279.357 Q616.694 275.746 622.272 275.746 Z" fill="#000000" fill-rule="nonzero" fill-opacity="1" /><path clip-path="url(#clip630)" d="M656.3 266.278 L660.559 266.278 L660.559 302.296 L656.3 302.296 L656.3 266.278 Z" fill="#000000" fill-rule="nonzero" fill-opacity="1" /><path clip-path="url(#clip630)" d="M681.253 289.264 Q676.091 289.264 674.101 290.444 Q672.11 291.625 672.11 294.472 Q672.11 296.741 673.591 298.083 Q675.096 299.403 677.665 299.403 Q681.207 299.403 683.337 296.903 Q685.49 294.38 685.49 290.213 L685.49 289.264 L681.253 289.264 M689.749 287.505 L689.749 302.296 L685.49 302.296 L685.49 298.361 Q684.031 300.722 681.855 301.856 Q679.679 302.968 676.531 302.968 Q672.55 302.968 670.189 300.745 Q667.851 298.5 667.851 294.75 Q667.851 290.375 670.767 288.153 Q673.707 285.931 679.517 285.931 L685.49 285.931 L685.49 285.514 Q685.49 282.574 683.545 280.977 Q681.624 279.357 678.128 279.357 Q675.906 279.357 673.8 279.889 Q671.693 280.421 669.749 281.486 L669.749 277.551 Q672.087 276.648 674.286 276.208 Q676.485 275.746 678.568 275.746 Q684.193 275.746 686.971 278.662 Q689.749 281.579 689.749 287.505 Z" fill="#000000" fill-rule="nonzero" fill-opacity="1" /><path clip-path="url(#clip630)" d="M709.309 304.704 Q707.503 309.333 705.79 310.745 Q704.077 312.157 701.207 312.157 L697.804 312.157 L697.804 308.593 L700.304 308.593 Q702.064 308.593 703.036 307.759 Q704.008 306.926 705.188 303.824 L705.952 301.88 L695.466 276.371 L699.98 276.371 L708.082 296.648 L716.184 276.371 L720.698 276.371 L709.309 304.704 Z" fill="#000000" fill-rule="nonzero" fill-opacity="1" /><path clip-path="url(#clip630)" d="M748.753 288.269 L748.753 290.352 L729.17 290.352 Q729.448 294.75 731.809 297.065 Q734.193 299.356 738.429 299.356 Q740.883 299.356 743.174 298.755 Q745.489 298.153 747.758 296.949 L747.758 300.977 Q745.466 301.949 743.059 302.458 Q740.651 302.968 738.174 302.968 Q731.971 302.968 728.337 299.356 Q724.725 295.745 724.725 289.588 Q724.725 283.222 728.151 279.495 Q731.6 275.746 737.434 275.746 Q742.665 275.746 745.698 279.125 Q748.753 282.482 748.753 288.269 M744.494 287.019 Q744.448 283.523 742.526 281.44 Q740.628 279.357 737.48 279.357 Q733.915 279.357 731.762 281.37 Q729.633 283.384 729.309 287.042 L744.494 287.019 Z" fill="#000000" fill-rule="nonzero" fill-opacity="1" /><path clip-path="url(#clip630)" d="M770.767 280.352 Q770.049 279.935 769.193 279.75 Q768.359 279.542 767.341 279.542 Q763.73 279.542 761.785 281.903 Q759.864 284.241 759.864 288.639 L759.864 302.296 L755.582 302.296 L755.582 276.371 L759.864 276.371 L759.864 280.398 Q761.207 278.037 763.359 276.903 Q765.512 275.746 768.591 275.746 Q769.031 275.746 769.563 275.815 Q770.096 275.861 770.744 275.977 L770.767 280.352 Z" fill="#000000" fill-rule="nonzero" fill-opacity="1" /><path clip-path="url(#clip630)" d="M791.762 277.134 L791.762 281.162 Q789.957 280.236 788.012 279.773 Q786.068 279.31 783.984 279.31 Q780.813 279.31 779.216 280.283 Q777.642 281.255 777.642 283.199 Q777.642 284.681 778.776 285.537 Q779.91 286.37 783.336 287.134 L784.795 287.458 Q789.332 288.431 791.23 290.213 Q793.151 291.972 793.151 295.144 Q793.151 298.755 790.281 300.861 Q787.433 302.968 782.433 302.968 Q780.35 302.968 778.082 302.551 Q775.836 302.157 773.336 301.347 L773.336 296.949 Q775.697 298.176 777.989 298.801 Q780.281 299.403 782.526 299.403 Q785.535 299.403 787.156 298.384 Q788.776 297.343 788.776 295.468 Q788.776 293.732 787.595 292.806 Q786.438 291.88 782.48 291.023 L780.998 290.676 Q777.04 289.843 775.281 288.13 Q773.521 286.394 773.521 283.384 Q773.521 279.727 776.114 277.736 Q778.707 275.746 783.475 275.746 Q785.836 275.746 787.92 276.093 Q790.003 276.44 791.762 277.134 Z" fill="#000000" fill-rule="nonzero" fill-opacity="1" /><path clip-path="url(#clip630)" d="M825.234 266.324 Q822.132 271.648 820.628 276.857 Q819.123 282.065 819.123 287.412 Q819.123 292.759 820.628 298.014 Q822.155 303.245 825.234 308.546 L821.53 308.546 Q818.058 303.106 816.322 297.852 Q814.609 292.597 814.609 287.412 Q814.609 282.25 816.322 277.019 Q818.035 271.787 821.53 266.324 L825.234 266.324 Z" fill="#000000" fill-rule="nonzero" fill-opacity="1" /><path clip-path="url(#clip630)" d="M846.947 271.81 L835.141 290.259 L846.947 290.259 L846.947 271.81 M845.72 267.736 L851.6 267.736 L851.6 290.259 L856.53 290.259 L856.53 294.148 L851.6 294.148 L851.6 302.296 L846.947 302.296 L846.947 294.148 L831.345 294.148 L831.345 289.634 L845.72 267.736 Z" fill="#000000" fill-rule="nonzero" fill-opacity="1" /><path clip-path="url(#clip630)" d="M880.998 272.574 L880.998 285.468 L893.891 285.468 L893.891 289.403 L880.998 289.403 L880.998 302.296 L877.109 302.296 L877.109 289.403 L864.215 289.403 L864.215 285.468 L877.109 285.468 L877.109 272.574 L880.998 272.574 Z" fill="#000000" fill-rule="nonzero" fill-opacity="1" /><path clip-path="url(#clip630)" d="M913.984 285.884 Q910.65 285.884 908.729 287.667 Q906.831 289.449 906.831 292.574 Q906.831 295.699 908.729 297.481 Q910.65 299.264 913.984 299.264 Q917.317 299.264 919.238 297.481 Q921.16 295.676 921.16 292.574 Q921.16 289.449 919.238 287.667 Q917.34 285.884 913.984 285.884 M909.308 283.894 Q906.299 283.153 904.609 281.093 Q902.942 279.033 902.942 276.07 Q902.942 271.926 905.882 269.519 Q908.845 267.111 913.984 267.111 Q919.146 267.111 922.085 269.519 Q925.025 271.926 925.025 276.07 Q925.025 279.033 923.335 281.093 Q921.669 283.153 918.683 283.894 Q922.062 284.681 923.937 286.972 Q925.835 289.264 925.835 292.574 Q925.835 297.597 922.757 300.282 Q919.701 302.968 913.984 302.968 Q908.266 302.968 905.187 300.282 Q902.132 297.597 902.132 292.574 Q902.132 289.264 904.03 286.972 Q905.928 284.681 909.308 283.894 M907.595 276.509 Q907.595 279.195 909.261 280.699 Q910.951 282.204 913.984 282.204 Q916.993 282.204 918.683 280.699 Q920.396 279.195 920.396 276.509 Q920.396 273.824 918.683 272.32 Q916.993 270.815 913.984 270.815 Q910.951 270.815 909.261 272.32 Q907.595 273.824 907.595 276.509 Z" fill="#000000" fill-rule="nonzero" fill-opacity="1" /><path clip-path="url(#clip630)" d="M967.27 277.366 L967.27 281.347 Q965.465 280.352 963.636 279.866 Q961.831 279.357 959.979 279.357 Q955.835 279.357 953.544 281.995 Q951.252 284.611 951.252 289.357 Q951.252 294.102 953.544 296.741 Q955.835 299.356 959.979 299.356 Q961.831 299.356 963.636 298.87 Q965.465 298.361 967.27 297.366 L967.27 301.301 Q965.488 302.134 963.567 302.551 Q961.669 302.968 959.516 302.968 Q953.659 302.968 950.21 299.287 Q946.761 295.607 946.761 289.357 Q946.761 283.014 950.233 279.38 Q953.729 275.746 959.794 275.746 Q961.761 275.746 963.636 276.162 Q965.511 276.556 967.27 277.366 Z" fill="#000000" fill-rule="nonzero" fill-opacity="1" /><path clip-path="url(#clip630)" d="M984.724 279.357 Q981.298 279.357 979.307 282.042 Q977.317 284.704 977.317 289.357 Q977.317 294.009 979.284 296.694 Q981.275 299.356 984.724 299.356 Q988.127 299.356 990.118 296.671 Q992.108 293.986 992.108 289.357 Q992.108 284.75 990.118 282.065 Q988.127 279.357 984.724 279.357 M984.724 275.746 Q990.28 275.746 993.451 279.357 Q996.622 282.968 996.622 289.357 Q996.622 295.722 993.451 299.356 Q990.28 302.968 984.724 302.968 Q979.145 302.968 975.974 299.356 Q972.826 295.722 972.826 289.357 Q972.826 282.968 975.974 279.357 Q979.145 275.746 984.724 275.746 Z" fill="#000000" fill-rule="nonzero" fill-opacity="1" /><path clip-path="url(#clip630)" d="M1025.23 286.648 L1025.23 302.296 L1020.97 302.296 L1020.97 286.787 Q1020.97 283.107 1019.54 281.278 Q1018.1 279.449 1015.23 279.449 Q1011.78 279.449 1009.79 281.648 Q1007.8 283.847 1007.8 287.644 L1007.8 302.296 L1003.52 302.296 L1003.52 276.371 L1007.8 276.371 L1007.8 280.398 Q1009.33 278.06 1011.39 276.903 Q1013.47 275.746 1016.18 275.746 Q1020.65 275.746 1022.94 278.523 Q1025.23 281.278 1025.23 286.648 Z" fill="#000000" fill-rule="nonzero" fill-opacity="1" /><path clip-path="url(#clip630)" d="M1037.94 269.009 L1037.94 276.371 L1046.71 276.371 L1046.71 279.681 L1037.94 279.681 L1037.94 293.755 Q1037.94 296.926 1038.8 297.829 Q1039.68 298.731 1042.34 298.731 L1046.71 298.731 L1046.71 302.296 L1042.34 302.296 Q1037.41 302.296 1035.53 300.468 Q1033.66 298.616 1033.66 293.755 L1033.66 279.681 L1030.53 279.681 L1030.53 276.371 L1033.66 276.371 L1033.66 269.009 L1037.94 269.009 Z" fill="#000000" fill-rule="nonzero" fill-opacity="1" /><path clip-path="url(#clip630)" d="M1064.1 289.264 Q1058.94 289.264 1056.95 290.444 Q1054.96 291.625 1054.96 294.472 Q1054.96 296.741 1056.44 298.083 Q1057.94 299.403 1060.51 299.403 Q1064.05 299.403 1066.18 296.903 Q1068.33 294.38 1068.33 290.213 L1068.33 289.264 L1064.1 289.264 M1072.59 287.505 L1072.59 302.296 L1068.33 302.296 L1068.33 298.361 Q1066.88 300.722 1064.7 301.856 Q1062.52 302.968 1059.38 302.968 Q1055.39 302.968 1053.03 300.745 Q1050.7 298.5 1050.7 294.75 Q1050.7 290.375 1053.61 288.153 Q1056.55 285.931 1062.36 285.931 L1068.33 285.931 L1068.33 285.514 Q1068.33 282.574 1066.39 280.977 Q1064.47 279.357 1060.97 279.357 Q1058.75 279.357 1056.64 279.889 Q1054.54 280.421 1052.59 281.486 L1052.59 277.551 Q1054.93 276.648 1057.13 276.208 Q1059.33 275.746 1061.41 275.746 Q1067.04 275.746 1069.82 278.662 Q1072.59 281.579 1072.59 287.505 Z" fill="#000000" fill-rule="nonzero" fill-opacity="1" /><path clip-path="url(#clip630)" d="M1100.02 277.366 L1100.02 281.347 Q1098.22 280.352 1096.39 279.866 Q1094.58 279.357 1092.73 279.357 Q1088.59 279.357 1086.3 281.995 Q1084.01 284.611 1084.01 289.357 Q1084.01 294.102 1086.3 296.741 Q1088.59 299.356 1092.73 299.356 Q1094.58 299.356 1096.39 298.87 Q1098.22 298.361 1100.02 297.366 L1100.02 301.301 Q1098.24 302.134 1096.32 302.551 Q1094.42 302.968 1092.27 302.968 Q1086.41 302.968 1082.96 299.287 Q1079.52 295.607 1079.52 289.357 Q1079.52 283.014 1082.99 279.38 Q1086.48 275.746 1092.55 275.746 Q1094.52 275.746 1096.39 276.162 Q1098.27 276.556 1100.02 277.366 Z" fill="#000000" fill-rule="nonzero" fill-opacity="1" /><path clip-path="url(#clip630)" d="M1111.64 269.009 L1111.64 276.371 L1120.42 276.371 L1120.42 279.681 L1111.64 279.681 L1111.64 293.755 Q1111.64 296.926 1112.5 297.829 Q1113.38 298.731 1116.04 298.731 L1120.42 298.731 L1120.42 302.296 L1116.04 302.296 Q1111.11 302.296 1109.24 300.468 Q1107.36 298.616 1107.36 293.755 L1107.36 279.681 L1104.24 279.681 L1104.24 276.371 L1107.36 276.371 L1107.36 269.009 L1111.64 269.009 Z" fill="#000000" fill-rule="nonzero" fill-opacity="1" /><path clip-path="url(#clip630)" d="M1142.55 277.134 L1142.55 281.162 Q1140.74 280.236 1138.8 279.773 Q1136.85 279.31 1134.77 279.31 Q1131.6 279.31 1130 280.283 Q1128.43 281.255 1128.43 283.199 Q1128.43 284.681 1129.56 285.537 Q1130.7 286.37 1134.12 287.134 L1135.58 287.458 Q1140.12 288.431 1142.01 290.213 Q1143.94 291.972 1143.94 295.144 Q1143.94 298.755 1141.07 300.861 Q1138.22 302.968 1133.22 302.968 Q1131.14 302.968 1128.87 302.551 Q1126.62 302.157 1124.12 301.347 L1124.12 296.949 Q1126.48 298.176 1128.77 298.801 Q1131.07 299.403 1133.31 299.403 Q1136.32 299.403 1137.94 298.384 Q1139.56 297.343 1139.56 295.468 Q1139.56 293.732 1138.38 292.806 Q1137.22 291.88 1133.26 291.023 L1131.78 290.676 Q1127.83 289.843 1126.07 288.13 Q1124.31 286.394 1124.31 283.384 Q1124.31 279.727 1126.9 277.736 Q1129.49 275.746 1134.26 275.746 Q1136.62 275.746 1138.7 276.093 Q1140.79 276.44 1142.55 277.134 Z" fill="#000000" fill-rule="nonzero" fill-opacity="1" /><path clip-path="url(#clip630)" d="M1150.05 266.324 L1153.75 266.324 Q1157.22 271.787 1158.94 277.019 Q1160.67 282.25 1160.67 287.412 Q1160.67 292.597 1158.94 297.852 Q1157.22 303.106 1153.75 308.546 L1150.05 308.546 Q1153.13 303.245 1154.63 298.014 Q1156.16 292.759 1156.16 287.412 Q1156.16 282.065 1154.63 276.857 Q1153.13 271.648 1150.05 266.324 Z" fill="#000000" fill-rule="nonzero" fill-opacity="1" /></svg>
