<?xml version="1.0" encoding="utf-8"?>
<svg xmlns="http://www.w3.org/2000/svg" xmlns:xlink="http://www.w3.org/1999/xlink" width="672" height="480" viewBox="0 0 2688 1920">
<defs>
  <clipPath id="clip860">
    <rect x="0" y="0" width="2688" height="1920"/>
  </clipPath>
</defs>
<path clip-path="url(#clip860)" d="M0 1920 L2688 1920 L2688 -4.26326e-14 L0 -4.26326e-14  Z" fill="#ffffff" fill-rule="evenodd" fill-opacity="1"/>
<defs>
  <clipPath id="clip861">
    <rect x="255" y="127" width="2386" height="1607"/>
  </clipPath>
</defs>
<path clip-path="url(#clip860)" d="M255.816 1734.12 L2640.76 1734.12 L2640.76 127.792 L255.816 127.792  Z" fill="#ffffff" fill-rule="evenodd" fill-opacity="1"/>
<polyline clip-path="url(#clip861)" style="stroke:#000000; stroke-linecap:round; stroke-linejoin:round; stroke-width:2; stroke-opacity:0.1; fill:none" points="323.315,1734.12 323.315,127.792 "/>
<polyline clip-path="url(#clip861)" style="stroke:#000000; stroke-linecap:round; stroke-linejoin:round; stroke-width:2; stroke-opacity:0.1; fill:none" points="885.8,1734.12 885.8,127.792 "/>
<polyline clip-path="url(#clip861)" style="stroke:#000000; stroke-linecap:round; stroke-linejoin:round; stroke-width:2; stroke-opacity:0.1; fill:none" points="1448.29,1734.12 1448.29,127.792 "/>
<polyline clip-path="url(#clip861)" style="stroke:#000000; stroke-linecap:round; stroke-linejoin:round; stroke-width:2; stroke-opacity:0.1; fill:none" points="2010.77,1734.12 2010.77,127.792 "/>
<polyline clip-path="url(#clip861)" style="stroke:#000000; stroke-linecap:round; stroke-linejoin:round; stroke-width:2; stroke-opacity:0.1; fill:none" points="2573.26,1734.12 2573.26,127.792 "/>
<polyline clip-path="url(#clip861)" style="stroke:#000000; stroke-linecap:round; stroke-linejoin:round; stroke-width:2; stroke-opacity:0.1; fill:none" points="255.816,1618.24 2640.76,1618.24 "/>
<polyline clip-path="url(#clip861)" style="stroke:#000000; stroke-linecap:round; stroke-linejoin:round; stroke-width:2; stroke-opacity:0.1; fill:none" points="255.816,1245.05 2640.76,1245.05 "/>
<polyline clip-path="url(#clip861)" style="stroke:#000000; stroke-linecap:round; stroke-linejoin:round; stroke-width:2; stroke-opacity:0.1; fill:none" points="255.816,871.849 2640.76,871.849 "/>
<polyline clip-path="url(#clip861)" style="stroke:#000000; stroke-linecap:round; stroke-linejoin:round; stroke-width:2; stroke-opacity:0.1; fill:none" points="255.816,498.652 2640.76,498.652 "/>
<polyline clip-path="url(#clip860)" style="stroke:#000000; stroke-linecap:round; stroke-linejoin:round; stroke-width:4; stroke-opacity:1; fill:none" points="255.816,1734.12 2640.76,1734.12 "/>
<polyline clip-path="url(#clip860)" style="stroke:#000000; stroke-linecap:round; stroke-linejoin:round; stroke-width:4; stroke-opacity:1; fill:none" points="323.315,1734.12 323.315,1715.22 "/>
<polyline clip-path="url(#clip860)" style="stroke:#000000; stroke-linecap:round; stroke-linejoin:round; stroke-width:4; stroke-opacity:1; fill:none" points="885.8,1734.12 885.8,1715.22 "/>
<polyline clip-path="url(#clip860)" style="stroke:#000000; stroke-linecap:round; stroke-linejoin:round; stroke-width:4; stroke-opacity:1; fill:none" points="1448.29,1734.12 1448.29,1715.22 "/>
<polyline clip-path="url(#clip860)" style="stroke:#000000; stroke-linecap:round; stroke-linejoin:round; stroke-width:4; stroke-opacity:1; fill:none" points="2010.77,1734.12 2010.77,1715.22 "/>
<polyline clip-path="url(#clip860)" style="stroke:#000000; stroke-linecap:round; stroke-linejoin:round; stroke-width:4; stroke-opacity:1; fill:none" points="2573.26,1734.12 2573.26,1715.22 "/>
<path clip-path="url(#clip860)" d="M323.315 1767.34 Q319.704 1767.34 317.875 1770.9 Q316.069 1774.45 316.069 1781.58 Q316.069 1788.68 317.875 1792.25 Q319.704 1795.79 323.315 1795.79 Q326.949 1795.79 328.754 1792.25 Q330.583 1788.68 330.583 1781.58 Q330.583 1774.45 328.754 1770.9 Q326.949 1767.34 323.315 1767.34 M323.315 1763.64 Q329.125 1763.64 332.18 1768.24 Q335.259 1772.83 335.259 1781.58 Q335.259 1790.3 332.18 1794.91 Q329.125 1799.49 323.315 1799.49 Q317.504 1799.49 314.426 1794.91 Q311.37 1790.3 311.37 1781.58 Q311.37 1772.83 314.426 1768.24 Q317.504 1763.64 323.315 1763.64 Z" fill="#000000" fill-rule="nonzero" fill-opacity="1" /><path clip-path="url(#clip860)" d="M860.488 1794.89 L868.127 1794.89 L868.127 1768.52 L859.817 1770.19 L859.817 1765.93 L868.081 1764.26 L872.756 1764.26 L872.756 1794.89 L880.395 1794.89 L880.395 1798.82 L860.488 1798.82 L860.488 1794.89 Z" fill="#000000" fill-rule="nonzero" fill-opacity="1" /><path clip-path="url(#clip860)" d="M899.84 1767.34 Q896.229 1767.34 894.4 1770.9 Q892.594 1774.45 892.594 1781.58 Q892.594 1788.68 894.4 1792.25 Q896.229 1795.79 899.84 1795.79 Q903.474 1795.79 905.279 1792.25 Q907.108 1788.68 907.108 1781.58 Q907.108 1774.45 905.279 1770.9 Q903.474 1767.34 899.84 1767.34 M899.84 1763.64 Q905.65 1763.64 908.705 1768.24 Q911.784 1772.83 911.784 1781.58 Q911.784 1790.3 908.705 1794.91 Q905.65 1799.49 899.84 1799.49 Q894.029 1799.49 890.951 1794.91 Q887.895 1790.3 887.895 1781.58 Q887.895 1772.83 890.951 1768.24 Q894.029 1763.64 899.84 1763.64 Z" fill="#000000" fill-rule="nonzero" fill-opacity="1" /><path clip-path="url(#clip860)" d="M1427.06 1794.89 L1443.38 1794.89 L1443.38 1798.82 L1421.43 1798.82 L1421.43 1794.89 Q1424.1 1792.13 1428.68 1787.5 Q1433.29 1782.85 1434.47 1781.51 Q1436.71 1778.98 1437.59 1777.25 Q1438.49 1775.49 1438.49 1773.8 Q1438.49 1771.04 1436.55 1769.31 Q1434.63 1767.57 1431.53 1767.57 Q1429.33 1767.57 1426.87 1768.34 Q1424.44 1769.1 1421.67 1770.65 L1421.67 1765.93 Q1424.49 1764.79 1426.94 1764.21 Q1429.4 1763.64 1431.43 1763.64 Q1436.8 1763.64 1440 1766.32 Q1443.19 1769.01 1443.19 1773.5 Q1443.19 1775.63 1442.38 1777.55 Q1441.6 1779.45 1439.49 1782.04 Q1438.91 1782.71 1435.81 1785.93 Q1432.71 1789.12 1427.06 1794.89 Z" fill="#000000" fill-rule="nonzero" fill-opacity="1" /><path clip-path="url(#clip860)" d="M1463.19 1767.34 Q1459.58 1767.34 1457.75 1770.9 Q1455.95 1774.45 1455.95 1781.58 Q1455.95 1788.68 1457.75 1792.25 Q1459.58 1795.79 1463.19 1795.79 Q1466.83 1795.79 1468.63 1792.25 Q1470.46 1788.68 1470.46 1781.58 Q1470.46 1774.45 1468.63 1770.9 Q1466.83 1767.34 1463.19 1767.34 M1463.19 1763.64 Q1469 1763.64 1472.06 1768.24 Q1475.14 1772.83 1475.14 1781.58 Q1475.14 1790.3 1472.06 1794.91 Q1469 1799.49 1463.19 1799.49 Q1457.38 1799.49 1454.3 1794.91 Q1451.25 1790.3 1451.25 1781.58 Q1451.25 1772.83 1454.3 1768.24 Q1457.38 1763.64 1463.19 1763.64 Z" fill="#000000" fill-rule="nonzero" fill-opacity="1" /><path clip-path="url(#clip860)" d="M1999.61 1780.19 Q2002.97 1780.9 2004.85 1783.17 Q2006.74 1785.44 2006.74 1788.77 Q2006.74 1793.89 2003.23 1796.69 Q1999.71 1799.49 1993.23 1799.49 Q1991.05 1799.49 1988.73 1799.05 Q1986.44 1798.64 1983.99 1797.78 L1983.99 1793.27 Q1985.93 1794.4 1988.25 1794.98 Q1990.56 1795.56 1993.09 1795.56 Q1997.48 1795.56 1999.78 1793.82 Q2002.09 1792.08 2002.09 1788.77 Q2002.09 1785.72 1999.94 1784.01 Q1997.81 1782.27 1993.99 1782.27 L1989.96 1782.27 L1989.96 1778.43 L1994.17 1778.43 Q1997.62 1778.43 1999.45 1777.06 Q2001.28 1775.67 2001.28 1773.08 Q2001.28 1770.42 1999.38 1769.01 Q1997.51 1767.57 1993.99 1767.57 Q1992.07 1767.57 1989.87 1767.99 Q1987.67 1768.4 1985.03 1769.28 L1985.03 1765.12 Q1987.69 1764.38 1990.01 1764.01 Q1992.35 1763.64 1994.41 1763.64 Q1999.73 1763.64 2002.83 1766.07 Q2005.93 1768.47 2005.93 1772.59 Q2005.93 1775.46 2004.29 1777.46 Q2002.65 1779.42 1999.61 1780.19 Z" fill="#000000" fill-rule="nonzero" fill-opacity="1" /><path clip-path="url(#clip860)" d="M2025.61 1767.34 Q2022 1767.34 2020.17 1770.9 Q2018.36 1774.45 2018.36 1781.58 Q2018.36 1788.68 2020.17 1792.25 Q2022 1795.79 2025.61 1795.79 Q2029.24 1795.79 2031.05 1792.25 Q2032.88 1788.68 2032.88 1781.58 Q2032.88 1774.45 2031.05 1770.9 Q2029.24 1767.34 2025.61 1767.34 M2025.61 1763.64 Q2031.42 1763.64 2034.48 1768.24 Q2037.55 1772.83 2037.55 1781.58 Q2037.55 1790.3 2034.48 1794.91 Q2031.42 1799.49 2025.61 1799.49 Q2019.8 1799.49 2016.72 1794.91 Q2013.67 1790.3 2013.67 1781.58 Q2013.67 1772.83 2016.72 1768.24 Q2019.8 1763.64 2025.61 1763.64 Z" fill="#000000" fill-rule="nonzero" fill-opacity="1" /><path clip-path="url(#clip860)" d="M2561.43 1768.34 L2549.62 1786.78 L2561.43 1786.78 L2561.43 1768.34 M2560.2 1764.26 L2566.08 1764.26 L2566.08 1786.78 L2571.01 1786.78 L2571.01 1790.67 L2566.08 1790.67 L2566.08 1798.82 L2561.43 1798.82 L2561.43 1790.67 L2545.83 1790.67 L2545.83 1786.16 L2560.2 1764.26 Z" fill="#000000" fill-rule="nonzero" fill-opacity="1" /><path clip-path="url(#clip860)" d="M2588.74 1767.34 Q2585.13 1767.34 2583.3 1770.9 Q2581.5 1774.45 2581.5 1781.58 Q2581.5 1788.68 2583.3 1792.25 Q2585.13 1795.79 2588.74 1795.79 Q2592.38 1795.79 2594.18 1792.25 Q2596.01 1788.68 2596.01 1781.58 Q2596.01 1774.45 2594.18 1770.9 Q2592.38 1767.34 2588.74 1767.34 M2588.74 1763.64 Q2594.55 1763.64 2597.61 1768.24 Q2600.69 1772.83 2600.69 1781.58 Q2600.69 1790.3 2597.61 1794.91 Q2594.55 1799.49 2588.74 1799.49 Q2582.93 1799.49 2579.85 1794.91 Q2576.8 1790.3 2576.8 1781.58 Q2576.8 1772.83 2579.85 1768.24 Q2582.93 1763.64 2588.74 1763.64 Z" fill="#000000" fill-rule="nonzero" fill-opacity="1" /><path clip-path="url(#clip860)" d="M1394.53 1841.06 L1394.53 1878.02 L1402.29 1878.02 Q1412.13 1878.02 1416.68 1873.56 Q1421.26 1869.11 1421.26 1859.49 Q1421.26 1849.94 1416.68 1845.52 Q1412.13 1841.06 1402.29 1841.06 L1394.53 1841.06 M1388.1 1835.78 L1401.31 1835.78 Q1415.12 1835.78 1421.58 1841.54 Q1428.04 1847.27 1428.04 1859.49 Q1428.04 1871.78 1421.55 1877.54 Q1415.06 1883.3 1401.31 1883.3 L1388.1 1883.3 L1388.1 1835.78 Z" fill="#000000" fill-rule="nonzero" fill-opacity="1" /><path clip-path="url(#clip860)" d="M1454.24 1865.38 Q1447.14 1865.38 1444.4 1867 Q1441.67 1868.63 1441.67 1872.54 Q1441.67 1875.66 1443.7 1877.51 Q1445.77 1879.32 1449.3 1879.32 Q1454.17 1879.32 1457.1 1875.88 Q1460.06 1872.42 1460.06 1866.69 L1460.06 1865.38 L1454.24 1865.38 M1465.92 1862.96 L1465.92 1883.3 L1460.06 1883.3 L1460.06 1877.89 Q1458.06 1881.14 1455.07 1882.7 Q1452.07 1884.22 1447.75 1884.22 Q1442.27 1884.22 1439.02 1881.17 Q1435.81 1878.08 1435.81 1872.92 Q1435.81 1866.91 1439.82 1863.85 Q1443.86 1860.8 1451.85 1860.8 L1460.06 1860.8 L1460.06 1860.23 Q1460.06 1856.18 1457.39 1853.99 Q1454.75 1851.76 1449.94 1851.76 Q1446.89 1851.76 1443.99 1852.49 Q1441.09 1853.22 1438.42 1854.69 L1438.42 1849.28 Q1441.63 1848.03 1444.66 1847.43 Q1447.68 1846.79 1450.55 1846.79 Q1458.28 1846.79 1462.1 1850.8 Q1465.92 1854.81 1465.92 1862.96 Z" fill="#000000" fill-rule="nonzero" fill-opacity="1" /><path clip-path="url(#clip860)" d="M1492.81 1886.61 Q1490.33 1892.98 1487.98 1894.92 Q1485.62 1896.86 1481.67 1896.86 L1477 1896.86 L1477 1891.96 L1480.43 1891.96 Q1482.85 1891.96 1484.19 1890.81 Q1485.53 1889.67 1487.15 1885.4 L1488.2 1882.73 L1473.78 1847.65 L1479.99 1847.65 L1491.13 1875.53 L1502.27 1847.65 L1508.47 1847.65 L1492.81 1886.61 Z" fill="#000000" fill-rule="nonzero" fill-opacity="1" /><polyline clip-path="url(#clip860)" style="stroke:#000000; stroke-linecap:round; stroke-linejoin:round; stroke-width:4; stroke-opacity:1; fill:none" points="255.816,1734.12 255.816,127.792 "/>
<polyline clip-path="url(#clip860)" style="stroke:#000000; stroke-linecap:round; stroke-linejoin:round; stroke-width:4; stroke-opacity:1; fill:none" points="255.816,1618.24 274.714,1618.24 "/>
<polyline clip-path="url(#clip860)" style="stroke:#000000; stroke-linecap:round; stroke-linejoin:round; stroke-width:4; stroke-opacity:1; fill:none" points="255.816,1245.05 274.714,1245.05 "/>
<polyline clip-path="url(#clip860)" style="stroke:#000000; stroke-linecap:round; stroke-linejoin:round; stroke-width:4; stroke-opacity:1; fill:none" points="255.816,871.849 274.714,871.849 "/>
<polyline clip-path="url(#clip860)" style="stroke:#000000; stroke-linecap:round; stroke-linejoin:round; stroke-width:4; stroke-opacity:1; fill:none" points="255.816,498.652 274.714,498.652 "/>
<path clip-path="url(#clip860)" d="M128.159 1604.04 Q124.548 1604.04 122.719 1607.61 Q120.913 1611.15 120.913 1618.28 Q120.913 1625.38 122.719 1628.95 Q124.548 1632.49 128.159 1632.49 Q131.793 1632.49 133.599 1628.95 Q135.427 1625.38 135.427 1618.28 Q135.427 1611.15 133.599 1607.61 Q131.793 1604.04 128.159 1604.04 M128.159 1600.34 Q133.969 1600.34 137.025 1604.94 Q140.103 1609.53 140.103 1618.28 Q140.103 1627 137.025 1631.61 Q133.969 1636.19 128.159 1636.19 Q122.349 1636.19 119.27 1631.61 Q116.214 1627 116.214 1618.28 Q116.214 1609.53 119.27 1604.94 Q122.349 1600.34 128.159 1600.34 Z" fill="#000000" fill-rule="nonzero" fill-opacity="1" /><path clip-path="url(#clip860)" d="M148.321 1629.64 L153.205 1629.64 L153.205 1635.52 L148.321 1635.52 L148.321 1629.64 Z" fill="#000000" fill-rule="nonzero" fill-opacity="1" /><path clip-path="url(#clip860)" d="M173.39 1604.04 Q169.779 1604.04 167.95 1607.61 Q166.145 1611.15 166.145 1618.28 Q166.145 1625.38 167.95 1628.95 Q169.779 1632.49 173.39 1632.49 Q177.024 1632.49 178.83 1628.95 Q180.659 1625.38 180.659 1618.28 Q180.659 1611.15 178.83 1607.61 Q177.024 1604.04 173.39 1604.04 M173.39 1600.34 Q179.2 1600.34 182.256 1604.94 Q185.334 1609.53 185.334 1618.28 Q185.334 1627 182.256 1631.61 Q179.2 1636.19 173.39 1636.19 Q167.58 1636.19 164.501 1631.61 Q161.446 1627 161.446 1618.28 Q161.446 1609.53 164.501 1604.94 Q167.58 1600.34 173.39 1600.34 Z" fill="#000000" fill-rule="nonzero" fill-opacity="1" /><path clip-path="url(#clip860)" d="M203.552 1604.04 Q199.941 1604.04 198.112 1607.61 Q196.307 1611.15 196.307 1618.28 Q196.307 1625.38 198.112 1628.95 Q199.941 1632.49 203.552 1632.49 Q207.186 1632.49 208.992 1628.95 Q210.82 1625.38 210.82 1618.28 Q210.82 1611.15 208.992 1607.61 Q207.186 1604.04 203.552 1604.04 M203.552 1600.34 Q209.362 1600.34 212.418 1604.94 Q215.496 1609.53 215.496 1618.28 Q215.496 1627 212.418 1631.61 Q209.362 1636.19 203.552 1636.19 Q197.742 1636.19 194.663 1631.61 Q191.608 1627 191.608 1618.28 Q191.608 1609.53 194.663 1604.94 Q197.742 1600.34 203.552 1600.34 Z" fill="#000000" fill-rule="nonzero" fill-opacity="1" /><path clip-path="url(#clip860)" d="M129.154 1230.84 Q125.543 1230.84 123.714 1234.41 Q121.909 1237.95 121.909 1245.08 Q121.909 1252.19 123.714 1255.75 Q125.543 1259.29 129.154 1259.29 Q132.788 1259.29 134.594 1255.75 Q136.423 1252.19 136.423 1245.08 Q136.423 1237.95 134.594 1234.41 Q132.788 1230.84 129.154 1230.84 M129.154 1227.14 Q134.964 1227.14 138.02 1231.75 Q141.099 1236.33 141.099 1245.08 Q141.099 1253.81 138.02 1258.41 Q134.964 1263 129.154 1263 Q123.344 1263 120.265 1258.41 Q117.21 1253.81 117.21 1245.08 Q117.21 1236.33 120.265 1231.75 Q123.344 1227.14 129.154 1227.14 Z" fill="#000000" fill-rule="nonzero" fill-opacity="1" /><path clip-path="url(#clip860)" d="M149.316 1256.45 L154.2 1256.45 L154.2 1262.33 L149.316 1262.33 L149.316 1256.45 Z" fill="#000000" fill-rule="nonzero" fill-opacity="1" /><path clip-path="url(#clip860)" d="M174.385 1230.84 Q170.774 1230.84 168.946 1234.41 Q167.14 1237.95 167.14 1245.08 Q167.14 1252.19 168.946 1255.75 Q170.774 1259.29 174.385 1259.29 Q178.02 1259.29 179.825 1255.75 Q181.654 1252.19 181.654 1245.08 Q181.654 1237.95 179.825 1234.41 Q178.02 1230.84 174.385 1230.84 M174.385 1227.14 Q180.196 1227.14 183.251 1231.75 Q186.33 1236.33 186.33 1245.08 Q186.33 1253.81 183.251 1258.41 Q180.196 1263 174.385 1263 Q168.575 1263 165.497 1258.41 Q162.441 1253.81 162.441 1245.08 Q162.441 1236.33 165.497 1231.75 Q168.575 1227.14 174.385 1227.14 Z" fill="#000000" fill-rule="nonzero" fill-opacity="1" /><path clip-path="url(#clip860)" d="M194.594 1227.77 L212.95 1227.77 L212.95 1231.7 L198.876 1231.7 L198.876 1240.17 Q199.895 1239.83 200.913 1239.66 Q201.932 1239.48 202.95 1239.48 Q208.737 1239.48 212.117 1242.65 Q215.496 1245.82 215.496 1251.24 Q215.496 1256.82 212.024 1259.92 Q208.552 1263 202.233 1263 Q200.057 1263 197.788 1262.63 Q195.543 1262.26 193.135 1261.52 L193.135 1256.82 Q195.219 1257.95 197.441 1258.51 Q199.663 1259.06 202.14 1259.06 Q206.145 1259.06 208.482 1256.96 Q210.82 1254.85 210.82 1251.24 Q210.82 1247.63 208.482 1245.52 Q206.145 1243.41 202.14 1243.41 Q200.265 1243.41 198.39 1243.83 Q196.538 1244.25 194.594 1245.13 L194.594 1227.77 Z" fill="#000000" fill-rule="nonzero" fill-opacity="1" /><path clip-path="url(#clip860)" d="M128.159 857.647 Q124.548 857.647 122.719 861.212 Q120.913 864.754 120.913 871.883 Q120.913 878.99 122.719 882.555 Q124.548 886.096 128.159 886.096 Q131.793 886.096 133.599 882.555 Q135.427 878.99 135.427 871.883 Q135.427 864.754 133.599 861.212 Q131.793 857.647 128.159 857.647 M128.159 853.944 Q133.969 853.944 137.025 858.55 Q140.103 863.134 140.103 871.883 Q140.103 880.61 137.025 885.217 Q133.969 889.8 128.159 889.8 Q122.349 889.8 119.27 885.217 Q116.214 880.61 116.214 871.883 Q116.214 863.134 119.27 858.55 Q122.349 853.944 128.159 853.944 Z" fill="#000000" fill-rule="nonzero" fill-opacity="1" /><path clip-path="url(#clip860)" d="M148.321 883.249 L153.205 883.249 L153.205 889.129 L148.321 889.129 L148.321 883.249 Z" fill="#000000" fill-rule="nonzero" fill-opacity="1" /><path clip-path="url(#clip860)" d="M164.2 885.194 L171.839 885.194 L171.839 858.828 L163.529 860.495 L163.529 856.235 L171.793 854.569 L176.469 854.569 L176.469 885.194 L184.108 885.194 L184.108 889.129 L164.2 889.129 L164.2 885.194 Z" fill="#000000" fill-rule="nonzero" fill-opacity="1" /><path clip-path="url(#clip860)" d="M203.552 857.647 Q199.941 857.647 198.112 861.212 Q196.307 864.754 196.307 871.883 Q196.307 878.99 198.112 882.555 Q199.941 886.096 203.552 886.096 Q207.186 886.096 208.992 882.555 Q210.82 878.99 210.82 871.883 Q210.82 864.754 208.992 861.212 Q207.186 857.647 203.552 857.647 M203.552 853.944 Q209.362 853.944 212.418 858.55 Q215.496 863.134 215.496 871.883 Q215.496 880.61 212.418 885.217 Q209.362 889.8 203.552 889.8 Q197.742 889.8 194.663 885.217 Q191.608 880.61 191.608 871.883 Q191.608 863.134 194.663 858.55 Q197.742 853.944 203.552 853.944 Z" fill="#000000" fill-rule="nonzero" fill-opacity="1" /><path clip-path="url(#clip860)" d="M129.154 484.45 Q125.543 484.45 123.714 488.015 Q121.909 491.557 121.909 498.686 Q121.909 505.793 123.714 509.358 Q125.543 512.899 129.154 512.899 Q132.788 512.899 134.594 509.358 Q136.423 505.793 136.423 498.686 Q136.423 491.557 134.594 488.015 Q132.788 484.45 129.154 484.45 M129.154 480.747 Q134.964 480.747 138.02 485.353 Q141.099 489.936 141.099 498.686 Q141.099 507.413 138.02 512.02 Q134.964 516.603 129.154 516.603 Q123.344 516.603 120.265 512.02 Q117.21 507.413 117.21 498.686 Q117.21 489.936 120.265 485.353 Q123.344 480.747 129.154 480.747 Z" fill="#000000" fill-rule="nonzero" fill-opacity="1" /><path clip-path="url(#clip860)" d="M149.316 510.052 L154.2 510.052 L154.2 515.932 L149.316 515.932 L149.316 510.052 Z" fill="#000000" fill-rule="nonzero" fill-opacity="1" /><path clip-path="url(#clip860)" d="M165.196 511.996 L172.835 511.996 L172.835 485.631 L164.524 487.297 L164.524 483.038 L172.788 481.372 L177.464 481.372 L177.464 511.996 L185.103 511.996 L185.103 515.932 L165.196 515.932 L165.196 511.996 Z" fill="#000000" fill-rule="nonzero" fill-opacity="1" /><path clip-path="url(#clip860)" d="M194.594 481.372 L212.95 481.372 L212.95 485.307 L198.876 485.307 L198.876 493.779 Q199.895 493.432 200.913 493.27 Q201.932 493.084 202.95 493.084 Q208.737 493.084 212.117 496.256 Q215.496 499.427 215.496 504.844 Q215.496 510.422 212.024 513.524 Q208.552 516.603 202.233 516.603 Q200.057 516.603 197.788 516.232 Q195.543 515.862 193.135 515.121 L193.135 510.422 Q195.219 511.557 197.441 512.112 Q199.663 512.668 202.14 512.668 Q206.145 512.668 208.482 510.561 Q210.82 508.455 210.82 504.844 Q210.82 501.233 208.482 499.126 Q206.145 497.02 202.14 497.02 Q200.265 497.02 198.39 497.436 Q196.538 497.853 194.594 498.733 L194.594 481.372 Z" fill="#000000" fill-rule="nonzero" fill-opacity="1" /><path clip-path="url(#clip860)" d="M19.402 1098.4 L37.2578 1098.4 L37.2578 1090.32 Q37.2578 1085.83 34.9343 1083.38 Q32.6108 1080.93 28.314 1080.93 Q24.0489 1080.93 21.7255 1083.38 Q19.402 1085.83 19.402 1090.32 L19.402 1098.4 M14.1184 1104.83 L14.1184 1090.32 Q14.1184 1082.33 17.7469 1078.26 Q21.3435 1074.15 28.314 1074.15 Q35.3481 1074.15 38.9447 1078.26 Q42.5413 1082.33 42.5413 1090.32 L42.5413 1098.4 L61.6384 1098.4 L61.6384 1104.83 L14.1184 1104.83 Z" fill="#000000" fill-rule="nonzero" fill-opacity="1" /><path clip-path="url(#clip860)" d="M31.465 1046.27 Q30.8921 1047.26 30.6375 1048.43 Q30.351 1049.58 30.351 1050.98 Q30.351 1055.95 33.5975 1058.62 Q36.8122 1061.26 42.8596 1061.26 L61.6384 1061.26 L61.6384 1067.15 L25.9905 1067.15 L25.9905 1061.26 L31.5287 1061.26 Q28.2821 1059.41 26.7225 1056.45 Q25.1311 1053.49 25.1311 1049.26 Q25.1311 1048.66 25.2266 1047.92 Q25.2903 1047.19 25.4494 1046.3 L31.465 1046.27 Z" fill="#000000" fill-rule="nonzero" fill-opacity="1" /><path clip-path="url(#clip860)" d="M42.3504 1011.07 L45.2149 1011.07 L45.2149 1037.99 Q51.2623 1037.61 54.4452 1034.37 Q57.5962 1031.09 57.5962 1025.26 Q57.5962 1021.89 56.7687 1018.74 Q55.9411 1015.55 54.2861 1012.44 L59.8242 1012.44 Q61.161 1015.59 61.8612 1018.9 Q62.5615 1022.21 62.5615 1025.61 Q62.5615 1034.14 57.5962 1039.14 Q52.631 1044.1 44.1646 1044.1 Q35.4117 1044.1 30.2873 1039.39 Q25.1311 1034.65 25.1311 1026.63 Q25.1311 1019.44 29.7781 1015.27 Q34.3932 1011.07 42.3504 1011.07 M40.6316 1016.92 Q35.8255 1016.99 32.9609 1019.63 Q30.0964 1022.24 30.0964 1026.57 Q30.0964 1031.47 32.8654 1034.43 Q35.6345 1037.36 40.6634 1037.8 L40.6316 1016.92 Z" fill="#000000" fill-rule="nonzero" fill-opacity="1" /><path clip-path="url(#clip860)" d="M25.9905 1005.66 L25.9905 999.45 L55.9093 988.31 L25.9905 977.17 L25.9905 970.963 L61.6384 984.331 L61.6384 992.288 L25.9905 1005.66 Z" fill="#000000" fill-rule="nonzero" fill-opacity="1" /><path clip-path="url(#clip860)" d="M43.719 946.678 Q43.719 953.776 45.3422 956.513 Q46.9655 959.25 50.8804 959.25 Q53.9996 959.25 55.8457 957.213 Q57.6599 955.144 57.6599 951.611 Q57.6599 946.742 54.2224 943.813 Q50.7531 940.853 45.0239 940.853 L43.719 940.853 L43.719 946.678 M41.3 934.997 L61.6384 934.997 L61.6384 940.853 L56.2276 940.853 Q59.4741 942.858 61.0337 945.85 Q62.5615 948.842 62.5615 953.171 Q62.5615 958.645 59.5059 961.892 Q56.4186 965.107 51.2623 965.107 Q45.2467 965.107 42.1912 961.096 Q39.1357 957.054 39.1357 949.065 L39.1357 940.853 L38.5628 940.853 Q34.5205 940.853 32.3244 943.527 Q30.0964 946.169 30.0964 950.975 Q30.0964 954.03 30.8284 956.927 Q31.5605 959.823 33.0246 962.497 L27.6137 962.497 Q26.3724 959.282 25.7677 956.258 Q25.1311 953.235 25.1311 950.37 Q25.1311 942.636 29.1415 938.816 Q33.1519 934.997 41.3 934.997 Z" fill="#000000" fill-rule="nonzero" fill-opacity="1" /><path clip-path="url(#clip860)" d="M12.1132 922.934 L12.1132 917.077 L61.6384 917.077 L61.6384 922.934 L12.1132 922.934 Z" fill="#000000" fill-rule="nonzero" fill-opacity="1" /><path clip-path="url(#clip860)" d="M42.3504 874.332 L45.2149 874.332 L45.2149 901.259 Q51.2623 900.877 54.4452 897.63 Q57.5962 894.352 57.5962 888.527 Q57.5962 885.153 56.7687 882.002 Q55.9411 878.819 54.2861 875.7 L59.8242 875.7 Q61.161 878.851 61.8612 882.161 Q62.5615 885.472 62.5615 888.877 Q62.5615 897.407 57.5962 902.404 Q52.631 907.37 44.1646 907.37 Q35.4117 907.37 30.2873 902.659 Q25.1311 897.917 25.1311 889.896 Q25.1311 882.702 29.7781 878.533 Q34.3932 874.332 42.3504 874.332 M40.6316 880.188 Q35.8255 880.252 32.9609 882.893 Q30.0964 885.503 30.0964 889.832 Q30.0964 894.734 32.8654 897.694 Q35.6345 900.622 40.6634 901.068 L40.6316 880.188 Z" fill="#000000" fill-rule="nonzero" fill-opacity="1" /><path clip-path="url(#clip860)" d="M40.1224 835.087 L61.6384 835.087 L61.6384 840.943 L40.3133 840.943 Q35.2526 840.943 32.7381 842.917 Q30.2237 844.89 30.2237 848.837 Q30.2237 853.579 33.2474 856.317 Q36.2711 859.054 41.491 859.054 L61.6384 859.054 L61.6384 864.942 L25.9905 864.942 L25.9905 859.054 L31.5287 859.054 Q28.314 856.953 26.7225 854.12 Q25.1311 851.256 25.1311 847.532 Q25.1311 841.389 28.9505 838.238 Q32.7381 835.087 40.1224 835.087 Z" fill="#000000" fill-rule="nonzero" fill-opacity="1" /><path clip-path="url(#clip860)" d="M27.3591 797.752 L32.8336 797.752 Q31.465 800.235 30.7966 802.749 Q30.0964 805.232 30.0964 807.778 Q30.0964 813.475 33.7248 816.626 Q37.3214 819.777 43.8463 819.777 Q50.3711 819.777 53.9996 816.626 Q57.5962 813.475 57.5962 807.778 Q57.5962 805.232 56.9278 802.749 Q56.2276 800.235 54.859 797.752 L60.2698 797.752 Q61.4156 800.203 61.9886 802.845 Q62.5615 805.455 62.5615 808.415 Q62.5615 816.467 57.5007 821.21 Q52.44 825.952 43.8463 825.952 Q35.1253 825.952 30.1282 821.178 Q25.1311 816.372 25.1311 808.033 Q25.1311 805.327 25.704 802.749 Q26.2451 800.171 27.3591 797.752 Z" fill="#000000" fill-rule="nonzero" fill-opacity="1" /><path clip-path="url(#clip860)" d="M42.3504 757.075 L45.2149 757.075 L45.2149 784.002 Q51.2623 783.62 54.4452 780.374 Q57.5962 777.095 57.5962 771.271 Q57.5962 767.897 56.7687 764.746 Q55.9411 761.563 54.2861 758.444 L59.8242 758.444 Q61.161 761.595 61.8612 764.905 Q62.5615 768.215 62.5615 771.621 Q62.5615 780.151 57.5962 785.148 Q52.631 790.113 44.1646 790.113 Q35.4117 790.113 30.2873 785.403 Q25.1311 780.66 25.1311 772.639 Q25.1311 765.446 29.7781 761.277 Q34.3932 757.075 42.3504 757.075 M40.6316 762.932 Q35.8255 762.995 32.9609 765.637 Q30.0964 768.247 30.0964 772.576 Q30.0964 777.477 32.8654 780.437 Q35.6345 783.366 40.6634 783.811 L40.6316 762.932 Z" fill="#000000" fill-rule="nonzero" fill-opacity="1" /><path clip-path="url(#clip860)" d="M888.33 14.0809 L888.33 22.0612 Q883.671 19.8332 879.539 18.7395 Q875.407 17.6457 871.559 17.6457 Q864.875 17.6457 861.229 20.2383 Q857.624 22.8309 857.624 27.611 Q857.624 31.6214 860.014 33.6873 Q862.444 35.7128 869.169 36.9686 L874.111 37.9813 Q883.266 39.7232 887.6 44.1387 Q891.975 48.5136 891.975 55.8863 Q891.975 64.6767 886.061 69.2137 Q880.187 73.7508 868.804 73.7508 Q864.51 73.7508 859.649 72.7785 Q854.829 71.8063 849.643 69.9024 L849.643 61.4765 Q854.626 64.2716 859.406 65.6895 Q864.186 67.1073 868.804 67.1073 Q875.812 67.1073 879.62 64.3527 Q883.428 61.598 883.428 56.4939 Q883.428 52.0379 880.673 49.5264 Q877.959 47.0148 871.721 45.759 L866.738 44.7868 Q857.583 42.9639 853.492 39.075 Q849.4 35.1862 849.4 28.2591 Q849.4 20.2383 855.031 15.6203 Q860.702 11.0023 870.627 11.0023 Q874.881 11.0023 879.296 11.7719 Q883.712 12.5416 888.33 14.0809 Z" fill="#000000" fill-rule="nonzero" fill-opacity="1" /><path clip-path="url(#clip860)" d="M904.736 12.096 L912.919 12.096 L912.919 72.576 L904.736 72.576 L904.736 12.096 Z" fill="#000000" fill-rule="nonzero" fill-opacity="1" /><path clip-path="url(#clip860)" d="M957.884 44.2197 Q960.517 45.1109 962.988 48.0275 Q965.499 50.9442 968.011 56.0483 L976.315 72.576 L967.525 72.576 L959.788 57.061 Q956.79 50.9847 953.954 48.9997 Q951.159 47.0148 946.298 47.0148 L937.386 47.0148 L937.386 72.576 L929.203 72.576 L929.203 12.096 L947.675 12.096 Q958.046 12.096 963.15 16.4305 Q968.254 20.7649 968.254 29.5149 Q968.254 35.2267 965.58 38.994 Q962.947 42.7613 957.884 44.2197 M937.386 18.8205 L937.386 40.2903 L947.675 40.2903 Q953.59 40.2903 956.587 37.5762 Q959.626 34.8216 959.626 29.5149 Q959.626 24.2082 956.587 21.5346 Q953.59 18.8205 947.675 18.8205 L937.386 18.8205 Z" fill="#000000" fill-rule="nonzero" fill-opacity="1" /><path clip-path="url(#clip860)" d="M1021.4 18.8205 L1021.4 41.5461 L1031.69 41.5461 Q1037.4 41.5461 1040.52 38.5889 Q1043.64 35.6318 1043.64 30.163 Q1043.64 24.7348 1040.52 21.7777 Q1037.4 18.8205 1031.69 18.8205 L1021.4 18.8205 M1013.22 12.096 L1031.69 12.096 Q1041.86 12.096 1047.04 16.714 Q1052.27 21.2916 1052.27 30.163 Q1052.27 39.1155 1047.04 43.6931 Q1041.86 48.2706 1031.69 48.2706 L1021.4 48.2706 L1021.4 72.576 L1013.22 72.576 L1013.22 12.096 Z" fill="#000000" fill-rule="nonzero" fill-opacity="1" /><path clip-path="url(#clip860)" d="M1087.76 34.1734 Q1086.5 33.4443 1085 33.1202 Q1083.54 32.7556 1081.76 32.7556 Q1075.44 32.7556 1072.04 36.8875 Q1068.68 40.9789 1068.68 48.6757 L1068.68 72.576 L1061.18 72.576 L1061.18 27.2059 L1068.68 27.2059 L1068.68 34.2544 Q1071.03 30.1225 1074.79 28.1376 Q1078.56 26.1121 1083.95 26.1121 Q1084.72 26.1121 1085.65 26.2337 Q1086.58 26.3147 1087.72 26.5172 L1087.76 34.1734 Z" fill="#000000" fill-rule="nonzero" fill-opacity="1" /><path clip-path="url(#clip860)" d="M1132.56 48.0275 L1132.56 51.6733 L1098.29 51.6733 Q1098.77 59.3701 1102.91 63.421 Q1107.08 67.4314 1114.49 67.4314 Q1118.79 67.4314 1122.8 66.3781 Q1126.85 65.3249 1130.82 63.2184 L1130.82 70.267 Q1126.81 71.9684 1122.59 72.8596 Q1118.38 73.7508 1114.05 73.7508 Q1103.19 73.7508 1096.83 67.4314 Q1090.51 61.1119 1090.51 50.3365 Q1090.51 39.1965 1096.51 32.6746 Q1102.54 26.1121 1112.75 26.1121 Q1121.9 26.1121 1127.21 32.0264 Q1132.56 37.9003 1132.56 48.0275 M1125.1 45.84 Q1125.02 39.7232 1121.66 36.0774 Q1118.34 32.4315 1112.83 32.4315 Q1106.59 32.4315 1102.83 35.9558 Q1099.1 39.4801 1098.53 45.8805 L1125.1 45.84 Z" fill="#000000" fill-rule="nonzero" fill-opacity="1" /><path clip-path="url(#clip860)" d="M1139.45 27.2059 L1147.34 27.2059 L1161.52 65.2844 L1175.7 27.2059 L1183.6 27.2059 L1166.59 72.576 L1156.46 72.576 L1139.45 27.2059 Z" fill="#000000" fill-rule="nonzero" fill-opacity="1" /><path clip-path="url(#clip860)" d="M1214.51 49.7694 Q1205.47 49.7694 1201.99 51.8354 Q1198.51 53.9013 1198.51 58.8839 Q1198.51 62.8538 1201.1 65.2034 Q1203.73 67.5124 1208.23 67.5124 Q1214.43 67.5124 1218.15 63.1374 Q1221.92 58.7219 1221.92 51.4303 L1221.92 49.7694 L1214.51 49.7694 M1229.38 46.6907 L1229.38 72.576 L1221.92 72.576 L1221.92 65.6895 Q1219.37 69.8214 1215.56 71.8063 Q1211.75 73.7508 1206.24 73.7508 Q1199.28 73.7508 1195.15 69.8619 Q1191.05 65.9325 1191.05 59.3701 Q1191.05 51.7138 1196.16 47.825 Q1201.3 43.9361 1211.47 43.9361 L1221.92 43.9361 L1221.92 43.2069 Q1221.92 38.0623 1218.52 35.2672 Q1215.16 32.4315 1209.04 32.4315 Q1205.15 32.4315 1201.46 33.3632 Q1197.78 34.295 1194.38 36.1584 L1194.38 29.2718 Q1198.47 27.692 1202.32 26.9223 Q1206.16 26.1121 1209.81 26.1121 Q1219.65 26.1121 1224.51 31.2163 Q1229.38 36.3204 1229.38 46.6907 Z" fill="#000000" fill-rule="nonzero" fill-opacity="1" /><path clip-path="url(#clip860)" d="M1244.73 9.54393 L1252.18 9.54393 L1252.18 72.576 L1244.73 72.576 L1244.73 9.54393 Z" fill="#000000" fill-rule="nonzero" fill-opacity="1" /><path clip-path="url(#clip860)" d="M1306.59 48.0275 L1306.59 51.6733 L1272.31 51.6733 Q1272.8 59.3701 1276.93 63.421 Q1281.11 67.4314 1288.52 67.4314 Q1292.81 67.4314 1296.82 66.3781 Q1300.87 65.3249 1304.84 63.2184 L1304.84 70.267 Q1300.83 71.9684 1296.62 72.8596 Q1292.41 73.7508 1288.07 73.7508 Q1277.22 73.7508 1270.86 67.4314 Q1264.54 61.1119 1264.54 50.3365 Q1264.54 39.1965 1270.53 32.6746 Q1276.57 26.1121 1286.78 26.1121 Q1295.93 26.1121 1301.24 32.0264 Q1306.59 37.9003 1306.59 48.0275 M1299.13 45.84 Q1299.05 39.7232 1295.69 36.0774 Q1292.37 32.4315 1286.86 32.4315 Q1280.62 32.4315 1276.85 35.9558 Q1273.13 39.4801 1272.56 45.8805 L1299.13 45.84 Z" fill="#000000" fill-rule="nonzero" fill-opacity="1" /><path clip-path="url(#clip860)" d="M1356.53 45.1919 L1356.53 72.576 L1349.08 72.576 L1349.08 45.4349 Q1349.08 38.994 1346.57 35.7938 Q1344.06 32.5936 1339.03 32.5936 Q1333 32.5936 1329.51 36.4419 Q1326.03 40.2903 1326.03 46.9338 L1326.03 72.576 L1318.54 72.576 L1318.54 27.2059 L1326.03 27.2059 L1326.03 34.2544 Q1328.7 30.163 1332.31 28.1376 Q1335.95 26.1121 1340.69 26.1121 Q1348.51 26.1121 1352.52 30.9732 Q1356.53 35.7938 1356.53 45.1919 Z" fill="#000000" fill-rule="nonzero" fill-opacity="1" /><path clip-path="url(#clip860)" d="M1404.05 28.9478 L1404.05 35.9153 Q1400.89 34.1734 1397.69 33.3227 Q1394.53 32.4315 1391.29 32.4315 Q1384.04 32.4315 1380.03 37.0496 Q1376.02 41.6271 1376.02 49.9314 Q1376.02 58.2358 1380.03 62.8538 Q1384.04 67.4314 1391.29 67.4314 Q1394.53 67.4314 1397.69 66.5807 Q1400.89 65.6895 1404.05 63.9476 L1404.05 70.8341 Q1400.93 72.2924 1397.57 73.0216 Q1394.25 73.7508 1390.48 73.7508 Q1380.23 73.7508 1374.2 67.3098 Q1368.16 60.8689 1368.16 49.9314 Q1368.16 38.832 1374.24 32.472 Q1380.35 26.1121 1390.97 26.1121 Q1394.41 26.1121 1397.69 26.8413 Q1400.97 27.5299 1404.05 28.9478 Z" fill="#000000" fill-rule="nonzero" fill-opacity="1" /><path clip-path="url(#clip860)" d="M1455.82 48.0275 L1455.82 51.6733 L1421.55 51.6733 Q1422.04 59.3701 1426.17 63.421 Q1430.34 67.4314 1437.75 67.4314 Q1442.05 67.4314 1446.06 66.3781 Q1450.11 65.3249 1454.08 63.2184 L1454.08 70.267 Q1450.07 71.9684 1445.86 72.8596 Q1441.64 73.7508 1437.31 73.7508 Q1426.45 73.7508 1420.09 67.4314 Q1413.77 61.1119 1413.77 50.3365 Q1413.77 39.1965 1419.77 32.6746 Q1425.8 26.1121 1436.01 26.1121 Q1445.17 26.1121 1450.47 32.0264 Q1455.82 37.9003 1455.82 48.0275 M1448.37 45.84 Q1448.29 39.7232 1444.92 36.0774 Q1441.6 32.4315 1436.09 32.4315 Q1429.85 32.4315 1426.09 35.9558 Q1422.36 39.4801 1421.79 45.8805 L1448.37 45.84 Z" fill="#000000" fill-rule="nonzero" fill-opacity="1" /><path clip-path="url(#clip860)" d="M1490.66 46.9338 L1565.52 46.9338 L1565.52 52.7671 L1490.66 52.7671 L1490.66 46.9338 Z" fill="#000000" fill-rule="nonzero" fill-opacity="1" /><path clip-path="url(#clip860)" d="M1604.08 12.096 L1616.28 12.096 L1631.71 53.2532 L1647.23 12.096 L1659.42 12.096 L1659.42 72.576 L1651.44 72.576 L1651.44 19.4686 L1635.84 60.9499 L1627.62 60.9499 L1612.02 19.4686 L1612.02 72.576 L1604.08 72.576 L1604.08 12.096 Z" fill="#000000" fill-rule="nonzero" fill-opacity="1" /><path clip-path="url(#clip860)" d="M1714.15 48.0275 L1714.15 51.6733 L1679.88 51.6733 Q1680.36 59.3701 1684.49 63.421 Q1688.67 67.4314 1696.08 67.4314 Q1700.37 67.4314 1704.38 66.3781 Q1708.44 65.3249 1712.41 63.2184 L1712.41 70.267 Q1708.39 71.9684 1704.18 72.8596 Q1699.97 73.7508 1695.63 73.7508 Q1684.78 73.7508 1678.42 67.4314 Q1672.1 61.1119 1672.1 50.3365 Q1672.1 39.1965 1678.09 32.6746 Q1684.13 26.1121 1694.34 26.1121 Q1703.49 26.1121 1708.8 32.0264 Q1714.15 37.9003 1714.15 48.0275 M1706.69 45.84 Q1706.61 39.7232 1703.25 36.0774 Q1699.93 32.4315 1694.42 32.4315 Q1688.18 32.4315 1684.41 35.9558 Q1680.69 39.4801 1680.12 45.8805 L1706.69 45.84 Z" fill="#000000" fill-rule="nonzero" fill-opacity="1" /><path clip-path="url(#clip860)" d="M1747 49.7694 Q1737.97 49.7694 1734.48 51.8354 Q1731 53.9013 1731 58.8839 Q1731 62.8538 1733.59 65.2034 Q1736.22 67.5124 1740.72 67.5124 Q1746.92 67.5124 1750.65 63.1374 Q1754.41 58.7219 1754.41 51.4303 L1754.41 49.7694 L1747 49.7694 M1761.87 46.6907 L1761.87 72.576 L1754.41 72.576 L1754.41 65.6895 Q1751.86 69.8214 1748.05 71.8063 Q1744.25 73.7508 1738.74 73.7508 Q1731.77 73.7508 1727.64 69.8619 Q1723.55 65.9325 1723.55 59.3701 Q1723.55 51.7138 1728.65 47.825 Q1733.79 43.9361 1743.96 43.9361 L1754.41 43.9361 L1754.41 43.2069 Q1754.41 38.0623 1751.01 35.2672 Q1747.65 32.4315 1741.53 32.4315 Q1737.64 32.4315 1733.96 33.3632 Q1730.27 34.295 1726.87 36.1584 L1726.87 29.2718 Q1730.96 27.692 1734.81 26.9223 Q1738.65 26.1121 1742.3 26.1121 Q1752.14 26.1121 1757.01 31.2163 Q1761.87 36.3204 1761.87 46.6907 Z" fill="#000000" fill-rule="nonzero" fill-opacity="1" /><path clip-path="url(#clip860)" d="M1814.93 45.1919 L1814.93 72.576 L1807.48 72.576 L1807.48 45.4349 Q1807.48 38.994 1804.97 35.7938 Q1802.46 32.5936 1797.43 32.5936 Q1791.4 32.5936 1787.91 36.4419 Q1784.43 40.2903 1784.43 46.9338 L1784.43 72.576 L1776.94 72.576 L1776.94 27.2059 L1784.43 27.2059 L1784.43 34.2544 Q1787.1 30.163 1790.71 28.1376 Q1794.35 26.1121 1799.09 26.1121 Q1806.91 26.1121 1810.92 30.9732 Q1814.93 35.7938 1814.93 45.1919 Z" fill="#000000" fill-rule="nonzero" fill-opacity="1" /><path clip-path="url(#clip860)" d="M1886.51 20.5624 L1886.51 36.2394 L1909.08 36.2394 L1909.08 43.1259 L1886.51 43.1259 L1886.51 58.8029 L1879.71 58.8029 L1879.71 43.1259 L1857.14 43.1259 L1857.14 36.2394 L1879.71 36.2394 L1879.71 20.5624 L1886.51 20.5624 M1857.14 65.6895 L1909.08 65.6895 L1909.08 72.576 L1857.14 72.576 L1857.14 65.6895 Z" fill="#000000" fill-rule="nonzero" fill-opacity="1" /><path clip-path="url(#clip860)" d="M1960.16 65.6895 L1988.72 65.6895 L1988.72 72.576 L1950.31 72.576 L1950.31 65.6895 Q1954.97 60.8689 1962.99 52.7671 Q1971.06 44.6248 1973.12 42.2752 Q1977.05 37.8598 1978.59 34.8216 Q1980.17 31.7429 1980.17 28.7857 Q1980.17 23.9651 1976.77 20.927 Q1973.4 17.8888 1967.98 17.8888 Q1964.13 17.8888 1959.83 19.2256 Q1955.58 20.5624 1950.72 23.2765 L1950.72 15.0127 Q1955.66 13.0277 1959.96 12.015 Q1964.25 11.0023 1967.81 11.0023 Q1977.21 11.0023 1982.8 15.7013 Q1988.39 20.4004 1988.39 28.2591 Q1988.39 31.9859 1986.98 35.3482 Q1985.6 38.6699 1981.91 43.2069 Q1980.9 44.3817 1975.47 50.0125 Q1970.04 55.6027 1960.16 65.6895 Z" fill="#000000" fill-rule="nonzero" fill-opacity="1" /><path clip-path="url(#clip860)" d="M2022.42 33.1202 Q2016.26 33.1202 2012.94 37.5762 Q2009.46 42.2347 2009.46 49.9314 Q2009.46 58.0738 2012.9 62.7728 Q2016.38 67.4314 2022.42 67.4314 Q2028.38 67.4314 2031.86 62.7323 Q2035.34 58.0333 2035.34 49.9314 Q2035.34 42.5183 2031.86 37.5762 Q2028.66 33.1202 2022.42 33.1202 M2022.42 27.2059 L2047.17 27.2059 L2047.17 34.6595 L2038.83 34.6595 Q2043.24 40.9789 2043.24 49.9314 Q2043.24 61.0714 2037.69 67.3908 Q2032.14 73.7508 2022.42 73.7508 Q2012.66 73.7508 2007.15 67.3908 Q2001.6 61.0714 2001.6 49.9314 Q2001.6 38.7104 2007.15 32.4315 Q2011.73 27.2059 2022.42 27.2059 Z" fill="#000000" fill-rule="nonzero" fill-opacity="1" /><path clip-path="url(#clip861)" d="M323.315 1549.52 L379.563 1586.19 L435.812 1595.14 L492.06 1600.12 L548.309 1590.66 L604.557 1609.68 L660.806 1604.62 L717.055 1564.98 L773.303 1568.56 L829.552 1609.84 L885.8 1611.69 L942.049 1649.03 L998.298 1670.38 L1054.55 1688.65 L1110.79 1645.19 L1167.04 1615.19 L1223.29 1639.94 L1279.54 1625.85 L1335.79 1605.54 L1392.04 1569.87 L1448.29 1543.57 L1504.53 1494.16 L1560.78 1485.77 L1617.03 1443.48 L1673.28 1394.64 L1729.53 1377.42 L1785.78 1388.22 L1842.03 1387.33 L1898.27 1413.96 L1954.52 1421.85 L2010.77 1373.49 L2067.02 1386.66 L2123.27 1386.94 L2179.52 1412.49 L2235.77 1409.23 L2292.01 1456.12 L2348.26 1489.43 L2404.51 1500.09 L2460.76 1548.13 L2517.01 1588.68 L2573.26 1622.22 L2573.26 1015.65 L2517.01 1001.43 L2460.76 985.257 L2404.51 1001.94 L2348.26 961.848 L2292.01 957.839 L2235.77 958.457 L2179.52 864.132 L2123.27 895.659 L2067.02 864.586 L2010.77 809.085 L1954.52 699.523 L1898.27 646.206 L1842.03 583.275 L1785.78 549.539 L1729.53 542.428 L1673.28 501.318 L1617.03 374.86 L1560.78 295.252 L1504.53 222.666 L1448.29 173.254 L1392.04 214.135 L1335.79 226.237 L1279.54 305.938 L1223.29 299.312 L1167.04 456.917 L1110.79 494.096 L1054.55 543.184 L998.298 630.127 L942.049 741.048 L885.8 860.491 L829.552 938.475 L773.303 1026.02 L717.055 1087.82 L660.806 1128.79 L604.557 1171.51 L548.309 1248.74 L492.06 1304.97 L435.812 1381.6 L379.563 1423.39 L323.315 1464.54  Z" fill="#4682b4" fill-rule="evenodd" fill-opacity="0.3"/>
<polyline clip-path="url(#clip861)" style="stroke:#4682b4; stroke-linecap:round; stroke-linejoin:round; stroke-width:8; stroke-opacity:1; fill:none" points="323.315,1507.03 379.563,1504.79 435.812,1488.37 492.06,1452.54 548.309,1419.7 604.557,1390.59 660.806,1366.71 717.055,1326.4 773.303,1297.29 829.552,1274.16 885.8,1236.09 942.049,1195.04 998.298,1150.25 1054.55,1115.92 1110.79,1069.64 1167.04,1036.06 1223.29,969.626 1279.54,965.894 1335.79,915.886 1392.04,892.001 1448.29,858.414 1504.53,858.414 1560.78,890.509 1617.03,909.168 1673.28,947.981 1729.53,959.923 1785.78,968.88 1842.03,985.301 1898.27,1030.08 1954.52,1060.69 2010.77,1091.29 2067.02,1125.62 2123.27,1141.3 2179.52,1138.31 2235.77,1183.84 2292.01,1206.98 2348.26,1225.64 2404.51,1251.02 2460.76,1266.69 2517.01,1295.05 2573.26,1318.94 "/>
<path clip-path="url(#clip860)" d="M2069.57 285.016 L2561.26 285.016 L2561.26 181.336 L2069.57 181.336  Z" fill="#ffffff" fill-rule="evenodd" fill-opacity="1"/>
<polyline clip-path="url(#clip860)" style="stroke:#000000; stroke-linecap:round; stroke-linejoin:round; stroke-width:4; stroke-opacity:1; fill:none" points="2069.57,285.016 2561.26,285.016 2561.26,181.336 2069.57,181.336 2069.57,285.016 "/>
<polyline clip-path="url(#clip860)" style="stroke:#4682b4; stroke-linecap:round; stroke-linejoin:round; stroke-width:8; stroke-opacity:1; fill:none" points="2096.07,233.176 2255.07,233.176 "/>
<path clip-path="url(#clip860)" d="M2281.57 215.896 L2288.53 215.896 L2297.35 239.415 L2306.22 215.896 L2313.19 215.896 L2313.19 250.456 L2308.63 250.456 L2308.63 220.109 L2299.71 243.813 L2295.01 243.813 L2286.1 220.109 L2286.1 250.456 L2281.57 250.456 L2281.57 215.896 Z" fill="#000000" fill-rule="nonzero" fill-opacity="1" /><path clip-path="url(#clip860)" d="M2344.46 236.429 L2344.46 238.512 L2324.88 238.512 Q2325.15 242.91 2327.51 245.225 Q2329.9 247.516 2334.13 247.516 Q2336.59 247.516 2338.88 246.915 Q2341.19 246.313 2343.46 245.109 L2343.46 249.137 Q2341.17 250.109 2338.76 250.618 Q2336.36 251.128 2333.88 251.128 Q2327.68 251.128 2324.04 247.516 Q2320.43 243.905 2320.43 237.748 Q2320.43 231.382 2323.86 227.655 Q2327.31 223.906 2333.14 223.906 Q2338.37 223.906 2341.4 227.285 Q2344.46 230.642 2344.46 236.429 M2340.2 235.179 Q2340.15 231.683 2338.23 229.6 Q2336.33 227.517 2333.19 227.517 Q2329.62 227.517 2327.47 229.53 Q2325.34 231.544 2325.01 235.202 L2340.2 235.179 Z" fill="#000000" fill-rule="nonzero" fill-opacity="1" /><path clip-path="url(#clip860)" d="M2363.23 237.424 Q2358.07 237.424 2356.08 238.604 Q2354.09 239.785 2354.09 242.632 Q2354.09 244.901 2355.57 246.243 Q2357.07 247.563 2359.64 247.563 Q2363.19 247.563 2365.32 245.063 Q2367.47 242.54 2367.47 238.373 L2367.47 237.424 L2363.23 237.424 M2371.73 235.665 L2371.73 250.456 L2367.47 250.456 L2367.47 246.521 Q2366.01 248.882 2363.83 250.016 Q2361.66 251.128 2358.51 251.128 Q2354.53 251.128 2352.17 248.905 Q2349.83 246.66 2349.83 242.91 Q2349.83 238.535 2352.75 236.313 Q2355.69 234.091 2361.5 234.091 L2367.47 234.091 L2367.47 233.674 Q2367.47 230.734 2365.52 229.137 Q2363.6 227.517 2360.11 227.517 Q2357.88 227.517 2355.78 228.049 Q2353.67 228.581 2351.73 229.646 L2351.73 225.711 Q2354.07 224.808 2356.26 224.368 Q2358.46 223.906 2360.55 223.906 Q2366.17 223.906 2368.95 226.822 Q2371.73 229.739 2371.73 235.665 Z" fill="#000000" fill-rule="nonzero" fill-opacity="1" /><path clip-path="url(#clip860)" d="M2402.05 234.808 L2402.05 250.456 L2397.79 250.456 L2397.79 234.947 Q2397.79 231.267 2396.36 229.438 Q2394.92 227.609 2392.05 227.609 Q2388.6 227.609 2386.61 229.808 Q2384.62 232.007 2384.62 235.804 L2384.62 250.456 L2380.34 250.456 L2380.34 224.531 L2384.62 224.531 L2384.62 228.558 Q2386.15 226.22 2388.21 225.063 Q2390.29 223.906 2393 223.906 Q2397.47 223.906 2399.76 226.683 Q2402.05 229.438 2402.05 234.808 Z" fill="#000000" fill-rule="nonzero" fill-opacity="1" /><path clip-path="url(#clip860)" d="M2442.95 220.734 L2442.95 229.693 L2455.85 229.693 L2455.85 233.628 L2442.95 233.628 L2442.95 242.586 L2439.06 242.586 L2439.06 233.628 L2426.17 233.628 L2426.17 229.693 L2439.06 229.693 L2439.06 220.734 L2442.95 220.734 M2426.17 246.521 L2455.85 246.521 L2455.85 250.456 L2426.17 250.456 L2426.17 246.521 Z" fill="#000000" fill-rule="nonzero" fill-opacity="1" /><path clip-path="url(#clip860)" d="M2485.04 246.521 L2501.36 246.521 L2501.36 250.456 L2479.41 250.456 L2479.41 246.521 Q2482.07 243.767 2486.66 239.137 Q2491.26 234.484 2492.44 233.142 Q2494.69 230.618 2495.57 228.882 Q2496.47 227.123 2496.47 225.433 Q2496.47 222.679 2494.53 220.943 Q2492.61 219.206 2489.5 219.206 Q2487.31 219.206 2484.85 219.97 Q2482.42 220.734 2479.64 222.285 L2479.64 217.563 Q2482.47 216.429 2484.92 215.85 Q2487.37 215.271 2489.41 215.271 Q2494.78 215.271 2497.98 217.956 Q2501.17 220.642 2501.17 225.132 Q2501.17 227.262 2500.36 229.183 Q2499.57 231.081 2497.47 233.674 Q2496.89 234.345 2493.79 237.563 Q2490.68 240.757 2485.04 246.521 Z" fill="#000000" fill-rule="nonzero" fill-opacity="1" /><path clip-path="url(#clip860)" d="M2520.62 227.91 Q2517.1 227.91 2515.2 230.456 Q2513.21 233.118 2513.21 237.517 Q2513.21 242.169 2515.18 244.854 Q2517.17 247.516 2520.62 247.516 Q2524.02 247.516 2526.01 244.831 Q2528 242.146 2528 237.517 Q2528 233.28 2526.01 230.456 Q2524.18 227.91 2520.62 227.91 M2520.62 224.531 L2534.76 224.531 L2534.76 228.79 L2529.99 228.79 Q2532.51 232.401 2532.51 237.517 Q2532.51 243.882 2529.34 247.493 Q2526.17 251.128 2520.62 251.128 Q2515.04 251.128 2511.89 247.493 Q2508.72 243.882 2508.72 237.517 Q2508.72 231.105 2511.89 227.517 Q2514.5 224.531 2520.62 224.531 Z" fill="#000000" fill-rule="nonzero" fill-opacity="1" /></svg>
