<?xml version="1.0" encoding="utf-8"?>
<svg xmlns="http://www.w3.org/2000/svg" xmlns:xlink="http://www.w3.org/1999/xlink" width="672" height="480" viewBox="0 0 2688 1920">
<defs>
  <clipPath id="clip820">
    <rect x="0" y="0" width="2688" height="1920"/>
  </clipPath>
</defs>
<path clip-path="url(#clip820)" d="M0 1920 L2688 1920 L2688 -4.26326e-14 L0 -4.26326e-14  Z" fill="#ffffff" fill-rule="evenodd" fill-opacity="1"/>
<defs>
  <clipPath id="clip821">
    <rect x="255" y="127" width="2386" height="1607"/>
  </clipPath>
</defs>
<path clip-path="url(#clip820)" d="M255.816 1734.12 L2640.76 1734.12 L2640.76 127.792 L255.816 127.792  Z" fill="#ffffff" fill-rule="evenodd" fill-opacity="1"/>
<polyline clip-path="url(#clip821)" style="stroke:#000000; stroke-linecap:round; stroke-linejoin:round; stroke-width:2; stroke-opacity:0.1; fill:none" points="323.315,1734.12 323.315,127.792 "/>
<polyline clip-path="url(#clip821)" style="stroke:#000000; stroke-linecap:round; stroke-linejoin:round; stroke-width:2; stroke-opacity:0.1; fill:none" points="885.8,1734.12 885.8,127.792 "/>
<polyline clip-path="url(#clip821)" style="stroke:#000000; stroke-linecap:round; stroke-linejoin:round; stroke-width:2; stroke-opacity:0.1; fill:none" points="1448.29,1734.12 1448.29,127.792 "/>
<polyline clip-path="url(#clip821)" style="stroke:#000000; stroke-linecap:round; stroke-linejoin:round; stroke-width:2; stroke-opacity:0.1; fill:none" points="2010.77,1734.12 2010.77,127.792 "/>
<polyline clip-path="url(#clip821)" style="stroke:#000000; stroke-linecap:round; stroke-linejoin:round; stroke-width:2; stroke-opacity:0.1; fill:none" points="2573.26,1734.12 2573.26,127.792 "/>
<polyline clip-path="url(#clip821)" style="stroke:#000000; stroke-linecap:round; stroke-linejoin:round; stroke-width:2; stroke-opacity:0.1; fill:none" points="255.816,1688.65 2640.76,1688.65 "/>
<polyline clip-path="url(#clip821)" style="stroke:#000000; stroke-linecap:round; stroke-linejoin:round; stroke-width:2; stroke-opacity:0.1; fill:none" points="255.816,1260.58 2640.76,1260.58 "/>
<polyline clip-path="url(#clip821)" style="stroke:#000000; stroke-linecap:round; stroke-linejoin:round; stroke-width:2; stroke-opacity:0.1; fill:none" points="255.816,832.496 2640.76,832.496 "/>
<polyline clip-path="url(#clip821)" style="stroke:#000000; stroke-linecap:round; stroke-linejoin:round; stroke-width:2; stroke-opacity:0.1; fill:none" points="255.816,404.417 2640.76,404.417 "/>
<polyline clip-path="url(#clip820)" style="stroke:#000000; stroke-linecap:round; stroke-linejoin:round; stroke-width:4; stroke-opacity:1; fill:none" points="255.816,1734.12 2640.76,1734.12 "/>
<polyline clip-path="url(#clip820)" style="stroke:#000000; stroke-linecap:round; stroke-linejoin:round; stroke-width:4; stroke-opacity:1; fill:none" points="323.315,1734.12 323.315,1715.22 "/>
<polyline clip-path="url(#clip820)" style="stroke:#000000; stroke-linecap:round; stroke-linejoin:round; stroke-width:4; stroke-opacity:1; fill:none" points="885.8,1734.12 885.8,1715.22 "/>
<polyline clip-path="url(#clip820)" style="stroke:#000000; stroke-linecap:round; stroke-linejoin:round; stroke-width:4; stroke-opacity:1; fill:none" points="1448.29,1734.12 1448.29,1715.22 "/>
<polyline clip-path="url(#clip820)" style="stroke:#000000; stroke-linecap:round; stroke-linejoin:round; stroke-width:4; stroke-opacity:1; fill:none" points="2010.77,1734.12 2010.77,1715.22 "/>
<polyline clip-path="url(#clip820)" style="stroke:#000000; stroke-linecap:round; stroke-linejoin:round; stroke-width:4; stroke-opacity:1; fill:none" points="2573.26,1734.12 2573.26,1715.22 "/>
<path clip-path="url(#clip820)" d="M323.315 1767.34 Q319.704 1767.34 317.875 1770.9 Q316.069 1774.45 316.069 1781.58 Q316.069 1788.68 317.875 1792.25 Q319.704 1795.79 323.315 1795.79 Q326.949 1795.79 328.754 1792.25 Q330.583 1788.68 330.583 1781.58 Q330.583 1774.45 328.754 1770.9 Q326.949 1767.34 323.315 1767.34 M323.315 1763.64 Q329.125 1763.64 332.18 1768.24 Q335.259 1772.83 335.259 1781.58 Q335.259 1790.3 332.18 1794.91 Q329.125 1799.49 323.315 1799.49 Q317.504 1799.49 314.426 1794.91 Q311.37 1790.3 311.37 1781.58 Q311.37 1772.83 314.426 1768.24 Q317.504 1763.64 323.315 1763.64 Z" fill="#000000" fill-rule="nonzero" fill-opacity="1" /><path clip-path="url(#clip820)" d="M860.488 1794.89 L868.127 1794.89 L868.127 1768.52 L859.817 1770.19 L859.817 1765.93 L868.081 1764.26 L872.756 1764.26 L872.756 1794.89 L880.395 1794.89 L880.395 1798.82 L860.488 1798.82 L860.488 1794.89 Z" fill="#000000" fill-rule="nonzero" fill-opacity="1" /><path clip-path="url(#clip820)" d="M899.84 1767.34 Q896.229 1767.34 894.4 1770.9 Q892.594 1774.45 892.594 1781.58 Q892.594 1788.68 894.4 1792.25 Q896.229 1795.79 899.84 1795.79 Q903.474 1795.79 905.279 1792.25 Q907.108 1788.68 907.108 1781.58 Q907.108 1774.45 905.279 1770.9 Q903.474 1767.34 899.84 1767.34 M899.84 1763.64 Q905.65 1763.64 908.705 1768.24 Q911.784 1772.83 911.784 1781.58 Q911.784 1790.3 908.705 1794.91 Q905.65 1799.49 899.84 1799.49 Q894.029 1799.49 890.951 1794.91 Q887.895 1790.3 887.895 1781.58 Q887.895 1772.83 890.951 1768.24 Q894.029 1763.64 899.84 1763.64 Z" fill="#000000" fill-rule="nonzero" fill-opacity="1" /><path clip-path="url(#clip820)" d="M1427.06 1794.89 L1443.38 1794.89 L1443.38 1798.82 L1421.43 1798.82 L1421.43 1794.89 Q1424.1 1792.13 1428.68 1787.5 Q1433.29 1782.85 1434.47 1781.51 Q1436.71 1778.98 1437.59 1777.25 Q1438.49 1775.49 1438.49 1773.8 Q1438.49 1771.04 1436.55 1769.31 Q1434.63 1767.57 1431.53 1767.57 Q1429.33 1767.57 1426.87 1768.34 Q1424.44 1769.1 1421.67 1770.65 L1421.67 1765.93 Q1424.49 1764.79 1426.94 1764.21 Q1429.4 1763.64 1431.43 1763.64 Q1436.8 1763.64 1440 1766.32 Q1443.19 1769.01 1443.19 1773.5 Q1443.19 1775.63 1442.38 1777.55 Q1441.6 1779.45 1439.49 1782.04 Q1438.91 1782.71 1435.81 1785.93 Q1432.71 1789.12 1427.06 1794.89 Z" fill="#000000" fill-rule="nonzero" fill-opacity="1" /><path clip-path="url(#clip820)" d="M1463.19 1767.34 Q1459.58 1767.34 1457.75 1770.9 Q1455.95 1774.45 1455.95 1781.58 Q1455.95 1788.68 1457.75 1792.25 Q1459.58 1795.79 1463.19 1795.79 Q1466.83 1795.79 1468.63 1792.25 Q1470.46 1788.68 1470.46 1781.58 Q1470.46 1774.45 1468.63 1770.9 Q1466.83 1767.34 1463.19 1767.34 M1463.19 1763.64 Q1469 1763.64 1472.06 1768.24 Q1475.14 1772.83 1475.14 1781.58 Q1475.14 1790.3 1472.06 1794.91 Q1469 1799.49 1463.19 1799.49 Q1457.38 1799.49 1454.3 1794.91 Q1451.25 1790.3 1451.25 1781.58 Q1451.25 1772.83 1454.3 1768.24 Q1457.38 1763.64 1463.19 1763.64 Z" fill="#000000" fill-rule="nonzero" fill-opacity="1" /><path clip-path="url(#clip820)" d="M1999.61 1780.19 Q2002.97 1780.9 2004.85 1783.17 Q2006.74 1785.44 2006.74 1788.77 Q2006.74 1793.89 2003.23 1796.69 Q1999.71 1799.49 1993.23 1799.49 Q1991.05 1799.49 1988.73 1799.05 Q1986.44 1798.64 1983.99 1797.78 L1983.99 1793.27 Q1985.93 1794.4 1988.25 1794.98 Q1990.56 1795.56 1993.09 1795.56 Q1997.48 1795.56 1999.78 1793.82 Q2002.09 1792.08 2002.09 1788.77 Q2002.09 1785.72 1999.94 1784.01 Q1997.81 1782.27 1993.99 1782.27 L1989.96 1782.27 L1989.96 1778.43 L1994.17 1778.43 Q1997.62 1778.43 1999.45 1777.06 Q2001.28 1775.67 2001.28 1773.08 Q2001.28 1770.42 1999.38 1769.01 Q1997.51 1767.57 1993.99 1767.57 Q1992.07 1767.57 1989.87 1767.99 Q1987.67 1768.4 1985.03 1769.28 L1985.03 1765.12 Q1987.69 1764.38 1990.01 1764.01 Q1992.35 1763.64 1994.41 1763.64 Q1999.73 1763.64 2002.83 1766.07 Q2005.93 1768.47 2005.93 1772.59 Q2005.93 1775.46 2004.29 1777.46 Q2002.65 1779.42 1999.61 1780.19 Z" fill="#000000" fill-rule="nonzero" fill-opacity="1" /><path clip-path="url(#clip820)" d="M2025.61 1767.34 Q2022 1767.34 2020.17 1770.9 Q2018.36 1774.45 2018.36 1781.58 Q2018.36 1788.68 2020.17 1792.25 Q2022 1795.79 2025.61 1795.79 Q2029.24 1795.79 2031.05 1792.25 Q2032.88 1788.68 2032.88 1781.58 Q2032.88 1774.45 2031.05 1770.9 Q2029.24 1767.34 2025.61 1767.34 M2025.61 1763.64 Q2031.42 1763.64 2034.48 1768.24 Q2037.55 1772.83 2037.55 1781.58 Q2037.55 1790.3 2034.48 1794.91 Q2031.42 1799.49 2025.61 1799.49 Q2019.8 1799.49 2016.72 1794.91 Q2013.67 1790.3 2013.67 1781.58 Q2013.67 1772.83 2016.72 1768.24 Q2019.8 1763.64 2025.61 1763.64 Z" fill="#000000" fill-rule="nonzero" fill-opacity="1" /><path clip-path="url(#clip820)" d="M2561.43 1768.34 L2549.62 1786.78 L2561.43 1786.78 L2561.43 1768.34 M2560.2 1764.26 L2566.08 1764.26 L2566.08 1786.78 L2571.01 1786.78 L2571.01 1790.67 L2566.08 1790.67 L2566.08 1798.82 L2561.43 1798.82 L2561.43 1790.67 L2545.83 1790.67 L2545.83 1786.16 L2560.2 1764.26 Z" fill="#000000" fill-rule="nonzero" fill-opacity="1" /><path clip-path="url(#clip820)" d="M2588.74 1767.34 Q2585.13 1767.34 2583.3 1770.9 Q2581.5 1774.45 2581.5 1781.58 Q2581.5 1788.68 2583.3 1792.25 Q2585.13 1795.79 2588.74 1795.79 Q2592.38 1795.79 2594.18 1792.25 Q2596.01 1788.68 2596.01 1781.58 Q2596.01 1774.45 2594.18 1770.9 Q2592.38 1767.34 2588.74 1767.34 M2588.74 1763.64 Q2594.55 1763.64 2597.61 1768.24 Q2600.69 1772.83 2600.69 1781.58 Q2600.69 1790.3 2597.61 1794.91 Q2594.55 1799.49 2588.74 1799.49 Q2582.93 1799.49 2579.85 1794.91 Q2576.8 1790.3 2576.8 1781.58 Q2576.8 1772.83 2579.85 1768.24 Q2582.93 1763.64 2588.74 1763.64 Z" fill="#000000" fill-rule="nonzero" fill-opacity="1" /><path clip-path="url(#clip820)" d="M1394.53 1841.06 L1394.53 1878.02 L1402.29 1878.02 Q1412.13 1878.02 1416.68 1873.56 Q1421.26 1869.11 1421.26 1859.49 Q1421.26 1849.94 1416.68 1845.52 Q1412.13 1841.06 1402.29 1841.06 L1394.53 1841.06 M1388.1 1835.78 L1401.31 1835.78 Q1415.12 1835.78 1421.58 1841.54 Q1428.04 1847.27 1428.04 1859.49 Q1428.04 1871.78 1421.55 1877.54 Q1415.06 1883.3 1401.31 1883.3 L1388.1 1883.3 L1388.1 1835.78 Z" fill="#000000" fill-rule="nonzero" fill-opacity="1" /><path clip-path="url(#clip820)" d="M1454.24 1865.38 Q1447.14 1865.38 1444.4 1867 Q1441.67 1868.63 1441.67 1872.54 Q1441.67 1875.66 1443.7 1877.51 Q1445.77 1879.32 1449.3 1879.32 Q1454.17 1879.32 1457.1 1875.88 Q1460.06 1872.42 1460.06 1866.69 L1460.06 1865.38 L1454.24 1865.38 M1465.92 1862.96 L1465.92 1883.3 L1460.06 1883.3 L1460.06 1877.89 Q1458.06 1881.14 1455.07 1882.7 Q1452.07 1884.22 1447.75 1884.22 Q1442.27 1884.22 1439.02 1881.17 Q1435.81 1878.08 1435.81 1872.92 Q1435.81 1866.91 1439.82 1863.85 Q1443.86 1860.8 1451.85 1860.8 L1460.06 1860.8 L1460.06 1860.23 Q1460.06 1856.18 1457.39 1853.99 Q1454.75 1851.76 1449.94 1851.76 Q1446.89 1851.76 1443.99 1852.49 Q1441.09 1853.22 1438.42 1854.69 L1438.42 1849.28 Q1441.63 1848.03 1444.66 1847.43 Q1447.68 1846.79 1450.55 1846.79 Q1458.28 1846.79 1462.1 1850.8 Q1465.92 1854.81 1465.92 1862.96 Z" fill="#000000" fill-rule="nonzero" fill-opacity="1" /><path clip-path="url(#clip820)" d="M1492.81 1886.61 Q1490.33 1892.98 1487.98 1894.92 Q1485.62 1896.86 1481.67 1896.86 L1477 1896.86 L1477 1891.96 L1480.43 1891.96 Q1482.85 1891.96 1484.19 1890.81 Q1485.53 1889.67 1487.15 1885.4 L1488.2 1882.73 L1473.78 1847.65 L1479.99 1847.65 L1491.13 1875.53 L1502.27 1847.65 L1508.47 1847.65 L1492.81 1886.61 Z" fill="#000000" fill-rule="nonzero" fill-opacity="1" /><polyline clip-path="url(#clip820)" style="stroke:#000000; stroke-linecap:round; stroke-linejoin:round; stroke-width:4; stroke-opacity:1; fill:none" points="255.816,1734.12 255.816,127.792 "/>
<polyline clip-path="url(#clip820)" style="stroke:#000000; stroke-linecap:round; stroke-linejoin:round; stroke-width:4; stroke-opacity:1; fill:none" points="255.816,1688.65 274.714,1688.65 "/>
<polyline clip-path="url(#clip820)" style="stroke:#000000; stroke-linecap:round; stroke-linejoin:round; stroke-width:4; stroke-opacity:1; fill:none" points="255.816,1260.58 274.714,1260.58 "/>
<polyline clip-path="url(#clip820)" style="stroke:#000000; stroke-linecap:round; stroke-linejoin:round; stroke-width:4; stroke-opacity:1; fill:none" points="255.816,832.496 274.714,832.496 "/>
<polyline clip-path="url(#clip820)" style="stroke:#000000; stroke-linecap:round; stroke-linejoin:round; stroke-width:4; stroke-opacity:1; fill:none" points="255.816,404.417 274.714,404.417 "/>
<path clip-path="url(#clip820)" d="M128.159 1674.45 Q124.548 1674.45 122.719 1678.02 Q120.913 1681.56 120.913 1688.69 Q120.913 1695.8 122.719 1699.36 Q124.548 1702.9 128.159 1702.9 Q131.793 1702.9 133.599 1699.36 Q135.427 1695.8 135.427 1688.69 Q135.427 1681.56 133.599 1678.02 Q131.793 1674.45 128.159 1674.45 M128.159 1670.75 Q133.969 1670.75 137.025 1675.36 Q140.103 1679.94 140.103 1688.69 Q140.103 1697.42 137.025 1702.02 Q133.969 1706.61 128.159 1706.61 Q122.349 1706.61 119.27 1702.02 Q116.214 1697.42 116.214 1688.69 Q116.214 1679.94 119.27 1675.36 Q122.349 1670.75 128.159 1670.75 Z" fill="#000000" fill-rule="nonzero" fill-opacity="1" /><path clip-path="url(#clip820)" d="M148.321 1700.06 L153.205 1700.06 L153.205 1705.93 L148.321 1705.93 L148.321 1700.06 Z" fill="#000000" fill-rule="nonzero" fill-opacity="1" /><path clip-path="url(#clip820)" d="M173.39 1674.45 Q169.779 1674.45 167.95 1678.02 Q166.145 1681.56 166.145 1688.69 Q166.145 1695.8 167.95 1699.36 Q169.779 1702.9 173.39 1702.9 Q177.024 1702.9 178.83 1699.36 Q180.659 1695.8 180.659 1688.69 Q180.659 1681.56 178.83 1678.02 Q177.024 1674.45 173.39 1674.45 M173.39 1670.75 Q179.2 1670.75 182.256 1675.36 Q185.334 1679.94 185.334 1688.69 Q185.334 1697.42 182.256 1702.02 Q179.2 1706.61 173.39 1706.61 Q167.58 1706.61 164.501 1702.02 Q161.446 1697.42 161.446 1688.69 Q161.446 1679.94 164.501 1675.36 Q167.58 1670.75 173.39 1670.75 Z" fill="#000000" fill-rule="nonzero" fill-opacity="1" /><path clip-path="url(#clip820)" d="M203.552 1674.45 Q199.941 1674.45 198.112 1678.02 Q196.307 1681.56 196.307 1688.69 Q196.307 1695.8 198.112 1699.36 Q199.941 1702.9 203.552 1702.9 Q207.186 1702.9 208.992 1699.36 Q210.82 1695.8 210.82 1688.69 Q210.82 1681.56 208.992 1678.02 Q207.186 1674.45 203.552 1674.45 M203.552 1670.75 Q209.362 1670.75 212.418 1675.36 Q215.496 1679.94 215.496 1688.69 Q215.496 1697.42 212.418 1702.02 Q209.362 1706.61 203.552 1706.61 Q197.742 1706.61 194.663 1702.02 Q191.608 1697.42 191.608 1688.69 Q191.608 1679.94 194.663 1675.36 Q197.742 1670.75 203.552 1670.75 Z" fill="#000000" fill-rule="nonzero" fill-opacity="1" /><path clip-path="url(#clip820)" d="M129.154 1246.37 Q125.543 1246.37 123.714 1249.94 Q121.909 1253.48 121.909 1260.61 Q121.909 1267.72 123.714 1271.28 Q125.543 1274.82 129.154 1274.82 Q132.788 1274.82 134.594 1271.28 Q136.423 1267.72 136.423 1260.61 Q136.423 1253.48 134.594 1249.94 Q132.788 1246.37 129.154 1246.37 M129.154 1242.67 Q134.964 1242.67 138.02 1247.28 Q141.099 1251.86 141.099 1260.61 Q141.099 1269.34 138.02 1273.94 Q134.964 1278.53 129.154 1278.53 Q123.344 1278.53 120.265 1273.94 Q117.21 1269.34 117.21 1260.61 Q117.21 1251.86 120.265 1247.28 Q123.344 1242.67 129.154 1242.67 Z" fill="#000000" fill-rule="nonzero" fill-opacity="1" /><path clip-path="url(#clip820)" d="M149.316 1271.98 L154.2 1271.98 L154.2 1277.86 L149.316 1277.86 L149.316 1271.98 Z" fill="#000000" fill-rule="nonzero" fill-opacity="1" /><path clip-path="url(#clip820)" d="M174.385 1246.37 Q170.774 1246.37 168.946 1249.94 Q167.14 1253.48 167.14 1260.61 Q167.14 1267.72 168.946 1271.28 Q170.774 1274.82 174.385 1274.82 Q178.02 1274.82 179.825 1271.28 Q181.654 1267.72 181.654 1260.61 Q181.654 1253.48 179.825 1249.94 Q178.02 1246.37 174.385 1246.37 M174.385 1242.67 Q180.196 1242.67 183.251 1247.28 Q186.33 1251.86 186.33 1260.61 Q186.33 1269.34 183.251 1273.94 Q180.196 1278.53 174.385 1278.53 Q168.575 1278.53 165.497 1273.94 Q162.441 1269.34 162.441 1260.61 Q162.441 1251.86 165.497 1247.28 Q168.575 1242.67 174.385 1242.67 Z" fill="#000000" fill-rule="nonzero" fill-opacity="1" /><path clip-path="url(#clip820)" d="M194.594 1243.3 L212.95 1243.3 L212.95 1247.23 L198.876 1247.23 L198.876 1255.7 Q199.895 1255.36 200.913 1255.19 Q201.932 1255.01 202.95 1255.01 Q208.737 1255.01 212.117 1258.18 Q215.496 1261.35 215.496 1266.77 Q215.496 1272.35 212.024 1275.45 Q208.552 1278.53 202.233 1278.53 Q200.057 1278.53 197.788 1278.16 Q195.543 1277.79 193.135 1277.05 L193.135 1272.35 Q195.219 1273.48 197.441 1274.04 Q199.663 1274.59 202.14 1274.59 Q206.145 1274.59 208.482 1272.49 Q210.82 1270.38 210.82 1266.77 Q210.82 1263.16 208.482 1261.05 Q206.145 1258.94 202.14 1258.94 Q200.265 1258.94 198.39 1259.36 Q196.538 1259.78 194.594 1260.66 L194.594 1243.3 Z" fill="#000000" fill-rule="nonzero" fill-opacity="1" /><path clip-path="url(#clip820)" d="M128.159 818.295 Q124.548 818.295 122.719 821.86 Q120.913 825.401 120.913 832.531 Q120.913 839.637 122.719 843.202 Q124.548 846.744 128.159 846.744 Q131.793 846.744 133.599 843.202 Q135.427 839.637 135.427 832.531 Q135.427 825.401 133.599 821.86 Q131.793 818.295 128.159 818.295 M128.159 814.591 Q133.969 814.591 137.025 819.198 Q140.103 823.781 140.103 832.531 Q140.103 841.258 137.025 845.864 Q133.969 850.448 128.159 850.448 Q122.349 850.448 119.27 845.864 Q116.214 841.258 116.214 832.531 Q116.214 823.781 119.27 819.198 Q122.349 814.591 128.159 814.591 Z" fill="#000000" fill-rule="nonzero" fill-opacity="1" /><path clip-path="url(#clip820)" d="M148.321 843.897 L153.205 843.897 L153.205 849.776 L148.321 849.776 L148.321 843.897 Z" fill="#000000" fill-rule="nonzero" fill-opacity="1" /><path clip-path="url(#clip820)" d="M164.2 845.841 L171.839 845.841 L171.839 819.476 L163.529 821.142 L163.529 816.883 L171.793 815.216 L176.469 815.216 L176.469 845.841 L184.108 845.841 L184.108 849.776 L164.2 849.776 L164.2 845.841 Z" fill="#000000" fill-rule="nonzero" fill-opacity="1" /><path clip-path="url(#clip820)" d="M203.552 818.295 Q199.941 818.295 198.112 821.86 Q196.307 825.401 196.307 832.531 Q196.307 839.637 198.112 843.202 Q199.941 846.744 203.552 846.744 Q207.186 846.744 208.992 843.202 Q210.82 839.637 210.82 832.531 Q210.82 825.401 208.992 821.86 Q207.186 818.295 203.552 818.295 M203.552 814.591 Q209.362 814.591 212.418 819.198 Q215.496 823.781 215.496 832.531 Q215.496 841.258 212.418 845.864 Q209.362 850.448 203.552 850.448 Q197.742 850.448 194.663 845.864 Q191.608 841.258 191.608 832.531 Q191.608 823.781 194.663 819.198 Q197.742 814.591 203.552 814.591 Z" fill="#000000" fill-rule="nonzero" fill-opacity="1" /><path clip-path="url(#clip820)" d="M129.154 390.216 Q125.543 390.216 123.714 393.78 Q121.909 397.322 121.909 404.452 Q121.909 411.558 123.714 415.123 Q125.543 418.665 129.154 418.665 Q132.788 418.665 134.594 415.123 Q136.423 411.558 136.423 404.452 Q136.423 397.322 134.594 393.78 Q132.788 390.216 129.154 390.216 M129.154 386.512 Q134.964 386.512 138.02 391.118 Q141.099 395.702 141.099 404.452 Q141.099 413.179 138.02 417.785 Q134.964 422.368 129.154 422.368 Q123.344 422.368 120.265 417.785 Q117.21 413.179 117.21 404.452 Q117.21 395.702 120.265 391.118 Q123.344 386.512 129.154 386.512 Z" fill="#000000" fill-rule="nonzero" fill-opacity="1" /><path clip-path="url(#clip820)" d="M149.316 415.817 L154.2 415.817 L154.2 421.697 L149.316 421.697 L149.316 415.817 Z" fill="#000000" fill-rule="nonzero" fill-opacity="1" /><path clip-path="url(#clip820)" d="M165.196 417.762 L172.835 417.762 L172.835 391.396 L164.524 393.063 L164.524 388.804 L172.788 387.137 L177.464 387.137 L177.464 417.762 L185.103 417.762 L185.103 421.697 L165.196 421.697 L165.196 417.762 Z" fill="#000000" fill-rule="nonzero" fill-opacity="1" /><path clip-path="url(#clip820)" d="M194.594 387.137 L212.95 387.137 L212.95 391.072 L198.876 391.072 L198.876 399.544 Q199.895 399.197 200.913 399.035 Q201.932 398.85 202.95 398.85 Q208.737 398.85 212.117 402.021 Q215.496 405.192 215.496 410.609 Q215.496 416.188 212.024 419.29 Q208.552 422.368 202.233 422.368 Q200.057 422.368 197.788 421.998 Q195.543 421.628 193.135 420.887 L193.135 416.188 Q195.219 417.322 197.441 417.878 Q199.663 418.433 202.14 418.433 Q206.145 418.433 208.482 416.327 Q210.82 414.22 210.82 410.609 Q210.82 406.998 208.482 404.892 Q206.145 402.785 202.14 402.785 Q200.265 402.785 198.39 403.202 Q196.538 403.618 194.594 404.498 L194.594 387.137 Z" fill="#000000" fill-rule="nonzero" fill-opacity="1" /><path clip-path="url(#clip820)" d="M19.402 1098.4 L37.2578 1098.4 L37.2578 1090.32 Q37.2578 1085.83 34.9343 1083.38 Q32.6108 1080.93 28.314 1080.93 Q24.0489 1080.93 21.7255 1083.38 Q19.402 1085.83 19.402 1090.32 L19.402 1098.4 M14.1184 1104.83 L14.1184 1090.32 Q14.1184 1082.33 17.7469 1078.26 Q21.3435 1074.15 28.314 1074.15 Q35.3481 1074.15 38.9447 1078.26 Q42.5413 1082.33 42.5413 1090.32 L42.5413 1098.4 L61.6384 1098.4 L61.6384 1104.83 L14.1184 1104.83 Z" fill="#000000" fill-rule="nonzero" fill-opacity="1" /><path clip-path="url(#clip820)" d="M31.465 1046.27 Q30.8921 1047.26 30.6375 1048.43 Q30.351 1049.58 30.351 1050.98 Q30.351 1055.95 33.5975 1058.62 Q36.8122 1061.26 42.8596 1061.26 L61.6384 1061.26 L61.6384 1067.15 L25.9905 1067.15 L25.9905 1061.26 L31.5287 1061.26 Q28.2821 1059.41 26.7225 1056.45 Q25.1311 1053.49 25.1311 1049.26 Q25.1311 1048.66 25.2266 1047.92 Q25.2903 1047.19 25.4494 1046.3 L31.465 1046.27 Z" fill="#000000" fill-rule="nonzero" fill-opacity="1" /><path clip-path="url(#clip820)" d="M42.3504 1011.07 L45.2149 1011.07 L45.2149 1037.99 Q51.2623 1037.61 54.4452 1034.37 Q57.5962 1031.09 57.5962 1025.26 Q57.5962 1021.89 56.7687 1018.74 Q55.9411 1015.55 54.2861 1012.44 L59.8242 1012.44 Q61.161 1015.59 61.8612 1018.9 Q62.5615 1022.21 62.5615 1025.61 Q62.5615 1034.14 57.5962 1039.14 Q52.631 1044.1 44.1646 1044.1 Q35.4117 1044.1 30.2873 1039.39 Q25.1311 1034.65 25.1311 1026.63 Q25.1311 1019.44 29.7781 1015.27 Q34.3932 1011.07 42.3504 1011.07 M40.6316 1016.92 Q35.8255 1016.99 32.9609 1019.63 Q30.0964 1022.24 30.0964 1026.57 Q30.0964 1031.47 32.8654 1034.43 Q35.6345 1037.36 40.6634 1037.8 L40.6316 1016.92 Z" fill="#000000" fill-rule="nonzero" fill-opacity="1" /><path clip-path="url(#clip820)" d="M25.9905 1005.66 L25.9905 999.45 L55.9093 988.31 L25.9905 977.17 L25.9905 970.963 L61.6384 984.331 L61.6384 992.288 L25.9905 1005.66 Z" fill="#000000" fill-rule="nonzero" fill-opacity="1" /><path clip-path="url(#clip820)" d="M43.719 946.678 Q43.719 953.776 45.3422 956.513 Q46.9655 959.25 50.8804 959.25 Q53.9996 959.25 55.8457 957.213 Q57.6599 955.144 57.6599 951.611 Q57.6599 946.742 54.2224 943.813 Q50.7531 940.853 45.0239 940.853 L43.719 940.853 L43.719 946.678 M41.3 934.997 L61.6384 934.997 L61.6384 940.853 L56.2276 940.853 Q59.4741 942.858 61.0337 945.85 Q62.5615 948.842 62.5615 953.171 Q62.5615 958.645 59.5059 961.892 Q56.4186 965.107 51.2623 965.107 Q45.2467 965.107 42.1912 961.096 Q39.1357 957.054 39.1357 949.065 L39.1357 940.853 L38.5628 940.853 Q34.5205 940.853 32.3244 943.527 Q30.0964 946.169 30.0964 950.975 Q30.0964 954.03 30.8284 956.927 Q31.5605 959.823 33.0246 962.497 L27.6137 962.497 Q26.3724 959.282 25.7677 956.258 Q25.1311 953.235 25.1311 950.37 Q25.1311 942.636 29.1415 938.816 Q33.1519 934.997 41.3 934.997 Z" fill="#000000" fill-rule="nonzero" fill-opacity="1" /><path clip-path="url(#clip820)" d="M12.1132 922.934 L12.1132 917.077 L61.6384 917.077 L61.6384 922.934 L12.1132 922.934 Z" fill="#000000" fill-rule="nonzero" fill-opacity="1" /><path clip-path="url(#clip820)" d="M42.3504 874.332 L45.2149 874.332 L45.2149 901.259 Q51.2623 900.877 54.4452 897.63 Q57.5962 894.352 57.5962 888.527 Q57.5962 885.153 56.7687 882.002 Q55.9411 878.819 54.2861 875.7 L59.8242 875.7 Q61.161 878.851 61.8612 882.161 Q62.5615 885.472 62.5615 888.877 Q62.5615 897.407 57.5962 902.404 Q52.631 907.37 44.1646 907.37 Q35.4117 907.37 30.2873 902.659 Q25.1311 897.917 25.1311 889.896 Q25.1311 882.702 29.7781 878.533 Q34.3932 874.332 42.3504 874.332 M40.6316 880.188 Q35.8255 880.252 32.9609 882.893 Q30.0964 885.503 30.0964 889.832 Q30.0964 894.734 32.8654 897.694 Q35.6345 900.622 40.6634 901.068 L40.6316 880.188 Z" fill="#000000" fill-rule="nonzero" fill-opacity="1" /><path clip-path="url(#clip820)" d="M40.1224 835.087 L61.6384 835.087 L61.6384 840.943 L40.3133 840.943 Q35.2526 840.943 32.7381 842.917 Q30.2237 844.89 30.2237 848.837 Q30.2237 853.579 33.2474 856.317 Q36.2711 859.054 41.491 859.054 L61.6384 859.054 L61.6384 864.942 L25.9905 864.942 L25.9905 859.054 L31.5287 859.054 Q28.314 856.953 26.7225 854.12 Q25.1311 851.256 25.1311 847.532 Q25.1311 841.389 28.9505 838.238 Q32.7381 835.087 40.1224 835.087 Z" fill="#000000" fill-rule="nonzero" fill-opacity="1" /><path clip-path="url(#clip820)" d="M27.3591 797.752 L32.8336 797.752 Q31.465 800.235 30.7966 802.749 Q30.0964 805.232 30.0964 807.778 Q30.0964 813.475 33.7248 816.626 Q37.3214 819.777 43.8463 819.777 Q50.3711 819.777 53.9996 816.626 Q57.5962 813.475 57.5962 807.778 Q57.5962 805.232 56.9278 802.749 Q56.2276 800.235 54.859 797.752 L60.2698 797.752 Q61.4156 800.203 61.9886 802.845 Q62.5615 805.455 62.5615 808.415 Q62.5615 816.467 57.5007 821.21 Q52.44 825.952 43.8463 825.952 Q35.1253 825.952 30.1282 821.178 Q25.1311 816.372 25.1311 808.033 Q25.1311 805.327 25.704 802.749 Q26.2451 800.171 27.3591 797.752 Z" fill="#000000" fill-rule="nonzero" fill-opacity="1" /><path clip-path="url(#clip820)" d="M42.3504 757.075 L45.2149 757.075 L45.2149 784.002 Q51.2623 783.62 54.4452 780.374 Q57.5962 777.095 57.5962 771.271 Q57.5962 767.897 56.7687 764.746 Q55.9411 761.563 54.2861 758.444 L59.8242 758.444 Q61.161 761.595 61.8612 764.905 Q62.5615 768.215 62.5615 771.621 Q62.5615 780.151 57.5962 785.148 Q52.631 790.113 44.1646 790.113 Q35.4117 790.113 30.2873 785.403 Q25.1311 780.66 25.1311 772.639 Q25.1311 765.446 29.7781 761.277 Q34.3932 757.075 42.3504 757.075 M40.6316 762.932 Q35.8255 762.995 32.9609 765.637 Q30.0964 768.247 30.0964 772.576 Q30.0964 777.477 32.8654 780.437 Q35.6345 783.366 40.6634 783.811 L40.6316 762.932 Z" fill="#000000" fill-rule="nonzero" fill-opacity="1" /><path clip-path="url(#clip820)" d="M793.174 12.096 L844.337 12.096 L844.337 18.9825 L822.867 18.9825 L822.867 72.576 L814.644 72.576 L814.644 18.9825 L793.174 18.9825 L793.174 12.096 Z" fill="#000000" fill-rule="nonzero" fill-opacity="1" /><path clip-path="url(#clip820)" d="M833.845 27.2059 L841.299 27.2059 L850.616 62.6108 L859.892 27.2059 L868.683 27.2059 L878 62.6108 L887.276 27.2059 L894.73 27.2059 L882.861 72.576 L874.07 72.576 L864.308 35.3887 L854.505 72.576 L845.714 72.576 L833.845 27.2059 Z" fill="#000000" fill-rule="nonzero" fill-opacity="1" /><path clip-path="url(#clip820)" d="M923.613 32.4315 Q917.618 32.4315 914.134 37.1306 Q910.65 41.7891 910.65 49.9314 Q910.65 58.0738 914.093 62.7728 Q917.577 67.4314 923.613 67.4314 Q929.568 67.4314 933.052 62.7323 Q936.535 58.0333 936.535 49.9314 Q936.535 41.8701 933.052 37.1711 Q929.568 32.4315 923.613 32.4315 M923.613 26.1121 Q933.335 26.1121 938.885 32.4315 Q944.435 38.7509 944.435 49.9314 Q944.435 61.0714 938.885 67.4314 Q933.335 73.7508 923.613 73.7508 Q913.85 73.7508 908.301 67.4314 Q902.791 61.0714 902.791 49.9314 Q902.791 38.7509 908.301 32.4315 Q913.85 26.1121 923.613 26.1121 Z" fill="#000000" fill-rule="nonzero" fill-opacity="1" /><path clip-path="url(#clip820)" d="M991.668 18.8205 L991.668 65.8515 L1001.55 65.8515 Q1014.07 65.8515 1019.86 60.1802 Q1025.7 54.509 1025.7 42.2752 Q1025.7 30.1225 1019.86 24.4918 Q1014.07 18.8205 1001.55 18.8205 L991.668 18.8205 M983.485 12.096 L1000.3 12.096 Q1017.88 12.096 1026.1 19.4281 Q1034.32 26.7198 1034.32 42.2752 Q1034.32 57.9117 1026.06 65.2439 Q1017.8 72.576 1000.3 72.576 L983.485 72.576 L983.485 12.096 Z" fill="#000000" fill-rule="nonzero" fill-opacity="1" /><path clip-path="url(#clip820)" d="M1047.04 27.2059 L1054.5 27.2059 L1054.5 72.576 L1047.04 72.576 L1047.04 27.2059 M1047.04 9.54393 L1054.5 9.54393 L1054.5 18.9825 L1047.04 18.9825 L1047.04 9.54393 Z" fill="#000000" fill-rule="nonzero" fill-opacity="1" /><path clip-path="url(#clip820)" d="M1099.02 28.5427 L1099.02 35.5912 Q1095.86 33.9709 1092.45 33.1607 Q1089.05 32.3505 1085.41 32.3505 Q1079.86 32.3505 1077.06 34.0519 Q1074.31 35.7533 1074.31 39.156 Q1074.31 41.7486 1076.29 43.2475 Q1078.28 44.7058 1084.27 46.0426 L1086.82 46.6097 Q1094.76 48.3111 1098.09 51.4303 Q1101.45 54.509 1101.45 60.0587 Q1101.45 66.3781 1096.42 70.0644 Q1091.44 73.7508 1082.69 73.7508 Q1079.05 73.7508 1075.08 73.0216 Q1071.15 72.3329 1066.77 70.9151 L1066.77 63.2184 Q1070.9 65.3654 1074.91 66.4591 Q1078.92 67.5124 1082.85 67.5124 Q1088.12 67.5124 1090.96 65.73 Q1093.79 63.9071 1093.79 60.6258 Q1093.79 57.5877 1091.73 55.9673 Q1089.7 54.3469 1082.77 52.8481 L1080.18 52.2405 Q1073.25 50.7821 1070.17 47.7845 Q1067.1 44.7463 1067.1 39.4801 Q1067.1 33.0797 1071.63 29.5959 Q1076.17 26.1121 1084.51 26.1121 Q1088.65 26.1121 1092.29 26.7198 Q1095.94 27.3274 1099.02 28.5427 Z" fill="#000000" fill-rule="nonzero" fill-opacity="1" /><path clip-path="url(#clip820)" d="M1152.12 48.0275 L1152.12 51.6733 L1117.85 51.6733 Q1118.34 59.3701 1122.47 63.421 Q1126.64 67.4314 1134.06 67.4314 Q1138.35 67.4314 1142.36 66.3781 Q1146.41 65.3249 1150.38 63.2184 L1150.38 70.267 Q1146.37 71.9684 1142.16 72.8596 Q1137.95 73.7508 1133.61 73.7508 Q1122.76 73.7508 1116.4 67.4314 Q1110.08 61.1119 1110.08 50.3365 Q1110.08 39.1965 1116.07 32.6746 Q1122.11 26.1121 1132.32 26.1121 Q1141.47 26.1121 1146.78 32.0264 Q1152.12 37.9003 1152.12 48.0275 M1144.67 45.84 Q1144.59 39.7232 1141.23 36.0774 Q1137.91 32.4315 1132.4 32.4315 Q1126.16 32.4315 1122.39 35.9558 Q1118.66 39.4801 1118.1 45.8805 L1144.67 45.84 Z" fill="#000000" fill-rule="nonzero" fill-opacity="1" /><path clip-path="url(#clip820)" d="M1184.98 49.7694 Q1175.94 49.7694 1172.46 51.8354 Q1168.98 53.9013 1168.98 58.8839 Q1168.98 62.8538 1171.57 65.2034 Q1174.2 67.5124 1178.7 67.5124 Q1184.9 67.5124 1188.62 63.1374 Q1192.39 58.7219 1192.39 51.4303 L1192.39 49.7694 L1184.98 49.7694 M1199.84 46.6907 L1199.84 72.576 L1192.39 72.576 L1192.39 65.6895 Q1189.84 69.8214 1186.03 71.8063 Q1182.22 73.7508 1176.71 73.7508 Q1169.75 73.7508 1165.61 69.8619 Q1161.52 65.9325 1161.52 59.3701 Q1161.52 51.7138 1166.63 47.825 Q1171.77 43.9361 1181.94 43.9361 L1192.39 43.9361 L1192.39 43.2069 Q1192.39 38.0623 1188.99 35.2672 Q1185.63 32.4315 1179.51 32.4315 Q1175.62 32.4315 1171.93 33.3632 Q1168.25 34.295 1164.84 36.1584 L1164.84 29.2718 Q1168.94 27.692 1172.78 26.9223 Q1176.63 26.1121 1180.28 26.1121 Q1190.12 26.1121 1194.98 31.2163 Q1199.84 36.3204 1199.84 46.6907 Z" fill="#000000" fill-rule="nonzero" fill-opacity="1" /><path clip-path="url(#clip820)" d="M1244.12 28.5427 L1244.12 35.5912 Q1240.96 33.9709 1237.56 33.1607 Q1234.16 32.3505 1230.51 32.3505 Q1224.96 32.3505 1222.16 34.0519 Q1219.41 35.7533 1219.41 39.156 Q1219.41 41.7486 1221.39 43.2475 Q1223.38 44.7058 1229.38 46.0426 L1231.93 46.6097 Q1239.87 48.3111 1243.19 51.4303 Q1246.55 54.509 1246.55 60.0587 Q1246.55 66.3781 1241.53 70.0644 Q1236.55 73.7508 1227.8 73.7508 Q1224.15 73.7508 1220.18 73.0216 Q1216.25 72.3329 1211.88 70.9151 L1211.88 63.2184 Q1216.01 65.3654 1220.02 66.4591 Q1224.03 67.5124 1227.96 67.5124 Q1233.22 67.5124 1236.06 65.73 Q1238.89 63.9071 1238.89 60.6258 Q1238.89 57.5877 1236.83 55.9673 Q1234.8 54.3469 1227.88 52.8481 L1225.28 52.2405 Q1218.36 50.7821 1215.28 47.7845 Q1212.2 44.7463 1212.2 39.4801 Q1212.2 33.0797 1216.74 29.5959 Q1221.27 26.1121 1229.62 26.1121 Q1233.75 26.1121 1237.4 26.7198 Q1241.04 27.3274 1244.12 28.5427 Z" fill="#000000" fill-rule="nonzero" fill-opacity="1" /><path clip-path="url(#clip820)" d="M1297.23 48.0275 L1297.23 51.6733 L1262.96 51.6733 Q1263.44 59.3701 1267.58 63.421 Q1271.75 67.4314 1279.16 67.4314 Q1283.45 67.4314 1287.47 66.3781 Q1291.52 65.3249 1295.49 63.2184 L1295.49 70.267 Q1291.48 71.9684 1287.26 72.8596 Q1283.05 73.7508 1278.72 73.7508 Q1267.86 73.7508 1261.5 67.4314 Q1255.18 61.1119 1255.18 50.3365 Q1255.18 39.1965 1261.17 32.6746 Q1267.21 26.1121 1277.42 26.1121 Q1286.57 26.1121 1291.88 32.0264 Q1297.23 37.9003 1297.23 48.0275 M1289.77 45.84 Q1289.69 39.7232 1286.33 36.0774 Q1283.01 32.4315 1277.5 32.4315 Q1271.26 32.4315 1267.49 35.9558 Q1263.77 39.4801 1263.2 45.8805 L1289.77 45.84 Z" fill="#000000" fill-rule="nonzero" fill-opacity="1" /><path clip-path="url(#clip820)" d="M1338.39 28.5427 L1338.39 35.5912 Q1335.23 33.9709 1331.82 33.1607 Q1328.42 32.3505 1324.77 32.3505 Q1319.22 32.3505 1316.43 34.0519 Q1313.67 35.7533 1313.67 39.156 Q1313.67 41.7486 1315.66 43.2475 Q1317.64 44.7058 1323.64 46.0426 L1326.19 46.6097 Q1334.13 48.3111 1337.45 51.4303 Q1340.82 54.509 1340.82 60.0587 Q1340.82 66.3781 1335.79 70.0644 Q1330.81 73.7508 1322.06 73.7508 Q1318.41 73.7508 1314.44 73.0216 Q1310.51 72.3329 1306.14 70.9151 L1306.14 63.2184 Q1310.27 65.3654 1314.28 66.4591 Q1318.29 67.5124 1322.22 67.5124 Q1327.49 67.5124 1330.32 65.73 Q1333.16 63.9071 1333.16 60.6258 Q1333.16 57.5877 1331.09 55.9673 Q1329.07 54.3469 1322.14 52.8481 L1319.55 52.2405 Q1312.62 50.7821 1309.54 47.7845 Q1306.46 44.7463 1306.46 39.4801 Q1306.46 33.0797 1311 29.5959 Q1315.54 26.1121 1323.88 26.1121 Q1328.01 26.1121 1331.66 26.7198 Q1335.31 27.3274 1338.39 28.5427 Z" fill="#000000" fill-rule="nonzero" fill-opacity="1" /><path clip-path="url(#clip820)" d="M1379.06 27.2059 L1386.51 27.2059 L1386.51 72.576 L1379.06 72.576 L1379.06 27.2059 M1379.06 9.54393 L1386.51 9.54393 L1386.51 18.9825 L1379.06 18.9825 L1379.06 9.54393 Z" fill="#000000" fill-rule="nonzero" fill-opacity="1" /><path clip-path="url(#clip820)" d="M1439.82 45.1919 L1439.82 72.576 L1432.37 72.576 L1432.37 45.4349 Q1432.37 38.994 1429.85 35.7938 Q1427.34 32.5936 1422.32 32.5936 Q1416.28 32.5936 1412.8 36.4419 Q1409.32 40.2903 1409.32 46.9338 L1409.32 72.576 L1401.82 72.576 L1401.82 27.2059 L1409.32 27.2059 L1409.32 34.2544 Q1411.99 30.163 1415.6 28.1376 Q1419.24 26.1121 1423.98 26.1121 Q1431.8 26.1121 1435.81 30.9732 Q1439.82 35.7938 1439.82 45.1919 Z" fill="#000000" fill-rule="nonzero" fill-opacity="1" /><path clip-path="url(#clip820)" d="M1505.93 17.6457 Q1497.02 17.6457 1491.75 24.2892 Q1486.53 30.9327 1486.53 42.3968 Q1486.53 53.8203 1491.75 60.4638 Q1497.02 67.1073 1505.93 67.1073 Q1514.84 67.1073 1520.03 60.4638 Q1525.25 53.8203 1525.25 42.3968 Q1525.25 30.9327 1520.03 24.2892 Q1514.84 17.6457 1505.93 17.6457 M1505.93 11.0023 Q1518.65 11.0023 1526.27 19.5497 Q1533.88 28.0566 1533.88 42.3968 Q1533.88 56.6965 1526.27 65.2439 Q1518.65 73.7508 1505.93 73.7508 Q1493.17 73.7508 1485.51 65.2439 Q1477.9 56.737 1477.9 42.3968 Q1477.9 28.0566 1485.51 19.5497 Q1493.17 11.0023 1505.93 11.0023 Z" fill="#000000" fill-rule="nonzero" fill-opacity="1" /><path clip-path="url(#clip820)" d="M1584.07 45.1919 L1584.07 72.576 L1576.62 72.576 L1576.62 45.4349 Q1576.62 38.994 1574.11 35.7938 Q1571.6 32.5936 1566.57 32.5936 Q1560.54 32.5936 1557.05 36.4419 Q1553.57 40.2903 1553.57 46.9338 L1553.57 72.576 L1546.07 72.576 L1546.07 27.2059 L1553.57 27.2059 L1553.57 34.2544 Q1556.24 30.163 1559.85 28.1376 Q1563.49 26.1121 1568.23 26.1121 Q1576.05 26.1121 1580.06 30.9732 Q1584.07 35.7938 1584.07 45.1919 Z" fill="#000000" fill-rule="nonzero" fill-opacity="1" /><path clip-path="url(#clip820)" d="M1637.75 48.0275 L1637.75 51.6733 L1603.48 51.6733 Q1603.96 59.3701 1608.09 63.421 Q1612.27 67.4314 1619.68 67.4314 Q1623.97 67.4314 1627.98 66.3781 Q1632.04 65.3249 1636.01 63.2184 L1636.01 70.267 Q1631.99 71.9684 1627.78 72.8596 Q1623.57 73.7508 1619.23 73.7508 Q1608.38 73.7508 1602.02 67.4314 Q1595.7 61.1119 1595.7 50.3365 Q1595.7 39.1965 1601.69 32.6746 Q1607.73 26.1121 1617.94 26.1121 Q1627.09 26.1121 1632.4 32.0264 Q1637.75 37.9003 1637.75 48.0275 M1630.29 45.84 Q1630.21 39.7232 1626.85 36.0774 Q1623.53 32.4315 1618.02 32.4315 Q1611.78 32.4315 1608.01 35.9558 Q1604.29 39.4801 1603.72 45.8805 L1630.29 45.84 Z" fill="#000000" fill-rule="nonzero" fill-opacity="1" /><path clip-path="url(#clip820)" d="M1712.93 14.0809 L1712.93 22.0612 Q1708.27 19.8332 1704.14 18.7395 Q1700.01 17.6457 1696.16 17.6457 Q1689.48 17.6457 1685.83 20.2383 Q1682.23 22.8309 1682.23 27.611 Q1682.23 31.6214 1684.62 33.6873 Q1687.05 35.7128 1693.77 36.9686 L1698.71 37.9813 Q1707.87 39.7232 1712.2 44.1387 Q1716.58 48.5136 1716.58 55.8863 Q1716.58 64.6767 1710.66 69.2137 Q1704.79 73.7508 1693.41 73.7508 Q1689.11 73.7508 1684.25 72.7785 Q1679.43 71.8063 1674.25 69.9024 L1674.25 61.4765 Q1679.23 64.2716 1684.01 65.6895 Q1688.79 67.1073 1693.41 67.1073 Q1700.41 67.1073 1704.22 64.3527 Q1708.03 61.598 1708.03 56.4939 Q1708.03 52.0379 1705.28 49.5264 Q1702.56 47.0148 1696.32 45.759 L1691.34 44.7868 Q1682.19 42.9639 1678.09 39.075 Q1674 35.1862 1674 28.2591 Q1674 20.2383 1679.63 15.6203 Q1685.3 11.0023 1695.23 11.0023 Q1699.48 11.0023 1703.9 11.7719 Q1708.31 12.5416 1712.93 14.0809 Z" fill="#000000" fill-rule="nonzero" fill-opacity="1" /><path clip-path="url(#clip820)" d="M1729.01 27.2059 L1736.47 27.2059 L1736.47 72.576 L1729.01 72.576 L1729.01 27.2059 M1729.01 9.54393 L1736.47 9.54393 L1736.47 18.9825 L1729.01 18.9825 L1729.01 9.54393 Z" fill="#000000" fill-rule="nonzero" fill-opacity="1" /><path clip-path="url(#clip820)" d="M1787.39 35.9153 Q1790.18 30.8922 1794.07 28.5022 Q1797.96 26.1121 1803.23 26.1121 Q1810.32 26.1121 1814.16 31.0947 Q1818.01 36.0368 1818.01 45.1919 L1818.01 72.576 L1810.52 72.576 L1810.52 45.4349 Q1810.52 38.913 1808.21 35.7533 Q1805.9 32.5936 1801.16 32.5936 Q1795.37 32.5936 1792.01 36.4419 Q1788.64 40.2903 1788.64 46.9338 L1788.64 72.576 L1781.15 72.576 L1781.15 45.4349 Q1781.15 38.8725 1778.84 35.7533 Q1776.53 32.5936 1771.71 32.5936 Q1766 32.5936 1762.64 36.4824 Q1759.27 40.3308 1759.27 46.9338 L1759.27 72.576 L1751.78 72.576 L1751.78 27.2059 L1759.27 27.2059 L1759.27 34.2544 Q1761.83 30.082 1765.39 28.0971 Q1768.96 26.1121 1773.86 26.1121 Q1778.8 26.1121 1782.24 28.6237 Q1785.73 31.1352 1787.39 35.9153 Z" fill="#000000" fill-rule="nonzero" fill-opacity="1" /><path clip-path="url(#clip820)" d="M1832.11 54.671 L1832.11 27.2059 L1839.56 27.2059 L1839.56 54.3874 Q1839.56 60.8284 1842.07 64.0691 Q1844.59 67.2693 1849.61 67.2693 Q1855.65 67.2693 1859.13 63.421 Q1862.65 59.5726 1862.65 52.9291 L1862.65 27.2059 L1870.11 27.2059 L1870.11 72.576 L1862.65 72.576 L1862.65 65.6084 Q1859.94 69.7404 1856.33 71.7658 Q1852.77 73.7508 1848.03 73.7508 Q1840.21 73.7508 1836.16 68.8897 Q1832.11 64.0286 1832.11 54.671 M1850.86 26.1121 L1850.86 26.1121 Z" fill="#000000" fill-rule="nonzero" fill-opacity="1" /><path clip-path="url(#clip820)" d="M1885.46 9.54393 L1892.91 9.54393 L1892.91 72.576 L1885.46 72.576 L1885.46 9.54393 Z" fill="#000000" fill-rule="nonzero" fill-opacity="1" /><path clip-path="url(#clip820)" d="M1929.13 49.7694 Q1920.09 49.7694 1916.61 51.8354 Q1913.13 53.9013 1913.13 58.8839 Q1913.13 62.8538 1915.72 65.2034 Q1918.35 67.5124 1922.85 67.5124 Q1929.05 67.5124 1932.77 63.1374 Q1936.54 58.7219 1936.54 51.4303 L1936.54 49.7694 L1929.13 49.7694 M1944 46.6907 L1944 72.576 L1936.54 72.576 L1936.54 65.6895 Q1933.99 69.8214 1930.18 71.8063 Q1926.37 73.7508 1920.86 73.7508 Q1913.9 73.7508 1909.77 69.8619 Q1905.67 65.9325 1905.67 59.3701 Q1905.67 51.7138 1910.78 47.825 Q1915.92 43.9361 1926.09 43.9361 L1936.54 43.9361 L1936.54 43.2069 Q1936.54 38.0623 1933.14 35.2672 Q1929.78 32.4315 1923.66 32.4315 Q1919.77 32.4315 1916.08 33.3632 Q1912.4 34.295 1909 36.1584 L1909 29.2718 Q1913.09 27.692 1916.94 26.9223 Q1920.78 26.1121 1924.43 26.1121 Q1934.27 26.1121 1939.13 31.2163 Q1944 36.3204 1944 46.6907 Z" fill="#000000" fill-rule="nonzero" fill-opacity="1" /><path clip-path="url(#clip820)" d="M1966.72 14.324 L1966.72 27.2059 L1982.07 27.2059 L1982.07 32.9987 L1966.72 32.9987 L1966.72 57.6282 Q1966.72 63.1779 1968.22 64.7578 Q1969.76 66.3376 1974.42 66.3376 L1982.07 66.3376 L1982.07 72.576 L1974.42 72.576 Q1965.79 72.576 1962.51 69.3758 Q1959.23 66.1351 1959.23 57.6282 L1959.23 32.9987 L1953.76 32.9987 L1953.76 27.2059 L1959.23 27.2059 L1959.23 14.324 L1966.72 14.324 Z" fill="#000000" fill-rule="nonzero" fill-opacity="1" /><path clip-path="url(#clip820)" d="M1991.88 27.2059 L1999.33 27.2059 L1999.33 72.576 L1991.88 72.576 L1991.88 27.2059 M1991.88 9.54393 L1999.33 9.54393 L1999.33 18.9825 L1991.88 18.9825 L1991.88 9.54393 Z" fill="#000000" fill-rule="nonzero" fill-opacity="1" /><path clip-path="url(#clip820)" d="M2032.51 32.4315 Q2026.51 32.4315 2023.03 37.1306 Q2019.54 41.7891 2019.54 49.9314 Q2019.54 58.0738 2022.99 62.7728 Q2026.47 67.4314 2032.51 67.4314 Q2038.46 67.4314 2041.95 62.7323 Q2045.43 58.0333 2045.43 49.9314 Q2045.43 41.8701 2041.95 37.1711 Q2038.46 32.4315 2032.51 32.4315 M2032.51 26.1121 Q2042.23 26.1121 2047.78 32.4315 Q2053.33 38.7509 2053.33 49.9314 Q2053.33 61.0714 2047.78 67.4314 Q2042.23 73.7508 2032.51 73.7508 Q2022.74 73.7508 2017.2 67.4314 Q2011.69 61.0714 2011.69 49.9314 Q2011.69 38.7509 2017.2 32.4315 Q2022.74 26.1121 2032.51 26.1121 Z" fill="#000000" fill-rule="nonzero" fill-opacity="1" /><path clip-path="url(#clip820)" d="M2103.4 45.1919 L2103.4 72.576 L2095.94 72.576 L2095.94 45.4349 Q2095.94 38.994 2093.43 35.7938 Q2090.92 32.5936 2085.9 32.5936 Q2079.86 32.5936 2076.38 36.4419 Q2072.9 40.2903 2072.9 46.9338 L2072.9 72.576 L2065.4 72.576 L2065.4 27.2059 L2072.9 27.2059 L2072.9 34.2544 Q2075.57 30.163 2079.17 28.1376 Q2082.82 26.1121 2087.56 26.1121 Q2095.38 26.1121 2099.39 30.9732 Q2103.4 35.7938 2103.4 45.1919 Z" fill="#000000" fill-rule="nonzero" fill-opacity="1" /><polyline clip-path="url(#clip821)" style="stroke:#ff0000; stroke-linecap:round; stroke-linejoin:round; stroke-width:8; stroke-opacity:1; fill:none" points="323.315,1551.67 379.563,1508.86 435.812,1483.18 492.06,1448.93 548.309,1406.12 604.557,1346.19 660.806,1303.38 717.055,1200.64 773.303,1106.47 829.552,1003.73 885.8,841.058 942.049,721.196 998.298,532.841 1054.55,387.294 1110.79,267.432 1167.04,173.254 1223.29,216.062 1279.54,233.185 1335.79,173.254 1392.04,233.185 1448.29,310.24 1504.53,507.156 1560.78,627.018 1617.03,798.25 1673.28,909.551 1729.53,1012.29 1785.78,1080.78 1842.03,1183.52 1898.27,1243.45 1954.52,1329.07 2010.77,1431.81 2067.02,1466.05 2123.27,1525.98 2179.52,1577.35 2235.77,1585.92 2292.01,1611.6 2348.26,1637.29 2404.51,1654.41 2460.76,1662.97 2517.01,1662.97 2573.26,1654.41 "/>
<polyline clip-path="url(#clip821)" style="stroke:#0000ff; stroke-linecap:round; stroke-linejoin:round; stroke-width:8; stroke-opacity:1; fill:none" points="323.315,1440.37 379.563,1303.38 435.812,1166.4 492.06,1260.58 548.309,1277.7 604.557,1269.14 660.806,1311.95 717.055,1320.51 773.303,1260.58 829.552,1269.14 885.8,1209.21 942.049,1320.51 998.298,1286.26 1054.55,1371.88 1110.79,1354.75 1167.04,1414.68 1223.29,1423.25 1279.54,1474.62 1335.79,1517.42 1392.04,1585.92 1448.29,1637.29 1504.53,1671.53 1560.78,1680.09 1617.03,1688.65 1673.28,1688.65 1729.53,1688.65 1785.78,1688.65 1842.03,1688.65 1898.27,1688.65 1954.52,1688.65 2010.77,1688.65 2067.02,1688.65 2123.27,1688.65 2179.52,1688.65 2235.77,1688.65 2292.01,1688.65 2348.26,1688.65 2404.51,1688.65 2460.76,1688.65 2517.01,1688.65 2573.26,1688.65 "/>
<path clip-path="url(#clip820)" d="M2097.9 336.856 L2561.26 336.856 L2561.26 181.336 L2097.9 181.336  Z" fill="#ffffff" fill-rule="evenodd" fill-opacity="1"/>
<polyline clip-path="url(#clip820)" style="stroke:#000000; stroke-linecap:round; stroke-linejoin:round; stroke-width:4; stroke-opacity:1; fill:none" points="2097.9,336.856 2561.26,336.856 2561.26,181.336 2097.9,181.336 2097.9,336.856 "/>
<polyline clip-path="url(#clip820)" style="stroke:#ff0000; stroke-linecap:round; stroke-linejoin:round; stroke-width:8; stroke-opacity:1; fill:none" points="2124.4,233.176 2283.4,233.176 "/>
<path clip-path="url(#clip820)" d="M2309.9 215.896 L2329.76 215.896 L2329.76 219.831 L2314.57 219.831 L2314.57 230.017 L2328.28 230.017 L2328.28 233.952 L2314.57 233.952 L2314.57 250.456 L2309.9 250.456 L2309.9 215.896 Z" fill="#000000" fill-rule="nonzero" fill-opacity="1" /><path clip-path="url(#clip820)" d="M2336.98 214.438 L2341.24 214.438 L2341.24 250.456 L2336.98 250.456 L2336.98 214.438 Z" fill="#000000" fill-rule="nonzero" fill-opacity="1" /><path clip-path="url(#clip820)" d="M2349.71 240.225 L2349.71 224.531 L2353.97 224.531 L2353.97 240.063 Q2353.97 243.743 2355.41 245.595 Q2356.84 247.424 2359.71 247.424 Q2363.16 247.424 2365.15 245.225 Q2367.17 243.026 2367.17 239.229 L2367.17 224.531 L2371.43 224.531 L2371.43 250.456 L2367.17 250.456 L2367.17 246.475 Q2365.62 248.836 2363.56 249.993 Q2361.52 251.128 2358.81 251.128 Q2354.34 251.128 2352.03 248.35 Q2349.71 245.572 2349.71 240.225 M2360.43 223.906 L2360.43 223.906 Z" fill="#000000" fill-rule="nonzero" fill-opacity="1" /><path clip-path="url(#clip820)" d="M2405.5 214.484 Q2402.4 219.808 2400.89 225.017 Q2399.39 230.225 2399.39 235.572 Q2399.39 240.919 2400.89 246.174 Q2402.42 251.405 2405.5 256.706 L2401.8 256.706 Q2398.32 251.266 2396.59 246.012 Q2394.88 240.757 2394.88 235.572 Q2394.88 230.41 2396.59 225.179 Q2398.3 219.947 2401.8 214.484 L2405.5 214.484 Z" fill="#000000" fill-rule="nonzero" fill-opacity="1" /><path clip-path="url(#clip820)" d="M2434.67 217.031 L2434.67 221.591 Q2432 220.318 2429.64 219.693 Q2427.28 219.068 2425.08 219.068 Q2421.26 219.068 2419.18 220.549 Q2417.12 222.031 2417.12 224.762 Q2417.12 227.054 2418.49 228.234 Q2419.87 229.392 2423.72 230.109 L2426.54 230.688 Q2431.77 231.683 2434.25 234.206 Q2436.75 236.706 2436.75 240.919 Q2436.75 245.942 2433.37 248.535 Q2430.01 251.128 2423.51 251.128 Q2421.06 251.128 2418.28 250.572 Q2415.52 250.016 2412.56 248.929 L2412.56 244.114 Q2415.41 245.711 2418.14 246.521 Q2420.87 247.331 2423.51 247.331 Q2427.51 247.331 2429.69 245.757 Q2431.87 244.183 2431.87 241.267 Q2431.87 238.72 2430.29 237.285 Q2428.74 235.85 2425.18 235.132 L2422.33 234.577 Q2417.1 233.535 2414.76 231.313 Q2412.42 229.091 2412.42 225.132 Q2412.42 220.549 2415.64 217.91 Q2418.88 215.271 2424.55 215.271 Q2426.98 215.271 2429.5 215.711 Q2432.03 216.151 2434.67 217.031 Z" fill="#000000" fill-rule="nonzero" fill-opacity="1" /><path clip-path="url(#clip820)" d="M2444.04 215.896 L2448.72 215.896 L2448.72 250.456 L2444.04 250.456 L2444.04 215.896 Z" fill="#000000" fill-rule="nonzero" fill-opacity="1" /><path clip-path="url(#clip820)" d="M2474.41 234.253 Q2475.92 234.762 2477.33 236.429 Q2478.76 238.095 2480.2 241.012 L2484.94 250.456 L2479.92 250.456 L2475.5 241.591 Q2473.79 238.118 2472.17 236.984 Q2470.57 235.85 2467.79 235.85 L2462.7 235.85 L2462.7 250.456 L2458.02 250.456 L2458.02 215.896 L2468.58 215.896 Q2474.5 215.896 2477.42 218.373 Q2480.34 220.85 2480.34 225.85 Q2480.34 229.114 2478.81 231.267 Q2477.31 233.419 2474.41 234.253 M2462.7 219.739 L2462.7 232.007 L2468.58 232.007 Q2471.96 232.007 2473.67 230.456 Q2475.41 228.882 2475.41 225.85 Q2475.41 222.818 2473.67 221.29 Q2471.96 219.739 2468.58 219.739 L2462.7 219.739 Z" fill="#000000" fill-rule="nonzero" fill-opacity="1" /><path clip-path="url(#clip820)" d="M2490.11 214.484 L2493.81 214.484 Q2497.28 219.947 2498.99 225.179 Q2500.73 230.41 2500.73 235.572 Q2500.73 240.757 2498.99 246.012 Q2497.28 251.266 2493.81 256.706 L2490.11 256.706 Q2493.18 251.405 2494.69 246.174 Q2496.22 240.919 2496.22 235.572 Q2496.22 230.225 2494.69 225.017 Q2493.18 219.808 2490.11 214.484 Z" fill="#000000" fill-rule="nonzero" fill-opacity="1" /><polyline clip-path="url(#clip820)" style="stroke:#0000ff; stroke-linecap:round; stroke-linejoin:round; stroke-width:8; stroke-opacity:1; fill:none" points="2124.4,285.016 2283.4,285.016 "/>
<path clip-path="url(#clip820)" d="M2337.77 270.398 L2337.77 275.329 Q2335.41 273.13 2332.72 272.042 Q2330.06 270.954 2327.05 270.954 Q2321.13 270.954 2317.98 274.588 Q2314.83 278.199 2314.83 285.051 Q2314.83 291.88 2317.98 295.514 Q2321.13 299.125 2327.05 299.125 Q2330.06 299.125 2332.72 298.037 Q2335.41 296.949 2337.77 294.75 L2337.77 299.634 Q2335.32 301.301 2332.56 302.134 Q2329.83 302.968 2326.77 302.968 Q2318.93 302.968 2314.41 298.176 Q2309.9 293.361 2309.9 285.051 Q2309.9 276.718 2314.41 271.926 Q2318.93 267.111 2326.77 267.111 Q2329.88 267.111 2332.61 267.945 Q2335.36 268.755 2337.77 270.398 Z" fill="#000000" fill-rule="nonzero" fill-opacity="1" /><path clip-path="url(#clip820)" d="M2354.85 279.357 Q2351.43 279.357 2349.44 282.042 Q2347.44 284.704 2347.44 289.357 Q2347.44 294.009 2349.41 296.694 Q2351.4 299.356 2354.85 299.356 Q2358.25 299.356 2360.25 296.671 Q2362.24 293.986 2362.24 289.357 Q2362.24 284.75 2360.25 282.065 Q2358.25 279.357 2354.85 279.357 M2354.85 275.746 Q2360.41 275.746 2363.58 279.357 Q2366.75 282.968 2366.75 289.357 Q2366.75 295.722 2363.58 299.356 Q2360.41 302.968 2354.85 302.968 Q2349.27 302.968 2346.1 299.356 Q2342.95 295.722 2342.95 289.357 Q2342.95 282.968 2346.1 279.357 Q2349.27 275.746 2354.85 275.746 Z" fill="#000000" fill-rule="nonzero" fill-opacity="1" /><path clip-path="url(#clip820)" d="M2373.81 266.278 L2378.07 266.278 L2378.07 302.296 L2373.81 302.296 L2373.81 266.278 Z" fill="#000000" fill-rule="nonzero" fill-opacity="1" /><path clip-path="url(#clip820)" d="M2404.04 280.306 L2404.04 266.278 L2408.3 266.278 L2408.3 302.296 L2404.04 302.296 L2404.04 298.407 Q2402.7 300.722 2400.64 301.856 Q2398.6 302.968 2395.73 302.968 Q2391.03 302.968 2388.07 299.218 Q2385.13 295.468 2385.13 289.357 Q2385.13 283.245 2388.07 279.495 Q2391.03 275.746 2395.73 275.746 Q2398.6 275.746 2400.64 276.88 Q2402.7 277.991 2404.04 280.306 M2389.53 289.357 Q2389.53 294.056 2391.45 296.741 Q2393.39 299.403 2396.77 299.403 Q2400.15 299.403 2402.1 296.741 Q2404.04 294.056 2404.04 289.357 Q2404.04 284.657 2402.1 281.995 Q2400.15 279.31 2396.77 279.31 Q2393.39 279.31 2391.45 281.995 Q2389.53 284.657 2389.53 289.357 Z" fill="#000000" fill-rule="nonzero" fill-opacity="1" /><path clip-path="url(#clip820)" d="M2442.37 266.324 Q2439.27 271.648 2437.77 276.857 Q2436.26 282.065 2436.26 287.412 Q2436.26 292.759 2437.77 298.014 Q2439.3 303.245 2442.37 308.546 L2438.67 308.546 Q2435.2 303.106 2433.46 297.852 Q2431.75 292.597 2431.75 287.412 Q2431.75 282.25 2433.46 277.019 Q2435.18 271.787 2438.67 266.324 L2442.37 266.324 Z" fill="#000000" fill-rule="nonzero" fill-opacity="1" /><path clip-path="url(#clip820)" d="M2471.54 268.871 L2471.54 273.431 Q2468.88 272.158 2466.52 271.533 Q2464.16 270.908 2461.96 270.908 Q2458.14 270.908 2456.06 272.389 Q2454 273.871 2454 276.602 Q2454 278.894 2455.36 280.074 Q2456.75 281.232 2460.59 281.949 L2463.42 282.528 Q2468.65 283.523 2471.12 286.046 Q2473.62 288.546 2473.62 292.759 Q2473.62 297.782 2470.25 300.375 Q2466.89 302.968 2460.38 302.968 Q2457.93 302.968 2455.15 302.412 Q2452.4 301.856 2449.43 300.769 L2449.43 295.954 Q2452.28 297.551 2455.01 298.361 Q2457.75 299.171 2460.38 299.171 Q2464.39 299.171 2466.56 297.597 Q2468.74 296.023 2468.74 293.107 Q2468.74 290.56 2467.17 289.125 Q2465.62 287.69 2462.05 286.972 L2459.2 286.417 Q2453.97 285.375 2451.63 283.153 Q2449.3 280.931 2449.3 276.972 Q2449.3 272.389 2452.51 269.75 Q2455.75 267.111 2461.43 267.111 Q2463.86 267.111 2466.38 267.551 Q2468.9 267.991 2471.54 268.871 Z" fill="#000000" fill-rule="nonzero" fill-opacity="1" /><path clip-path="url(#clip820)" d="M2480.92 267.736 L2485.59 267.736 L2485.59 302.296 L2480.92 302.296 L2480.92 267.736 Z" fill="#000000" fill-rule="nonzero" fill-opacity="1" /><path clip-path="url(#clip820)" d="M2515.62 268.871 L2515.62 273.431 Q2512.95 272.158 2510.59 271.533 Q2508.23 270.908 2506.03 270.908 Q2502.21 270.908 2500.13 272.389 Q2498.07 273.871 2498.07 276.602 Q2498.07 278.894 2499.43 280.074 Q2500.82 281.232 2504.67 281.949 L2507.49 282.528 Q2512.72 283.523 2515.2 286.046 Q2517.7 288.546 2517.7 292.759 Q2517.7 297.782 2514.32 300.375 Q2510.96 302.968 2504.46 302.968 Q2502 302.968 2499.23 302.412 Q2496.47 301.856 2493.51 300.769 L2493.51 295.954 Q2496.36 297.551 2499.09 298.361 Q2501.82 299.171 2504.46 299.171 Q2508.46 299.171 2510.64 297.597 Q2512.81 296.023 2512.81 293.107 Q2512.81 290.56 2511.24 289.125 Q2509.69 287.69 2506.12 286.972 L2503.28 286.417 Q2498.05 285.375 2495.71 283.153 Q2493.37 280.931 2493.37 276.972 Q2493.37 272.389 2496.59 269.75 Q2499.83 267.111 2505.5 267.111 Q2507.93 267.111 2510.45 267.551 Q2512.98 267.991 2515.62 268.871 Z" fill="#000000" fill-rule="nonzero" fill-opacity="1" /><path clip-path="url(#clip820)" d="M2524.13 266.324 L2527.84 266.324 Q2531.31 271.787 2533.02 277.019 Q2534.76 282.25 2534.76 287.412 Q2534.76 292.597 2533.02 297.852 Q2531.31 303.106 2527.84 308.546 L2524.13 308.546 Q2527.21 303.245 2528.72 298.014 Q2530.24 292.759 2530.24 287.412 Q2530.24 282.065 2528.72 276.857 Q2527.21 271.648 2524.13 266.324 Z" fill="#000000" fill-rule="nonzero" fill-opacity="1" /></svg>
