<?xml version="1.0" encoding="utf-8"?>
<svg xmlns="http://www.w3.org/2000/svg" xmlns:xlink="http://www.w3.org/1999/xlink" width="672" height="480" viewBox="0 0 2688 1920">
<defs>
  <clipPath id="clip610">
    <rect x="0" y="0" width="2688" height="1920"/>
  </clipPath>
</defs>
<path clip-path="url(#clip610)" d="M0 1920 L2688 1920 L2688 -4.26326e-14 L0 -4.26326e-14  Z" fill="#ffffff" fill-rule="evenodd" fill-opacity="1"/>
<defs>
  <clipPath id="clip611">
    <rect x="268" y="127" width="2373" height="1607"/>
  </clipPath>
</defs>
<path clip-path="url(#clip610)" d="M268.826 1734.12 L2640.76 1734.12 L2640.76 127.792 L268.826 127.792  Z" fill="#ffffff" fill-rule="evenodd" fill-opacity="1"/>
<polyline clip-path="url(#clip611)" style="stroke:#000000; stroke-linecap:round; stroke-linejoin:round; stroke-width:2; stroke-opacity:0.1; fill:none" points="335.956,1734.12 335.956,127.792 "/>
<polyline clip-path="url(#clip611)" style="stroke:#000000; stroke-linecap:round; stroke-linejoin:round; stroke-width:2; stroke-opacity:0.1; fill:none" points="895.373,1734.12 895.373,127.792 "/>
<polyline clip-path="url(#clip611)" style="stroke:#000000; stroke-linecap:round; stroke-linejoin:round; stroke-width:2; stroke-opacity:0.1; fill:none" points="1454.79,1734.12 1454.79,127.792 "/>
<polyline clip-path="url(#clip611)" style="stroke:#000000; stroke-linecap:round; stroke-linejoin:round; stroke-width:2; stroke-opacity:0.1; fill:none" points="2014.21,1734.12 2014.21,127.792 "/>
<polyline clip-path="url(#clip611)" style="stroke:#000000; stroke-linecap:round; stroke-linejoin:round; stroke-width:2; stroke-opacity:0.1; fill:none" points="2573.63,1734.12 2573.63,127.792 "/>
<polyline clip-path="url(#clip611)" style="stroke:#000000; stroke-linecap:round; stroke-linejoin:round; stroke-width:2; stroke-opacity:0.1; fill:none" points="268.826,1688.65 2640.76,1688.65 "/>
<polyline clip-path="url(#clip611)" style="stroke:#000000; stroke-linecap:round; stroke-linejoin:round; stroke-width:2; stroke-opacity:0.1; fill:none" points="268.826,1304.43 2640.76,1304.43 "/>
<polyline clip-path="url(#clip611)" style="stroke:#000000; stroke-linecap:round; stroke-linejoin:round; stroke-width:2; stroke-opacity:0.1; fill:none" points="268.826,920.196 2640.76,920.196 "/>
<polyline clip-path="url(#clip611)" style="stroke:#000000; stroke-linecap:round; stroke-linejoin:round; stroke-width:2; stroke-opacity:0.1; fill:none" points="268.826,535.967 2640.76,535.967 "/>
<polyline clip-path="url(#clip611)" style="stroke:#000000; stroke-linecap:round; stroke-linejoin:round; stroke-width:2; stroke-opacity:0.1; fill:none" points="268.826,151.737 2640.76,151.737 "/>
<polyline clip-path="url(#clip610)" style="stroke:#000000; stroke-linecap:round; stroke-linejoin:round; stroke-width:4; stroke-opacity:1; fill:none" points="268.826,1734.12 2640.76,1734.12 "/>
<polyline clip-path="url(#clip610)" style="stroke:#000000; stroke-linecap:round; stroke-linejoin:round; stroke-width:4; stroke-opacity:1; fill:none" points="335.956,1734.12 335.956,1715.22 "/>
<polyline clip-path="url(#clip610)" style="stroke:#000000; stroke-linecap:round; stroke-linejoin:round; stroke-width:4; stroke-opacity:1; fill:none" points="895.373,1734.12 895.373,1715.22 "/>
<polyline clip-path="url(#clip610)" style="stroke:#000000; stroke-linecap:round; stroke-linejoin:round; stroke-width:4; stroke-opacity:1; fill:none" points="1454.79,1734.12 1454.79,1715.22 "/>
<polyline clip-path="url(#clip610)" style="stroke:#000000; stroke-linecap:round; stroke-linejoin:round; stroke-width:4; stroke-opacity:1; fill:none" points="2014.21,1734.12 2014.21,1715.22 "/>
<polyline clip-path="url(#clip610)" style="stroke:#000000; stroke-linecap:round; stroke-linejoin:round; stroke-width:4; stroke-opacity:1; fill:none" points="2573.63,1734.12 2573.63,1715.22 "/>
<path clip-path="url(#clip610)" d="M335.956 1767.34 Q332.345 1767.34 330.516 1770.9 Q328.71 1774.45 328.71 1781.58 Q328.71 1788.68 330.516 1792.25 Q332.345 1795.79 335.956 1795.79 Q339.59 1795.79 341.395 1792.25 Q343.224 1788.68 343.224 1781.58 Q343.224 1774.45 341.395 1770.9 Q339.59 1767.34 335.956 1767.34 M335.956 1763.64 Q341.766 1763.64 344.821 1768.24 Q347.9 1772.83 347.9 1781.58 Q347.9 1790.3 344.821 1794.91 Q341.766 1799.49 335.956 1799.49 Q330.145 1799.49 327.067 1794.91 Q324.011 1790.3 324.011 1781.58 Q324.011 1772.83 327.067 1768.24 Q330.145 1763.64 335.956 1763.64 Z" fill="#000000" fill-rule="nonzero" fill-opacity="1" /><path clip-path="url(#clip610)" d="M870.061 1794.89 L877.7 1794.89 L877.7 1768.52 L869.39 1770.19 L869.39 1765.93 L877.653 1764.26 L882.329 1764.26 L882.329 1794.89 L889.968 1794.89 L889.968 1798.82 L870.061 1798.82 L870.061 1794.89 Z" fill="#000000" fill-rule="nonzero" fill-opacity="1" /><path clip-path="url(#clip610)" d="M909.412 1767.34 Q905.801 1767.34 903.973 1770.9 Q902.167 1774.45 902.167 1781.58 Q902.167 1788.68 903.973 1792.25 Q905.801 1795.79 909.412 1795.79 Q913.047 1795.79 914.852 1792.25 Q916.681 1788.68 916.681 1781.58 Q916.681 1774.45 914.852 1770.9 Q913.047 1767.34 909.412 1767.34 M909.412 1763.64 Q915.223 1763.64 918.278 1768.24 Q921.357 1772.83 921.357 1781.58 Q921.357 1790.3 918.278 1794.91 Q915.223 1799.49 909.412 1799.49 Q903.602 1799.49 900.524 1794.91 Q897.468 1790.3 897.468 1781.58 Q897.468 1772.83 900.524 1768.24 Q903.602 1763.64 909.412 1763.64 Z" fill="#000000" fill-rule="nonzero" fill-opacity="1" /><path clip-path="url(#clip610)" d="M1433.56 1794.89 L1449.88 1794.89 L1449.88 1798.82 L1427.94 1798.82 L1427.94 1794.89 Q1430.6 1792.13 1435.18 1787.5 Q1439.79 1782.85 1440.97 1781.51 Q1443.22 1778.98 1444.1 1777.25 Q1445 1775.49 1445 1773.8 Q1445 1771.04 1443.05 1769.31 Q1441.13 1767.57 1438.03 1767.57 Q1435.83 1767.57 1433.38 1768.34 Q1430.95 1769.1 1428.17 1770.65 L1428.17 1765.93 Q1430.99 1764.79 1433.45 1764.21 Q1435.9 1763.64 1437.94 1763.64 Q1443.31 1763.64 1446.5 1766.32 Q1449.7 1769.01 1449.7 1773.5 Q1449.7 1775.63 1448.89 1777.55 Q1448.1 1779.45 1445.99 1782.04 Q1445.42 1782.71 1442.31 1785.93 Q1439.21 1789.12 1433.56 1794.89 Z" fill="#000000" fill-rule="nonzero" fill-opacity="1" /><path clip-path="url(#clip610)" d="M1469.7 1767.34 Q1466.09 1767.34 1464.26 1770.9 Q1462.45 1774.45 1462.45 1781.58 Q1462.45 1788.68 1464.26 1792.25 Q1466.09 1795.79 1469.7 1795.79 Q1473.33 1795.79 1475.14 1792.25 Q1476.97 1788.68 1476.97 1781.58 Q1476.97 1774.45 1475.14 1770.9 Q1473.33 1767.34 1469.7 1767.34 M1469.7 1763.64 Q1475.51 1763.64 1478.56 1768.24 Q1481.64 1772.83 1481.64 1781.58 Q1481.64 1790.3 1478.56 1794.91 Q1475.51 1799.49 1469.7 1799.49 Q1463.89 1799.49 1460.81 1794.91 Q1457.75 1790.3 1457.75 1781.58 Q1457.75 1772.83 1460.81 1768.24 Q1463.89 1763.64 1469.7 1763.64 Z" fill="#000000" fill-rule="nonzero" fill-opacity="1" /><path clip-path="url(#clip610)" d="M2003.05 1780.19 Q2006.41 1780.9 2008.28 1783.17 Q2010.18 1785.44 2010.18 1788.77 Q2010.18 1793.89 2006.66 1796.69 Q2003.14 1799.49 1996.66 1799.49 Q1994.49 1799.49 1992.17 1799.05 Q1989.88 1798.64 1987.43 1797.78 L1987.43 1793.27 Q1989.37 1794.4 1991.69 1794.98 Q1994 1795.56 1996.52 1795.56 Q2000.92 1795.56 2003.21 1793.82 Q2005.53 1792.08 2005.53 1788.77 Q2005.53 1785.72 2003.37 1784.01 Q2001.25 1782.27 1997.43 1782.27 L1993.4 1782.27 L1993.4 1778.43 L1997.61 1778.43 Q2001.06 1778.43 2002.89 1777.06 Q2004.72 1775.67 2004.72 1773.08 Q2004.72 1770.42 2002.82 1769.01 Q2000.94 1767.57 1997.43 1767.57 Q1995.5 1767.57 1993.31 1767.99 Q1991.11 1768.4 1988.47 1769.28 L1988.47 1765.12 Q1991.13 1764.38 1993.44 1764.01 Q1995.78 1763.64 1997.84 1763.64 Q2003.17 1763.64 2006.27 1766.07 Q2009.37 1768.47 2009.37 1772.59 Q2009.37 1775.46 2007.73 1777.46 Q2006.08 1779.42 2003.05 1780.19 Z" fill="#000000" fill-rule="nonzero" fill-opacity="1" /><path clip-path="url(#clip610)" d="M2029.05 1767.34 Q2025.44 1767.34 2023.61 1770.9 Q2021.8 1774.45 2021.8 1781.58 Q2021.8 1788.68 2023.61 1792.25 Q2025.44 1795.79 2029.05 1795.79 Q2032.68 1795.79 2034.49 1792.25 Q2036.31 1788.68 2036.31 1781.58 Q2036.31 1774.45 2034.49 1770.9 Q2032.68 1767.34 2029.05 1767.34 M2029.05 1763.64 Q2034.86 1763.64 2037.91 1768.24 Q2040.99 1772.83 2040.99 1781.58 Q2040.99 1790.3 2037.91 1794.91 Q2034.86 1799.49 2029.05 1799.49 Q2023.24 1799.49 2020.16 1794.91 Q2017.1 1790.3 2017.1 1781.58 Q2017.1 1772.83 2020.16 1768.24 Q2023.24 1763.64 2029.05 1763.64 Z" fill="#000000" fill-rule="nonzero" fill-opacity="1" /><path clip-path="url(#clip610)" d="M2561.8 1768.34 L2549.99 1786.78 L2561.8 1786.78 L2561.8 1768.34 M2560.57 1764.26 L2566.45 1764.26 L2566.45 1786.78 L2571.38 1786.78 L2571.38 1790.67 L2566.45 1790.67 L2566.45 1798.82 L2561.8 1798.82 L2561.8 1790.67 L2546.2 1790.67 L2546.2 1786.16 L2560.57 1764.26 Z" fill="#000000" fill-rule="nonzero" fill-opacity="1" /><path clip-path="url(#clip610)" d="M2589.11 1767.34 Q2585.5 1767.34 2583.67 1770.9 Q2581.87 1774.45 2581.87 1781.58 Q2581.87 1788.68 2583.67 1792.25 Q2585.5 1795.79 2589.11 1795.79 Q2592.75 1795.79 2594.55 1792.25 Q2596.38 1788.68 2596.38 1781.58 Q2596.38 1774.45 2594.55 1770.9 Q2592.75 1767.34 2589.11 1767.34 M2589.11 1763.64 Q2594.92 1763.64 2597.98 1768.24 Q2601.06 1772.83 2601.06 1781.58 Q2601.06 1790.3 2597.98 1794.91 Q2594.92 1799.49 2589.11 1799.49 Q2583.3 1799.49 2580.22 1794.91 Q2577.17 1790.3 2577.17 1781.58 Q2577.17 1772.83 2580.22 1768.24 Q2583.3 1763.64 2589.11 1763.64 Z" fill="#000000" fill-rule="nonzero" fill-opacity="1" /><path clip-path="url(#clip610)" d="M1401.03 1841.06 L1401.03 1878.02 L1408.8 1878.02 Q1418.63 1878.02 1423.18 1873.56 Q1427.77 1869.11 1427.77 1859.49 Q1427.77 1849.94 1423.18 1845.52 Q1418.63 1841.06 1408.8 1841.06 L1401.03 1841.06 M1394.6 1835.78 L1407.81 1835.78 Q1421.63 1835.78 1428.09 1841.54 Q1434.55 1847.27 1434.55 1859.49 Q1434.55 1871.78 1428.05 1877.54 Q1421.56 1883.3 1407.81 1883.3 L1394.6 1883.3 L1394.6 1835.78 Z" fill="#000000" fill-rule="nonzero" fill-opacity="1" /><path clip-path="url(#clip610)" d="M1460.74 1865.38 Q1453.64 1865.38 1450.91 1867 Q1448.17 1868.63 1448.17 1872.54 Q1448.17 1875.66 1450.21 1877.51 Q1452.28 1879.32 1455.81 1879.32 Q1460.68 1879.32 1463.61 1875.88 Q1466.57 1872.42 1466.57 1866.69 L1466.57 1865.38 L1460.74 1865.38 M1472.42 1862.96 L1472.42 1883.3 L1466.57 1883.3 L1466.57 1877.89 Q1464.56 1881.14 1461.57 1882.7 Q1458.58 1884.22 1454.25 1884.22 Q1448.78 1884.22 1445.53 1881.17 Q1442.31 1878.08 1442.31 1872.92 Q1442.31 1866.91 1446.32 1863.85 Q1450.37 1860.8 1458.36 1860.8 L1466.57 1860.8 L1466.57 1860.23 Q1466.57 1856.18 1463.89 1853.99 Q1461.25 1851.76 1456.45 1851.76 Q1453.39 1851.76 1450.49 1852.49 Q1447.6 1853.22 1444.92 1854.69 L1444.92 1849.28 Q1448.14 1848.03 1451.16 1847.43 Q1454.19 1846.79 1457.05 1846.79 Q1464.78 1846.79 1468.6 1850.8 Q1472.42 1854.81 1472.42 1862.96 Z" fill="#000000" fill-rule="nonzero" fill-opacity="1" /><path clip-path="url(#clip610)" d="M1499.32 1886.61 Q1496.84 1892.98 1494.48 1894.92 Q1492.13 1896.86 1488.18 1896.86 L1483.5 1896.86 L1483.5 1891.96 L1486.94 1891.96 Q1489.36 1891.96 1490.69 1890.81 Q1492.03 1889.67 1493.65 1885.4 L1494.7 1882.73 L1480.29 1847.65 L1486.49 1847.65 L1497.63 1875.53 L1508.77 1847.65 L1514.98 1847.65 L1499.32 1886.61 Z" fill="#000000" fill-rule="nonzero" fill-opacity="1" /><polyline clip-path="url(#clip610)" style="stroke:#000000; stroke-linecap:round; stroke-linejoin:round; stroke-width:4; stroke-opacity:1; fill:none" points="268.826,1734.12 268.826,127.792 "/>
<polyline clip-path="url(#clip610)" style="stroke:#000000; stroke-linecap:round; stroke-linejoin:round; stroke-width:4; stroke-opacity:1; fill:none" points="268.826,1688.65 287.723,1688.65 "/>
<polyline clip-path="url(#clip610)" style="stroke:#000000; stroke-linecap:round; stroke-linejoin:round; stroke-width:4; stroke-opacity:1; fill:none" points="268.826,1304.43 287.723,1304.43 "/>
<polyline clip-path="url(#clip610)" style="stroke:#000000; stroke-linecap:round; stroke-linejoin:round; stroke-width:4; stroke-opacity:1; fill:none" points="268.826,920.196 287.723,920.196 "/>
<polyline clip-path="url(#clip610)" style="stroke:#000000; stroke-linecap:round; stroke-linejoin:round; stroke-width:4; stroke-opacity:1; fill:none" points="268.826,535.967 287.723,535.967 "/>
<polyline clip-path="url(#clip610)" style="stroke:#000000; stroke-linecap:round; stroke-linejoin:round; stroke-width:4; stroke-opacity:1; fill:none" points="268.826,151.737 287.723,151.737 "/>
<path clip-path="url(#clip610)" d="M216.561 1674.45 Q212.95 1674.45 211.121 1678.02 Q209.316 1681.56 209.316 1688.69 Q209.316 1695.8 211.121 1699.36 Q212.95 1702.9 216.561 1702.9 Q220.195 1702.9 222.001 1699.36 Q223.83 1695.8 223.83 1688.69 Q223.83 1681.56 222.001 1678.02 Q220.195 1674.45 216.561 1674.45 M216.561 1670.75 Q222.371 1670.75 225.427 1675.36 Q228.506 1679.94 228.506 1688.69 Q228.506 1697.42 225.427 1702.02 Q222.371 1706.61 216.561 1706.61 Q210.751 1706.61 207.672 1702.02 Q204.617 1697.42 204.617 1688.69 Q204.617 1679.94 207.672 1675.36 Q210.751 1670.75 216.561 1670.75 Z" fill="#000000" fill-rule="nonzero" fill-opacity="1" /><path clip-path="url(#clip610)" d="M150.265 1317.77 L166.585 1317.77 L166.585 1321.71 L144.64 1321.71 L144.64 1317.77 Q147.302 1315.02 151.886 1310.39 Q156.492 1305.73 157.673 1304.39 Q159.918 1301.87 160.798 1300.13 Q161.7 1298.37 161.7 1296.68 Q161.7 1293.93 159.756 1292.19 Q157.835 1290.46 154.733 1290.46 Q152.534 1290.46 150.08 1291.22 Q147.649 1291.98 144.872 1293.53 L144.872 1288.81 Q147.696 1287.68 150.149 1287.1 Q152.603 1286.52 154.64 1286.52 Q160.011 1286.52 163.205 1289.21 Q166.399 1291.89 166.399 1296.38 Q166.399 1298.51 165.589 1300.43 Q164.802 1302.33 162.696 1304.92 Q162.117 1305.59 159.015 1308.81 Q155.913 1312.01 150.265 1317.77 Z" fill="#000000" fill-rule="nonzero" fill-opacity="1" /><path clip-path="url(#clip610)" d="M176.446 1287.15 L194.802 1287.15 L194.802 1291.08 L180.728 1291.08 L180.728 1299.55 Q181.746 1299.21 182.765 1299.04 Q183.784 1298.86 184.802 1298.86 Q190.589 1298.86 193.969 1302.03 Q197.348 1305.2 197.348 1310.62 Q197.348 1316.2 193.876 1319.3 Q190.404 1322.38 184.084 1322.38 Q181.909 1322.38 179.64 1322.01 Q177.395 1321.64 174.987 1320.9 L174.987 1316.2 Q177.071 1317.33 179.293 1317.89 Q181.515 1318.44 183.992 1318.44 Q187.996 1318.44 190.334 1316.34 Q192.672 1314.23 192.672 1310.62 Q192.672 1307.01 190.334 1304.9 Q187.996 1302.79 183.992 1302.79 Q182.117 1302.79 180.242 1303.21 Q178.39 1303.63 176.446 1304.51 L176.446 1287.15 Z" fill="#000000" fill-rule="nonzero" fill-opacity="1" /><path clip-path="url(#clip610)" d="M216.561 1290.22 Q212.95 1290.22 211.121 1293.79 Q209.316 1297.33 209.316 1304.46 Q209.316 1311.57 211.121 1315.13 Q212.95 1318.67 216.561 1318.67 Q220.195 1318.67 222.001 1315.13 Q223.83 1311.57 223.83 1304.46 Q223.83 1297.33 222.001 1293.79 Q220.195 1290.22 216.561 1290.22 M216.561 1286.52 Q222.371 1286.52 225.427 1291.13 Q228.506 1295.71 228.506 1304.46 Q228.506 1313.19 225.427 1317.79 Q222.371 1322.38 216.561 1322.38 Q210.751 1322.38 207.672 1317.79 Q204.617 1313.19 204.617 1304.46 Q204.617 1295.71 207.672 1291.13 Q210.751 1286.52 216.561 1286.52 Z" fill="#000000" fill-rule="nonzero" fill-opacity="1" /><path clip-path="url(#clip610)" d="M146.284 902.916 L164.64 902.916 L164.64 906.851 L150.566 906.851 L150.566 915.323 Q151.585 914.976 152.603 914.814 Q153.622 914.629 154.64 914.629 Q160.427 914.629 163.807 917.8 Q167.186 920.972 167.186 926.388 Q167.186 931.967 163.714 935.069 Q160.242 938.147 153.923 938.147 Q151.747 938.147 149.478 937.777 Q147.233 937.407 144.825 936.666 L144.825 931.967 Q146.909 933.101 149.131 933.657 Q151.353 934.212 153.83 934.212 Q157.835 934.212 160.173 932.106 Q162.51 929.999 162.51 926.388 Q162.51 922.777 160.173 920.671 Q157.835 918.564 153.83 918.564 Q151.955 918.564 150.08 918.981 Q148.228 919.398 146.284 920.277 L146.284 902.916 Z" fill="#000000" fill-rule="nonzero" fill-opacity="1" /><path clip-path="url(#clip610)" d="M186.399 905.995 Q182.788 905.995 180.959 909.56 Q179.154 913.101 179.154 920.231 Q179.154 927.337 180.959 930.902 Q182.788 934.444 186.399 934.444 Q190.033 934.444 191.839 930.902 Q193.668 927.337 193.668 920.231 Q193.668 913.101 191.839 909.56 Q190.033 905.995 186.399 905.995 M186.399 902.291 Q192.209 902.291 195.265 906.898 Q198.344 911.481 198.344 920.231 Q198.344 928.958 195.265 933.564 Q192.209 938.147 186.399 938.147 Q180.589 938.147 177.51 933.564 Q174.455 928.958 174.455 920.231 Q174.455 911.481 177.51 906.898 Q180.589 902.291 186.399 902.291 Z" fill="#000000" fill-rule="nonzero" fill-opacity="1" /><path clip-path="url(#clip610)" d="M216.561 905.995 Q212.95 905.995 211.121 909.56 Q209.316 913.101 209.316 920.231 Q209.316 927.337 211.121 930.902 Q212.95 934.444 216.561 934.444 Q220.195 934.444 222.001 930.902 Q223.83 927.337 223.83 920.231 Q223.83 913.101 222.001 909.56 Q220.195 905.995 216.561 905.995 M216.561 902.291 Q222.371 902.291 225.427 906.898 Q228.506 911.481 228.506 920.231 Q228.506 928.958 225.427 933.564 Q222.371 938.147 216.561 938.147 Q210.751 938.147 207.672 933.564 Q204.617 928.958 204.617 920.231 Q204.617 911.481 207.672 906.898 Q210.751 902.291 216.561 902.291 Z" fill="#000000" fill-rule="nonzero" fill-opacity="1" /><path clip-path="url(#clip610)" d="M145.057 518.687 L167.279 518.687 L167.279 520.677 L154.733 553.247 L149.849 553.247 L161.654 522.622 L145.057 522.622 L145.057 518.687 Z" fill="#000000" fill-rule="nonzero" fill-opacity="1" /><path clip-path="url(#clip610)" d="M176.446 518.687 L194.802 518.687 L194.802 522.622 L180.728 522.622 L180.728 531.094 Q181.746 530.747 182.765 530.585 Q183.784 530.4 184.802 530.4 Q190.589 530.4 193.969 533.571 Q197.348 536.742 197.348 542.159 Q197.348 547.737 193.876 550.839 Q190.404 553.918 184.084 553.918 Q181.909 553.918 179.64 553.548 Q177.395 553.177 174.987 552.437 L174.987 547.737 Q177.071 548.872 179.293 549.427 Q181.515 549.983 183.992 549.983 Q187.996 549.983 190.334 547.876 Q192.672 545.77 192.672 542.159 Q192.672 538.548 190.334 536.441 Q187.996 534.335 183.992 534.335 Q182.117 534.335 180.242 534.751 Q178.39 535.168 176.446 536.048 L176.446 518.687 Z" fill="#000000" fill-rule="nonzero" fill-opacity="1" /><path clip-path="url(#clip610)" d="M216.561 521.765 Q212.95 521.765 211.121 525.33 Q209.316 528.872 209.316 536.001 Q209.316 543.108 211.121 546.673 Q212.95 550.214 216.561 550.214 Q220.195 550.214 222.001 546.673 Q223.83 543.108 223.83 536.001 Q223.83 528.872 222.001 525.33 Q220.195 521.765 216.561 521.765 M216.561 518.062 Q222.371 518.062 225.427 522.668 Q228.506 527.251 228.506 536.001 Q228.506 544.728 225.427 549.335 Q222.371 553.918 216.561 553.918 Q210.751 553.918 207.672 549.335 Q204.617 544.728 204.617 536.001 Q204.617 527.251 207.672 522.668 Q210.751 518.062 216.561 518.062 Z" fill="#000000" fill-rule="nonzero" fill-opacity="1" /><path clip-path="url(#clip610)" d="M116.886 165.082 L124.525 165.082 L124.525 138.717 L116.214 140.383 L116.214 136.124 L124.478 134.457 L129.154 134.457 L129.154 165.082 L136.793 165.082 L136.793 169.017 L116.886 169.017 L116.886 165.082 Z" fill="#000000" fill-rule="nonzero" fill-opacity="1" /><path clip-path="url(#clip610)" d="M156.237 137.536 Q152.626 137.536 150.798 141.101 Q148.992 144.642 148.992 151.772 Q148.992 158.878 150.798 162.443 Q152.626 165.985 156.237 165.985 Q159.872 165.985 161.677 162.443 Q163.506 158.878 163.506 151.772 Q163.506 144.642 161.677 141.101 Q159.872 137.536 156.237 137.536 M156.237 133.832 Q162.048 133.832 165.103 138.439 Q168.182 143.022 168.182 151.772 Q168.182 160.499 165.103 165.105 Q162.048 169.689 156.237 169.689 Q150.427 169.689 147.349 165.105 Q144.293 160.499 144.293 151.772 Q144.293 143.022 147.349 138.439 Q150.427 133.832 156.237 133.832 Z" fill="#000000" fill-rule="nonzero" fill-opacity="1" /><path clip-path="url(#clip610)" d="M186.399 137.536 Q182.788 137.536 180.959 141.101 Q179.154 144.642 179.154 151.772 Q179.154 158.878 180.959 162.443 Q182.788 165.985 186.399 165.985 Q190.033 165.985 191.839 162.443 Q193.668 158.878 193.668 151.772 Q193.668 144.642 191.839 141.101 Q190.033 137.536 186.399 137.536 M186.399 133.832 Q192.209 133.832 195.265 138.439 Q198.344 143.022 198.344 151.772 Q198.344 160.499 195.265 165.105 Q192.209 169.689 186.399 169.689 Q180.589 169.689 177.51 165.105 Q174.455 160.499 174.455 151.772 Q174.455 143.022 177.51 138.439 Q180.589 133.832 186.399 133.832 Z" fill="#000000" fill-rule="nonzero" fill-opacity="1" /><path clip-path="url(#clip610)" d="M216.561 137.536 Q212.95 137.536 211.121 141.101 Q209.316 144.642 209.316 151.772 Q209.316 158.878 211.121 162.443 Q212.95 165.985 216.561 165.985 Q220.195 165.985 222.001 162.443 Q223.83 158.878 223.83 151.772 Q223.83 144.642 222.001 141.101 Q220.195 137.536 216.561 137.536 M216.561 133.832 Q222.371 133.832 225.427 138.439 Q228.506 143.022 228.506 151.772 Q228.506 160.499 225.427 165.105 Q222.371 169.689 216.561 169.689 Q210.751 169.689 207.672 165.105 Q204.617 160.499 204.617 151.772 Q204.617 143.022 207.672 138.439 Q210.751 133.832 216.561 133.832 Z" fill="#000000" fill-rule="nonzero" fill-opacity="1" /><path clip-path="url(#clip610)" d="M14.1184 1220.36 L14.1184 1211.7 L53.8723 1190.63 L14.1184 1190.63 L14.1184 1184.39 L61.6384 1184.39 L61.6384 1193.05 L21.8846 1214.12 L61.6384 1214.12 L61.6384 1220.36 L14.1184 1220.36 Z" fill="#000000" fill-rule="nonzero" fill-opacity="1" /><path clip-path="url(#clip610)" d="M47.5702 1172.45 L25.9905 1172.45 L25.9905 1166.6 L47.3474 1166.6 Q52.4082 1166.6 54.9545 1164.62 Q57.4689 1162.65 57.4689 1158.7 Q57.4689 1153.96 54.4452 1151.22 Q51.4215 1148.45 46.2016 1148.45 L25.9905 1148.45 L25.9905 1142.6 L61.6384 1142.6 L61.6384 1148.45 L56.1639 1148.45 Q59.4104 1150.59 61.0019 1153.42 Q62.5615 1156.22 62.5615 1159.94 Q62.5615 1166.09 58.742 1169.27 Q54.9226 1172.45 47.5702 1172.45 M25.1311 1157.72 L25.1311 1157.72 Z" fill="#000000" fill-rule="nonzero" fill-opacity="1" /><path clip-path="url(#clip610)" d="M32.8336 1102.78 Q28.8869 1100.58 27.009 1097.53 Q25.1311 1094.47 25.1311 1090.34 Q25.1311 1084.77 29.046 1081.74 Q32.9291 1078.72 40.1224 1078.72 L61.6384 1078.72 L61.6384 1084.61 L40.3133 1084.61 Q35.1889 1084.61 32.7063 1086.42 Q30.2237 1088.24 30.2237 1091.96 Q30.2237 1096.51 33.2474 1099.15 Q36.2711 1101.79 41.491 1101.79 L61.6384 1101.79 L61.6384 1107.68 L40.3133 1107.68 Q35.1571 1107.68 32.7063 1109.5 Q30.2237 1111.31 30.2237 1115.1 Q30.2237 1119.59 33.2792 1122.23 Q36.3029 1124.87 41.491 1124.87 L61.6384 1124.87 L61.6384 1130.76 L25.9905 1130.76 L25.9905 1124.87 L31.5287 1124.87 Q28.2503 1122.86 26.6907 1120.06 Q25.1311 1117.26 25.1311 1113.41 Q25.1311 1109.53 27.1045 1106.82 Q29.0779 1104.09 32.8336 1102.78 Z" fill="#000000" fill-rule="nonzero" fill-opacity="1" /><path clip-path="url(#clip610)" d="M43.8463 1041.45 Q37.3851 1041.45 33.7248 1044.12 Q30.0327 1046.76 30.0327 1051.41 Q30.0327 1056.06 33.7248 1058.73 Q37.3851 1061.37 43.8463 1061.37 Q50.3075 1061.37 53.9996 1058.73 Q57.6599 1056.06 57.6599 1051.41 Q57.6599 1046.76 53.9996 1044.12 Q50.3075 1041.45 43.8463 1041.45 M31.4013 1061.37 Q28.2185 1059.53 26.6907 1056.73 Q25.1311 1053.89 25.1311 1049.98 Q25.1311 1043.48 30.2873 1039.44 Q35.4436 1035.37 43.8463 1035.37 Q52.249 1035.37 57.4052 1039.44 Q62.5615 1043.48 62.5615 1049.98 Q62.5615 1053.89 61.0337 1056.73 Q59.4741 1059.53 56.2912 1061.37 L61.6384 1061.37 L61.6384 1067.26 L12.1132 1067.26 L12.1132 1061.37 L31.4013 1061.37 Z" fill="#000000" fill-rule="nonzero" fill-opacity="1" /><path clip-path="url(#clip610)" d="M42.3504 995.169 L45.2149 995.169 L45.2149 1022.1 Q51.2623 1021.71 54.4452 1018.47 Q57.5962 1015.19 57.5962 1009.36 Q57.5962 1005.99 56.7687 1002.84 Q55.9411 999.656 54.2861 996.537 L59.8242 996.537 Q61.161 999.688 61.8612 1003 Q62.5615 1006.31 62.5615 1009.71 Q62.5615 1018.24 57.5962 1023.24 Q52.631 1028.21 44.1646 1028.21 Q35.4117 1028.21 30.2873 1023.5 Q25.1311 1018.75 25.1311 1010.73 Q25.1311 1003.54 29.7781 999.37 Q34.3932 995.169 42.3504 995.169 M40.6316 1001.03 Q35.8255 1001.09 32.9609 1003.73 Q30.0964 1006.34 30.0964 1010.67 Q30.0964 1015.57 32.8654 1018.53 Q35.6345 1021.46 40.6634 1021.9 L40.6316 1001.03 Z" fill="#000000" fill-rule="nonzero" fill-opacity="1" /><path clip-path="url(#clip610)" d="M31.465 964.9 Q30.8921 965.886 30.6375 967.064 Q30.351 968.21 30.351 969.61 Q30.351 974.576 33.5975 977.249 Q36.8122 979.891 42.8596 979.891 L61.6384 979.891 L61.6384 985.779 L25.9905 985.779 L25.9905 979.891 L31.5287 979.891 Q28.2821 978.045 26.7225 975.085 Q25.1311 972.125 25.1311 967.892 Q25.1311 967.287 25.2266 966.555 Q25.2903 965.823 25.4494 964.932 L31.465 964.9 Z" fill="#000000" fill-rule="nonzero" fill-opacity="1" /><path clip-path="url(#clip610)" d="M30.0964 924.223 Q30.0964 928.933 33.7885 931.671 Q37.4488 934.408 43.8463 934.408 Q50.2438 934.408 53.9359 931.703 Q57.5962 928.965 57.5962 924.223 Q57.5962 919.544 53.9041 916.807 Q50.212 914.07 43.8463 914.07 Q37.5124 914.07 33.8203 916.807 Q30.0964 919.544 30.0964 924.223 M25.1311 924.223 Q25.1311 916.584 30.0964 912.223 Q35.0616 907.863 43.8463 907.863 Q52.5991 907.863 57.5962 912.223 Q62.5615 916.584 62.5615 924.223 Q62.5615 931.893 57.5962 936.254 Q52.5991 940.583 43.8463 940.583 Q35.0616 940.583 30.0964 936.254 Q25.1311 931.893 25.1311 924.223 Z" fill="#000000" fill-rule="nonzero" fill-opacity="1" /><path clip-path="url(#clip610)" d="M12.1132 880.108 L16.983 880.108 L16.983 885.71 Q16.983 888.861 18.2562 890.103 Q19.5293 891.312 22.8395 891.312 L25.9905 891.312 L25.9905 881.668 L30.542 881.668 L30.542 891.312 L61.6384 891.312 L61.6384 897.2 L30.542 897.2 L30.542 902.802 L25.9905 902.802 L25.9905 897.2 L23.5079 897.2 Q17.5559 897.2 14.8505 894.431 Q12.1132 891.662 12.1132 885.647 L12.1132 880.108 Z" fill="#000000" fill-rule="nonzero" fill-opacity="1" /><path clip-path="url(#clip610)" d="M43.719 838.286 Q43.719 845.384 45.3422 848.121 Q46.9655 850.858 50.8804 850.858 Q53.9996 850.858 55.8457 848.821 Q57.6599 846.752 57.6599 843.219 Q57.6599 838.349 54.2224 835.421 Q50.7531 832.461 45.0239 832.461 L43.719 832.461 L43.719 838.286 M41.3 826.605 L61.6384 826.605 L61.6384 832.461 L56.2276 832.461 Q59.4741 834.466 61.0337 837.458 Q62.5615 840.45 62.5615 844.779 Q62.5615 850.253 59.5059 853.5 Q56.4186 856.715 51.2623 856.715 Q45.2467 856.715 42.1912 852.704 Q39.1357 848.662 39.1357 840.673 L39.1357 832.461 L38.5628 832.461 Q34.5205 832.461 32.3244 835.135 Q30.0964 837.777 30.0964 842.583 Q30.0964 845.638 30.8284 848.535 Q31.5605 851.431 33.0246 854.105 L27.6137 854.105 Q26.3724 850.89 25.7677 847.866 Q25.1311 844.842 25.1311 841.978 Q25.1311 834.244 29.1415 830.424 Q33.1519 826.605 41.3 826.605 Z" fill="#000000" fill-rule="nonzero" fill-opacity="1" /><path clip-path="url(#clip610)" d="M43.4007 791.084 Q37.035 791.084 33.5338 793.726 Q30.0327 796.336 30.0327 801.078 Q30.0327 805.789 33.5338 808.431 Q37.035 811.041 43.4007 811.041 Q49.7346 811.041 53.2357 808.431 Q56.7368 805.789 56.7368 801.078 Q56.7368 796.336 53.2357 793.726 Q49.7346 791.084 43.4007 791.084 M57.2143 785.228 Q66.3172 785.228 70.7414 789.27 Q75.1974 793.312 75.1974 801.651 Q75.1974 804.739 74.72 807.476 Q74.2744 810.213 73.3195 812.791 L67.6222 812.791 Q69.0227 810.213 69.6911 807.699 Q70.3595 805.184 70.3595 802.574 Q70.3595 796.813 67.3358 793.949 Q64.3439 791.084 58.2646 791.084 L55.3682 791.084 Q58.5192 792.898 60.0788 795.731 Q61.6384 798.564 61.6384 802.511 Q61.6384 809.067 56.6414 813.078 Q51.6443 817.088 43.4007 817.088 Q35.1253 817.088 30.1282 813.078 Q25.1311 809.067 25.1311 802.511 Q25.1311 798.564 26.6907 795.731 Q28.2503 792.898 31.4013 791.084 L25.9905 791.084 L25.9905 785.228 L57.2143 785.228 Z" fill="#000000" fill-rule="nonzero" fill-opacity="1" /><path clip-path="url(#clip610)" d="M42.3504 742.673 L45.2149 742.673 L45.2149 769.6 Q51.2623 769.218 54.4452 765.971 Q57.5962 762.693 57.5962 756.868 Q57.5962 753.495 56.7687 750.344 Q55.9411 747.161 54.2861 744.041 L59.8242 744.041 Q61.161 747.193 61.8612 750.503 Q62.5615 753.813 62.5615 757.219 Q62.5615 765.749 57.5962 770.746 Q52.631 775.711 44.1646 775.711 Q35.4117 775.711 30.2873 771 Q25.1311 766.258 25.1311 758.237 Q25.1311 751.044 29.7781 746.874 Q34.3932 742.673 42.3504 742.673 M40.6316 748.529 Q35.8255 748.593 32.9609 751.235 Q30.0964 753.845 30.0964 758.173 Q30.0964 763.075 32.8654 766.035 Q35.6345 768.963 40.6634 769.409 L40.6316 748.529 Z" fill="#000000" fill-rule="nonzero" fill-opacity="1" /><path clip-path="url(#clip610)" d="M40.1224 703.428 L61.6384 703.428 L61.6384 709.285 L40.3133 709.285 Q35.2526 709.285 32.7381 711.258 Q30.2237 713.231 30.2237 717.178 Q30.2237 721.921 33.2474 724.658 Q36.2711 727.395 41.491 727.395 L61.6384 727.395 L61.6384 733.283 L25.9905 733.283 L25.9905 727.395 L31.5287 727.395 Q28.314 725.294 26.7225 722.462 Q25.1311 719.597 25.1311 715.873 Q25.1311 709.73 28.9505 706.579 Q32.7381 703.428 40.1224 703.428 Z" fill="#000000" fill-rule="nonzero" fill-opacity="1" /><path clip-path="url(#clip610)" d="M15.869 685.954 L25.9905 685.954 L25.9905 673.891 L30.542 673.891 L30.542 685.954 L49.8937 685.954 Q54.2542 685.954 55.4955 684.777 Q56.7368 683.567 56.7368 679.907 L56.7368 673.891 L61.6384 673.891 L61.6384 679.907 Q61.6384 686.686 59.124 689.265 Q56.5777 691.843 49.8937 691.843 L30.542 691.843 L30.542 696.14 L25.9905 696.14 L25.9905 691.843 L15.869 691.843 L15.869 685.954 Z" fill="#000000" fill-rule="nonzero" fill-opacity="1" /><path clip-path="url(#clip610)" d="M27.0408 643.463 L32.579 643.463 Q31.3059 645.946 30.6693 648.62 Q30.0327 651.293 30.0327 654.158 Q30.0327 658.518 31.3695 660.714 Q32.7063 662.879 35.3799 662.879 Q37.4169 662.879 38.5946 661.319 Q39.7404 659.76 40.7908 655.049 L41.2364 653.044 Q42.5732 646.805 45.0239 644.195 Q47.4429 641.554 51.8034 641.554 Q56.7687 641.554 59.6651 645.5 Q62.5615 649.415 62.5615 656.29 Q62.5615 659.155 61.9886 662.274 Q61.4475 665.361 60.3335 668.799 L54.2861 668.799 Q55.973 665.552 56.8323 662.401 Q57.6599 659.25 57.6599 656.163 Q57.6599 652.025 56.2594 649.797 Q54.8271 647.569 52.249 647.569 Q49.8619 647.569 48.5887 649.192 Q47.3156 650.784 46.1379 656.227 L45.6605 658.264 Q44.5147 663.706 42.1594 666.125 Q39.7722 668.544 35.6345 668.544 Q30.6056 668.544 27.8684 664.979 Q25.1311 661.415 25.1311 654.858 Q25.1311 651.611 25.6085 648.747 Q26.086 645.882 27.0408 643.463 Z" fill="#000000" fill-rule="nonzero" fill-opacity="1" /><path clip-path="url(#clip610)" d="M1213.36 14.0809 L1213.36 22.0612 Q1208.7 19.8332 1204.57 18.7395 Q1200.43 17.6457 1196.59 17.6457 Q1189.9 17.6457 1186.26 20.2383 Q1182.65 22.8309 1182.65 27.611 Q1182.65 31.6214 1185.04 33.6873 Q1187.47 35.7128 1194.2 36.9686 L1199.14 37.9813 Q1208.29 39.7232 1212.63 44.1387 Q1217 48.5136 1217 55.8863 Q1217 64.6767 1211.09 69.2137 Q1205.21 73.7508 1193.83 73.7508 Q1189.54 73.7508 1184.68 72.7785 Q1179.86 71.8063 1174.67 69.9024 L1174.67 61.4765 Q1179.65 64.2716 1184.43 65.6895 Q1189.21 67.1073 1193.83 67.1073 Q1200.84 67.1073 1204.65 64.3527 Q1208.46 61.598 1208.46 56.4939 Q1208.46 52.0379 1205.7 49.5264 Q1202.99 47.0148 1196.75 45.759 L1191.77 44.7868 Q1182.61 42.9639 1178.52 39.075 Q1174.43 35.1862 1174.43 28.2591 Q1174.43 20.2383 1180.06 15.6203 Q1185.73 11.0023 1195.65 11.0023 Q1199.91 11.0023 1204.32 11.7719 Q1208.74 12.5416 1213.36 14.0809 Z" fill="#000000" fill-rule="nonzero" fill-opacity="1" /><path clip-path="url(#clip610)" d="M1229.76 12.096 L1237.95 12.096 L1237.95 72.576 L1229.76 72.576 L1229.76 12.096 Z" fill="#000000" fill-rule="nonzero" fill-opacity="1" /><path clip-path="url(#clip610)" d="M1282.91 44.2197 Q1285.54 45.1109 1288.01 48.0275 Q1290.53 50.9442 1293.04 56.0483 L1301.34 72.576 L1292.55 72.576 L1284.81 57.061 Q1281.82 50.9847 1278.98 48.9997 Q1276.19 47.0148 1271.33 47.0148 L1262.41 47.0148 L1262.41 72.576 L1254.23 72.576 L1254.23 12.096 L1272.7 12.096 Q1283.07 12.096 1288.18 16.4305 Q1293.28 20.7649 1293.28 29.5149 Q1293.28 35.2267 1290.61 38.994 Q1287.97 42.7613 1282.91 44.2197 M1262.41 18.8205 L1262.41 40.2903 L1272.7 40.2903 Q1278.62 40.2903 1281.61 37.5762 Q1284.65 34.8216 1284.65 29.5149 Q1284.65 24.2082 1281.61 21.5346 Q1278.62 18.8205 1272.7 18.8205 L1262.41 18.8205 Z" fill="#000000" fill-rule="nonzero" fill-opacity="1" /><path clip-path="url(#clip610)" d="M1346.43 18.8205 L1346.43 65.8515 L1356.31 65.8515 Q1368.83 65.8515 1374.62 60.1802 Q1380.46 54.509 1380.46 42.2752 Q1380.46 30.1225 1374.62 24.4918 Q1368.83 18.8205 1356.31 18.8205 L1346.43 18.8205 M1338.25 12.096 L1355.06 12.096 Q1372.64 12.096 1380.86 19.4281 Q1389.09 26.7198 1389.09 42.2752 Q1389.09 57.9117 1380.82 65.2439 Q1372.56 72.576 1355.06 72.576 L1338.25 72.576 L1338.25 12.096 Z" fill="#000000" fill-rule="nonzero" fill-opacity="1" /><path clip-path="url(#clip610)" d="M1420.68 76.7889 Q1417.52 84.8907 1414.52 87.3618 Q1411.53 89.8329 1406.5 89.8329 L1400.55 89.8329 L1400.55 83.5945 L1404.92 83.5945 Q1408 83.5945 1409.7 82.1361 Q1411.41 80.6778 1413.47 75.2496 L1414.81 71.8468 L1396.46 27.2059 L1404.36 27.2059 L1418.54 62.6918 L1432.71 27.2059 L1440.61 27.2059 L1420.68 76.7889 Z" fill="#000000" fill-rule="nonzero" fill-opacity="1" /><path clip-path="url(#clip610)" d="M1488.62 45.1919 L1488.62 72.576 L1481.16 72.576 L1481.16 45.4349 Q1481.16 38.994 1478.65 35.7938 Q1476.14 32.5936 1471.12 32.5936 Q1465.08 32.5936 1461.6 36.4419 Q1458.11 40.2903 1458.11 46.9338 L1458.11 72.576 L1450.62 72.576 L1450.62 27.2059 L1458.11 27.2059 L1458.11 34.2544 Q1460.79 30.163 1464.39 28.1376 Q1468.04 26.1121 1472.78 26.1121 Q1480.59 26.1121 1484.61 30.9732 Q1488.62 35.7938 1488.62 45.1919 Z" fill="#000000" fill-rule="nonzero" fill-opacity="1" /><path clip-path="url(#clip610)" d="M1524.1 49.7694 Q1515.07 49.7694 1511.58 51.8354 Q1508.1 53.9013 1508.1 58.8839 Q1508.1 62.8538 1510.69 65.2034 Q1513.33 67.5124 1517.82 67.5124 Q1524.02 67.5124 1527.75 63.1374 Q1531.51 58.7219 1531.51 51.4303 L1531.51 49.7694 L1524.1 49.7694 M1538.97 46.6907 L1538.97 72.576 L1531.51 72.576 L1531.51 65.6895 Q1528.96 69.8214 1525.15 71.8063 Q1521.35 73.7508 1515.84 73.7508 Q1508.87 73.7508 1504.74 69.8619 Q1500.65 65.9325 1500.65 59.3701 Q1500.65 51.7138 1505.75 47.825 Q1510.9 43.9361 1521.06 43.9361 L1531.51 43.9361 L1531.51 43.2069 Q1531.51 38.0623 1528.11 35.2672 Q1524.75 32.4315 1518.63 32.4315 Q1514.74 32.4315 1511.06 33.3632 Q1507.37 34.295 1503.97 36.1584 L1503.97 29.2718 Q1508.06 27.692 1511.91 26.9223 Q1515.76 26.1121 1519.4 26.1121 Q1529.25 26.1121 1534.11 31.2163 Q1538.97 36.3204 1538.97 46.6907 Z" fill="#000000" fill-rule="nonzero" fill-opacity="1" /><path clip-path="url(#clip610)" d="M1589.65 35.9153 Q1592.44 30.8922 1596.33 28.5022 Q1600.22 26.1121 1605.48 26.1121 Q1612.57 26.1121 1616.42 31.0947 Q1620.27 36.0368 1620.27 45.1919 L1620.27 72.576 L1612.78 72.576 L1612.78 45.4349 Q1612.78 38.913 1610.47 35.7533 Q1608.16 32.5936 1603.42 32.5936 Q1597.63 32.5936 1594.26 36.4419 Q1590.9 40.2903 1590.9 46.9338 L1590.9 72.576 L1583.41 72.576 L1583.41 45.4349 Q1583.41 38.8725 1581.1 35.7533 Q1578.79 32.5936 1573.97 32.5936 Q1568.26 32.5936 1564.89 36.4824 Q1561.53 40.3308 1561.53 46.9338 L1561.53 72.576 L1554.04 72.576 L1554.04 27.2059 L1561.53 27.2059 L1561.53 34.2544 Q1564.08 30.082 1567.65 28.0971 Q1571.21 26.1121 1576.12 26.1121 Q1581.06 26.1121 1584.5 28.6237 Q1587.98 31.1352 1589.65 35.9153 Z" fill="#000000" fill-rule="nonzero" fill-opacity="1" /><path clip-path="url(#clip610)" d="M1635.14 27.2059 L1642.59 27.2059 L1642.59 72.576 L1635.14 72.576 L1635.14 27.2059 M1635.14 9.54393 L1642.59 9.54393 L1642.59 18.9825 L1635.14 18.9825 L1635.14 9.54393 Z" fill="#000000" fill-rule="nonzero" fill-opacity="1" /><path clip-path="url(#clip610)" d="M1690.84 28.9478 L1690.84 35.9153 Q1687.68 34.1734 1684.48 33.3227 Q1681.32 32.4315 1678.08 32.4315 Q1670.83 32.4315 1666.82 37.0496 Q1662.8 41.6271 1662.8 49.9314 Q1662.8 58.2358 1666.82 62.8538 Q1670.83 67.4314 1678.08 67.4314 Q1681.32 67.4314 1684.48 66.5807 Q1687.68 65.6895 1690.84 63.9476 L1690.84 70.8341 Q1687.72 72.2924 1684.36 73.0216 Q1681.03 73.7508 1677.27 73.7508 Q1667.02 73.7508 1660.98 67.3098 Q1654.95 60.8689 1654.95 49.9314 Q1654.95 38.832 1661.02 32.472 Q1667.14 26.1121 1677.75 26.1121 Q1681.2 26.1121 1684.48 26.8413 Q1687.76 27.5299 1690.84 28.9478 Z" fill="#000000" fill-rule="nonzero" fill-opacity="1" /><path clip-path="url(#clip610)" d="M1732.72 28.5427 L1732.72 35.5912 Q1729.56 33.9709 1726.16 33.1607 Q1722.76 32.3505 1719.11 32.3505 Q1713.56 32.3505 1710.77 34.0519 Q1708.01 35.7533 1708.01 39.156 Q1708.01 41.7486 1710 43.2475 Q1711.98 44.7058 1717.98 46.0426 L1720.53 46.6097 Q1728.47 48.3111 1731.79 51.4303 Q1735.15 54.509 1735.15 60.0587 Q1735.15 66.3781 1730.13 70.0644 Q1725.15 73.7508 1716.4 73.7508 Q1712.75 73.7508 1708.78 73.0216 Q1704.85 72.3329 1700.48 70.9151 L1700.48 63.2184 Q1704.61 65.3654 1708.62 66.4591 Q1712.63 67.5124 1716.56 67.5124 Q1721.83 67.5124 1724.66 65.73 Q1727.5 63.9071 1727.5 60.6258 Q1727.5 57.5877 1725.43 55.9673 Q1723.41 54.3469 1716.48 52.8481 L1713.89 52.2405 Q1706.96 50.7821 1703.88 47.7845 Q1700.8 44.7463 1700.8 39.4801 Q1700.8 33.0797 1705.34 29.5959 Q1709.88 26.1121 1718.22 26.1121 Q1722.35 26.1121 1726 26.7198 Q1729.64 27.3274 1732.72 28.5427 Z" fill="#000000" fill-rule="nonzero" fill-opacity="1" /><polyline clip-path="url(#clip611)" style="stroke:#0000ff; stroke-linecap:round; stroke-linejoin:round; stroke-width:8; stroke-opacity:1; fill:none" points="335.956,173.254 391.897,180.939 447.839,190.16 503.781,202.456 559.723,219.362 615.664,237.805 671.606,259.322 727.548,273.154 783.49,299.281 839.431,319.261 895.373,345.389 951.315,365.369 1007.26,402.255 1063.2,428.382 1119.14,456.047 1175.08,492.933 1231.02,529.819 1286.97,571.316 1342.91,612.813 1398.85,651.236 1454.79,689.658 1510.73,717.323 1566.67,754.209 1622.62,774.189 1678.56,794.169 1734.5,820.296 1790.44,846.424 1846.38,860.256 1902.32,877.162 1958.27,883.31 2014.21,895.605 2070.15,914.048 2126.09,930.955 2182.03,944.787 2237.98,955.545 2293.92,969.377 2349.86,981.673 2405.8,990.894 2461.74,998.579 2517.68,1009.34 2573.63,1015.49 "/>
<polyline clip-path="url(#clip611)" style="stroke:#ff0000; stroke-linecap:round; stroke-linejoin:round; stroke-width:8; stroke-opacity:1; fill:none" points="335.956,1667.14 391.897,1668.68 447.839,1660.99 503.781,1651.77 559.723,1639.47 615.664,1628.72 671.606,1624.1 727.548,1633.33 783.49,1619.49 839.431,1616.42 895.373,1607.2 951.315,1605.66 1007.26,1588.76 1063.2,1584.14 1119.14,1581.07 1175.08,1562.63 1231.02,1545.72 1286.97,1538.04 1342.91,1536.5 1398.85,1516.52 1454.79,1524.2 1510.73,1541.11 1566.67,1533.43 1622.62,1559.55 1678.56,1571.85 1734.5,1578 1790.44,1570.31 1846.38,1591.83 1902.32,1594.9 1958.27,1610.27 2014.21,1611.81 2070.15,1604.12 2126.09,1608.74 2182.03,1611.81 2237.98,1614.88 2293.92,1614.88 2349.86,1614.88 2405.8,1625.64 2461.74,1636.4 2517.68,1634.86 2573.63,1648.7 "/>
<polyline clip-path="url(#clip611)" style="stroke:#008000; stroke-linecap:round; stroke-linejoin:round; stroke-width:8; stroke-opacity:1; fill:none" points="335.956,1688.65 391.897,1679.43 447.839,1677.9 503.781,1674.82 559.723,1670.21 615.664,1662.53 671.606,1645.62 727.548,1622.57 783.49,1610.27 839.431,1593.37 895.373,1576.46 951.315,1558.02 1007.26,1538.04 1063.2,1516.52 1119.14,1491.93 1175.08,1473.49 1231.02,1453.51 1286.97,1419.69 1342.91,1379.73 1398.85,1361.29 1454.79,1315.18 1510.73,1270.61 1566.67,1241.41 1622.62,1195.3 1678.56,1163.03 1734.5,1130.75 1790.44,1112.31 1846.38,1076.96 1902.32,1056.98 1958.27,1035.46 2014.21,1021.63 2070.15,1010.87 2126.09,989.357 2182.03,972.451 2237.98,958.619 2293.92,944.787 2349.86,932.491 2405.8,912.512 2461.74,894.069 2517.68,884.847 2573.63,864.867 "/>
<path clip-path="url(#clip610)" d="M2055.8 388.696 L2561.69 388.696 L2561.69 181.336 L2055.8 181.336  Z" fill="#ffffff" fill-rule="evenodd" fill-opacity="1"/>
<polyline clip-path="url(#clip610)" style="stroke:#000000; stroke-linecap:round; stroke-linejoin:round; stroke-width:4; stroke-opacity:1; fill:none" points="2055.8,388.696 2561.69,388.696 2561.69,181.336 2055.8,181.336 2055.8,388.696 "/>
<polyline clip-path="url(#clip610)" style="stroke:#0000ff; stroke-linecap:round; stroke-linejoin:round; stroke-width:8; stroke-opacity:1; fill:none" points="2082.15,233.176 2240.28,233.176 "/>
<path clip-path="url(#clip610)" d="M2288.88 217.031 L2288.88 221.591 Q2286.22 220.318 2283.86 219.693 Q2281.5 219.068 2279.3 219.068 Q2275.48 219.068 2273.39 220.549 Q2271.33 222.031 2271.33 224.762 Q2271.33 227.054 2272.7 228.234 Q2274.09 229.392 2277.93 230.109 L2280.75 230.688 Q2285.99 231.683 2288.46 234.206 Q2290.96 236.706 2290.96 240.919 Q2290.96 245.942 2287.58 248.535 Q2284.23 251.128 2277.72 251.128 Q2275.27 251.128 2272.49 250.572 Q2269.74 250.016 2266.77 248.929 L2266.77 244.114 Q2269.62 245.711 2272.35 246.521 Q2275.08 247.331 2277.72 247.331 Q2281.73 247.331 2283.9 245.757 Q2286.08 244.183 2286.08 241.267 Q2286.08 238.72 2284.5 237.285 Q2282.95 235.85 2279.39 235.132 L2276.54 234.577 Q2271.31 233.535 2268.97 231.313 Q2266.63 229.091 2266.63 225.132 Q2266.63 220.549 2269.85 217.91 Q2273.09 215.271 2278.76 215.271 Q2281.19 215.271 2283.72 215.711 Q2286.24 216.151 2288.88 217.031 Z" fill="#000000" fill-rule="nonzero" fill-opacity="1" /><path clip-path="url(#clip610)" d="M2297.63 240.225 L2297.63 224.531 L2301.89 224.531 L2301.89 240.063 Q2301.89 243.743 2303.32 245.595 Q2304.76 247.424 2307.63 247.424 Q2311.08 247.424 2313.07 245.225 Q2315.08 243.026 2315.08 239.229 L2315.08 224.531 L2319.34 224.531 L2319.34 250.456 L2315.08 250.456 L2315.08 246.475 Q2313.53 248.836 2311.47 249.993 Q2309.44 251.128 2306.73 251.128 Q2302.26 251.128 2299.94 248.35 Q2297.63 245.572 2297.63 240.225 M2308.35 223.906 L2308.35 223.906 Z" fill="#000000" fill-rule="nonzero" fill-opacity="1" /><path clip-path="url(#clip610)" d="M2344.64 225.294 L2344.64 229.322 Q2342.84 228.396 2340.89 227.933 Q2338.95 227.47 2336.87 227.47 Q2333.69 227.47 2332.1 228.443 Q2330.52 229.415 2330.52 231.359 Q2330.52 232.841 2331.66 233.697 Q2332.79 234.53 2336.22 235.294 L2337.68 235.618 Q2342.21 236.591 2344.11 238.373 Q2346.03 240.132 2346.03 243.304 Q2346.03 246.915 2343.16 249.021 Q2340.31 251.128 2335.31 251.128 Q2333.23 251.128 2330.96 250.711 Q2328.72 250.317 2326.22 249.507 L2326.22 245.109 Q2328.58 246.336 2330.87 246.961 Q2333.16 247.563 2335.41 247.563 Q2338.42 247.563 2340.04 246.544 Q2341.66 245.503 2341.66 243.628 Q2341.66 241.892 2340.48 240.966 Q2339.32 240.04 2335.36 239.183 L2333.88 238.836 Q2329.92 238.003 2328.16 236.29 Q2326.4 234.554 2326.4 231.544 Q2326.4 227.887 2329 225.896 Q2331.59 223.906 2336.36 223.906 Q2338.72 223.906 2340.8 224.253 Q2342.88 224.6 2344.64 225.294 Z" fill="#000000" fill-rule="nonzero" fill-opacity="1" /><path clip-path="url(#clip610)" d="M2371.47 225.526 L2371.47 229.507 Q2369.67 228.512 2367.84 228.026 Q2366.03 227.517 2364.18 227.517 Q2360.04 227.517 2357.75 230.155 Q2355.45 232.771 2355.45 237.517 Q2355.45 242.262 2357.75 244.901 Q2360.04 247.516 2364.18 247.516 Q2366.03 247.516 2367.84 247.03 Q2369.67 246.521 2371.47 245.526 L2371.47 249.461 Q2369.69 250.294 2367.77 250.711 Q2365.87 251.128 2363.72 251.128 Q2357.86 251.128 2354.41 247.447 Q2350.96 243.767 2350.96 237.517 Q2350.96 231.174 2354.43 227.54 Q2357.93 223.906 2364 223.906 Q2365.96 223.906 2367.84 224.322 Q2369.71 224.716 2371.47 225.526 Z" fill="#000000" fill-rule="nonzero" fill-opacity="1" /><path clip-path="url(#clip610)" d="M2401.06 236.429 L2401.06 238.512 L2381.47 238.512 Q2381.75 242.91 2384.11 245.225 Q2386.49 247.516 2390.73 247.516 Q2393.18 247.516 2395.48 246.915 Q2397.79 246.313 2400.06 245.109 L2400.06 249.137 Q2397.77 250.109 2395.36 250.618 Q2392.95 251.128 2390.48 251.128 Q2384.27 251.128 2380.64 247.516 Q2377.03 243.905 2377.03 237.748 Q2377.03 231.382 2380.45 227.655 Q2383.9 223.906 2389.74 223.906 Q2394.97 223.906 2398 227.285 Q2401.06 230.642 2401.06 236.429 M2396.8 235.179 Q2396.75 231.683 2394.83 229.6 Q2392.93 227.517 2389.78 227.517 Q2386.22 227.517 2384.06 229.53 Q2381.93 231.544 2381.61 235.202 L2396.8 235.179 Z" fill="#000000" fill-rule="nonzero" fill-opacity="1" /><path clip-path="url(#clip610)" d="M2412.17 246.567 L2412.17 260.317 L2407.88 260.317 L2407.88 224.531 L2412.17 224.531 L2412.17 228.466 Q2413.51 226.151 2415.55 225.04 Q2417.61 223.906 2420.45 223.906 Q2425.18 223.906 2428.12 227.655 Q2431.08 231.405 2431.08 237.517 Q2431.08 243.628 2428.12 247.378 Q2425.18 251.128 2420.45 251.128 Q2417.61 251.128 2415.55 250.016 Q2413.51 248.882 2412.17 246.567 M2426.66 237.517 Q2426.66 232.817 2424.71 230.155 Q2422.79 227.47 2419.41 227.47 Q2416.03 227.47 2414.09 230.155 Q2412.17 232.817 2412.17 237.517 Q2412.17 242.216 2414.09 244.901 Q2416.03 247.563 2419.41 247.563 Q2422.79 247.563 2424.71 244.901 Q2426.66 242.216 2426.66 237.517 Z" fill="#000000" fill-rule="nonzero" fill-opacity="1" /><path clip-path="url(#clip610)" d="M2442.35 217.169 L2442.35 224.531 L2451.12 224.531 L2451.12 227.841 L2442.35 227.841 L2442.35 241.915 Q2442.35 245.086 2443.21 245.989 Q2444.09 246.891 2446.75 246.891 L2451.12 246.891 L2451.12 250.456 L2446.75 250.456 Q2441.82 250.456 2439.94 248.628 Q2438.07 246.776 2438.07 241.915 L2438.07 227.841 L2434.94 227.841 L2434.94 224.531 L2438.07 224.531 L2438.07 217.169 L2442.35 217.169 Z" fill="#000000" fill-rule="nonzero" fill-opacity="1" /><path clip-path="url(#clip610)" d="M2456.73 224.531 L2460.99 224.531 L2460.99 250.456 L2456.73 250.456 L2456.73 224.531 M2456.73 214.438 L2460.99 214.438 L2460.99 219.831 L2456.73 219.831 L2456.73 214.438 Z" fill="#000000" fill-rule="nonzero" fill-opacity="1" /><path clip-path="url(#clip610)" d="M2488.51 237.517 Q2488.51 232.817 2486.56 230.155 Q2484.64 227.47 2481.26 227.47 Q2477.88 227.47 2475.94 230.155 Q2474.02 232.817 2474.02 237.517 Q2474.02 242.216 2475.94 244.901 Q2477.88 247.563 2481.26 247.563 Q2484.64 247.563 2486.56 244.901 Q2488.51 242.216 2488.51 237.517 M2474.02 228.466 Q2475.36 226.151 2477.4 225.04 Q2479.46 223.906 2482.3 223.906 Q2487.03 223.906 2489.97 227.655 Q2492.93 231.405 2492.93 237.517 Q2492.93 243.628 2489.97 247.378 Q2487.03 251.128 2482.3 251.128 Q2479.46 251.128 2477.4 250.016 Q2475.36 248.882 2474.02 246.567 L2474.02 250.456 L2469.74 250.456 L2469.74 214.438 L2474.02 214.438 L2474.02 228.466 Z" fill="#000000" fill-rule="nonzero" fill-opacity="1" /><path clip-path="url(#clip610)" d="M2499.99 214.438 L2504.25 214.438 L2504.25 250.456 L2499.99 250.456 L2499.99 214.438 Z" fill="#000000" fill-rule="nonzero" fill-opacity="1" /><path clip-path="url(#clip610)" d="M2535.34 236.429 L2535.34 238.512 L2515.75 238.512 Q2516.03 242.91 2518.39 245.225 Q2520.78 247.516 2525.01 247.516 Q2527.47 247.516 2529.76 246.915 Q2532.07 246.313 2534.34 245.109 L2534.34 249.137 Q2532.05 250.109 2529.64 250.618 Q2527.23 251.128 2524.76 251.128 Q2518.55 251.128 2514.92 247.516 Q2511.31 243.905 2511.31 237.748 Q2511.31 231.382 2514.74 227.655 Q2518.18 223.906 2524.02 223.906 Q2529.25 223.906 2532.28 227.285 Q2535.34 230.642 2535.34 236.429 M2531.08 235.179 Q2531.03 231.683 2529.11 229.6 Q2527.21 227.517 2524.06 227.517 Q2520.5 227.517 2518.35 229.53 Q2516.22 231.544 2515.89 235.202 L2531.08 235.179 Z" fill="#000000" fill-rule="nonzero" fill-opacity="1" /><polyline clip-path="url(#clip610)" style="stroke:#ff0000; stroke-linecap:round; stroke-linejoin:round; stroke-width:8; stroke-opacity:1; fill:none" points="2082.15,285.016 2240.28,285.016 "/>
<path clip-path="url(#clip610)" d="M2266.63 267.736 L2271.31 267.736 L2271.31 302.296 L2266.63 302.296 L2266.63 267.736 Z" fill="#000000" fill-rule="nonzero" fill-opacity="1" /><path clip-path="url(#clip610)" d="M2301.98 286.648 L2301.98 302.296 L2297.72 302.296 L2297.72 286.787 Q2297.72 283.107 2296.29 281.278 Q2294.85 279.449 2291.98 279.449 Q2288.53 279.449 2286.54 281.648 Q2284.55 283.847 2284.55 287.644 L2284.55 302.296 L2280.27 302.296 L2280.27 276.371 L2284.55 276.371 L2284.55 280.398 Q2286.08 278.06 2288.14 276.903 Q2290.22 275.746 2292.93 275.746 Q2297.4 275.746 2299.69 278.523 Q2301.98 281.278 2301.98 286.648 Z" fill="#000000" fill-rule="nonzero" fill-opacity="1" /><path clip-path="url(#clip610)" d="M2323.6 266.278 L2323.6 269.82 L2319.53 269.82 Q2317.24 269.82 2316.33 270.746 Q2315.45 271.671 2315.45 274.079 L2315.45 276.371 L2322.47 276.371 L2322.47 279.681 L2315.45 279.681 L2315.45 302.296 L2311.17 302.296 L2311.17 279.681 L2307.1 279.681 L2307.1 276.371 L2311.17 276.371 L2311.17 274.565 Q2311.17 270.236 2313.19 268.269 Q2315.2 266.278 2319.57 266.278 L2323.6 266.278 Z" fill="#000000" fill-rule="nonzero" fill-opacity="1" /><path clip-path="url(#clip610)" d="M2349.34 288.269 L2349.34 290.352 L2329.76 290.352 Q2330.04 294.75 2332.4 297.065 Q2334.78 299.356 2339.02 299.356 Q2341.47 299.356 2343.76 298.755 Q2346.08 298.153 2348.35 296.949 L2348.35 300.977 Q2346.06 301.949 2343.65 302.458 Q2341.24 302.968 2338.76 302.968 Q2332.56 302.968 2328.93 299.356 Q2325.31 295.745 2325.31 289.588 Q2325.31 283.222 2328.74 279.495 Q2332.19 275.746 2338.02 275.746 Q2343.25 275.746 2346.29 279.125 Q2349.34 282.482 2349.34 288.269 M2345.08 287.019 Q2345.04 283.523 2343.12 281.44 Q2341.22 279.357 2338.07 279.357 Q2334.5 279.357 2332.35 281.37 Q2330.22 283.384 2329.9 287.042 L2345.08 287.019 Z" fill="#000000" fill-rule="nonzero" fill-opacity="1" /><path clip-path="url(#clip610)" d="M2374.99 277.366 L2374.99 281.347 Q2373.18 280.352 2371.36 279.866 Q2369.55 279.357 2367.7 279.357 Q2363.56 279.357 2361.26 281.995 Q2358.97 284.611 2358.97 289.357 Q2358.97 294.102 2361.26 296.741 Q2363.56 299.356 2367.7 299.356 Q2369.55 299.356 2371.36 298.87 Q2373.18 298.361 2374.99 297.366 L2374.99 301.301 Q2373.21 302.134 2371.29 302.551 Q2369.39 302.968 2367.24 302.968 Q2361.38 302.968 2357.93 299.287 Q2354.48 295.607 2354.48 289.357 Q2354.48 283.014 2357.95 279.38 Q2361.45 275.746 2367.51 275.746 Q2369.48 275.746 2371.36 276.162 Q2373.23 276.556 2374.99 277.366 Z" fill="#000000" fill-rule="nonzero" fill-opacity="1" /><path clip-path="url(#clip610)" d="M2386.61 269.009 L2386.61 276.371 L2395.38 276.371 L2395.38 279.681 L2386.61 279.681 L2386.61 293.755 Q2386.61 296.926 2387.47 297.829 Q2388.35 298.731 2391.01 298.731 L2395.38 298.731 L2395.38 302.296 L2391.01 302.296 Q2386.08 302.296 2384.2 300.468 Q2382.33 298.616 2382.33 293.755 L2382.33 279.681 L2379.2 279.681 L2379.2 276.371 L2382.33 276.371 L2382.33 269.009 L2386.61 269.009 Z" fill="#000000" fill-rule="nonzero" fill-opacity="1" /><path clip-path="url(#clip610)" d="M2423.16 288.269 L2423.16 290.352 L2403.58 290.352 Q2403.86 294.75 2406.22 297.065 Q2408.6 299.356 2412.84 299.356 Q2415.29 299.356 2417.58 298.755 Q2419.9 298.153 2422.17 296.949 L2422.17 300.977 Q2419.87 301.949 2417.47 302.458 Q2415.06 302.968 2412.58 302.968 Q2406.38 302.968 2402.74 299.356 Q2399.13 295.745 2399.13 289.588 Q2399.13 283.222 2402.56 279.495 Q2406.01 275.746 2411.84 275.746 Q2417.07 275.746 2420.11 279.125 Q2423.16 282.482 2423.16 288.269 M2418.9 287.019 Q2418.86 283.523 2416.93 281.44 Q2415.04 279.357 2411.89 279.357 Q2408.32 279.357 2406.17 281.37 Q2404.04 283.384 2403.72 287.042 L2418.9 287.019 Z" fill="#000000" fill-rule="nonzero" fill-opacity="1" /><path clip-path="url(#clip610)" d="M2447.21 280.306 L2447.21 266.278 L2451.47 266.278 L2451.47 302.296 L2447.21 302.296 L2447.21 298.407 Q2445.87 300.722 2443.81 301.856 Q2441.77 302.968 2438.9 302.968 Q2434.2 302.968 2431.24 299.218 Q2428.3 295.468 2428.3 289.357 Q2428.3 283.245 2431.24 279.495 Q2434.2 275.746 2438.9 275.746 Q2441.77 275.746 2443.81 276.88 Q2445.87 277.991 2447.21 280.306 M2432.7 289.357 Q2432.7 294.056 2434.62 296.741 Q2436.56 299.403 2439.94 299.403 Q2443.32 299.403 2445.27 296.741 Q2447.21 294.056 2447.21 289.357 Q2447.21 284.657 2445.27 281.995 Q2443.32 279.31 2439.94 279.31 Q2436.56 279.31 2434.62 281.995 Q2432.7 284.657 2432.7 289.357 Z" fill="#000000" fill-rule="nonzero" fill-opacity="1" /><polyline clip-path="url(#clip610)" style="stroke:#008000; stroke-linecap:round; stroke-linejoin:round; stroke-width:8; stroke-opacity:1; fill:none" points="2082.15,336.856 2240.28,336.856 "/>
<path clip-path="url(#clip610)" d="M2283.02 337.933 Q2284.53 338.442 2285.94 340.109 Q2287.38 341.775 2288.81 344.692 L2293.56 354.136 L2288.53 354.136 L2284.11 345.271 Q2282.4 341.798 2280.78 340.664 Q2279.18 339.53 2276.4 339.53 L2271.31 339.53 L2271.31 354.136 L2266.63 354.136 L2266.63 319.576 L2277.19 319.576 Q2283.12 319.576 2286.03 322.053 Q2288.95 324.53 2288.95 329.53 Q2288.95 332.794 2287.42 334.947 Q2285.92 337.099 2283.02 337.933 M2271.31 323.419 L2271.31 335.687 L2277.19 335.687 Q2280.57 335.687 2282.28 334.136 Q2284.02 332.562 2284.02 329.53 Q2284.02 326.498 2282.28 324.97 Q2280.57 323.419 2277.19 323.419 L2271.31 323.419 Z" fill="#000000" fill-rule="nonzero" fill-opacity="1" /><path clip-path="url(#clip610)" d="M2319.44 340.109 L2319.44 342.192 L2299.85 342.192 Q2300.13 346.59 2302.49 348.905 Q2304.88 351.196 2309.11 351.196 Q2311.56 351.196 2313.86 350.595 Q2316.17 349.993 2318.44 348.789 L2318.44 352.817 Q2316.15 353.789 2313.74 354.298 Q2311.33 354.808 2308.86 354.808 Q2302.65 354.808 2299.02 351.196 Q2295.41 347.585 2295.41 341.428 Q2295.41 335.062 2298.83 331.335 Q2302.28 327.586 2308.12 327.586 Q2313.35 327.586 2316.38 330.965 Q2319.44 334.322 2319.44 340.109 M2315.18 338.859 Q2315.13 335.363 2313.21 333.28 Q2311.31 331.197 2308.16 331.197 Q2304.6 331.197 2302.44 333.21 Q2300.31 335.224 2299.99 338.882 L2315.18 338.859 Z" fill="#000000" fill-rule="nonzero" fill-opacity="1" /><path clip-path="url(#clip610)" d="M2345.08 329.206 L2345.08 333.187 Q2343.28 332.192 2341.45 331.706 Q2339.64 331.197 2337.79 331.197 Q2333.65 331.197 2331.36 333.835 Q2329.06 336.451 2329.06 341.197 Q2329.06 345.942 2331.36 348.581 Q2333.65 351.196 2337.79 351.196 Q2339.64 351.196 2341.45 350.71 Q2343.28 350.201 2345.08 349.206 L2345.08 353.141 Q2343.3 353.974 2341.38 354.391 Q2339.48 354.808 2337.33 354.808 Q2331.47 354.808 2328.02 351.127 Q2324.57 347.447 2324.57 341.197 Q2324.57 334.854 2328.05 331.22 Q2331.54 327.586 2337.61 327.586 Q2339.57 327.586 2341.45 328.002 Q2343.32 328.396 2345.08 329.206 Z" fill="#000000" fill-rule="nonzero" fill-opacity="1" /><path clip-path="url(#clip610)" d="M2362.54 331.197 Q2359.11 331.197 2357.12 333.882 Q2355.13 336.544 2355.13 341.197 Q2355.13 345.849 2357.1 348.534 Q2359.09 351.196 2362.54 351.196 Q2365.94 351.196 2367.93 348.511 Q2369.92 345.826 2369.92 341.197 Q2369.92 336.59 2367.93 333.905 Q2365.94 331.197 2362.54 331.197 M2362.54 327.586 Q2368.09 327.586 2371.26 331.197 Q2374.43 334.808 2374.43 341.197 Q2374.43 347.562 2371.26 351.196 Q2368.09 354.808 2362.54 354.808 Q2356.96 354.808 2353.79 351.196 Q2350.64 347.562 2350.64 341.197 Q2350.64 334.808 2353.79 331.197 Q2356.96 327.586 2362.54 327.586 Z" fill="#000000" fill-rule="nonzero" fill-opacity="1" /><path clip-path="url(#clip610)" d="M2378.44 328.211 L2382.95 328.211 L2391.06 349.97 L2399.16 328.211 L2403.67 328.211 L2393.95 354.136 L2388.16 354.136 L2378.44 328.211 Z" fill="#000000" fill-rule="nonzero" fill-opacity="1" /><path clip-path="url(#clip610)" d="M2431.73 340.109 L2431.73 342.192 L2412.14 342.192 Q2412.42 346.59 2414.78 348.905 Q2417.17 351.196 2421.4 351.196 Q2423.86 351.196 2426.15 350.595 Q2428.46 349.993 2430.73 348.789 L2430.73 352.817 Q2428.44 353.789 2426.03 354.298 Q2423.62 354.808 2421.15 354.808 Q2414.94 354.808 2411.31 351.196 Q2407.7 347.585 2407.7 341.428 Q2407.7 335.062 2411.12 331.335 Q2414.57 327.586 2420.41 327.586 Q2425.64 327.586 2428.67 330.965 Q2431.73 334.322 2431.73 340.109 M2427.47 338.859 Q2427.42 335.363 2425.5 333.28 Q2423.6 331.197 2420.45 331.197 Q2416.89 331.197 2414.74 333.21 Q2412.61 335.224 2412.28 338.882 L2427.47 338.859 Z" fill="#000000" fill-rule="nonzero" fill-opacity="1" /><path clip-path="url(#clip610)" d="M2453.74 332.192 Q2453.02 331.775 2452.17 331.59 Q2451.33 331.382 2450.31 331.382 Q2446.7 331.382 2444.76 333.743 Q2442.84 336.081 2442.84 340.479 L2442.84 354.136 L2438.55 354.136 L2438.55 328.211 L2442.84 328.211 L2442.84 332.238 Q2444.18 329.877 2446.33 328.743 Q2448.49 327.586 2451.56 327.586 Q2452 327.586 2452.54 327.655 Q2453.07 327.701 2453.72 327.817 L2453.74 332.192 Z" fill="#000000" fill-rule="nonzero" fill-opacity="1" /><path clip-path="url(#clip610)" d="M2479.34 340.109 L2479.34 342.192 L2459.76 342.192 Q2460.04 346.59 2462.4 348.905 Q2464.78 351.196 2469.02 351.196 Q2471.47 351.196 2473.76 350.595 Q2476.08 349.993 2478.35 348.789 L2478.35 352.817 Q2476.05 353.789 2473.65 354.298 Q2471.24 354.808 2468.76 354.808 Q2462.56 354.808 2458.93 351.196 Q2455.31 347.585 2455.31 341.428 Q2455.31 335.062 2458.74 331.335 Q2462.19 327.586 2468.02 327.586 Q2473.25 327.586 2476.29 330.965 Q2479.34 334.322 2479.34 340.109 M2475.08 338.859 Q2475.04 335.363 2473.11 333.28 Q2471.22 331.197 2468.07 331.197 Q2464.5 331.197 2462.35 333.21 Q2460.22 335.224 2459.9 338.882 L2475.08 338.859 Z" fill="#000000" fill-rule="nonzero" fill-opacity="1" /><path clip-path="url(#clip610)" d="M2503.39 332.146 L2503.39 318.118 L2507.65 318.118 L2507.65 354.136 L2503.39 354.136 L2503.39 350.247 Q2502.05 352.562 2499.99 353.696 Q2497.95 354.808 2495.08 354.808 Q2490.38 354.808 2487.42 351.058 Q2484.48 347.308 2484.48 341.197 Q2484.48 335.085 2487.42 331.335 Q2490.38 327.586 2495.08 327.586 Q2497.95 327.586 2499.99 328.72 Q2502.05 329.831 2503.39 332.146 M2488.88 341.197 Q2488.88 345.896 2490.8 348.581 Q2492.74 351.243 2496.12 351.243 Q2499.5 351.243 2501.45 348.581 Q2503.39 345.896 2503.39 341.197 Q2503.39 336.497 2501.45 333.835 Q2499.5 331.15 2496.12 331.15 Q2492.74 331.15 2490.8 333.835 Q2488.88 336.497 2488.88 341.197 Z" fill="#000000" fill-rule="nonzero" fill-opacity="1" /></svg>
