<?xml version="1.0" encoding="utf-8"?>
<svg xmlns="http://www.w3.org/2000/svg" xmlns:xlink="http://www.w3.org/1999/xlink" width="700" height="500" viewBox="0 0 2800 2000">
<defs>
  <clipPath id="clip360">
    <rect x="0" y="0" width="2800" height="2000"/>
  </clipPath>
</defs>
<path clip-path="url(#clip360)" d="M0 2000 L2800 2000 L2800 -4.44089e-14 L0 -4.44089e-14  Z" fill="#ffffff" fill-rule="evenodd" fill-opacity="1"/>
<defs>
  <clipPath id="clip361">
    <rect x="257" y="1013" width="2496" height="800"/>
  </clipPath>
</defs>
<path clip-path="url(#clip360)" d="M257.422 846.648 L2752.76 846.648 L2752.76 47.2441 L257.422 47.2441  Z" fill="#ffffff" fill-rule="evenodd" fill-opacity="1"/>
<defs>
  <clipPath id="clip362">
    <rect x="257" y="47" width="2496" height="800"/>
  </clipPath>
</defs>
<polyline clip-path="url(#clip362)" style="stroke:#000000; stroke-linecap:round; stroke-linejoin:round; stroke-width:2; stroke-opacity:0.1; fill:none" points="269.193,846.648 269.193,47.2441 "/>
<polyline clip-path="url(#clip362)" style="stroke:#000000; stroke-linecap:round; stroke-linejoin:round; stroke-width:2; stroke-opacity:0.1; fill:none" points="857.715,846.648 857.715,47.2441 "/>
<polyline clip-path="url(#clip362)" style="stroke:#000000; stroke-linecap:round; stroke-linejoin:round; stroke-width:2; stroke-opacity:0.1; fill:none" points="1446.24,846.648 1446.24,47.2441 "/>
<polyline clip-path="url(#clip362)" style="stroke:#000000; stroke-linecap:round; stroke-linejoin:round; stroke-width:2; stroke-opacity:0.1; fill:none" points="2034.76,846.648 2034.76,47.2441 "/>
<polyline clip-path="url(#clip362)" style="stroke:#000000; stroke-linecap:round; stroke-linejoin:round; stroke-width:2; stroke-opacity:0.1; fill:none" points="2623.28,846.648 2623.28,47.2441 "/>
<polyline clip-path="url(#clip362)" style="stroke:#000000; stroke-linecap:round; stroke-linejoin:round; stroke-width:2; stroke-opacity:0.1; fill:none" points="257.422,770.699 2752.76,770.699 "/>
<polyline clip-path="url(#clip362)" style="stroke:#000000; stroke-linecap:round; stroke-linejoin:round; stroke-width:2; stroke-opacity:0.1; fill:none" points="257.422,618.345 2752.76,618.345 "/>
<polyline clip-path="url(#clip362)" style="stroke:#000000; stroke-linecap:round; stroke-linejoin:round; stroke-width:2; stroke-opacity:0.1; fill:none" points="257.422,465.99 2752.76,465.99 "/>
<polyline clip-path="url(#clip362)" style="stroke:#000000; stroke-linecap:round; stroke-linejoin:round; stroke-width:2; stroke-opacity:0.1; fill:none" points="257.422,313.636 2752.76,313.636 "/>
<polyline clip-path="url(#clip362)" style="stroke:#000000; stroke-linecap:round; stroke-linejoin:round; stroke-width:2; stroke-opacity:0.1; fill:none" points="257.422,161.281 2752.76,161.281 "/>
<polyline clip-path="url(#clip360)" style="stroke:#000000; stroke-linecap:round; stroke-linejoin:round; stroke-width:4; stroke-opacity:1; fill:none" points="257.422,846.648 2752.76,846.648 "/>
<polyline clip-path="url(#clip360)" style="stroke:#000000; stroke-linecap:round; stroke-linejoin:round; stroke-width:4; stroke-opacity:1; fill:none" points="269.193,846.648 269.193,827.751 "/>
<polyline clip-path="url(#clip360)" style="stroke:#000000; stroke-linecap:round; stroke-linejoin:round; stroke-width:4; stroke-opacity:1; fill:none" points="857.715,846.648 857.715,827.751 "/>
<polyline clip-path="url(#clip360)" style="stroke:#000000; stroke-linecap:round; stroke-linejoin:round; stroke-width:4; stroke-opacity:1; fill:none" points="1446.24,846.648 1446.24,827.751 "/>
<polyline clip-path="url(#clip360)" style="stroke:#000000; stroke-linecap:round; stroke-linejoin:round; stroke-width:4; stroke-opacity:1; fill:none" points="2034.76,846.648 2034.76,827.751 "/>
<polyline clip-path="url(#clip360)" style="stroke:#000000; stroke-linecap:round; stroke-linejoin:round; stroke-width:4; stroke-opacity:1; fill:none" points="2623.28,846.648 2623.28,827.751 "/>
<path clip-path="url(#clip360)" d="M269.193 880.767 Q265.582 880.767 263.753 884.332 Q261.948 887.873 261.948 895.003 Q261.948 902.109 263.753 905.674 Q265.582 909.216 269.193 909.216 Q272.827 909.216 274.633 905.674 Q276.461 902.109 276.461 895.003 Q276.461 887.873 274.633 884.332 Q272.827 880.767 269.193 880.767 M269.193 877.063 Q275.003 877.063 278.059 881.67 Q281.137 886.253 281.137 895.003 Q281.137 903.73 278.059 908.336 Q275.003 912.919 269.193 912.919 Q263.383 912.919 260.304 908.336 Q257.248 903.73 257.248 895.003 Q257.248 886.253 260.304 881.67 Q263.383 877.063 269.193 877.063 Z" fill="#000000" fill-rule="nonzero" fill-opacity="1" /><path clip-path="url(#clip360)" d="M832.403 908.313 L840.041 908.313 L840.041 881.947 L831.731 883.614 L831.731 879.355 L839.995 877.688 L844.671 877.688 L844.671 908.313 L852.31 908.313 L852.31 912.248 L832.403 912.248 L832.403 908.313 Z" fill="#000000" fill-rule="nonzero" fill-opacity="1" /><path clip-path="url(#clip360)" d="M871.754 880.767 Q868.143 880.767 866.314 884.332 Q864.509 887.873 864.509 895.003 Q864.509 902.109 866.314 905.674 Q868.143 909.216 871.754 909.216 Q875.388 909.216 877.194 905.674 Q879.023 902.109 879.023 895.003 Q879.023 887.873 877.194 884.332 Q875.388 880.767 871.754 880.767 M871.754 877.063 Q877.564 877.063 880.62 881.67 Q883.699 886.253 883.699 895.003 Q883.699 903.73 880.62 908.336 Q877.564 912.919 871.754 912.919 Q865.944 912.919 862.865 908.336 Q859.81 903.73 859.81 895.003 Q859.81 886.253 862.865 881.67 Q865.944 877.063 871.754 877.063 Z" fill="#000000" fill-rule="nonzero" fill-opacity="1" /><path clip-path="url(#clip360)" d="M1425.01 908.313 L1441.33 908.313 L1441.33 912.248 L1419.39 912.248 L1419.39 908.313 Q1422.05 905.558 1426.63 900.929 Q1431.24 896.276 1432.42 894.933 Q1434.66 892.41 1435.54 890.674 Q1436.45 888.915 1436.45 887.225 Q1436.45 884.471 1434.5 882.734 Q1432.58 880.998 1429.48 880.998 Q1427.28 880.998 1424.83 881.762 Q1422.39 882.526 1419.62 884.077 L1419.62 879.355 Q1422.44 878.221 1424.89 877.642 Q1427.35 877.063 1429.39 877.063 Q1434.76 877.063 1437.95 879.748 Q1441.14 882.433 1441.14 886.924 Q1441.14 889.054 1440.33 890.975 Q1439.55 892.873 1437.44 895.466 Q1436.86 896.137 1433.76 899.355 Q1430.66 902.549 1425.01 908.313 Z" fill="#000000" fill-rule="nonzero" fill-opacity="1" /><path clip-path="url(#clip360)" d="M1461.14 880.767 Q1457.53 880.767 1455.7 884.332 Q1453.9 887.873 1453.9 895.003 Q1453.9 902.109 1455.7 905.674 Q1457.53 909.216 1461.14 909.216 Q1464.78 909.216 1466.58 905.674 Q1468.41 902.109 1468.41 895.003 Q1468.41 887.873 1466.58 884.332 Q1464.78 880.767 1461.14 880.767 M1461.14 877.063 Q1466.95 877.063 1470.01 881.67 Q1473.09 886.253 1473.09 895.003 Q1473.09 903.73 1470.01 908.336 Q1466.95 912.919 1461.14 912.919 Q1455.33 912.919 1452.26 908.336 Q1449.2 903.73 1449.2 895.003 Q1449.2 886.253 1452.26 881.67 Q1455.33 877.063 1461.14 877.063 Z" fill="#000000" fill-rule="nonzero" fill-opacity="1" /><path clip-path="url(#clip360)" d="M2023.6 893.614 Q2026.96 894.332 2028.83 896.6 Q2030.73 898.869 2030.73 902.202 Q2030.73 907.318 2027.21 910.119 Q2023.69 912.919 2017.21 912.919 Q2015.04 912.919 2012.72 912.48 Q2010.43 912.063 2007.98 911.206 L2007.98 906.693 Q2009.92 907.827 2012.24 908.406 Q2014.55 908.984 2017.07 908.984 Q2021.47 908.984 2023.76 907.248 Q2026.08 905.512 2026.08 902.202 Q2026.08 899.146 2023.93 897.433 Q2021.8 895.697 2017.98 895.697 L2013.95 895.697 L2013.95 891.855 L2018.16 891.855 Q2021.61 891.855 2023.44 890.489 Q2025.27 889.1 2025.27 886.508 Q2025.27 883.846 2023.37 882.433 Q2021.5 880.998 2017.98 880.998 Q2016.06 880.998 2013.86 881.415 Q2011.66 881.832 2009.02 882.711 L2009.02 878.545 Q2011.68 877.804 2014 877.434 Q2016.33 877.063 2018.39 877.063 Q2023.72 877.063 2026.82 879.494 Q2029.92 881.901 2029.92 886.021 Q2029.92 888.892 2028.28 890.883 Q2026.63 892.85 2023.6 893.614 Z" fill="#000000" fill-rule="nonzero" fill-opacity="1" /><path clip-path="url(#clip360)" d="M2049.6 880.767 Q2045.99 880.767 2044.16 884.332 Q2042.35 887.873 2042.35 895.003 Q2042.35 902.109 2044.16 905.674 Q2045.99 909.216 2049.6 909.216 Q2053.23 909.216 2055.04 905.674 Q2056.87 902.109 2056.87 895.003 Q2056.87 887.873 2055.04 884.332 Q2053.23 880.767 2049.6 880.767 M2049.6 877.063 Q2055.41 877.063 2058.46 881.67 Q2061.54 886.253 2061.54 895.003 Q2061.54 903.73 2058.46 908.336 Q2055.41 912.919 2049.6 912.919 Q2043.79 912.919 2040.71 908.336 Q2037.65 903.73 2037.65 895.003 Q2037.65 886.253 2040.71 881.67 Q2043.79 877.063 2049.6 877.063 Z" fill="#000000" fill-rule="nonzero" fill-opacity="1" /><path clip-path="url(#clip360)" d="M2611.45 881.762 L2599.65 900.211 L2611.45 900.211 L2611.45 881.762 M2610.23 877.688 L2616.11 877.688 L2616.11 900.211 L2621.04 900.211 L2621.04 904.1 L2616.11 904.1 L2616.11 912.248 L2611.45 912.248 L2611.45 904.1 L2595.85 904.1 L2595.85 899.586 L2610.23 877.688 Z" fill="#000000" fill-rule="nonzero" fill-opacity="1" /><path clip-path="url(#clip360)" d="M2638.77 880.767 Q2635.16 880.767 2633.33 884.332 Q2631.52 887.873 2631.52 895.003 Q2631.52 902.109 2633.33 905.674 Q2635.16 909.216 2638.77 909.216 Q2642.4 909.216 2644.21 905.674 Q2646.04 902.109 2646.04 895.003 Q2646.04 887.873 2644.21 884.332 Q2642.4 880.767 2638.77 880.767 M2638.77 877.063 Q2644.58 877.063 2647.63 881.67 Q2650.71 886.253 2650.71 895.003 Q2650.71 903.73 2647.63 908.336 Q2644.58 912.919 2638.77 912.919 Q2632.96 912.919 2629.88 908.336 Q2626.82 903.73 2626.82 895.003 Q2626.82 886.253 2629.88 881.67 Q2632.96 877.063 2638.77 877.063 Z" fill="#000000" fill-rule="nonzero" fill-opacity="1" /><polyline clip-path="url(#clip360)" style="stroke:#000000; stroke-linecap:round; stroke-linejoin:round; stroke-width:4; stroke-opacity:1; fill:none" points="257.422,846.648 257.422,47.2441 "/>
<polyline clip-path="url(#clip360)" style="stroke:#000000; stroke-linecap:round; stroke-linejoin:round; stroke-width:4; stroke-opacity:1; fill:none" points="257.422,770.699 276.32,770.699 "/>
<polyline clip-path="url(#clip360)" style="stroke:#000000; stroke-linecap:round; stroke-linejoin:round; stroke-width:4; stroke-opacity:1; fill:none" points="257.422,618.345 276.32,618.345 "/>
<polyline clip-path="url(#clip360)" style="stroke:#000000; stroke-linecap:round; stroke-linejoin:round; stroke-width:4; stroke-opacity:1; fill:none" points="257.422,465.99 276.32,465.99 "/>
<polyline clip-path="url(#clip360)" style="stroke:#000000; stroke-linecap:round; stroke-linejoin:round; stroke-width:4; stroke-opacity:1; fill:none" points="257.422,313.636 276.32,313.636 "/>
<polyline clip-path="url(#clip360)" style="stroke:#000000; stroke-linecap:round; stroke-linejoin:round; stroke-width:4; stroke-opacity:1; fill:none" points="257.422,161.281 276.32,161.281 "/>
<path clip-path="url(#clip360)" d="M129.682 756.498 Q126.071 756.498 124.242 760.063 Q122.437 763.605 122.437 770.734 Q122.437 777.841 124.242 781.405 Q126.071 784.947 129.682 784.947 Q133.316 784.947 135.122 781.405 Q136.951 777.841 136.951 770.734 Q136.951 763.605 135.122 760.063 Q133.316 756.498 129.682 756.498 M129.682 752.794 Q135.492 752.794 138.548 757.401 Q141.627 761.984 141.627 770.734 Q141.627 779.461 138.548 784.067 Q135.492 788.651 129.682 788.651 Q123.872 788.651 120.793 784.067 Q117.738 779.461 117.738 770.734 Q117.738 761.984 120.793 757.401 Q123.872 752.794 129.682 752.794 Z" fill="#000000" fill-rule="nonzero" fill-opacity="1" /><path clip-path="url(#clip360)" d="M149.844 782.1 L154.728 782.1 L154.728 787.979 L149.844 787.979 L149.844 782.1 Z" fill="#000000" fill-rule="nonzero" fill-opacity="1" /><path clip-path="url(#clip360)" d="M174.913 756.498 Q171.302 756.498 169.474 760.063 Q167.668 763.605 167.668 770.734 Q167.668 777.841 169.474 781.405 Q171.302 784.947 174.913 784.947 Q178.548 784.947 180.353 781.405 Q182.182 777.841 182.182 770.734 Q182.182 763.605 180.353 760.063 Q178.548 756.498 174.913 756.498 M174.913 752.794 Q180.724 752.794 183.779 757.401 Q186.858 761.984 186.858 770.734 Q186.858 779.461 183.779 784.067 Q180.724 788.651 174.913 788.651 Q169.103 788.651 166.025 784.067 Q162.969 779.461 162.969 770.734 Q162.969 761.984 166.025 757.401 Q169.103 752.794 174.913 752.794 Z" fill="#000000" fill-rule="nonzero" fill-opacity="1" /><path clip-path="url(#clip360)" d="M199.103 784.044 L215.422 784.044 L215.422 787.979 L193.478 787.979 L193.478 784.044 Q196.14 781.29 200.723 776.66 Q205.33 772.007 206.51 770.665 Q208.756 768.142 209.635 766.405 Q210.538 764.646 210.538 762.956 Q210.538 760.202 208.594 758.466 Q206.672 756.73 203.571 756.73 Q201.372 756.73 198.918 757.493 Q196.487 758.257 193.71 759.808 L193.71 755.086 Q196.534 753.952 198.987 753.373 Q201.441 752.794 203.478 752.794 Q208.848 752.794 212.043 755.48 Q215.237 758.165 215.237 762.655 Q215.237 764.785 214.427 766.706 Q213.64 768.605 211.534 771.197 Q210.955 771.868 207.853 775.086 Q204.751 778.28 199.103 784.044 Z" fill="#000000" fill-rule="nonzero" fill-opacity="1" /><path clip-path="url(#clip360)" d="M127.599 604.144 Q123.988 604.144 122.159 607.708 Q120.353 611.25 120.353 618.38 Q120.353 625.486 122.159 629.051 Q123.988 632.593 127.599 632.593 Q131.233 632.593 133.039 629.051 Q134.867 625.486 134.867 618.38 Q134.867 611.25 133.039 607.708 Q131.233 604.144 127.599 604.144 M127.599 600.44 Q133.409 600.44 136.465 605.046 Q139.543 609.63 139.543 618.38 Q139.543 627.106 136.465 631.713 Q133.409 636.296 127.599 636.296 Q121.789 636.296 118.71 631.713 Q115.654 627.106 115.654 618.38 Q115.654 609.63 118.71 605.046 Q121.789 600.44 127.599 600.44 Z" fill="#000000" fill-rule="nonzero" fill-opacity="1" /><path clip-path="url(#clip360)" d="M147.761 629.745 L152.645 629.745 L152.645 635.625 L147.761 635.625 L147.761 629.745 Z" fill="#000000" fill-rule="nonzero" fill-opacity="1" /><path clip-path="url(#clip360)" d="M172.83 604.144 Q169.219 604.144 167.39 607.708 Q165.585 611.25 165.585 618.38 Q165.585 625.486 167.39 629.051 Q169.219 632.593 172.83 632.593 Q176.464 632.593 178.27 629.051 Q180.099 625.486 180.099 618.38 Q180.099 611.25 178.27 607.708 Q176.464 604.144 172.83 604.144 M172.83 600.44 Q178.64 600.44 181.696 605.046 Q184.774 609.63 184.774 618.38 Q184.774 627.106 181.696 631.713 Q178.64 636.296 172.83 636.296 Q167.02 636.296 163.941 631.713 Q160.886 627.106 160.886 618.38 Q160.886 609.63 163.941 605.046 Q167.02 600.44 172.83 600.44 Z" fill="#000000" fill-rule="nonzero" fill-opacity="1" /><path clip-path="url(#clip360)" d="M205.839 605.139 L194.034 623.588 L205.839 623.588 L205.839 605.139 M204.612 601.065 L210.492 601.065 L210.492 623.588 L215.422 623.588 L215.422 627.477 L210.492 627.477 L210.492 635.625 L205.839 635.625 L205.839 627.477 L190.237 627.477 L190.237 622.963 L204.612 601.065 Z" fill="#000000" fill-rule="nonzero" fill-opacity="1" /><path clip-path="url(#clip360)" d="M127.923 451.789 Q124.312 451.789 122.483 455.354 Q120.678 458.896 120.678 466.025 Q120.678 473.132 122.483 476.696 Q124.312 480.238 127.923 480.238 Q131.557 480.238 133.363 476.696 Q135.191 473.132 135.191 466.025 Q135.191 458.896 133.363 455.354 Q131.557 451.789 127.923 451.789 M127.923 448.085 Q133.733 448.085 136.789 452.692 Q139.867 457.275 139.867 466.025 Q139.867 474.752 136.789 479.358 Q133.733 483.942 127.923 483.942 Q122.113 483.942 119.034 479.358 Q115.979 474.752 115.979 466.025 Q115.979 457.275 119.034 452.692 Q122.113 448.085 127.923 448.085 Z" fill="#000000" fill-rule="nonzero" fill-opacity="1" /><path clip-path="url(#clip360)" d="M148.085 477.391 L152.969 477.391 L152.969 483.27 L148.085 483.27 L148.085 477.391 Z" fill="#000000" fill-rule="nonzero" fill-opacity="1" /><path clip-path="url(#clip360)" d="M173.154 451.789 Q169.543 451.789 167.714 455.354 Q165.909 458.896 165.909 466.025 Q165.909 473.132 167.714 476.696 Q169.543 480.238 173.154 480.238 Q176.788 480.238 178.594 476.696 Q180.423 473.132 180.423 466.025 Q180.423 458.896 178.594 455.354 Q176.788 451.789 173.154 451.789 M173.154 448.085 Q178.964 448.085 182.02 452.692 Q185.099 457.275 185.099 466.025 Q185.099 474.752 182.02 479.358 Q178.964 483.942 173.154 483.942 Q167.344 483.942 164.265 479.358 Q161.21 474.752 161.21 466.025 Q161.21 457.275 164.265 452.692 Q167.344 448.085 173.154 448.085 Z" fill="#000000" fill-rule="nonzero" fill-opacity="1" /><path clip-path="url(#clip360)" d="M203.895 464.127 Q200.747 464.127 198.895 466.28 Q197.066 468.433 197.066 472.183 Q197.066 475.909 198.895 478.085 Q200.747 480.238 203.895 480.238 Q207.043 480.238 208.872 478.085 Q210.723 475.909 210.723 472.183 Q210.723 468.433 208.872 466.28 Q207.043 464.127 203.895 464.127 M213.177 449.474 L213.177 453.734 Q211.418 452.9 209.612 452.46 Q207.83 452.021 206.071 452.021 Q201.441 452.021 198.987 455.146 Q196.557 458.271 196.21 464.59 Q197.575 462.576 199.635 461.511 Q201.696 460.423 204.172 460.423 Q209.381 460.423 212.39 463.595 Q215.422 466.743 215.422 472.183 Q215.422 477.507 212.274 480.724 Q209.126 483.942 203.895 483.942 Q197.899 483.942 194.728 479.358 Q191.557 474.752 191.557 466.025 Q191.557 457.831 195.446 452.97 Q199.335 448.085 205.885 448.085 Q207.645 448.085 209.427 448.433 Q211.233 448.78 213.177 449.474 Z" fill="#000000" fill-rule="nonzero" fill-opacity="1" /><path clip-path="url(#clip360)" d="M128.178 299.435 Q124.566 299.435 122.738 302.999 Q120.932 306.541 120.932 313.671 Q120.932 320.777 122.738 324.342 Q124.566 327.884 128.178 327.884 Q131.812 327.884 133.617 324.342 Q135.446 320.777 135.446 313.671 Q135.446 306.541 133.617 302.999 Q131.812 299.435 128.178 299.435 M128.178 295.731 Q133.988 295.731 137.043 300.337 Q140.122 304.921 140.122 313.671 Q140.122 322.397 137.043 327.004 Q133.988 331.587 128.178 331.587 Q122.367 331.587 119.289 327.004 Q116.233 322.397 116.233 313.671 Q116.233 304.921 119.289 300.337 Q122.367 295.731 128.178 295.731 Z" fill="#000000" fill-rule="nonzero" fill-opacity="1" /><path clip-path="url(#clip360)" d="M148.339 325.036 L153.224 325.036 L153.224 330.916 L148.339 330.916 L148.339 325.036 Z" fill="#000000" fill-rule="nonzero" fill-opacity="1" /><path clip-path="url(#clip360)" d="M173.409 299.435 Q169.798 299.435 167.969 302.999 Q166.163 306.541 166.163 313.671 Q166.163 320.777 167.969 324.342 Q169.798 327.884 173.409 327.884 Q177.043 327.884 178.849 324.342 Q180.677 320.777 180.677 313.671 Q180.677 306.541 178.849 302.999 Q177.043 299.435 173.409 299.435 M173.409 295.731 Q179.219 295.731 182.274 300.337 Q185.353 304.921 185.353 313.671 Q185.353 322.397 182.274 327.004 Q179.219 331.587 173.409 331.587 Q167.599 331.587 164.52 327.004 Q161.464 322.397 161.464 313.671 Q161.464 304.921 164.52 300.337 Q167.599 295.731 173.409 295.731 Z" fill="#000000" fill-rule="nonzero" fill-opacity="1" /><path clip-path="url(#clip360)" d="M203.571 314.504 Q200.237 314.504 198.316 316.286 Q196.418 318.069 196.418 321.194 Q196.418 324.319 198.316 326.101 Q200.237 327.884 203.571 327.884 Q206.904 327.884 208.825 326.101 Q210.747 324.296 210.747 321.194 Q210.747 318.069 208.825 316.286 Q206.927 314.504 203.571 314.504 M198.895 312.513 Q195.885 311.773 194.196 309.712 Q192.529 307.652 192.529 304.689 Q192.529 300.546 195.469 298.138 Q198.432 295.731 203.571 295.731 Q208.733 295.731 211.672 298.138 Q214.612 300.546 214.612 304.689 Q214.612 307.652 212.922 309.712 Q211.256 311.773 208.27 312.513 Q211.649 313.3 213.524 315.592 Q215.422 317.884 215.422 321.194 Q215.422 326.217 212.344 328.902 Q209.288 331.587 203.571 331.587 Q197.853 331.587 194.774 328.902 Q191.719 326.217 191.719 321.194 Q191.719 317.884 193.617 315.592 Q195.515 313.3 198.895 312.513 M197.182 305.129 Q197.182 307.814 198.848 309.319 Q200.538 310.823 203.571 310.823 Q206.58 310.823 208.27 309.319 Q209.983 307.814 209.983 305.129 Q209.983 302.444 208.27 300.939 Q206.58 299.435 203.571 299.435 Q200.538 299.435 198.848 300.939 Q197.182 302.444 197.182 305.129 Z" fill="#000000" fill-rule="nonzero" fill-opacity="1" /><path clip-path="url(#clip360)" d="M128.085 147.08 Q124.474 147.08 122.645 150.645 Q120.84 154.187 120.84 161.316 Q120.84 168.423 122.645 171.987 Q124.474 175.529 128.085 175.529 Q131.719 175.529 133.525 171.987 Q135.353 168.423 135.353 161.316 Q135.353 154.187 133.525 150.645 Q131.719 147.08 128.085 147.08 M128.085 143.376 Q133.895 143.376 136.951 147.983 Q140.029 152.566 140.029 161.316 Q140.029 170.043 136.951 174.649 Q133.895 179.233 128.085 179.233 Q122.275 179.233 119.196 174.649 Q116.141 170.043 116.141 161.316 Q116.141 152.566 119.196 147.983 Q122.275 143.376 128.085 143.376 Z" fill="#000000" fill-rule="nonzero" fill-opacity="1" /><path clip-path="url(#clip360)" d="M148.247 172.682 L153.131 172.682 L153.131 178.561 L148.247 178.561 L148.247 172.682 Z" fill="#000000" fill-rule="nonzero" fill-opacity="1" /><path clip-path="url(#clip360)" d="M164.126 174.626 L171.765 174.626 L171.765 148.261 L163.455 149.927 L163.455 145.668 L171.719 144.001 L176.395 144.001 L176.395 174.626 L184.034 174.626 L184.034 178.561 L164.126 178.561 L164.126 174.626 Z" fill="#000000" fill-rule="nonzero" fill-opacity="1" /><path clip-path="url(#clip360)" d="M203.478 147.08 Q199.867 147.08 198.038 150.645 Q196.233 154.187 196.233 161.316 Q196.233 168.423 198.038 171.987 Q199.867 175.529 203.478 175.529 Q207.112 175.529 208.918 171.987 Q210.747 168.423 210.747 161.316 Q210.747 154.187 208.918 150.645 Q207.112 147.08 203.478 147.08 M203.478 143.376 Q209.288 143.376 212.344 147.983 Q215.422 152.566 215.422 161.316 Q215.422 170.043 212.344 174.649 Q209.288 179.233 203.478 179.233 Q197.668 179.233 194.589 174.649 Q191.534 170.043 191.534 161.316 Q191.534 152.566 194.589 147.983 Q197.668 143.376 203.478 143.376 Z" fill="#000000" fill-rule="nonzero" fill-opacity="1" /><path clip-path="url(#clip360)" d="M17.162 614.396 L35.0178 614.396 L35.0178 606.312 Q35.0178 601.824 32.6943 599.373 Q30.3708 596.922 26.074 596.922 Q21.8089 596.922 19.4855 599.373 Q17.162 601.824 17.162 606.312 L17.162 614.396 M11.8784 620.825 L11.8784 606.312 Q11.8784 598.323 15.5069 594.249 Q19.1035 590.143 26.074 590.143 Q33.1081 590.143 36.7047 594.249 Q40.3013 598.323 40.3013 606.312 L40.3013 614.396 L59.3984 614.396 L59.3984 620.825 L11.8784 620.825 Z" fill="#000000" fill-rule="nonzero" fill-opacity="1" /><path clip-path="url(#clip360)" d="M29.225 562.261 Q28.6521 563.248 28.3975 564.425 Q28.111 565.571 28.111 566.972 Q28.111 571.937 31.3575 574.61 Q34.5722 577.252 40.6196 577.252 L59.3984 577.252 L59.3984 583.14 L23.7505 583.14 L23.7505 577.252 L29.2887 577.252 Q26.0421 575.406 24.4825 572.446 Q22.8911 569.486 22.8911 565.253 Q22.8911 564.648 22.9866 563.916 Q23.0503 563.184 23.2094 562.293 L29.225 562.261 Z" fill="#000000" fill-rule="nonzero" fill-opacity="1" /><path clip-path="url(#clip360)" d="M40.1104 527.059 L42.9749 527.059 L42.9749 553.985 Q49.0223 553.604 52.2052 550.357 Q55.3562 547.079 55.3562 541.254 Q55.3562 537.88 54.5287 534.729 Q53.7011 531.546 52.0461 528.427 L57.5842 528.427 Q58.921 531.578 59.6212 534.888 Q60.3215 538.199 60.3215 541.604 Q60.3215 550.134 55.3562 555.131 Q50.391 560.097 41.9246 560.097 Q33.1717 560.097 28.0473 555.386 Q22.8911 550.643 22.8911 542.623 Q22.8911 535.429 27.5381 531.26 Q32.1532 527.059 40.1104 527.059 M38.3916 532.915 Q33.5855 532.979 30.7209 535.62 Q27.8564 538.23 27.8564 542.559 Q27.8564 547.461 30.6254 550.421 Q33.3945 553.349 38.4234 553.795 L38.3916 532.915 Z" fill="#000000" fill-rule="nonzero" fill-opacity="1" /><path clip-path="url(#clip360)" d="M23.7505 521.648 L23.7505 515.441 L53.6693 504.301 L23.7505 493.161 L23.7505 486.955 L59.3984 500.323 L59.3984 508.28 L23.7505 521.648 Z" fill="#000000" fill-rule="nonzero" fill-opacity="1" /><path clip-path="url(#clip360)" d="M41.479 462.669 Q41.479 469.767 43.1022 472.504 Q44.7255 475.242 48.6404 475.242 Q51.7596 475.242 53.6057 473.205 Q55.4199 471.136 55.4199 467.603 Q55.4199 462.733 51.9824 459.805 Q48.5131 456.845 42.7839 456.845 L41.479 456.845 L41.479 462.669 M39.06 450.988 L59.3984 450.988 L59.3984 456.845 L53.9876 456.845 Q57.2341 458.85 58.7937 461.842 Q60.3215 464.834 60.3215 469.162 Q60.3215 474.637 57.2659 477.883 Q54.1786 481.098 49.0223 481.098 Q43.0067 481.098 39.9512 477.088 Q36.8957 473.046 36.8957 465.057 L36.8957 456.845 L36.3228 456.845 Q32.2805 456.845 30.0844 459.518 Q27.8564 462.16 27.8564 466.966 Q27.8564 470.022 28.5884 472.918 Q29.3205 475.815 30.7846 478.488 L25.3737 478.488 Q24.1324 475.274 23.5277 472.25 Q22.8911 469.226 22.8911 466.362 Q22.8911 458.627 26.9015 454.808 Q30.9119 450.988 39.06 450.988 Z" fill="#000000" fill-rule="nonzero" fill-opacity="1" /><path clip-path="url(#clip360)" d="M9.87325 438.925 L9.87325 433.069 L59.3984 433.069 L59.3984 438.925 L9.87325 438.925 Z" fill="#000000" fill-rule="nonzero" fill-opacity="1" /><path clip-path="url(#clip360)" d="M40.1104 390.323 L42.9749 390.323 L42.9749 417.25 Q49.0223 416.868 52.2052 413.622 Q55.3562 410.343 55.3562 404.519 Q55.3562 401.145 54.5287 397.994 Q53.7011 394.811 52.0461 391.692 L57.5842 391.692 Q58.921 394.843 59.6212 398.153 Q60.3215 401.463 60.3215 404.869 Q60.3215 413.399 55.3562 418.396 Q50.391 423.361 41.9246 423.361 Q33.1717 423.361 28.0473 418.651 Q22.8911 413.908 22.8911 405.887 Q22.8911 398.694 27.5381 394.525 Q32.1532 390.323 40.1104 390.323 M38.3916 396.18 Q33.5855 396.243 30.7209 398.885 Q27.8564 401.495 27.8564 405.824 Q27.8564 410.725 30.6254 413.685 Q33.3945 416.614 38.4234 417.059 L38.3916 396.18 Z" fill="#000000" fill-rule="nonzero" fill-opacity="1" /><path clip-path="url(#clip360)" d="M37.8824 351.079 L59.3984 351.079 L59.3984 356.935 L38.0733 356.935 Q33.0126 356.935 30.4981 358.908 Q27.9837 360.882 27.9837 364.829 Q27.9837 369.571 31.0074 372.308 Q34.0311 375.045 39.251 375.045 L59.3984 375.045 L59.3984 380.934 L23.7505 380.934 L23.7505 375.045 L29.2887 375.045 Q26.074 372.945 24.4825 370.112 Q22.8911 367.247 22.8911 363.524 Q22.8911 357.381 26.7105 354.23 Q30.4981 351.079 37.8824 351.079 Z" fill="#000000" fill-rule="nonzero" fill-opacity="1" /><path clip-path="url(#clip360)" d="M25.1191 313.744 L30.5936 313.744 Q29.225 316.226 28.5566 318.741 Q27.8564 321.223 27.8564 323.77 Q27.8564 329.467 31.4848 332.618 Q35.0814 335.769 41.6063 335.769 Q48.1311 335.769 51.7596 332.618 Q55.3562 329.467 55.3562 323.77 Q55.3562 321.223 54.6878 318.741 Q53.9876 316.226 52.619 313.744 L58.0298 313.744 Q59.1756 316.195 59.7486 318.836 Q60.3215 321.446 60.3215 324.406 Q60.3215 332.459 55.2607 337.201 Q50.2 341.944 41.6063 341.944 Q32.8853 341.944 27.8882 337.17 Q22.8911 332.363 22.8911 324.024 Q22.8911 321.319 23.464 318.741 Q24.0051 316.163 25.1191 313.744 Z" fill="#000000" fill-rule="nonzero" fill-opacity="1" /><path clip-path="url(#clip360)" d="M40.1104 273.067 L42.9749 273.067 L42.9749 299.994 Q49.0223 299.612 52.2052 296.365 Q55.3562 293.087 55.3562 287.262 Q55.3562 283.889 54.5287 280.738 Q53.7011 277.555 52.0461 274.435 L57.5842 274.435 Q58.921 277.586 59.6212 280.897 Q60.3215 284.207 60.3215 287.612 Q60.3215 296.143 55.3562 301.14 Q50.391 306.105 41.9246 306.105 Q33.1717 306.105 28.0473 301.394 Q22.8911 296.652 22.8911 288.631 Q22.8911 281.438 27.5381 277.268 Q32.1532 273.067 40.1104 273.067 M38.3916 278.923 Q33.5855 278.987 30.7209 281.629 Q27.8564 284.239 27.8564 288.567 Q27.8564 293.469 30.6254 296.429 Q33.3945 299.357 38.4234 299.803 L38.3916 278.923 Z" fill="#000000" fill-rule="nonzero" fill-opacity="1" /><polyline clip-path="url(#clip362)" style="stroke:#009af9; stroke-linecap:round; stroke-linejoin:round; stroke-width:8; stroke-opacity:1; fill:none" points="328.045,816.406 386.897,824.024 445.749,785.935 504.602,740.229 563.454,679.287 622.306,625.963 681.158,603.109 740.011,648.816 798.863,580.256 857.715,565.021 916.567,519.315 975.419,511.697 1034.27,427.902 1093.12,405.049 1151.98,389.813 1210.83,298.4 1269.68,214.606 1328.53,176.517 1387.38,168.899 1446.24,69.8687 1505.09,107.957 1563.94,191.752 1622.79,153.664 1681.65,283.165 1740.5,344.107 1799.35,374.578 1858.2,336.489 1917.05,443.137 1975.91,458.373 2034.76,534.55 2093.61,542.168 2152.46,504.079 2211.32,526.932 2270.17,542.168 2329.02,557.403 2387.87,557.403 2446.72,557.403 2505.58,610.727 2564.43,664.051 2623.28,656.434 2682.13,724.993 "/>
<path clip-path="url(#clip360)" d="M2167.13 177.571 L2669.58 177.571 L2669.58 73.8909 L2167.13 73.8909  Z" fill="#ffffff" fill-rule="evenodd" fill-opacity="1"/>
<polyline clip-path="url(#clip360)" style="stroke:#000000; stroke-linecap:round; stroke-linejoin:round; stroke-width:4; stroke-opacity:1; fill:none" points="2167.13,177.571 2669.58,177.571 2669.58,73.8909 2167.13,73.8909 2167.13,177.571 "/>
<polyline clip-path="url(#clip360)" style="stroke:#009af9; stroke-linecap:round; stroke-linejoin:round; stroke-width:8; stroke-opacity:1; fill:none" points="2194.86,125.731 2361.21,125.731 "/>
<path clip-path="url(#clip360)" d="M2393.61 112.293 L2393.61 125.28 L2399.49 125.28 Q2402.76 125.28 2404.54 123.59 Q2406.32 121.9 2406.32 118.775 Q2406.32 115.673 2404.54 113.983 Q2402.76 112.293 2399.49 112.293 L2393.61 112.293 M2388.94 108.451 L2399.49 108.451 Q2405.3 108.451 2408.27 111.09 Q2411.25 113.705 2411.25 118.775 Q2411.25 123.891 2408.27 126.506 Q2405.3 129.122 2399.49 129.122 L2393.61 129.122 L2393.61 143.011 L2388.94 143.011 L2388.94 108.451 Z" fill="#000000" fill-rule="nonzero" fill-opacity="1" /><path clip-path="url(#clip360)" d="M2431.53 121.067 Q2430.81 120.65 2429.96 120.465 Q2429.12 120.256 2428.1 120.256 Q2424.49 120.256 2422.55 122.617 Q2420.63 124.955 2420.63 129.354 L2420.63 143.011 L2416.34 143.011 L2416.34 117.085 L2420.63 117.085 L2420.63 121.113 Q2421.97 118.752 2424.12 117.618 Q2426.27 116.46 2429.35 116.46 Q2429.79 116.46 2430.33 116.53 Q2430.86 116.576 2431.51 116.692 L2431.53 121.067 Z" fill="#000000" fill-rule="nonzero" fill-opacity="1" /><path clip-path="url(#clip360)" d="M2457.13 128.983 L2457.13 131.067 L2437.55 131.067 Q2437.83 135.465 2440.19 137.779 Q2442.57 140.071 2446.81 140.071 Q2449.26 140.071 2451.55 139.469 Q2453.87 138.867 2456.14 137.664 L2456.14 141.691 Q2453.84 142.664 2451.44 143.173 Q2449.03 143.682 2446.55 143.682 Q2440.35 143.682 2436.71 140.071 Q2433.1 136.46 2433.1 130.303 Q2433.1 123.937 2436.53 120.21 Q2439.98 116.46 2445.81 116.46 Q2451.04 116.46 2454.08 119.84 Q2457.13 123.196 2457.13 128.983 M2452.87 127.733 Q2452.83 124.238 2450.9 122.155 Q2449.01 120.071 2445.86 120.071 Q2442.29 120.071 2440.14 122.085 Q2438.01 124.099 2437.69 127.756 L2452.87 127.733 Z" fill="#000000" fill-rule="nonzero" fill-opacity="1" /><path clip-path="url(#clip360)" d="M2461.07 117.085 L2465.58 117.085 L2473.68 138.844 L2481.78 117.085 L2486.3 117.085 L2476.58 143.011 L2470.79 143.011 L2461.07 117.085 Z" fill="#000000" fill-rule="nonzero" fill-opacity="1" /><path clip-path="url(#clip360)" d="M2503.96 129.979 Q2498.8 129.979 2496.81 131.159 Q2494.82 132.34 2494.82 135.187 Q2494.82 137.455 2496.3 138.798 Q2497.8 140.117 2500.37 140.117 Q2503.91 140.117 2506.04 137.617 Q2508.2 135.094 2508.2 130.928 L2508.2 129.979 L2503.96 129.979 M2512.45 128.219 L2512.45 143.011 L2508.2 143.011 L2508.2 139.076 Q2506.74 141.437 2504.56 142.571 Q2502.39 143.682 2499.24 143.682 Q2495.26 143.682 2492.89 141.46 Q2490.56 139.215 2490.56 135.465 Q2490.56 131.09 2493.47 128.867 Q2496.41 126.645 2502.22 126.645 L2508.2 126.645 L2508.2 126.229 Q2508.2 123.289 2506.25 121.692 Q2504.33 120.071 2500.83 120.071 Q2498.61 120.071 2496.51 120.604 Q2494.4 121.136 2492.45 122.201 L2492.45 118.266 Q2494.79 117.363 2496.99 116.923 Q2499.19 116.46 2501.27 116.46 Q2506.9 116.46 2509.68 119.377 Q2512.45 122.293 2512.45 128.219 Z" fill="#000000" fill-rule="nonzero" fill-opacity="1" /><path clip-path="url(#clip360)" d="M2521.23 106.993 L2525.49 106.993 L2525.49 143.011 L2521.23 143.011 L2521.23 106.993 Z" fill="#000000" fill-rule="nonzero" fill-opacity="1" /><path clip-path="url(#clip360)" d="M2556.57 128.983 L2556.57 131.067 L2536.99 131.067 Q2537.27 135.465 2539.63 137.779 Q2542.01 140.071 2546.25 140.071 Q2548.7 140.071 2551 139.469 Q2553.31 138.867 2555.58 137.664 L2555.58 141.691 Q2553.29 142.664 2550.88 143.173 Q2548.47 143.682 2546 143.682 Q2539.79 143.682 2536.16 140.071 Q2532.55 136.46 2532.55 130.303 Q2532.55 123.937 2535.97 120.21 Q2539.42 116.46 2545.26 116.46 Q2550.49 116.46 2553.52 119.84 Q2556.57 123.196 2556.57 128.983 M2552.32 127.733 Q2552.27 124.238 2550.35 122.155 Q2548.45 120.071 2545.3 120.071 Q2541.74 120.071 2539.58 122.085 Q2537.45 124.099 2537.13 127.756 L2552.32 127.733 Z" fill="#000000" fill-rule="nonzero" fill-opacity="1" /><path clip-path="url(#clip360)" d="M2585.12 127.363 L2585.12 143.011 L2580.86 143.011 L2580.86 127.502 Q2580.86 123.821 2579.42 121.992 Q2577.99 120.164 2575.12 120.164 Q2571.67 120.164 2569.68 122.363 Q2567.69 124.562 2567.69 128.358 L2567.69 143.011 L2563.4 143.011 L2563.4 117.085 L2567.69 117.085 L2567.69 121.113 Q2569.21 118.775 2571.27 117.618 Q2573.36 116.46 2576.07 116.46 Q2580.53 116.46 2582.82 119.238 Q2585.12 121.992 2585.12 127.363 Z" fill="#000000" fill-rule="nonzero" fill-opacity="1" /><path clip-path="url(#clip360)" d="M2612.27 118.08 L2612.27 122.062 Q2610.46 121.067 2608.63 120.58 Q2606.83 120.071 2604.98 120.071 Q2600.83 120.071 2598.54 122.71 Q2596.25 125.326 2596.25 130.071 Q2596.25 134.816 2598.54 137.455 Q2600.83 140.071 2604.98 140.071 Q2606.83 140.071 2608.63 139.585 Q2610.46 139.076 2612.27 138.08 L2612.27 142.016 Q2610.49 142.849 2608.57 143.266 Q2606.67 143.682 2604.51 143.682 Q2598.66 143.682 2595.21 140.002 Q2591.76 136.321 2591.76 130.071 Q2591.76 123.729 2595.23 120.094 Q2598.73 116.46 2604.79 116.46 Q2606.76 116.46 2608.63 116.877 Q2610.51 117.27 2612.27 118.08 Z" fill="#000000" fill-rule="nonzero" fill-opacity="1" /><path clip-path="url(#clip360)" d="M2641.85 128.983 L2641.85 131.067 L2622.27 131.067 Q2622.55 135.465 2624.91 137.779 Q2627.29 140.071 2631.53 140.071 Q2633.98 140.071 2636.27 139.469 Q2638.59 138.867 2640.86 137.664 L2640.86 141.691 Q2638.57 142.664 2636.16 143.173 Q2633.75 143.682 2631.27 143.682 Q2625.07 143.682 2621.44 140.071 Q2617.82 136.46 2617.82 130.303 Q2617.82 123.937 2621.25 120.21 Q2624.7 116.46 2630.53 116.46 Q2635.76 116.46 2638.8 119.84 Q2641.85 123.196 2641.85 128.983 M2637.59 127.733 Q2637.55 124.238 2635.63 122.155 Q2633.73 120.071 2630.58 120.071 Q2627.01 120.071 2624.86 122.085 Q2622.73 124.099 2622.41 127.756 L2637.59 127.733 Z" fill="#000000" fill-rule="nonzero" fill-opacity="1" /><path clip-path="url(#clip360)" d="M257.422 1813.32 L2752.76 1813.32 L2752.76 1013.91 L257.422 1013.91  Z" fill="#ffffff" fill-rule="evenodd" fill-opacity="1"/>
<polyline clip-path="url(#clip361)" style="stroke:#000000; stroke-linecap:round; stroke-linejoin:round; stroke-width:2; stroke-opacity:0.1; fill:none" points="269.193,1813.32 269.193,1013.91 "/>
<polyline clip-path="url(#clip361)" style="stroke:#000000; stroke-linecap:round; stroke-linejoin:round; stroke-width:2; stroke-opacity:0.1; fill:none" points="857.715,1813.32 857.715,1013.91 "/>
<polyline clip-path="url(#clip361)" style="stroke:#000000; stroke-linecap:round; stroke-linejoin:round; stroke-width:2; stroke-opacity:0.1; fill:none" points="1446.24,1813.32 1446.24,1013.91 "/>
<polyline clip-path="url(#clip361)" style="stroke:#000000; stroke-linecap:round; stroke-linejoin:round; stroke-width:2; stroke-opacity:0.1; fill:none" points="2034.76,1813.32 2034.76,1013.91 "/>
<polyline clip-path="url(#clip361)" style="stroke:#000000; stroke-linecap:round; stroke-linejoin:round; stroke-width:2; stroke-opacity:0.1; fill:none" points="2623.28,1813.32 2623.28,1013.91 "/>
<polyline clip-path="url(#clip361)" style="stroke:#000000; stroke-linecap:round; stroke-linejoin:round; stroke-width:2; stroke-opacity:0.1; fill:none" points="257.422,1718.18 2752.76,1718.18 "/>
<polyline clip-path="url(#clip361)" style="stroke:#000000; stroke-linecap:round; stroke-linejoin:round; stroke-width:2; stroke-opacity:0.1; fill:none" points="257.422,1573.15 2752.76,1573.15 "/>
<polyline clip-path="url(#clip361)" style="stroke:#000000; stroke-linecap:round; stroke-linejoin:round; stroke-width:2; stroke-opacity:0.1; fill:none" points="257.422,1428.12 2752.76,1428.12 "/>
<polyline clip-path="url(#clip361)" style="stroke:#000000; stroke-linecap:round; stroke-linejoin:round; stroke-width:2; stroke-opacity:0.1; fill:none" points="257.422,1283.09 2752.76,1283.09 "/>
<polyline clip-path="url(#clip361)" style="stroke:#000000; stroke-linecap:round; stroke-linejoin:round; stroke-width:2; stroke-opacity:0.1; fill:none" points="257.422,1138.06 2752.76,1138.06 "/>
<polyline clip-path="url(#clip360)" style="stroke:#000000; stroke-linecap:round; stroke-linejoin:round; stroke-width:4; stroke-opacity:1; fill:none" points="257.422,1813.32 2752.76,1813.32 "/>
<polyline clip-path="url(#clip360)" style="stroke:#000000; stroke-linecap:round; stroke-linejoin:round; stroke-width:4; stroke-opacity:1; fill:none" points="269.193,1813.32 269.193,1794.42 "/>
<polyline clip-path="url(#clip360)" style="stroke:#000000; stroke-linecap:round; stroke-linejoin:round; stroke-width:4; stroke-opacity:1; fill:none" points="857.715,1813.32 857.715,1794.42 "/>
<polyline clip-path="url(#clip360)" style="stroke:#000000; stroke-linecap:round; stroke-linejoin:round; stroke-width:4; stroke-opacity:1; fill:none" points="1446.24,1813.32 1446.24,1794.42 "/>
<polyline clip-path="url(#clip360)" style="stroke:#000000; stroke-linecap:round; stroke-linejoin:round; stroke-width:4; stroke-opacity:1; fill:none" points="2034.76,1813.32 2034.76,1794.42 "/>
<polyline clip-path="url(#clip360)" style="stroke:#000000; stroke-linecap:round; stroke-linejoin:round; stroke-width:4; stroke-opacity:1; fill:none" points="2623.28,1813.32 2623.28,1794.42 "/>
<path clip-path="url(#clip360)" d="M269.193 1847.44 Q265.582 1847.44 263.753 1851 Q261.948 1854.54 261.948 1861.67 Q261.948 1868.78 263.753 1872.34 Q265.582 1875.88 269.193 1875.88 Q272.827 1875.88 274.633 1872.34 Q276.461 1868.78 276.461 1861.67 Q276.461 1854.54 274.633 1851 Q272.827 1847.44 269.193 1847.44 M269.193 1843.73 Q275.003 1843.73 278.059 1848.34 Q281.137 1852.92 281.137 1861.67 Q281.137 1870.4 278.059 1875 Q275.003 1879.59 269.193 1879.59 Q263.383 1879.59 260.304 1875 Q257.248 1870.4 257.248 1861.67 Q257.248 1852.92 260.304 1848.34 Q263.383 1843.73 269.193 1843.73 Z" fill="#000000" fill-rule="nonzero" fill-opacity="1" /><path clip-path="url(#clip360)" d="M832.403 1874.98 L840.041 1874.98 L840.041 1848.62 L831.731 1850.28 L831.731 1846.02 L839.995 1844.36 L844.671 1844.36 L844.671 1874.98 L852.31 1874.98 L852.31 1878.92 L832.403 1878.92 L832.403 1874.98 Z" fill="#000000" fill-rule="nonzero" fill-opacity="1" /><path clip-path="url(#clip360)" d="M871.754 1847.44 Q868.143 1847.44 866.314 1851 Q864.509 1854.54 864.509 1861.67 Q864.509 1868.78 866.314 1872.34 Q868.143 1875.88 871.754 1875.88 Q875.388 1875.88 877.194 1872.34 Q879.023 1868.78 879.023 1861.67 Q879.023 1854.54 877.194 1851 Q875.388 1847.44 871.754 1847.44 M871.754 1843.73 Q877.564 1843.73 880.62 1848.34 Q883.699 1852.92 883.699 1861.67 Q883.699 1870.4 880.62 1875 Q877.564 1879.59 871.754 1879.59 Q865.944 1879.59 862.865 1875 Q859.81 1870.4 859.81 1861.67 Q859.81 1852.92 862.865 1848.34 Q865.944 1843.73 871.754 1843.73 Z" fill="#000000" fill-rule="nonzero" fill-opacity="1" /><path clip-path="url(#clip360)" d="M1425.01 1874.98 L1441.33 1874.98 L1441.33 1878.92 L1419.39 1878.92 L1419.39 1874.98 Q1422.05 1872.23 1426.63 1867.6 Q1431.24 1862.94 1432.42 1861.6 Q1434.66 1859.08 1435.54 1857.34 Q1436.45 1855.58 1436.45 1853.89 Q1436.45 1851.14 1434.5 1849.4 Q1432.58 1847.67 1429.48 1847.67 Q1427.28 1847.67 1424.83 1848.43 Q1422.39 1849.19 1419.62 1850.75 L1419.62 1846.02 Q1422.44 1844.89 1424.89 1844.31 Q1427.35 1843.73 1429.39 1843.73 Q1434.76 1843.73 1437.95 1846.42 Q1441.14 1849.1 1441.14 1853.59 Q1441.14 1855.72 1440.33 1857.64 Q1439.55 1859.54 1437.44 1862.13 Q1436.86 1862.81 1433.76 1866.02 Q1430.66 1869.22 1425.01 1874.98 Z" fill="#000000" fill-rule="nonzero" fill-opacity="1" /><path clip-path="url(#clip360)" d="M1461.14 1847.44 Q1457.53 1847.44 1455.7 1851 Q1453.9 1854.54 1453.9 1861.67 Q1453.9 1868.78 1455.7 1872.34 Q1457.53 1875.88 1461.14 1875.88 Q1464.78 1875.88 1466.58 1872.34 Q1468.41 1868.78 1468.41 1861.67 Q1468.41 1854.54 1466.58 1851 Q1464.78 1847.44 1461.14 1847.44 M1461.14 1843.73 Q1466.95 1843.73 1470.01 1848.34 Q1473.09 1852.92 1473.09 1861.67 Q1473.09 1870.4 1470.01 1875 Q1466.95 1879.59 1461.14 1879.59 Q1455.33 1879.59 1452.26 1875 Q1449.2 1870.4 1449.2 1861.67 Q1449.2 1852.92 1452.26 1848.34 Q1455.33 1843.73 1461.14 1843.73 Z" fill="#000000" fill-rule="nonzero" fill-opacity="1" /><path clip-path="url(#clip360)" d="M2023.6 1860.28 Q2026.96 1861 2028.83 1863.27 Q2030.73 1865.54 2030.73 1868.87 Q2030.73 1873.99 2027.21 1876.79 Q2023.69 1879.59 2017.21 1879.59 Q2015.04 1879.59 2012.72 1879.15 Q2010.43 1878.73 2007.98 1877.88 L2007.98 1873.36 Q2009.92 1874.5 2012.24 1875.07 Q2014.55 1875.65 2017.07 1875.65 Q2021.47 1875.65 2023.76 1873.92 Q2026.08 1872.18 2026.08 1868.87 Q2026.08 1865.82 2023.93 1864.1 Q2021.8 1862.37 2017.98 1862.37 L2013.95 1862.37 L2013.95 1858.52 L2018.16 1858.52 Q2021.61 1858.52 2023.44 1857.16 Q2025.27 1855.77 2025.27 1853.18 Q2025.27 1850.51 2023.37 1849.1 Q2021.5 1847.67 2017.98 1847.67 Q2016.06 1847.67 2013.86 1848.08 Q2011.66 1848.5 2009.02 1849.38 L2009.02 1845.21 Q2011.68 1844.47 2014 1844.1 Q2016.33 1843.73 2018.39 1843.73 Q2023.72 1843.73 2026.82 1846.16 Q2029.92 1848.57 2029.92 1852.69 Q2029.92 1855.56 2028.28 1857.55 Q2026.63 1859.52 2023.6 1860.28 Z" fill="#000000" fill-rule="nonzero" fill-opacity="1" /><path clip-path="url(#clip360)" d="M2049.6 1847.44 Q2045.99 1847.44 2044.16 1851 Q2042.35 1854.54 2042.35 1861.67 Q2042.35 1868.78 2044.16 1872.34 Q2045.99 1875.88 2049.6 1875.88 Q2053.23 1875.88 2055.04 1872.34 Q2056.87 1868.78 2056.87 1861.67 Q2056.87 1854.54 2055.04 1851 Q2053.23 1847.44 2049.6 1847.44 M2049.6 1843.73 Q2055.41 1843.73 2058.46 1848.34 Q2061.54 1852.92 2061.54 1861.67 Q2061.54 1870.4 2058.46 1875 Q2055.41 1879.59 2049.6 1879.59 Q2043.79 1879.59 2040.71 1875 Q2037.65 1870.4 2037.65 1861.67 Q2037.65 1852.92 2040.71 1848.34 Q2043.79 1843.73 2049.6 1843.73 Z" fill="#000000" fill-rule="nonzero" fill-opacity="1" /><path clip-path="url(#clip360)" d="M2611.45 1848.43 L2599.65 1866.88 L2611.45 1866.88 L2611.45 1848.43 M2610.23 1844.36 L2616.11 1844.36 L2616.11 1866.88 L2621.04 1866.88 L2621.04 1870.77 L2616.11 1870.77 L2616.11 1878.92 L2611.45 1878.92 L2611.45 1870.77 L2595.85 1870.77 L2595.85 1866.26 L2610.23 1844.36 Z" fill="#000000" fill-rule="nonzero" fill-opacity="1" /><path clip-path="url(#clip360)" d="M2638.77 1847.44 Q2635.16 1847.44 2633.33 1851 Q2631.52 1854.54 2631.52 1861.67 Q2631.52 1868.78 2633.33 1872.34 Q2635.16 1875.88 2638.77 1875.88 Q2642.4 1875.88 2644.21 1872.34 Q2646.04 1868.78 2646.04 1861.67 Q2646.04 1854.54 2644.21 1851 Q2642.4 1847.44 2638.77 1847.44 M2638.77 1843.73 Q2644.58 1843.73 2647.63 1848.34 Q2650.71 1852.92 2650.71 1861.67 Q2650.71 1870.4 2647.63 1875 Q2644.58 1879.59 2638.77 1879.59 Q2632.96 1879.59 2629.88 1875 Q2626.82 1870.4 2626.82 1861.67 Q2626.82 1852.92 2629.88 1848.34 Q2632.96 1843.73 2638.77 1843.73 Z" fill="#000000" fill-rule="nonzero" fill-opacity="1" /><path clip-path="url(#clip360)" d="M1346.15 1916.66 L1386.35 1916.66 L1386.35 1922.07 L1369.48 1922.07 L1369.48 1964.18 L1363.02 1964.18 L1363.02 1922.07 L1346.15 1922.07 L1346.15 1916.66 Z" fill="#000000" fill-rule="nonzero" fill-opacity="1" /><path clip-path="url(#clip360)" d="M1390.3 1928.53 L1396.16 1928.53 L1396.16 1964.18 L1390.3 1964.18 L1390.3 1928.53 M1390.3 1914.66 L1396.16 1914.66 L1396.16 1922.07 L1390.3 1922.07 L1390.3 1914.66 Z" fill="#000000" fill-rule="nonzero" fill-opacity="1" /><path clip-path="url(#clip360)" d="M1436.16 1935.38 Q1438.36 1931.43 1441.42 1929.55 Q1444.47 1927.67 1448.61 1927.67 Q1454.18 1927.67 1457.2 1931.59 Q1460.23 1935.47 1460.23 1942.66 L1460.23 1964.18 L1454.34 1964.18 L1454.34 1942.86 Q1454.34 1937.73 1452.52 1935.25 Q1450.71 1932.77 1446.99 1932.77 Q1442.43 1932.77 1439.79 1935.79 Q1437.15 1938.81 1437.15 1944.03 L1437.15 1964.18 L1431.26 1964.18 L1431.26 1942.86 Q1431.26 1937.7 1429.45 1935.25 Q1427.63 1932.77 1423.85 1932.77 Q1419.36 1932.77 1416.72 1935.82 Q1414.08 1938.85 1414.08 1944.03 L1414.08 1964.18 L1408.19 1964.18 L1408.19 1928.53 L1414.08 1928.53 L1414.08 1934.07 Q1416.08 1930.79 1418.88 1929.23 Q1421.68 1927.67 1425.53 1927.67 Q1429.42 1927.67 1432.12 1929.65 Q1434.86 1931.62 1436.16 1935.38 Z" fill="#000000" fill-rule="nonzero" fill-opacity="1" /><path clip-path="url(#clip360)" d="M1502.4 1944.89 L1502.4 1947.76 L1475.47 1947.76 Q1475.85 1953.8 1479.1 1956.99 Q1482.38 1960.14 1488.2 1960.14 Q1491.58 1960.14 1494.73 1959.31 Q1497.91 1958.48 1501.03 1956.83 L1501.03 1962.37 Q1497.88 1963.7 1494.57 1964.4 Q1491.26 1965.1 1487.85 1965.1 Q1479.32 1965.1 1474.33 1960.14 Q1469.36 1955.17 1469.36 1946.71 Q1469.36 1937.95 1474.07 1932.83 Q1478.81 1927.67 1486.84 1927.67 Q1494.03 1927.67 1498.2 1932.32 Q1502.4 1936.94 1502.4 1944.89 M1496.54 1943.17 Q1496.48 1938.37 1493.84 1935.5 Q1491.23 1932.64 1486.9 1932.64 Q1482 1932.64 1479.04 1935.41 Q1476.11 1938.18 1475.66 1943.21 L1496.54 1943.17 Z" fill="#000000" fill-rule="nonzero" fill-opacity="1" /><path clip-path="url(#clip360)" d="M1555.46 1929.58 L1555.46 1935.12 Q1552.98 1933.85 1550.3 1933.21 Q1547.63 1932.58 1544.76 1932.58 Q1540.4 1932.58 1538.21 1933.91 Q1536.04 1935.25 1536.04 1937.92 Q1536.04 1939.96 1537.6 1941.14 Q1539.16 1942.28 1543.87 1943.33 L1545.88 1943.78 Q1552.12 1945.12 1554.73 1947.57 Q1557.37 1949.99 1557.37 1954.35 Q1557.37 1959.31 1553.42 1962.21 Q1549.51 1965.1 1542.63 1965.1 Q1539.77 1965.1 1536.65 1964.53 Q1533.56 1963.99 1530.12 1962.88 L1530.12 1956.83 Q1533.37 1958.52 1536.52 1959.37 Q1539.67 1960.2 1542.76 1960.2 Q1546.9 1960.2 1549.12 1958.8 Q1551.35 1957.37 1551.35 1954.79 Q1551.35 1952.4 1549.73 1951.13 Q1548.14 1949.86 1542.69 1948.68 L1540.66 1948.2 Q1535.21 1947.06 1532.8 1944.7 Q1530.38 1942.31 1530.38 1938.18 Q1530.38 1933.15 1533.94 1930.41 Q1537.51 1927.67 1544.06 1927.67 Q1547.31 1927.67 1550.17 1928.15 Q1553.04 1928.63 1555.46 1929.58 Z" fill="#000000" fill-rule="nonzero" fill-opacity="1" /><path clip-path="url(#clip360)" d="M1572.49 1918.41 L1572.49 1928.53 L1584.55 1928.53 L1584.55 1933.08 L1572.49 1933.08 L1572.49 1952.44 Q1572.49 1956.8 1573.66 1958.04 Q1574.87 1959.28 1578.53 1959.28 L1584.55 1959.28 L1584.55 1964.18 L1578.53 1964.18 Q1571.75 1964.18 1569.18 1961.67 Q1566.6 1959.12 1566.6 1952.44 L1566.6 1933.08 L1562.3 1933.08 L1562.3 1928.53 L1566.6 1928.53 L1566.6 1918.41 L1572.49 1918.41 Z" fill="#000000" fill-rule="nonzero" fill-opacity="1" /><path clip-path="url(#clip360)" d="M1622.74 1944.89 L1622.74 1947.76 L1595.82 1947.76 Q1596.2 1953.8 1599.44 1956.99 Q1602.72 1960.14 1608.55 1960.14 Q1611.92 1960.14 1615.07 1959.31 Q1618.26 1958.48 1621.37 1956.83 L1621.37 1962.37 Q1618.22 1963.7 1614.91 1964.4 Q1611.6 1965.1 1608.2 1965.1 Q1599.67 1965.1 1594.67 1960.14 Q1589.71 1955.17 1589.71 1946.71 Q1589.71 1937.95 1594.42 1932.83 Q1599.16 1927.67 1607.18 1927.67 Q1614.37 1927.67 1618.54 1932.32 Q1622.74 1936.94 1622.74 1944.89 M1616.89 1943.17 Q1616.82 1938.37 1614.18 1935.5 Q1611.57 1932.64 1607.24 1932.64 Q1602.34 1932.64 1599.38 1935.41 Q1596.45 1938.18 1596.01 1943.21 L1616.89 1943.17 Z" fill="#000000" fill-rule="nonzero" fill-opacity="1" /><path clip-path="url(#clip360)" d="M1638.02 1958.83 L1638.02 1977.74 L1632.13 1977.74 L1632.13 1928.53 L1638.02 1928.53 L1638.02 1933.94 Q1639.87 1930.76 1642.67 1929.23 Q1645.5 1927.67 1649.42 1927.67 Q1655.91 1927.67 1659.95 1932.83 Q1664.02 1937.99 1664.02 1946.39 Q1664.02 1954.79 1659.95 1959.95 Q1655.91 1965.1 1649.42 1965.1 Q1645.5 1965.1 1642.67 1963.58 Q1639.87 1962.02 1638.02 1958.83 M1657.95 1946.39 Q1657.95 1939.93 1655.27 1936.27 Q1652.63 1932.58 1647.98 1932.58 Q1643.34 1932.58 1640.66 1936.27 Q1638.02 1939.93 1638.02 1946.39 Q1638.02 1952.85 1640.66 1956.54 Q1643.34 1960.2 1647.98 1960.2 Q1652.63 1960.2 1655.27 1956.54 Q1657.95 1952.85 1657.95 1946.39 Z" fill="#000000" fill-rule="nonzero" fill-opacity="1" /><polyline clip-path="url(#clip360)" style="stroke:#000000; stroke-linecap:round; stroke-linejoin:round; stroke-width:4; stroke-opacity:1; fill:none" points="257.422,1813.32 257.422,1013.91 "/>
<polyline clip-path="url(#clip360)" style="stroke:#000000; stroke-linecap:round; stroke-linejoin:round; stroke-width:4; stroke-opacity:1; fill:none" points="257.422,1718.18 276.32,1718.18 "/>
<polyline clip-path="url(#clip360)" style="stroke:#000000; stroke-linecap:round; stroke-linejoin:round; stroke-width:4; stroke-opacity:1; fill:none" points="257.422,1573.15 276.32,1573.15 "/>
<polyline clip-path="url(#clip360)" style="stroke:#000000; stroke-linecap:round; stroke-linejoin:round; stroke-width:4; stroke-opacity:1; fill:none" points="257.422,1428.12 276.32,1428.12 "/>
<polyline clip-path="url(#clip360)" style="stroke:#000000; stroke-linecap:round; stroke-linejoin:round; stroke-width:4; stroke-opacity:1; fill:none" points="257.422,1283.09 276.32,1283.09 "/>
<polyline clip-path="url(#clip360)" style="stroke:#000000; stroke-linecap:round; stroke-linejoin:round; stroke-width:4; stroke-opacity:1; fill:none" points="257.422,1138.06 276.32,1138.06 "/>
<path clip-path="url(#clip360)" d="M123.548 1718.63 L153.224 1718.63 L153.224 1722.56 L123.548 1722.56 L123.548 1718.63 Z" fill="#000000" fill-rule="nonzero" fill-opacity="1" /><path clip-path="url(#clip360)" d="M164.126 1731.52 L171.765 1731.52 L171.765 1705.16 L163.455 1706.82 L163.455 1702.56 L171.719 1700.9 L176.395 1700.9 L176.395 1731.52 L184.034 1731.52 L184.034 1735.46 L164.126 1735.46 L164.126 1731.52 Z" fill="#000000" fill-rule="nonzero" fill-opacity="1" /><path clip-path="url(#clip360)" d="M203.478 1703.98 Q199.867 1703.98 198.038 1707.54 Q196.233 1711.08 196.233 1718.21 Q196.233 1725.32 198.038 1728.88 Q199.867 1732.43 203.478 1732.43 Q207.112 1732.43 208.918 1728.88 Q210.747 1725.32 210.747 1718.21 Q210.747 1711.08 208.918 1707.54 Q207.112 1703.98 203.478 1703.98 M203.478 1700.27 Q209.288 1700.27 212.344 1704.88 Q215.422 1709.46 215.422 1718.21 Q215.422 1726.94 212.344 1731.55 Q209.288 1736.13 203.478 1736.13 Q197.668 1736.13 194.589 1731.55 Q191.534 1726.94 191.534 1718.21 Q191.534 1709.46 194.589 1704.88 Q197.668 1700.27 203.478 1700.27 Z" fill="#000000" fill-rule="nonzero" fill-opacity="1" /><path clip-path="url(#clip360)" d="M154.705 1573.6 L184.381 1573.6 L184.381 1577.53 L154.705 1577.53 L154.705 1573.6 Z" fill="#000000" fill-rule="nonzero" fill-opacity="1" /><path clip-path="url(#clip360)" d="M194.52 1555.87 L212.876 1555.87 L212.876 1559.8 L198.802 1559.8 L198.802 1568.28 Q199.821 1567.93 200.839 1567.77 Q201.858 1567.58 202.876 1567.58 Q208.663 1567.58 212.043 1570.75 Q215.422 1573.92 215.422 1579.34 Q215.422 1584.92 211.95 1588.02 Q208.478 1591.1 202.159 1591.1 Q199.983 1591.1 197.714 1590.73 Q195.469 1590.36 193.061 1589.62 L193.061 1584.92 Q195.145 1586.05 197.367 1586.61 Q199.589 1587.16 202.066 1587.16 Q206.071 1587.16 208.409 1585.06 Q210.747 1582.95 210.747 1579.34 Q210.747 1575.73 208.409 1573.62 Q206.071 1571.52 202.066 1571.52 Q200.191 1571.52 198.316 1571.93 Q196.464 1572.35 194.52 1573.23 L194.52 1555.87 Z" fill="#000000" fill-rule="nonzero" fill-opacity="1" /><path clip-path="url(#clip360)" d="M203.478 1413.92 Q199.867 1413.92 198.038 1417.48 Q196.233 1421.02 196.233 1428.15 Q196.233 1435.26 198.038 1438.82 Q199.867 1442.37 203.478 1442.37 Q207.112 1442.37 208.918 1438.82 Q210.747 1435.26 210.747 1428.15 Q210.747 1421.02 208.918 1417.48 Q207.112 1413.92 203.478 1413.92 M203.478 1410.21 Q209.288 1410.21 212.344 1414.82 Q215.422 1419.4 215.422 1428.15 Q215.422 1436.88 212.344 1441.49 Q209.288 1446.07 203.478 1446.07 Q197.668 1446.07 194.589 1441.49 Q191.534 1436.88 191.534 1428.15 Q191.534 1419.4 194.589 1414.82 Q197.668 1410.21 203.478 1410.21 Z" fill="#000000" fill-rule="nonzero" fill-opacity="1" /><path clip-path="url(#clip360)" d="M194.52 1265.81 L212.876 1265.81 L212.876 1269.74 L198.802 1269.74 L198.802 1278.22 Q199.821 1277.87 200.839 1277.71 Q201.858 1277.52 202.876 1277.52 Q208.663 1277.52 212.043 1280.69 Q215.422 1283.86 215.422 1289.28 Q215.422 1294.86 211.95 1297.96 Q208.478 1301.04 202.159 1301.04 Q199.983 1301.04 197.714 1300.67 Q195.469 1300.3 193.061 1299.56 L193.061 1294.86 Q195.145 1295.99 197.367 1296.55 Q199.589 1297.1 202.066 1297.1 Q206.071 1297.1 208.409 1295 Q210.747 1292.89 210.747 1289.28 Q210.747 1285.67 208.409 1283.56 Q206.071 1281.46 202.066 1281.46 Q200.191 1281.46 198.316 1281.87 Q196.464 1282.29 194.52 1283.17 L194.52 1265.81 Z" fill="#000000" fill-rule="nonzero" fill-opacity="1" /><path clip-path="url(#clip360)" d="M164.126 1151.4 L171.765 1151.4 L171.765 1125.04 L163.455 1126.7 L163.455 1122.45 L171.719 1120.78 L176.395 1120.78 L176.395 1151.4 L184.034 1151.4 L184.034 1155.34 L164.126 1155.34 L164.126 1151.4 Z" fill="#000000" fill-rule="nonzero" fill-opacity="1" /><path clip-path="url(#clip360)" d="M203.478 1123.86 Q199.867 1123.86 198.038 1127.42 Q196.233 1130.96 196.233 1138.09 Q196.233 1145.2 198.038 1148.76 Q199.867 1152.31 203.478 1152.31 Q207.112 1152.31 208.918 1148.76 Q210.747 1145.2 210.747 1138.09 Q210.747 1130.96 208.918 1127.42 Q207.112 1123.86 203.478 1123.86 M203.478 1120.15 Q209.288 1120.15 212.344 1124.76 Q215.422 1129.34 215.422 1138.09 Q215.422 1146.82 212.344 1151.43 Q209.288 1156.01 203.478 1156.01 Q197.668 1156.01 194.589 1151.43 Q191.534 1146.82 191.534 1138.09 Q191.534 1129.34 194.589 1124.76 Q197.668 1120.15 203.478 1120.15 Z" fill="#000000" fill-rule="nonzero" fill-opacity="1" /><path clip-path="url(#clip360)" d="M21.3315 1549.59 L27.6017 1549.59 Q25.8512 1553.25 24.9918 1556.49 Q24.1324 1559.74 24.1324 1562.76 Q24.1324 1568.02 26.1695 1570.88 Q28.2065 1573.71 31.9622 1573.71 Q35.1133 1573.71 36.7365 1571.83 Q38.328 1569.92 39.3146 1564.64 L40.1104 1560.76 Q41.479 1553.57 44.9483 1550.16 Q48.3858 1546.72 54.1786 1546.72 Q61.0854 1546.72 64.6502 1551.37 Q68.2149 1555.98 68.2149 1564.93 Q68.2149 1568.3 67.4511 1572.12 Q66.6872 1575.91 65.1912 1579.98 L58.5709 1579.98 Q60.7671 1576.07 61.8811 1572.31 Q62.9951 1568.56 62.9951 1564.93 Q62.9951 1559.42 60.8307 1556.43 Q58.6664 1553.44 54.656 1553.44 Q51.1549 1553.44 49.1815 1555.6 Q47.2081 1557.73 46.2214 1562.64 L45.4575 1566.55 Q44.0253 1573.74 40.9697 1576.96 Q37.9142 1580.17 32.4715 1580.17 Q26.1695 1580.17 22.541 1575.75 Q18.9125 1571.29 18.9125 1563.5 Q18.9125 1560.15 19.5173 1556.68 Q20.122 1553.21 21.3315 1549.59 Z" fill="#000000" fill-rule="nonzero" fill-opacity="1" /><path clip-path="url(#clip360)" d="M48.0038 1506.46 L50.8684 1506.46 L50.8684 1533.39 Q56.9158 1533 60.0987 1529.76 Q63.2497 1526.48 63.2497 1520.65 Q63.2497 1517.28 62.4222 1514.13 Q61.5946 1510.95 59.9395 1507.83 L65.4777 1507.83 Q66.8145 1510.98 67.5147 1514.29 Q68.2149 1517.6 68.2149 1521 Q68.2149 1529.53 63.2497 1534.53 Q58.2844 1539.5 49.8181 1539.5 Q41.0652 1539.5 35.9408 1534.79 Q30.7846 1530.04 30.7846 1522.02 Q30.7846 1514.83 35.4316 1510.66 Q40.0467 1506.46 48.0038 1506.46 M46.2851 1512.32 Q41.479 1512.38 38.6144 1515.02 Q35.7498 1517.63 35.7498 1521.96 Q35.7498 1526.86 38.5189 1529.82 Q41.288 1532.75 46.3169 1533.19 L46.2851 1512.32 Z" fill="#000000" fill-rule="nonzero" fill-opacity="1" /><path clip-path="url(#clip360)" d="M45.7758 1467.21 L67.2919 1467.21 L67.2919 1473.07 L45.9668 1473.07 Q40.9061 1473.07 38.3916 1475.04 Q35.8772 1477.02 35.8772 1480.96 Q35.8772 1485.71 38.9009 1488.44 Q41.9246 1491.18 47.1445 1491.18 L67.2919 1491.18 L67.2919 1497.07 L31.644 1497.07 L31.644 1491.18 L37.1821 1491.18 Q33.9674 1489.08 32.376 1486.25 Q30.7846 1483.38 30.7846 1479.66 Q30.7846 1473.52 34.604 1470.37 Q38.3916 1467.21 45.7758 1467.21 Z" fill="#000000" fill-rule="nonzero" fill-opacity="1" /><path clip-path="url(#clip360)" d="M32.6943 1432.81 L38.2325 1432.81 Q36.9593 1435.29 36.3228 1437.96 Q35.6862 1440.64 35.6862 1443.5 Q35.6862 1447.86 37.023 1450.06 Q38.3598 1452.22 41.0334 1452.22 Q43.0704 1452.22 44.2481 1450.66 Q45.3939 1449.1 46.4442 1444.39 L46.8898 1442.39 Q48.2266 1436.15 50.6774 1433.54 Q53.0964 1430.9 57.4569 1430.9 Q62.4222 1430.9 65.3186 1434.84 Q68.2149 1438.76 68.2149 1445.63 Q68.2149 1448.5 67.642 1451.62 Q67.1009 1454.71 65.9869 1458.14 L59.9395 1458.14 Q61.6264 1454.9 62.4858 1451.75 Q63.3134 1448.59 63.3134 1445.51 Q63.3134 1441.37 61.9129 1439.14 Q60.4806 1436.91 57.9025 1436.91 Q55.5154 1436.91 54.2422 1438.54 Q52.9691 1440.13 51.7914 1445.57 L51.314 1447.61 Q50.1682 1453.05 47.8129 1455.47 Q45.4257 1457.89 41.288 1457.89 Q36.2591 1457.89 33.5218 1454.32 Q30.7846 1450.76 30.7846 1444.2 Q30.7846 1440.96 31.262 1438.09 Q31.7394 1435.23 32.6943 1432.81 Z" fill="#000000" fill-rule="nonzero" fill-opacity="1" /><path clip-path="url(#clip360)" d="M31.644 1421.57 L31.644 1415.72 L67.2919 1415.72 L67.2919 1421.57 L31.644 1421.57 M17.7667 1421.57 L17.7667 1415.72 L25.1828 1415.72 L25.1828 1421.57 L17.7667 1421.57 Z" fill="#000000" fill-rule="nonzero" fill-opacity="1" /><path clip-path="url(#clip360)" d="M21.5225 1397.67 L31.644 1397.67 L31.644 1385.61 L36.1954 1385.61 L36.1954 1397.67 L55.5472 1397.67 Q59.9077 1397.67 61.149 1396.49 Q62.3903 1395.28 62.3903 1391.62 L62.3903 1385.61 L67.2919 1385.61 L67.2919 1391.62 Q67.2919 1398.4 64.7775 1400.98 Q62.2312 1403.56 55.5472 1403.56 L36.1954 1403.56 L36.1954 1407.85 L31.644 1407.85 L31.644 1403.56 L21.5225 1403.56 L21.5225 1397.67 Z" fill="#000000" fill-rule="nonzero" fill-opacity="1" /><path clip-path="url(#clip360)" d="M31.644 1377.9 L31.644 1372.05 L67.2919 1372.05 L67.2919 1377.9 L31.644 1377.9 M17.7667 1377.9 L17.7667 1372.05 L25.1828 1372.05 L25.1828 1377.9 L17.7667 1377.9 Z" fill="#000000" fill-rule="nonzero" fill-opacity="1" /><path clip-path="url(#clip360)" d="M31.644 1363.99 L31.644 1357.79 L61.5628 1346.65 L31.644 1335.51 L31.644 1329.3 L67.2919 1342.67 L67.2919 1350.63 L31.644 1363.99 Z" fill="#000000" fill-rule="nonzero" fill-opacity="1" /><path clip-path="url(#clip360)" d="M31.644 1321.22 L31.644 1315.36 L67.2919 1315.36 L67.2919 1321.22 L31.644 1321.22 M17.7667 1321.22 L17.7667 1315.36 L25.1828 1315.36 L25.1828 1321.22 L17.7667 1321.22 Z" fill="#000000" fill-rule="nonzero" fill-opacity="1" /><path clip-path="url(#clip360)" d="M21.5225 1297.31 L31.644 1297.31 L31.644 1285.25 L36.1954 1285.25 L36.1954 1297.31 L55.5472 1297.31 Q59.9077 1297.31 61.149 1296.14 Q62.3903 1294.93 62.3903 1291.27 L62.3903 1285.25 L67.2919 1285.25 L67.2919 1291.27 Q67.2919 1298.05 64.7775 1300.62 Q62.2312 1303.2 55.5472 1303.2 L36.1954 1303.2 L36.1954 1307.5 L31.644 1307.5 L31.644 1303.2 L21.5225 1303.2 L21.5225 1297.31 Z" fill="#000000" fill-rule="nonzero" fill-opacity="1" /><path clip-path="url(#clip360)" d="M70.6021 1262.72 Q76.9678 1265.2 78.9093 1267.55 Q80.8509 1269.91 80.8509 1273.86 L80.8509 1278.53 L75.9493 1278.53 L75.9493 1275.1 Q75.9493 1272.68 74.8035 1271.34 Q73.6576 1270 69.3926 1268.38 L66.719 1267.33 L31.644 1281.75 L31.644 1275.54 L59.5258 1264.4 L31.644 1253.26 L31.644 1247.06 L70.6021 1262.72 Z" fill="#000000" fill-rule="nonzero" fill-opacity="1" /><polyline clip-path="url(#clip361)" style="stroke:#ff0000; stroke-linecap:round; stroke-linejoin:round; stroke-width:8; stroke-opacity:1; fill:none" points="328.045,1413.61 386.897,1399.11 445.749,1370.11 504.602,1312.09 563.454,1225.08 622.306,1152.56 681.158,1210.57 740.011,1341.1 798.863,1138.06 857.715,1036.54 916.567,1051.04 975.419,1094.55 1034.27,1109.05 1093.12,1094.55 1151.98,1210.57 1210.83,1283.09 1269.68,1181.57 1328.53,1138.06 1387.38,1268.59 1446.24,1370.11 1505.09,1384.61 1563.94,1355.6 1622.79,1297.59 1681.65,1283.09 1740.5,1413.61 1799.35,1384.61 1858.2,1602.15 1917.05,1544.14 1975.91,1790.69 2034.76,1674.67 2093.61,1616.66 2152.46,1645.66 2211.32,1587.65 2270.17,1689.17 2329.02,1573.15 2387.87,1573.15 2446.72,1587.65 2505.58,1616.66 2564.43,1529.64 2623.28,1689.17 2682.13,1703.67 "/>
<path clip-path="url(#clip360)" d="M2148.89 1144.24 L2669.58 1144.24 L2669.58 1040.56 L2148.89 1040.56  Z" fill="#ffffff" fill-rule="evenodd" fill-opacity="1"/>
<polyline clip-path="url(#clip360)" style="stroke:#000000; stroke-linecap:round; stroke-linejoin:round; stroke-width:4; stroke-opacity:1; fill:none" points="2148.89,1144.24 2669.58,1144.24 2669.58,1040.56 2148.89,1040.56 2148.89,1144.24 "/>
<polyline clip-path="url(#clip360)" style="stroke:#ff0000; stroke-linecap:round; stroke-linejoin:round; stroke-width:8; stroke-opacity:1; fill:none" points="2176.61,1092.4 2342.97,1092.4 "/>
<path clip-path="url(#clip360)" d="M2378.61 1110.35 Q2375.35 1110.35 2373.22 1108.38 Q2370.7 1106.05 2370.7 1101.81 Q2370.7 1097.41 2372.92 1093.99 Q2375.21 1090.47 2379.33 1090.47 Q2382.04 1090.47 2384.17 1092.16 Q2385.42 1093.15 2386.27 1094.82 Q2386.58 1092.94 2386.58 1090.81 Q2386.58 1087.69 2385.84 1085.88 Q2384.19 1081.88 2379.84 1081.88 Q2378.2 1081.88 2375.65 1082.9 L2375.65 1079.01 Q2378.34 1078.29 2380.74 1078.29 Q2386.95 1078.29 2389.59 1083.99 Q2390.81 1086.67 2390.81 1090.68 Q2390.81 1093.29 2390.23 1096.32 Q2388.77 1103.92 2385 1107.53 Q2382.04 1110.35 2378.61 1110.35 M2374.65 1102.5 Q2374.65 1104.82 2375.67 1106.07 Q2376.76 1107.39 2378.43 1107.39 Q2379.91 1107.39 2381.09 1106.35 Q2382.76 1104.91 2383.98 1102.57 Q2385 1100.65 2385.51 1098.59 Q2383.45 1093.62 2379.89 1093.62 Q2376.83 1093.62 2375.49 1097.64 Q2374.65 1100.14 2374.65 1102.5 Z" fill="#000000" fill-rule="nonzero" fill-opacity="1" /><path clip-path="url(#clip360)" d="M2401.6 1105.79 L2401.6 1119.54 L2397.32 1119.54 L2397.32 1083.75 L2401.6 1083.75 L2401.6 1087.69 Q2402.94 1085.37 2404.98 1084.26 Q2407.04 1083.13 2409.89 1083.13 Q2414.61 1083.13 2417.55 1086.88 Q2420.51 1090.63 2420.51 1096.74 Q2420.51 1102.85 2417.55 1106.6 Q2414.61 1110.35 2409.89 1110.35 Q2407.04 1110.35 2404.98 1109.24 Q2402.94 1108.11 2401.6 1105.79 M2416.09 1096.74 Q2416.09 1092.04 2414.15 1089.38 Q2412.22 1086.69 2408.84 1086.69 Q2405.46 1086.69 2403.52 1089.38 Q2401.6 1092.04 2401.6 1096.74 Q2401.6 1101.44 2403.52 1104.12 Q2405.46 1106.79 2408.84 1106.79 Q2412.22 1106.79 2414.15 1104.12 Q2416.09 1101.44 2416.09 1096.74 Z" fill="#000000" fill-rule="nonzero" fill-opacity="1" /><path clip-path="url(#clip360)" d="M2442.59 1087.74 Q2441.88 1087.32 2441.02 1087.13 Q2440.19 1086.93 2439.17 1086.93 Q2435.56 1086.93 2433.61 1089.29 Q2431.69 1091.62 2431.69 1096.02 L2431.69 1109.68 L2427.41 1109.68 L2427.41 1083.75 L2431.69 1083.75 L2431.69 1087.78 Q2433.03 1085.42 2435.19 1084.29 Q2437.34 1083.13 2440.42 1083.13 Q2440.86 1083.13 2441.39 1083.2 Q2441.92 1083.24 2442.57 1083.36 L2442.59 1087.74 Z" fill="#000000" fill-rule="nonzero" fill-opacity="1" /><path clip-path="url(#clip360)" d="M2468.2 1095.65 L2468.2 1097.74 L2448.61 1097.74 Q2448.89 1102.13 2451.25 1104.45 Q2453.64 1106.74 2457.87 1106.74 Q2460.33 1106.74 2462.62 1106.14 Q2464.93 1105.54 2467.2 1104.33 L2467.2 1108.36 Q2464.91 1109.33 2462.5 1109.84 Q2460.09 1110.35 2457.62 1110.35 Q2451.41 1110.35 2447.78 1106.74 Q2444.17 1103.13 2444.17 1096.97 Q2444.17 1090.61 2447.59 1086.88 Q2451.04 1083.13 2456.88 1083.13 Q2462.11 1083.13 2465.14 1086.51 Q2468.2 1089.87 2468.2 1095.65 M2463.94 1094.4 Q2463.89 1090.91 2461.97 1088.82 Q2460.07 1086.74 2456.92 1086.74 Q2453.36 1086.74 2451.21 1088.75 Q2449.08 1090.77 2448.75 1094.43 L2463.94 1094.4 Z" fill="#000000" fill-rule="nonzero" fill-opacity="1" /><path clip-path="url(#clip360)" d="M2472.13 1083.75 L2476.64 1083.75 L2484.75 1105.51 L2492.85 1083.75 L2497.36 1083.75 L2487.64 1109.68 L2481.85 1109.68 L2472.13 1083.75 Z" fill="#000000" fill-rule="nonzero" fill-opacity="1" /><path clip-path="url(#clip360)" d="M2510.81 1075.12 L2514.75 1075.12 L2502.71 1114.08 L2498.77 1114.08 L2510.81 1075.12 Z" fill="#000000" fill-rule="nonzero" fill-opacity="1" /><path clip-path="url(#clip360)" d="M2524.86 1110.35 Q2521.6 1110.35 2519.47 1108.38 Q2516.95 1106.05 2516.95 1101.81 Q2516.95 1097.41 2519.17 1093.99 Q2521.46 1090.47 2525.58 1090.47 Q2528.29 1090.47 2530.42 1092.16 Q2531.67 1093.15 2532.52 1094.82 Q2532.83 1092.94 2532.83 1090.81 Q2532.83 1087.69 2532.08 1085.88 Q2530.44 1081.88 2526.09 1081.88 Q2524.45 1081.88 2521.9 1082.9 L2521.9 1079.01 Q2524.58 1078.29 2526.99 1078.29 Q2533.2 1078.29 2535.83 1083.99 Q2537.06 1086.67 2537.06 1090.68 Q2537.06 1093.29 2536.48 1096.32 Q2535.02 1103.92 2531.25 1107.53 Q2528.29 1110.35 2524.86 1110.35 M2520.9 1102.5 Q2520.9 1104.82 2521.92 1106.07 Q2523.01 1107.39 2524.68 1107.39 Q2526.16 1107.39 2527.34 1106.35 Q2529.01 1104.91 2530.23 1102.57 Q2531.25 1100.65 2531.76 1098.59 Q2529.7 1093.62 2526.14 1093.62 Q2523.08 1093.62 2521.74 1097.64 Q2520.9 1100.14 2520.9 1102.5 Z" fill="#000000" fill-rule="nonzero" fill-opacity="1" /><path clip-path="url(#clip360)" d="M2562.34 1096.74 Q2562.34 1092.04 2560.39 1089.38 Q2558.47 1086.69 2555.09 1086.69 Q2551.71 1086.69 2549.77 1089.38 Q2547.85 1092.04 2547.85 1096.74 Q2547.85 1101.44 2549.77 1104.12 Q2551.71 1106.79 2555.09 1106.79 Q2558.47 1106.79 2560.39 1104.12 Q2562.34 1101.44 2562.34 1096.74 M2547.85 1087.69 Q2549.19 1085.37 2551.23 1084.26 Q2553.29 1083.13 2556.14 1083.13 Q2560.86 1083.13 2563.8 1086.88 Q2566.76 1090.63 2566.76 1096.74 Q2566.76 1102.85 2563.8 1106.6 Q2560.86 1110.35 2556.14 1110.35 Q2553.29 1110.35 2551.23 1109.24 Q2549.19 1108.11 2547.85 1105.79 L2547.85 1109.68 L2543.57 1109.68 L2543.57 1073.66 L2547.85 1073.66 L2547.85 1087.69 Z" fill="#000000" fill-rule="nonzero" fill-opacity="1" /><path clip-path="url(#clip360)" d="M2596 1095.65 L2596 1097.74 L2576.41 1097.74 Q2576.69 1102.13 2579.05 1104.45 Q2581.44 1106.74 2585.67 1106.74 Q2588.13 1106.74 2590.42 1106.14 Q2592.73 1105.54 2595 1104.33 L2595 1108.36 Q2592.71 1109.33 2590.3 1109.84 Q2587.89 1110.35 2585.42 1110.35 Q2579.21 1110.35 2575.58 1106.74 Q2571.97 1103.13 2571.97 1096.97 Q2571.97 1090.61 2575.39 1086.88 Q2578.84 1083.13 2584.68 1083.13 Q2589.91 1083.13 2592.94 1086.51 Q2596 1089.87 2596 1095.65 M2591.74 1094.4 Q2591.69 1090.91 2589.77 1088.82 Q2587.87 1086.74 2584.72 1086.74 Q2581.16 1086.74 2579.01 1088.75 Q2576.88 1090.77 2576.55 1094.43 L2591.74 1094.4 Z" fill="#000000" fill-rule="nonzero" fill-opacity="1" /><path clip-path="url(#clip360)" d="M2607.2 1076.39 L2607.2 1083.75 L2615.97 1083.75 L2615.97 1087.06 L2607.2 1087.06 L2607.2 1101.14 Q2607.2 1104.31 2608.06 1105.21 Q2608.94 1106.11 2611.6 1106.11 L2615.97 1106.11 L2615.97 1109.68 L2611.6 1109.68 Q2606.67 1109.68 2604.79 1107.85 Q2602.92 1106 2602.92 1101.14 L2602.92 1087.06 L2599.79 1087.06 L2599.79 1083.75 L2602.92 1083.75 L2602.92 1076.39 L2607.2 1076.39 Z" fill="#000000" fill-rule="nonzero" fill-opacity="1" /><path clip-path="url(#clip360)" d="M2633.36 1096.65 Q2628.19 1096.65 2626.2 1097.83 Q2624.21 1099.01 2624.21 1101.86 Q2624.21 1104.12 2625.69 1105.47 Q2627.2 1106.79 2629.77 1106.79 Q2633.31 1106.79 2635.44 1104.29 Q2637.59 1101.76 2637.59 1097.6 L2637.59 1096.65 L2633.36 1096.65 M2641.85 1094.89 L2641.85 1109.68 L2637.59 1109.68 L2637.59 1105.74 Q2636.13 1108.11 2633.96 1109.24 Q2631.78 1110.35 2628.63 1110.35 Q2624.65 1110.35 2622.29 1108.13 Q2619.95 1105.88 2619.95 1102.13 Q2619.95 1097.76 2622.87 1095.54 Q2625.81 1093.31 2631.62 1093.31 L2637.59 1093.31 L2637.59 1092.9 Q2637.59 1089.96 2635.65 1088.36 Q2633.73 1086.74 2630.23 1086.74 Q2628.01 1086.74 2625.9 1087.27 Q2623.8 1087.8 2621.85 1088.87 L2621.85 1084.93 Q2624.19 1084.03 2626.39 1083.59 Q2628.59 1083.13 2630.67 1083.13 Q2636.3 1083.13 2639.07 1086.05 Q2641.85 1088.96 2641.85 1094.89 Z" fill="#000000" fill-rule="nonzero" fill-opacity="1" /></svg>
