<?xml version="1.0" encoding="utf-8"?>
<svg xmlns="http://www.w3.org/2000/svg" xmlns:xlink="http://www.w3.org/1999/xlink" width="672" height="480" viewBox="0 0 2688 1920">
<defs>
  <clipPath id="clip450">
    <rect x="0" y="0" width="2688" height="1920"/>
  </clipPath>
</defs>
<path clip-path="url(#clip450)" d="M0 1920 L2688 1920 L2688 -4.26326e-14 L0 -4.26326e-14  Z" fill="#ffffff" fill-rule="evenodd" fill-opacity="1"/>
<defs>
  <clipPath id="clip451">
    <rect x="256" y="127" width="2385" height="1607"/>
  </clipPath>
</defs>
<path clip-path="url(#clip450)" d="M256.302 1734.12 L2640.76 1734.12 L2640.76 127.792 L256.302 127.792  Z" fill="#ffffff" fill-rule="evenodd" fill-opacity="1"/>
<polyline clip-path="url(#clip451)" style="stroke:#000000; stroke-linecap:round; stroke-linejoin:round; stroke-width:2; stroke-opacity:0.1; fill:none" points="323.787,1734.12 323.787,127.792 "/>
<polyline clip-path="url(#clip451)" style="stroke:#000000; stroke-linecap:round; stroke-linejoin:round; stroke-width:2; stroke-opacity:0.1; fill:none" points="886.158,1734.12 886.158,127.792 "/>
<polyline clip-path="url(#clip451)" style="stroke:#000000; stroke-linecap:round; stroke-linejoin:round; stroke-width:2; stroke-opacity:0.1; fill:none" points="1448.53,1734.12 1448.53,127.792 "/>
<polyline clip-path="url(#clip451)" style="stroke:#000000; stroke-linecap:round; stroke-linejoin:round; stroke-width:2; stroke-opacity:0.1; fill:none" points="2010.9,1734.12 2010.9,127.792 "/>
<polyline clip-path="url(#clip451)" style="stroke:#000000; stroke-linecap:round; stroke-linejoin:round; stroke-width:2; stroke-opacity:0.1; fill:none" points="2573.27,1734.12 2573.27,127.792 "/>
<polyline clip-path="url(#clip451)" style="stroke:#000000; stroke-linecap:round; stroke-linejoin:round; stroke-width:2; stroke-opacity:0.1; fill:none" points="256.302,1581.51 2640.76,1581.51 "/>
<polyline clip-path="url(#clip451)" style="stroke:#000000; stroke-linecap:round; stroke-linejoin:round; stroke-width:2; stroke-opacity:0.1; fill:none" points="256.302,1275.36 2640.76,1275.36 "/>
<polyline clip-path="url(#clip451)" style="stroke:#000000; stroke-linecap:round; stroke-linejoin:round; stroke-width:2; stroke-opacity:0.1; fill:none" points="256.302,969.222 2640.76,969.222 "/>
<polyline clip-path="url(#clip451)" style="stroke:#000000; stroke-linecap:round; stroke-linejoin:round; stroke-width:2; stroke-opacity:0.1; fill:none" points="256.302,663.081 2640.76,663.081 "/>
<polyline clip-path="url(#clip451)" style="stroke:#000000; stroke-linecap:round; stroke-linejoin:round; stroke-width:2; stroke-opacity:0.1; fill:none" points="256.302,356.939 2640.76,356.939 "/>
<polyline clip-path="url(#clip450)" style="stroke:#000000; stroke-linecap:round; stroke-linejoin:round; stroke-width:4; stroke-opacity:1; fill:none" points="256.302,1734.12 2640.76,1734.12 "/>
<polyline clip-path="url(#clip450)" style="stroke:#000000; stroke-linecap:round; stroke-linejoin:round; stroke-width:4; stroke-opacity:1; fill:none" points="323.787,1734.12 323.787,1715.22 "/>
<polyline clip-path="url(#clip450)" style="stroke:#000000; stroke-linecap:round; stroke-linejoin:round; stroke-width:4; stroke-opacity:1; fill:none" points="886.158,1734.12 886.158,1715.22 "/>
<polyline clip-path="url(#clip450)" style="stroke:#000000; stroke-linecap:round; stroke-linejoin:round; stroke-width:4; stroke-opacity:1; fill:none" points="1448.53,1734.12 1448.53,1715.22 "/>
<polyline clip-path="url(#clip450)" style="stroke:#000000; stroke-linecap:round; stroke-linejoin:round; stroke-width:4; stroke-opacity:1; fill:none" points="2010.9,1734.12 2010.9,1715.22 "/>
<polyline clip-path="url(#clip450)" style="stroke:#000000; stroke-linecap:round; stroke-linejoin:round; stroke-width:4; stroke-opacity:1; fill:none" points="2573.27,1734.12 2573.27,1715.22 "/>
<path clip-path="url(#clip450)" d="M323.787 1767.34 Q320.176 1767.34 318.347 1770.9 Q316.542 1774.45 316.542 1781.58 Q316.542 1788.68 318.347 1792.25 Q320.176 1795.79 323.787 1795.79 Q327.421 1795.79 329.227 1792.25 Q331.055 1788.68 331.055 1781.58 Q331.055 1774.45 329.227 1770.9 Q327.421 1767.34 323.787 1767.34 M323.787 1763.64 Q329.597 1763.64 332.653 1768.24 Q335.731 1772.83 335.731 1781.58 Q335.731 1790.3 332.653 1794.91 Q329.597 1799.49 323.787 1799.49 Q317.977 1799.49 314.898 1794.91 Q311.843 1790.3 311.843 1781.58 Q311.843 1772.83 314.898 1768.24 Q317.977 1763.64 323.787 1763.64 Z" fill="#000000" fill-rule="nonzero" fill-opacity="1" /><path clip-path="url(#clip450)" d="M860.846 1794.89 L868.485 1794.89 L868.485 1768.52 L860.174 1770.19 L860.174 1765.93 L868.438 1764.26 L873.114 1764.26 L873.114 1794.89 L880.753 1794.89 L880.753 1798.82 L860.846 1798.82 L860.846 1794.89 Z" fill="#000000" fill-rule="nonzero" fill-opacity="1" /><path clip-path="url(#clip450)" d="M900.197 1767.34 Q896.586 1767.34 894.758 1770.9 Q892.952 1774.45 892.952 1781.58 Q892.952 1788.68 894.758 1792.25 Q896.586 1795.79 900.197 1795.79 Q903.832 1795.79 905.637 1792.25 Q907.466 1788.68 907.466 1781.58 Q907.466 1774.45 905.637 1770.9 Q903.832 1767.34 900.197 1767.34 M900.197 1763.64 Q906.007 1763.64 909.063 1768.24 Q912.142 1772.83 912.142 1781.58 Q912.142 1790.3 909.063 1794.91 Q906.007 1799.49 900.197 1799.49 Q894.387 1799.49 891.308 1794.91 Q888.253 1790.3 888.253 1781.58 Q888.253 1772.83 891.308 1768.24 Q894.387 1763.64 900.197 1763.64 Z" fill="#000000" fill-rule="nonzero" fill-opacity="1" /><path clip-path="url(#clip450)" d="M1427.3 1794.89 L1443.62 1794.89 L1443.62 1798.82 L1421.68 1798.82 L1421.68 1794.89 Q1424.34 1792.13 1428.92 1787.5 Q1433.53 1782.85 1434.71 1781.51 Q1436.96 1778.98 1437.83 1777.25 Q1438.74 1775.49 1438.74 1773.8 Q1438.74 1771.04 1436.79 1769.31 Q1434.87 1767.57 1431.77 1767.57 Q1429.57 1767.57 1427.12 1768.34 Q1424.69 1769.1 1421.91 1770.65 L1421.91 1765.93 Q1424.73 1764.79 1427.19 1764.21 Q1429.64 1763.64 1431.68 1763.64 Q1437.05 1763.64 1440.24 1766.32 Q1443.44 1769.01 1443.44 1773.5 Q1443.44 1775.63 1442.63 1777.55 Q1441.84 1779.45 1439.73 1782.04 Q1439.15 1782.71 1436.05 1785.93 Q1432.95 1789.12 1427.3 1794.89 Z" fill="#000000" fill-rule="nonzero" fill-opacity="1" /><path clip-path="url(#clip450)" d="M1463.44 1767.34 Q1459.83 1767.34 1458 1770.9 Q1456.19 1774.45 1456.19 1781.58 Q1456.19 1788.68 1458 1792.25 Q1459.83 1795.79 1463.44 1795.79 Q1467.07 1795.79 1468.88 1792.25 Q1470.7 1788.68 1470.7 1781.58 Q1470.7 1774.45 1468.88 1770.9 Q1467.07 1767.34 1463.44 1767.34 M1463.44 1763.64 Q1469.25 1763.64 1472.3 1768.24 Q1475.38 1772.83 1475.38 1781.58 Q1475.38 1790.3 1472.3 1794.91 Q1469.25 1799.49 1463.44 1799.49 Q1457.63 1799.49 1454.55 1794.91 Q1451.49 1790.3 1451.49 1781.58 Q1451.49 1772.83 1454.55 1768.24 Q1457.63 1763.64 1463.44 1763.64 Z" fill="#000000" fill-rule="nonzero" fill-opacity="1" /><path clip-path="url(#clip450)" d="M1999.74 1780.19 Q2003.1 1780.9 2004.97 1783.17 Q2006.87 1785.44 2006.87 1788.77 Q2006.87 1793.89 2003.35 1796.69 Q1999.84 1799.49 1993.35 1799.49 Q1991.18 1799.49 1988.86 1799.05 Q1986.57 1798.64 1984.12 1797.78 L1984.12 1793.27 Q1986.06 1794.4 1988.38 1794.98 Q1990.69 1795.56 1993.22 1795.56 Q1997.61 1795.56 1999.9 1793.82 Q2002.22 1792.08 2002.22 1788.77 Q2002.22 1785.72 2000.07 1784.01 Q1997.94 1782.27 1994.12 1782.27 L1990.09 1782.27 L1990.09 1778.43 L1994.3 1778.43 Q1997.75 1778.43 1999.58 1777.06 Q2001.41 1775.67 2001.41 1773.08 Q2001.41 1770.42 1999.51 1769.01 Q1997.64 1767.57 1994.12 1767.57 Q1992.2 1767.57 1990 1767.99 Q1987.8 1768.4 1985.16 1769.28 L1985.16 1765.12 Q1987.82 1764.38 1990.14 1764.01 Q1992.47 1763.64 1994.53 1763.64 Q1999.86 1763.64 2002.96 1766.07 Q2006.06 1768.47 2006.06 1772.59 Q2006.06 1775.46 2004.42 1777.46 Q2002.78 1779.42 1999.74 1780.19 Z" fill="#000000" fill-rule="nonzero" fill-opacity="1" /><path clip-path="url(#clip450)" d="M2025.74 1767.34 Q2022.13 1767.34 2020.3 1770.9 Q2018.49 1774.45 2018.49 1781.58 Q2018.49 1788.68 2020.3 1792.25 Q2022.13 1795.79 2025.74 1795.79 Q2029.37 1795.79 2031.18 1792.25 Q2033.01 1788.68 2033.01 1781.58 Q2033.01 1774.45 2031.18 1770.9 Q2029.37 1767.34 2025.74 1767.34 M2025.74 1763.64 Q2031.55 1763.64 2034.6 1768.24 Q2037.68 1772.83 2037.68 1781.58 Q2037.68 1790.3 2034.6 1794.91 Q2031.55 1799.49 2025.74 1799.49 Q2019.93 1799.49 2016.85 1794.91 Q2013.79 1790.3 2013.79 1781.58 Q2013.79 1772.83 2016.85 1768.24 Q2019.93 1763.64 2025.74 1763.64 Z" fill="#000000" fill-rule="nonzero" fill-opacity="1" /><path clip-path="url(#clip450)" d="M2561.44 1768.34 L2549.64 1786.78 L2561.44 1786.78 L2561.44 1768.34 M2560.22 1764.26 L2566.1 1764.26 L2566.1 1786.78 L2571.03 1786.78 L2571.03 1790.67 L2566.1 1790.67 L2566.1 1798.82 L2561.44 1798.82 L2561.44 1790.67 L2545.84 1790.67 L2545.84 1786.16 L2560.22 1764.26 Z" fill="#000000" fill-rule="nonzero" fill-opacity="1" /><path clip-path="url(#clip450)" d="M2588.76 1767.34 Q2585.15 1767.34 2583.32 1770.9 Q2581.51 1774.45 2581.51 1781.58 Q2581.51 1788.68 2583.32 1792.25 Q2585.15 1795.79 2588.76 1795.79 Q2592.39 1795.79 2594.2 1792.25 Q2596.03 1788.68 2596.03 1781.58 Q2596.03 1774.45 2594.2 1770.9 Q2592.39 1767.34 2588.76 1767.34 M2588.76 1763.64 Q2594.57 1763.64 2597.62 1768.24 Q2600.7 1772.83 2600.7 1781.58 Q2600.7 1790.3 2597.62 1794.91 Q2594.57 1799.49 2588.76 1799.49 Q2582.95 1799.49 2579.87 1794.91 Q2576.81 1790.3 2576.81 1781.58 Q2576.81 1772.83 2579.87 1768.24 Q2582.95 1763.64 2588.76 1763.64 Z" fill="#000000" fill-rule="nonzero" fill-opacity="1" /><path clip-path="url(#clip450)" d="M1394.77 1841.06 L1394.77 1878.02 L1402.54 1878.02 Q1412.37 1878.02 1416.92 1873.56 Q1421.51 1869.11 1421.51 1859.49 Q1421.51 1849.94 1416.92 1845.52 Q1412.37 1841.06 1402.54 1841.06 L1394.77 1841.06 M1388.34 1835.78 L1401.55 1835.78 Q1415.36 1835.78 1421.83 1841.54 Q1428.29 1847.27 1428.29 1859.49 Q1428.29 1871.78 1421.79 1877.54 Q1415.3 1883.3 1401.55 1883.3 L1388.34 1883.3 L1388.34 1835.78 Z" fill="#000000" fill-rule="nonzero" fill-opacity="1" /><path clip-path="url(#clip450)" d="M1454.48 1865.38 Q1447.38 1865.38 1444.65 1867 Q1441.91 1868.63 1441.91 1872.54 Q1441.91 1875.66 1443.95 1877.51 Q1446.01 1879.32 1449.55 1879.32 Q1454.42 1879.32 1457.35 1875.88 Q1460.31 1872.42 1460.31 1866.69 L1460.31 1865.38 L1454.48 1865.38 M1466.16 1862.96 L1466.16 1883.3 L1460.31 1883.3 L1460.31 1877.89 Q1458.3 1881.14 1455.31 1882.7 Q1452.32 1884.22 1447.99 1884.22 Q1442.51 1884.22 1439.27 1881.17 Q1436.05 1878.08 1436.05 1872.92 Q1436.05 1866.91 1440.06 1863.85 Q1444.11 1860.8 1452.09 1860.8 L1460.31 1860.8 L1460.31 1860.23 Q1460.31 1856.18 1457.63 1853.99 Q1454.99 1851.76 1450.18 1851.76 Q1447.13 1851.76 1444.23 1852.49 Q1441.34 1853.22 1438.66 1854.69 L1438.66 1849.28 Q1441.88 1848.03 1444.9 1847.43 Q1447.92 1846.79 1450.79 1846.79 Q1458.52 1846.79 1462.34 1850.8 Q1466.16 1854.81 1466.16 1862.96 Z" fill="#000000" fill-rule="nonzero" fill-opacity="1" /><path clip-path="url(#clip450)" d="M1493.06 1886.61 Q1490.57 1892.98 1488.22 1894.92 Q1485.86 1896.86 1481.92 1896.86 L1477.24 1896.86 L1477.24 1891.96 L1480.68 1891.96 Q1483.09 1891.96 1484.43 1890.81 Q1485.77 1889.67 1487.39 1885.4 L1488.44 1882.73 L1474.02 1847.65 L1480.23 1847.65 L1491.37 1875.53 L1502.51 1847.65 L1508.72 1847.65 L1493.06 1886.61 Z" fill="#000000" fill-rule="nonzero" fill-opacity="1" /><polyline clip-path="url(#clip450)" style="stroke:#000000; stroke-linecap:round; stroke-linejoin:round; stroke-width:4; stroke-opacity:1; fill:none" points="256.302,1734.12 256.302,127.792 "/>
<polyline clip-path="url(#clip450)" style="stroke:#000000; stroke-linecap:round; stroke-linejoin:round; stroke-width:4; stroke-opacity:1; fill:none" points="256.302,1581.51 275.2,1581.51 "/>
<polyline clip-path="url(#clip450)" style="stroke:#000000; stroke-linecap:round; stroke-linejoin:round; stroke-width:4; stroke-opacity:1; fill:none" points="256.302,1275.36 275.2,1275.36 "/>
<polyline clip-path="url(#clip450)" style="stroke:#000000; stroke-linecap:round; stroke-linejoin:round; stroke-width:4; stroke-opacity:1; fill:none" points="256.302,969.222 275.2,969.222 "/>
<polyline clip-path="url(#clip450)" style="stroke:#000000; stroke-linecap:round; stroke-linejoin:round; stroke-width:4; stroke-opacity:1; fill:none" points="256.302,663.081 275.2,663.081 "/>
<polyline clip-path="url(#clip450)" style="stroke:#000000; stroke-linecap:round; stroke-linejoin:round; stroke-width:4; stroke-opacity:1; fill:none" points="256.302,356.939 275.2,356.939 "/>
<path clip-path="url(#clip450)" d="M130.242 1567.3 Q126.631 1567.3 124.802 1570.87 Q122.997 1574.41 122.997 1581.54 Q122.997 1588.65 124.802 1592.21 Q126.631 1595.75 130.242 1595.75 Q133.876 1595.75 135.682 1592.21 Q137.511 1588.65 137.511 1581.54 Q137.511 1574.41 135.682 1570.87 Q133.876 1567.3 130.242 1567.3 M130.242 1563.6 Q136.052 1563.6 139.108 1568.21 Q142.187 1572.79 142.187 1581.54 Q142.187 1590.27 139.108 1594.87 Q136.052 1599.46 130.242 1599.46 Q124.432 1599.46 121.353 1594.87 Q118.298 1590.27 118.298 1581.54 Q118.298 1572.79 121.353 1568.21 Q124.432 1563.6 130.242 1563.6 Z" fill="#000000" fill-rule="nonzero" fill-opacity="1" /><path clip-path="url(#clip450)" d="M150.404 1592.91 L155.288 1592.91 L155.288 1598.79 L150.404 1598.79 L150.404 1592.91 Z" fill="#000000" fill-rule="nonzero" fill-opacity="1" /><path clip-path="url(#clip450)" d="M175.473 1567.3 Q171.862 1567.3 170.034 1570.87 Q168.228 1574.41 168.228 1581.54 Q168.228 1588.65 170.034 1592.21 Q171.862 1595.75 175.473 1595.75 Q179.108 1595.75 180.913 1592.21 Q182.742 1588.65 182.742 1581.54 Q182.742 1574.41 180.913 1570.87 Q179.108 1567.3 175.473 1567.3 M175.473 1563.6 Q181.284 1563.6 184.339 1568.21 Q187.418 1572.79 187.418 1581.54 Q187.418 1590.27 184.339 1594.87 Q181.284 1599.46 175.473 1599.46 Q169.663 1599.46 166.585 1594.87 Q163.529 1590.27 163.529 1581.54 Q163.529 1572.79 166.585 1568.21 Q169.663 1563.6 175.473 1563.6 Z" fill="#000000" fill-rule="nonzero" fill-opacity="1" /><path clip-path="url(#clip450)" d="M199.663 1594.85 L215.982 1594.85 L215.982 1598.79 L194.038 1598.79 L194.038 1594.85 Q196.7 1592.1 201.283 1587.47 Q205.89 1582.81 207.07 1581.47 Q209.316 1578.95 210.195 1577.21 Q211.098 1575.45 211.098 1573.76 Q211.098 1571.01 209.154 1569.27 Q207.232 1567.54 204.131 1567.54 Q201.932 1567.54 199.478 1568.3 Q197.047 1569.06 194.27 1570.61 L194.27 1565.89 Q197.094 1564.76 199.547 1564.18 Q202.001 1563.6 204.038 1563.6 Q209.408 1563.6 212.603 1566.29 Q215.797 1568.97 215.797 1573.46 Q215.797 1575.59 214.987 1577.51 Q214.2 1579.41 212.094 1582 Q211.515 1582.67 208.413 1585.89 Q205.311 1589.09 199.663 1594.85 Z" fill="#000000" fill-rule="nonzero" fill-opacity="1" /><path clip-path="url(#clip450)" d="M128.159 1261.16 Q124.548 1261.16 122.719 1264.73 Q120.913 1268.27 120.913 1275.4 Q120.913 1282.5 122.719 1286.07 Q124.548 1289.61 128.159 1289.61 Q131.793 1289.61 133.599 1286.07 Q135.427 1282.5 135.427 1275.4 Q135.427 1268.27 133.599 1264.73 Q131.793 1261.16 128.159 1261.16 M128.159 1257.46 Q133.969 1257.46 137.025 1262.07 Q140.103 1266.65 140.103 1275.4 Q140.103 1284.13 137.025 1288.73 Q133.969 1293.32 128.159 1293.32 Q122.349 1293.32 119.27 1288.73 Q116.214 1284.13 116.214 1275.4 Q116.214 1266.65 119.27 1262.07 Q122.349 1257.46 128.159 1257.46 Z" fill="#000000" fill-rule="nonzero" fill-opacity="1" /><path clip-path="url(#clip450)" d="M148.321 1286.76 L153.205 1286.76 L153.205 1292.64 L148.321 1292.64 L148.321 1286.76 Z" fill="#000000" fill-rule="nonzero" fill-opacity="1" /><path clip-path="url(#clip450)" d="M173.39 1261.16 Q169.779 1261.16 167.95 1264.73 Q166.145 1268.27 166.145 1275.4 Q166.145 1282.5 167.95 1286.07 Q169.779 1289.61 173.39 1289.61 Q177.024 1289.61 178.83 1286.07 Q180.659 1282.5 180.659 1275.4 Q180.659 1268.27 178.83 1264.73 Q177.024 1261.16 173.39 1261.16 M173.39 1257.46 Q179.2 1257.46 182.256 1262.07 Q185.334 1266.65 185.334 1275.4 Q185.334 1284.13 182.256 1288.73 Q179.2 1293.32 173.39 1293.32 Q167.58 1293.32 164.501 1288.73 Q161.446 1284.13 161.446 1275.4 Q161.446 1266.65 164.501 1262.07 Q167.58 1257.46 173.39 1257.46 Z" fill="#000000" fill-rule="nonzero" fill-opacity="1" /><path clip-path="url(#clip450)" d="M206.399 1262.16 L194.594 1280.61 L206.399 1280.61 L206.399 1262.16 M205.172 1258.08 L211.052 1258.08 L211.052 1280.61 L215.982 1280.61 L215.982 1284.5 L211.052 1284.5 L211.052 1292.64 L206.399 1292.64 L206.399 1284.5 L190.797 1284.5 L190.797 1279.98 L205.172 1258.08 Z" fill="#000000" fill-rule="nonzero" fill-opacity="1" /><path clip-path="url(#clip450)" d="M128.483 955.021 Q124.872 955.021 123.043 958.586 Q121.238 962.127 121.238 969.257 Q121.238 976.363 123.043 979.928 Q124.872 983.47 128.483 983.47 Q132.117 983.47 133.923 979.928 Q135.751 976.363 135.751 969.257 Q135.751 962.127 133.923 958.586 Q132.117 955.021 128.483 955.021 M128.483 951.317 Q134.293 951.317 137.349 955.924 Q140.427 960.507 140.427 969.257 Q140.427 977.984 137.349 982.59 Q134.293 987.174 128.483 987.174 Q122.673 987.174 119.594 982.59 Q116.539 977.984 116.539 969.257 Q116.539 960.507 119.594 955.924 Q122.673 951.317 128.483 951.317 Z" fill="#000000" fill-rule="nonzero" fill-opacity="1" /><path clip-path="url(#clip450)" d="M148.645 980.623 L153.529 980.623 L153.529 986.502 L148.645 986.502 L148.645 980.623 Z" fill="#000000" fill-rule="nonzero" fill-opacity="1" /><path clip-path="url(#clip450)" d="M173.714 955.021 Q170.103 955.021 168.274 958.586 Q166.469 962.127 166.469 969.257 Q166.469 976.363 168.274 979.928 Q170.103 983.47 173.714 983.47 Q177.348 983.47 179.154 979.928 Q180.983 976.363 180.983 969.257 Q180.983 962.127 179.154 958.586 Q177.348 955.021 173.714 955.021 M173.714 951.317 Q179.524 951.317 182.58 955.924 Q185.659 960.507 185.659 969.257 Q185.659 977.984 182.58 982.59 Q179.524 987.174 173.714 987.174 Q167.904 987.174 164.825 982.59 Q161.77 977.984 161.77 969.257 Q161.77 960.507 164.825 955.924 Q167.904 951.317 173.714 951.317 Z" fill="#000000" fill-rule="nonzero" fill-opacity="1" /><path clip-path="url(#clip450)" d="M204.455 967.359 Q201.307 967.359 199.455 969.512 Q197.626 971.664 197.626 975.414 Q197.626 979.141 199.455 981.317 Q201.307 983.47 204.455 983.47 Q207.603 983.47 209.432 981.317 Q211.283 979.141 211.283 975.414 Q211.283 971.664 209.432 969.512 Q207.603 967.359 204.455 967.359 M213.737 952.706 L213.737 956.965 Q211.978 956.132 210.172 955.692 Q208.39 955.252 206.631 955.252 Q202.001 955.252 199.547 958.377 Q197.117 961.502 196.77 967.822 Q198.135 965.808 200.195 964.743 Q202.256 963.655 204.732 963.655 Q209.941 963.655 212.95 966.826 Q215.982 969.975 215.982 975.414 Q215.982 980.738 212.834 983.956 Q209.686 987.174 204.455 987.174 Q198.459 987.174 195.288 982.59 Q192.117 977.984 192.117 969.257 Q192.117 961.063 196.006 956.201 Q199.895 951.317 206.445 951.317 Q208.205 951.317 209.987 951.664 Q211.793 952.012 213.737 952.706 Z" fill="#000000" fill-rule="nonzero" fill-opacity="1" /><path clip-path="url(#clip450)" d="M128.738 648.879 Q125.126 648.879 123.298 652.444 Q121.492 655.986 121.492 663.115 Q121.492 670.222 123.298 673.787 Q125.126 677.328 128.738 677.328 Q132.372 677.328 134.177 673.787 Q136.006 670.222 136.006 663.115 Q136.006 655.986 134.177 652.444 Q132.372 648.879 128.738 648.879 M128.738 645.176 Q134.548 645.176 137.603 649.782 Q140.682 654.365 140.682 663.115 Q140.682 671.842 137.603 676.449 Q134.548 681.032 128.738 681.032 Q122.927 681.032 119.849 676.449 Q116.793 671.842 116.793 663.115 Q116.793 654.365 119.849 649.782 Q122.927 645.176 128.738 645.176 Z" fill="#000000" fill-rule="nonzero" fill-opacity="1" /><path clip-path="url(#clip450)" d="M148.899 674.481 L153.784 674.481 L153.784 680.361 L148.899 680.361 L148.899 674.481 Z" fill="#000000" fill-rule="nonzero" fill-opacity="1" /><path clip-path="url(#clip450)" d="M173.969 648.879 Q170.358 648.879 168.529 652.444 Q166.723 655.986 166.723 663.115 Q166.723 670.222 168.529 673.787 Q170.358 677.328 173.969 677.328 Q177.603 677.328 179.409 673.787 Q181.237 670.222 181.237 663.115 Q181.237 655.986 179.409 652.444 Q177.603 648.879 173.969 648.879 M173.969 645.176 Q179.779 645.176 182.834 649.782 Q185.913 654.365 185.913 663.115 Q185.913 671.842 182.834 676.449 Q179.779 681.032 173.969 681.032 Q168.159 681.032 165.08 676.449 Q162.024 671.842 162.024 663.115 Q162.024 654.365 165.08 649.782 Q168.159 645.176 173.969 645.176 Z" fill="#000000" fill-rule="nonzero" fill-opacity="1" /><path clip-path="url(#clip450)" d="M204.131 663.949 Q200.797 663.949 198.876 665.731 Q196.978 667.514 196.978 670.639 Q196.978 673.763 198.876 675.546 Q200.797 677.328 204.131 677.328 Q207.464 677.328 209.385 675.546 Q211.307 673.74 211.307 670.639 Q211.307 667.514 209.385 665.731 Q207.487 663.949 204.131 663.949 M199.455 661.958 Q196.445 661.217 194.756 659.157 Q193.089 657.097 193.089 654.134 Q193.089 649.99 196.029 647.583 Q198.992 645.176 204.131 645.176 Q209.293 645.176 212.232 647.583 Q215.172 649.99 215.172 654.134 Q215.172 657.097 213.482 659.157 Q211.816 661.217 208.83 661.958 Q212.209 662.745 214.084 665.037 Q215.982 667.328 215.982 670.639 Q215.982 675.662 212.904 678.347 Q209.848 681.032 204.131 681.032 Q198.413 681.032 195.334 678.347 Q192.279 675.662 192.279 670.639 Q192.279 667.328 194.177 665.037 Q196.075 662.745 199.455 661.958 M197.742 654.574 Q197.742 657.259 199.408 658.764 Q201.098 660.268 204.131 660.268 Q207.14 660.268 208.83 658.764 Q210.543 657.259 210.543 654.574 Q210.543 651.889 208.83 650.384 Q207.14 648.879 204.131 648.879 Q201.098 648.879 199.408 650.384 Q197.742 651.889 197.742 654.574 Z" fill="#000000" fill-rule="nonzero" fill-opacity="1" /><path clip-path="url(#clip450)" d="M128.645 342.738 Q125.034 342.738 123.205 346.303 Q121.4 349.844 121.4 356.974 Q121.4 364.08 123.205 367.645 Q125.034 371.187 128.645 371.187 Q132.279 371.187 134.085 367.645 Q135.913 364.08 135.913 356.974 Q135.913 349.844 134.085 346.303 Q132.279 342.738 128.645 342.738 M128.645 339.034 Q134.455 339.034 137.511 343.641 Q140.589 348.224 140.589 356.974 Q140.589 365.701 137.511 370.307 Q134.455 374.89 128.645 374.89 Q122.835 374.89 119.756 370.307 Q116.701 365.701 116.701 356.974 Q116.701 348.224 119.756 343.641 Q122.835 339.034 128.645 339.034 Z" fill="#000000" fill-rule="nonzero" fill-opacity="1" /><path clip-path="url(#clip450)" d="M148.807 368.339 L153.691 368.339 L153.691 374.219 L148.807 374.219 L148.807 368.339 Z" fill="#000000" fill-rule="nonzero" fill-opacity="1" /><path clip-path="url(#clip450)" d="M164.686 370.284 L172.325 370.284 L172.325 343.918 L164.015 345.585 L164.015 341.326 L172.279 339.659 L176.955 339.659 L176.955 370.284 L184.594 370.284 L184.594 374.219 L164.686 374.219 L164.686 370.284 Z" fill="#000000" fill-rule="nonzero" fill-opacity="1" /><path clip-path="url(#clip450)" d="M204.038 342.738 Q200.427 342.738 198.598 346.303 Q196.793 349.844 196.793 356.974 Q196.793 364.08 198.598 367.645 Q200.427 371.187 204.038 371.187 Q207.672 371.187 209.478 367.645 Q211.307 364.08 211.307 356.974 Q211.307 349.844 209.478 346.303 Q207.672 342.738 204.038 342.738 M204.038 339.034 Q209.848 339.034 212.904 343.641 Q215.982 348.224 215.982 356.974 Q215.982 365.701 212.904 370.307 Q209.848 374.89 204.038 374.89 Q198.228 374.89 195.149 370.307 Q192.094 365.701 192.094 356.974 Q192.094 348.224 195.149 343.641 Q198.228 339.034 204.038 339.034 Z" fill="#000000" fill-rule="nonzero" fill-opacity="1" /><path clip-path="url(#clip450)" d="M19.402 1098.4 L37.2578 1098.4 L37.2578 1090.32 Q37.2578 1085.83 34.9343 1083.38 Q32.6108 1080.93 28.314 1080.93 Q24.0489 1080.93 21.7255 1083.38 Q19.402 1085.83 19.402 1090.32 L19.402 1098.4 M14.1184 1104.83 L14.1184 1090.32 Q14.1184 1082.33 17.7469 1078.26 Q21.3435 1074.15 28.314 1074.15 Q35.3481 1074.15 38.9447 1078.26 Q42.5413 1082.33 42.5413 1090.32 L42.5413 1098.4 L61.6384 1098.4 L61.6384 1104.83 L14.1184 1104.83 Z" fill="#000000" fill-rule="nonzero" fill-opacity="1" /><path clip-path="url(#clip450)" d="M31.465 1046.27 Q30.8921 1047.26 30.6375 1048.43 Q30.351 1049.58 30.351 1050.98 Q30.351 1055.95 33.5975 1058.62 Q36.8122 1061.26 42.8596 1061.26 L61.6384 1061.26 L61.6384 1067.15 L25.9905 1067.15 L25.9905 1061.26 L31.5287 1061.26 Q28.2821 1059.41 26.7225 1056.45 Q25.1311 1053.49 25.1311 1049.26 Q25.1311 1048.66 25.2266 1047.92 Q25.2903 1047.19 25.4494 1046.3 L31.465 1046.27 Z" fill="#000000" fill-rule="nonzero" fill-opacity="1" /><path clip-path="url(#clip450)" d="M42.3504 1011.07 L45.2149 1011.07 L45.2149 1037.99 Q51.2623 1037.61 54.4452 1034.37 Q57.5962 1031.09 57.5962 1025.26 Q57.5962 1021.89 56.7687 1018.74 Q55.9411 1015.55 54.2861 1012.44 L59.8242 1012.44 Q61.161 1015.59 61.8612 1018.9 Q62.5615 1022.21 62.5615 1025.61 Q62.5615 1034.14 57.5962 1039.14 Q52.631 1044.1 44.1646 1044.1 Q35.4117 1044.1 30.2873 1039.39 Q25.1311 1034.65 25.1311 1026.63 Q25.1311 1019.44 29.7781 1015.27 Q34.3932 1011.07 42.3504 1011.07 M40.6316 1016.92 Q35.8255 1016.99 32.9609 1019.63 Q30.0964 1022.24 30.0964 1026.57 Q30.0964 1031.47 32.8654 1034.43 Q35.6345 1037.36 40.6634 1037.8 L40.6316 1016.92 Z" fill="#000000" fill-rule="nonzero" fill-opacity="1" /><path clip-path="url(#clip450)" d="M25.9905 1005.66 L25.9905 999.45 L55.9093 988.31 L25.9905 977.17 L25.9905 970.963 L61.6384 984.331 L61.6384 992.288 L25.9905 1005.66 Z" fill="#000000" fill-rule="nonzero" fill-opacity="1" /><path clip-path="url(#clip450)" d="M43.719 946.678 Q43.719 953.776 45.3422 956.513 Q46.9655 959.25 50.8804 959.25 Q53.9996 959.25 55.8457 957.213 Q57.6599 955.144 57.6599 951.611 Q57.6599 946.742 54.2224 943.813 Q50.7531 940.853 45.0239 940.853 L43.719 940.853 L43.719 946.678 M41.3 934.997 L61.6384 934.997 L61.6384 940.853 L56.2276 940.853 Q59.4741 942.858 61.0337 945.85 Q62.5615 948.842 62.5615 953.171 Q62.5615 958.645 59.5059 961.892 Q56.4186 965.107 51.2623 965.107 Q45.2467 965.107 42.1912 961.096 Q39.1357 957.054 39.1357 949.065 L39.1357 940.853 L38.5628 940.853 Q34.5205 940.853 32.3244 943.527 Q30.0964 946.169 30.0964 950.975 Q30.0964 954.03 30.8284 956.927 Q31.5605 959.823 33.0246 962.497 L27.6137 962.497 Q26.3724 959.282 25.7677 956.258 Q25.1311 953.235 25.1311 950.37 Q25.1311 942.636 29.1415 938.816 Q33.1519 934.997 41.3 934.997 Z" fill="#000000" fill-rule="nonzero" fill-opacity="1" /><path clip-path="url(#clip450)" d="M12.1132 922.934 L12.1132 917.077 L61.6384 917.077 L61.6384 922.934 L12.1132 922.934 Z" fill="#000000" fill-rule="nonzero" fill-opacity="1" /><path clip-path="url(#clip450)" d="M42.3504 874.332 L45.2149 874.332 L45.2149 901.259 Q51.2623 900.877 54.4452 897.63 Q57.5962 894.352 57.5962 888.527 Q57.5962 885.153 56.7687 882.002 Q55.9411 878.819 54.2861 875.7 L59.8242 875.7 Q61.161 878.851 61.8612 882.161 Q62.5615 885.472 62.5615 888.877 Q62.5615 897.407 57.5962 902.404 Q52.631 907.37 44.1646 907.37 Q35.4117 907.37 30.2873 902.659 Q25.1311 897.917 25.1311 889.896 Q25.1311 882.702 29.7781 878.533 Q34.3932 874.332 42.3504 874.332 M40.6316 880.188 Q35.8255 880.252 32.9609 882.893 Q30.0964 885.503 30.0964 889.832 Q30.0964 894.734 32.8654 897.694 Q35.6345 900.622 40.6634 901.068 L40.6316 880.188 Z" fill="#000000" fill-rule="nonzero" fill-opacity="1" /><path clip-path="url(#clip450)" d="M40.1224 835.087 L61.6384 835.087 L61.6384 840.943 L40.3133 840.943 Q35.2526 840.943 32.7381 842.917 Q30.2237 844.89 30.2237 848.837 Q30.2237 853.579 33.2474 856.317 Q36.2711 859.054 41.491 859.054 L61.6384 859.054 L61.6384 864.942 L25.9905 864.942 L25.9905 859.054 L31.5287 859.054 Q28.314 856.953 26.7225 854.12 Q25.1311 851.256 25.1311 847.532 Q25.1311 841.389 28.9505 838.238 Q32.7381 835.087 40.1224 835.087 Z" fill="#000000" fill-rule="nonzero" fill-opacity="1" /><path clip-path="url(#clip450)" d="M27.3591 797.752 L32.8336 797.752 Q31.465 800.235 30.7966 802.749 Q30.0964 805.232 30.0964 807.778 Q30.0964 813.475 33.7248 816.626 Q37.3214 819.777 43.8463 819.777 Q50.3711 819.777 53.9996 816.626 Q57.5962 813.475 57.5962 807.778 Q57.5962 805.232 56.9278 802.749 Q56.2276 800.235 54.859 797.752 L60.2698 797.752 Q61.4156 800.203 61.9886 802.845 Q62.5615 805.455 62.5615 808.415 Q62.5615 816.467 57.5007 821.21 Q52.44 825.952 43.8463 825.952 Q35.1253 825.952 30.1282 821.178 Q25.1311 816.372 25.1311 808.033 Q25.1311 805.327 25.704 802.749 Q26.2451 800.171 27.3591 797.752 Z" fill="#000000" fill-rule="nonzero" fill-opacity="1" /><path clip-path="url(#clip450)" d="M42.3504 757.075 L45.2149 757.075 L45.2149 784.002 Q51.2623 783.62 54.4452 780.374 Q57.5962 777.095 57.5962 771.271 Q57.5962 767.897 56.7687 764.746 Q55.9411 761.563 54.2861 758.444 L59.8242 758.444 Q61.161 761.595 61.8612 764.905 Q62.5615 768.215 62.5615 771.621 Q62.5615 780.151 57.5962 785.148 Q52.631 790.113 44.1646 790.113 Q35.4117 790.113 30.2873 785.403 Q25.1311 780.66 25.1311 772.639 Q25.1311 765.446 29.7781 761.277 Q34.3932 757.075 42.3504 757.075 M40.6316 762.932 Q35.8255 762.995 32.9609 765.637 Q30.0964 768.247 30.0964 772.576 Q30.0964 777.477 32.8654 780.437 Q35.6345 783.366 40.6634 783.811 L40.6316 762.932 Z" fill="#000000" fill-rule="nonzero" fill-opacity="1" /><path clip-path="url(#clip450)" d="M847.132 16.7545 L847.132 25.383 Q843 21.5346 838.301 19.6307 Q833.642 17.7268 828.376 17.7268 Q818.006 17.7268 812.497 24.0867 Q806.987 30.4061 806.987 42.3968 Q806.987 54.3469 812.497 60.7069 Q818.006 67.0263 828.376 67.0263 Q833.642 67.0263 838.301 65.1223 Q843 63.2184 847.132 59.3701 L847.132 67.9175 Q842.838 70.8341 838.017 72.2924 Q833.237 73.7508 827.89 73.7508 Q814.158 73.7508 806.258 65.3654 Q798.359 56.9395 798.359 42.3968 Q798.359 27.8135 806.258 19.4281 Q814.158 11.0023 827.89 11.0023 Q833.318 11.0023 838.098 12.4606 Q842.919 13.8784 847.132 16.7545 Z" fill="#000000" fill-rule="nonzero" fill-opacity="1" /><path clip-path="url(#clip450)" d="M877.028 32.4315 Q871.032 32.4315 867.548 37.1306 Q864.065 41.7891 864.065 49.9314 Q864.065 58.0738 867.508 62.7728 Q870.992 67.4314 877.028 67.4314 Q882.982 67.4314 886.466 62.7323 Q889.95 58.0333 889.95 49.9314 Q889.95 41.8701 886.466 37.1711 Q882.982 32.4315 877.028 32.4315 M877.028 26.1121 Q886.75 26.1121 892.3 32.4315 Q897.849 38.7509 897.849 49.9314 Q897.849 61.0714 892.3 67.4314 Q886.75 73.7508 877.028 73.7508 Q867.265 73.7508 861.715 67.4314 Q856.206 61.0714 856.206 49.9314 Q856.206 38.7509 861.715 32.4315 Q867.265 26.1121 877.028 26.1121 Z" fill="#000000" fill-rule="nonzero" fill-opacity="1" /><path clip-path="url(#clip450)" d="M945.528 35.9153 Q948.324 30.8922 952.212 28.5022 Q956.101 26.1121 961.367 26.1121 Q968.457 26.1121 972.305 31.0947 Q976.153 36.0368 976.153 45.1919 L976.153 72.576 L968.659 72.576 L968.659 45.4349 Q968.659 38.913 966.35 35.7533 Q964.041 32.5936 959.301 32.5936 Q953.509 32.5936 950.146 36.4419 Q946.784 40.2903 946.784 46.9338 L946.784 72.576 L939.29 72.576 L939.29 45.4349 Q939.29 38.8725 936.981 35.7533 Q934.672 32.5936 929.851 32.5936 Q924.14 32.5936 920.777 36.4824 Q917.415 40.3308 917.415 46.9338 L917.415 72.576 L909.921 72.576 L909.921 27.2059 L917.415 27.2059 L917.415 34.2544 Q919.967 30.082 923.532 28.0971 Q927.097 26.1121 931.998 26.1121 Q936.94 26.1121 940.384 28.6237 Q943.868 31.1352 945.528 35.9153 Z" fill="#000000" fill-rule="nonzero" fill-opacity="1" /><path clip-path="url(#clip450)" d="M1023.59 49.9314 Q1023.59 41.7081 1020.19 37.0496 Q1016.82 32.3505 1010.91 32.3505 Q1005 32.3505 1001.59 37.0496 Q998.231 41.7081 998.231 49.9314 Q998.231 58.1548 1001.59 62.8538 Q1005 67.5124 1010.91 67.5124 Q1016.82 67.5124 1020.19 62.8538 Q1023.59 58.1548 1023.59 49.9314 M998.231 34.0924 Q1000.58 30.0415 1004.14 28.0971 Q1007.75 26.1121 1012.73 26.1121 Q1021 26.1121 1026.14 32.6746 Q1031.33 39.2371 1031.33 49.9314 Q1031.33 60.6258 1026.14 67.1883 Q1021 73.7508 1012.73 73.7508 Q1007.75 73.7508 1004.14 71.8063 Q1000.58 69.8214 998.231 65.7705 L998.231 72.576 L990.736 72.576 L990.736 9.54393 L998.231 9.54393 L998.231 34.0924 Z" fill="#000000" fill-rule="nonzero" fill-opacity="1" /><path clip-path="url(#clip450)" d="M1043.68 27.2059 L1051.14 27.2059 L1051.14 72.576 L1043.68 72.576 L1043.68 27.2059 M1043.68 9.54393 L1051.14 9.54393 L1051.14 18.9825 L1043.68 18.9825 L1043.68 9.54393 Z" fill="#000000" fill-rule="nonzero" fill-opacity="1" /><path clip-path="url(#clip450)" d="M1104.45 45.1919 L1104.45 72.576 L1096.99 72.576 L1096.99 45.4349 Q1096.99 38.994 1094.48 35.7938 Q1091.97 32.5936 1086.95 32.5936 Q1080.91 32.5936 1077.43 36.4419 Q1073.94 40.2903 1073.94 46.9338 L1073.94 72.576 L1066.45 72.576 L1066.45 27.2059 L1073.94 27.2059 L1073.94 34.2544 Q1076.62 30.163 1080.22 28.1376 Q1083.87 26.1121 1088.61 26.1121 Q1096.42 26.1121 1100.43 30.9732 Q1104.45 35.7938 1104.45 45.1919 Z" fill="#000000" fill-rule="nonzero" fill-opacity="1" /><path clip-path="url(#clip450)" d="M1158.12 48.0275 L1158.12 51.6733 L1123.85 51.6733 Q1124.34 59.3701 1128.47 63.421 Q1132.64 67.4314 1140.05 67.4314 Q1144.35 67.4314 1148.36 66.3781 Q1152.41 65.3249 1156.38 63.2184 L1156.38 70.267 Q1152.37 71.9684 1148.15 72.8596 Q1143.94 73.7508 1139.61 73.7508 Q1128.75 73.7508 1122.39 67.4314 Q1116.07 61.1119 1116.07 50.3365 Q1116.07 39.1965 1122.07 32.6746 Q1128.1 26.1121 1138.31 26.1121 Q1147.47 26.1121 1152.77 32.0264 Q1158.12 37.9003 1158.12 48.0275 M1150.67 45.84 Q1150.59 39.7232 1147.22 36.0774 Q1143.9 32.4315 1138.39 32.4315 Q1132.15 32.4315 1128.39 35.9558 Q1124.66 39.4801 1124.09 45.8805 L1150.67 45.84 Z" fill="#000000" fill-rule="nonzero" fill-opacity="1" /><path clip-path="url(#clip450)" d="M1200.21 34.0924 L1200.21 9.54393 L1207.66 9.54393 L1207.66 72.576 L1200.21 72.576 L1200.21 65.7705 Q1197.86 69.8214 1194.25 71.8063 Q1190.69 73.7508 1185.67 73.7508 Q1177.44 73.7508 1172.26 67.1883 Q1167.11 60.6258 1167.11 49.9314 Q1167.11 39.2371 1172.26 32.6746 Q1177.44 26.1121 1185.67 26.1121 Q1190.69 26.1121 1194.25 28.0971 Q1197.86 30.0415 1200.21 34.0924 M1174.81 49.9314 Q1174.81 58.1548 1178.17 62.8538 Q1181.57 67.5124 1187.49 67.5124 Q1193.4 67.5124 1196.81 62.8538 Q1200.21 58.1548 1200.21 49.9314 Q1200.21 41.7081 1196.81 37.0496 Q1193.4 32.3505 1187.49 32.3505 Q1181.57 32.3505 1178.17 37.0496 Q1174.81 41.7081 1174.81 49.9314 Z" fill="#000000" fill-rule="nonzero" fill-opacity="1" /><path clip-path="url(#clip450)" d="M1265.31 72.576 L1242.22 12.096 L1250.76 12.096 L1269.92 63.0159 L1289.13 12.096 L1297.63 12.096 L1274.58 72.576 L1265.31 72.576 Z" fill="#000000" fill-rule="nonzero" fill-opacity="1" /><path clip-path="url(#clip450)" d="M1320.32 49.7694 Q1311.28 49.7694 1307.8 51.8354 Q1304.32 53.9013 1304.32 58.8839 Q1304.32 62.8538 1306.91 65.2034 Q1309.54 67.5124 1314.04 67.5124 Q1320.24 67.5124 1323.96 63.1374 Q1327.73 58.7219 1327.73 51.4303 L1327.73 49.7694 L1320.32 49.7694 M1335.18 46.6907 L1335.18 72.576 L1327.73 72.576 L1327.73 65.6895 Q1325.18 69.8214 1321.37 71.8063 Q1317.56 73.7508 1312.05 73.7508 Q1305.09 73.7508 1300.95 69.8619 Q1296.86 65.9325 1296.86 59.3701 Q1296.86 51.7138 1301.97 47.825 Q1307.11 43.9361 1317.28 43.9361 L1327.73 43.9361 L1327.73 43.2069 Q1327.73 38.0623 1324.33 35.2672 Q1320.97 32.4315 1314.85 32.4315 Q1310.96 32.4315 1307.27 33.3632 Q1303.59 34.295 1300.19 36.1584 L1300.19 29.2718 Q1304.28 27.692 1308.12 26.9223 Q1311.97 26.1121 1315.62 26.1121 Q1325.46 26.1121 1330.32 31.2163 Q1335.18 36.3204 1335.18 46.6907 Z" fill="#000000" fill-rule="nonzero" fill-opacity="1" /><path clip-path="url(#clip450)" d="M1383.19 28.9478 L1383.19 35.9153 Q1380.03 34.1734 1376.83 33.3227 Q1373.67 32.4315 1370.43 32.4315 Q1363.18 32.4315 1359.17 37.0496 Q1355.16 41.6271 1355.16 49.9314 Q1355.16 58.2358 1359.17 62.8538 Q1363.18 67.4314 1370.43 67.4314 Q1373.67 67.4314 1376.83 66.5807 Q1380.03 65.6895 1383.19 63.9476 L1383.19 70.8341 Q1380.07 72.2924 1376.71 73.0216 Q1373.38 73.7508 1369.62 73.7508 Q1359.37 73.7508 1353.33 67.3098 Q1347.3 60.8689 1347.3 49.9314 Q1347.3 38.832 1353.37 32.472 Q1359.49 26.1121 1370.1 26.1121 Q1373.55 26.1121 1376.83 26.8413 Q1380.11 27.5299 1383.19 28.9478 Z" fill="#000000" fill-rule="nonzero" fill-opacity="1" /><path clip-path="url(#clip450)" d="M1428.8 28.9478 L1428.8 35.9153 Q1425.64 34.1734 1422.44 33.3227 Q1419.28 32.4315 1416.04 32.4315 Q1408.79 32.4315 1404.78 37.0496 Q1400.77 41.6271 1400.77 49.9314 Q1400.77 58.2358 1404.78 62.8538 Q1408.79 67.4314 1416.04 67.4314 Q1419.28 67.4314 1422.44 66.5807 Q1425.64 65.6895 1428.8 63.9476 L1428.8 70.8341 Q1425.68 72.2924 1422.32 73.0216 Q1419 73.7508 1415.23 73.7508 Q1404.98 73.7508 1398.95 67.3098 Q1392.91 60.8689 1392.91 49.9314 Q1392.91 38.832 1398.99 32.472 Q1405.1 26.1121 1415.72 26.1121 Q1419.16 26.1121 1422.44 26.8413 Q1425.72 27.5299 1428.8 28.9478 Z" fill="#000000" fill-rule="nonzero" fill-opacity="1" /><path clip-path="url(#clip450)" d="M1441.76 27.2059 L1449.22 27.2059 L1449.22 72.576 L1441.76 72.576 L1441.76 27.2059 M1441.76 9.54393 L1449.22 9.54393 L1449.22 18.9825 L1441.76 18.9825 L1441.76 9.54393 Z" fill="#000000" fill-rule="nonzero" fill-opacity="1" /><path clip-path="url(#clip450)" d="M1502.53 45.1919 L1502.53 72.576 L1495.07 72.576 L1495.07 45.4349 Q1495.07 38.994 1492.56 35.7938 Q1490.05 32.5936 1485.03 32.5936 Q1478.99 32.5936 1475.51 36.4419 Q1472.02 40.2903 1472.02 46.9338 L1472.02 72.576 L1464.53 72.576 L1464.53 27.2059 L1472.02 27.2059 L1472.02 34.2544 Q1474.7 30.163 1478.3 28.1376 Q1481.95 26.1121 1486.69 26.1121 Q1494.51 26.1121 1498.52 30.9732 Q1502.53 35.7938 1502.53 45.1919 Z" fill="#000000" fill-rule="nonzero" fill-opacity="1" /><path clip-path="url(#clip450)" d="M1538.01 49.7694 Q1528.98 49.7694 1525.5 51.8354 Q1522.01 53.9013 1522.01 58.8839 Q1522.01 62.8538 1524.61 65.2034 Q1527.24 67.5124 1531.73 67.5124 Q1537.93 67.5124 1541.66 63.1374 Q1545.43 58.7219 1545.43 51.4303 L1545.43 49.7694 L1538.01 49.7694 M1552.88 46.6907 L1552.88 72.576 L1545.43 72.576 L1545.43 65.6895 Q1542.87 69.8214 1539.07 71.8063 Q1535.26 73.7508 1529.75 73.7508 Q1522.78 73.7508 1518.65 69.8619 Q1514.56 65.9325 1514.56 59.3701 Q1514.56 51.7138 1519.66 47.825 Q1524.81 43.9361 1534.98 43.9361 L1545.43 43.9361 L1545.43 43.2069 Q1545.43 38.0623 1542.02 35.2672 Q1538.66 32.4315 1532.54 32.4315 Q1528.66 32.4315 1524.97 33.3632 Q1521.28 34.295 1517.88 36.1584 L1517.88 29.2718 Q1521.97 27.692 1525.82 26.9223 Q1529.67 26.1121 1533.31 26.1121 Q1543.16 26.1121 1548.02 31.2163 Q1552.88 36.3204 1552.88 46.6907 Z" fill="#000000" fill-rule="nonzero" fill-opacity="1" /><path clip-path="url(#clip450)" d="M1575.61 14.324 L1575.61 27.2059 L1590.96 27.2059 L1590.96 32.9987 L1575.61 32.9987 L1575.61 57.6282 Q1575.61 63.1779 1577.1 64.7578 Q1578.64 66.3376 1583.3 66.3376 L1590.96 66.3376 L1590.96 72.576 L1583.3 72.576 Q1574.67 72.576 1571.39 69.3758 Q1568.11 66.1351 1568.11 57.6282 L1568.11 32.9987 L1562.64 32.9987 L1562.64 27.2059 L1568.11 27.2059 L1568.11 14.324 L1575.61 14.324 Z" fill="#000000" fill-rule="nonzero" fill-opacity="1" /><path clip-path="url(#clip450)" d="M1600.76 27.2059 L1608.22 27.2059 L1608.22 72.576 L1600.76 72.576 L1600.76 27.2059 M1600.76 9.54393 L1608.22 9.54393 L1608.22 18.9825 L1600.76 18.9825 L1600.76 9.54393 Z" fill="#000000" fill-rule="nonzero" fill-opacity="1" /><path clip-path="url(#clip450)" d="M1641.39 32.4315 Q1635.4 32.4315 1631.91 37.1306 Q1628.43 41.7891 1628.43 49.9314 Q1628.43 58.0738 1631.87 62.7728 Q1635.36 67.4314 1641.39 67.4314 Q1647.35 67.4314 1650.83 62.7323 Q1654.32 58.0333 1654.32 49.9314 Q1654.32 41.8701 1650.83 37.1711 Q1647.35 32.4315 1641.39 32.4315 M1641.39 26.1121 Q1651.11 26.1121 1656.66 32.4315 Q1662.21 38.7509 1662.21 49.9314 Q1662.21 61.0714 1656.66 67.4314 Q1651.11 73.7508 1641.39 73.7508 Q1631.63 73.7508 1626.08 67.4314 Q1620.57 61.0714 1620.57 49.9314 Q1620.57 38.7509 1626.08 32.4315 Q1631.63 26.1121 1641.39 26.1121 Z" fill="#000000" fill-rule="nonzero" fill-opacity="1" /><path clip-path="url(#clip450)" d="M1712.28 45.1919 L1712.28 72.576 L1704.83 72.576 L1704.83 45.4349 Q1704.83 38.994 1702.32 35.7938 Q1699.81 32.5936 1694.78 32.5936 Q1688.75 32.5936 1685.26 36.4419 Q1681.78 40.2903 1681.78 46.9338 L1681.78 72.576 L1674.29 72.576 L1674.29 27.2059 L1681.78 27.2059 L1681.78 34.2544 Q1684.45 30.163 1688.06 28.1376 Q1691.7 26.1121 1696.44 26.1121 Q1704.26 26.1121 1708.27 30.9732 Q1712.28 35.7938 1712.28 45.1919 Z" fill="#000000" fill-rule="nonzero" fill-opacity="1" /><path clip-path="url(#clip450)" d="M1790.1 14.0809 L1790.1 22.0612 Q1785.44 19.8332 1781.31 18.7395 Q1777.18 17.6457 1773.33 17.6457 Q1766.65 17.6457 1763 20.2383 Q1759.4 22.8309 1759.4 27.611 Q1759.4 31.6214 1761.79 33.6873 Q1764.22 35.7128 1770.94 36.9686 L1775.88 37.9813 Q1785.04 39.7232 1789.37 44.1387 Q1793.75 48.5136 1793.75 55.8863 Q1793.75 64.6767 1787.83 69.2137 Q1781.96 73.7508 1770.58 73.7508 Q1766.28 73.7508 1761.42 72.7785 Q1756.6 71.8063 1751.42 69.9024 L1751.42 61.4765 Q1756.4 64.2716 1761.18 65.6895 Q1765.96 67.1073 1770.58 67.1073 Q1777.58 67.1073 1781.39 64.3527 Q1785.2 61.598 1785.2 56.4939 Q1785.2 52.0379 1782.45 49.5264 Q1779.73 47.0148 1773.49 45.759 L1768.51 44.7868 Q1759.36 42.9639 1755.26 39.075 Q1751.17 35.1862 1751.17 28.2591 Q1751.17 20.2383 1756.8 15.6203 Q1762.47 11.0023 1772.4 11.0023 Q1776.65 11.0023 1781.07 11.7719 Q1785.48 12.5416 1790.1 14.0809 Z" fill="#000000" fill-rule="nonzero" fill-opacity="1" /><path clip-path="url(#clip450)" d="M1813.56 14.324 L1813.56 27.2059 L1828.91 27.2059 L1828.91 32.9987 L1813.56 32.9987 L1813.56 57.6282 Q1813.56 63.1779 1815.05 64.7578 Q1816.59 66.3376 1821.25 66.3376 L1828.91 66.3376 L1828.91 72.576 L1821.25 72.576 Q1812.62 72.576 1809.34 69.3758 Q1806.06 66.1351 1806.06 57.6282 L1806.06 32.9987 L1800.59 32.9987 L1800.59 27.2059 L1806.06 27.2059 L1806.06 14.324 L1813.56 14.324 Z" fill="#000000" fill-rule="nonzero" fill-opacity="1" /><path clip-path="url(#clip450)" d="M1865 34.1734 Q1863.75 33.4443 1862.25 33.1202 Q1860.79 32.7556 1859.01 32.7556 Q1852.69 32.7556 1849.29 36.8875 Q1845.92 40.9789 1845.92 48.6757 L1845.92 72.576 L1838.43 72.576 L1838.43 27.2059 L1845.92 27.2059 L1845.92 34.2544 Q1848.27 30.1225 1852.04 28.1376 Q1855.81 26.1121 1861.19 26.1121 Q1861.96 26.1121 1862.9 26.2337 Q1863.83 26.3147 1864.96 26.5172 L1865 34.1734 Z" fill="#000000" fill-rule="nonzero" fill-opacity="1" /><path clip-path="url(#clip450)" d="M1893.44 49.7694 Q1884.41 49.7694 1880.92 51.8354 Q1877.44 53.9013 1877.44 58.8839 Q1877.44 62.8538 1880.03 65.2034 Q1882.66 67.5124 1887.16 67.5124 Q1893.36 67.5124 1897.09 63.1374 Q1900.85 58.7219 1900.85 51.4303 L1900.85 49.7694 L1893.44 49.7694 M1908.31 46.6907 L1908.31 72.576 L1900.85 72.576 L1900.85 65.6895 Q1898.3 69.8214 1894.49 71.8063 Q1890.69 73.7508 1885.18 73.7508 Q1878.21 73.7508 1874.08 69.8619 Q1869.99 65.9325 1869.99 59.3701 Q1869.99 51.7138 1875.09 47.825 Q1880.23 43.9361 1890.4 43.9361 L1900.85 43.9361 L1900.85 43.2069 Q1900.85 38.0623 1897.45 35.2672 Q1894.09 32.4315 1887.97 32.4315 Q1884.08 32.4315 1880.4 33.3632 Q1876.71 34.295 1873.31 36.1584 L1873.31 29.2718 Q1877.4 27.692 1881.25 26.9223 Q1885.1 26.1121 1888.74 26.1121 Q1898.58 26.1121 1903.45 31.2163 Q1908.31 36.3204 1908.31 46.6907 Z" fill="#000000" fill-rule="nonzero" fill-opacity="1" /><path clip-path="url(#clip450)" d="M1931.03 14.324 L1931.03 27.2059 L1946.39 27.2059 L1946.39 32.9987 L1931.03 32.9987 L1931.03 57.6282 Q1931.03 63.1779 1932.53 64.7578 Q1934.07 66.3376 1938.73 66.3376 L1946.39 66.3376 L1946.39 72.576 L1938.73 72.576 Q1930.1 72.576 1926.82 69.3758 Q1923.54 66.1351 1923.54 57.6282 L1923.54 32.9987 L1918.07 32.9987 L1918.07 27.2059 L1923.54 27.2059 L1923.54 14.324 L1931.03 14.324 Z" fill="#000000" fill-rule="nonzero" fill-opacity="1" /><path clip-path="url(#clip450)" d="M1995 48.0275 L1995 51.6733 L1960.73 51.6733 Q1961.21 59.3701 1965.34 63.421 Q1969.52 67.4314 1976.93 67.4314 Q1981.22 67.4314 1985.23 66.3781 Q1989.28 65.3249 1993.25 63.2184 L1993.25 70.267 Q1989.24 71.9684 1985.03 72.8596 Q1980.82 73.7508 1976.48 73.7508 Q1965.63 73.7508 1959.27 67.4314 Q1952.95 61.1119 1952.95 50.3365 Q1952.95 39.1965 1958.94 32.6746 Q1964.98 26.1121 1975.19 26.1121 Q1984.34 26.1121 1989.65 32.0264 Q1995 37.9003 1995 48.0275 M1987.54 45.84 Q1987.46 39.7232 1984.1 36.0774 Q1980.78 32.4315 1975.27 32.4315 Q1969.03 32.4315 1965.26 35.9558 Q1961.54 39.4801 1960.97 45.8805 L1987.54 45.84 Z" fill="#000000" fill-rule="nonzero" fill-opacity="1" /><path clip-path="url(#clip450)" d="M2037.09 49.3643 Q2037.09 41.2625 2033.72 36.8065 Q2030.4 32.3505 2024.37 32.3505 Q2018.37 32.3505 2015.01 36.8065 Q2011.69 41.2625 2011.69 49.3643 Q2011.69 57.4256 2015.01 61.8816 Q2018.37 66.3376 2024.37 66.3376 Q2030.4 66.3376 2033.72 61.8816 Q2037.09 57.4256 2037.09 49.3643 M2044.54 66.9452 Q2044.54 78.5308 2039.39 84.1616 Q2034.25 89.8329 2023.64 89.8329 Q2019.71 89.8329 2016.22 89.2252 Q2012.74 88.6581 2009.46 87.4428 L2009.46 80.1917 Q2012.74 81.9741 2015.94 82.8248 Q2019.14 83.6755 2022.46 83.6755 Q2029.79 83.6755 2033.44 79.8271 Q2037.09 76.0193 2037.09 68.282 L2037.09 64.5957 Q2034.78 68.6061 2031.17 70.5911 Q2027.57 72.576 2022.54 72.576 Q2014.2 72.576 2009.09 66.2161 Q2003.99 59.8562 2003.99 49.3643 Q2003.99 38.832 2009.09 32.472 Q2014.2 26.1121 2022.54 26.1121 Q2027.57 26.1121 2031.17 28.0971 Q2034.78 30.082 2037.09 34.0924 L2037.09 27.2059 L2044.54 27.2059 L2044.54 66.9452 Z" fill="#000000" fill-rule="nonzero" fill-opacity="1" /><path clip-path="url(#clip450)" d="M2078.77 76.7889 Q2075.61 84.8907 2072.61 87.3618 Q2069.61 89.8329 2064.59 89.8329 L2058.64 89.8329 L2058.64 83.5945 L2063.01 83.5945 Q2066.09 83.5945 2067.79 82.1361 Q2069.49 80.6778 2071.56 75.2496 L2072.9 71.8468 L2054.54 27.2059 L2062.44 27.2059 L2076.62 62.6918 L2090.8 27.2059 L2098.7 27.2059 L2078.77 76.7889 Z" fill="#000000" fill-rule="nonzero" fill-opacity="1" /><polyline clip-path="url(#clip451)" style="stroke:#ff0000; stroke-linecap:round; stroke-linejoin:round; stroke-width:8; stroke-opacity:1; fill:none" stroke-dasharray="32, 20" points="323.787,1673.35 380.024,1688.65 436.261,1612.12 492.498,1520.28 548.735,1397.82 604.973,1290.67 661.21,1244.75 717.447,1336.59 773.684,1198.83 829.921,1168.21 886.158,1076.37 942.395,1061.06 998.632,892.687 1054.87,846.766 1111.11,816.151 1167.34,632.467 1223.58,464.089 1279.82,387.553 1336.05,372.246 1392.29,173.254 1448.53,249.79 1504.77,418.167 1561,341.632 1617.24,601.852 1673.48,724.309 1729.71,785.537 1785.95,709.002 1842.19,923.301 1898.43,953.915 1954.66,1106.99 2010.9,1122.29 2067.14,1045.76 2123.37,1091.68 2179.61,1122.29 2235.85,1152.91 2292.09,1152.91 2348.32,1152.91 2404.56,1260.06 2460.8,1367.21 2517.03,1351.9 2573.27,1489.66 "/>
<polyline clip-path="url(#clip451)" style="stroke:#800080; stroke-linecap:round; stroke-linejoin:round; stroke-width:8; stroke-opacity:1; fill:none" points="323.787,1673.35 380.024,1688.65 436.261,1612.12 492.498,1520.28 548.735,1397.82 604.973,1321.29 661.21,1275.36 717.447,1275.36 773.684,1076.37 829.921,1152.91 886.158,1015.14 942.395,984.529 998.632,892.687 1054.87,907.994 1111.11,984.529 1167.34,831.459 1223.58,754.923 1279.82,693.695 1336.05,678.388 1392.29,678.388 1448.53,678.388 1504.77,800.844 1561,754.923 1617.24,617.159 1673.48,510.01 1729.71,617.159 1785.95,617.159 1842.19,647.774 1898.43,739.616 1954.66,938.608 2010.9,1015.14 2067.14,969.222 2123.37,969.222 2179.61,999.836 2235.85,984.529 2292.09,1091.68 2348.32,1198.83 2404.56,1290.67 2460.8,1290.67 2517.03,1290.67 2573.27,1336.59 "/>
<path clip-path="url(#clip450)" d="M1840.03 336.856 L2561.27 336.856 L2561.27 181.336 L1840.03 181.336  Z" fill="#ffffff" fill-rule="evenodd" fill-opacity="1"/>
<polyline clip-path="url(#clip450)" style="stroke:#000000; stroke-linecap:round; stroke-linejoin:round; stroke-width:4; stroke-opacity:1; fill:none" points="1840.03,336.856 2561.27,336.856 2561.27,181.336 1840.03,181.336 1840.03,336.856 "/>
<polyline clip-path="url(#clip450)" style="stroke:#ff0000; stroke-linecap:round; stroke-linejoin:round; stroke-width:8; stroke-opacity:1; fill:none" stroke-dasharray="32, 20" points="1866.52,233.176 2025.49,233.176 "/>
<path clip-path="url(#clip450)" d="M2051.98 215.896 L2058.28 215.896 L2073.6 244.808 L2073.6 215.896 L2078.14 215.896 L2078.14 250.456 L2071.84 250.456 L2056.52 221.544 L2056.52 250.456 L2051.98 250.456 L2051.98 215.896 Z" fill="#000000" fill-rule="nonzero" fill-opacity="1" /><path clip-path="url(#clip450)" d="M2097.31 227.517 Q2093.88 227.517 2091.89 230.202 Q2089.9 232.864 2089.9 237.517 Q2089.9 242.169 2091.87 244.854 Q2093.86 247.516 2097.31 247.516 Q2100.71 247.516 2102.7 244.831 Q2104.69 242.146 2104.69 237.517 Q2104.69 232.91 2102.7 230.225 Q2100.71 227.517 2097.31 227.517 M2097.31 223.906 Q2102.86 223.906 2106.03 227.517 Q2109.2 231.128 2109.2 237.517 Q2109.2 243.882 2106.03 247.516 Q2102.86 251.128 2097.31 251.128 Q2091.73 251.128 2088.56 247.516 Q2085.41 243.882 2085.41 237.517 Q2085.41 231.128 2088.56 227.517 Q2091.73 223.906 2097.31 223.906 Z" fill="#000000" fill-rule="nonzero" fill-opacity="1" /><path clip-path="url(#clip450)" d="M2131.33 224.531 L2135.59 224.531 L2135.59 250.456 L2131.33 250.456 L2131.33 224.531 M2131.33 214.438 L2135.59 214.438 L2135.59 219.831 L2131.33 219.831 L2131.33 214.438 Z" fill="#000000" fill-rule="nonzero" fill-opacity="1" /><path clip-path="url(#clip450)" d="M2166.06 234.808 L2166.06 250.456 L2161.8 250.456 L2161.8 234.947 Q2161.8 231.267 2160.36 229.438 Q2158.93 227.609 2156.06 227.609 Q2152.61 227.609 2150.62 229.808 Q2148.62 232.007 2148.62 235.804 L2148.62 250.456 L2144.34 250.456 L2144.34 224.531 L2148.62 224.531 L2148.62 228.558 Q2150.15 226.22 2152.21 225.063 Q2154.3 223.906 2157 223.906 Q2161.47 223.906 2163.76 226.683 Q2166.06 229.438 2166.06 234.808 Z" fill="#000000" fill-rule="nonzero" fill-opacity="1" /><path clip-path="url(#clip450)" d="M2178.76 217.169 L2178.76 224.531 L2187.54 224.531 L2187.54 227.841 L2178.76 227.841 L2178.76 241.915 Q2178.76 245.086 2179.62 245.989 Q2180.5 246.891 2183.16 246.891 L2187.54 246.891 L2187.54 250.456 L2183.16 250.456 Q2178.23 250.456 2176.36 248.628 Q2174.48 246.776 2174.48 241.915 L2174.48 227.841 L2171.36 227.841 L2171.36 224.531 L2174.48 224.531 L2174.48 217.169 L2178.76 217.169 Z" fill="#000000" fill-rule="nonzero" fill-opacity="1" /><path clip-path="url(#clip450)" d="M2215.31 236.429 L2215.31 238.512 L2195.73 238.512 Q2196.01 242.91 2198.37 245.225 Q2200.75 247.516 2204.99 247.516 Q2207.44 247.516 2209.74 246.915 Q2212.05 246.313 2214.32 245.109 L2214.32 249.137 Q2212.03 250.109 2209.62 250.618 Q2207.21 251.128 2204.74 251.128 Q2198.53 251.128 2194.9 247.516 Q2191.29 243.905 2191.29 237.748 Q2191.29 231.382 2194.71 227.655 Q2198.16 223.906 2203.99 223.906 Q2209.23 223.906 2212.26 227.285 Q2215.31 230.642 2215.31 236.429 M2211.06 235.179 Q2211.01 231.683 2209.09 229.6 Q2207.19 227.517 2204.04 227.517 Q2200.48 227.517 2198.32 229.53 Q2196.19 231.544 2195.87 235.202 L2211.06 235.179 Z" fill="#000000" fill-rule="nonzero" fill-opacity="1" /><path clip-path="url(#clip450)" d="M2237.33 228.512 Q2236.61 228.095 2235.75 227.91 Q2234.92 227.702 2233.9 227.702 Q2230.29 227.702 2228.35 230.063 Q2226.43 232.401 2226.43 236.799 L2226.43 250.456 L2222.14 250.456 L2222.14 224.531 L2226.43 224.531 L2226.43 228.558 Q2227.77 226.197 2229.92 225.063 Q2232.07 223.906 2235.15 223.906 Q2235.59 223.906 2236.12 223.975 Q2236.66 224.021 2237.3 224.137 L2237.33 228.512 Z" fill="#000000" fill-rule="nonzero" fill-opacity="1" /><path clip-path="url(#clip450)" d="M2238.74 224.531 L2243.25 224.531 L2251.36 246.29 L2259.46 224.531 L2263.97 224.531 L2254.25 250.456 L2248.46 250.456 L2238.74 224.531 Z" fill="#000000" fill-rule="nonzero" fill-opacity="1" /><path clip-path="url(#clip450)" d="M2292.03 236.429 L2292.03 238.512 L2272.44 238.512 Q2272.72 242.91 2275.08 245.225 Q2277.47 247.516 2281.7 247.516 Q2284.16 247.516 2286.45 246.915 Q2288.76 246.313 2291.03 245.109 L2291.03 249.137 Q2288.74 250.109 2286.33 250.618 Q2283.93 251.128 2281.45 251.128 Q2275.24 251.128 2271.61 247.516 Q2268 243.905 2268 237.748 Q2268 231.382 2271.43 227.655 Q2274.87 223.906 2280.71 223.906 Q2285.94 223.906 2288.97 227.285 Q2292.03 230.642 2292.03 236.429 M2287.77 235.179 Q2287.72 231.683 2285.8 229.6 Q2283.9 227.517 2280.75 227.517 Q2277.19 227.517 2275.04 229.53 Q2272.91 231.544 2272.58 235.202 L2287.77 235.179 Z" fill="#000000" fill-rule="nonzero" fill-opacity="1" /><path clip-path="url(#clip450)" d="M2320.57 234.808 L2320.57 250.456 L2316.31 250.456 L2316.31 234.947 Q2316.31 231.267 2314.87 229.438 Q2313.44 227.609 2310.57 227.609 Q2307.12 227.609 2305.13 229.808 Q2303.14 232.007 2303.14 235.804 L2303.14 250.456 L2298.86 250.456 L2298.86 224.531 L2303.14 224.531 L2303.14 228.558 Q2304.67 226.22 2306.73 225.063 Q2308.81 223.906 2311.52 223.906 Q2315.99 223.906 2318.28 226.683 Q2320.57 229.438 2320.57 234.808 Z" fill="#000000" fill-rule="nonzero" fill-opacity="1" /><path clip-path="url(#clip450)" d="M2333.28 217.169 L2333.28 224.531 L2342.05 224.531 L2342.05 227.841 L2333.28 227.841 L2333.28 241.915 Q2333.28 245.086 2334.13 245.989 Q2335.01 246.891 2337.67 246.891 L2342.05 246.891 L2342.05 250.456 L2337.67 250.456 Q2332.74 250.456 2330.87 248.628 Q2328.99 246.776 2328.99 241.915 L2328.99 227.841 L2325.87 227.841 L2325.87 224.531 L2328.99 224.531 L2328.99 217.169 L2333.28 217.169 Z" fill="#000000" fill-rule="nonzero" fill-opacity="1" /><path clip-path="url(#clip450)" d="M2347.65 224.531 L2351.91 224.531 L2351.91 250.456 L2347.65 250.456 L2347.65 224.531 M2347.65 214.438 L2351.91 214.438 L2351.91 219.831 L2347.65 219.831 L2347.65 214.438 Z" fill="#000000" fill-rule="nonzero" fill-opacity="1" /><path clip-path="url(#clip450)" d="M2370.87 227.517 Q2367.44 227.517 2365.45 230.202 Q2363.46 232.864 2363.46 237.517 Q2363.46 242.169 2365.43 244.854 Q2367.42 247.516 2370.87 247.516 Q2374.27 247.516 2376.26 244.831 Q2378.25 242.146 2378.25 237.517 Q2378.25 232.91 2376.26 230.225 Q2374.27 227.517 2370.87 227.517 M2370.87 223.906 Q2376.42 223.906 2379.6 227.517 Q2382.77 231.128 2382.77 237.517 Q2382.77 243.882 2379.6 247.516 Q2376.42 251.128 2370.87 251.128 Q2365.29 251.128 2362.12 247.516 Q2358.97 243.882 2358.97 237.517 Q2358.97 231.128 2362.12 227.517 Q2365.29 223.906 2370.87 223.906 Z" fill="#000000" fill-rule="nonzero" fill-opacity="1" /><path clip-path="url(#clip450)" d="M2411.38 234.808 L2411.38 250.456 L2407.12 250.456 L2407.12 234.947 Q2407.12 231.267 2405.68 229.438 Q2404.25 227.609 2401.38 227.609 Q2397.93 227.609 2395.94 229.808 Q2393.95 232.007 2393.95 235.804 L2393.95 250.456 L2389.67 250.456 L2389.67 224.531 L2393.95 224.531 L2393.95 228.558 Q2395.48 226.22 2397.54 225.063 Q2399.62 223.906 2402.33 223.906 Q2406.79 223.906 2409.09 226.683 Q2411.38 229.438 2411.38 234.808 Z" fill="#000000" fill-rule="nonzero" fill-opacity="1" /><polyline clip-path="url(#clip450)" style="stroke:#800080; stroke-linecap:round; stroke-linejoin:round; stroke-width:8; stroke-opacity:1; fill:none" points="1866.52,285.016 2025.49,285.016 "/>
<path clip-path="url(#clip450)" d="M2068.37 286.093 Q2069.88 286.602 2071.29 288.269 Q2072.72 289.935 2074.16 292.852 L2078.9 302.296 L2073.88 302.296 L2069.46 293.431 Q2067.75 289.958 2066.13 288.824 Q2064.53 287.69 2061.75 287.69 L2056.66 287.69 L2056.66 302.296 L2051.98 302.296 L2051.98 267.736 L2062.54 267.736 Q2068.46 267.736 2071.38 270.213 Q2074.3 272.69 2074.3 277.69 Q2074.3 280.954 2072.77 283.107 Q2071.26 285.259 2068.37 286.093 M2056.66 271.579 L2056.66 283.847 L2062.54 283.847 Q2065.92 283.847 2067.63 282.296 Q2069.37 280.722 2069.37 277.69 Q2069.37 274.658 2067.63 273.13 Q2065.92 271.579 2062.54 271.579 L2056.66 271.579 Z" fill="#000000" fill-rule="nonzero" fill-opacity="1" /><path clip-path="url(#clip450)" d="M2092.65 279.357 Q2089.23 279.357 2087.24 282.042 Q2085.25 284.704 2085.25 289.357 Q2085.25 294.009 2087.21 296.694 Q2089.2 299.356 2092.65 299.356 Q2096.06 299.356 2098.05 296.671 Q2100.04 293.986 2100.04 289.357 Q2100.04 284.75 2098.05 282.065 Q2096.06 279.357 2092.65 279.357 M2092.65 275.746 Q2098.21 275.746 2101.38 279.357 Q2104.55 282.968 2104.55 289.357 Q2104.55 295.722 2101.38 299.356 Q2098.21 302.968 2092.65 302.968 Q2087.07 302.968 2083.9 299.356 Q2080.75 295.722 2080.75 289.357 Q2080.75 282.968 2083.9 279.357 Q2087.07 275.746 2092.65 275.746 Z" fill="#000000" fill-rule="nonzero" fill-opacity="1" /><path clip-path="url(#clip450)" d="M2111.17 292.065 L2111.17 276.371 L2115.43 276.371 L2115.43 291.903 Q2115.43 295.583 2116.87 297.435 Q2118.3 299.264 2121.17 299.264 Q2124.62 299.264 2126.61 297.065 Q2128.62 294.866 2128.62 291.069 L2128.62 276.371 L2132.88 276.371 L2132.88 302.296 L2128.62 302.296 L2128.62 298.315 Q2127.07 300.676 2125.01 301.833 Q2122.98 302.968 2120.27 302.968 Q2115.8 302.968 2113.49 300.19 Q2111.17 297.412 2111.17 292.065 M2121.89 275.746 L2121.89 275.746 Z" fill="#000000" fill-rule="nonzero" fill-opacity="1" /><path clip-path="url(#clip450)" d="M2145.87 269.009 L2145.87 276.371 L2154.64 276.371 L2154.64 279.681 L2145.87 279.681 L2145.87 293.755 Q2145.87 296.926 2146.73 297.829 Q2147.61 298.731 2150.27 298.731 L2154.64 298.731 L2154.64 302.296 L2150.27 302.296 Q2145.34 302.296 2143.46 300.468 Q2141.59 298.616 2141.59 293.755 L2141.59 279.681 L2138.46 279.681 L2138.46 276.371 L2141.59 276.371 L2141.59 269.009 L2145.87 269.009 Z" fill="#000000" fill-rule="nonzero" fill-opacity="1" /><path clip-path="url(#clip450)" d="M2160.25 276.371 L2164.5 276.371 L2164.5 302.296 L2160.25 302.296 L2160.25 276.371 M2160.25 266.278 L2164.5 266.278 L2164.5 271.671 L2160.25 271.671 L2160.25 266.278 Z" fill="#000000" fill-rule="nonzero" fill-opacity="1" /><path clip-path="url(#clip450)" d="M2194.97 286.648 L2194.97 302.296 L2190.71 302.296 L2190.71 286.787 Q2190.71 283.107 2189.27 281.278 Q2187.84 279.449 2184.97 279.449 Q2181.52 279.449 2179.53 281.648 Q2177.54 283.847 2177.54 287.644 L2177.54 302.296 L2173.25 302.296 L2173.25 276.371 L2177.54 276.371 L2177.54 280.398 Q2179.06 278.06 2181.12 276.903 Q2183.21 275.746 2185.92 275.746 Q2190.38 275.746 2192.68 278.523 Q2194.97 281.278 2194.97 286.648 Z" fill="#000000" fill-rule="nonzero" fill-opacity="1" /><path clip-path="url(#clip450)" d="M2225.64 288.269 L2225.64 290.352 L2206.06 290.352 Q2206.33 294.75 2208.69 297.065 Q2211.08 299.356 2215.31 299.356 Q2217.77 299.356 2220.06 298.755 Q2222.37 298.153 2224.64 296.949 L2224.64 300.977 Q2222.35 301.949 2219.94 302.458 Q2217.54 302.968 2215.06 302.968 Q2208.86 302.968 2205.22 299.356 Q2201.61 295.745 2201.61 289.588 Q2201.61 283.222 2205.04 279.495 Q2208.49 275.746 2214.32 275.746 Q2219.55 275.746 2222.58 279.125 Q2225.64 282.482 2225.64 288.269 M2221.38 287.019 Q2221.33 283.523 2219.41 281.44 Q2217.51 279.357 2214.37 279.357 Q2210.8 279.357 2208.65 281.37 Q2206.52 283.384 2206.19 287.042 L2221.38 287.019 Z" fill="#000000" fill-rule="nonzero" fill-opacity="1" /><path clip-path="url(#clip450)" d="M2265.04 272.574 L2265.04 285.468 L2277.93 285.468 L2277.93 289.403 L2265.04 289.403 L2265.04 302.296 L2261.15 302.296 L2261.15 289.403 L2248.25 289.403 L2248.25 285.468 L2261.15 285.468 L2261.15 272.574 L2265.04 272.574 Z" fill="#000000" fill-rule="nonzero" fill-opacity="1" /><path clip-path="url(#clip450)" d="M2328.55 270.398 L2328.55 275.329 Q2326.19 273.13 2323.51 272.042 Q2320.85 270.954 2317.84 270.954 Q2311.91 270.954 2308.76 274.588 Q2305.61 278.199 2305.61 285.051 Q2305.61 291.88 2308.76 295.514 Q2311.91 299.125 2317.84 299.125 Q2320.85 299.125 2323.51 298.037 Q2326.19 296.949 2328.55 294.75 L2328.55 299.634 Q2326.1 301.301 2323.35 302.134 Q2320.61 302.968 2317.56 302.968 Q2309.71 302.968 2305.2 298.176 Q2300.68 293.361 2300.68 285.051 Q2300.68 276.718 2305.2 271.926 Q2309.71 267.111 2317.56 267.111 Q2320.66 267.111 2323.39 267.945 Q2326.15 268.755 2328.55 270.398 Z" fill="#000000" fill-rule="nonzero" fill-opacity="1" /><path clip-path="url(#clip450)" d="M2347.37 289.264 Q2342.21 289.264 2340.22 290.444 Q2338.23 291.625 2338.23 294.472 Q2338.23 296.741 2339.71 298.083 Q2341.22 299.403 2343.79 299.403 Q2347.33 299.403 2349.46 296.903 Q2351.61 294.38 2351.61 290.213 L2351.61 289.264 L2347.37 289.264 M2355.87 287.505 L2355.87 302.296 L2351.61 302.296 L2351.61 298.361 Q2350.15 300.722 2347.98 301.856 Q2345.8 302.968 2342.65 302.968 Q2338.67 302.968 2336.31 300.745 Q2333.97 298.5 2333.97 294.75 Q2333.97 290.375 2336.89 288.153 Q2339.83 285.931 2345.64 285.931 L2351.61 285.931 L2351.61 285.514 Q2351.61 282.574 2349.67 280.977 Q2347.74 279.357 2344.25 279.357 Q2342.03 279.357 2339.92 279.889 Q2337.81 280.421 2335.87 281.486 L2335.87 277.551 Q2338.21 276.648 2340.41 276.208 Q2342.61 275.746 2344.69 275.746 Q2350.31 275.746 2353.09 278.662 Q2355.87 281.579 2355.87 287.505 Z" fill="#000000" fill-rule="nonzero" fill-opacity="1" /><path clip-path="url(#clip450)" d="M2384.83 281.347 Q2386.42 278.477 2388.65 277.111 Q2390.87 275.746 2393.88 275.746 Q2397.93 275.746 2400.13 278.593 Q2402.33 281.417 2402.33 286.648 L2402.33 302.296 L2398.04 302.296 L2398.04 286.787 Q2398.04 283.06 2396.73 281.255 Q2395.41 279.449 2392.7 279.449 Q2389.39 279.449 2387.47 281.648 Q2385.54 283.847 2385.54 287.644 L2385.54 302.296 L2381.26 302.296 L2381.26 286.787 Q2381.26 283.037 2379.94 281.255 Q2378.62 279.449 2375.87 279.449 Q2372.61 279.449 2370.68 281.671 Q2368.76 283.87 2368.76 287.644 L2368.76 302.296 L2364.48 302.296 L2364.48 276.371 L2368.76 276.371 L2368.76 280.398 Q2370.22 278.014 2372.26 276.88 Q2374.29 275.746 2377.1 275.746 Q2379.92 275.746 2381.89 277.181 Q2383.88 278.616 2384.83 281.347 Z" fill="#000000" fill-rule="nonzero" fill-opacity="1" /><path clip-path="url(#clip450)" d="M2414.94 298.407 L2414.94 312.157 L2410.66 312.157 L2410.66 276.371 L2414.94 276.371 L2414.94 280.306 Q2416.29 277.991 2418.32 276.88 Q2420.38 275.746 2423.23 275.746 Q2427.95 275.746 2430.89 279.495 Q2433.85 283.245 2433.85 289.357 Q2433.85 295.468 2430.89 299.218 Q2427.95 302.968 2423.23 302.968 Q2420.38 302.968 2418.32 301.856 Q2416.29 300.722 2414.94 298.407 M2429.43 289.357 Q2429.43 284.657 2427.49 281.995 Q2425.57 279.31 2422.19 279.31 Q2418.81 279.31 2416.86 281.995 Q2414.94 284.657 2414.94 289.357 Q2414.94 294.056 2416.86 296.741 Q2418.81 299.403 2422.19 299.403 Q2425.57 299.403 2427.49 296.741 Q2429.43 294.056 2429.43 289.357 Z" fill="#000000" fill-rule="nonzero" fill-opacity="1" /><path clip-path="url(#clip450)" d="M2452.7 289.264 Q2447.54 289.264 2445.54 290.444 Q2443.55 291.625 2443.55 294.472 Q2443.55 296.741 2445.04 298.083 Q2446.54 299.403 2449.11 299.403 Q2452.65 299.403 2454.78 296.903 Q2456.93 294.38 2456.93 290.213 L2456.93 289.264 L2452.7 289.264 M2461.19 287.505 L2461.19 302.296 L2456.93 302.296 L2456.93 298.361 Q2455.48 300.722 2453.3 301.856 Q2451.12 302.968 2447.98 302.968 Q2443.99 302.968 2441.63 300.745 Q2439.29 298.5 2439.29 294.75 Q2439.29 290.375 2442.21 288.153 Q2445.15 285.931 2450.96 285.931 L2456.93 285.931 L2456.93 285.514 Q2456.93 282.574 2454.99 280.977 Q2453.07 279.357 2449.57 279.357 Q2447.35 279.357 2445.24 279.889 Q2443.14 280.421 2441.19 281.486 L2441.19 277.551 Q2443.53 276.648 2445.73 276.208 Q2447.93 275.746 2450.01 275.746 Q2455.64 275.746 2458.41 278.662 Q2461.19 281.579 2461.19 287.505 Z" fill="#000000" fill-rule="nonzero" fill-opacity="1" /><path clip-path="url(#clip450)" d="M2469.97 276.371 L2474.22 276.371 L2474.22 302.296 L2469.97 302.296 L2469.97 276.371 M2469.97 266.278 L2474.22 266.278 L2474.22 271.671 L2469.97 271.671 L2469.97 266.278 Z" fill="#000000" fill-rule="nonzero" fill-opacity="1" /><path clip-path="url(#clip450)" d="M2500.2 289.032 Q2500.2 284.403 2498.28 281.857 Q2496.38 279.31 2492.93 279.31 Q2489.5 279.31 2487.58 281.857 Q2485.68 284.403 2485.68 289.032 Q2485.68 293.639 2487.58 296.185 Q2489.5 298.731 2492.93 298.731 Q2496.38 298.731 2498.28 296.185 Q2500.2 293.639 2500.2 289.032 M2504.46 299.079 Q2504.46 305.699 2501.52 308.917 Q2498.58 312.157 2492.51 312.157 Q2490.27 312.157 2488.28 311.81 Q2486.29 311.486 2484.41 310.792 L2484.41 306.648 Q2486.29 307.667 2488.11 308.153 Q2489.94 308.639 2491.84 308.639 Q2496.03 308.639 2498.11 306.44 Q2500.2 304.264 2500.2 299.843 L2500.2 297.736 Q2498.88 300.028 2496.82 301.162 Q2494.76 302.296 2491.89 302.296 Q2487.12 302.296 2484.2 298.662 Q2481.29 295.028 2481.29 289.032 Q2481.29 283.014 2484.2 279.38 Q2487.12 275.746 2491.89 275.746 Q2494.76 275.746 2496.82 276.88 Q2498.88 278.014 2500.2 280.306 L2500.2 276.371 L2504.46 276.371 L2504.46 299.079 Z" fill="#000000" fill-rule="nonzero" fill-opacity="1" /><path clip-path="url(#clip450)" d="M2534.78 286.648 L2534.78 302.296 L2530.52 302.296 L2530.52 286.787 Q2530.52 283.107 2529.09 281.278 Q2527.65 279.449 2524.78 279.449 Q2521.33 279.449 2519.34 281.648 Q2517.35 283.847 2517.35 287.644 L2517.35 302.296 L2513.07 302.296 L2513.07 276.371 L2517.35 276.371 L2517.35 280.398 Q2518.88 278.06 2520.94 276.903 Q2523.02 275.746 2525.73 275.746 Q2530.2 275.746 2532.49 278.523 Q2534.78 281.278 2534.78 286.648 Z" fill="#000000" fill-rule="nonzero" fill-opacity="1" /></svg>
