<?xml version="1.0" encoding="utf-8"?>
<svg xmlns="http://www.w3.org/2000/svg" xmlns:xlink="http://www.w3.org/1999/xlink" width="672" height="480" viewBox="0 0 2688 1920">
<defs>
  <clipPath id="clip060">
    <rect x="0" y="0" width="2688" height="1920"/>
  </clipPath>
</defs>
<path clip-path="url(#clip060)" d="M0 1920 L2688 1920 L2688 -4.26326e-14 L0 -4.26326e-14  Z" fill="#ffffff" fill-rule="evenodd" fill-opacity="1"/>
<defs>
  <clipPath id="clip061">
    <rect x="268" y="127" width="2373" height="1607"/>
  </clipPath>
</defs>
<path clip-path="url(#clip060)" d="M268.826 1734.12 L2640.76 1734.12 L2640.76 127.792 L268.826 127.792  Z" fill="#ffffff" fill-rule="evenodd" fill-opacity="1"/>
<polyline clip-path="url(#clip061)" style="stroke:#000000; stroke-linecap:round; stroke-linejoin:round; stroke-width:2; stroke-opacity:0.1; fill:none" points="335.956,1734.12 335.956,127.792 "/>
<polyline clip-path="url(#clip061)" style="stroke:#000000; stroke-linecap:round; stroke-linejoin:round; stroke-width:2; stroke-opacity:0.1; fill:none" points="895.373,1734.12 895.373,127.792 "/>
<polyline clip-path="url(#clip061)" style="stroke:#000000; stroke-linecap:round; stroke-linejoin:round; stroke-width:2; stroke-opacity:0.1; fill:none" points="1454.79,1734.12 1454.79,127.792 "/>
<polyline clip-path="url(#clip061)" style="stroke:#000000; stroke-linecap:round; stroke-linejoin:round; stroke-width:2; stroke-opacity:0.1; fill:none" points="2014.21,1734.12 2014.21,127.792 "/>
<polyline clip-path="url(#clip061)" style="stroke:#000000; stroke-linecap:round; stroke-linejoin:round; stroke-width:2; stroke-opacity:0.1; fill:none" points="2573.63,1734.12 2573.63,127.792 "/>
<polyline clip-path="url(#clip061)" style="stroke:#000000; stroke-linecap:round; stroke-linejoin:round; stroke-width:2; stroke-opacity:0.1; fill:none" points="268.826,1688.65 2640.76,1688.65 "/>
<polyline clip-path="url(#clip061)" style="stroke:#000000; stroke-linecap:round; stroke-linejoin:round; stroke-width:2; stroke-opacity:0.1; fill:none" points="268.826,1440.43 2640.76,1440.43 "/>
<polyline clip-path="url(#clip061)" style="stroke:#000000; stroke-linecap:round; stroke-linejoin:round; stroke-width:2; stroke-opacity:0.1; fill:none" points="268.826,1192.21 2640.76,1192.21 "/>
<polyline clip-path="url(#clip061)" style="stroke:#000000; stroke-linecap:round; stroke-linejoin:round; stroke-width:2; stroke-opacity:0.1; fill:none" points="268.826,943.986 2640.76,943.986 "/>
<polyline clip-path="url(#clip061)" style="stroke:#000000; stroke-linecap:round; stroke-linejoin:round; stroke-width:2; stroke-opacity:0.1; fill:none" points="268.826,695.763 2640.76,695.763 "/>
<polyline clip-path="url(#clip061)" style="stroke:#000000; stroke-linecap:round; stroke-linejoin:round; stroke-width:2; stroke-opacity:0.1; fill:none" points="268.826,447.54 2640.76,447.54 "/>
<polyline clip-path="url(#clip061)" style="stroke:#000000; stroke-linecap:round; stroke-linejoin:round; stroke-width:2; stroke-opacity:0.1; fill:none" points="268.826,199.318 2640.76,199.318 "/>
<polyline clip-path="url(#clip060)" style="stroke:#000000; stroke-linecap:round; stroke-linejoin:round; stroke-width:4; stroke-opacity:1; fill:none" points="268.826,1734.12 2640.76,1734.12 "/>
<polyline clip-path="url(#clip060)" style="stroke:#000000; stroke-linecap:round; stroke-linejoin:round; stroke-width:4; stroke-opacity:1; fill:none" points="335.956,1734.12 335.956,1715.22 "/>
<polyline clip-path="url(#clip060)" style="stroke:#000000; stroke-linecap:round; stroke-linejoin:round; stroke-width:4; stroke-opacity:1; fill:none" points="895.373,1734.12 895.373,1715.22 "/>
<polyline clip-path="url(#clip060)" style="stroke:#000000; stroke-linecap:round; stroke-linejoin:round; stroke-width:4; stroke-opacity:1; fill:none" points="1454.79,1734.12 1454.79,1715.22 "/>
<polyline clip-path="url(#clip060)" style="stroke:#000000; stroke-linecap:round; stroke-linejoin:round; stroke-width:4; stroke-opacity:1; fill:none" points="2014.21,1734.12 2014.21,1715.22 "/>
<polyline clip-path="url(#clip060)" style="stroke:#000000; stroke-linecap:round; stroke-linejoin:round; stroke-width:4; stroke-opacity:1; fill:none" points="2573.63,1734.12 2573.63,1715.22 "/>
<path clip-path="url(#clip060)" d="M335.956 1767.34 Q332.345 1767.34 330.516 1770.9 Q328.71 1774.45 328.71 1781.58 Q328.71 1788.68 330.516 1792.25 Q332.345 1795.79 335.956 1795.79 Q339.59 1795.79 341.395 1792.25 Q343.224 1788.68 343.224 1781.58 Q343.224 1774.45 341.395 1770.9 Q339.59 1767.34 335.956 1767.34 M335.956 1763.64 Q341.766 1763.64 344.821 1768.24 Q347.9 1772.83 347.9 1781.58 Q347.9 1790.3 344.821 1794.91 Q341.766 1799.49 335.956 1799.49 Q330.145 1799.49 327.067 1794.91 Q324.011 1790.3 324.011 1781.58 Q324.011 1772.83 327.067 1768.24 Q330.145 1763.64 335.956 1763.64 Z" fill="#000000" fill-rule="nonzero" fill-opacity="1" /><path clip-path="url(#clip060)" d="M870.061 1794.89 L877.7 1794.89 L877.7 1768.52 L869.39 1770.19 L869.39 1765.93 L877.653 1764.26 L882.329 1764.26 L882.329 1794.89 L889.968 1794.89 L889.968 1798.82 L870.061 1798.82 L870.061 1794.89 Z" fill="#000000" fill-rule="nonzero" fill-opacity="1" /><path clip-path="url(#clip060)" d="M909.412 1767.34 Q905.801 1767.34 903.973 1770.9 Q902.167 1774.45 902.167 1781.58 Q902.167 1788.68 903.973 1792.25 Q905.801 1795.79 909.412 1795.79 Q913.047 1795.79 914.852 1792.25 Q916.681 1788.68 916.681 1781.58 Q916.681 1774.45 914.852 1770.9 Q913.047 1767.34 909.412 1767.34 M909.412 1763.64 Q915.223 1763.64 918.278 1768.24 Q921.357 1772.83 921.357 1781.58 Q921.357 1790.3 918.278 1794.91 Q915.223 1799.49 909.412 1799.49 Q903.602 1799.49 900.524 1794.91 Q897.468 1790.3 897.468 1781.58 Q897.468 1772.83 900.524 1768.24 Q903.602 1763.64 909.412 1763.64 Z" fill="#000000" fill-rule="nonzero" fill-opacity="1" /><path clip-path="url(#clip060)" d="M1433.56 1794.89 L1449.88 1794.89 L1449.88 1798.82 L1427.94 1798.82 L1427.94 1794.89 Q1430.6 1792.13 1435.18 1787.5 Q1439.79 1782.85 1440.97 1781.51 Q1443.22 1778.98 1444.1 1777.25 Q1445 1775.49 1445 1773.8 Q1445 1771.04 1443.05 1769.31 Q1441.13 1767.57 1438.03 1767.57 Q1435.83 1767.57 1433.38 1768.34 Q1430.95 1769.1 1428.17 1770.65 L1428.17 1765.93 Q1430.99 1764.79 1433.45 1764.21 Q1435.9 1763.64 1437.94 1763.64 Q1443.31 1763.64 1446.5 1766.32 Q1449.7 1769.01 1449.7 1773.5 Q1449.7 1775.63 1448.89 1777.55 Q1448.1 1779.45 1445.99 1782.04 Q1445.42 1782.71 1442.31 1785.93 Q1439.21 1789.12 1433.56 1794.89 Z" fill="#000000" fill-rule="nonzero" fill-opacity="1" /><path clip-path="url(#clip060)" d="M1469.7 1767.34 Q1466.09 1767.34 1464.26 1770.9 Q1462.45 1774.45 1462.45 1781.58 Q1462.45 1788.68 1464.26 1792.25 Q1466.09 1795.79 1469.7 1795.79 Q1473.33 1795.79 1475.14 1792.25 Q1476.97 1788.68 1476.97 1781.58 Q1476.97 1774.45 1475.14 1770.9 Q1473.33 1767.34 1469.7 1767.34 M1469.7 1763.64 Q1475.51 1763.64 1478.56 1768.24 Q1481.64 1772.83 1481.64 1781.58 Q1481.64 1790.3 1478.56 1794.91 Q1475.51 1799.49 1469.7 1799.49 Q1463.89 1799.49 1460.81 1794.91 Q1457.75 1790.3 1457.75 1781.58 Q1457.75 1772.83 1460.81 1768.24 Q1463.89 1763.64 1469.7 1763.64 Z" fill="#000000" fill-rule="nonzero" fill-opacity="1" /><path clip-path="url(#clip060)" d="M2003.05 1780.19 Q2006.41 1780.9 2008.28 1783.17 Q2010.18 1785.44 2010.18 1788.77 Q2010.18 1793.89 2006.66 1796.69 Q2003.14 1799.49 1996.66 1799.49 Q1994.49 1799.49 1992.17 1799.05 Q1989.88 1798.64 1987.43 1797.78 L1987.43 1793.27 Q1989.37 1794.4 1991.69 1794.98 Q1994 1795.56 1996.52 1795.56 Q2000.92 1795.56 2003.21 1793.82 Q2005.53 1792.08 2005.53 1788.77 Q2005.53 1785.72 2003.37 1784.01 Q2001.25 1782.27 1997.43 1782.27 L1993.4 1782.27 L1993.4 1778.43 L1997.61 1778.43 Q2001.06 1778.43 2002.89 1777.06 Q2004.72 1775.67 2004.72 1773.08 Q2004.72 1770.42 2002.82 1769.01 Q2000.94 1767.57 1997.43 1767.57 Q1995.5 1767.57 1993.31 1767.99 Q1991.11 1768.4 1988.47 1769.28 L1988.47 1765.12 Q1991.13 1764.38 1993.44 1764.01 Q1995.78 1763.64 1997.84 1763.64 Q2003.17 1763.64 2006.27 1766.07 Q2009.37 1768.47 2009.37 1772.59 Q2009.37 1775.46 2007.73 1777.46 Q2006.08 1779.42 2003.05 1780.19 Z" fill="#000000" fill-rule="nonzero" fill-opacity="1" /><path clip-path="url(#clip060)" d="M2029.05 1767.34 Q2025.44 1767.34 2023.61 1770.9 Q2021.8 1774.45 2021.8 1781.58 Q2021.8 1788.68 2023.61 1792.25 Q2025.44 1795.79 2029.05 1795.79 Q2032.68 1795.79 2034.49 1792.25 Q2036.31 1788.68 2036.31 1781.58 Q2036.31 1774.45 2034.49 1770.9 Q2032.68 1767.34 2029.05 1767.34 M2029.05 1763.64 Q2034.86 1763.64 2037.91 1768.24 Q2040.99 1772.83 2040.99 1781.58 Q2040.99 1790.3 2037.91 1794.91 Q2034.86 1799.49 2029.05 1799.49 Q2023.24 1799.49 2020.16 1794.91 Q2017.1 1790.3 2017.1 1781.58 Q2017.1 1772.83 2020.16 1768.24 Q2023.24 1763.64 2029.05 1763.64 Z" fill="#000000" fill-rule="nonzero" fill-opacity="1" /><path clip-path="url(#clip060)" d="M2561.8 1768.34 L2549.99 1786.78 L2561.8 1786.78 L2561.8 1768.34 M2560.57 1764.26 L2566.45 1764.26 L2566.45 1786.78 L2571.38 1786.78 L2571.38 1790.67 L2566.45 1790.67 L2566.45 1798.82 L2561.8 1798.82 L2561.8 1790.67 L2546.2 1790.67 L2546.2 1786.16 L2560.57 1764.26 Z" fill="#000000" fill-rule="nonzero" fill-opacity="1" /><path clip-path="url(#clip060)" d="M2589.11 1767.34 Q2585.5 1767.34 2583.67 1770.9 Q2581.87 1774.45 2581.87 1781.58 Q2581.87 1788.68 2583.67 1792.25 Q2585.5 1795.79 2589.11 1795.79 Q2592.75 1795.79 2594.55 1792.25 Q2596.38 1788.68 2596.38 1781.58 Q2596.38 1774.45 2594.55 1770.9 Q2592.75 1767.34 2589.11 1767.34 M2589.11 1763.64 Q2594.92 1763.64 2597.98 1768.24 Q2601.06 1772.83 2601.06 1781.58 Q2601.06 1790.3 2597.98 1794.91 Q2594.92 1799.49 2589.11 1799.49 Q2583.3 1799.49 2580.22 1794.91 Q2577.17 1790.3 2577.17 1781.58 Q2577.17 1772.83 2580.22 1768.24 Q2583.3 1763.64 2589.11 1763.64 Z" fill="#000000" fill-rule="nonzero" fill-opacity="1" /><path clip-path="url(#clip060)" d="M1401.03 1841.06 L1401.03 1878.02 L1408.8 1878.02 Q1418.63 1878.02 1423.18 1873.56 Q1427.77 1869.11 1427.77 1859.49 Q1427.77 1849.94 1423.18 1845.52 Q1418.63 1841.06 1408.8 1841.06 L1401.03 1841.06 M1394.6 1835.78 L1407.81 1835.78 Q1421.63 1835.78 1428.09 1841.54 Q1434.55 1847.27 1434.55 1859.49 Q1434.55 1871.78 1428.05 1877.54 Q1421.56 1883.3 1407.81 1883.3 L1394.6 1883.3 L1394.6 1835.78 Z" fill="#000000" fill-rule="nonzero" fill-opacity="1" /><path clip-path="url(#clip060)" d="M1460.74 1865.38 Q1453.64 1865.38 1450.91 1867 Q1448.17 1868.63 1448.17 1872.54 Q1448.17 1875.66 1450.21 1877.51 Q1452.28 1879.32 1455.81 1879.32 Q1460.68 1879.32 1463.61 1875.88 Q1466.57 1872.42 1466.57 1866.69 L1466.57 1865.38 L1460.74 1865.38 M1472.42 1862.96 L1472.42 1883.3 L1466.57 1883.3 L1466.57 1877.89 Q1464.56 1881.14 1461.57 1882.7 Q1458.58 1884.22 1454.25 1884.22 Q1448.78 1884.22 1445.53 1881.17 Q1442.31 1878.08 1442.31 1872.92 Q1442.31 1866.91 1446.32 1863.85 Q1450.37 1860.8 1458.36 1860.8 L1466.57 1860.8 L1466.57 1860.23 Q1466.57 1856.18 1463.89 1853.99 Q1461.25 1851.76 1456.45 1851.76 Q1453.39 1851.76 1450.49 1852.49 Q1447.6 1853.22 1444.92 1854.69 L1444.92 1849.28 Q1448.14 1848.03 1451.16 1847.43 Q1454.19 1846.79 1457.05 1846.79 Q1464.78 1846.79 1468.6 1850.8 Q1472.42 1854.81 1472.42 1862.96 Z" fill="#000000" fill-rule="nonzero" fill-opacity="1" /><path clip-path="url(#clip060)" d="M1499.32 1886.61 Q1496.84 1892.98 1494.48 1894.92 Q1492.13 1896.86 1488.18 1896.86 L1483.5 1896.86 L1483.5 1891.96 L1486.94 1891.96 Q1489.36 1891.96 1490.69 1890.81 Q1492.03 1889.67 1493.65 1885.4 L1494.7 1882.73 L1480.29 1847.65 L1486.49 1847.65 L1497.63 1875.53 L1508.77 1847.65 L1514.98 1847.65 L1499.32 1886.61 Z" fill="#000000" fill-rule="nonzero" fill-opacity="1" /><polyline clip-path="url(#clip060)" style="stroke:#000000; stroke-linecap:round; stroke-linejoin:round; stroke-width:4; stroke-opacity:1; fill:none" points="268.826,1734.12 268.826,127.792 "/>
<polyline clip-path="url(#clip060)" style="stroke:#000000; stroke-linecap:round; stroke-linejoin:round; stroke-width:4; stroke-opacity:1; fill:none" points="268.826,1688.65 287.723,1688.65 "/>
<polyline clip-path="url(#clip060)" style="stroke:#000000; stroke-linecap:round; stroke-linejoin:round; stroke-width:4; stroke-opacity:1; fill:none" points="268.826,1440.43 287.723,1440.43 "/>
<polyline clip-path="url(#clip060)" style="stroke:#000000; stroke-linecap:round; stroke-linejoin:round; stroke-width:4; stroke-opacity:1; fill:none" points="268.826,1192.21 287.723,1192.21 "/>
<polyline clip-path="url(#clip060)" style="stroke:#000000; stroke-linecap:round; stroke-linejoin:round; stroke-width:4; stroke-opacity:1; fill:none" points="268.826,943.986 287.723,943.986 "/>
<polyline clip-path="url(#clip060)" style="stroke:#000000; stroke-linecap:round; stroke-linejoin:round; stroke-width:4; stroke-opacity:1; fill:none" points="268.826,695.763 287.723,695.763 "/>
<polyline clip-path="url(#clip060)" style="stroke:#000000; stroke-linecap:round; stroke-linejoin:round; stroke-width:4; stroke-opacity:1; fill:none" points="268.826,447.54 287.723,447.54 "/>
<polyline clip-path="url(#clip060)" style="stroke:#000000; stroke-linecap:round; stroke-linejoin:round; stroke-width:4; stroke-opacity:1; fill:none" points="268.826,199.318 287.723,199.318 "/>
<path clip-path="url(#clip060)" d="M216.561 1674.45 Q212.95 1674.45 211.121 1678.02 Q209.316 1681.56 209.316 1688.69 Q209.316 1695.8 211.121 1699.36 Q212.95 1702.9 216.561 1702.9 Q220.195 1702.9 222.001 1699.36 Q223.83 1695.8 223.83 1688.69 Q223.83 1681.56 222.001 1678.02 Q220.195 1674.45 216.561 1674.45 M216.561 1670.75 Q222.371 1670.75 225.427 1675.36 Q228.506 1679.94 228.506 1688.69 Q228.506 1697.42 225.427 1702.02 Q222.371 1706.61 216.561 1706.61 Q210.751 1706.61 207.672 1702.02 Q204.617 1697.42 204.617 1688.69 Q204.617 1679.94 207.672 1675.36 Q210.751 1670.75 216.561 1670.75 Z" fill="#000000" fill-rule="nonzero" fill-opacity="1" /><path clip-path="url(#clip060)" d="M150.265 1453.78 L166.585 1453.78 L166.585 1457.71 L144.64 1457.71 L144.64 1453.78 Q147.302 1451.02 151.886 1446.39 Q156.492 1441.74 157.673 1440.4 Q159.918 1437.87 160.798 1436.14 Q161.7 1434.38 161.7 1432.69 Q161.7 1429.93 159.756 1428.2 Q157.835 1426.46 154.733 1426.46 Q152.534 1426.46 150.08 1427.23 Q147.649 1427.99 144.872 1429.54 L144.872 1424.82 Q147.696 1423.68 150.149 1423.11 Q152.603 1422.53 154.64 1422.53 Q160.011 1422.53 163.205 1425.21 Q166.399 1427.9 166.399 1432.39 Q166.399 1434.52 165.589 1436.44 Q164.802 1438.34 162.696 1440.93 Q162.117 1441.6 159.015 1444.82 Q155.913 1448.01 150.265 1453.78 Z" fill="#000000" fill-rule="nonzero" fill-opacity="1" /><path clip-path="url(#clip060)" d="M186.399 1426.23 Q182.788 1426.23 180.959 1429.8 Q179.154 1433.34 179.154 1440.47 Q179.154 1447.57 180.959 1451.14 Q182.788 1454.68 186.399 1454.68 Q190.033 1454.68 191.839 1451.14 Q193.668 1447.57 193.668 1440.47 Q193.668 1433.34 191.839 1429.8 Q190.033 1426.23 186.399 1426.23 M186.399 1422.53 Q192.209 1422.53 195.265 1427.13 Q198.344 1431.72 198.344 1440.47 Q198.344 1449.19 195.265 1453.8 Q192.209 1458.38 186.399 1458.38 Q180.589 1458.38 177.51 1453.8 Q174.455 1449.19 174.455 1440.47 Q174.455 1431.72 177.51 1427.13 Q180.589 1422.53 186.399 1422.53 Z" fill="#000000" fill-rule="nonzero" fill-opacity="1" /><path clip-path="url(#clip060)" d="M216.561 1426.23 Q212.95 1426.23 211.121 1429.8 Q209.316 1433.34 209.316 1440.47 Q209.316 1447.57 211.121 1451.14 Q212.95 1454.68 216.561 1454.68 Q220.195 1454.68 222.001 1451.14 Q223.83 1447.57 223.83 1440.47 Q223.83 1433.34 222.001 1429.8 Q220.195 1426.23 216.561 1426.23 M216.561 1422.53 Q222.371 1422.53 225.427 1427.13 Q228.506 1431.72 228.506 1440.47 Q228.506 1449.19 225.427 1453.8 Q222.371 1458.38 216.561 1458.38 Q210.751 1458.38 207.672 1453.8 Q204.617 1449.19 204.617 1440.47 Q204.617 1431.72 207.672 1427.13 Q210.751 1422.53 216.561 1422.53 Z" fill="#000000" fill-rule="nonzero" fill-opacity="1" /><path clip-path="url(#clip060)" d="M159.085 1179 L147.279 1197.45 L159.085 1197.45 L159.085 1179 M157.858 1174.93 L163.737 1174.93 L163.737 1197.45 L168.668 1197.45 L168.668 1201.34 L163.737 1201.34 L163.737 1209.49 L159.085 1209.49 L159.085 1201.34 L143.483 1201.34 L143.483 1196.83 L157.858 1174.93 Z" fill="#000000" fill-rule="nonzero" fill-opacity="1" /><path clip-path="url(#clip060)" d="M186.399 1178.01 Q182.788 1178.01 180.959 1181.57 Q179.154 1185.11 179.154 1192.24 Q179.154 1199.35 180.959 1202.92 Q182.788 1206.46 186.399 1206.46 Q190.033 1206.46 191.839 1202.92 Q193.668 1199.35 193.668 1192.24 Q193.668 1185.11 191.839 1181.57 Q190.033 1178.01 186.399 1178.01 M186.399 1174.3 Q192.209 1174.3 195.265 1178.91 Q198.344 1183.49 198.344 1192.24 Q198.344 1200.97 195.265 1205.58 Q192.209 1210.16 186.399 1210.16 Q180.589 1210.16 177.51 1205.58 Q174.455 1200.97 174.455 1192.24 Q174.455 1183.49 177.51 1178.91 Q180.589 1174.3 186.399 1174.3 Z" fill="#000000" fill-rule="nonzero" fill-opacity="1" /><path clip-path="url(#clip060)" d="M216.561 1178.01 Q212.95 1178.01 211.121 1181.57 Q209.316 1185.11 209.316 1192.24 Q209.316 1199.35 211.121 1202.92 Q212.95 1206.46 216.561 1206.46 Q220.195 1206.46 222.001 1202.92 Q223.83 1199.35 223.83 1192.24 Q223.83 1185.11 222.001 1181.57 Q220.195 1178.01 216.561 1178.01 M216.561 1174.3 Q222.371 1174.3 225.427 1178.91 Q228.506 1183.49 228.506 1192.24 Q228.506 1200.97 225.427 1205.58 Q222.371 1210.16 216.561 1210.16 Q210.751 1210.16 207.672 1205.58 Q204.617 1200.97 204.617 1192.24 Q204.617 1183.49 207.672 1178.91 Q210.751 1174.3 216.561 1174.3 Z" fill="#000000" fill-rule="nonzero" fill-opacity="1" /><path clip-path="url(#clip060)" d="M156.816 942.123 Q153.668 942.123 151.816 944.276 Q149.987 946.428 149.987 950.178 Q149.987 953.905 151.816 956.081 Q153.668 958.234 156.816 958.234 Q159.964 958.234 161.793 956.081 Q163.645 953.905 163.645 950.178 Q163.645 946.428 161.793 944.276 Q159.964 942.123 156.816 942.123 M166.098 927.47 L166.098 931.729 Q164.339 930.896 162.534 930.456 Q160.751 930.016 158.992 930.016 Q154.362 930.016 151.909 933.141 Q149.478 936.266 149.131 942.586 Q150.497 940.572 152.557 939.507 Q154.617 938.419 157.094 938.419 Q162.302 938.419 165.311 941.59 Q168.344 944.739 168.344 950.178 Q168.344 955.502 165.196 958.72 Q162.048 961.938 156.816 961.938 Q150.821 961.938 147.649 957.354 Q144.478 952.748 144.478 944.021 Q144.478 935.827 148.367 930.965 Q152.256 926.081 158.807 926.081 Q160.566 926.081 162.348 926.428 Q164.154 926.776 166.098 927.47 Z" fill="#000000" fill-rule="nonzero" fill-opacity="1" /><path clip-path="url(#clip060)" d="M186.399 929.785 Q182.788 929.785 180.959 933.35 Q179.154 936.891 179.154 944.021 Q179.154 951.127 180.959 954.692 Q182.788 958.234 186.399 958.234 Q190.033 958.234 191.839 954.692 Q193.668 951.127 193.668 944.021 Q193.668 936.891 191.839 933.35 Q190.033 929.785 186.399 929.785 M186.399 926.081 Q192.209 926.081 195.265 930.688 Q198.344 935.271 198.344 944.021 Q198.344 952.748 195.265 957.354 Q192.209 961.938 186.399 961.938 Q180.589 961.938 177.51 957.354 Q174.455 952.748 174.455 944.021 Q174.455 935.271 177.51 930.688 Q180.589 926.081 186.399 926.081 Z" fill="#000000" fill-rule="nonzero" fill-opacity="1" /><path clip-path="url(#clip060)" d="M216.561 929.785 Q212.95 929.785 211.121 933.35 Q209.316 936.891 209.316 944.021 Q209.316 951.127 211.121 954.692 Q212.95 958.234 216.561 958.234 Q220.195 958.234 222.001 954.692 Q223.83 951.127 223.83 944.021 Q223.83 936.891 222.001 933.35 Q220.195 929.785 216.561 929.785 M216.561 926.081 Q222.371 926.081 225.427 930.688 Q228.506 935.271 228.506 944.021 Q228.506 952.748 225.427 957.354 Q222.371 961.938 216.561 961.938 Q210.751 961.938 207.672 957.354 Q204.617 952.748 204.617 944.021 Q204.617 935.271 207.672 930.688 Q210.751 926.081 216.561 926.081 Z" fill="#000000" fill-rule="nonzero" fill-opacity="1" /><path clip-path="url(#clip060)" d="M156.237 696.631 Q152.904 696.631 150.983 698.414 Q149.085 700.196 149.085 703.321 Q149.085 706.446 150.983 708.229 Q152.904 710.011 156.237 710.011 Q159.571 710.011 161.492 708.229 Q163.413 706.423 163.413 703.321 Q163.413 700.196 161.492 698.414 Q159.594 696.631 156.237 696.631 M151.561 694.641 Q148.552 693.9 146.862 691.84 Q145.196 689.78 145.196 686.817 Q145.196 682.673 148.136 680.266 Q151.099 677.858 156.237 677.858 Q161.399 677.858 164.339 680.266 Q167.279 682.673 167.279 686.817 Q167.279 689.78 165.589 691.84 Q163.923 693.9 160.936 694.641 Q164.316 695.428 166.191 697.719 Q168.089 700.011 168.089 703.321 Q168.089 708.344 165.01 711.029 Q161.955 713.715 156.237 713.715 Q150.52 713.715 147.441 711.029 Q144.386 708.344 144.386 703.321 Q144.386 700.011 146.284 697.719 Q148.182 695.428 151.561 694.641 M149.849 687.256 Q149.849 689.942 151.515 691.446 Q153.205 692.951 156.237 692.951 Q159.247 692.951 160.936 691.446 Q162.649 689.942 162.649 687.256 Q162.649 684.571 160.936 683.067 Q159.247 681.562 156.237 681.562 Q153.205 681.562 151.515 683.067 Q149.849 684.571 149.849 687.256 Z" fill="#000000" fill-rule="nonzero" fill-opacity="1" /><path clip-path="url(#clip060)" d="M186.399 681.562 Q182.788 681.562 180.959 685.127 Q179.154 688.668 179.154 695.798 Q179.154 702.905 180.959 706.469 Q182.788 710.011 186.399 710.011 Q190.033 710.011 191.839 706.469 Q193.668 702.905 193.668 695.798 Q193.668 688.668 191.839 685.127 Q190.033 681.562 186.399 681.562 M186.399 677.858 Q192.209 677.858 195.265 682.465 Q198.344 687.048 198.344 695.798 Q198.344 704.525 195.265 709.131 Q192.209 713.715 186.399 713.715 Q180.589 713.715 177.51 709.131 Q174.455 704.525 174.455 695.798 Q174.455 687.048 177.51 682.465 Q180.589 677.858 186.399 677.858 Z" fill="#000000" fill-rule="nonzero" fill-opacity="1" /><path clip-path="url(#clip060)" d="M216.561 681.562 Q212.95 681.562 211.121 685.127 Q209.316 688.668 209.316 695.798 Q209.316 702.905 211.121 706.469 Q212.95 710.011 216.561 710.011 Q220.195 710.011 222.001 706.469 Q223.83 702.905 223.83 695.798 Q223.83 688.668 222.001 685.127 Q220.195 681.562 216.561 681.562 M216.561 677.858 Q222.371 677.858 225.427 682.465 Q228.506 687.048 228.506 695.798 Q228.506 704.525 225.427 709.131 Q222.371 713.715 216.561 713.715 Q210.751 713.715 207.672 709.131 Q204.617 704.525 204.617 695.798 Q204.617 687.048 207.672 682.465 Q210.751 677.858 216.561 677.858 Z" fill="#000000" fill-rule="nonzero" fill-opacity="1" /><path clip-path="url(#clip060)" d="M116.886 460.885 L124.525 460.885 L124.525 434.52 L116.214 436.186 L116.214 431.927 L124.478 430.26 L129.154 430.26 L129.154 460.885 L136.793 460.885 L136.793 464.82 L116.886 464.82 L116.886 460.885 Z" fill="#000000" fill-rule="nonzero" fill-opacity="1" /><path clip-path="url(#clip060)" d="M156.237 433.339 Q152.626 433.339 150.798 436.904 Q148.992 440.446 148.992 447.575 Q148.992 454.682 150.798 458.246 Q152.626 461.788 156.237 461.788 Q159.872 461.788 161.677 458.246 Q163.506 454.682 163.506 447.575 Q163.506 440.446 161.677 436.904 Q159.872 433.339 156.237 433.339 M156.237 429.635 Q162.048 429.635 165.103 434.242 Q168.182 438.825 168.182 447.575 Q168.182 456.302 165.103 460.908 Q162.048 465.492 156.237 465.492 Q150.427 465.492 147.349 460.908 Q144.293 456.302 144.293 447.575 Q144.293 438.825 147.349 434.242 Q150.427 429.635 156.237 429.635 Z" fill="#000000" fill-rule="nonzero" fill-opacity="1" /><path clip-path="url(#clip060)" d="M186.399 433.339 Q182.788 433.339 180.959 436.904 Q179.154 440.446 179.154 447.575 Q179.154 454.682 180.959 458.246 Q182.788 461.788 186.399 461.788 Q190.033 461.788 191.839 458.246 Q193.668 454.682 193.668 447.575 Q193.668 440.446 191.839 436.904 Q190.033 433.339 186.399 433.339 M186.399 429.635 Q192.209 429.635 195.265 434.242 Q198.344 438.825 198.344 447.575 Q198.344 456.302 195.265 460.908 Q192.209 465.492 186.399 465.492 Q180.589 465.492 177.51 460.908 Q174.455 456.302 174.455 447.575 Q174.455 438.825 177.51 434.242 Q180.589 429.635 186.399 429.635 Z" fill="#000000" fill-rule="nonzero" fill-opacity="1" /><path clip-path="url(#clip060)" d="M216.561 433.339 Q212.95 433.339 211.121 436.904 Q209.316 440.446 209.316 447.575 Q209.316 454.682 211.121 458.246 Q212.95 461.788 216.561 461.788 Q220.195 461.788 222.001 458.246 Q223.83 454.682 223.83 447.575 Q223.83 440.446 222.001 436.904 Q220.195 433.339 216.561 433.339 M216.561 429.635 Q222.371 429.635 225.427 434.242 Q228.506 438.825 228.506 447.575 Q228.506 456.302 225.427 460.908 Q222.371 465.492 216.561 465.492 Q210.751 465.492 207.672 460.908 Q204.617 456.302 204.617 447.575 Q204.617 438.825 207.672 434.242 Q210.751 429.635 216.561 429.635 Z" fill="#000000" fill-rule="nonzero" fill-opacity="1" /><path clip-path="url(#clip060)" d="M116.886 212.662 L124.525 212.662 L124.525 186.297 L116.214 187.963 L116.214 183.704 L124.478 182.038 L129.154 182.038 L129.154 212.662 L136.793 212.662 L136.793 216.598 L116.886 216.598 L116.886 212.662 Z" fill="#000000" fill-rule="nonzero" fill-opacity="1" /><path clip-path="url(#clip060)" d="M150.265 212.662 L166.585 212.662 L166.585 216.598 L144.64 216.598 L144.64 212.662 Q147.302 209.908 151.886 205.278 Q156.492 200.625 157.673 199.283 Q159.918 196.76 160.798 195.024 Q161.7 193.264 161.7 191.575 Q161.7 188.82 159.756 187.084 Q157.835 185.348 154.733 185.348 Q152.534 185.348 150.08 186.112 Q147.649 186.875 144.872 188.426 L144.872 183.704 Q147.696 182.57 150.149 181.991 Q152.603 181.413 154.64 181.413 Q160.011 181.413 163.205 184.098 Q166.399 186.783 166.399 191.274 Q166.399 193.403 165.589 195.325 Q164.802 197.223 162.696 199.815 Q162.117 200.487 159.015 203.704 Q155.913 206.899 150.265 212.662 Z" fill="#000000" fill-rule="nonzero" fill-opacity="1" /><path clip-path="url(#clip060)" d="M186.399 185.116 Q182.788 185.116 180.959 188.681 Q179.154 192.223 179.154 199.352 Q179.154 206.459 180.959 210.024 Q182.788 213.565 186.399 213.565 Q190.033 213.565 191.839 210.024 Q193.668 206.459 193.668 199.352 Q193.668 192.223 191.839 188.681 Q190.033 185.116 186.399 185.116 M186.399 181.413 Q192.209 181.413 195.265 186.019 Q198.344 190.602 198.344 199.352 Q198.344 208.079 195.265 212.686 Q192.209 217.269 186.399 217.269 Q180.589 217.269 177.51 212.686 Q174.455 208.079 174.455 199.352 Q174.455 190.602 177.51 186.019 Q180.589 181.413 186.399 181.413 Z" fill="#000000" fill-rule="nonzero" fill-opacity="1" /><path clip-path="url(#clip060)" d="M216.561 185.116 Q212.95 185.116 211.121 188.681 Q209.316 192.223 209.316 199.352 Q209.316 206.459 211.121 210.024 Q212.95 213.565 216.561 213.565 Q220.195 213.565 222.001 210.024 Q223.83 206.459 223.83 199.352 Q223.83 192.223 222.001 188.681 Q220.195 185.116 216.561 185.116 M216.561 181.413 Q222.371 181.413 225.427 186.019 Q228.506 190.602 228.506 199.352 Q228.506 208.079 225.427 212.686 Q222.371 217.269 216.561 217.269 Q210.751 217.269 207.672 212.686 Q204.617 208.079 204.617 199.352 Q204.617 190.602 207.672 186.019 Q210.751 181.413 216.561 181.413 Z" fill="#000000" fill-rule="nonzero" fill-opacity="1" /><path clip-path="url(#clip060)" d="M14.1184 1220.36 L14.1184 1211.7 L53.8723 1190.63 L14.1184 1190.63 L14.1184 1184.39 L61.6384 1184.39 L61.6384 1193.05 L21.8846 1214.12 L61.6384 1214.12 L61.6384 1220.36 L14.1184 1220.36 Z" fill="#000000" fill-rule="nonzero" fill-opacity="1" /><path clip-path="url(#clip060)" d="M47.5702 1172.45 L25.9905 1172.45 L25.9905 1166.6 L47.3474 1166.6 Q52.4082 1166.6 54.9545 1164.62 Q57.4689 1162.65 57.4689 1158.7 Q57.4689 1153.96 54.4452 1151.22 Q51.4215 1148.45 46.2016 1148.45 L25.9905 1148.45 L25.9905 1142.6 L61.6384 1142.6 L61.6384 1148.45 L56.1639 1148.45 Q59.4104 1150.59 61.0019 1153.42 Q62.5615 1156.22 62.5615 1159.94 Q62.5615 1166.09 58.742 1169.27 Q54.9226 1172.45 47.5702 1172.45 M25.1311 1157.72 L25.1311 1157.72 Z" fill="#000000" fill-rule="nonzero" fill-opacity="1" /><path clip-path="url(#clip060)" d="M32.8336 1102.78 Q28.8869 1100.58 27.009 1097.53 Q25.1311 1094.47 25.1311 1090.34 Q25.1311 1084.77 29.046 1081.74 Q32.9291 1078.72 40.1224 1078.72 L61.6384 1078.72 L61.6384 1084.61 L40.3133 1084.61 Q35.1889 1084.61 32.7063 1086.42 Q30.2237 1088.24 30.2237 1091.96 Q30.2237 1096.51 33.2474 1099.15 Q36.2711 1101.79 41.491 1101.79 L61.6384 1101.79 L61.6384 1107.68 L40.3133 1107.68 Q35.1571 1107.68 32.7063 1109.5 Q30.2237 1111.31 30.2237 1115.1 Q30.2237 1119.59 33.2792 1122.23 Q36.3029 1124.87 41.491 1124.87 L61.6384 1124.87 L61.6384 1130.76 L25.9905 1130.76 L25.9905 1124.87 L31.5287 1124.87 Q28.2503 1122.86 26.6907 1120.06 Q25.1311 1117.26 25.1311 1113.41 Q25.1311 1109.53 27.1045 1106.82 Q29.0779 1104.09 32.8336 1102.78 Z" fill="#000000" fill-rule="nonzero" fill-opacity="1" /><path clip-path="url(#clip060)" d="M43.8463 1041.45 Q37.3851 1041.45 33.7248 1044.12 Q30.0327 1046.76 30.0327 1051.41 Q30.0327 1056.06 33.7248 1058.73 Q37.3851 1061.37 43.8463 1061.37 Q50.3075 1061.37 53.9996 1058.73 Q57.6599 1056.06 57.6599 1051.41 Q57.6599 1046.76 53.9996 1044.12 Q50.3075 1041.45 43.8463 1041.45 M31.4013 1061.37 Q28.2185 1059.53 26.6907 1056.73 Q25.1311 1053.89 25.1311 1049.98 Q25.1311 1043.48 30.2873 1039.44 Q35.4436 1035.37 43.8463 1035.37 Q52.249 1035.37 57.4052 1039.44 Q62.5615 1043.48 62.5615 1049.98 Q62.5615 1053.89 61.0337 1056.73 Q59.4741 1059.53 56.2912 1061.37 L61.6384 1061.37 L61.6384 1067.26 L12.1132 1067.26 L12.1132 1061.37 L31.4013 1061.37 Z" fill="#000000" fill-rule="nonzero" fill-opacity="1" /><path clip-path="url(#clip060)" d="M42.3504 995.169 L45.2149 995.169 L45.2149 1022.1 Q51.2623 1021.71 54.4452 1018.47 Q57.5962 1015.19 57.5962 1009.36 Q57.5962 1005.99 56.7687 1002.84 Q55.9411 999.656 54.2861 996.537 L59.8242 996.537 Q61.161 999.688 61.8612 1003 Q62.5615 1006.31 62.5615 1009.71 Q62.5615 1018.24 57.5962 1023.24 Q52.631 1028.21 44.1646 1028.21 Q35.4117 1028.21 30.2873 1023.5 Q25.1311 1018.75 25.1311 1010.73 Q25.1311 1003.54 29.7781 999.37 Q34.3932 995.169 42.3504 995.169 M40.6316 1001.03 Q35.8255 1001.09 32.9609 1003.73 Q30.0964 1006.34 30.0964 1010.67 Q30.0964 1015.57 32.8654 1018.53 Q35.6345 1021.46 40.6634 1021.9 L40.6316 1001.03 Z" fill="#000000" fill-rule="nonzero" fill-opacity="1" /><path clip-path="url(#clip060)" d="M31.465 964.9 Q30.8921 965.886 30.6375 967.064 Q30.351 968.21 30.351 969.61 Q30.351 974.576 33.5975 977.249 Q36.8122 979.891 42.8596 979.891 L61.6384 979.891 L61.6384 985.779 L25.9905 985.779 L25.9905 979.891 L31.5287 979.891 Q28.2821 978.045 26.7225 975.085 Q25.1311 972.125 25.1311 967.892 Q25.1311 967.287 25.2266 966.555 Q25.2903 965.823 25.4494 964.932 L31.465 964.9 Z" fill="#000000" fill-rule="nonzero" fill-opacity="1" /><path clip-path="url(#clip060)" d="M30.0964 924.223 Q30.0964 928.933 33.7885 931.671 Q37.4488 934.408 43.8463 934.408 Q50.2438 934.408 53.9359 931.703 Q57.5962 928.965 57.5962 924.223 Q57.5962 919.544 53.9041 916.807 Q50.212 914.07 43.8463 914.07 Q37.5124 914.07 33.8203 916.807 Q30.0964 919.544 30.0964 924.223 M25.1311 924.223 Q25.1311 916.584 30.0964 912.223 Q35.0616 907.863 43.8463 907.863 Q52.5991 907.863 57.5962 912.223 Q62.5615 916.584 62.5615 924.223 Q62.5615 931.893 57.5962 936.254 Q52.5991 940.583 43.8463 940.583 Q35.0616 940.583 30.0964 936.254 Q25.1311 931.893 25.1311 924.223 Z" fill="#000000" fill-rule="nonzero" fill-opacity="1" /><path clip-path="url(#clip060)" d="M12.1132 880.108 L16.983 880.108 L16.983 885.71 Q16.983 888.861 18.2562 890.103 Q19.5293 891.312 22.8395 891.312 L25.9905 891.312 L25.9905 881.668 L30.542 881.668 L30.542 891.312 L61.6384 891.312 L61.6384 897.2 L30.542 897.2 L30.542 902.802 L25.9905 902.802 L25.9905 897.2 L23.5079 897.2 Q17.5559 897.2 14.8505 894.431 Q12.1132 891.662 12.1132 885.647 L12.1132 880.108 Z" fill="#000000" fill-rule="nonzero" fill-opacity="1" /><path clip-path="url(#clip060)" d="M43.719 838.286 Q43.719 845.384 45.3422 848.121 Q46.9655 850.858 50.8804 850.858 Q53.9996 850.858 55.8457 848.821 Q57.6599 846.752 57.6599 843.219 Q57.6599 838.349 54.2224 835.421 Q50.7531 832.461 45.0239 832.461 L43.719 832.461 L43.719 838.286 M41.3 826.605 L61.6384 826.605 L61.6384 832.461 L56.2276 832.461 Q59.4741 834.466 61.0337 837.458 Q62.5615 840.45 62.5615 844.779 Q62.5615 850.253 59.5059 853.5 Q56.4186 856.715 51.2623 856.715 Q45.2467 856.715 42.1912 852.704 Q39.1357 848.662 39.1357 840.673 L39.1357 832.461 L38.5628 832.461 Q34.5205 832.461 32.3244 835.135 Q30.0964 837.777 30.0964 842.583 Q30.0964 845.638 30.8284 848.535 Q31.5605 851.431 33.0246 854.105 L27.6137 854.105 Q26.3724 850.89 25.7677 847.866 Q25.1311 844.842 25.1311 841.978 Q25.1311 834.244 29.1415 830.424 Q33.1519 826.605 41.3 826.605 Z" fill="#000000" fill-rule="nonzero" fill-opacity="1" /><path clip-path="url(#clip060)" d="M43.4007 791.084 Q37.035 791.084 33.5338 793.726 Q30.0327 796.336 30.0327 801.078 Q30.0327 805.789 33.5338 808.431 Q37.035 811.041 43.4007 811.041 Q49.7346 811.041 53.2357 808.431 Q56.7368 805.789 56.7368 801.078 Q56.7368 796.336 53.2357 793.726 Q49.7346 791.084 43.4007 791.084 M57.2143 785.228 Q66.3172 785.228 70.7414 789.27 Q75.1974 793.312 75.1974 801.651 Q75.1974 804.739 74.72 807.476 Q74.2744 810.213 73.3195 812.791 L67.6222 812.791 Q69.0227 810.213 69.6911 807.699 Q70.3595 805.184 70.3595 802.574 Q70.3595 796.813 67.3358 793.949 Q64.3439 791.084 58.2646 791.084 L55.3682 791.084 Q58.5192 792.898 60.0788 795.731 Q61.6384 798.564 61.6384 802.511 Q61.6384 809.067 56.6414 813.078 Q51.6443 817.088 43.4007 817.088 Q35.1253 817.088 30.1282 813.078 Q25.1311 809.067 25.1311 802.511 Q25.1311 798.564 26.6907 795.731 Q28.2503 792.898 31.4013 791.084 L25.9905 791.084 L25.9905 785.228 L57.2143 785.228 Z" fill="#000000" fill-rule="nonzero" fill-opacity="1" /><path clip-path="url(#clip060)" d="M42.3504 742.673 L45.2149 742.673 L45.2149 769.6 Q51.2623 769.218 54.4452 765.971 Q57.5962 762.693 57.5962 756.868 Q57.5962 753.495 56.7687 750.344 Q55.9411 747.161 54.2861 744.041 L59.8242 744.041 Q61.161 747.193 61.8612 750.503 Q62.5615 753.813 62.5615 757.219 Q62.5615 765.749 57.5962 770.746 Q52.631 775.711 44.1646 775.711 Q35.4117 775.711 30.2873 771 Q25.1311 766.258 25.1311 758.237 Q25.1311 751.044 29.7781 746.874 Q34.3932 742.673 42.3504 742.673 M40.6316 748.529 Q35.8255 748.593 32.9609 751.235 Q30.0964 753.845 30.0964 758.173 Q30.0964 763.075 32.8654 766.035 Q35.6345 768.963 40.6634 769.409 L40.6316 748.529 Z" fill="#000000" fill-rule="nonzero" fill-opacity="1" /><path clip-path="url(#clip060)" d="M40.1224 703.428 L61.6384 703.428 L61.6384 709.285 L40.3133 709.285 Q35.2526 709.285 32.7381 711.258 Q30.2237 713.231 30.2237 717.178 Q30.2237 721.921 33.2474 724.658 Q36.2711 727.395 41.491 727.395 L61.6384 727.395 L61.6384 733.283 L25.9905 733.283 L25.9905 727.395 L31.5287 727.395 Q28.314 725.294 26.7225 722.462 Q25.1311 719.597 25.1311 715.873 Q25.1311 709.73 28.9505 706.579 Q32.7381 703.428 40.1224 703.428 Z" fill="#000000" fill-rule="nonzero" fill-opacity="1" /><path clip-path="url(#clip060)" d="M15.869 685.954 L25.9905 685.954 L25.9905 673.891 L30.542 673.891 L30.542 685.954 L49.8937 685.954 Q54.2542 685.954 55.4955 684.777 Q56.7368 683.567 56.7368 679.907 L56.7368 673.891 L61.6384 673.891 L61.6384 679.907 Q61.6384 686.686 59.124 689.265 Q56.5777 691.843 49.8937 691.843 L30.542 691.843 L30.542 696.14 L25.9905 696.14 L25.9905 691.843 L15.869 691.843 L15.869 685.954 Z" fill="#000000" fill-rule="nonzero" fill-opacity="1" /><path clip-path="url(#clip060)" d="M27.0408 643.463 L32.579 643.463 Q31.3059 645.946 30.6693 648.62 Q30.0327 651.293 30.0327 654.158 Q30.0327 658.518 31.3695 660.714 Q32.7063 662.879 35.3799 662.879 Q37.4169 662.879 38.5946 661.319 Q39.7404 659.76 40.7908 655.049 L41.2364 653.044 Q42.5732 646.805 45.0239 644.195 Q47.4429 641.554 51.8034 641.554 Q56.7687 641.554 59.6651 645.5 Q62.5615 649.415 62.5615 656.29 Q62.5615 659.155 61.9886 662.274 Q61.4475 665.361 60.3335 668.799 L54.2861 668.799 Q55.973 665.552 56.8323 662.401 Q57.6599 659.25 57.6599 656.163 Q57.6599 652.025 56.2594 649.797 Q54.8271 647.569 52.249 647.569 Q49.8619 647.569 48.5887 649.192 Q47.3156 650.784 46.1379 656.227 L45.6605 658.264 Q44.5147 663.706 42.1594 666.125 Q39.7722 668.544 35.6345 668.544 Q30.6056 668.544 27.8684 664.979 Q25.1311 661.415 25.1311 654.858 Q25.1311 651.611 25.6085 648.747 Q26.086 645.882 27.0408 643.463 Z" fill="#000000" fill-rule="nonzero" fill-opacity="1" /><path clip-path="url(#clip060)" d="M1016.1 14.0809 L1016.1 22.0612 Q1011.44 19.8332 1007.31 18.7395 Q1003.18 17.6457 999.327 17.6457 Q992.643 17.6457 988.997 20.2383 Q985.392 22.8309 985.392 27.611 Q985.392 31.6214 987.782 33.6873 Q990.213 35.7128 996.937 36.9686 L1001.88 37.9813 Q1011.03 39.7232 1015.37 44.1387 Q1019.74 48.5136 1019.74 55.8863 Q1019.74 64.6767 1013.83 69.2137 Q1007.96 73.7508 996.573 73.7508 Q992.279 73.7508 987.418 72.7785 Q982.597 71.8063 977.412 69.9024 L977.412 61.4765 Q982.395 64.2716 987.175 65.6895 Q991.955 67.1073 996.573 67.1073 Q1003.58 67.1073 1007.39 64.3527 Q1011.2 61.598 1011.2 56.4939 Q1011.2 52.0379 1008.44 49.5264 Q1005.73 47.0148 999.489 45.759 L994.507 44.7868 Q985.352 42.9639 981.26 39.075 Q977.169 35.1862 977.169 28.2591 Q977.169 20.2383 982.8 15.6203 Q988.471 11.0023 998.396 11.0023 Q1002.65 11.0023 1007.06 11.7719 Q1011.48 12.5416 1016.1 14.0809 Z" fill="#000000" fill-rule="nonzero" fill-opacity="1" /><path clip-path="url(#clip060)" d="M1032.5 12.096 L1040.69 12.096 L1040.69 72.576 L1032.5 72.576 L1032.5 12.096 Z" fill="#000000" fill-rule="nonzero" fill-opacity="1" /><path clip-path="url(#clip060)" d="M1085.65 44.2197 Q1088.29 45.1109 1090.76 48.0275 Q1093.27 50.9442 1095.78 56.0483 L1104.08 72.576 L1095.29 72.576 L1087.56 57.061 Q1084.56 50.9847 1081.72 48.9997 Q1078.93 47.0148 1074.07 47.0148 L1065.15 47.0148 L1065.15 72.576 L1056.97 72.576 L1056.97 12.096 L1075.44 12.096 Q1085.81 12.096 1090.92 16.4305 Q1096.02 20.7649 1096.02 29.5149 Q1096.02 35.2267 1093.35 38.994 Q1090.72 42.7613 1085.65 44.2197 M1065.15 18.8205 L1065.15 40.2903 L1075.44 40.2903 Q1081.36 40.2903 1084.36 37.5762 Q1087.39 34.8216 1087.39 29.5149 Q1087.39 24.2082 1084.36 21.5346 Q1081.36 18.8205 1075.44 18.8205 L1065.15 18.8205 Z" fill="#000000" fill-rule="nonzero" fill-opacity="1" /><path clip-path="url(#clip060)" d="M1136.33 27.2059 L1143.78 27.2059 L1153.1 62.6108 L1162.38 27.2059 L1171.17 27.2059 L1180.48 62.6108 L1189.76 27.2059 L1197.21 27.2059 L1185.34 72.576 L1176.55 72.576 L1166.79 35.3887 L1156.99 72.576 L1148.2 72.576 L1136.33 27.2059 Z" fill="#000000" fill-rule="nonzero" fill-opacity="1" /><path clip-path="url(#clip060)" d="M1208.52 27.2059 L1215.97 27.2059 L1215.97 72.576 L1208.52 72.576 L1208.52 27.2059 M1208.52 9.54393 L1215.97 9.54393 L1215.97 18.9825 L1208.52 18.9825 L1208.52 9.54393 Z" fill="#000000" fill-rule="nonzero" fill-opacity="1" /><path clip-path="url(#clip060)" d="M1238.94 14.324 L1238.94 27.2059 L1254.29 27.2059 L1254.29 32.9987 L1238.94 32.9987 L1238.94 57.6282 Q1238.94 63.1779 1240.44 64.7578 Q1241.98 66.3376 1246.63 66.3376 L1254.29 66.3376 L1254.29 72.576 L1246.63 72.576 Q1238.01 72.576 1234.73 69.3758 Q1231.44 66.1351 1231.44 57.6282 L1231.44 32.9987 L1225.98 32.9987 L1225.98 27.2059 L1231.44 27.2059 L1231.44 14.324 L1238.94 14.324 Z" fill="#000000" fill-rule="nonzero" fill-opacity="1" /><path clip-path="url(#clip060)" d="M1301.81 45.1919 L1301.81 72.576 L1294.35 72.576 L1294.35 45.4349 Q1294.35 38.994 1291.84 35.7938 Q1289.33 32.5936 1284.31 32.5936 Q1278.27 32.5936 1274.79 36.4419 Q1271.31 40.2903 1271.31 46.9338 L1271.31 72.576 L1263.81 72.576 L1263.81 9.54393 L1271.31 9.54393 L1271.31 34.2544 Q1273.98 30.163 1277.58 28.1376 Q1281.23 26.1121 1285.97 26.1121 Q1293.79 26.1121 1297.8 30.9732 Q1301.81 35.7938 1301.81 45.1919 Z" fill="#000000" fill-rule="nonzero" fill-opacity="1" /><path clip-path="url(#clip060)" d="M1351.55 18.8205 L1351.55 65.8515 L1361.44 65.8515 Q1373.95 65.8515 1379.75 60.1802 Q1385.58 54.509 1385.58 42.2752 Q1385.58 30.1225 1379.75 24.4918 Q1373.95 18.8205 1361.44 18.8205 L1351.55 18.8205 M1343.37 12.096 L1360.18 12.096 Q1377.76 12.096 1385.99 19.4281 Q1394.21 26.7198 1394.21 42.2752 Q1394.21 57.9117 1385.95 65.2439 Q1377.68 72.576 1360.18 72.576 L1343.37 72.576 L1343.37 12.096 Z" fill="#000000" fill-rule="nonzero" fill-opacity="1" /><path clip-path="url(#clip060)" d="M1445.74 48.0275 L1445.74 51.6733 L1411.47 51.6733 Q1411.95 59.3701 1416.08 63.421 Q1420.26 67.4314 1427.67 67.4314 Q1431.96 67.4314 1435.97 66.3781 Q1440.03 65.3249 1444 63.2184 L1444 70.267 Q1439.98 71.9684 1435.77 72.8596 Q1431.56 73.7508 1427.22 73.7508 Q1416.37 73.7508 1410.01 67.4314 Q1403.69 61.1119 1403.69 50.3365 Q1403.69 39.1965 1409.68 32.6746 Q1415.72 26.1121 1425.93 26.1121 Q1435.08 26.1121 1440.39 32.0264 Q1445.74 37.9003 1445.74 48.0275 M1438.28 45.84 Q1438.2 39.7232 1434.84 36.0774 Q1431.52 32.4315 1426.01 32.4315 Q1419.77 32.4315 1416 35.9558 Q1412.28 39.4801 1411.71 45.8805 L1438.28 45.84 Z" fill="#000000" fill-rule="nonzero" fill-opacity="1" /><path clip-path="url(#clip060)" d="M1493.29 35.9153 Q1496.09 30.8922 1499.98 28.5022 Q1503.87 26.1121 1509.13 26.1121 Q1516.22 26.1121 1520.07 31.0947 Q1523.92 36.0368 1523.92 45.1919 L1523.92 72.576 L1516.43 72.576 L1516.43 45.4349 Q1516.43 38.913 1514.12 35.7533 Q1511.81 32.5936 1507.07 32.5936 Q1501.27 32.5936 1497.91 36.4419 Q1494.55 40.2903 1494.55 46.9338 L1494.55 72.576 L1487.06 72.576 L1487.06 45.4349 Q1487.06 38.8725 1484.75 35.7533 Q1482.44 32.5936 1477.62 32.5936 Q1471.91 32.5936 1468.54 36.4824 Q1465.18 40.3308 1465.18 46.9338 L1465.18 72.576 L1457.69 72.576 L1457.69 27.2059 L1465.18 27.2059 L1465.18 34.2544 Q1467.73 30.082 1471.3 28.0971 Q1474.86 26.1121 1479.76 26.1121 Q1484.71 26.1121 1488.15 28.6237 Q1491.63 31.1352 1493.29 35.9153 Z" fill="#000000" fill-rule="nonzero" fill-opacity="1" /><path clip-path="url(#clip060)" d="M1556.37 32.4315 Q1550.37 32.4315 1546.89 37.1306 Q1543.4 41.7891 1543.4 49.9314 Q1543.4 58.0738 1546.85 62.7728 Q1550.33 67.4314 1556.37 67.4314 Q1562.32 67.4314 1565.81 62.7323 Q1569.29 58.0333 1569.29 49.9314 Q1569.29 41.8701 1565.81 37.1711 Q1562.32 32.4315 1556.37 32.4315 M1556.37 26.1121 Q1566.09 26.1121 1571.64 32.4315 Q1577.19 38.7509 1577.19 49.9314 Q1577.19 61.0714 1571.64 67.4314 Q1566.09 73.7508 1556.37 73.7508 Q1546.6 73.7508 1541.05 67.4314 Q1535.55 61.0714 1535.55 49.9314 Q1535.55 38.7509 1541.05 32.4315 Q1546.6 26.1121 1556.37 26.1121 Z" fill="#000000" fill-rule="nonzero" fill-opacity="1" /><path clip-path="url(#clip060)" d="M1619.4 49.3643 Q1619.4 41.2625 1616.04 36.8065 Q1612.72 32.3505 1606.68 32.3505 Q1600.68 32.3505 1597.32 36.8065 Q1594 41.2625 1594 49.3643 Q1594 57.4256 1597.32 61.8816 Q1600.68 66.3376 1606.68 66.3376 Q1612.72 66.3376 1616.04 61.8816 Q1619.4 57.4256 1619.4 49.3643 M1626.85 66.9452 Q1626.85 78.5308 1621.71 84.1616 Q1616.56 89.8329 1605.95 89.8329 Q1602.02 89.8329 1598.54 89.2252 Q1595.05 88.6581 1591.77 87.4428 L1591.77 80.1917 Q1595.05 81.9741 1598.25 82.8248 Q1601.45 83.6755 1604.78 83.6755 Q1612.11 83.6755 1615.75 79.8271 Q1619.4 76.0193 1619.4 68.282 L1619.4 64.5957 Q1617.09 68.6061 1613.48 70.5911 Q1609.88 72.576 1604.86 72.576 Q1596.51 72.576 1591.41 66.2161 Q1586.3 59.8562 1586.3 49.3643 Q1586.3 38.832 1591.41 32.472 Q1596.51 26.1121 1604.86 26.1121 Q1609.88 26.1121 1613.48 28.0971 Q1617.09 30.082 1619.4 34.0924 L1619.4 27.2059 L1626.85 27.2059 L1626.85 66.9452 Z" fill="#000000" fill-rule="nonzero" fill-opacity="1" /><path clip-path="url(#clip060)" d="M1668.5 34.1734 Q1667.24 33.4443 1665.74 33.1202 Q1664.28 32.7556 1662.5 32.7556 Q1656.18 32.7556 1652.78 36.8875 Q1649.42 40.9789 1649.42 48.6757 L1649.42 72.576 L1641.92 72.576 L1641.92 27.2059 L1649.42 27.2059 L1649.42 34.2544 Q1651.77 30.1225 1655.53 28.1376 Q1659.3 26.1121 1664.69 26.1121 Q1665.46 26.1121 1666.39 26.2337 Q1667.32 26.3147 1668.46 26.5172 L1668.5 34.1734 Z" fill="#000000" fill-rule="nonzero" fill-opacity="1" /><path clip-path="url(#clip060)" d="M1696.93 49.7694 Q1687.9 49.7694 1684.42 51.8354 Q1680.93 53.9013 1680.93 58.8839 Q1680.93 62.8538 1683.53 65.2034 Q1686.16 67.5124 1690.65 67.5124 Q1696.85 67.5124 1700.58 63.1374 Q1704.35 58.7219 1704.35 51.4303 L1704.35 49.7694 L1696.93 49.7694 M1711.8 46.6907 L1711.8 72.576 L1704.35 72.576 L1704.35 65.6895 Q1701.79 69.8214 1697.99 71.8063 Q1694.18 73.7508 1688.67 73.7508 Q1681.7 73.7508 1677.57 69.8619 Q1673.48 65.9325 1673.48 59.3701 Q1673.48 51.7138 1678.58 47.825 Q1683.73 43.9361 1693.9 43.9361 L1704.35 43.9361 L1704.35 43.2069 Q1704.35 38.0623 1700.94 35.2672 Q1697.58 32.4315 1691.46 32.4315 Q1687.58 32.4315 1683.89 33.3632 Q1680.2 34.295 1676.8 36.1584 L1676.8 29.2718 Q1680.89 27.692 1684.74 26.9223 Q1688.59 26.1121 1692.23 26.1121 Q1702.08 26.1121 1706.94 31.2163 Q1711.8 36.3204 1711.8 46.6907 Z" fill="#000000" fill-rule="nonzero" fill-opacity="1" /><path clip-path="url(#clip060)" d="M1734.36 65.7705 L1734.36 89.8329 L1726.87 89.8329 L1726.87 27.2059 L1734.36 27.2059 L1734.36 34.0924 Q1736.71 30.0415 1740.28 28.0971 Q1743.88 26.1121 1748.87 26.1121 Q1757.13 26.1121 1762.27 32.6746 Q1767.46 39.2371 1767.46 49.9314 Q1767.46 60.6258 1762.27 67.1883 Q1757.13 73.7508 1748.87 73.7508 Q1743.88 73.7508 1740.28 71.8063 Q1736.71 69.8214 1734.36 65.7705 M1759.72 49.9314 Q1759.72 41.7081 1756.32 37.0496 Q1752.96 32.3505 1747.04 32.3505 Q1741.13 32.3505 1737.73 37.0496 Q1734.36 41.7081 1734.36 49.9314 Q1734.36 58.1548 1737.73 62.8538 Q1741.13 67.5124 1747.04 67.5124 Q1752.96 67.5124 1756.32 62.8538 Q1759.72 58.1548 1759.72 49.9314 Z" fill="#000000" fill-rule="nonzero" fill-opacity="1" /><path clip-path="url(#clip060)" d="M1817.53 45.1919 L1817.53 72.576 L1810.08 72.576 L1810.08 45.4349 Q1810.08 38.994 1807.56 35.7938 Q1805.05 32.5936 1800.03 32.5936 Q1793.99 32.5936 1790.51 36.4419 Q1787.03 40.2903 1787.03 46.9338 L1787.03 72.576 L1779.53 72.576 L1779.53 9.54393 L1787.03 9.54393 L1787.03 34.2544 Q1789.7 30.163 1793.3 28.1376 Q1796.95 26.1121 1801.69 26.1121 Q1809.51 26.1121 1813.52 30.9732 Q1817.53 35.7938 1817.53 45.1919 Z" fill="#000000" fill-rule="nonzero" fill-opacity="1" /><path clip-path="url(#clip060)" d="M1832.4 27.2059 L1839.85 27.2059 L1839.85 72.576 L1832.4 72.576 L1832.4 27.2059 M1832.4 9.54393 L1839.85 9.54393 L1839.85 18.9825 L1832.4 18.9825 L1832.4 9.54393 Z" fill="#000000" fill-rule="nonzero" fill-opacity="1" /><path clip-path="url(#clip060)" d="M1888.1 28.9478 L1888.1 35.9153 Q1884.94 34.1734 1881.74 33.3227 Q1878.58 32.4315 1875.34 32.4315 Q1868.08 32.4315 1864.07 37.0496 Q1860.06 41.6271 1860.06 49.9314 Q1860.06 58.2358 1864.07 62.8538 Q1868.08 67.4314 1875.34 67.4314 Q1878.58 67.4314 1881.74 66.5807 Q1884.94 65.6895 1888.1 63.9476 L1888.1 70.8341 Q1884.98 72.2924 1881.61 73.0216 Q1878.29 73.7508 1874.53 73.7508 Q1864.28 73.7508 1858.24 67.3098 Q1852.2 60.8689 1852.2 49.9314 Q1852.2 38.832 1858.28 32.472 Q1864.4 26.1121 1875.01 26.1121 Q1878.45 26.1121 1881.74 26.8413 Q1885.02 27.5299 1888.1 28.9478 Z" fill="#000000" fill-rule="nonzero" fill-opacity="1" /><path clip-path="url(#clip060)" d="M1929.98 28.5427 L1929.98 35.5912 Q1926.82 33.9709 1923.42 33.1607 Q1920.02 32.3505 1916.37 32.3505 Q1910.82 32.3505 1908.03 34.0519 Q1905.27 35.7533 1905.27 39.156 Q1905.27 41.7486 1907.26 43.2475 Q1909.24 44.7058 1915.24 46.0426 L1917.79 46.6097 Q1925.73 48.3111 1929.05 51.4303 Q1932.41 54.509 1932.41 60.0587 Q1932.41 66.3781 1927.39 70.0644 Q1922.41 73.7508 1913.66 73.7508 Q1910.01 73.7508 1906.04 73.0216 Q1902.11 72.3329 1897.74 70.9151 L1897.74 63.2184 Q1901.87 65.3654 1905.88 66.4591 Q1909.89 67.5124 1913.82 67.5124 Q1919.09 67.5124 1921.92 65.73 Q1924.76 63.9071 1924.76 60.6258 Q1924.76 57.5877 1922.69 55.9673 Q1920.66 54.3469 1913.74 52.8481 L1911.15 52.2405 Q1904.22 50.7821 1901.14 47.7845 Q1898.06 44.7463 1898.06 39.4801 Q1898.06 33.0797 1902.6 29.5959 Q1907.13 26.1121 1915.48 26.1121 Q1919.61 26.1121 1923.26 26.7198 Q1926.9 27.3274 1929.98 28.5427 Z" fill="#000000" fill-rule="nonzero" fill-opacity="1" /><polyline clip-path="url(#clip061)" style="stroke:#0000ff; stroke-linecap:round; stroke-linejoin:round; stroke-width:8; stroke-opacity:1; fill:none" points="335.956,456.228 391.897,452.505 447.839,450.023 503.781,448.782 559.723,451.264 615.664,458.71 671.606,467.398 727.548,481.051 783.49,497.185 839.431,513.32 895.373,528.213 951.315,535.66 1007.26,554.276 1063.2,569.17 1119.14,584.063 1175.08,611.368 1231.02,639.913 1286.97,664.735 1342.91,687.076 1398.85,713.139 1454.79,732.997 1510.73,759.06 1566.67,787.606 1622.62,808.705 1678.56,811.187 1734.5,826.08 1790.44,837.25 1846.38,844.697 1902.32,855.867 1958.27,870.761 2014.21,880.689 2070.15,881.931 2126.09,904.271 2182.03,911.717 2237.98,912.958 2293.92,924.128 2349.86,931.575 2405.8,929.093 2461.74,930.334 2517.68,929.093 2573.63,912.958 "/>
<polyline clip-path="url(#clip061)" style="stroke:#ff0000; stroke-linecap:round; stroke-linejoin:round; stroke-width:8; stroke-opacity:1; fill:none" points="335.956,1672.52 391.897,1675 447.839,1672.52 503.781,1667.56 559.723,1660.11 615.664,1651.42 671.606,1640.25 727.548,1630.32 783.49,1624.12 839.431,1619.15 895.373,1612.95 951.315,1620.39 1007.26,1610.46 1063.2,1593.09 1119.14,1591.85 1175.08,1571.99 1231.02,1553.37 1286.97,1540.96 1342.91,1532.27 1398.85,1536 1454.79,1543.44 1510.73,1533.52 1566.67,1533.52 1622.62,1533.52 1678.56,1555.86 1734.5,1567.03 1790.44,1573.23 1846.38,1574.47 1902.32,1569.51 1958.27,1558.34 2014.21,1560.82 2070.15,1570.75 2126.09,1578.2 2182.03,1581.92 2237.98,1590.61 2293.92,1588.12 2349.86,1581.92 2405.8,1589.37 2461.74,1606.74 2517.68,1610.46 2573.63,1621.63 "/>
<polyline clip-path="url(#clip061)" style="stroke:#008000; stroke-linecap:round; stroke-linejoin:round; stroke-width:8; stroke-opacity:1; fill:none" points="335.956,1688.65 391.897,1681.21 447.839,1677.48 503.781,1676.24 559.723,1675 615.664,1670.04 671.606,1666.31 727.548,1660.11 783.49,1647.7 839.431,1632.8 895.373,1617.91 951.315,1595.57 1007.26,1581.92 1063.2,1574.47 1119.14,1555.86 1175.08,1540.96 1231.02,1523.59 1286.97,1502.49 1342.91,1477.67 1398.85,1435.47 1454.79,1408.16 1510.73,1389.55 1566.67,1358.52 1622.62,1338.66 1678.56,1306.39 1734.5,1270.4 1790.44,1245.58 1846.38,1225.72 1902.32,1217.03 1958.27,1205.86 2014.21,1189.73 2070.15,1163.66 2126.09,1138.84 2182.03,1127.67 2237.98,1116.5 2293.92,1100.37 2349.86,1094.16 2405.8,1079.27 2461.74,1053.2 2517.68,1040.79 2573.63,1029.62 "/>
<polyline clip-path="url(#clip061)" style="stroke:#000000; stroke-linecap:round; stroke-linejoin:round; stroke-width:8; stroke-opacity:1; fill:none" stroke-dasharray="32, 20" points="335.956,422.718 391.897,415.271 447.839,406.584 503.781,397.896 559.723,390.449 615.664,384.244 671.606,376.797 727.548,370.591 783.49,368.109 839.431,365.627 895.373,361.904 951.315,355.698 1007.26,348.251 1063.2,343.287 1119.14,333.358 1175.08,328.393 1231.02,320.947 1286.97,312.259 1342.91,303.571 1398.85,292.401 1454.79,279.99 1510.73,279.99 1566.67,277.508 1622.62,275.026 1678.56,276.267 1734.5,268.82 1790.44,258.891 1846.38,251.444 1902.32,239.033 1958.27,236.551 2014.21,229.104 2070.15,225.381 2126.09,210.488 2182.03,215.452 2237.98,215.452 2293.92,214.211 2349.86,206.764 2405.8,201.8 2461.74,191.871 2517.68,183.183 2573.63,173.254 "/>
<path clip-path="url(#clip060)" d="M347.89 440.536 L853.785 440.536 L853.785 181.336 L347.89 181.336  Z" fill="#ffffff" fill-rule="evenodd" fill-opacity="1"/>
<polyline clip-path="url(#clip060)" style="stroke:#000000; stroke-linecap:round; stroke-linejoin:round; stroke-width:4; stroke-opacity:1; fill:none" points="347.89,440.536 853.785,440.536 853.785,181.336 347.89,181.336 347.89,440.536 "/>
<polyline clip-path="url(#clip060)" style="stroke:#0000ff; stroke-linecap:round; stroke-linejoin:round; stroke-width:8; stroke-opacity:1; fill:none" points="374.245,233.176 532.373,233.176 "/>
<path clip-path="url(#clip060)" d="M580.973 217.031 L580.973 221.591 Q578.311 220.318 575.95 219.693 Q573.589 219.068 571.39 219.068 Q567.571 219.068 565.487 220.549 Q563.427 222.031 563.427 224.762 Q563.427 227.054 564.793 228.234 Q566.182 229.392 570.024 230.109 L572.848 230.688 Q578.08 231.683 580.557 234.206 Q583.057 236.706 583.057 240.919 Q583.057 245.942 579.677 248.535 Q576.321 251.128 569.816 251.128 Q567.362 251.128 564.585 250.572 Q561.83 250.016 558.867 248.929 L558.867 244.114 Q561.714 245.711 564.446 246.521 Q567.177 247.331 569.816 247.331 Q573.821 247.331 575.997 245.757 Q578.172 244.183 578.172 241.267 Q578.172 238.72 576.598 237.285 Q575.047 235.85 571.483 235.132 L568.635 234.577 Q563.404 233.535 561.066 231.313 Q558.728 229.091 558.728 225.132 Q558.728 220.549 561.946 217.91 Q565.186 215.271 570.858 215.271 Q573.288 215.271 575.811 215.711 Q578.334 216.151 580.973 217.031 Z" fill="#000000" fill-rule="nonzero" fill-opacity="1" /><path clip-path="url(#clip060)" d="M589.723 240.225 L589.723 224.531 L593.983 224.531 L593.983 240.063 Q593.983 243.743 595.418 245.595 Q596.853 247.424 599.723 247.424 Q603.172 247.424 605.163 245.225 Q607.177 243.026 607.177 239.229 L607.177 224.531 L611.436 224.531 L611.436 250.456 L607.177 250.456 L607.177 246.475 Q605.626 248.836 603.566 249.993 Q601.529 251.128 598.82 251.128 Q594.353 251.128 592.038 248.35 Q589.723 245.572 589.723 240.225 M600.441 223.906 L600.441 223.906 Z" fill="#000000" fill-rule="nonzero" fill-opacity="1" /><path clip-path="url(#clip060)" d="M636.737 225.294 L636.737 229.322 Q634.931 228.396 632.987 227.933 Q631.043 227.47 628.959 227.47 Q625.788 227.47 624.191 228.443 Q622.617 229.415 622.617 231.359 Q622.617 232.841 623.751 233.697 Q624.885 234.53 628.311 235.294 L629.769 235.618 Q634.306 236.591 636.205 238.373 Q638.126 240.132 638.126 243.304 Q638.126 246.915 635.255 249.021 Q632.408 251.128 627.408 251.128 Q625.325 251.128 623.056 250.711 Q620.811 250.317 618.311 249.507 L618.311 245.109 Q620.672 246.336 622.964 246.961 Q625.256 247.563 627.501 247.563 Q630.51 247.563 632.13 246.544 Q633.751 245.503 633.751 243.628 Q633.751 241.892 632.57 240.966 Q631.413 240.04 627.455 239.183 L625.973 238.836 Q622.015 238.003 620.256 236.29 Q618.496 234.554 618.496 231.544 Q618.496 227.887 621.089 225.896 Q623.681 223.906 628.45 223.906 Q630.811 223.906 632.894 224.253 Q634.978 224.6 636.737 225.294 Z" fill="#000000" fill-rule="nonzero" fill-opacity="1" /><path clip-path="url(#clip060)" d="M663.566 225.526 L663.566 229.507 Q661.76 228.512 659.931 228.026 Q658.126 227.517 656.274 227.517 Q652.13 227.517 649.839 230.155 Q647.547 232.771 647.547 237.517 Q647.547 242.262 649.839 244.901 Q652.13 247.516 656.274 247.516 Q658.126 247.516 659.931 247.03 Q661.76 246.521 663.566 245.526 L663.566 249.461 Q661.783 250.294 659.862 250.711 Q657.964 251.128 655.811 251.128 Q649.954 251.128 646.505 247.447 Q643.056 243.767 643.056 237.517 Q643.056 231.174 646.529 227.54 Q650.024 223.906 656.089 223.906 Q658.056 223.906 659.931 224.322 Q661.806 224.716 663.566 225.526 Z" fill="#000000" fill-rule="nonzero" fill-opacity="1" /><path clip-path="url(#clip060)" d="M693.149 236.429 L693.149 238.512 L673.565 238.512 Q673.843 242.91 676.204 245.225 Q678.589 247.516 682.825 247.516 Q685.278 247.516 687.57 246.915 Q689.885 246.313 692.153 245.109 L692.153 249.137 Q689.862 250.109 687.454 250.618 Q685.047 251.128 682.57 251.128 Q676.366 251.128 672.732 247.516 Q669.121 243.905 669.121 237.748 Q669.121 231.382 672.547 227.655 Q675.996 223.906 681.829 223.906 Q687.061 223.906 690.093 227.285 Q693.149 230.642 693.149 236.429 M688.889 235.179 Q688.843 231.683 686.922 229.6 Q685.024 227.517 681.876 227.517 Q678.311 227.517 676.158 229.53 Q674.028 231.544 673.704 235.202 L688.889 235.179 Z" fill="#000000" fill-rule="nonzero" fill-opacity="1" /><path clip-path="url(#clip060)" d="M704.26 246.567 L704.26 260.317 L699.977 260.317 L699.977 224.531 L704.26 224.531 L704.26 228.466 Q705.602 226.151 707.639 225.04 Q709.7 223.906 712.547 223.906 Q717.269 223.906 720.209 227.655 Q723.172 231.405 723.172 237.517 Q723.172 243.628 720.209 247.378 Q717.269 251.128 712.547 251.128 Q709.7 251.128 707.639 250.016 Q705.602 248.882 704.26 246.567 M718.75 237.517 Q718.75 232.817 716.806 230.155 Q714.885 227.47 711.505 227.47 Q708.125 227.47 706.181 230.155 Q704.26 232.817 704.26 237.517 Q704.26 242.216 706.181 244.901 Q708.125 247.563 711.505 247.563 Q714.885 247.563 716.806 244.901 Q718.75 242.216 718.75 237.517 Z" fill="#000000" fill-rule="nonzero" fill-opacity="1" /><path clip-path="url(#clip060)" d="M734.445 217.169 L734.445 224.531 L743.218 224.531 L743.218 227.841 L734.445 227.841 L734.445 241.915 Q734.445 245.086 735.301 245.989 Q736.181 246.891 738.843 246.891 L743.218 246.891 L743.218 250.456 L738.843 250.456 Q733.912 250.456 732.037 248.628 Q730.162 246.776 730.162 241.915 L730.162 227.841 L727.037 227.841 L727.037 224.531 L730.162 224.531 L730.162 217.169 L734.445 217.169 Z" fill="#000000" fill-rule="nonzero" fill-opacity="1" /><path clip-path="url(#clip060)" d="M748.82 224.531 L753.079 224.531 L753.079 250.456 L748.82 250.456 L748.82 224.531 M748.82 214.438 L753.079 214.438 L753.079 219.831 L748.82 219.831 L748.82 214.438 Z" fill="#000000" fill-rule="nonzero" fill-opacity="1" /><path clip-path="url(#clip060)" d="M780.602 237.517 Q780.602 232.817 778.657 230.155 Q776.736 227.47 773.357 227.47 Q769.977 227.47 768.033 230.155 Q766.111 232.817 766.111 237.517 Q766.111 242.216 768.033 244.901 Q769.977 247.563 773.357 247.563 Q776.736 247.563 778.657 244.901 Q780.602 242.216 780.602 237.517 M766.111 228.466 Q767.454 226.151 769.491 225.04 Q771.551 223.906 774.398 223.906 Q779.12 223.906 782.06 227.655 Q785.023 231.405 785.023 237.517 Q785.023 243.628 782.06 247.378 Q779.12 251.128 774.398 251.128 Q771.551 251.128 769.491 250.016 Q767.454 248.882 766.111 246.567 L766.111 250.456 L761.829 250.456 L761.829 214.438 L766.111 214.438 L766.111 228.466 Z" fill="#000000" fill-rule="nonzero" fill-opacity="1" /><path clip-path="url(#clip060)" d="M792.083 214.438 L796.343 214.438 L796.343 250.456 L792.083 250.456 L792.083 214.438 Z" fill="#000000" fill-rule="nonzero" fill-opacity="1" /><path clip-path="url(#clip060)" d="M827.43 236.429 L827.43 238.512 L807.847 238.512 Q808.125 242.91 810.486 245.225 Q812.87 247.516 817.106 247.516 Q819.56 247.516 821.852 246.915 Q824.167 246.313 826.435 245.109 L826.435 249.137 Q824.143 250.109 821.736 250.618 Q819.329 251.128 816.852 251.128 Q810.648 251.128 807.014 247.516 Q803.403 243.905 803.403 237.748 Q803.403 231.382 806.829 227.655 Q810.278 223.906 816.111 223.906 Q821.342 223.906 824.375 227.285 Q827.43 230.642 827.43 236.429 M823.171 235.179 Q823.125 231.683 821.204 229.6 Q819.305 227.517 816.157 227.517 Q812.592 227.517 810.44 229.53 Q808.31 231.544 807.986 235.202 L823.171 235.179 Z" fill="#000000" fill-rule="nonzero" fill-opacity="1" /><polyline clip-path="url(#clip060)" style="stroke:#ff0000; stroke-linecap:round; stroke-linejoin:round; stroke-width:8; stroke-opacity:1; fill:none" points="374.245,285.016 532.373,285.016 "/>
<path clip-path="url(#clip060)" d="M558.728 267.736 L563.404 267.736 L563.404 302.296 L558.728 302.296 L558.728 267.736 Z" fill="#000000" fill-rule="nonzero" fill-opacity="1" /><path clip-path="url(#clip060)" d="M594.075 286.648 L594.075 302.296 L589.816 302.296 L589.816 286.787 Q589.816 283.107 588.381 281.278 Q586.946 279.449 584.075 279.449 Q580.626 279.449 578.635 281.648 Q576.645 283.847 576.645 287.644 L576.645 302.296 L572.362 302.296 L572.362 276.371 L576.645 276.371 L576.645 280.398 Q578.172 278.06 580.233 276.903 Q582.316 275.746 585.024 275.746 Q589.492 275.746 591.783 278.523 Q594.075 281.278 594.075 286.648 Z" fill="#000000" fill-rule="nonzero" fill-opacity="1" /><path clip-path="url(#clip060)" d="M615.695 266.278 L615.695 269.82 L611.621 269.82 Q609.33 269.82 608.427 270.746 Q607.547 271.671 607.547 274.079 L607.547 276.371 L614.561 276.371 L614.561 279.681 L607.547 279.681 L607.547 302.296 L603.265 302.296 L603.265 279.681 L599.191 279.681 L599.191 276.371 L603.265 276.371 L603.265 274.565 Q603.265 270.236 605.279 268.269 Q607.293 266.278 611.668 266.278 L615.695 266.278 Z" fill="#000000" fill-rule="nonzero" fill-opacity="1" /><path clip-path="url(#clip060)" d="M641.436 288.269 L641.436 290.352 L621.853 290.352 Q622.131 294.75 624.492 297.065 Q626.876 299.356 631.112 299.356 Q633.566 299.356 635.857 298.755 Q638.172 298.153 640.441 296.949 L640.441 300.977 Q638.149 301.949 635.742 302.458 Q633.334 302.968 630.857 302.968 Q624.654 302.968 621.019 299.356 Q617.408 295.745 617.408 289.588 Q617.408 283.222 620.834 279.495 Q624.283 275.746 630.117 275.746 Q635.348 275.746 638.38 279.125 Q641.436 282.482 641.436 288.269 M637.177 287.019 Q637.13 283.523 635.209 281.44 Q633.311 279.357 630.163 279.357 Q626.598 279.357 624.445 281.37 Q622.316 283.384 621.992 287.042 L637.177 287.019 Z" fill="#000000" fill-rule="nonzero" fill-opacity="1" /><path clip-path="url(#clip060)" d="M667.084 277.366 L667.084 281.347 Q665.278 280.352 663.45 279.866 Q661.644 279.357 659.792 279.357 Q655.649 279.357 653.357 281.995 Q651.066 284.611 651.066 289.357 Q651.066 294.102 653.357 296.741 Q655.649 299.356 659.792 299.356 Q661.644 299.356 663.45 298.87 Q665.278 298.361 667.084 297.366 L667.084 301.301 Q665.302 302.134 663.38 302.551 Q661.482 302.968 659.329 302.968 Q653.473 302.968 650.024 299.287 Q646.575 295.607 646.575 289.357 Q646.575 283.014 650.047 279.38 Q653.542 275.746 659.607 275.746 Q661.575 275.746 663.45 276.162 Q665.325 276.556 667.084 277.366 Z" fill="#000000" fill-rule="nonzero" fill-opacity="1" /><path clip-path="url(#clip060)" d="M678.704 269.009 L678.704 276.371 L687.477 276.371 L687.477 279.681 L678.704 279.681 L678.704 293.755 Q678.704 296.926 679.561 297.829 Q680.44 298.731 683.102 298.731 L687.477 298.731 L687.477 302.296 L683.102 302.296 Q678.172 302.296 676.297 300.468 Q674.422 298.616 674.422 293.755 L674.422 279.681 L671.297 279.681 L671.297 276.371 L674.422 276.371 L674.422 269.009 L678.704 269.009 Z" fill="#000000" fill-rule="nonzero" fill-opacity="1" /><path clip-path="url(#clip060)" d="M715.255 288.269 L715.255 290.352 L695.672 290.352 Q695.95 294.75 698.311 297.065 Q700.695 299.356 704.931 299.356 Q707.385 299.356 709.676 298.755 Q711.991 298.153 714.26 296.949 L714.26 300.977 Q711.968 301.949 709.561 302.458 Q707.153 302.968 704.676 302.968 Q698.473 302.968 694.838 299.356 Q691.227 295.745 691.227 289.588 Q691.227 283.222 694.653 279.495 Q698.102 275.746 703.936 275.746 Q709.167 275.746 712.2 279.125 Q715.255 282.482 715.255 288.269 M710.996 287.019 Q710.95 283.523 709.028 281.44 Q707.13 279.357 703.982 279.357 Q700.417 279.357 698.264 281.37 Q696.135 283.384 695.811 287.042 L710.996 287.019 Z" fill="#000000" fill-rule="nonzero" fill-opacity="1" /><path clip-path="url(#clip060)" d="M739.306 280.306 L739.306 266.278 L743.565 266.278 L743.565 302.296 L739.306 302.296 L739.306 298.407 Q737.963 300.722 735.903 301.856 Q733.866 302.968 730.996 302.968 Q726.297 302.968 723.334 299.218 Q720.394 295.468 720.394 289.357 Q720.394 283.245 723.334 279.495 Q726.297 275.746 730.996 275.746 Q733.866 275.746 735.903 276.88 Q737.963 277.991 739.306 280.306 M724.792 289.357 Q724.792 294.056 726.713 296.741 Q728.658 299.403 732.037 299.403 Q735.417 299.403 737.361 296.741 Q739.306 294.056 739.306 289.357 Q739.306 284.657 737.361 281.995 Q735.417 279.31 732.037 279.31 Q728.658 279.31 726.713 281.995 Q724.792 284.657 724.792 289.357 Z" fill="#000000" fill-rule="nonzero" fill-opacity="1" /><polyline clip-path="url(#clip060)" style="stroke:#008000; stroke-linecap:round; stroke-linejoin:round; stroke-width:8; stroke-opacity:1; fill:none" points="374.245,336.856 532.373,336.856 "/>
<path clip-path="url(#clip060)" d="M575.117 337.933 Q576.622 338.442 578.034 340.109 Q579.469 341.775 580.904 344.692 L585.649 354.136 L580.626 354.136 L576.205 345.271 Q574.492 341.798 572.872 340.664 Q571.274 339.53 568.497 339.53 L563.404 339.53 L563.404 354.136 L558.728 354.136 L558.728 319.576 L569.284 319.576 Q575.21 319.576 578.126 322.053 Q581.043 324.53 581.043 329.53 Q581.043 332.794 579.515 334.947 Q578.01 337.099 575.117 337.933 M563.404 323.419 L563.404 335.687 L569.284 335.687 Q572.663 335.687 574.376 334.136 Q576.112 332.562 576.112 329.53 Q576.112 326.498 574.376 324.97 Q572.663 323.419 569.284 323.419 L563.404 323.419 Z" fill="#000000" fill-rule="nonzero" fill-opacity="1" /><path clip-path="url(#clip060)" d="M611.529 340.109 L611.529 342.192 L591.946 342.192 Q592.223 346.59 594.584 348.905 Q596.969 351.196 601.205 351.196 Q603.658 351.196 605.95 350.595 Q608.265 349.993 610.533 348.789 L610.533 352.817 Q608.242 353.789 605.834 354.298 Q603.427 354.808 600.95 354.808 Q594.746 354.808 591.112 351.196 Q587.501 347.585 587.501 341.428 Q587.501 335.062 590.927 331.335 Q594.376 327.586 600.209 327.586 Q605.441 327.586 608.473 330.965 Q611.529 334.322 611.529 340.109 M607.27 338.859 Q607.223 335.363 605.302 333.28 Q603.404 331.197 600.256 331.197 Q596.691 331.197 594.538 333.21 Q592.408 335.224 592.084 338.882 L607.27 338.859 Z" fill="#000000" fill-rule="nonzero" fill-opacity="1" /><path clip-path="url(#clip060)" d="M637.177 329.206 L637.177 333.187 Q635.371 332.192 633.543 331.706 Q631.737 331.197 629.885 331.197 Q625.742 331.197 623.45 333.835 Q621.158 336.451 621.158 341.197 Q621.158 345.942 623.45 348.581 Q625.742 351.196 629.885 351.196 Q631.737 351.196 633.543 350.71 Q635.371 350.201 637.177 349.206 L637.177 353.141 Q635.394 353.974 633.473 354.391 Q631.575 354.808 629.422 354.808 Q623.566 354.808 620.117 351.127 Q616.668 347.447 616.668 341.197 Q616.668 334.854 620.14 331.22 Q623.635 327.586 629.7 327.586 Q631.668 327.586 633.543 328.002 Q635.418 328.396 637.177 329.206 Z" fill="#000000" fill-rule="nonzero" fill-opacity="1" /><path clip-path="url(#clip060)" d="M654.63 331.197 Q651.204 331.197 649.214 333.882 Q647.223 336.544 647.223 341.197 Q647.223 345.849 649.191 348.534 Q651.181 351.196 654.63 351.196 Q658.033 351.196 660.024 348.511 Q662.015 345.826 662.015 341.197 Q662.015 336.59 660.024 333.905 Q658.033 331.197 654.63 331.197 M654.63 327.586 Q660.186 327.586 663.357 331.197 Q666.528 334.808 666.528 341.197 Q666.528 347.562 663.357 351.196 Q660.186 354.808 654.63 354.808 Q649.052 354.808 645.88 351.196 Q642.732 347.562 642.732 341.197 Q642.732 334.808 645.88 331.197 Q649.052 327.586 654.63 327.586 Z" fill="#000000" fill-rule="nonzero" fill-opacity="1" /><path clip-path="url(#clip060)" d="M670.533 328.211 L675.047 328.211 L683.149 349.97 L691.251 328.211 L695.764 328.211 L686.042 354.136 L680.255 354.136 L670.533 328.211 Z" fill="#000000" fill-rule="nonzero" fill-opacity="1" /><path clip-path="url(#clip060)" d="M723.82 340.109 L723.82 342.192 L704.237 342.192 Q704.514 346.59 706.875 348.905 Q709.26 351.196 713.496 351.196 Q715.949 351.196 718.241 350.595 Q720.556 349.993 722.824 348.789 L722.824 352.817 Q720.533 353.789 718.125 354.298 Q715.718 354.808 713.241 354.808 Q707.038 354.808 703.403 351.196 Q699.792 347.585 699.792 341.428 Q699.792 335.062 703.218 331.335 Q706.667 327.586 712.5 327.586 Q717.732 327.586 720.764 330.965 Q723.82 334.322 723.82 340.109 M719.561 338.859 Q719.514 335.363 717.593 333.28 Q715.695 331.197 712.547 331.197 Q708.982 331.197 706.829 333.21 Q704.7 335.224 704.375 338.882 L719.561 338.859 Z" fill="#000000" fill-rule="nonzero" fill-opacity="1" /><path clip-path="url(#clip060)" d="M745.834 332.192 Q745.116 331.775 744.26 331.59 Q743.426 331.382 742.408 331.382 Q738.797 331.382 736.852 333.743 Q734.931 336.081 734.931 340.479 L734.931 354.136 L730.648 354.136 L730.648 328.211 L734.931 328.211 L734.931 332.238 Q736.273 329.877 738.426 328.743 Q740.579 327.586 743.658 327.586 Q744.097 327.586 744.63 327.655 Q745.162 327.701 745.81 327.817 L745.834 332.192 Z" fill="#000000" fill-rule="nonzero" fill-opacity="1" /><path clip-path="url(#clip060)" d="M771.435 340.109 L771.435 342.192 L751.852 342.192 Q752.13 346.59 754.491 348.905 Q756.875 351.196 761.111 351.196 Q763.565 351.196 765.857 350.595 Q768.171 349.993 770.44 348.789 L770.44 352.817 Q768.148 353.789 765.741 354.298 Q763.333 354.808 760.857 354.808 Q754.653 354.808 751.019 351.196 Q747.408 347.585 747.408 341.428 Q747.408 335.062 750.834 331.335 Q754.283 327.586 760.116 327.586 Q765.347 327.586 768.38 330.965 Q771.435 334.322 771.435 340.109 M767.176 338.859 Q767.13 335.363 765.208 333.28 Q763.31 331.197 760.162 331.197 Q756.597 331.197 754.445 333.21 Q752.315 335.224 751.991 338.882 L767.176 338.859 Z" fill="#000000" fill-rule="nonzero" fill-opacity="1" /><path clip-path="url(#clip060)" d="M795.486 332.146 L795.486 318.118 L799.745 318.118 L799.745 354.136 L795.486 354.136 L795.486 350.247 Q794.144 352.562 792.083 353.696 Q790.046 354.808 787.176 354.808 Q782.477 354.808 779.514 351.058 Q776.574 347.308 776.574 341.197 Q776.574 335.085 779.514 331.335 Q782.477 327.586 787.176 327.586 Q790.046 327.586 792.083 328.72 Q794.144 329.831 795.486 332.146 M780.972 341.197 Q780.972 345.896 782.894 348.581 Q784.838 351.243 788.218 351.243 Q791.597 351.243 793.542 348.581 Q795.486 345.896 795.486 341.197 Q795.486 336.497 793.542 333.835 Q791.597 331.15 788.218 331.15 Q784.838 331.15 782.894 333.835 Q780.972 336.497 780.972 341.197 Z" fill="#000000" fill-rule="nonzero" fill-opacity="1" /><polyline clip-path="url(#clip060)" style="stroke:#000000; stroke-linecap:round; stroke-linejoin:round; stroke-width:8; stroke-opacity:1; fill:none" stroke-dasharray="32, 20" points="374.245,388.696 532.373,388.696 "/>
<path clip-path="url(#clip060)" d="M558.728 371.416 L587.964 371.416 L587.964 375.351 L575.696 375.351 L575.696 405.976 L570.997 405.976 L570.997 375.351 L558.728 375.351 L558.728 371.416 Z" fill="#000000" fill-rule="nonzero" fill-opacity="1" /><path clip-path="url(#clip060)" d="M594.283 383.037 Q590.858 383.037 588.867 385.722 Q586.876 388.384 586.876 393.037 Q586.876 397.689 588.844 400.374 Q590.834 403.036 594.283 403.036 Q597.686 403.036 599.677 400.351 Q601.668 397.666 601.668 393.037 Q601.668 388.43 599.677 385.745 Q597.686 383.037 594.283 383.037 M594.283 379.426 Q599.839 379.426 603.01 383.037 Q606.182 386.648 606.182 393.037 Q606.182 399.402 603.01 403.036 Q599.839 406.648 594.283 406.648 Q588.705 406.648 585.534 403.036 Q582.385 399.402 582.385 393.037 Q582.385 386.648 585.534 383.037 Q588.705 379.426 594.283 379.426 Z" fill="#000000" fill-rule="nonzero" fill-opacity="1" /><path clip-path="url(#clip060)" d="M617.455 372.689 L617.455 380.051 L626.228 380.051 L626.228 383.361 L617.455 383.361 L617.455 397.435 Q617.455 400.606 618.311 401.509 Q619.191 402.411 621.853 402.411 L626.228 402.411 L626.228 405.976 L621.853 405.976 Q616.922 405.976 615.047 404.148 Q613.172 402.296 613.172 397.435 L613.172 383.361 L610.047 383.361 L610.047 380.051 L613.172 380.051 L613.172 372.689 L617.455 372.689 Z" fill="#000000" fill-rule="nonzero" fill-opacity="1" /><path clip-path="url(#clip060)" d="M643.612 392.944 Q638.45 392.944 636.459 394.124 Q634.468 395.305 634.468 398.152 Q634.468 400.421 635.95 401.763 Q637.455 403.083 640.024 403.083 Q643.566 403.083 645.695 400.583 Q647.848 398.06 647.848 393.893 L647.848 392.944 L643.612 392.944 M652.107 391.185 L652.107 405.976 L647.848 405.976 L647.848 402.041 Q646.39 404.402 644.214 405.536 Q642.038 406.648 638.89 406.648 Q634.908 406.648 632.547 404.425 Q630.209 402.18 630.209 398.43 Q630.209 394.055 633.126 391.833 Q636.066 389.611 641.876 389.611 L647.848 389.611 L647.848 389.194 Q647.848 386.254 645.904 384.657 Q643.982 383.037 640.487 383.037 Q638.265 383.037 636.158 383.569 Q634.052 384.101 632.107 385.166 L632.107 381.231 Q634.445 380.328 636.644 379.888 Q638.843 379.426 640.927 379.426 Q646.552 379.426 649.329 382.342 Q652.107 385.259 652.107 391.185 Z" fill="#000000" fill-rule="nonzero" fill-opacity="1" /><path clip-path="url(#clip060)" d="M660.88 369.958 L665.14 369.958 L665.14 405.976 L660.88 405.976 L660.88 369.958 Z" fill="#000000" fill-rule="nonzero" fill-opacity="1" /><path clip-path="url(#clip060)" d="M700.903 392.944 Q695.741 392.944 693.751 394.124 Q691.76 395.305 691.76 398.152 Q691.76 400.421 693.241 401.763 Q694.746 403.083 697.315 403.083 Q700.857 403.083 702.987 400.583 Q705.139 398.06 705.139 393.893 L705.139 392.944 L700.903 392.944 M709.399 391.185 L709.399 405.976 L705.139 405.976 L705.139 402.041 Q703.681 404.402 701.505 405.536 Q699.329 406.648 696.181 406.648 Q692.2 406.648 689.839 404.425 Q687.501 402.18 687.501 398.43 Q687.501 394.055 690.417 391.833 Q693.357 389.611 699.167 389.611 L705.139 389.611 L705.139 389.194 Q705.139 386.254 703.195 384.657 Q701.274 383.037 697.778 383.037 Q695.556 383.037 693.45 383.569 Q691.343 384.101 689.399 385.166 L689.399 381.231 Q691.737 380.328 693.936 379.888 Q696.135 379.426 698.218 379.426 Q703.843 379.426 706.621 382.342 Q709.399 385.259 709.399 391.185 Z" fill="#000000" fill-rule="nonzero" fill-opacity="1" /><path clip-path="url(#clip060)" d="M718.172 369.958 L722.431 369.958 L722.431 405.976 L718.172 405.976 L718.172 369.958 Z" fill="#000000" fill-rule="nonzero" fill-opacity="1" /><path clip-path="url(#clip060)" d="M731.343 380.051 L735.602 380.051 L735.602 405.976 L731.343 405.976 L731.343 380.051 M731.343 369.958 L735.602 369.958 L735.602 375.351 L731.343 375.351 L731.343 369.958 Z" fill="#000000" fill-rule="nonzero" fill-opacity="1" /><path clip-path="url(#clip060)" d="M741.459 380.051 L745.972 380.051 L754.074 401.81 L762.176 380.051 L766.69 380.051 L756.968 405.976 L751.181 405.976 L741.459 380.051 Z" fill="#000000" fill-rule="nonzero" fill-opacity="1" /><path clip-path="url(#clip060)" d="M794.745 391.949 L794.745 394.032 L775.162 394.032 Q775.44 398.43 777.801 400.745 Q780.185 403.036 784.421 403.036 Q786.875 403.036 789.167 402.435 Q791.481 401.833 793.75 400.629 L793.75 404.657 Q791.458 405.629 789.051 406.138 Q786.644 406.648 784.167 406.648 Q777.963 406.648 774.329 403.036 Q770.718 399.425 770.718 393.268 Q770.718 386.902 774.144 383.175 Q777.593 379.426 783.426 379.426 Q788.657 379.426 791.69 382.805 Q794.745 386.162 794.745 391.949 M790.486 390.699 Q790.44 387.203 788.519 385.12 Q786.62 383.037 783.472 383.037 Q779.907 383.037 777.755 385.05 Q775.625 387.064 775.301 390.722 L790.486 390.699 Z" fill="#000000" fill-rule="nonzero" fill-opacity="1" /></svg>
