<?xml version="1.0" encoding="utf-8"?>
<svg xmlns="http://www.w3.org/2000/svg" xmlns:xlink="http://www.w3.org/1999/xlink" width="672" height="480" viewBox="0 0 2688 1920">
<defs>
  <clipPath id="clip970">
    <rect x="0" y="0" width="2688" height="1920"/>
  </clipPath>
</defs>
<path clip-path="url(#clip970)" d="M0 1920 L2688 1920 L2688 -4.26326e-14 L0 -4.26326e-14  Z" fill="#ffffff" fill-rule="evenodd" fill-opacity="1"/>
<defs>
  <clipPath id="clip971">
    <rect x="285" y="127" width="2356" height="1607"/>
  </clipPath>
</defs>
<path clip-path="url(#clip970)" d="M285.978 1734.12 L2640.76 1734.12 L2640.76 127.792 L285.978 127.792  Z" fill="#ffffff" fill-rule="evenodd" fill-opacity="1"/>
<polyline clip-path="url(#clip971)" style="stroke:#000000; stroke-linecap:round; stroke-linejoin:round; stroke-width:2; stroke-opacity:0.1; fill:none" points="341.46,1734.12 341.46,127.792 "/>
<polyline clip-path="url(#clip971)" style="stroke:#000000; stroke-linecap:round; stroke-linejoin:round; stroke-width:2; stroke-opacity:0.1; fill:none" points="899.623,1734.12 899.623,127.792 "/>
<polyline clip-path="url(#clip971)" style="stroke:#000000; stroke-linecap:round; stroke-linejoin:round; stroke-width:2; stroke-opacity:0.1; fill:none" points="1457.79,1734.12 1457.79,127.792 "/>
<polyline clip-path="url(#clip971)" style="stroke:#000000; stroke-linecap:round; stroke-linejoin:round; stroke-width:2; stroke-opacity:0.1; fill:none" points="2015.95,1734.12 2015.95,127.792 "/>
<polyline clip-path="url(#clip971)" style="stroke:#000000; stroke-linecap:round; stroke-linejoin:round; stroke-width:2; stroke-opacity:0.1; fill:none" points="2574.11,1734.12 2574.11,127.792 "/>
<polyline clip-path="url(#clip971)" style="stroke:#000000; stroke-linecap:round; stroke-linejoin:round; stroke-width:2; stroke-opacity:0.1; fill:none" points="285.978,1701.57 2640.76,1701.57 "/>
<polyline clip-path="url(#clip971)" style="stroke:#000000; stroke-linecap:round; stroke-linejoin:round; stroke-width:2; stroke-opacity:0.1; fill:none" points="285.978,1437.49 2640.76,1437.49 "/>
<polyline clip-path="url(#clip971)" style="stroke:#000000; stroke-linecap:round; stroke-linejoin:round; stroke-width:2; stroke-opacity:0.1; fill:none" points="285.978,1173.41 2640.76,1173.41 "/>
<polyline clip-path="url(#clip971)" style="stroke:#000000; stroke-linecap:round; stroke-linejoin:round; stroke-width:2; stroke-opacity:0.1; fill:none" points="285.978,909.33 2640.76,909.33 "/>
<polyline clip-path="url(#clip971)" style="stroke:#000000; stroke-linecap:round; stroke-linejoin:round; stroke-width:2; stroke-opacity:0.1; fill:none" points="285.978,645.25 2640.76,645.25 "/>
<polyline clip-path="url(#clip971)" style="stroke:#000000; stroke-linecap:round; stroke-linejoin:round; stroke-width:2; stroke-opacity:0.1; fill:none" points="285.978,381.169 2640.76,381.169 "/>
<polyline clip-path="url(#clip970)" style="stroke:#000000; stroke-linecap:round; stroke-linejoin:round; stroke-width:4; stroke-opacity:1; fill:none" points="285.978,1734.12 2640.76,1734.12 "/>
<polyline clip-path="url(#clip970)" style="stroke:#000000; stroke-linecap:round; stroke-linejoin:round; stroke-width:4; stroke-opacity:1; fill:none" points="341.46,1734.12 341.46,1715.22 "/>
<polyline clip-path="url(#clip970)" style="stroke:#000000; stroke-linecap:round; stroke-linejoin:round; stroke-width:4; stroke-opacity:1; fill:none" points="899.623,1734.12 899.623,1715.22 "/>
<polyline clip-path="url(#clip970)" style="stroke:#000000; stroke-linecap:round; stroke-linejoin:round; stroke-width:4; stroke-opacity:1; fill:none" points="1457.79,1734.12 1457.79,1715.22 "/>
<polyline clip-path="url(#clip970)" style="stroke:#000000; stroke-linecap:round; stroke-linejoin:round; stroke-width:4; stroke-opacity:1; fill:none" points="2015.95,1734.12 2015.95,1715.22 "/>
<polyline clip-path="url(#clip970)" style="stroke:#000000; stroke-linecap:round; stroke-linejoin:round; stroke-width:4; stroke-opacity:1; fill:none" points="2574.11,1734.12 2574.11,1715.22 "/>
<path clip-path="url(#clip970)" d="M341.46 1767.34 Q337.848 1767.34 336.02 1770.9 Q334.214 1774.45 334.214 1781.58 Q334.214 1788.68 336.02 1792.25 Q337.848 1795.79 341.46 1795.79 Q345.094 1795.79 346.899 1792.25 Q348.728 1788.68 348.728 1781.58 Q348.728 1774.45 346.899 1770.9 Q345.094 1767.34 341.46 1767.34 M341.46 1763.64 Q347.27 1763.64 350.325 1768.24 Q353.404 1772.83 353.404 1781.58 Q353.404 1790.3 350.325 1794.91 Q347.27 1799.49 341.46 1799.49 Q335.649 1799.49 332.571 1794.91 Q329.515 1790.3 329.515 1781.58 Q329.515 1772.83 332.571 1768.24 Q335.649 1763.64 341.46 1763.64 Z" fill="#000000" fill-rule="nonzero" fill-opacity="1" /><path clip-path="url(#clip970)" d="M874.322 1764.26 L892.678 1764.26 L892.678 1768.2 L878.604 1768.2 L878.604 1776.67 Q879.623 1776.32 880.641 1776.16 Q881.66 1775.97 882.678 1775.97 Q888.465 1775.97 891.845 1779.15 Q895.224 1782.32 895.224 1787.73 Q895.224 1793.31 891.752 1796.41 Q888.28 1799.49 881.961 1799.49 Q879.785 1799.49 877.516 1799.12 Q875.271 1798.75 872.863 1798.01 L872.863 1793.31 Q874.947 1794.45 877.169 1795 Q879.391 1795.56 881.868 1795.56 Q885.873 1795.56 888.211 1793.45 Q890.548 1791.34 890.548 1787.73 Q890.548 1784.12 888.211 1782.02 Q885.873 1779.91 881.868 1779.91 Q879.993 1779.91 878.118 1780.33 Q876.266 1780.74 874.322 1781.62 L874.322 1764.26 Z" fill="#000000" fill-rule="nonzero" fill-opacity="1" /><path clip-path="url(#clip970)" d="M914.437 1767.34 Q910.826 1767.34 908.997 1770.9 Q907.192 1774.45 907.192 1781.58 Q907.192 1788.68 908.997 1792.25 Q910.826 1795.79 914.437 1795.79 Q918.071 1795.79 919.877 1792.25 Q921.706 1788.68 921.706 1781.58 Q921.706 1774.45 919.877 1770.9 Q918.071 1767.34 914.437 1767.34 M914.437 1763.64 Q920.247 1763.64 923.303 1768.24 Q926.382 1772.83 926.382 1781.58 Q926.382 1790.3 923.303 1794.91 Q920.247 1799.49 914.437 1799.49 Q908.627 1799.49 905.548 1794.91 Q902.493 1790.3 902.493 1781.58 Q902.493 1772.83 905.548 1768.24 Q908.627 1763.64 914.437 1763.64 Z" fill="#000000" fill-rule="nonzero" fill-opacity="1" /><path clip-path="url(#clip970)" d="M1417.39 1794.89 L1425.03 1794.89 L1425.03 1768.52 L1416.72 1770.19 L1416.72 1765.93 L1424.98 1764.26 L1429.66 1764.26 L1429.66 1794.89 L1437.3 1794.89 L1437.3 1798.82 L1417.39 1798.82 L1417.39 1794.89 Z" fill="#000000" fill-rule="nonzero" fill-opacity="1" /><path clip-path="url(#clip970)" d="M1456.74 1767.34 Q1453.13 1767.34 1451.3 1770.9 Q1449.5 1774.45 1449.5 1781.58 Q1449.5 1788.68 1451.3 1792.25 Q1453.13 1795.79 1456.74 1795.79 Q1460.38 1795.79 1462.18 1792.25 Q1464.01 1788.68 1464.01 1781.58 Q1464.01 1774.45 1462.18 1770.9 Q1460.38 1767.34 1456.74 1767.34 M1456.74 1763.64 Q1462.55 1763.64 1465.61 1768.24 Q1468.69 1772.83 1468.69 1781.58 Q1468.69 1790.3 1465.61 1794.91 Q1462.55 1799.49 1456.74 1799.49 Q1450.93 1799.49 1447.85 1794.91 Q1444.8 1790.3 1444.8 1781.58 Q1444.8 1772.83 1447.85 1768.24 Q1450.93 1763.64 1456.74 1763.64 Z" fill="#000000" fill-rule="nonzero" fill-opacity="1" /><path clip-path="url(#clip970)" d="M1486.91 1767.34 Q1483.29 1767.34 1481.47 1770.9 Q1479.66 1774.45 1479.66 1781.58 Q1479.66 1788.68 1481.47 1792.25 Q1483.29 1795.79 1486.91 1795.79 Q1490.54 1795.79 1492.35 1792.25 Q1494.17 1788.68 1494.17 1781.58 Q1494.17 1774.45 1492.35 1770.9 Q1490.54 1767.34 1486.91 1767.34 M1486.91 1763.64 Q1492.72 1763.64 1495.77 1768.24 Q1498.85 1772.83 1498.85 1781.58 Q1498.85 1790.3 1495.77 1794.91 Q1492.72 1799.49 1486.91 1799.49 Q1481.1 1799.49 1478.02 1794.91 Q1474.96 1790.3 1474.96 1781.58 Q1474.96 1772.83 1478.02 1768.24 Q1481.1 1763.64 1486.91 1763.64 Z" fill="#000000" fill-rule="nonzero" fill-opacity="1" /><path clip-path="url(#clip970)" d="M1975.56 1794.89 L1983.19 1794.89 L1983.19 1768.52 L1974.88 1770.19 L1974.88 1765.93 L1983.15 1764.26 L1987.82 1764.26 L1987.82 1794.89 L1995.46 1794.89 L1995.46 1798.82 L1975.56 1798.82 L1975.56 1794.89 Z" fill="#000000" fill-rule="nonzero" fill-opacity="1" /><path clip-path="url(#clip970)" d="M2004.95 1764.26 L2023.31 1764.26 L2023.31 1768.2 L2009.24 1768.2 L2009.24 1776.67 Q2010.25 1776.32 2011.27 1776.16 Q2012.29 1775.97 2013.31 1775.97 Q2019.1 1775.97 2022.48 1779.15 Q2025.86 1782.32 2025.86 1787.73 Q2025.86 1793.31 2022.38 1796.41 Q2018.91 1799.49 2012.59 1799.49 Q2010.42 1799.49 2008.15 1799.12 Q2005.9 1798.75 2003.49 1798.01 L2003.49 1793.31 Q2005.58 1794.45 2007.8 1795 Q2010.02 1795.56 2012.5 1795.56 Q2016.5 1795.56 2018.84 1793.45 Q2021.18 1791.34 2021.18 1787.73 Q2021.18 1784.12 2018.84 1782.02 Q2016.5 1779.91 2012.5 1779.91 Q2010.62 1779.91 2008.75 1780.33 Q2006.9 1780.74 2004.95 1781.62 L2004.95 1764.26 Z" fill="#000000" fill-rule="nonzero" fill-opacity="1" /><path clip-path="url(#clip970)" d="M2045.07 1767.34 Q2041.46 1767.34 2039.63 1770.9 Q2037.82 1774.45 2037.82 1781.58 Q2037.82 1788.68 2039.63 1792.25 Q2041.46 1795.79 2045.07 1795.79 Q2048.7 1795.79 2050.51 1792.25 Q2052.34 1788.68 2052.34 1781.58 Q2052.34 1774.45 2050.51 1770.9 Q2048.7 1767.34 2045.07 1767.34 M2045.07 1763.64 Q2050.88 1763.64 2053.93 1768.24 Q2057.01 1772.83 2057.01 1781.58 Q2057.01 1790.3 2053.93 1794.91 Q2050.88 1799.49 2045.07 1799.49 Q2039.26 1799.49 2036.18 1794.91 Q2033.12 1790.3 2033.12 1781.58 Q2033.12 1772.83 2036.18 1768.24 Q2039.26 1763.64 2045.07 1763.64 Z" fill="#000000" fill-rule="nonzero" fill-opacity="1" /><path clip-path="url(#clip970)" d="M2537.8 1794.89 L2554.12 1794.89 L2554.12 1798.82 L2532.18 1798.82 L2532.18 1794.89 Q2534.84 1792.13 2539.42 1787.5 Q2544.03 1782.85 2545.21 1781.51 Q2547.46 1778.98 2548.34 1777.25 Q2549.24 1775.49 2549.24 1773.8 Q2549.24 1771.04 2547.29 1769.31 Q2545.37 1767.57 2542.27 1767.57 Q2540.07 1767.57 2537.62 1768.34 Q2535.19 1769.1 2532.41 1770.65 L2532.41 1765.93 Q2535.23 1764.79 2537.69 1764.21 Q2540.14 1763.64 2542.18 1763.64 Q2547.55 1763.64 2550.74 1766.32 Q2553.94 1769.01 2553.94 1773.5 Q2553.94 1775.63 2553.13 1777.55 Q2552.34 1779.45 2550.23 1782.04 Q2549.66 1782.71 2546.55 1785.93 Q2543.45 1789.12 2537.8 1794.89 Z" fill="#000000" fill-rule="nonzero" fill-opacity="1" /><path clip-path="url(#clip970)" d="M2573.94 1767.34 Q2570.33 1767.34 2568.5 1770.9 Q2566.69 1774.45 2566.69 1781.58 Q2566.69 1788.68 2568.5 1792.25 Q2570.33 1795.79 2573.94 1795.79 Q2577.57 1795.79 2579.38 1792.25 Q2581.21 1788.68 2581.21 1781.58 Q2581.21 1774.45 2579.38 1770.9 Q2577.57 1767.34 2573.94 1767.34 M2573.94 1763.64 Q2579.75 1763.64 2582.8 1768.24 Q2585.88 1772.83 2585.88 1781.58 Q2585.88 1790.3 2582.8 1794.91 Q2579.75 1799.49 2573.94 1799.49 Q2568.13 1799.49 2565.05 1794.91 Q2561.99 1790.3 2561.99 1781.58 Q2561.99 1772.83 2565.05 1768.24 Q2568.13 1763.64 2573.94 1763.64 Z" fill="#000000" fill-rule="nonzero" fill-opacity="1" /><path clip-path="url(#clip970)" d="M2604.1 1767.34 Q2600.49 1767.34 2598.66 1770.9 Q2596.85 1774.45 2596.85 1781.58 Q2596.85 1788.68 2598.66 1792.25 Q2600.49 1795.79 2604.1 1795.79 Q2607.73 1795.79 2609.54 1792.25 Q2611.37 1788.68 2611.37 1781.58 Q2611.37 1774.45 2609.54 1770.9 Q2607.73 1767.34 2604.1 1767.34 M2604.1 1763.64 Q2609.91 1763.64 2612.97 1768.24 Q2616.04 1772.83 2616.04 1781.58 Q2616.04 1790.3 2612.97 1794.91 Q2609.91 1799.49 2604.1 1799.49 Q2598.29 1799.49 2595.21 1794.91 Q2592.16 1790.3 2592.16 1781.58 Q2592.16 1772.83 2595.21 1768.24 Q2598.29 1763.64 2604.1 1763.64 Z" fill="#000000" fill-rule="nonzero" fill-opacity="1" /><path clip-path="url(#clip970)" d="M1399.73 1835.78 L1439.93 1835.78 L1439.93 1841.19 L1423.06 1841.19 L1423.06 1883.3 L1416.6 1883.3 L1416.6 1841.19 L1399.73 1841.19 L1399.73 1835.78 Z" fill="#000000" fill-rule="nonzero" fill-opacity="1" /><path clip-path="url(#clip970)" d="M1456.95 1853.13 Q1455.97 1852.55 1454.79 1852.3 Q1453.64 1852.01 1452.24 1852.01 Q1447.28 1852.01 1444.6 1855.26 Q1441.96 1858.47 1441.96 1864.52 L1441.96 1883.3 L1436.07 1883.3 L1436.07 1847.65 L1441.96 1847.65 L1441.96 1853.19 Q1443.81 1849.94 1446.77 1848.39 Q1449.73 1846.79 1453.96 1846.79 Q1454.57 1846.79 1455.3 1846.89 Q1456.03 1846.95 1456.92 1847.11 L1456.95 1853.13 Z" fill="#000000" fill-rule="nonzero" fill-opacity="1" /><path clip-path="url(#clip970)" d="M1463.1 1847.65 L1468.95 1847.65 L1468.95 1883.3 L1463.1 1883.3 L1463.1 1847.65 M1463.1 1833.78 L1468.95 1833.78 L1468.95 1841.19 L1463.1 1841.19 L1463.1 1833.78 Z" fill="#000000" fill-rule="nonzero" fill-opacity="1" /><path clip-path="url(#clip970)" d="M1497.41 1865.38 Q1490.31 1865.38 1487.57 1867 Q1484.84 1868.63 1484.84 1872.54 Q1484.84 1875.66 1486.87 1877.51 Q1488.94 1879.32 1492.47 1879.32 Q1497.34 1879.32 1500.27 1875.88 Q1503.23 1872.42 1503.23 1866.69 L1503.23 1865.38 L1497.41 1865.38 M1509.09 1862.96 L1509.09 1883.3 L1503.23 1883.3 L1503.23 1877.89 Q1501.23 1881.14 1498.24 1882.7 Q1495.24 1884.22 1490.91 1884.22 Q1485.44 1884.22 1482.19 1881.17 Q1478.98 1878.08 1478.98 1872.92 Q1478.98 1866.91 1482.99 1863.85 Q1487.03 1860.8 1495.02 1860.8 L1503.23 1860.8 L1503.23 1860.23 Q1503.23 1856.18 1500.56 1853.99 Q1497.92 1851.76 1493.11 1851.76 Q1490.06 1851.76 1487.16 1852.49 Q1484.26 1853.22 1481.59 1854.69 L1481.59 1849.28 Q1484.8 1848.03 1487.83 1847.43 Q1490.85 1846.79 1493.72 1846.79 Q1501.45 1846.79 1505.27 1850.8 Q1509.09 1854.81 1509.09 1862.96 Z" fill="#000000" fill-rule="nonzero" fill-opacity="1" /><path clip-path="url(#clip970)" d="M1521.15 1833.78 L1527.01 1833.78 L1527.01 1883.3 L1521.15 1883.3 L1521.15 1833.78 Z" fill="#000000" fill-rule="nonzero" fill-opacity="1" /><polyline clip-path="url(#clip970)" style="stroke:#000000; stroke-linecap:round; stroke-linejoin:round; stroke-width:4; stroke-opacity:1; fill:none" points="285.978,1734.12 285.978,127.792 "/>
<polyline clip-path="url(#clip970)" style="stroke:#000000; stroke-linecap:round; stroke-linejoin:round; stroke-width:4; stroke-opacity:1; fill:none" points="285.978,1701.57 304.876,1701.57 "/>
<polyline clip-path="url(#clip970)" style="stroke:#000000; stroke-linecap:round; stroke-linejoin:round; stroke-width:4; stroke-opacity:1; fill:none" points="285.978,1437.49 304.876,1437.49 "/>
<polyline clip-path="url(#clip970)" style="stroke:#000000; stroke-linecap:round; stroke-linejoin:round; stroke-width:4; stroke-opacity:1; fill:none" points="285.978,1173.41 304.876,1173.41 "/>
<polyline clip-path="url(#clip970)" style="stroke:#000000; stroke-linecap:round; stroke-linejoin:round; stroke-width:4; stroke-opacity:1; fill:none" points="285.978,909.33 304.876,909.33 "/>
<polyline clip-path="url(#clip970)" style="stroke:#000000; stroke-linecap:round; stroke-linejoin:round; stroke-width:4; stroke-opacity:1; fill:none" points="285.978,645.25 304.876,645.25 "/>
<polyline clip-path="url(#clip970)" style="stroke:#000000; stroke-linecap:round; stroke-linejoin:round; stroke-width:4; stroke-opacity:1; fill:none" points="285.978,381.169 304.876,381.169 "/>
<path clip-path="url(#clip970)" d="M128.159 1687.37 Q124.548 1687.37 122.719 1690.94 Q120.913 1694.48 120.913 1701.61 Q120.913 1708.71 122.719 1712.28 Q124.548 1715.82 128.159 1715.82 Q131.793 1715.82 133.599 1712.28 Q135.427 1708.71 135.427 1701.61 Q135.427 1694.48 133.599 1690.94 Q131.793 1687.37 128.159 1687.37 M128.159 1683.67 Q133.969 1683.67 137.025 1688.27 Q140.103 1692.86 140.103 1701.61 Q140.103 1710.33 137.025 1714.94 Q133.969 1719.52 128.159 1719.52 Q122.349 1719.52 119.27 1714.94 Q116.214 1710.33 116.214 1701.61 Q116.214 1692.86 119.27 1688.27 Q122.349 1683.67 128.159 1683.67 Z" fill="#000000" fill-rule="nonzero" fill-opacity="1" /><path clip-path="url(#clip970)" d="M148.321 1712.97 L153.205 1712.97 L153.205 1718.85 L148.321 1718.85 L148.321 1712.97 Z" fill="#000000" fill-rule="nonzero" fill-opacity="1" /><path clip-path="url(#clip970)" d="M173.39 1687.37 Q169.779 1687.37 167.95 1690.94 Q166.145 1694.48 166.145 1701.61 Q166.145 1708.71 167.95 1712.28 Q169.779 1715.82 173.39 1715.82 Q177.024 1715.82 178.83 1712.28 Q180.659 1708.71 180.659 1701.61 Q180.659 1694.48 178.83 1690.94 Q177.024 1687.37 173.39 1687.37 M173.39 1683.67 Q179.2 1683.67 182.256 1688.27 Q185.334 1692.86 185.334 1701.61 Q185.334 1710.33 182.256 1714.94 Q179.2 1719.52 173.39 1719.52 Q167.58 1719.52 164.501 1714.94 Q161.446 1710.33 161.446 1701.61 Q161.446 1692.86 164.501 1688.27 Q167.58 1683.67 173.39 1683.67 Z" fill="#000000" fill-rule="nonzero" fill-opacity="1" /><path clip-path="url(#clip970)" d="M203.552 1687.37 Q199.941 1687.37 198.112 1690.94 Q196.307 1694.48 196.307 1701.61 Q196.307 1708.71 198.112 1712.28 Q199.941 1715.82 203.552 1715.82 Q207.186 1715.82 208.992 1712.28 Q210.82 1708.71 210.82 1701.61 Q210.82 1694.48 208.992 1690.94 Q207.186 1687.37 203.552 1687.37 M203.552 1683.67 Q209.362 1683.67 212.418 1688.27 Q215.496 1692.86 215.496 1701.61 Q215.496 1710.33 212.418 1714.94 Q209.362 1719.52 203.552 1719.52 Q197.742 1719.52 194.663 1714.94 Q191.608 1710.33 191.608 1701.61 Q191.608 1692.86 194.663 1688.27 Q197.742 1683.67 203.552 1683.67 Z" fill="#000000" fill-rule="nonzero" fill-opacity="1" /><path clip-path="url(#clip970)" d="M233.714 1687.37 Q230.103 1687.37 228.274 1690.94 Q226.468 1694.48 226.468 1701.61 Q226.468 1708.71 228.274 1712.28 Q230.103 1715.82 233.714 1715.82 Q237.348 1715.82 239.154 1712.28 Q240.982 1708.71 240.982 1701.61 Q240.982 1694.48 239.154 1690.94 Q237.348 1687.37 233.714 1687.37 M233.714 1683.67 Q239.524 1683.67 242.58 1688.27 Q245.658 1692.86 245.658 1701.61 Q245.658 1710.33 242.58 1714.94 Q239.524 1719.52 233.714 1719.52 Q227.904 1719.52 224.825 1714.94 Q221.769 1710.33 221.769 1701.61 Q221.769 1692.86 224.825 1688.27 Q227.904 1683.67 233.714 1683.67 Z" fill="#000000" fill-rule="nonzero" fill-opacity="1" /><path clip-path="url(#clip970)" d="M129.154 1423.29 Q125.543 1423.29 123.714 1426.85 Q121.909 1430.4 121.909 1437.53 Q121.909 1444.63 123.714 1448.2 Q125.543 1451.74 129.154 1451.74 Q132.788 1451.74 134.594 1448.2 Q136.423 1444.63 136.423 1437.53 Q136.423 1430.4 134.594 1426.85 Q132.788 1423.29 129.154 1423.29 M129.154 1419.59 Q134.964 1419.59 138.02 1424.19 Q141.099 1428.78 141.099 1437.53 Q141.099 1446.25 138.02 1450.86 Q134.964 1455.44 129.154 1455.44 Q123.344 1455.44 120.265 1450.86 Q117.21 1446.25 117.21 1437.53 Q117.21 1428.78 120.265 1424.19 Q123.344 1419.59 129.154 1419.59 Z" fill="#000000" fill-rule="nonzero" fill-opacity="1" /><path clip-path="url(#clip970)" d="M149.316 1448.89 L154.2 1448.89 L154.2 1454.77 L149.316 1454.77 L149.316 1448.89 Z" fill="#000000" fill-rule="nonzero" fill-opacity="1" /><path clip-path="url(#clip970)" d="M174.385 1423.29 Q170.774 1423.29 168.946 1426.85 Q167.14 1430.4 167.14 1437.53 Q167.14 1444.63 168.946 1448.2 Q170.774 1451.74 174.385 1451.74 Q178.02 1451.74 179.825 1448.2 Q181.654 1444.63 181.654 1437.53 Q181.654 1430.4 179.825 1426.85 Q178.02 1423.29 174.385 1423.29 M174.385 1419.59 Q180.196 1419.59 183.251 1424.19 Q186.33 1428.78 186.33 1437.53 Q186.33 1446.25 183.251 1450.86 Q180.196 1455.44 174.385 1455.44 Q168.575 1455.44 165.497 1450.86 Q162.441 1446.25 162.441 1437.53 Q162.441 1428.78 165.497 1424.19 Q168.575 1419.59 174.385 1419.59 Z" fill="#000000" fill-rule="nonzero" fill-opacity="1" /><path clip-path="url(#clip970)" d="M204.547 1423.29 Q200.936 1423.29 199.108 1426.85 Q197.302 1430.4 197.302 1437.53 Q197.302 1444.63 199.108 1448.2 Q200.936 1451.74 204.547 1451.74 Q208.182 1451.74 209.987 1448.2 Q211.816 1444.63 211.816 1437.53 Q211.816 1430.4 209.987 1426.85 Q208.182 1423.29 204.547 1423.29 M204.547 1419.59 Q210.357 1419.59 213.413 1424.19 Q216.492 1428.78 216.492 1437.53 Q216.492 1446.25 213.413 1450.86 Q210.357 1455.44 204.547 1455.44 Q198.737 1455.44 195.658 1450.86 Q192.603 1446.25 192.603 1437.53 Q192.603 1428.78 195.658 1424.19 Q198.737 1419.59 204.547 1419.59 Z" fill="#000000" fill-rule="nonzero" fill-opacity="1" /><path clip-path="url(#clip970)" d="M224.756 1420.21 L243.112 1420.21 L243.112 1424.15 L229.038 1424.15 L229.038 1432.62 Q230.056 1432.27 231.075 1432.11 Q232.093 1431.92 233.112 1431.92 Q238.899 1431.92 242.279 1435.1 Q245.658 1438.27 245.658 1443.68 Q245.658 1449.26 242.186 1452.36 Q238.714 1455.44 232.394 1455.44 Q230.218 1455.44 227.95 1455.07 Q225.705 1454.7 223.297 1453.96 L223.297 1449.26 Q225.381 1450.4 227.603 1450.95 Q229.825 1451.51 232.302 1451.51 Q236.306 1451.51 238.644 1449.4 Q240.982 1447.29 240.982 1443.68 Q240.982 1440.07 238.644 1437.97 Q236.306 1435.86 232.302 1435.86 Q230.427 1435.86 228.552 1436.28 Q226.7 1436.69 224.756 1437.57 L224.756 1420.21 Z" fill="#000000" fill-rule="nonzero" fill-opacity="1" /><path clip-path="url(#clip970)" d="M128.159 1159.21 Q124.548 1159.21 122.719 1162.77 Q120.913 1166.32 120.913 1173.45 Q120.913 1180.55 122.719 1184.12 Q124.548 1187.66 128.159 1187.66 Q131.793 1187.66 133.599 1184.12 Q135.427 1180.55 135.427 1173.45 Q135.427 1166.32 133.599 1162.77 Q131.793 1159.21 128.159 1159.21 M128.159 1155.51 Q133.969 1155.51 137.025 1160.11 Q140.103 1164.7 140.103 1173.45 Q140.103 1182.17 137.025 1186.78 Q133.969 1191.36 128.159 1191.36 Q122.349 1191.36 119.27 1186.78 Q116.214 1182.17 116.214 1173.45 Q116.214 1164.7 119.27 1160.11 Q122.349 1155.51 128.159 1155.51 Z" fill="#000000" fill-rule="nonzero" fill-opacity="1" /><path clip-path="url(#clip970)" d="M148.321 1184.81 L153.205 1184.81 L153.205 1190.69 L148.321 1190.69 L148.321 1184.81 Z" fill="#000000" fill-rule="nonzero" fill-opacity="1" /><path clip-path="url(#clip970)" d="M173.39 1159.21 Q169.779 1159.21 167.95 1162.77 Q166.145 1166.32 166.145 1173.45 Q166.145 1180.55 167.95 1184.12 Q169.779 1187.66 173.39 1187.66 Q177.024 1187.66 178.83 1184.12 Q180.659 1180.55 180.659 1173.45 Q180.659 1166.32 178.83 1162.77 Q177.024 1159.21 173.39 1159.21 M173.39 1155.51 Q179.2 1155.51 182.256 1160.11 Q185.334 1164.7 185.334 1173.45 Q185.334 1182.17 182.256 1186.78 Q179.2 1191.36 173.39 1191.36 Q167.58 1191.36 164.501 1186.78 Q161.446 1182.17 161.446 1173.45 Q161.446 1164.7 164.501 1160.11 Q167.58 1155.51 173.39 1155.51 Z" fill="#000000" fill-rule="nonzero" fill-opacity="1" /><path clip-path="url(#clip970)" d="M194.362 1186.76 L202.001 1186.76 L202.001 1160.39 L193.691 1162.06 L193.691 1157.8 L201.955 1156.13 L206.631 1156.13 L206.631 1186.76 L214.269 1186.76 L214.269 1190.69 L194.362 1190.69 L194.362 1186.76 Z" fill="#000000" fill-rule="nonzero" fill-opacity="1" /><path clip-path="url(#clip970)" d="M233.714 1159.21 Q230.103 1159.21 228.274 1162.77 Q226.468 1166.32 226.468 1173.45 Q226.468 1180.55 228.274 1184.12 Q230.103 1187.66 233.714 1187.66 Q237.348 1187.66 239.154 1184.12 Q240.982 1180.55 240.982 1173.45 Q240.982 1166.32 239.154 1162.77 Q237.348 1159.21 233.714 1159.21 M233.714 1155.51 Q239.524 1155.51 242.58 1160.11 Q245.658 1164.7 245.658 1173.45 Q245.658 1182.17 242.58 1186.78 Q239.524 1191.36 233.714 1191.36 Q227.904 1191.36 224.825 1186.78 Q221.769 1182.17 221.769 1173.45 Q221.769 1164.7 224.825 1160.11 Q227.904 1155.51 233.714 1155.51 Z" fill="#000000" fill-rule="nonzero" fill-opacity="1" /><path clip-path="url(#clip970)" d="M129.154 895.129 Q125.543 895.129 123.714 898.694 Q121.909 902.235 121.909 909.365 Q121.909 916.471 123.714 920.036 Q125.543 923.578 129.154 923.578 Q132.788 923.578 134.594 920.036 Q136.423 916.471 136.423 909.365 Q136.423 902.235 134.594 898.694 Q132.788 895.129 129.154 895.129 M129.154 891.425 Q134.964 891.425 138.02 896.032 Q141.099 900.615 141.099 909.365 Q141.099 918.092 138.02 922.698 Q134.964 927.282 129.154 927.282 Q123.344 927.282 120.265 922.698 Q117.21 918.092 117.21 909.365 Q117.21 900.615 120.265 896.032 Q123.344 891.425 129.154 891.425 Z" fill="#000000" fill-rule="nonzero" fill-opacity="1" /><path clip-path="url(#clip970)" d="M149.316 920.731 L154.2 920.731 L154.2 926.61 L149.316 926.61 L149.316 920.731 Z" fill="#000000" fill-rule="nonzero" fill-opacity="1" /><path clip-path="url(#clip970)" d="M174.385 895.129 Q170.774 895.129 168.946 898.694 Q167.14 902.235 167.14 909.365 Q167.14 916.471 168.946 920.036 Q170.774 923.578 174.385 923.578 Q178.02 923.578 179.825 920.036 Q181.654 916.471 181.654 909.365 Q181.654 902.235 179.825 898.694 Q178.02 895.129 174.385 895.129 M174.385 891.425 Q180.196 891.425 183.251 896.032 Q186.33 900.615 186.33 909.365 Q186.33 918.092 183.251 922.698 Q180.196 927.282 174.385 927.282 Q168.575 927.282 165.497 922.698 Q162.441 918.092 162.441 909.365 Q162.441 900.615 165.497 896.032 Q168.575 891.425 174.385 891.425 Z" fill="#000000" fill-rule="nonzero" fill-opacity="1" /><path clip-path="url(#clip970)" d="M195.358 922.675 L202.996 922.675 L202.996 896.309 L194.686 897.976 L194.686 893.717 L202.95 892.05 L207.626 892.05 L207.626 922.675 L215.265 922.675 L215.265 926.61 L195.358 926.61 L195.358 922.675 Z" fill="#000000" fill-rule="nonzero" fill-opacity="1" /><path clip-path="url(#clip970)" d="M224.756 892.05 L243.112 892.05 L243.112 895.985 L229.038 895.985 L229.038 904.458 Q230.056 904.11 231.075 903.948 Q232.093 903.763 233.112 903.763 Q238.899 903.763 242.279 906.934 Q245.658 910.106 245.658 915.522 Q245.658 921.101 242.186 924.203 Q238.714 927.282 232.394 927.282 Q230.218 927.282 227.95 926.911 Q225.705 926.541 223.297 925.8 L223.297 921.101 Q225.381 922.235 227.603 922.791 Q229.825 923.346 232.302 923.346 Q236.306 923.346 238.644 921.24 Q240.982 919.133 240.982 915.522 Q240.982 911.911 238.644 909.805 Q236.306 907.698 232.302 907.698 Q230.427 907.698 228.552 908.115 Q226.7 908.532 224.756 909.411 L224.756 892.05 Z" fill="#000000" fill-rule="nonzero" fill-opacity="1" /><path clip-path="url(#clip970)" d="M128.159 631.048 Q124.548 631.048 122.719 634.613 Q120.913 638.155 120.913 645.284 Q120.913 652.391 122.719 655.956 Q124.548 659.497 128.159 659.497 Q131.793 659.497 133.599 655.956 Q135.427 652.391 135.427 645.284 Q135.427 638.155 133.599 634.613 Q131.793 631.048 128.159 631.048 M128.159 627.345 Q133.969 627.345 137.025 631.951 Q140.103 636.534 140.103 645.284 Q140.103 654.011 137.025 658.618 Q133.969 663.201 128.159 663.201 Q122.349 663.201 119.27 658.618 Q116.214 654.011 116.214 645.284 Q116.214 636.534 119.27 631.951 Q122.349 627.345 128.159 627.345 Z" fill="#000000" fill-rule="nonzero" fill-opacity="1" /><path clip-path="url(#clip970)" d="M148.321 656.65 L153.205 656.65 L153.205 662.53 L148.321 662.53 L148.321 656.65 Z" fill="#000000" fill-rule="nonzero" fill-opacity="1" /><path clip-path="url(#clip970)" d="M173.39 631.048 Q169.779 631.048 167.95 634.613 Q166.145 638.155 166.145 645.284 Q166.145 652.391 167.95 655.956 Q169.779 659.497 173.39 659.497 Q177.024 659.497 178.83 655.956 Q180.659 652.391 180.659 645.284 Q180.659 638.155 178.83 634.613 Q177.024 631.048 173.39 631.048 M173.39 627.345 Q179.2 627.345 182.256 631.951 Q185.334 636.534 185.334 645.284 Q185.334 654.011 182.256 658.618 Q179.2 663.201 173.39 663.201 Q167.58 663.201 164.501 658.618 Q161.446 654.011 161.446 645.284 Q161.446 636.534 164.501 631.951 Q167.58 627.345 173.39 627.345 Z" fill="#000000" fill-rule="nonzero" fill-opacity="1" /><path clip-path="url(#clip970)" d="M197.58 658.595 L213.899 658.595 L213.899 662.53 L191.955 662.53 L191.955 658.595 Q194.617 655.84 199.2 651.21 Q203.807 646.558 204.987 645.215 Q207.232 642.692 208.112 640.956 Q209.015 639.197 209.015 637.507 Q209.015 634.752 207.07 633.016 Q205.149 631.28 202.047 631.28 Q199.848 631.28 197.395 632.044 Q194.964 632.808 192.186 634.359 L192.186 629.636 Q195.01 628.502 197.464 627.923 Q199.918 627.345 201.955 627.345 Q207.325 627.345 210.519 630.03 Q213.714 632.715 213.714 637.206 Q213.714 639.335 212.904 641.257 Q212.117 643.155 210.01 645.747 Q209.432 646.419 206.33 649.636 Q203.228 652.831 197.58 658.595 Z" fill="#000000" fill-rule="nonzero" fill-opacity="1" /><path clip-path="url(#clip970)" d="M233.714 631.048 Q230.103 631.048 228.274 634.613 Q226.468 638.155 226.468 645.284 Q226.468 652.391 228.274 655.956 Q230.103 659.497 233.714 659.497 Q237.348 659.497 239.154 655.956 Q240.982 652.391 240.982 645.284 Q240.982 638.155 239.154 634.613 Q237.348 631.048 233.714 631.048 M233.714 627.345 Q239.524 627.345 242.58 631.951 Q245.658 636.534 245.658 645.284 Q245.658 654.011 242.58 658.618 Q239.524 663.201 233.714 663.201 Q227.904 663.201 224.825 658.618 Q221.769 654.011 221.769 645.284 Q221.769 636.534 224.825 631.951 Q227.904 627.345 233.714 627.345 Z" fill="#000000" fill-rule="nonzero" fill-opacity="1" /><path clip-path="url(#clip970)" d="M129.154 366.968 Q125.543 366.968 123.714 370.533 Q121.909 374.074 121.909 381.204 Q121.909 388.31 123.714 391.875 Q125.543 395.417 129.154 395.417 Q132.788 395.417 134.594 391.875 Q136.423 388.31 136.423 381.204 Q136.423 374.074 134.594 370.533 Q132.788 366.968 129.154 366.968 M129.154 363.264 Q134.964 363.264 138.02 367.871 Q141.099 372.454 141.099 381.204 Q141.099 389.931 138.02 394.537 Q134.964 399.121 129.154 399.121 Q123.344 399.121 120.265 394.537 Q117.21 389.931 117.21 381.204 Q117.21 372.454 120.265 367.871 Q123.344 363.264 129.154 363.264 Z" fill="#000000" fill-rule="nonzero" fill-opacity="1" /><path clip-path="url(#clip970)" d="M149.316 392.57 L154.2 392.57 L154.2 398.449 L149.316 398.449 L149.316 392.57 Z" fill="#000000" fill-rule="nonzero" fill-opacity="1" /><path clip-path="url(#clip970)" d="M174.385 366.968 Q170.774 366.968 168.946 370.533 Q167.14 374.074 167.14 381.204 Q167.14 388.31 168.946 391.875 Q170.774 395.417 174.385 395.417 Q178.02 395.417 179.825 391.875 Q181.654 388.31 181.654 381.204 Q181.654 374.074 179.825 370.533 Q178.02 366.968 174.385 366.968 M174.385 363.264 Q180.196 363.264 183.251 367.871 Q186.33 372.454 186.33 381.204 Q186.33 389.931 183.251 394.537 Q180.196 399.121 174.385 399.121 Q168.575 399.121 165.497 394.537 Q162.441 389.931 162.441 381.204 Q162.441 372.454 165.497 367.871 Q168.575 363.264 174.385 363.264 Z" fill="#000000" fill-rule="nonzero" fill-opacity="1" /><path clip-path="url(#clip970)" d="M198.575 394.514 L214.894 394.514 L214.894 398.449 L192.95 398.449 L192.95 394.514 Q195.612 391.759 200.195 387.13 Q204.802 382.477 205.982 381.135 Q208.228 378.611 209.107 376.875 Q210.01 375.116 210.01 373.426 Q210.01 370.672 208.066 368.936 Q206.145 367.199 203.043 367.199 Q200.844 367.199 198.39 367.963 Q195.959 368.727 193.182 370.278 L193.182 365.556 Q196.006 364.422 198.459 363.843 Q200.913 363.264 202.95 363.264 Q208.32 363.264 211.515 365.949 Q214.709 368.635 214.709 373.125 Q214.709 375.255 213.899 377.176 Q213.112 379.074 211.006 381.667 Q210.427 382.338 207.325 385.556 Q204.223 388.75 198.575 394.514 Z" fill="#000000" fill-rule="nonzero" fill-opacity="1" /><path clip-path="url(#clip970)" d="M224.756 363.889 L243.112 363.889 L243.112 367.824 L229.038 367.824 L229.038 376.297 Q230.056 375.949 231.075 375.787 Q232.093 375.602 233.112 375.602 Q238.899 375.602 242.279 378.773 Q245.658 381.945 245.658 387.361 Q245.658 392.94 242.186 396.042 Q238.714 399.121 232.394 399.121 Q230.218 399.121 227.95 398.75 Q225.705 398.38 223.297 397.639 L223.297 392.94 Q225.381 394.074 227.603 394.63 Q229.825 395.185 232.302 395.185 Q236.306 395.185 238.644 393.079 Q240.982 390.972 240.982 387.361 Q240.982 383.75 238.644 381.644 Q236.306 379.537 232.302 379.537 Q230.427 379.537 228.552 379.954 Q226.7 380.371 224.756 381.25 L224.756 363.889 Z" fill="#000000" fill-rule="nonzero" fill-opacity="1" /><path clip-path="url(#clip970)" d="M14.1184 1077.41 L14.1184 1067.83 L46.4562 1055.71 L14.1184 1043.52 L14.1184 1033.94 L61.6384 1033.94 L61.6384 1040.21 L19.9112 1040.21 L52.5037 1052.46 L52.5037 1058.92 L19.9112 1071.18 L61.6384 1071.18 L61.6384 1077.41 L14.1184 1077.41 Z" fill="#000000" fill-rule="nonzero" fill-opacity="1" /><path clip-path="url(#clip970)" d="M15.678 992.686 L21.9483 992.686 Q20.1977 996.346 19.3383 999.593 Q18.479 1002.84 18.479 1005.86 Q18.479 1011.11 20.516 1013.98 Q22.553 1016.81 26.3088 1016.81 Q29.4598 1016.81 31.0831 1014.93 Q32.6745 1013.02 33.6612 1007.74 L34.4569 1003.86 Q35.8255 996.665 39.2948 993.259 Q42.7323 989.821 48.5251 989.821 Q55.4319 989.821 58.9967 994.468 Q62.5615 999.084 62.5615 1008.03 Q62.5615 1011.4 61.7976 1015.22 Q61.0337 1019.01 59.5378 1023.08 L52.9174 1023.08 Q55.1136 1019.17 56.2276 1015.41 Q57.3416 1011.66 57.3416 1008.03 Q57.3416 1002.52 55.1773 999.529 Q53.0129 996.537 49.0025 996.537 Q45.5014 996.537 43.528 998.702 Q41.5546 1000.83 40.568 1005.74 L39.8041 1009.65 Q38.3718 1016.84 35.3162 1020.06 Q32.2607 1023.27 26.818 1023.27 Q20.516 1023.27 16.8875 1018.85 Q13.2591 1014.39 13.2591 1006.6 Q13.2591 1003.25 13.8638 999.784 Q14.4686 996.314 15.678 992.686 Z" fill="#000000" fill-rule="nonzero" fill-opacity="1" /><path clip-path="url(#clip970)" d="M14.1184 979.795 L14.1184 949.749 L19.5293 949.749 L19.5293 973.366 L33.5975 973.366 L33.5975 950.736 L39.0084 950.736 L39.0084 973.366 L56.2276 973.366 L56.2276 949.176 L61.6384 949.176 L61.6384 979.795 L14.1184 979.795 Z" fill="#000000" fill-rule="nonzero" fill-opacity="1" /><path clip-path="url(#clip970)" d="M14.1184 917.889 L14.1184 911.46 L56.2276 911.46 L56.2276 888.32 L61.6384 888.32 L61.6384 917.889 L14.1184 917.889 Z" fill="#000000" fill-rule="nonzero" fill-opacity="1" /><path clip-path="url(#clip970)" d="M30.0964 869.159 Q30.0964 873.87 33.7885 876.607 Q37.4488 879.345 43.8463 879.345 Q50.2438 879.345 53.9359 876.639 Q57.5962 873.902 57.5962 869.159 Q57.5962 864.481 53.9041 861.743 Q50.212 859.006 43.8463 859.006 Q37.5124 859.006 33.8203 861.743 Q30.0964 864.481 30.0964 869.159 M25.1311 869.159 Q25.1311 861.521 30.0964 857.16 Q35.0616 852.8 43.8463 852.8 Q52.5991 852.8 57.5962 857.16 Q62.5615 861.521 62.5615 869.159 Q62.5615 876.83 57.5962 881.191 Q52.5991 885.519 43.8463 885.519 Q35.0616 885.519 30.0964 881.191 Q25.1311 876.83 25.1311 869.159 Z" fill="#000000" fill-rule="nonzero" fill-opacity="1" /><path clip-path="url(#clip970)" d="M27.0408 820.366 L32.579 820.366 Q31.3059 822.849 30.6693 825.523 Q30.0327 828.196 30.0327 831.061 Q30.0327 835.421 31.3695 837.617 Q32.7063 839.782 35.3799 839.782 Q37.4169 839.782 38.5946 838.222 Q39.7404 836.663 40.7908 831.952 L41.2364 829.947 Q42.5732 823.708 45.0239 821.098 Q47.4429 818.457 51.8034 818.457 Q56.7687 818.457 59.6651 822.403 Q62.5615 826.318 62.5615 833.193 Q62.5615 836.058 61.9886 839.177 Q61.4475 842.264 60.3335 845.702 L54.2861 845.702 Q55.973 842.455 56.8323 839.304 Q57.6599 836.153 57.6599 833.066 Q57.6599 828.928 56.2594 826.7 Q54.8271 824.472 52.249 824.472 Q49.8619 824.472 48.5887 826.095 Q47.3156 827.687 46.1379 833.13 L45.6605 835.167 Q44.5147 840.609 42.1594 843.028 Q39.7722 845.447 35.6345 845.447 Q30.6056 845.447 27.8684 841.882 Q25.1311 838.318 25.1311 831.761 Q25.1311 828.514 25.6085 825.65 Q26.086 822.785 27.0408 820.366 Z" fill="#000000" fill-rule="nonzero" fill-opacity="1" /><path clip-path="url(#clip970)" d="M27.0408 786.405 L32.579 786.405 Q31.3059 788.888 30.6693 791.561 Q30.0327 794.235 30.0327 797.1 Q30.0327 801.46 31.3695 803.656 Q32.7063 805.821 35.3799 805.821 Q37.4169 805.821 38.5946 804.261 Q39.7404 802.701 40.7908 797.991 L41.2364 795.986 Q42.5732 789.747 45.0239 787.137 Q47.4429 784.496 51.8034 784.496 Q56.7687 784.496 59.6651 788.442 Q62.5615 792.357 62.5615 799.232 Q62.5615 802.097 61.9886 805.216 Q61.4475 808.303 60.3335 811.741 L54.2861 811.741 Q55.973 808.494 56.8323 805.343 Q57.6599 802.192 57.6599 799.105 Q57.6599 794.967 56.2594 792.739 Q54.8271 790.511 52.249 790.511 Q49.8619 790.511 48.5887 792.134 Q47.3156 793.726 46.1379 799.169 L45.6605 801.206 Q44.5147 806.648 42.1594 809.067 Q39.7722 811.486 35.6345 811.486 Q30.6056 811.486 27.8684 807.921 Q25.1311 804.357 25.1311 797.8 Q25.1311 794.553 25.6085 791.689 Q26.086 788.824 27.0408 786.405 Z" fill="#000000" fill-rule="nonzero" fill-opacity="1" /><path clip-path="url(#clip970)" d="M1167.75 16.7545 L1167.75 25.383 Q1163.62 21.5346 1158.92 19.6307 Q1154.26 17.7268 1149 17.7268 Q1138.63 17.7268 1133.12 24.0867 Q1127.61 30.4061 1127.61 42.3968 Q1127.61 54.3469 1133.12 60.7069 Q1138.63 67.0263 1149 67.0263 Q1154.26 67.0263 1158.92 65.1223 Q1163.62 63.2184 1167.75 59.3701 L1167.75 67.9175 Q1163.46 70.8341 1158.64 72.2924 Q1153.86 73.7508 1148.51 73.7508 Q1134.78 73.7508 1126.88 65.3654 Q1118.98 56.9395 1118.98 42.3968 Q1118.98 27.8135 1126.88 19.4281 Q1134.78 11.0023 1148.51 11.0023 Q1153.94 11.0023 1158.72 12.4606 Q1163.54 13.8784 1167.75 16.7545 Z" fill="#000000" fill-rule="nonzero" fill-opacity="1" /><path clip-path="url(#clip970)" d="M1200.69 49.7694 Q1191.65 49.7694 1188.17 51.8354 Q1184.69 53.9013 1184.69 58.8839 Q1184.69 62.8538 1187.28 65.2034 Q1189.91 67.5124 1194.41 67.5124 Q1200.61 67.5124 1204.33 63.1374 Q1208.1 58.7219 1208.1 51.4303 L1208.1 49.7694 L1200.69 49.7694 M1215.55 46.6907 L1215.55 72.576 L1208.1 72.576 L1208.1 65.6895 Q1205.55 69.8214 1201.74 71.8063 Q1197.93 73.7508 1192.42 73.7508 Q1185.45 73.7508 1181.32 69.8619 Q1177.23 65.9325 1177.23 59.3701 Q1177.23 51.7138 1182.34 47.825 Q1187.48 43.9361 1197.65 43.9361 L1208.1 43.9361 L1208.1 43.2069 Q1208.1 38.0623 1204.7 35.2672 Q1201.33 32.4315 1195.22 32.4315 Q1191.33 32.4315 1187.64 33.3632 Q1183.96 34.295 1180.55 36.1584 L1180.55 29.2718 Q1184.64 27.692 1188.49 26.9223 Q1192.34 26.1121 1195.99 26.1121 Q1205.83 26.1121 1210.69 31.2163 Q1215.55 36.3204 1215.55 46.6907 Z" fill="#000000" fill-rule="nonzero" fill-opacity="1" /><path clip-path="url(#clip970)" d="M1230.91 9.54393 L1238.36 9.54393 L1238.36 72.576 L1230.91 72.576 L1230.91 9.54393 Z" fill="#000000" fill-rule="nonzero" fill-opacity="1" /><path clip-path="url(#clip970)" d="M1253.96 27.2059 L1261.41 27.2059 L1261.41 72.576 L1253.96 72.576 L1253.96 27.2059 M1253.96 9.54393 L1261.41 9.54393 L1261.41 18.9825 L1253.96 18.9825 L1253.96 9.54393 Z" fill="#000000" fill-rule="nonzero" fill-opacity="1" /><path clip-path="url(#clip970)" d="M1309.57 49.9314 Q1309.57 41.7081 1306.17 37.0496 Q1302.81 32.3505 1296.9 32.3505 Q1290.98 32.3505 1287.58 37.0496 Q1284.22 41.7081 1284.22 49.9314 Q1284.22 58.1548 1287.58 62.8538 Q1290.98 67.5124 1296.9 67.5124 Q1302.81 67.5124 1306.17 62.8538 Q1309.57 58.1548 1309.57 49.9314 M1284.22 34.0924 Q1286.57 30.0415 1290.13 28.0971 Q1293.74 26.1121 1298.72 26.1121 Q1306.98 26.1121 1312.13 32.6746 Q1317.31 39.2371 1317.31 49.9314 Q1317.31 60.6258 1312.13 67.1883 Q1306.98 73.7508 1298.72 73.7508 Q1293.74 73.7508 1290.13 71.8063 Q1286.57 69.8214 1284.22 65.7705 L1284.22 72.576 L1276.72 72.576 L1276.72 9.54393 L1284.22 9.54393 L1284.22 34.0924 Z" fill="#000000" fill-rule="nonzero" fill-opacity="1" /><path clip-path="url(#clip970)" d="M1355.96 34.1734 Q1354.7 33.4443 1353.2 33.1202 Q1351.74 32.7556 1349.96 32.7556 Q1343.64 32.7556 1340.24 36.8875 Q1336.88 40.9789 1336.88 48.6757 L1336.88 72.576 L1329.38 72.576 L1329.38 27.2059 L1336.88 27.2059 L1336.88 34.2544 Q1339.23 30.1225 1342.99 28.1376 Q1346.76 26.1121 1352.15 26.1121 Q1352.92 26.1121 1353.85 26.2337 Q1354.78 26.3147 1355.92 26.5172 L1355.96 34.1734 Z" fill="#000000" fill-rule="nonzero" fill-opacity="1" /><path clip-path="url(#clip970)" d="M1384.39 49.7694 Q1375.36 49.7694 1371.88 51.8354 Q1368.39 53.9013 1368.39 58.8839 Q1368.39 62.8538 1370.99 65.2034 Q1373.62 67.5124 1378.12 67.5124 Q1384.31 67.5124 1388.04 63.1374 Q1391.81 58.7219 1391.81 51.4303 L1391.81 49.7694 L1384.39 49.7694 M1399.26 46.6907 L1399.26 72.576 L1391.81 72.576 L1391.81 65.6895 Q1389.26 69.8214 1385.45 71.8063 Q1381.64 73.7508 1376.13 73.7508 Q1369.16 73.7508 1365.03 69.8619 Q1360.94 65.9325 1360.94 59.3701 Q1360.94 51.7138 1366.04 47.825 Q1371.19 43.9361 1381.36 43.9361 L1391.81 43.9361 L1391.81 43.2069 Q1391.81 38.0623 1388.41 35.2672 Q1385.04 32.4315 1378.93 32.4315 Q1375.04 32.4315 1371.35 33.3632 Q1367.66 34.295 1364.26 36.1584 L1364.26 29.2718 Q1368.35 27.692 1372.2 26.9223 Q1376.05 26.1121 1379.7 26.1121 Q1389.54 26.1121 1394.4 31.2163 Q1399.26 36.3204 1399.26 46.6907 Z" fill="#000000" fill-rule="nonzero" fill-opacity="1" /><path clip-path="url(#clip970)" d="M1421.99 14.324 L1421.99 27.2059 L1437.34 27.2059 L1437.34 32.9987 L1421.99 32.9987 L1421.99 57.6282 Q1421.99 63.1779 1423.49 64.7578 Q1425.03 66.3376 1429.68 66.3376 L1437.34 66.3376 L1437.34 72.576 L1429.68 72.576 Q1421.06 72.576 1417.77 69.3758 Q1414.49 66.1351 1414.49 57.6282 L1414.49 32.9987 L1409.02 32.9987 L1409.02 27.2059 L1414.49 27.2059 L1414.49 14.324 L1421.99 14.324 Z" fill="#000000" fill-rule="nonzero" fill-opacity="1" /><path clip-path="url(#clip970)" d="M1447.14 27.2059 L1454.6 27.2059 L1454.6 72.576 L1447.14 72.576 L1447.14 27.2059 M1447.14 9.54393 L1454.6 9.54393 L1454.6 18.9825 L1447.14 18.9825 L1447.14 9.54393 Z" fill="#000000" fill-rule="nonzero" fill-opacity="1" /><path clip-path="url(#clip970)" d="M1487.77 32.4315 Q1481.78 32.4315 1478.29 37.1306 Q1474.81 41.7891 1474.81 49.9314 Q1474.81 58.0738 1478.25 62.7728 Q1481.74 67.4314 1487.77 67.4314 Q1493.73 67.4314 1497.21 62.7323 Q1500.7 58.0333 1500.7 49.9314 Q1500.7 41.8701 1497.21 37.1711 Q1493.73 32.4315 1487.77 32.4315 M1487.77 26.1121 Q1497.5 26.1121 1503.05 32.4315 Q1508.6 38.7509 1508.6 49.9314 Q1508.6 61.0714 1503.05 67.4314 Q1497.5 73.7508 1487.77 73.7508 Q1478.01 73.7508 1472.46 67.4314 Q1466.95 61.0714 1466.95 49.9314 Q1466.95 38.7509 1472.46 32.4315 Q1478.01 26.1121 1487.77 26.1121 Z" fill="#000000" fill-rule="nonzero" fill-opacity="1" /><path clip-path="url(#clip970)" d="M1558.66 45.1919 L1558.66 72.576 L1551.21 72.576 L1551.21 45.4349 Q1551.21 38.994 1548.7 35.7938 Q1546.19 32.5936 1541.16 32.5936 Q1535.13 32.5936 1531.65 36.4419 Q1528.16 40.2903 1528.16 46.9338 L1528.16 72.576 L1520.67 72.576 L1520.67 27.2059 L1528.16 27.2059 L1528.16 34.2544 Q1530.83 30.163 1534.44 28.1376 Q1538.09 26.1121 1542.83 26.1121 Q1550.64 26.1121 1554.65 30.9732 Q1558.66 35.7938 1558.66 45.1919 Z" fill="#000000" fill-rule="nonzero" fill-opacity="1" /><path clip-path="url(#clip970)" d="M1591.84 12.096 L1643 12.096 L1643 18.9825 L1621.53 18.9825 L1621.53 72.576 L1613.31 72.576 L1613.31 18.9825 L1591.84 18.9825 L1591.84 12.096 Z" fill="#000000" fill-rule="nonzero" fill-opacity="1" /><path clip-path="url(#clip970)" d="M1664.68 34.1734 Q1663.42 33.4443 1661.92 33.1202 Q1660.46 32.7556 1658.68 32.7556 Q1652.36 32.7556 1648.96 36.8875 Q1645.6 40.9789 1645.6 48.6757 L1645.6 72.576 L1638.1 72.576 L1638.1 27.2059 L1645.6 27.2059 L1645.6 34.2544 Q1647.95 30.1225 1651.71 28.1376 Q1655.48 26.1121 1660.87 26.1121 Q1661.64 26.1121 1662.57 26.2337 Q1663.5 26.3147 1664.64 26.5172 L1664.68 34.1734 Z" fill="#000000" fill-rule="nonzero" fill-opacity="1" /><path clip-path="url(#clip970)" d="M1693.11 49.7694 Q1684.08 49.7694 1680.6 51.8354 Q1677.11 53.9013 1677.11 58.8839 Q1677.11 62.8538 1679.71 65.2034 Q1682.34 67.5124 1686.84 67.5124 Q1693.03 67.5124 1696.76 63.1374 Q1700.53 58.7219 1700.53 51.4303 L1700.53 49.7694 L1693.11 49.7694 M1707.98 46.6907 L1707.98 72.576 L1700.53 72.576 L1700.53 65.6895 Q1697.98 69.8214 1694.17 71.8063 Q1690.36 73.7508 1684.85 73.7508 Q1677.88 73.7508 1673.75 69.8619 Q1669.66 65.9325 1669.66 59.3701 Q1669.66 51.7138 1674.76 47.825 Q1679.91 43.9361 1690.08 43.9361 L1700.53 43.9361 L1700.53 43.2069 Q1700.53 38.0623 1697.12 35.2672 Q1693.76 32.4315 1687.65 32.4315 Q1683.76 32.4315 1680.07 33.3632 Q1676.38 34.295 1672.98 36.1584 L1672.98 29.2718 Q1677.07 27.692 1680.92 26.9223 Q1684.77 26.1121 1688.42 26.1121 Q1698.26 26.1121 1703.12 31.2163 Q1707.98 36.3204 1707.98 46.6907 Z" fill="#000000" fill-rule="nonzero" fill-opacity="1" /><path clip-path="url(#clip970)" d="M1755.98 28.9478 L1755.98 35.9153 Q1752.82 34.1734 1749.62 33.3227 Q1746.46 32.4315 1743.22 32.4315 Q1735.97 32.4315 1731.96 37.0496 Q1727.95 41.6271 1727.95 49.9314 Q1727.95 58.2358 1731.96 62.8538 Q1735.97 67.4314 1743.22 67.4314 Q1746.46 67.4314 1749.62 66.5807 Q1752.82 65.6895 1755.98 63.9476 L1755.98 70.8341 Q1752.86 72.2924 1749.5 73.0216 Q1746.18 73.7508 1742.41 73.7508 Q1732.16 73.7508 1726.13 67.3098 Q1720.09 60.8689 1720.09 49.9314 Q1720.09 38.832 1726.17 32.472 Q1732.29 26.1121 1742.9 26.1121 Q1746.34 26.1121 1749.62 26.8413 Q1752.91 27.5299 1755.98 28.9478 Z" fill="#000000" fill-rule="nonzero" fill-opacity="1" /><path clip-path="url(#clip970)" d="M1807.75 48.0275 L1807.75 51.6733 L1773.48 51.6733 Q1773.97 59.3701 1778.1 63.421 Q1782.27 67.4314 1789.69 67.4314 Q1793.98 67.4314 1797.99 66.3781 Q1802.04 65.3249 1806.01 63.2184 L1806.01 70.267 Q1802 71.9684 1797.79 72.8596 Q1793.58 73.7508 1789.24 73.7508 Q1778.39 73.7508 1772.03 67.4314 Q1765.71 61.1119 1765.71 50.3365 Q1765.71 39.1965 1771.7 32.6746 Q1777.74 26.1121 1787.95 26.1121 Q1797.1 26.1121 1802.41 32.0264 Q1807.75 37.9003 1807.75 48.0275 M1800.3 45.84 Q1800.22 39.7232 1796.86 36.0774 Q1793.54 32.4315 1788.03 32.4315 Q1781.79 32.4315 1778.02 35.9558 Q1774.29 39.4801 1773.73 45.8805 L1800.3 45.84 Z" fill="#000000" fill-rule="nonzero" fill-opacity="1" /><polyline clip-path="url(#clip971)" style="stroke:#009af9; stroke-linecap:round; stroke-linejoin:round; stroke-width:4; stroke-opacity:0.3; fill:none" points="352.623,1237.86 363.786,827.356 374.949,1497.13 386.113,1659.97 397.276,783.146 408.439,1616.36 419.602,1642.72 430.766,1492.49 441.929,1554.54 453.092,1504.32 464.255,787.003 475.419,1460.62 486.582,1660.66 497.745,1530.72 508.908,1554.44 520.072,1656.5 531.235,1575.4 542.398,1195.84 553.561,379.707 564.725,800.148 575.888,516.328 587.051,1472.22 598.215,271.421 609.378,1153.21 620.541,538.167 631.704,1528.82 642.868,1500.85 654.031,1672.81 665.194,1498.61 676.357,474.709 687.521,1271.92 698.684,950.654 709.847,1623.27 721.01,1493.59 732.174,675.401 743.337,540.423 754.5,222.256 765.663,1019.83 776.827,965.472 787.99,825.362 799.153,501.1 810.316,711.133 821.48,1256.51 832.643,1039.4 843.806,1619.67 854.969,355.824 866.133,555.926 877.296,1491.51 888.459,1496.76 899.623,1501.11 910.786,1520.94 921.949,1271.29 933.112,757.207 944.276,1679.69 955.439,292.249 966.602,746.128 977.765,1618.36 988.929,1620.28 1000.09,1230.65 1011.26,891.017 1022.42,1481.9 1033.58,1661.1 1044.74,959.195 1055.91,1490.83 1067.07,530.193 1078.23,1174.7 1089.4,1355.12 1100.56,1339.84 1111.72,1575.84 1122.89,351.163 1134.05,1494.57 1145.21,1381.1 1156.38,1618.01 1167.54,1463.05 1178.7,980.463 1189.87,249.783 1201.03,1364.92 1212.19,305.848 1223.36,506.462 1234.52,1494.31 1245.68,480.125 1256.85,1559.14 1268.01,1362.2 1279.17,1172.58 1290.34,1198.08 1301.5,1613.32 1312.66,502.351 1323.83,1243.96 1334.99,1540.09 1346.15,1493.69 1357.32,1476.28 1368.48,285.59 1379.64,580.335 1390.81,379.898 1401.97,1557.24 1413.13,784.613 1424.3,1522.4 1435.46,966.534 1446.62,712.735 1457.79,671.546 1468.95,173.254 1480.11,631.661 1491.28,1195.8 1502.44,1398.29 1513.6,1325.48 1524.76,1644.88 1535.93,852.545 1547.09,327.418 1558.25,1237.55 1569.42,490.678 1580.58,1613.14 1591.74,1687.97 1602.91,1495.5 1614.07,1301.78 1625.23,1332.56 1636.4,402.377 1647.56,1504.88 1658.72,590.289 1669.89,1490.45 1681.05,1280.88 1692.21,1128.02 1703.38,1504.47 1714.54,1184.14 1725.7,1688.65 1736.87,1066.76 1748.03,1347.73 1759.19,611.701 1770.36,1645.94 1781.52,1537.4 1792.68,407.987 1803.85,893.39 1815.01,1253.69 1826.17,1401.67 1837.34,416.248 1848.5,1670.94 1859.66,1098.47 1870.83,802.214 1881.99,1544.36 1893.15,765.83 1904.32,1145.73 1915.48,601.057 1926.64,1623.91 1937.81,915.703 1948.97,1133.89 1960.13,1645.71 1971.3,509.744 1982.46,1654.7 1993.62,481.975 2004.79,1384.82 2015.95,424.044 2027.11,1491.47 2038.27,1429.3 2049.44,997.29 2060.6,325.424 2071.76,329.603 2082.93,1543.22 2094.09,1611.33 2105.25,1686.56 2116.42,927.759 2127.58,1544.46 2138.74,1610.23 2149.91,1610.8 2161.07,1092.42 2172.23,1598.89 2183.4,324.576 2194.56,816.916 2205.72,1553.11 2216.89,1036.74 2228.05,1677.81 2239.21,1271.77 2250.38,865.122 2261.54,711.533 2272.7,763.362 2283.87,1504.3 2295.03,806.631 2306.19,1042.22 2317.36,692.421 2328.52,854.494 2339.68,351.029 2350.85,1675.28 2362.01,229.545 2373.17,1679.07 2384.34,573.377 2395.5,1558.31 2406.66,1409.74 2417.83,491.028 2428.99,1018.82 2440.15,1659.82 2451.32,1501.98 2462.48,1507.71 2473.64,1490.43 2484.81,450.81 2495.97,1617.91 2507.13,580.501 2518.29,1660.13 2529.46,404.562 2540.62,776.53 2551.78,1385.3 2562.95,732.762 2574.11,1498.47 "/>
<polyline clip-path="url(#clip971)" style="stroke:#ff0000; stroke-linecap:round; stroke-linejoin:round; stroke-width:8; stroke-opacity:1; fill:none" points="352.623,1237.86 363.786,1237.86 374.949,1497.13 386.113,1659.97 397.276,1659.97 408.439,1659.97 419.602,1659.97 430.766,1659.97 441.929,1659.97 453.092,1659.97 464.255,1659.97 475.419,1659.97 486.582,1660.66 497.745,1660.66 508.908,1660.66 520.072,1660.66 531.235,1660.66 542.398,1660.66 553.561,1660.66 564.725,1660.66 575.888,1660.66 587.051,1660.66 598.215,1660.66 609.378,1660.66 620.541,1660.66 631.704,1660.66 642.868,1660.66 654.031,1672.81 665.194,1672.81 676.357,1672.81 687.521,1672.81 698.684,1672.81 709.847,1672.81 721.01,1672.81 732.174,1672.81 743.337,1672.81 754.5,1672.81 765.663,1672.81 776.827,1672.81 787.99,1672.81 799.153,1672.81 810.316,1672.81 821.48,1672.81 832.643,1672.81 843.806,1672.81 854.969,1672.81 866.133,1672.81 877.296,1672.81 888.459,1672.81 899.623,1672.81 910.786,1672.81 921.949,1672.81 933.112,1672.81 944.276,1679.69 955.439,1679.69 966.602,1679.69 977.765,1679.69 988.929,1679.69 1000.09,1679.69 1011.26,1679.69 1022.42,1679.69 1033.58,1679.69 1044.74,1679.69 1055.91,1679.69 1067.07,1679.69 1078.23,1679.69 1089.4,1679.69 1100.56,1679.69 1111.72,1679.69 1122.89,1679.69 1134.05,1679.69 1145.21,1679.69 1156.38,1679.69 1167.54,1679.69 1178.7,1679.69 1189.87,1679.69 1201.03,1679.69 1212.19,1679.69 1223.36,1679.69 1234.52,1679.69 1245.68,1679.69 1256.85,1679.69 1268.01,1679.69 1279.17,1679.69 1290.34,1679.69 1301.5,1679.69 1312.66,1679.69 1323.83,1679.69 1334.99,1679.69 1346.15,1679.69 1357.32,1679.69 1368.48,1679.69 1379.64,1679.69 1390.81,1679.69 1401.97,1679.69 1413.13,1679.69 1424.3,1679.69 1435.46,1679.69 1446.62,1679.69 1457.79,1679.69 1468.95,1679.69 1480.11,1679.69 1491.28,1679.69 1502.44,1679.69 1513.6,1679.69 1524.76,1679.69 1535.93,1679.69 1547.09,1679.69 1558.25,1679.69 1569.42,1679.69 1580.58,1679.69 1591.74,1687.97 1602.91,1687.97 1614.07,1687.97 1625.23,1687.97 1636.4,1687.97 1647.56,1687.97 1658.72,1687.97 1669.89,1687.97 1681.05,1687.97 1692.21,1687.97 1703.38,1687.97 1714.54,1687.97 1725.7,1688.65 1736.87,1688.65 1748.03,1688.65 1759.19,1688.65 1770.36,1688.65 1781.52,1688.65 1792.68,1688.65 1803.85,1688.65 1815.01,1688.65 1826.17,1688.65 1837.34,1688.65 1848.5,1688.65 1859.66,1688.65 1870.83,1688.65 1881.99,1688.65 1893.15,1688.65 1904.32,1688.65 1915.48,1688.65 1926.64,1688.65 1937.81,1688.65 1948.97,1688.65 1960.13,1688.65 1971.3,1688.65 1982.46,1688.65 1993.62,1688.65 2004.79,1688.65 2015.95,1688.65 2027.11,1688.65 2038.27,1688.65 2049.44,1688.65 2060.6,1688.65 2071.76,1688.65 2082.93,1688.65 2094.09,1688.65 2105.25,1688.65 2116.42,1688.65 2127.58,1688.65 2138.74,1688.65 2149.91,1688.65 2161.07,1688.65 2172.23,1688.65 2183.4,1688.65 2194.56,1688.65 2205.72,1688.65 2216.89,1688.65 2228.05,1688.65 2239.21,1688.65 2250.38,1688.65 2261.54,1688.65 2272.7,1688.65 2283.87,1688.65 2295.03,1688.65 2306.19,1688.65 2317.36,1688.65 2328.52,1688.65 2339.68,1688.65 2350.85,1688.65 2362.01,1688.65 2373.17,1688.65 2384.34,1688.65 2395.5,1688.65 2406.66,1688.65 2417.83,1688.65 2428.99,1688.65 2440.15,1688.65 2451.32,1688.65 2462.48,1688.65 2473.64,1688.65 2484.81,1688.65 2495.97,1688.65 2507.13,1688.65 2518.29,1688.65 2529.46,1688.65 2540.62,1688.65 2551.78,1688.65 2562.95,1688.65 2574.11,1688.65 "/>
<path clip-path="url(#clip970)" d="M364.471 336.856 L925.988 336.856 L925.988 181.336 L364.471 181.336  Z" fill="#ffffff" fill-rule="evenodd" fill-opacity="1"/>
<polyline clip-path="url(#clip970)" style="stroke:#000000; stroke-linecap:round; stroke-linejoin:round; stroke-width:4; stroke-opacity:1; fill:none" points="364.471,336.856 925.988,336.856 925.988,181.336 364.471,181.336 364.471,336.856 "/>
<polyline clip-path="url(#clip970)" style="stroke:#009af9; stroke-linecap:round; stroke-linejoin:round; stroke-width:4; stroke-opacity:0.3; fill:none" points="390.635,233.176 547.62,233.176 "/>
<path clip-path="url(#clip970)" d="M573.784 215.896 L603.02 215.896 L603.02 219.831 L590.752 219.831 L590.752 250.456 L586.053 250.456 L586.053 219.831 L573.784 219.831 L573.784 215.896 Z" fill="#000000" fill-rule="nonzero" fill-opacity="1" /><path clip-path="url(#clip970)" d="M615.405 228.512 Q614.687 228.095 613.83 227.91 Q612.997 227.702 611.979 227.702 Q608.368 227.702 606.423 230.063 Q604.502 232.401 604.502 236.799 L604.502 250.456 L600.219 250.456 L600.219 224.531 L604.502 224.531 L604.502 228.558 Q605.844 226.197 607.997 225.063 Q610.15 223.906 613.229 223.906 Q613.668 223.906 614.201 223.975 Q614.733 224.021 615.381 224.137 L615.405 228.512 Z" fill="#000000" fill-rule="nonzero" fill-opacity="1" /><path clip-path="url(#clip970)" d="M619.872 224.531 L624.131 224.531 L624.131 250.456 L619.872 250.456 L619.872 224.531 M619.872 214.438 L624.131 214.438 L624.131 219.831 L619.872 219.831 L619.872 214.438 Z" fill="#000000" fill-rule="nonzero" fill-opacity="1" /><path clip-path="url(#clip970)" d="M644.826 237.424 Q639.664 237.424 637.673 238.604 Q635.682 239.785 635.682 242.632 Q635.682 244.901 637.164 246.243 Q638.668 247.563 641.238 247.563 Q644.779 247.563 646.909 245.063 Q649.062 242.54 649.062 238.373 L649.062 237.424 L644.826 237.424 M653.321 235.665 L653.321 250.456 L649.062 250.456 L649.062 246.521 Q647.603 248.882 645.427 250.016 Q643.252 251.128 640.103 251.128 Q636.122 251.128 633.761 248.905 Q631.423 246.66 631.423 242.91 Q631.423 238.535 634.34 236.313 Q637.279 234.091 643.09 234.091 L649.062 234.091 L649.062 233.674 Q649.062 230.734 647.117 229.137 Q645.196 227.517 641.701 227.517 Q639.478 227.517 637.372 228.049 Q635.266 228.581 633.321 229.646 L633.321 225.711 Q635.659 224.808 637.858 224.368 Q640.057 223.906 642.14 223.906 Q647.765 223.906 650.543 226.822 Q653.321 229.739 653.321 235.665 Z" fill="#000000" fill-rule="nonzero" fill-opacity="1" /><path clip-path="url(#clip970)" d="M662.094 214.438 L666.353 214.438 L666.353 250.456 L662.094 250.456 L662.094 214.438 Z" fill="#000000" fill-rule="nonzero" fill-opacity="1" /><path clip-path="url(#clip970)" d="M700.381 227.517 Q696.955 227.517 694.964 230.202 Q692.974 232.864 692.974 237.517 Q692.974 242.169 694.941 244.854 Q696.932 247.516 700.381 247.516 Q703.784 247.516 705.774 244.831 Q707.765 242.146 707.765 237.517 Q707.765 232.91 705.774 230.225 Q703.784 227.517 700.381 227.517 M700.381 223.906 Q705.936 223.906 709.108 227.517 Q712.279 231.128 712.279 237.517 Q712.279 243.882 709.108 247.516 Q705.936 251.128 700.381 251.128 Q694.802 251.128 691.631 247.516 Q688.483 243.882 688.483 237.517 Q688.483 231.128 691.631 227.517 Q694.802 223.906 700.381 223.906 Z" fill="#000000" fill-rule="nonzero" fill-opacity="1" /><path clip-path="url(#clip970)" d="M737.95 237.517 Q737.95 232.817 736.006 230.155 Q734.084 227.47 730.705 227.47 Q727.325 227.47 725.381 230.155 Q723.459 232.817 723.459 237.517 Q723.459 242.216 725.381 244.901 Q727.325 247.563 730.705 247.563 Q734.084 247.563 736.006 244.901 Q737.95 242.216 737.95 237.517 M723.459 228.466 Q724.802 226.151 726.839 225.04 Q728.899 223.906 731.746 223.906 Q736.469 223.906 739.408 227.655 Q742.371 231.405 742.371 237.517 Q742.371 243.628 739.408 247.378 Q736.469 251.128 731.746 251.128 Q728.899 251.128 726.839 250.016 Q724.802 248.882 723.459 246.567 L723.459 250.456 L719.177 250.456 L719.177 214.438 L723.459 214.438 L723.459 228.466 Z" fill="#000000" fill-rule="nonzero" fill-opacity="1" /><path clip-path="url(#clip970)" d="M749.432 224.531 L753.691 224.531 L753.691 250.919 Q753.691 255.873 751.793 258.095 Q749.918 260.317 745.728 260.317 L744.108 260.317 L744.108 256.706 L745.242 256.706 Q747.672 256.706 748.552 255.572 Q749.432 254.461 749.432 250.919 L749.432 224.531 M749.432 214.438 L753.691 214.438 L753.691 219.831 L749.432 219.831 L749.432 214.438 Z" fill="#000000" fill-rule="nonzero" fill-opacity="1" /><path clip-path="url(#clip970)" d="M784.779 236.429 L784.779 238.512 L765.195 238.512 Q765.473 242.91 767.834 245.225 Q770.218 247.516 774.455 247.516 Q776.908 247.516 779.2 246.915 Q781.515 246.313 783.783 245.109 L783.783 249.137 Q781.492 250.109 779.084 250.618 Q776.677 251.128 774.2 251.128 Q767.996 251.128 764.362 247.516 Q760.751 243.905 760.751 237.748 Q760.751 231.382 764.177 227.655 Q767.626 223.906 773.459 223.906 Q778.691 223.906 781.723 227.285 Q784.779 230.642 784.779 236.429 M780.519 235.179 Q780.473 231.683 778.552 229.6 Q776.654 227.517 773.506 227.517 Q769.941 227.517 767.788 229.53 Q765.658 231.544 765.334 235.202 L780.519 235.179 Z" fill="#000000" fill-rule="nonzero" fill-opacity="1" /><path clip-path="url(#clip970)" d="M810.427 225.526 L810.427 229.507 Q808.621 228.512 806.792 228.026 Q804.987 227.517 803.135 227.517 Q798.991 227.517 796.7 230.155 Q794.408 232.771 794.408 237.517 Q794.408 242.262 796.7 244.901 Q798.991 247.516 803.135 247.516 Q804.987 247.516 806.792 247.03 Q808.621 246.521 810.427 245.526 L810.427 249.461 Q808.644 250.294 806.723 250.711 Q804.825 251.128 802.672 251.128 Q796.816 251.128 793.367 247.447 Q789.917 243.767 789.917 237.517 Q789.917 231.174 793.39 227.54 Q796.885 223.906 802.95 223.906 Q804.917 223.906 806.792 224.322 Q808.667 224.716 810.427 225.526 Z" fill="#000000" fill-rule="nonzero" fill-opacity="1" /><path clip-path="url(#clip970)" d="M822.047 217.169 L822.047 224.531 L830.82 224.531 L830.82 227.841 L822.047 227.841 L822.047 241.915 Q822.047 245.086 822.903 245.989 Q823.783 246.891 826.445 246.891 L830.82 246.891 L830.82 250.456 L826.445 250.456 Q821.515 250.456 819.64 248.628 Q817.765 246.776 817.765 241.915 L817.765 227.841 L814.64 227.841 L814.64 224.531 L817.765 224.531 L817.765 217.169 L822.047 217.169 Z" fill="#000000" fill-rule="nonzero" fill-opacity="1" /><path clip-path="url(#clip970)" d="M836.422 224.531 L840.681 224.531 L840.681 250.456 L836.422 250.456 L836.422 224.531 M836.422 214.438 L840.681 214.438 L840.681 219.831 L836.422 219.831 L836.422 214.438 Z" fill="#000000" fill-rule="nonzero" fill-opacity="1" /><path clip-path="url(#clip970)" d="M846.538 224.531 L851.051 224.531 L859.153 246.29 L867.255 224.531 L871.769 224.531 L862.047 250.456 L856.26 250.456 L846.538 224.531 Z" fill="#000000" fill-rule="nonzero" fill-opacity="1" /><path clip-path="url(#clip970)" d="M899.824 236.429 L899.824 238.512 L880.241 238.512 Q880.519 242.91 882.88 245.225 Q885.264 247.516 889.5 247.516 Q891.954 247.516 894.246 246.915 Q896.56 246.313 898.829 245.109 L898.829 249.137 Q896.537 250.109 894.13 250.618 Q891.722 251.128 889.246 251.128 Q883.042 251.128 879.408 247.516 Q875.797 243.905 875.797 237.748 Q875.797 231.382 879.223 227.655 Q882.672 223.906 888.505 223.906 Q893.736 223.906 896.769 227.285 Q899.824 230.642 899.824 236.429 M895.565 235.179 Q895.519 231.683 893.597 229.6 Q891.699 227.517 888.551 227.517 Q884.986 227.517 882.834 229.53 Q880.704 231.544 880.38 235.202 L895.565 235.179 Z" fill="#000000" fill-rule="nonzero" fill-opacity="1" /><polyline clip-path="url(#clip970)" style="stroke:#ff0000; stroke-linecap:round; stroke-linejoin:round; stroke-width:8; stroke-opacity:1; fill:none" points="390.635,285.016 547.62,285.016 "/>
<path clip-path="url(#clip970)" d="M578.46 285.792 L578.46 298.454 L585.96 298.454 Q589.733 298.454 591.539 296.903 Q593.368 295.329 593.368 292.111 Q593.368 288.87 591.539 287.343 Q589.733 285.792 585.96 285.792 L578.46 285.792 M578.46 271.579 L578.46 281.995 L585.382 281.995 Q588.807 281.995 590.474 280.722 Q592.164 279.426 592.164 276.787 Q592.164 274.171 590.474 272.875 Q588.807 271.579 585.382 271.579 L578.46 271.579 M573.784 267.736 L585.729 267.736 Q591.076 267.736 593.969 269.958 Q596.863 272.181 596.863 276.278 Q596.863 279.449 595.381 281.324 Q593.9 283.199 591.03 283.662 Q594.479 284.403 596.377 286.764 Q598.298 289.102 598.298 292.62 Q598.298 297.25 595.15 299.773 Q592.002 302.296 586.192 302.296 L573.784 302.296 L573.784 267.736 Z" fill="#000000" fill-rule="nonzero" fill-opacity="1" /><path clip-path="url(#clip970)" d="M628.298 288.269 L628.298 290.352 L608.715 290.352 Q608.993 294.75 611.354 297.065 Q613.738 299.356 617.974 299.356 Q620.428 299.356 622.719 298.755 Q625.034 298.153 627.303 296.949 L627.303 300.977 Q625.011 301.949 622.604 302.458 Q620.196 302.968 617.719 302.968 Q611.516 302.968 607.881 299.356 Q604.27 295.745 604.27 289.588 Q604.27 283.222 607.696 279.495 Q611.145 275.746 616.979 275.746 Q622.21 275.746 625.242 279.125 Q628.298 282.482 628.298 288.269 M624.039 287.019 Q623.992 283.523 622.071 281.44 Q620.173 279.357 617.025 279.357 Q613.46 279.357 611.307 281.37 Q609.178 283.384 608.854 287.042 L624.039 287.019 Z" fill="#000000" fill-rule="nonzero" fill-opacity="1" /><path clip-path="url(#clip970)" d="M651.816 277.134 L651.816 281.162 Q650.011 280.236 648.066 279.773 Q646.122 279.31 644.039 279.31 Q640.867 279.31 639.27 280.283 Q637.696 281.255 637.696 283.199 Q637.696 284.681 638.83 285.537 Q639.965 286.37 643.39 287.134 L644.849 287.458 Q649.386 288.431 651.284 290.213 Q653.205 291.972 653.205 295.144 Q653.205 298.755 650.335 300.861 Q647.488 302.968 642.488 302.968 Q640.404 302.968 638.136 302.551 Q635.891 302.157 633.391 301.347 L633.391 296.949 Q635.752 298.176 638.043 298.801 Q640.335 299.403 642.58 299.403 Q645.59 299.403 647.21 298.384 Q648.83 297.343 648.83 295.468 Q648.83 293.732 647.65 292.806 Q646.492 291.88 642.534 291.023 L641.053 290.676 Q637.094 289.843 635.335 288.13 Q633.576 286.394 633.576 283.384 Q633.576 279.727 636.168 277.736 Q638.761 275.746 643.529 275.746 Q645.89 275.746 647.974 276.093 Q650.057 276.44 651.816 277.134 Z" fill="#000000" fill-rule="nonzero" fill-opacity="1" /><path clip-path="url(#clip970)" d="M664.201 269.009 L664.201 276.371 L672.974 276.371 L672.974 279.681 L664.201 279.681 L664.201 293.755 Q664.201 296.926 665.057 297.829 Q665.937 298.731 668.599 298.731 L672.974 298.731 L672.974 302.296 L668.599 302.296 Q663.668 302.296 661.793 300.468 Q659.918 298.616 659.918 293.755 L659.918 279.681 L656.793 279.681 L656.793 276.371 L659.918 276.371 L659.918 269.009 L664.201 269.009 Z" fill="#000000" fill-rule="nonzero" fill-opacity="1" /><path clip-path="url(#clip970)" d="M710.173 277.134 L710.173 281.162 Q708.367 280.236 706.423 279.773 Q704.478 279.31 702.395 279.31 Q699.224 279.31 697.626 280.283 Q696.052 281.255 696.052 283.199 Q696.052 284.681 697.186 285.537 Q698.321 286.37 701.747 287.134 L703.205 287.458 Q707.742 288.431 709.64 290.213 Q711.561 291.972 711.561 295.144 Q711.561 298.755 708.691 300.861 Q705.844 302.968 700.844 302.968 Q698.761 302.968 696.492 302.551 Q694.247 302.157 691.747 301.347 L691.747 296.949 Q694.108 298.176 696.399 298.801 Q698.691 299.403 700.936 299.403 Q703.946 299.403 705.566 298.384 Q707.186 297.343 707.186 295.468 Q707.186 293.732 706.006 292.806 Q704.848 291.88 700.89 291.023 L699.409 290.676 Q695.45 289.843 693.691 288.13 Q691.932 286.394 691.932 283.384 Q691.932 279.727 694.524 277.736 Q697.117 275.746 701.886 275.746 Q704.247 275.746 706.33 276.093 Q708.413 276.44 710.173 277.134 Z" fill="#000000" fill-rule="nonzero" fill-opacity="1" /><path clip-path="url(#clip970)" d="M728.39 279.357 Q724.964 279.357 722.973 282.042 Q720.983 284.704 720.983 289.357 Q720.983 294.009 722.95 296.694 Q724.941 299.356 728.39 299.356 Q731.793 299.356 733.784 296.671 Q735.774 293.986 735.774 289.357 Q735.774 284.75 733.784 282.065 Q731.793 279.357 728.39 279.357 M728.39 275.746 Q733.946 275.746 737.117 279.357 Q740.288 282.968 740.288 289.357 Q740.288 295.722 737.117 299.356 Q733.946 302.968 728.39 302.968 Q722.811 302.968 719.64 299.356 Q716.492 295.722 716.492 289.357 Q716.492 282.968 719.64 279.357 Q722.811 275.746 728.39 275.746 Z" fill="#000000" fill-rule="nonzero" fill-opacity="1" /><path clip-path="url(#clip970)" d="M775.543 266.278 L775.543 269.82 L771.468 269.82 Q769.177 269.82 768.274 270.746 Q767.394 271.671 767.394 274.079 L767.394 276.371 L774.408 276.371 L774.408 279.681 L767.394 279.681 L767.394 302.296 L763.112 302.296 L763.112 279.681 L759.038 279.681 L759.038 276.371 L763.112 276.371 L763.112 274.565 Q763.112 270.236 765.126 268.269 Q767.14 266.278 771.515 266.278 L775.543 266.278 Z" fill="#000000" fill-rule="nonzero" fill-opacity="1" /><path clip-path="url(#clip970)" d="M790.89 289.264 Q785.728 289.264 783.737 290.444 Q781.746 291.625 781.746 294.472 Q781.746 296.741 783.228 298.083 Q784.732 299.403 787.302 299.403 Q790.843 299.403 792.973 296.903 Q795.126 294.38 795.126 290.213 L795.126 289.264 L790.89 289.264 M799.385 287.505 L799.385 302.296 L795.126 302.296 L795.126 298.361 Q793.667 300.722 791.492 301.856 Q789.316 302.968 786.167 302.968 Q782.186 302.968 779.825 300.745 Q777.487 298.5 777.487 294.75 Q777.487 290.375 780.404 288.153 Q783.343 285.931 789.154 285.931 L795.126 285.931 L795.126 285.514 Q795.126 282.574 793.181 280.977 Q791.26 279.357 787.765 279.357 Q785.542 279.357 783.436 279.889 Q781.33 280.421 779.385 281.486 L779.385 277.551 Q781.723 276.648 783.922 276.208 Q786.121 275.746 788.205 275.746 Q793.829 275.746 796.607 278.662 Q799.385 281.579 799.385 287.505 Z" fill="#000000" fill-rule="nonzero" fill-opacity="1" /><path clip-path="url(#clip970)" d="M823.181 280.352 Q822.464 279.935 821.607 279.75 Q820.774 279.542 819.755 279.542 Q816.144 279.542 814.2 281.903 Q812.278 284.241 812.278 288.639 L812.278 302.296 L807.996 302.296 L807.996 276.371 L812.278 276.371 L812.278 280.398 Q813.621 278.037 815.774 276.903 Q817.927 275.746 821.005 275.746 Q821.445 275.746 821.977 275.815 Q822.51 275.861 823.158 275.977 L823.181 280.352 Z" fill="#000000" fill-rule="nonzero" fill-opacity="1" /></svg>
