<?xml version="1.0" encoding="utf-8"?>
<svg xmlns="http://www.w3.org/2000/svg" xmlns:xlink="http://www.w3.org/1999/xlink" width="672" height="480" viewBox="0 0 2688 1920">
<defs>
  <clipPath id="clip940">
    <rect x="0" y="0" width="2688" height="1920"/>
  </clipPath>
</defs>
<path clip-path="url(#clip940)" d="M0 1920 L2688 1920 L2688 -4.26326e-14 L0 -4.26326e-14  Z" fill="#ffffff" fill-rule="evenodd" fill-opacity="1"/>
<defs>
  <clipPath id="clip941">
    <rect x="256" y="127" width="2385" height="1607"/>
  </clipPath>
</defs>
<path clip-path="url(#clip940)" d="M256.302 1734.12 L2640.76 1734.12 L2640.76 127.792 L256.302 127.792  Z" fill="#ffffff" fill-rule="evenodd" fill-opacity="1"/>
<polyline clip-path="url(#clip941)" style="stroke:#000000; stroke-linecap:round; stroke-linejoin:round; stroke-width:2; stroke-opacity:0.1; fill:none" points="323.787,1734.12 323.787,127.792 "/>
<polyline clip-path="url(#clip941)" style="stroke:#000000; stroke-linecap:round; stroke-linejoin:round; stroke-width:2; stroke-opacity:0.1; fill:none" points="886.158,1734.12 886.158,127.792 "/>
<polyline clip-path="url(#clip941)" style="stroke:#000000; stroke-linecap:round; stroke-linejoin:round; stroke-width:2; stroke-opacity:0.1; fill:none" points="1448.53,1734.12 1448.53,127.792 "/>
<polyline clip-path="url(#clip941)" style="stroke:#000000; stroke-linecap:round; stroke-linejoin:round; stroke-width:2; stroke-opacity:0.1; fill:none" points="2010.9,1734.12 2010.9,127.792 "/>
<polyline clip-path="url(#clip941)" style="stroke:#000000; stroke-linecap:round; stroke-linejoin:round; stroke-width:2; stroke-opacity:0.1; fill:none" points="2573.27,1734.12 2573.27,127.792 "/>
<polyline clip-path="url(#clip941)" style="stroke:#000000; stroke-linecap:round; stroke-linejoin:round; stroke-width:2; stroke-opacity:0.1; fill:none" points="256.302,1526.82 2640.76,1526.82 "/>
<polyline clip-path="url(#clip941)" style="stroke:#000000; stroke-linecap:round; stroke-linejoin:round; stroke-width:2; stroke-opacity:0.1; fill:none" points="256.302,1232.56 2640.76,1232.56 "/>
<polyline clip-path="url(#clip941)" style="stroke:#000000; stroke-linecap:round; stroke-linejoin:round; stroke-width:2; stroke-opacity:0.1; fill:none" points="256.302,938.311 2640.76,938.311 "/>
<polyline clip-path="url(#clip941)" style="stroke:#000000; stroke-linecap:round; stroke-linejoin:round; stroke-width:2; stroke-opacity:0.1; fill:none" points="256.302,644.058 2640.76,644.058 "/>
<polyline clip-path="url(#clip941)" style="stroke:#000000; stroke-linecap:round; stroke-linejoin:round; stroke-width:2; stroke-opacity:0.1; fill:none" points="256.302,349.806 2640.76,349.806 "/>
<polyline clip-path="url(#clip940)" style="stroke:#000000; stroke-linecap:round; stroke-linejoin:round; stroke-width:4; stroke-opacity:1; fill:none" points="256.302,1734.12 2640.76,1734.12 "/>
<polyline clip-path="url(#clip940)" style="stroke:#000000; stroke-linecap:round; stroke-linejoin:round; stroke-width:4; stroke-opacity:1; fill:none" points="323.787,1734.12 323.787,1715.22 "/>
<polyline clip-path="url(#clip940)" style="stroke:#000000; stroke-linecap:round; stroke-linejoin:round; stroke-width:4; stroke-opacity:1; fill:none" points="886.158,1734.12 886.158,1715.22 "/>
<polyline clip-path="url(#clip940)" style="stroke:#000000; stroke-linecap:round; stroke-linejoin:round; stroke-width:4; stroke-opacity:1; fill:none" points="1448.53,1734.12 1448.53,1715.22 "/>
<polyline clip-path="url(#clip940)" style="stroke:#000000; stroke-linecap:round; stroke-linejoin:round; stroke-width:4; stroke-opacity:1; fill:none" points="2010.9,1734.12 2010.9,1715.22 "/>
<polyline clip-path="url(#clip940)" style="stroke:#000000; stroke-linecap:round; stroke-linejoin:round; stroke-width:4; stroke-opacity:1; fill:none" points="2573.27,1734.12 2573.27,1715.22 "/>
<path clip-path="url(#clip940)" d="M323.787 1767.34 Q320.176 1767.34 318.347 1770.9 Q316.542 1774.45 316.542 1781.58 Q316.542 1788.68 318.347 1792.25 Q320.176 1795.79 323.787 1795.79 Q327.421 1795.79 329.227 1792.25 Q331.055 1788.68 331.055 1781.58 Q331.055 1774.45 329.227 1770.9 Q327.421 1767.34 323.787 1767.34 M323.787 1763.64 Q329.597 1763.64 332.653 1768.24 Q335.731 1772.83 335.731 1781.58 Q335.731 1790.3 332.653 1794.91 Q329.597 1799.49 323.787 1799.49 Q317.977 1799.49 314.898 1794.91 Q311.843 1790.3 311.843 1781.58 Q311.843 1772.83 314.898 1768.24 Q317.977 1763.64 323.787 1763.64 Z" fill="#000000" fill-rule="nonzero" fill-opacity="1" /><path clip-path="url(#clip940)" d="M860.846 1794.89 L868.485 1794.89 L868.485 1768.52 L860.174 1770.19 L860.174 1765.93 L868.438 1764.26 L873.114 1764.26 L873.114 1794.89 L880.753 1794.89 L880.753 1798.82 L860.846 1798.82 L860.846 1794.89 Z" fill="#000000" fill-rule="nonzero" fill-opacity="1" /><path clip-path="url(#clip940)" d="M900.197 1767.34 Q896.586 1767.34 894.758 1770.9 Q892.952 1774.45 892.952 1781.58 Q892.952 1788.68 894.758 1792.25 Q896.586 1795.79 900.197 1795.79 Q903.832 1795.79 905.637 1792.25 Q907.466 1788.68 907.466 1781.58 Q907.466 1774.45 905.637 1770.9 Q903.832 1767.34 900.197 1767.34 M900.197 1763.64 Q906.007 1763.64 909.063 1768.24 Q912.142 1772.83 912.142 1781.58 Q912.142 1790.3 909.063 1794.91 Q906.007 1799.49 900.197 1799.49 Q894.387 1799.49 891.308 1794.91 Q888.253 1790.3 888.253 1781.58 Q888.253 1772.83 891.308 1768.24 Q894.387 1763.64 900.197 1763.64 Z" fill="#000000" fill-rule="nonzero" fill-opacity="1" /><path clip-path="url(#clip940)" d="M1427.3 1794.89 L1443.62 1794.89 L1443.62 1798.82 L1421.68 1798.82 L1421.68 1794.89 Q1424.34 1792.13 1428.92 1787.5 Q1433.53 1782.85 1434.71 1781.51 Q1436.96 1778.98 1437.83 1777.25 Q1438.74 1775.49 1438.74 1773.8 Q1438.74 1771.04 1436.79 1769.31 Q1434.87 1767.57 1431.77 1767.57 Q1429.57 1767.57 1427.12 1768.34 Q1424.69 1769.1 1421.91 1770.65 L1421.91 1765.93 Q1424.73 1764.79 1427.19 1764.21 Q1429.64 1763.64 1431.68 1763.64 Q1437.05 1763.64 1440.24 1766.32 Q1443.44 1769.01 1443.44 1773.5 Q1443.44 1775.63 1442.63 1777.55 Q1441.84 1779.45 1439.73 1782.04 Q1439.15 1782.71 1436.05 1785.93 Q1432.95 1789.12 1427.3 1794.89 Z" fill="#000000" fill-rule="nonzero" fill-opacity="1" /><path clip-path="url(#clip940)" d="M1463.44 1767.34 Q1459.83 1767.34 1458 1770.9 Q1456.19 1774.45 1456.19 1781.58 Q1456.19 1788.68 1458 1792.25 Q1459.83 1795.79 1463.44 1795.79 Q1467.07 1795.79 1468.88 1792.25 Q1470.7 1788.68 1470.7 1781.58 Q1470.7 1774.45 1468.88 1770.9 Q1467.07 1767.34 1463.44 1767.34 M1463.44 1763.64 Q1469.25 1763.64 1472.3 1768.24 Q1475.38 1772.83 1475.38 1781.58 Q1475.38 1790.3 1472.3 1794.91 Q1469.25 1799.49 1463.44 1799.49 Q1457.63 1799.49 1454.55 1794.91 Q1451.49 1790.3 1451.49 1781.58 Q1451.49 1772.83 1454.55 1768.24 Q1457.63 1763.64 1463.44 1763.64 Z" fill="#000000" fill-rule="nonzero" fill-opacity="1" /><path clip-path="url(#clip940)" d="M1999.74 1780.19 Q2003.1 1780.9 2004.97 1783.17 Q2006.87 1785.44 2006.87 1788.77 Q2006.87 1793.89 2003.35 1796.69 Q1999.84 1799.49 1993.35 1799.49 Q1991.18 1799.49 1988.86 1799.05 Q1986.57 1798.64 1984.12 1797.78 L1984.12 1793.27 Q1986.06 1794.4 1988.38 1794.98 Q1990.69 1795.56 1993.22 1795.56 Q1997.61 1795.56 1999.9 1793.82 Q2002.22 1792.08 2002.22 1788.77 Q2002.22 1785.72 2000.07 1784.01 Q1997.94 1782.27 1994.12 1782.27 L1990.09 1782.27 L1990.09 1778.43 L1994.3 1778.43 Q1997.75 1778.43 1999.58 1777.06 Q2001.41 1775.67 2001.41 1773.08 Q2001.41 1770.42 1999.51 1769.01 Q1997.64 1767.57 1994.12 1767.57 Q1992.2 1767.57 1990 1767.99 Q1987.8 1768.4 1985.16 1769.28 L1985.16 1765.12 Q1987.82 1764.38 1990.14 1764.01 Q1992.47 1763.64 1994.53 1763.64 Q1999.86 1763.64 2002.96 1766.07 Q2006.06 1768.47 2006.06 1772.59 Q2006.06 1775.46 2004.42 1777.46 Q2002.78 1779.42 1999.74 1780.19 Z" fill="#000000" fill-rule="nonzero" fill-opacity="1" /><path clip-path="url(#clip940)" d="M2025.74 1767.34 Q2022.13 1767.34 2020.3 1770.9 Q2018.49 1774.45 2018.49 1781.58 Q2018.49 1788.68 2020.3 1792.25 Q2022.13 1795.79 2025.74 1795.79 Q2029.37 1795.79 2031.18 1792.25 Q2033.01 1788.68 2033.01 1781.58 Q2033.01 1774.45 2031.18 1770.9 Q2029.37 1767.34 2025.74 1767.34 M2025.74 1763.64 Q2031.55 1763.64 2034.6 1768.24 Q2037.68 1772.83 2037.68 1781.58 Q2037.68 1790.3 2034.6 1794.91 Q2031.55 1799.49 2025.74 1799.49 Q2019.93 1799.49 2016.85 1794.91 Q2013.79 1790.3 2013.79 1781.58 Q2013.79 1772.83 2016.85 1768.24 Q2019.93 1763.64 2025.74 1763.64 Z" fill="#000000" fill-rule="nonzero" fill-opacity="1" /><path clip-path="url(#clip940)" d="M2561.44 1768.34 L2549.64 1786.78 L2561.44 1786.78 L2561.44 1768.34 M2560.22 1764.26 L2566.1 1764.26 L2566.1 1786.78 L2571.03 1786.78 L2571.03 1790.67 L2566.1 1790.67 L2566.1 1798.82 L2561.44 1798.82 L2561.44 1790.67 L2545.84 1790.67 L2545.84 1786.16 L2560.22 1764.26 Z" fill="#000000" fill-rule="nonzero" fill-opacity="1" /><path clip-path="url(#clip940)" d="M2588.76 1767.34 Q2585.15 1767.34 2583.32 1770.9 Q2581.51 1774.45 2581.51 1781.58 Q2581.51 1788.68 2583.32 1792.25 Q2585.15 1795.79 2588.76 1795.79 Q2592.39 1795.79 2594.2 1792.25 Q2596.03 1788.68 2596.03 1781.58 Q2596.03 1774.45 2594.2 1770.9 Q2592.39 1767.34 2588.76 1767.34 M2588.76 1763.64 Q2594.57 1763.64 2597.62 1768.24 Q2600.7 1772.83 2600.7 1781.58 Q2600.7 1790.3 2597.62 1794.91 Q2594.57 1799.49 2588.76 1799.49 Q2582.95 1799.49 2579.87 1794.91 Q2576.81 1790.3 2576.81 1781.58 Q2576.81 1772.83 2579.87 1768.24 Q2582.95 1763.64 2588.76 1763.64 Z" fill="#000000" fill-rule="nonzero" fill-opacity="1" /><path clip-path="url(#clip940)" d="M1394.77 1841.06 L1394.77 1878.02 L1402.54 1878.02 Q1412.37 1878.02 1416.92 1873.56 Q1421.51 1869.11 1421.51 1859.49 Q1421.51 1849.94 1416.92 1845.52 Q1412.37 1841.06 1402.54 1841.06 L1394.77 1841.06 M1388.34 1835.78 L1401.55 1835.78 Q1415.36 1835.78 1421.83 1841.54 Q1428.29 1847.27 1428.29 1859.49 Q1428.29 1871.78 1421.79 1877.54 Q1415.3 1883.3 1401.55 1883.3 L1388.34 1883.3 L1388.34 1835.78 Z" fill="#000000" fill-rule="nonzero" fill-opacity="1" /><path clip-path="url(#clip940)" d="M1454.48 1865.38 Q1447.38 1865.38 1444.65 1867 Q1441.91 1868.63 1441.91 1872.54 Q1441.91 1875.66 1443.95 1877.51 Q1446.01 1879.32 1449.55 1879.32 Q1454.42 1879.32 1457.35 1875.88 Q1460.31 1872.42 1460.31 1866.69 L1460.31 1865.38 L1454.48 1865.38 M1466.16 1862.96 L1466.16 1883.3 L1460.31 1883.3 L1460.31 1877.89 Q1458.3 1881.14 1455.31 1882.7 Q1452.32 1884.22 1447.99 1884.22 Q1442.51 1884.22 1439.27 1881.17 Q1436.05 1878.08 1436.05 1872.92 Q1436.05 1866.91 1440.06 1863.85 Q1444.11 1860.8 1452.09 1860.8 L1460.31 1860.8 L1460.31 1860.23 Q1460.31 1856.18 1457.63 1853.99 Q1454.99 1851.76 1450.18 1851.76 Q1447.13 1851.76 1444.23 1852.49 Q1441.34 1853.22 1438.66 1854.69 L1438.66 1849.28 Q1441.88 1848.03 1444.9 1847.43 Q1447.92 1846.79 1450.79 1846.79 Q1458.52 1846.79 1462.34 1850.8 Q1466.16 1854.81 1466.16 1862.96 Z" fill="#000000" fill-rule="nonzero" fill-opacity="1" /><path clip-path="url(#clip940)" d="M1493.06 1886.61 Q1490.57 1892.98 1488.22 1894.92 Q1485.86 1896.86 1481.92 1896.86 L1477.24 1896.86 L1477.24 1891.96 L1480.68 1891.96 Q1483.09 1891.96 1484.43 1890.81 Q1485.77 1889.67 1487.39 1885.4 L1488.44 1882.73 L1474.02 1847.65 L1480.23 1847.65 L1491.37 1875.53 L1502.51 1847.65 L1508.72 1847.65 L1493.06 1886.61 Z" fill="#000000" fill-rule="nonzero" fill-opacity="1" /><polyline clip-path="url(#clip940)" style="stroke:#000000; stroke-linecap:round; stroke-linejoin:round; stroke-width:4; stroke-opacity:1; fill:none" points="256.302,1734.12 256.302,127.792 "/>
<polyline clip-path="url(#clip940)" style="stroke:#000000; stroke-linecap:round; stroke-linejoin:round; stroke-width:4; stroke-opacity:1; fill:none" points="256.302,1526.82 275.2,1526.82 "/>
<polyline clip-path="url(#clip940)" style="stroke:#000000; stroke-linecap:round; stroke-linejoin:round; stroke-width:4; stroke-opacity:1; fill:none" points="256.302,1232.56 275.2,1232.56 "/>
<polyline clip-path="url(#clip940)" style="stroke:#000000; stroke-linecap:round; stroke-linejoin:round; stroke-width:4; stroke-opacity:1; fill:none" points="256.302,938.311 275.2,938.311 "/>
<polyline clip-path="url(#clip940)" style="stroke:#000000; stroke-linecap:round; stroke-linejoin:round; stroke-width:4; stroke-opacity:1; fill:none" points="256.302,644.058 275.2,644.058 "/>
<polyline clip-path="url(#clip940)" style="stroke:#000000; stroke-linecap:round; stroke-linejoin:round; stroke-width:4; stroke-opacity:1; fill:none" points="256.302,349.806 275.2,349.806 "/>
<path clip-path="url(#clip940)" d="M130.242 1512.61 Q126.631 1512.61 124.802 1516.18 Q122.997 1519.72 122.997 1526.85 Q122.997 1533.96 124.802 1537.52 Q126.631 1541.06 130.242 1541.06 Q133.876 1541.06 135.682 1537.52 Q137.511 1533.96 137.511 1526.85 Q137.511 1519.72 135.682 1516.18 Q133.876 1512.61 130.242 1512.61 M130.242 1508.91 Q136.052 1508.91 139.108 1513.52 Q142.187 1518.1 142.187 1526.85 Q142.187 1535.58 139.108 1540.18 Q136.052 1544.77 130.242 1544.77 Q124.432 1544.77 121.353 1540.18 Q118.298 1535.58 118.298 1526.85 Q118.298 1518.1 121.353 1513.52 Q124.432 1508.91 130.242 1508.91 Z" fill="#000000" fill-rule="nonzero" fill-opacity="1" /><path clip-path="url(#clip940)" d="M150.404 1538.22 L155.288 1538.22 L155.288 1544.1 L150.404 1544.1 L150.404 1538.22 Z" fill="#000000" fill-rule="nonzero" fill-opacity="1" /><path clip-path="url(#clip940)" d="M175.473 1512.61 Q171.862 1512.61 170.034 1516.18 Q168.228 1519.72 168.228 1526.85 Q168.228 1533.96 170.034 1537.52 Q171.862 1541.06 175.473 1541.06 Q179.108 1541.06 180.913 1537.52 Q182.742 1533.96 182.742 1526.85 Q182.742 1519.72 180.913 1516.18 Q179.108 1512.61 175.473 1512.61 M175.473 1508.91 Q181.284 1508.91 184.339 1513.52 Q187.418 1518.1 187.418 1526.85 Q187.418 1535.58 184.339 1540.18 Q181.284 1544.77 175.473 1544.77 Q169.663 1544.77 166.585 1540.18 Q163.529 1535.58 163.529 1526.85 Q163.529 1518.1 166.585 1513.52 Q169.663 1508.91 175.473 1508.91 Z" fill="#000000" fill-rule="nonzero" fill-opacity="1" /><path clip-path="url(#clip940)" d="M199.663 1540.16 L215.982 1540.16 L215.982 1544.1 L194.038 1544.1 L194.038 1540.16 Q196.7 1537.41 201.283 1532.78 Q205.89 1528.12 207.07 1526.78 Q209.316 1524.26 210.195 1522.52 Q211.098 1520.76 211.098 1519.07 Q211.098 1516.32 209.154 1514.58 Q207.232 1512.85 204.131 1512.85 Q201.932 1512.85 199.478 1513.61 Q197.047 1514.37 194.27 1515.92 L194.27 1511.2 Q197.094 1510.07 199.547 1509.49 Q202.001 1508.91 204.038 1508.91 Q209.408 1508.91 212.603 1511.6 Q215.797 1514.28 215.797 1518.77 Q215.797 1520.9 214.987 1522.82 Q214.2 1524.72 212.094 1527.31 Q211.515 1527.99 208.413 1531.2 Q205.311 1534.4 199.663 1540.16 Z" fill="#000000" fill-rule="nonzero" fill-opacity="1" /><path clip-path="url(#clip940)" d="M128.159 1218.36 Q124.548 1218.36 122.719 1221.93 Q120.913 1225.47 120.913 1232.6 Q120.913 1239.7 122.719 1243.27 Q124.548 1246.81 128.159 1246.81 Q131.793 1246.81 133.599 1243.27 Q135.427 1239.7 135.427 1232.6 Q135.427 1225.47 133.599 1221.93 Q131.793 1218.36 128.159 1218.36 M128.159 1214.66 Q133.969 1214.66 137.025 1219.26 Q140.103 1223.85 140.103 1232.6 Q140.103 1241.32 137.025 1245.93 Q133.969 1250.51 128.159 1250.51 Q122.349 1250.51 119.27 1245.93 Q116.214 1241.32 116.214 1232.6 Q116.214 1223.85 119.27 1219.26 Q122.349 1214.66 128.159 1214.66 Z" fill="#000000" fill-rule="nonzero" fill-opacity="1" /><path clip-path="url(#clip940)" d="M148.321 1243.96 L153.205 1243.96 L153.205 1249.84 L148.321 1249.84 L148.321 1243.96 Z" fill="#000000" fill-rule="nonzero" fill-opacity="1" /><path clip-path="url(#clip940)" d="M173.39 1218.36 Q169.779 1218.36 167.95 1221.93 Q166.145 1225.47 166.145 1232.6 Q166.145 1239.7 167.95 1243.27 Q169.779 1246.81 173.39 1246.81 Q177.024 1246.81 178.83 1243.27 Q180.659 1239.7 180.659 1232.6 Q180.659 1225.47 178.83 1221.93 Q177.024 1218.36 173.39 1218.36 M173.39 1214.66 Q179.2 1214.66 182.256 1219.26 Q185.334 1223.85 185.334 1232.6 Q185.334 1241.32 182.256 1245.93 Q179.2 1250.51 173.39 1250.51 Q167.58 1250.51 164.501 1245.93 Q161.446 1241.32 161.446 1232.6 Q161.446 1223.85 164.501 1219.26 Q167.58 1214.66 173.39 1214.66 Z" fill="#000000" fill-rule="nonzero" fill-opacity="1" /><path clip-path="url(#clip940)" d="M206.399 1219.36 L194.594 1237.81 L206.399 1237.81 L206.399 1219.36 M205.172 1215.28 L211.052 1215.28 L211.052 1237.81 L215.982 1237.81 L215.982 1241.7 L211.052 1241.7 L211.052 1249.84 L206.399 1249.84 L206.399 1241.7 L190.797 1241.7 L190.797 1237.18 L205.172 1215.28 Z" fill="#000000" fill-rule="nonzero" fill-opacity="1" /><path clip-path="url(#clip940)" d="M128.483 924.11 Q124.872 924.11 123.043 927.674 Q121.238 931.216 121.238 938.346 Q121.238 945.452 123.043 949.017 Q124.872 952.558 128.483 952.558 Q132.117 952.558 133.923 949.017 Q135.751 945.452 135.751 938.346 Q135.751 931.216 133.923 927.674 Q132.117 924.11 128.483 924.11 M128.483 920.406 Q134.293 920.406 137.349 925.012 Q140.427 929.596 140.427 938.346 Q140.427 947.072 137.349 951.679 Q134.293 956.262 128.483 956.262 Q122.673 956.262 119.594 951.679 Q116.539 947.072 116.539 938.346 Q116.539 929.596 119.594 925.012 Q122.673 920.406 128.483 920.406 Z" fill="#000000" fill-rule="nonzero" fill-opacity="1" /><path clip-path="url(#clip940)" d="M148.645 949.711 L153.529 949.711 L153.529 955.591 L148.645 955.591 L148.645 949.711 Z" fill="#000000" fill-rule="nonzero" fill-opacity="1" /><path clip-path="url(#clip940)" d="M173.714 924.11 Q170.103 924.11 168.274 927.674 Q166.469 931.216 166.469 938.346 Q166.469 945.452 168.274 949.017 Q170.103 952.558 173.714 952.558 Q177.348 952.558 179.154 949.017 Q180.983 945.452 180.983 938.346 Q180.983 931.216 179.154 927.674 Q177.348 924.11 173.714 924.11 M173.714 920.406 Q179.524 920.406 182.58 925.012 Q185.659 929.596 185.659 938.346 Q185.659 947.072 182.58 951.679 Q179.524 956.262 173.714 956.262 Q167.904 956.262 164.825 951.679 Q161.77 947.072 161.77 938.346 Q161.77 929.596 164.825 925.012 Q167.904 920.406 173.714 920.406 Z" fill="#000000" fill-rule="nonzero" fill-opacity="1" /><path clip-path="url(#clip940)" d="M204.455 936.447 Q201.307 936.447 199.455 938.6 Q197.626 940.753 197.626 944.503 Q197.626 948.23 199.455 950.406 Q201.307 952.558 204.455 952.558 Q207.603 952.558 209.432 950.406 Q211.283 948.23 211.283 944.503 Q211.283 940.753 209.432 938.6 Q207.603 936.447 204.455 936.447 M213.737 921.795 L213.737 926.054 Q211.978 925.221 210.172 924.781 Q208.39 924.341 206.631 924.341 Q202.001 924.341 199.547 927.466 Q197.117 930.591 196.77 936.91 Q198.135 934.897 200.195 933.832 Q202.256 932.744 204.732 932.744 Q209.941 932.744 212.95 935.915 Q215.982 939.063 215.982 944.503 Q215.982 949.827 212.834 953.045 Q209.686 956.262 204.455 956.262 Q198.459 956.262 195.288 951.679 Q192.117 947.072 192.117 938.346 Q192.117 930.151 196.006 925.29 Q199.895 920.406 206.445 920.406 Q208.205 920.406 209.987 920.753 Q211.793 921.1 213.737 921.795 Z" fill="#000000" fill-rule="nonzero" fill-opacity="1" /><path clip-path="url(#clip940)" d="M128.738 629.857 Q125.126 629.857 123.298 633.422 Q121.492 636.963 121.492 644.093 Q121.492 651.199 123.298 654.764 Q125.126 658.306 128.738 658.306 Q132.372 658.306 134.177 654.764 Q136.006 651.199 136.006 644.093 Q136.006 636.963 134.177 633.422 Q132.372 629.857 128.738 629.857 M128.738 626.153 Q134.548 626.153 137.603 630.76 Q140.682 635.343 140.682 644.093 Q140.682 652.82 137.603 657.426 Q134.548 662.01 128.738 662.01 Q122.927 662.01 119.849 657.426 Q116.793 652.82 116.793 644.093 Q116.793 635.343 119.849 630.76 Q122.927 626.153 128.738 626.153 Z" fill="#000000" fill-rule="nonzero" fill-opacity="1" /><path clip-path="url(#clip940)" d="M148.899 655.459 L153.784 655.459 L153.784 661.338 L148.899 661.338 L148.899 655.459 Z" fill="#000000" fill-rule="nonzero" fill-opacity="1" /><path clip-path="url(#clip940)" d="M173.969 629.857 Q170.358 629.857 168.529 633.422 Q166.723 636.963 166.723 644.093 Q166.723 651.199 168.529 654.764 Q170.358 658.306 173.969 658.306 Q177.603 658.306 179.409 654.764 Q181.237 651.199 181.237 644.093 Q181.237 636.963 179.409 633.422 Q177.603 629.857 173.969 629.857 M173.969 626.153 Q179.779 626.153 182.834 630.76 Q185.913 635.343 185.913 644.093 Q185.913 652.82 182.834 657.426 Q179.779 662.01 173.969 662.01 Q168.159 662.01 165.08 657.426 Q162.024 652.82 162.024 644.093 Q162.024 635.343 165.08 630.76 Q168.159 626.153 173.969 626.153 Z" fill="#000000" fill-rule="nonzero" fill-opacity="1" /><path clip-path="url(#clip940)" d="M204.131 644.926 Q200.797 644.926 198.876 646.709 Q196.978 648.491 196.978 651.616 Q196.978 654.741 198.876 656.523 Q200.797 658.306 204.131 658.306 Q207.464 658.306 209.385 656.523 Q211.307 654.718 211.307 651.616 Q211.307 648.491 209.385 646.709 Q207.487 644.926 204.131 644.926 M199.455 642.936 Q196.445 642.195 194.756 640.135 Q193.089 638.075 193.089 635.112 Q193.089 630.968 196.029 628.561 Q198.992 626.153 204.131 626.153 Q209.293 626.153 212.232 628.561 Q215.172 630.968 215.172 635.112 Q215.172 638.075 213.482 640.135 Q211.816 642.195 208.83 642.936 Q212.209 643.723 214.084 646.014 Q215.982 648.306 215.982 651.616 Q215.982 656.639 212.904 659.324 Q209.848 662.01 204.131 662.01 Q198.413 662.01 195.334 659.324 Q192.279 656.639 192.279 651.616 Q192.279 648.306 194.177 646.014 Q196.075 643.723 199.455 642.936 M197.742 635.551 Q197.742 638.237 199.408 639.741 Q201.098 641.246 204.131 641.246 Q207.14 641.246 208.83 639.741 Q210.543 638.237 210.543 635.551 Q210.543 632.866 208.83 631.362 Q207.14 629.857 204.131 629.857 Q201.098 629.857 199.408 631.362 Q197.742 632.866 197.742 635.551 Z" fill="#000000" fill-rule="nonzero" fill-opacity="1" /><path clip-path="url(#clip940)" d="M128.645 335.604 Q125.034 335.604 123.205 339.169 Q121.4 342.711 121.4 349.84 Q121.4 356.947 123.205 360.512 Q125.034 364.053 128.645 364.053 Q132.279 364.053 134.085 360.512 Q135.913 356.947 135.913 349.84 Q135.913 342.711 134.085 339.169 Q132.279 335.604 128.645 335.604 M128.645 331.901 Q134.455 331.901 137.511 336.507 Q140.589 341.09 140.589 349.84 Q140.589 358.567 137.511 363.174 Q134.455 367.757 128.645 367.757 Q122.835 367.757 119.756 363.174 Q116.701 358.567 116.701 349.84 Q116.701 341.09 119.756 336.507 Q122.835 331.901 128.645 331.901 Z" fill="#000000" fill-rule="nonzero" fill-opacity="1" /><path clip-path="url(#clip940)" d="M148.807 361.206 L153.691 361.206 L153.691 367.086 L148.807 367.086 L148.807 361.206 Z" fill="#000000" fill-rule="nonzero" fill-opacity="1" /><path clip-path="url(#clip940)" d="M164.686 363.151 L172.325 363.151 L172.325 336.785 L164.015 338.452 L164.015 334.192 L172.279 332.526 L176.955 332.526 L176.955 363.151 L184.594 363.151 L184.594 367.086 L164.686 367.086 L164.686 363.151 Z" fill="#000000" fill-rule="nonzero" fill-opacity="1" /><path clip-path="url(#clip940)" d="M204.038 335.604 Q200.427 335.604 198.598 339.169 Q196.793 342.711 196.793 349.84 Q196.793 356.947 198.598 360.512 Q200.427 364.053 204.038 364.053 Q207.672 364.053 209.478 360.512 Q211.307 356.947 211.307 349.84 Q211.307 342.711 209.478 339.169 Q207.672 335.604 204.038 335.604 M204.038 331.901 Q209.848 331.901 212.904 336.507 Q215.982 341.09 215.982 349.84 Q215.982 358.567 212.904 363.174 Q209.848 367.757 204.038 367.757 Q198.228 367.757 195.149 363.174 Q192.094 358.567 192.094 349.84 Q192.094 341.09 195.149 336.507 Q198.228 331.901 204.038 331.901 Z" fill="#000000" fill-rule="nonzero" fill-opacity="1" /><path clip-path="url(#clip940)" d="M19.402 1098.4 L37.2578 1098.4 L37.2578 1090.32 Q37.2578 1085.83 34.9343 1083.38 Q32.6108 1080.93 28.314 1080.93 Q24.0489 1080.93 21.7255 1083.38 Q19.402 1085.83 19.402 1090.32 L19.402 1098.4 M14.1184 1104.83 L14.1184 1090.32 Q14.1184 1082.33 17.7469 1078.26 Q21.3435 1074.15 28.314 1074.15 Q35.3481 1074.15 38.9447 1078.26 Q42.5413 1082.33 42.5413 1090.32 L42.5413 1098.4 L61.6384 1098.4 L61.6384 1104.83 L14.1184 1104.83 Z" fill="#000000" fill-rule="nonzero" fill-opacity="1" /><path clip-path="url(#clip940)" d="M31.465 1046.27 Q30.8921 1047.26 30.6375 1048.43 Q30.351 1049.58 30.351 1050.98 Q30.351 1055.95 33.5975 1058.62 Q36.8122 1061.26 42.8596 1061.26 L61.6384 1061.26 L61.6384 1067.15 L25.9905 1067.15 L25.9905 1061.26 L31.5287 1061.26 Q28.2821 1059.41 26.7225 1056.45 Q25.1311 1053.49 25.1311 1049.26 Q25.1311 1048.66 25.2266 1047.92 Q25.2903 1047.19 25.4494 1046.3 L31.465 1046.27 Z" fill="#000000" fill-rule="nonzero" fill-opacity="1" /><path clip-path="url(#clip940)" d="M42.3504 1011.07 L45.2149 1011.07 L45.2149 1037.99 Q51.2623 1037.61 54.4452 1034.37 Q57.5962 1031.09 57.5962 1025.26 Q57.5962 1021.89 56.7687 1018.74 Q55.9411 1015.55 54.2861 1012.44 L59.8242 1012.44 Q61.161 1015.59 61.8612 1018.9 Q62.5615 1022.21 62.5615 1025.61 Q62.5615 1034.14 57.5962 1039.14 Q52.631 1044.1 44.1646 1044.1 Q35.4117 1044.1 30.2873 1039.39 Q25.1311 1034.65 25.1311 1026.63 Q25.1311 1019.44 29.7781 1015.27 Q34.3932 1011.07 42.3504 1011.07 M40.6316 1016.92 Q35.8255 1016.99 32.9609 1019.63 Q30.0964 1022.24 30.0964 1026.57 Q30.0964 1031.47 32.8654 1034.43 Q35.6345 1037.36 40.6634 1037.8 L40.6316 1016.92 Z" fill="#000000" fill-rule="nonzero" fill-opacity="1" /><path clip-path="url(#clip940)" d="M25.9905 1005.66 L25.9905 999.45 L55.9093 988.31 L25.9905 977.17 L25.9905 970.963 L61.6384 984.331 L61.6384 992.288 L25.9905 1005.66 Z" fill="#000000" fill-rule="nonzero" fill-opacity="1" /><path clip-path="url(#clip940)" d="M43.719 946.678 Q43.719 953.776 45.3422 956.513 Q46.9655 959.25 50.8804 959.25 Q53.9996 959.25 55.8457 957.213 Q57.6599 955.144 57.6599 951.611 Q57.6599 946.742 54.2224 943.813 Q50.7531 940.853 45.0239 940.853 L43.719 940.853 L43.719 946.678 M41.3 934.997 L61.6384 934.997 L61.6384 940.853 L56.2276 940.853 Q59.4741 942.858 61.0337 945.85 Q62.5615 948.842 62.5615 953.171 Q62.5615 958.645 59.5059 961.892 Q56.4186 965.107 51.2623 965.107 Q45.2467 965.107 42.1912 961.096 Q39.1357 957.054 39.1357 949.065 L39.1357 940.853 L38.5628 940.853 Q34.5205 940.853 32.3244 943.527 Q30.0964 946.169 30.0964 950.975 Q30.0964 954.03 30.8284 956.927 Q31.5605 959.823 33.0246 962.497 L27.6137 962.497 Q26.3724 959.282 25.7677 956.258 Q25.1311 953.235 25.1311 950.37 Q25.1311 942.636 29.1415 938.816 Q33.1519 934.997 41.3 934.997 Z" fill="#000000" fill-rule="nonzero" fill-opacity="1" /><path clip-path="url(#clip940)" d="M12.1132 922.934 L12.1132 917.077 L61.6384 917.077 L61.6384 922.934 L12.1132 922.934 Z" fill="#000000" fill-rule="nonzero" fill-opacity="1" /><path clip-path="url(#clip940)" d="M42.3504 874.332 L45.2149 874.332 L45.2149 901.259 Q51.2623 900.877 54.4452 897.63 Q57.5962 894.352 57.5962 888.527 Q57.5962 885.153 56.7687 882.002 Q55.9411 878.819 54.2861 875.7 L59.8242 875.7 Q61.161 878.851 61.8612 882.161 Q62.5615 885.472 62.5615 888.877 Q62.5615 897.407 57.5962 902.404 Q52.631 907.37 44.1646 907.37 Q35.4117 907.37 30.2873 902.659 Q25.1311 897.917 25.1311 889.896 Q25.1311 882.702 29.7781 878.533 Q34.3932 874.332 42.3504 874.332 M40.6316 880.188 Q35.8255 880.252 32.9609 882.893 Q30.0964 885.503 30.0964 889.832 Q30.0964 894.734 32.8654 897.694 Q35.6345 900.622 40.6634 901.068 L40.6316 880.188 Z" fill="#000000" fill-rule="nonzero" fill-opacity="1" /><path clip-path="url(#clip940)" d="M40.1224 835.087 L61.6384 835.087 L61.6384 840.943 L40.3133 840.943 Q35.2526 840.943 32.7381 842.917 Q30.2237 844.89 30.2237 848.837 Q30.2237 853.579 33.2474 856.317 Q36.2711 859.054 41.491 859.054 L61.6384 859.054 L61.6384 864.942 L25.9905 864.942 L25.9905 859.054 L31.5287 859.054 Q28.314 856.953 26.7225 854.12 Q25.1311 851.256 25.1311 847.532 Q25.1311 841.389 28.9505 838.238 Q32.7381 835.087 40.1224 835.087 Z" fill="#000000" fill-rule="nonzero" fill-opacity="1" /><path clip-path="url(#clip940)" d="M27.3591 797.752 L32.8336 797.752 Q31.465 800.235 30.7966 802.749 Q30.0964 805.232 30.0964 807.778 Q30.0964 813.475 33.7248 816.626 Q37.3214 819.777 43.8463 819.777 Q50.3711 819.777 53.9996 816.626 Q57.5962 813.475 57.5962 807.778 Q57.5962 805.232 56.9278 802.749 Q56.2276 800.235 54.859 797.752 L60.2698 797.752 Q61.4156 800.203 61.9886 802.845 Q62.5615 805.455 62.5615 808.415 Q62.5615 816.467 57.5007 821.21 Q52.44 825.952 43.8463 825.952 Q35.1253 825.952 30.1282 821.178 Q25.1311 816.372 25.1311 808.033 Q25.1311 805.327 25.704 802.749 Q26.2451 800.171 27.3591 797.752 Z" fill="#000000" fill-rule="nonzero" fill-opacity="1" /><path clip-path="url(#clip940)" d="M42.3504 757.075 L45.2149 757.075 L45.2149 784.002 Q51.2623 783.62 54.4452 780.374 Q57.5962 777.095 57.5962 771.271 Q57.5962 767.897 56.7687 764.746 Q55.9411 761.563 54.2861 758.444 L59.8242 758.444 Q61.161 761.595 61.8612 764.905 Q62.5615 768.215 62.5615 771.621 Q62.5615 780.151 57.5962 785.148 Q52.631 790.113 44.1646 790.113 Q35.4117 790.113 30.2873 785.403 Q25.1311 780.66 25.1311 772.639 Q25.1311 765.446 29.7781 761.277 Q34.3932 757.075 42.3504 757.075 M40.6316 762.932 Q35.8255 762.995 32.9609 765.637 Q30.0964 768.247 30.0964 772.576 Q30.0964 777.477 32.8654 780.437 Q35.6345 783.366 40.6634 783.811 L40.6316 762.932 Z" fill="#000000" fill-rule="nonzero" fill-opacity="1" /><path clip-path="url(#clip940)" d="M1133.57 16.7545 L1133.57 25.383 Q1129.44 21.5346 1124.74 19.6307 Q1120.08 17.7268 1114.82 17.7268 Q1104.45 17.7268 1098.94 24.0867 Q1093.43 30.4061 1093.43 42.3968 Q1093.43 54.3469 1098.94 60.7069 Q1104.45 67.0263 1114.82 67.0263 Q1120.08 67.0263 1124.74 65.1223 Q1129.44 63.2184 1133.57 59.3701 L1133.57 67.9175 Q1129.28 70.8341 1124.46 72.2924 Q1119.68 73.7508 1114.33 73.7508 Q1100.6 73.7508 1092.7 65.3654 Q1084.8 56.9395 1084.8 42.3968 Q1084.8 27.8135 1092.7 19.4281 Q1100.6 11.0023 1114.33 11.0023 Q1119.76 11.0023 1124.54 12.4606 Q1129.36 13.8784 1133.57 16.7545 Z" fill="#000000" fill-rule="nonzero" fill-opacity="1" /><path clip-path="url(#clip940)" d="M1166.51 49.7694 Q1157.47 49.7694 1153.99 51.8354 Q1150.5 53.9013 1150.5 58.8839 Q1150.5 62.8538 1153.1 65.2034 Q1155.73 67.5124 1160.23 67.5124 Q1166.42 67.5124 1170.15 63.1374 Q1173.92 58.7219 1173.92 51.4303 L1173.92 49.7694 L1166.51 49.7694 M1181.37 46.6907 L1181.37 72.576 L1173.92 72.576 L1173.92 65.6895 Q1171.37 69.8214 1167.56 71.8063 Q1163.75 73.7508 1158.24 73.7508 Q1151.27 73.7508 1147.14 69.8619 Q1143.05 65.9325 1143.05 59.3701 Q1143.05 51.7138 1148.15 47.825 Q1153.3 43.9361 1163.47 43.9361 L1173.92 43.9361 L1173.92 43.2069 Q1173.92 38.0623 1170.52 35.2672 Q1167.15 32.4315 1161.04 32.4315 Q1157.15 32.4315 1153.46 33.3632 Q1149.77 34.295 1146.37 36.1584 L1146.37 29.2718 Q1150.46 27.692 1154.31 26.9223 Q1158.16 26.1121 1161.81 26.1121 Q1171.65 26.1121 1176.51 31.2163 Q1181.37 36.3204 1181.37 46.6907 Z" fill="#000000" fill-rule="nonzero" fill-opacity="1" /><path clip-path="url(#clip940)" d="M1196.72 9.54393 L1204.18 9.54393 L1204.18 72.576 L1196.72 72.576 L1196.72 9.54393 Z" fill="#000000" fill-rule="nonzero" fill-opacity="1" /><path clip-path="url(#clip940)" d="M1219.77 27.2059 L1227.23 27.2059 L1227.23 72.576 L1219.77 72.576 L1219.77 27.2059 M1219.77 9.54393 L1227.23 9.54393 L1227.23 18.9825 L1219.77 18.9825 L1219.77 9.54393 Z" fill="#000000" fill-rule="nonzero" fill-opacity="1" /><path clip-path="url(#clip940)" d="M1275.39 49.9314 Q1275.39 41.7081 1271.99 37.0496 Q1268.63 32.3505 1262.71 32.3505 Q1256.8 32.3505 1253.4 37.0496 Q1250.03 41.7081 1250.03 49.9314 Q1250.03 58.1548 1253.4 62.8538 Q1256.8 67.5124 1262.71 67.5124 Q1268.63 67.5124 1271.99 62.8538 Q1275.39 58.1548 1275.39 49.9314 M1250.03 34.0924 Q1252.38 30.0415 1255.95 28.0971 Q1259.55 26.1121 1264.54 26.1121 Q1272.8 26.1121 1277.95 32.6746 Q1283.13 39.2371 1283.13 49.9314 Q1283.13 60.6258 1277.95 67.1883 Q1272.8 73.7508 1264.54 73.7508 Q1259.55 73.7508 1255.95 71.8063 Q1252.38 69.8214 1250.03 65.7705 L1250.03 72.576 L1242.54 72.576 L1242.54 9.54393 L1250.03 9.54393 L1250.03 34.0924 Z" fill="#000000" fill-rule="nonzero" fill-opacity="1" /><path clip-path="url(#clip940)" d="M1321.78 34.1734 Q1320.52 33.4443 1319.02 33.1202 Q1317.56 32.7556 1315.78 32.7556 Q1309.46 32.7556 1306.06 36.8875 Q1302.7 40.9789 1302.7 48.6757 L1302.7 72.576 L1295.2 72.576 L1295.2 27.2059 L1302.7 27.2059 L1302.7 34.2544 Q1305.05 30.1225 1308.81 28.1376 Q1312.58 26.1121 1317.97 26.1121 Q1318.74 26.1121 1319.67 26.2337 Q1320.6 26.3147 1321.74 26.5172 L1321.78 34.1734 Z" fill="#000000" fill-rule="nonzero" fill-opacity="1" /><path clip-path="url(#clip940)" d="M1350.21 49.7694 Q1341.18 49.7694 1337.7 51.8354 Q1334.21 53.9013 1334.21 58.8839 Q1334.21 62.8538 1336.81 65.2034 Q1339.44 67.5124 1343.93 67.5124 Q1350.13 67.5124 1353.86 63.1374 Q1357.63 58.7219 1357.63 51.4303 L1357.63 49.7694 L1350.21 49.7694 M1365.08 46.6907 L1365.08 72.576 L1357.63 72.576 L1357.63 65.6895 Q1355.07 69.8214 1351.27 71.8063 Q1347.46 73.7508 1341.95 73.7508 Q1334.98 73.7508 1330.85 69.8619 Q1326.76 65.9325 1326.76 59.3701 Q1326.76 51.7138 1331.86 47.825 Q1337.01 43.9361 1347.18 43.9361 L1357.63 43.9361 L1357.63 43.2069 Q1357.63 38.0623 1354.22 35.2672 Q1350.86 32.4315 1344.75 32.4315 Q1340.86 32.4315 1337.17 33.3632 Q1333.48 34.295 1330.08 36.1584 L1330.08 29.2718 Q1334.17 27.692 1338.02 26.9223 Q1341.87 26.1121 1345.51 26.1121 Q1355.36 26.1121 1360.22 31.2163 Q1365.08 36.3204 1365.08 46.6907 Z" fill="#000000" fill-rule="nonzero" fill-opacity="1" /><path clip-path="url(#clip940)" d="M1387.81 14.324 L1387.81 27.2059 L1403.16 27.2059 L1403.16 32.9987 L1387.81 32.9987 L1387.81 57.6282 Q1387.81 63.1779 1389.3 64.7578 Q1390.84 66.3376 1395.5 66.3376 L1403.16 66.3376 L1403.16 72.576 L1395.5 72.576 Q1386.87 72.576 1383.59 69.3758 Q1380.31 66.1351 1380.31 57.6282 L1380.31 32.9987 L1374.84 32.9987 L1374.84 27.2059 L1380.31 27.2059 L1380.31 14.324 L1387.81 14.324 Z" fill="#000000" fill-rule="nonzero" fill-opacity="1" /><path clip-path="url(#clip940)" d="M1412.96 27.2059 L1420.42 27.2059 L1420.42 72.576 L1412.96 72.576 L1412.96 27.2059 M1412.96 9.54393 L1420.42 9.54393 L1420.42 18.9825 L1412.96 18.9825 L1412.96 9.54393 Z" fill="#000000" fill-rule="nonzero" fill-opacity="1" /><path clip-path="url(#clip940)" d="M1453.59 32.4315 Q1447.6 32.4315 1444.11 37.1306 Q1440.63 41.7891 1440.63 49.9314 Q1440.63 58.0738 1444.07 62.7728 Q1447.56 67.4314 1453.59 67.4314 Q1459.55 67.4314 1463.03 62.7323 Q1466.52 58.0333 1466.52 49.9314 Q1466.52 41.8701 1463.03 37.1711 Q1459.55 32.4315 1453.59 32.4315 M1453.59 26.1121 Q1463.31 26.1121 1468.86 32.4315 Q1474.41 38.7509 1474.41 49.9314 Q1474.41 61.0714 1468.86 67.4314 Q1463.31 73.7508 1453.59 73.7508 Q1443.83 73.7508 1438.28 67.4314 Q1432.77 61.0714 1432.77 49.9314 Q1432.77 38.7509 1438.28 32.4315 Q1443.83 26.1121 1453.59 26.1121 Z" fill="#000000" fill-rule="nonzero" fill-opacity="1" /><path clip-path="url(#clip940)" d="M1524.48 45.1919 L1524.48 72.576 L1517.03 72.576 L1517.03 45.4349 Q1517.03 38.994 1514.52 35.7938 Q1512.01 32.5936 1506.98 32.5936 Q1500.95 32.5936 1497.46 36.4419 Q1493.98 40.2903 1493.98 46.9338 L1493.98 72.576 L1486.49 72.576 L1486.49 27.2059 L1493.98 27.2059 L1493.98 34.2544 Q1496.65 30.163 1500.26 28.1376 Q1503.91 26.1121 1508.64 26.1121 Q1516.46 26.1121 1520.47 30.9732 Q1524.48 35.7938 1524.48 45.1919 Z" fill="#000000" fill-rule="nonzero" fill-opacity="1" /><path clip-path="url(#clip940)" d="M1594.73 44.2197 Q1597.36 45.1109 1599.83 48.0275 Q1602.34 50.9442 1604.85 56.0483 L1613.16 72.576 L1604.37 72.576 L1596.63 57.061 Q1593.63 50.9847 1590.8 48.9997 Q1588 47.0148 1583.14 47.0148 L1574.23 47.0148 L1574.23 72.576 L1566.05 72.576 L1566.05 12.096 L1584.52 12.096 Q1594.89 12.096 1599.99 16.4305 Q1605.1 20.7649 1605.1 29.5149 Q1605.1 35.2267 1602.42 38.994 Q1599.79 42.7613 1594.73 44.2197 M1574.23 18.8205 L1574.23 40.2903 L1584.52 40.2903 Q1590.43 40.2903 1593.43 37.5762 Q1596.47 34.8216 1596.47 29.5149 Q1596.47 24.2082 1593.43 21.5346 Q1590.43 18.8205 1584.52 18.8205 L1574.23 18.8205 Z" fill="#000000" fill-rule="nonzero" fill-opacity="1" /><path clip-path="url(#clip940)" d="M1658.45 48.0275 L1658.45 51.6733 L1624.18 51.6733 Q1624.66 59.3701 1628.79 63.421 Q1632.97 67.4314 1640.38 67.4314 Q1644.67 67.4314 1648.68 66.3781 Q1652.74 65.3249 1656.71 63.2184 L1656.71 70.267 Q1652.69 71.9684 1648.48 72.8596 Q1644.27 73.7508 1639.93 73.7508 Q1629.08 73.7508 1622.72 67.4314 Q1616.4 61.1119 1616.4 50.3365 Q1616.4 39.1965 1622.39 32.6746 Q1628.43 26.1121 1638.64 26.1121 Q1647.79 26.1121 1653.1 32.0264 Q1658.45 37.9003 1658.45 48.0275 M1650.99 45.84 Q1650.91 39.7232 1647.55 36.0774 Q1644.23 32.4315 1638.72 32.4315 Q1632.48 32.4315 1628.71 35.9558 Q1624.99 39.4801 1624.42 45.8805 L1650.99 45.84 Z" fill="#000000" fill-rule="nonzero" fill-opacity="1" /><path clip-path="url(#clip940)" d="M1699.6 28.5427 L1699.6 35.5912 Q1696.44 33.9709 1693.04 33.1607 Q1689.64 32.3505 1685.99 32.3505 Q1680.44 32.3505 1677.65 34.0519 Q1674.89 35.7533 1674.89 39.156 Q1674.89 41.7486 1676.88 43.2475 Q1678.86 44.7058 1684.86 46.0426 L1687.41 46.6097 Q1695.35 48.3111 1698.67 51.4303 Q1702.03 54.509 1702.03 60.0587 Q1702.03 66.3781 1697.01 70.0644 Q1692.03 73.7508 1683.28 73.7508 Q1679.63 73.7508 1675.66 73.0216 Q1671.73 72.3329 1667.36 70.9151 L1667.36 63.2184 Q1671.49 65.3654 1675.5 66.4591 Q1679.51 67.5124 1683.44 67.5124 Q1688.71 67.5124 1691.54 65.73 Q1694.38 63.9071 1694.38 60.6258 Q1694.38 57.5877 1692.31 55.9673 Q1690.29 54.3469 1683.36 52.8481 L1680.77 52.2405 Q1673.84 50.7821 1670.76 47.7845 Q1667.68 44.7463 1667.68 39.4801 Q1667.68 33.0797 1672.22 29.5959 Q1676.76 26.1121 1685.1 26.1121 Q1689.23 26.1121 1692.88 26.7198 Q1696.53 27.3274 1699.6 28.5427 Z" fill="#000000" fill-rule="nonzero" fill-opacity="1" /><path clip-path="url(#clip940)" d="M1713.13 54.671 L1713.13 27.2059 L1720.59 27.2059 L1720.59 54.3874 Q1720.59 60.8284 1723.1 64.0691 Q1725.61 67.2693 1730.63 67.2693 Q1736.67 67.2693 1740.15 63.421 Q1743.68 59.5726 1743.68 52.9291 L1743.68 27.2059 L1751.13 27.2059 L1751.13 72.576 L1743.68 72.576 L1743.68 65.6084 Q1740.96 69.7404 1737.36 71.7658 Q1733.79 73.7508 1729.05 73.7508 Q1721.24 73.7508 1717.19 68.8897 Q1713.13 64.0286 1713.13 54.671 M1731.89 26.1121 L1731.89 26.1121 Z" fill="#000000" fill-rule="nonzero" fill-opacity="1" /><path clip-path="url(#clip940)" d="M1766.48 9.54393 L1773.94 9.54393 L1773.94 72.576 L1766.48 72.576 L1766.48 9.54393 Z" fill="#000000" fill-rule="nonzero" fill-opacity="1" /><path clip-path="url(#clip940)" d="M1796.91 14.324 L1796.91 27.2059 L1812.26 27.2059 L1812.26 32.9987 L1796.91 32.9987 L1796.91 57.6282 Q1796.91 63.1779 1798.41 64.7578 Q1799.95 66.3376 1804.6 66.3376 L1812.26 66.3376 L1812.26 72.576 L1804.6 72.576 Q1795.98 72.576 1792.69 69.3758 Q1789.41 66.1351 1789.41 57.6282 L1789.41 32.9987 L1783.94 32.9987 L1783.94 27.2059 L1789.41 27.2059 L1789.41 14.324 L1796.91 14.324 Z" fill="#000000" fill-rule="nonzero" fill-opacity="1" /><polyline clip-path="url(#clip941)" style="stroke:#000000; stroke-linecap:round; stroke-linejoin:round; stroke-width:8; stroke-opacity:1; fill:none" stroke-dasharray="32, 20" points="323.787,1615.09 380.024,1629.8 436.261,1556.24 492.498,1467.97 548.735,1350.26 604.973,1247.28 661.21,1203.14 717.447,1291.41 773.684,1159 829.921,1129.58 886.158,1041.3 942.395,1026.59 998.632,864.748 1054.87,820.61 1111.11,791.185 1167.34,614.633 1223.58,452.794 1279.82,379.231 1336.05,364.518 1392.29,173.254 1448.53,246.817 1504.77,408.656 1561,335.093 1617.24,585.208 1673.48,702.909 1729.71,761.759 1785.95,688.196 1842.19,894.173 1898.43,923.598 1954.66,1070.72 2010.9,1085.44 2067.14,1011.87 2123.37,1056.01 2179.61,1085.44 2235.85,1114.86 2292.09,1114.86 2348.32,1114.86 2404.56,1217.85 2460.8,1320.84 2517.03,1306.13 2573.27,1438.54 "/>
<polyline clip-path="url(#clip941)" style="stroke:#ff0000; stroke-linecap:round; stroke-linejoin:round; stroke-width:8; stroke-opacity:1; fill:none" points="323.787,1629.8 380.024,1688.65 436.261,1615.09 492.498,1541.53 548.735,1482.68 604.973,1364.98 661.21,1320.84 717.447,1247.28 773.684,1291.41 829.921,1011.87 886.158,1085.44 942.395,938.311 998.632,776.472 1054.87,820.61 1111.11,850.035 1167.34,894.173 1223.58,894.173 1279.82,791.185 1336.05,747.047 1392.29,747.047 1448.53,820.61 1504.77,732.334 1561,644.058 1617.24,894.173 1673.48,1026.59 1729.71,1011.87 1785.95,953.023 1842.19,982.449 1898.43,908.886 1954.66,982.449 2010.9,923.598 2067.14,923.598 2123.37,923.598 2179.61,967.736 2235.85,1070.72 2292.09,1011.87 2348.32,997.161 2404.56,1070.72 2460.8,1173.71 2517.03,1173.71 2573.27,1247.28 "/>
<path clip-path="url(#clip940)" d="M1875.15 336.856 L2561.27 336.856 L2561.27 181.336 L1875.15 181.336  Z" fill="#ffffff" fill-rule="evenodd" fill-opacity="1"/>
<polyline clip-path="url(#clip940)" style="stroke:#000000; stroke-linecap:round; stroke-linejoin:round; stroke-width:4; stroke-opacity:1; fill:none" points="1875.15,336.856 2561.27,336.856 2561.27,181.336 1875.15,181.336 1875.15,336.856 "/>
<polyline clip-path="url(#clip940)" style="stroke:#000000; stroke-linecap:round; stroke-linejoin:round; stroke-width:8; stroke-opacity:1; fill:none" stroke-dasharray="32, 20" points="1901.64,233.176 2060.6,233.176 "/>
<path clip-path="url(#clip940)" d="M2087.1 215.896 L2116.33 215.896 L2116.33 219.831 L2104.06 219.831 L2104.06 250.456 L2099.37 250.456 L2099.37 219.831 L2087.1 219.831 L2087.1 215.896 Z" fill="#000000" fill-rule="nonzero" fill-opacity="1" /><path clip-path="url(#clip940)" d="M2124.6 237.424 Q2119.44 237.424 2117.44 238.604 Q2115.45 239.785 2115.45 242.632 Q2115.45 244.901 2116.94 246.243 Q2118.44 247.563 2121.01 247.563 Q2124.55 247.563 2126.68 245.063 Q2128.83 242.54 2128.83 238.373 L2128.83 237.424 L2124.6 237.424 M2133.09 235.665 L2133.09 250.456 L2128.83 250.456 L2128.83 246.521 Q2127.37 248.882 2125.2 250.016 Q2123.02 251.128 2119.88 251.128 Q2115.89 251.128 2113.53 248.905 Q2111.19 246.66 2111.19 242.91 Q2111.19 238.535 2114.11 236.313 Q2117.05 234.091 2122.86 234.091 L2128.83 234.091 L2128.83 233.674 Q2128.83 230.734 2126.89 229.137 Q2124.97 227.517 2121.47 227.517 Q2119.25 227.517 2117.14 228.049 Q2115.04 228.581 2113.09 229.646 L2113.09 225.711 Q2115.43 224.808 2117.63 224.368 Q2119.83 223.906 2121.91 223.906 Q2127.54 223.906 2130.31 226.822 Q2133.09 229.739 2133.09 235.665 Z" fill="#000000" fill-rule="nonzero" fill-opacity="1" /><path clip-path="url(#clip940)" d="M2156.89 228.512 Q2156.17 228.095 2155.31 227.91 Q2154.48 227.702 2153.46 227.702 Q2149.85 227.702 2147.91 230.063 Q2145.99 232.401 2145.99 236.799 L2145.99 250.456 L2141.7 250.456 L2141.7 224.531 L2145.99 224.531 L2145.99 228.558 Q2147.33 226.197 2149.48 225.063 Q2151.63 223.906 2154.71 223.906 Q2155.15 223.906 2155.69 223.975 Q2156.22 224.021 2156.87 224.137 L2156.89 228.512 Z" fill="#000000" fill-rule="nonzero" fill-opacity="1" /><path clip-path="url(#clip940)" d="M2177.58 237.192 Q2177.58 232.563 2175.66 230.017 Q2173.76 227.47 2170.31 227.47 Q2166.89 227.47 2164.97 230.017 Q2163.07 232.563 2163.07 237.192 Q2163.07 241.799 2164.97 244.345 Q2166.89 246.891 2170.31 246.891 Q2173.76 246.891 2175.66 244.345 Q2177.58 241.799 2177.58 237.192 M2181.84 247.239 Q2181.84 253.859 2178.9 257.077 Q2175.96 260.317 2169.9 260.317 Q2167.65 260.317 2165.66 259.97 Q2163.67 259.646 2161.8 258.952 L2161.8 254.808 Q2163.67 255.827 2165.5 256.313 Q2167.33 256.799 2169.23 256.799 Q2173.42 256.799 2175.5 254.6 Q2177.58 252.424 2177.58 248.003 L2177.58 245.896 Q2176.26 248.188 2174.2 249.322 Q2172.14 250.456 2169.27 250.456 Q2164.5 250.456 2161.59 246.822 Q2158.67 243.188 2158.67 237.192 Q2158.67 231.174 2161.59 227.54 Q2164.5 223.906 2169.27 223.906 Q2172.14 223.906 2174.2 225.04 Q2176.26 226.174 2177.58 228.466 L2177.58 224.531 L2181.84 224.531 L2181.84 247.239 Z" fill="#000000" fill-rule="nonzero" fill-opacity="1" /><path clip-path="url(#clip940)" d="M2212.79 236.429 L2212.79 238.512 L2193.21 238.512 Q2193.49 242.91 2195.85 245.225 Q2198.23 247.516 2202.47 247.516 Q2204.92 247.516 2207.21 246.915 Q2209.53 246.313 2211.8 245.109 L2211.8 249.137 Q2209.5 250.109 2207.1 250.618 Q2204.69 251.128 2202.21 251.128 Q2196.01 251.128 2192.37 247.516 Q2188.76 243.905 2188.76 237.748 Q2188.76 231.382 2192.19 227.655 Q2195.64 223.906 2201.47 223.906 Q2206.7 223.906 2209.74 227.285 Q2212.79 230.642 2212.79 236.429 M2208.53 235.179 Q2208.49 231.683 2206.56 229.6 Q2204.67 227.517 2201.52 227.517 Q2197.95 227.517 2195.8 229.53 Q2193.67 231.544 2193.35 235.202 L2208.53 235.179 Z" fill="#000000" fill-rule="nonzero" fill-opacity="1" /><path clip-path="url(#clip940)" d="M2223.99 217.169 L2223.99 224.531 L2232.77 224.531 L2232.77 227.841 L2223.99 227.841 L2223.99 241.915 Q2223.99 245.086 2224.85 245.989 Q2225.73 246.891 2228.39 246.891 L2232.77 246.891 L2232.77 250.456 L2228.39 250.456 Q2223.46 250.456 2221.59 248.628 Q2219.71 246.776 2219.71 241.915 L2219.71 227.841 L2216.59 227.841 L2216.59 224.531 L2219.71 224.531 L2219.71 217.169 L2223.99 217.169 Z" fill="#000000" fill-rule="nonzero" fill-opacity="1" /><path clip-path="url(#clip940)" d="M2270.5 228.466 L2270.5 214.438 L2274.76 214.438 L2274.76 250.456 L2270.5 250.456 L2270.5 246.567 Q2269.16 248.882 2267.1 250.016 Q2265.06 251.128 2262.19 251.128 Q2257.49 251.128 2254.53 247.378 Q2251.59 243.628 2251.59 237.517 Q2251.59 231.405 2254.53 227.655 Q2257.49 223.906 2262.19 223.906 Q2265.06 223.906 2267.1 225.04 Q2269.16 226.151 2270.5 228.466 M2255.99 237.517 Q2255.99 242.216 2257.91 244.901 Q2259.85 247.563 2263.23 247.563 Q2266.61 247.563 2268.55 244.901 Q2270.5 242.216 2270.5 237.517 Q2270.5 232.817 2268.55 230.155 Q2266.61 227.47 2263.23 227.47 Q2259.85 227.47 2257.91 230.155 Q2255.99 232.817 2255.99 237.517 Z" fill="#000000" fill-rule="nonzero" fill-opacity="1" /><path clip-path="url(#clip940)" d="M2295.31 237.424 Q2290.15 237.424 2288.16 238.604 Q2286.17 239.785 2286.17 242.632 Q2286.17 244.901 2287.65 246.243 Q2289.16 247.563 2291.73 247.563 Q2295.27 247.563 2297.4 245.063 Q2299.55 242.54 2299.55 238.373 L2299.55 237.424 L2295.31 237.424 M2303.81 235.665 L2303.81 250.456 L2299.55 250.456 L2299.55 246.521 Q2298.09 248.882 2295.92 250.016 Q2293.74 251.128 2290.59 251.128 Q2286.61 251.128 2284.25 248.905 Q2281.91 246.66 2281.91 242.91 Q2281.91 238.535 2284.83 236.313 Q2287.77 234.091 2293.58 234.091 L2299.55 234.091 L2299.55 233.674 Q2299.55 230.734 2297.61 229.137 Q2295.68 227.517 2292.19 227.517 Q2289.97 227.517 2287.86 228.049 Q2285.75 228.581 2283.81 229.646 L2283.81 225.711 Q2286.15 224.808 2288.35 224.368 Q2290.55 223.906 2292.63 223.906 Q2298.25 223.906 2301.03 226.822 Q2303.81 229.739 2303.81 235.665 Z" fill="#000000" fill-rule="nonzero" fill-opacity="1" /><path clip-path="url(#clip940)" d="M2316.8 217.169 L2316.8 224.531 L2325.57 224.531 L2325.57 227.841 L2316.8 227.841 L2316.8 241.915 Q2316.8 245.086 2317.65 245.989 Q2318.53 246.891 2321.19 246.891 L2325.57 246.891 L2325.57 250.456 L2321.19 250.456 Q2316.26 250.456 2314.39 248.628 Q2312.51 246.776 2312.51 241.915 L2312.51 227.841 L2309.39 227.841 L2309.39 224.531 L2312.51 224.531 L2312.51 217.169 L2316.8 217.169 Z" fill="#000000" fill-rule="nonzero" fill-opacity="1" /><path clip-path="url(#clip940)" d="M2342.95 237.424 Q2337.79 237.424 2335.8 238.604 Q2333.81 239.785 2333.81 242.632 Q2333.81 244.901 2335.29 246.243 Q2336.8 247.563 2339.36 247.563 Q2342.91 247.563 2345.04 245.063 Q2347.19 242.54 2347.19 238.373 L2347.19 237.424 L2342.95 237.424 M2351.45 235.665 L2351.45 250.456 L2347.19 250.456 L2347.19 246.521 Q2345.73 248.882 2343.55 250.016 Q2341.38 251.128 2338.23 251.128 Q2334.25 251.128 2331.89 248.905 Q2329.55 246.66 2329.55 242.91 Q2329.55 238.535 2332.47 236.313 Q2335.41 234.091 2341.22 234.091 L2347.19 234.091 L2347.19 233.674 Q2347.19 230.734 2345.24 229.137 Q2343.32 227.517 2339.83 227.517 Q2337.61 227.517 2335.5 228.049 Q2333.39 228.581 2331.45 229.646 L2331.45 225.711 Q2333.79 224.808 2335.98 224.368 Q2338.18 223.906 2340.27 223.906 Q2345.89 223.906 2348.67 226.822 Q2351.45 229.739 2351.45 235.665 Z" fill="#000000" fill-rule="nonzero" fill-opacity="1" /><polyline clip-path="url(#clip940)" style="stroke:#ff0000; stroke-linecap:round; stroke-linejoin:round; stroke-width:8; stroke-opacity:1; fill:none" points="1901.64,285.016 2060.6,285.016 "/>
<path clip-path="url(#clip940)" d="M2091.77 285.792 L2091.77 298.454 L2099.27 298.454 Q2103.05 298.454 2104.85 296.903 Q2106.68 295.329 2106.68 292.111 Q2106.68 288.87 2104.85 287.343 Q2103.05 285.792 2099.27 285.792 L2091.77 285.792 M2091.77 271.579 L2091.77 281.995 L2098.69 281.995 Q2102.12 281.995 2103.79 280.722 Q2105.48 279.426 2105.48 276.787 Q2105.48 274.171 2103.79 272.875 Q2102.12 271.579 2098.69 271.579 L2091.77 271.579 M2087.1 267.736 L2099.04 267.736 Q2104.39 267.736 2107.28 269.958 Q2110.18 272.181 2110.18 276.278 Q2110.18 279.449 2108.69 281.324 Q2107.21 283.199 2104.34 283.662 Q2107.79 284.403 2109.69 286.764 Q2111.61 289.102 2111.61 292.62 Q2111.61 297.25 2108.46 299.773 Q2105.31 302.296 2099.5 302.296 L2087.1 302.296 L2087.1 267.736 Z" fill="#000000" fill-rule="nonzero" fill-opacity="1" /><path clip-path="url(#clip940)" d="M2141.61 288.269 L2141.61 290.352 L2122.03 290.352 Q2122.31 294.75 2124.67 297.065 Q2127.05 299.356 2131.29 299.356 Q2133.74 299.356 2136.03 298.755 Q2138.35 298.153 2140.62 296.949 L2140.62 300.977 Q2138.32 301.949 2135.92 302.458 Q2133.51 302.968 2131.03 302.968 Q2124.83 302.968 2121.19 299.356 Q2117.58 295.745 2117.58 289.588 Q2117.58 283.222 2121.01 279.495 Q2124.46 275.746 2130.29 275.746 Q2135.52 275.746 2138.56 279.125 Q2141.61 282.482 2141.61 288.269 M2137.35 287.019 Q2137.31 283.523 2135.38 281.44 Q2133.49 279.357 2130.34 279.357 Q2126.77 279.357 2124.62 281.37 Q2122.49 283.384 2122.17 287.042 L2137.35 287.019 Z" fill="#000000" fill-rule="nonzero" fill-opacity="1" /><path clip-path="url(#clip940)" d="M2165.13 277.134 L2165.13 281.162 Q2163.32 280.236 2161.38 279.773 Q2159.43 279.31 2157.35 279.31 Q2154.18 279.31 2152.58 280.283 Q2151.01 281.255 2151.01 283.199 Q2151.01 284.681 2152.14 285.537 Q2153.28 286.37 2156.7 287.134 L2158.16 287.458 Q2162.7 288.431 2164.6 290.213 Q2166.52 291.972 2166.52 295.144 Q2166.52 298.755 2163.65 300.861 Q2160.8 302.968 2155.8 302.968 Q2153.72 302.968 2151.45 302.551 Q2149.2 302.157 2146.7 301.347 L2146.7 296.949 Q2149.06 298.176 2151.36 298.801 Q2153.65 299.403 2155.89 299.403 Q2158.9 299.403 2160.52 298.384 Q2162.14 297.343 2162.14 295.468 Q2162.14 293.732 2160.96 292.806 Q2159.81 291.88 2155.85 291.023 L2154.37 290.676 Q2150.41 289.843 2148.65 288.13 Q2146.89 286.394 2146.89 283.384 Q2146.89 279.727 2149.48 277.736 Q2152.07 275.746 2156.84 275.746 Q2159.2 275.746 2161.29 276.093 Q2163.37 276.44 2165.13 277.134 Z" fill="#000000" fill-rule="nonzero" fill-opacity="1" /><path clip-path="url(#clip940)" d="M2177.51 269.009 L2177.51 276.371 L2186.29 276.371 L2186.29 279.681 L2177.51 279.681 L2177.51 293.755 Q2177.51 296.926 2178.37 297.829 Q2179.25 298.731 2181.91 298.731 L2186.29 298.731 L2186.29 302.296 L2181.91 302.296 Q2176.98 302.296 2175.11 300.468 Q2173.23 298.616 2173.23 293.755 L2173.23 279.681 L2170.11 279.681 L2170.11 276.371 L2173.23 276.371 L2173.23 269.009 L2177.51 269.009 Z" fill="#000000" fill-rule="nonzero" fill-opacity="1" /><path clip-path="url(#clip940)" d="M2220.08 266.278 L2220.08 269.82 L2216.01 269.82 Q2213.72 269.82 2212.81 270.746 Q2211.93 271.671 2211.93 274.079 L2211.93 276.371 L2218.95 276.371 L2218.95 279.681 L2211.93 279.681 L2211.93 302.296 L2207.65 302.296 L2207.65 279.681 L2203.58 279.681 L2203.58 276.371 L2207.65 276.371 L2207.65 274.565 Q2207.65 270.236 2209.67 268.269 Q2211.68 266.278 2216.06 266.278 L2220.08 266.278 Z" fill="#000000" fill-rule="nonzero" fill-opacity="1" /><path clip-path="url(#clip940)" d="M2223.65 276.371 L2227.91 276.371 L2227.91 302.296 L2223.65 302.296 L2223.65 276.371 M2223.65 266.278 L2227.91 266.278 L2227.91 271.671 L2223.65 271.671 L2223.65 266.278 Z" fill="#000000" fill-rule="nonzero" fill-opacity="1" /><path clip-path="url(#clip940)" d="M2241.03 269.009 L2241.03 276.371 L2249.8 276.371 L2249.8 279.681 L2241.03 279.681 L2241.03 293.755 Q2241.03 296.926 2241.89 297.829 Q2242.77 298.731 2245.43 298.731 L2249.8 298.731 L2249.8 302.296 L2245.43 302.296 Q2240.5 302.296 2238.62 300.468 Q2236.75 298.616 2236.75 293.755 L2236.75 279.681 L2233.62 279.681 L2233.62 276.371 L2236.75 276.371 L2236.75 269.009 L2241.03 269.009 Z" fill="#000000" fill-rule="nonzero" fill-opacity="1" /><path clip-path="url(#clip940)" d="M2280.71 266.324 Q2277.61 271.648 2276.1 276.857 Q2274.6 282.065 2274.6 287.412 Q2274.6 292.759 2276.1 298.014 Q2277.63 303.245 2280.71 308.546 L2277 308.546 Q2273.53 303.106 2271.8 297.852 Q2270.08 292.597 2270.08 287.412 Q2270.08 282.25 2271.8 277.019 Q2273.51 271.787 2277 266.324 L2280.71 266.324 Z" fill="#000000" fill-rule="nonzero" fill-opacity="1" /><path clip-path="url(#clip940)" d="M2293.23 300.699 L2293.23 312.157 L2288.95 312.157 L2288.95 276.533 Q2288.95 265.977 2298.81 265.977 Q2308.86 265.977 2308.86 274.889 Q2308.86 281.232 2304.87 283.546 Q2311.36 285.63 2311.36 291.81 Q2311.36 302.782 2300.2 302.782 Q2295.29 302.782 2293.23 300.699 M2293.23 295.144 Q2295.8 299.148 2300.36 299.148 Q2307.03 299.148 2307.03 291.88 Q2307.03 285.352 2296.29 285.861 L2296.29 281.926 Q2304.69 281.926 2304.69 274.519 Q2304.69 269.449 2299.27 269.449 Q2293.23 269.449 2293.23 276.671 L2293.23 295.144 Z" fill="#000000" fill-rule="nonzero" fill-opacity="1" /><path clip-path="url(#clip940)" d="M2319.78 280.769 L2349.46 280.769 L2349.46 284.657 L2319.78 284.657 L2319.78 280.769 M2319.78 290.213 L2349.46 290.213 L2349.46 294.148 L2319.78 294.148 L2319.78 290.213 Z" fill="#000000" fill-rule="nonzero" fill-opacity="1" /><path clip-path="url(#clip940)" d="M2369.55 270.815 Q2365.94 270.815 2364.11 274.38 Q2362.3 277.921 2362.3 285.051 Q2362.3 292.157 2364.11 295.722 Q2365.94 299.264 2369.55 299.264 Q2373.18 299.264 2374.99 295.722 Q2376.82 292.157 2376.82 285.051 Q2376.82 277.921 2374.99 274.38 Q2373.18 270.815 2369.55 270.815 M2369.55 267.111 Q2375.36 267.111 2378.42 271.718 Q2381.49 276.301 2381.49 285.051 Q2381.49 293.778 2378.42 298.384 Q2375.36 302.968 2369.55 302.968 Q2363.74 302.968 2360.66 298.384 Q2357.61 293.778 2357.61 285.051 Q2357.61 276.301 2360.66 271.718 Q2363.74 267.111 2369.55 267.111 Z" fill="#000000" fill-rule="nonzero" fill-opacity="1" /><path clip-path="url(#clip940)" d="M2389.71 296.417 L2394.6 296.417 L2394.6 302.296 L2389.71 302.296 L2389.71 296.417 Z" fill="#000000" fill-rule="nonzero" fill-opacity="1" /><path clip-path="url(#clip940)" d="M2414.78 270.815 Q2411.17 270.815 2409.34 274.38 Q2407.54 277.921 2407.54 285.051 Q2407.54 292.157 2409.34 295.722 Q2411.17 299.264 2414.78 299.264 Q2418.42 299.264 2420.22 295.722 Q2422.05 292.157 2422.05 285.051 Q2422.05 277.921 2420.22 274.38 Q2418.42 270.815 2414.78 270.815 M2414.78 267.111 Q2420.59 267.111 2423.65 271.718 Q2426.73 276.301 2426.73 285.051 Q2426.73 293.778 2423.65 298.384 Q2420.59 302.968 2414.78 302.968 Q2408.97 302.968 2405.89 298.384 Q2402.84 293.778 2402.84 285.051 Q2402.84 276.301 2405.89 271.718 Q2408.97 267.111 2414.78 267.111 Z" fill="#000000" fill-rule="nonzero" fill-opacity="1" /><path clip-path="url(#clip940)" d="M2447.79 271.81 L2435.98 290.259 L2447.79 290.259 L2447.79 271.81 M2446.56 267.736 L2452.44 267.736 L2452.44 290.259 L2457.37 290.259 L2457.37 294.148 L2452.44 294.148 L2452.44 302.296 L2447.79 302.296 L2447.79 294.148 L2432.19 294.148 L2432.19 289.634 L2446.56 267.736 Z" fill="#000000" fill-rule="nonzero" fill-opacity="1" /><path clip-path="url(#clip940)" d="M2475.68 283.153 Q2472.54 283.153 2470.68 285.306 Q2468.85 287.458 2468.85 291.208 Q2468.85 294.935 2470.68 297.111 Q2472.54 299.264 2475.68 299.264 Q2478.83 299.264 2480.66 297.111 Q2482.51 294.935 2482.51 291.208 Q2482.51 287.458 2480.66 285.306 Q2478.83 283.153 2475.68 283.153 M2484.97 268.5 L2484.97 272.759 Q2483.21 271.926 2481.4 271.486 Q2479.62 271.046 2477.86 271.046 Q2473.23 271.046 2470.78 274.171 Q2468.35 277.296 2468 283.616 Q2469.36 281.602 2471.42 280.537 Q2473.48 279.449 2475.96 279.449 Q2481.17 279.449 2484.18 282.62 Q2487.21 285.769 2487.21 291.208 Q2487.21 296.532 2484.06 299.75 Q2480.91 302.968 2475.68 302.968 Q2469.69 302.968 2466.52 298.384 Q2463.35 293.778 2463.35 285.051 Q2463.35 276.857 2467.23 271.996 Q2471.12 267.111 2477.67 267.111 Q2479.43 267.111 2481.22 267.459 Q2483.02 267.806 2484.97 268.5 Z" fill="#000000" fill-rule="nonzero" fill-opacity="1" /><path clip-path="url(#clip940)" d="M2505.85 283.153 Q2502.7 283.153 2500.85 285.306 Q2499.02 287.458 2499.02 291.208 Q2499.02 294.935 2500.85 297.111 Q2502.7 299.264 2505.85 299.264 Q2508.99 299.264 2510.82 297.111 Q2512.67 294.935 2512.67 291.208 Q2512.67 287.458 2510.82 285.306 Q2508.99 283.153 2505.85 283.153 M2515.13 268.5 L2515.13 272.759 Q2513.37 271.926 2511.56 271.486 Q2509.78 271.046 2508.02 271.046 Q2503.39 271.046 2500.94 274.171 Q2498.51 277.296 2498.16 283.616 Q2499.53 281.602 2501.59 280.537 Q2503.65 279.449 2506.12 279.449 Q2511.33 279.449 2514.34 282.62 Q2517.37 285.769 2517.37 291.208 Q2517.37 296.532 2514.22 299.75 Q2511.08 302.968 2505.85 302.968 Q2499.85 302.968 2496.68 298.384 Q2493.51 293.778 2493.51 285.051 Q2493.51 276.857 2497.4 271.996 Q2501.29 267.111 2507.84 267.111 Q2509.6 267.111 2511.38 267.459 Q2513.18 267.806 2515.13 268.5 Z" fill="#000000" fill-rule="nonzero" fill-opacity="1" /><path clip-path="url(#clip940)" d="M2524.16 266.324 L2527.86 266.324 Q2531.33 271.787 2533.04 277.019 Q2534.78 282.25 2534.78 287.412 Q2534.78 292.597 2533.04 297.852 Q2531.33 303.106 2527.86 308.546 L2524.16 308.546 Q2527.23 303.245 2528.74 298.014 Q2530.27 292.759 2530.27 287.412 Q2530.27 282.065 2528.74 276.857 Q2527.23 271.648 2524.16 266.324 Z" fill="#000000" fill-rule="nonzero" fill-opacity="1" /></svg>
