<?xml version="1.0" encoding="utf-8"?>
<svg xmlns="http://www.w3.org/2000/svg" xmlns:xlink="http://www.w3.org/1999/xlink" width="672" height="480" viewBox="0 0 2688 1920">
<defs>
  <clipPath id="clip920">
    <rect x="0" y="0" width="2688" height="1920"/>
  </clipPath>
</defs>
<path clip-path="url(#clip920)" d="M0 1920 L2688 1920 L2688 -4.26326e-14 L0 -4.26326e-14  Z" fill="#ffffff" fill-rule="evenodd" fill-opacity="1"/>
<defs>
  <clipPath id="clip921">
    <rect x="271" y="127" width="2370" height="1607"/>
  </clipPath>
</defs>
<path clip-path="url(#clip920)" d="M271.719 1734.12 L2640.76 1734.12 L2640.76 127.792 L271.719 127.792  Z" fill="#ffffff" fill-rule="evenodd" fill-opacity="1"/>
<polyline clip-path="url(#clip921)" style="stroke:#000000; stroke-linecap:round; stroke-linejoin:round; stroke-width:2; stroke-opacity:0.1; fill:none" points="338.767,1734.12 338.767,127.792 "/>
<polyline clip-path="url(#clip921)" style="stroke:#000000; stroke-linecap:round; stroke-linejoin:round; stroke-width:2; stroke-opacity:0.1; fill:none" points="1083.75,1734.12 1083.75,127.792 "/>
<polyline clip-path="url(#clip921)" style="stroke:#000000; stroke-linecap:round; stroke-linejoin:round; stroke-width:2; stroke-opacity:0.1; fill:none" points="1828.73,1734.12 1828.73,127.792 "/>
<polyline clip-path="url(#clip921)" style="stroke:#000000; stroke-linecap:round; stroke-linejoin:round; stroke-width:2; stroke-opacity:0.1; fill:none" points="2573.71,1734.12 2573.71,127.792 "/>
<polyline clip-path="url(#clip921)" style="stroke:#000000; stroke-linecap:round; stroke-linejoin:round; stroke-width:2; stroke-opacity:0.1; fill:none" points="271.719,1688.65 2640.76,1688.65 "/>
<polyline clip-path="url(#clip921)" style="stroke:#000000; stroke-linecap:round; stroke-linejoin:round; stroke-width:2; stroke-opacity:0.1; fill:none" points="271.719,1384.05 2640.76,1384.05 "/>
<polyline clip-path="url(#clip921)" style="stroke:#000000; stroke-linecap:round; stroke-linejoin:round; stroke-width:2; stroke-opacity:0.1; fill:none" points="271.719,1079.45 2640.76,1079.45 "/>
<polyline clip-path="url(#clip921)" style="stroke:#000000; stroke-linecap:round; stroke-linejoin:round; stroke-width:2; stroke-opacity:0.1; fill:none" points="271.719,774.845 2640.76,774.845 "/>
<polyline clip-path="url(#clip921)" style="stroke:#000000; stroke-linecap:round; stroke-linejoin:round; stroke-width:2; stroke-opacity:0.1; fill:none" points="271.719,470.242 2640.76,470.242 "/>
<polyline clip-path="url(#clip921)" style="stroke:#000000; stroke-linecap:round; stroke-linejoin:round; stroke-width:2; stroke-opacity:0.1; fill:none" points="271.719,165.639 2640.76,165.639 "/>
<polyline clip-path="url(#clip920)" style="stroke:#000000; stroke-linecap:round; stroke-linejoin:round; stroke-width:4; stroke-opacity:1; fill:none" points="271.719,1734.12 2640.76,1734.12 "/>
<polyline clip-path="url(#clip920)" style="stroke:#000000; stroke-linecap:round; stroke-linejoin:round; stroke-width:4; stroke-opacity:1; fill:none" points="338.767,1734.12 338.767,1715.22 "/>
<polyline clip-path="url(#clip920)" style="stroke:#000000; stroke-linecap:round; stroke-linejoin:round; stroke-width:4; stroke-opacity:1; fill:none" points="1083.75,1734.12 1083.75,1715.22 "/>
<polyline clip-path="url(#clip920)" style="stroke:#000000; stroke-linecap:round; stroke-linejoin:round; stroke-width:4; stroke-opacity:1; fill:none" points="1828.73,1734.12 1828.73,1715.22 "/>
<polyline clip-path="url(#clip920)" style="stroke:#000000; stroke-linecap:round; stroke-linejoin:round; stroke-width:4; stroke-opacity:1; fill:none" points="2573.71,1734.12 2573.71,1715.22 "/>
<path clip-path="url(#clip920)" d="M338.767 1767.34 Q335.156 1767.34 333.327 1770.9 Q331.522 1774.45 331.522 1781.58 Q331.522 1788.68 333.327 1792.25 Q335.156 1795.79 338.767 1795.79 Q342.401 1795.79 344.207 1792.25 Q346.036 1788.68 346.036 1781.58 Q346.036 1774.45 344.207 1770.9 Q342.401 1767.34 338.767 1767.34 M338.767 1763.64 Q344.577 1763.64 347.633 1768.24 Q350.712 1772.83 350.712 1781.58 Q350.712 1790.3 347.633 1794.91 Q344.577 1799.49 338.767 1799.49 Q332.957 1799.49 329.878 1794.91 Q326.823 1790.3 326.823 1781.58 Q326.823 1772.83 329.878 1768.24 Q332.957 1763.64 338.767 1763.64 Z" fill="#000000" fill-rule="nonzero" fill-opacity="1" /><path clip-path="url(#clip920)" d="M1043.35 1794.89 L1050.99 1794.89 L1050.99 1768.52 L1042.68 1770.19 L1042.68 1765.93 L1050.95 1764.26 L1055.62 1764.26 L1055.62 1794.89 L1063.26 1794.89 L1063.26 1798.82 L1043.35 1798.82 L1043.35 1794.89 Z" fill="#000000" fill-rule="nonzero" fill-opacity="1" /><path clip-path="url(#clip920)" d="M1082.71 1767.34 Q1079.09 1767.34 1077.27 1770.9 Q1075.46 1774.45 1075.46 1781.58 Q1075.46 1788.68 1077.27 1792.25 Q1079.09 1795.79 1082.71 1795.79 Q1086.34 1795.79 1088.15 1792.25 Q1089.97 1788.68 1089.97 1781.58 Q1089.97 1774.45 1088.15 1770.9 Q1086.34 1767.34 1082.71 1767.34 M1082.71 1763.64 Q1088.52 1763.64 1091.57 1768.24 Q1094.65 1772.83 1094.65 1781.58 Q1094.65 1790.3 1091.57 1794.91 Q1088.52 1799.49 1082.71 1799.49 Q1076.9 1799.49 1073.82 1794.91 Q1070.76 1790.3 1070.76 1781.58 Q1070.76 1772.83 1073.82 1768.24 Q1076.9 1763.64 1082.71 1763.64 Z" fill="#000000" fill-rule="nonzero" fill-opacity="1" /><path clip-path="url(#clip920)" d="M1112.87 1767.34 Q1109.26 1767.34 1107.43 1770.9 Q1105.62 1774.45 1105.62 1781.58 Q1105.62 1788.68 1107.43 1792.25 Q1109.26 1795.79 1112.87 1795.79 Q1116.5 1795.79 1118.31 1792.25 Q1120.14 1788.68 1120.14 1781.58 Q1120.14 1774.45 1118.31 1770.9 Q1116.5 1767.34 1112.87 1767.34 M1112.87 1763.64 Q1118.68 1763.64 1121.73 1768.24 Q1124.81 1772.83 1124.81 1781.58 Q1124.81 1790.3 1121.73 1794.91 Q1118.68 1799.49 1112.87 1799.49 Q1107.06 1799.49 1103.98 1794.91 Q1100.92 1790.3 1100.92 1781.58 Q1100.92 1772.83 1103.98 1768.24 Q1107.06 1763.64 1112.87 1763.64 Z" fill="#000000" fill-rule="nonzero" fill-opacity="1" /><path clip-path="url(#clip920)" d="M1792.42 1794.89 L1808.74 1794.89 L1808.74 1798.82 L1786.79 1798.82 L1786.79 1794.89 Q1789.46 1792.13 1794.04 1787.5 Q1798.65 1782.85 1799.83 1781.51 Q1802.07 1778.98 1802.95 1777.25 Q1803.85 1775.49 1803.85 1773.8 Q1803.85 1771.04 1801.91 1769.31 Q1799.99 1767.57 1796.89 1767.57 Q1794.69 1767.57 1792.23 1768.34 Q1789.8 1769.1 1787.03 1770.65 L1787.03 1765.93 Q1789.85 1764.79 1792.3 1764.21 Q1794.76 1763.64 1796.79 1763.64 Q1802.17 1763.64 1805.36 1766.32 Q1808.55 1769.01 1808.55 1773.5 Q1808.55 1775.63 1807.74 1777.55 Q1806.96 1779.45 1804.85 1782.04 Q1804.27 1782.71 1801.17 1785.93 Q1798.07 1789.12 1792.42 1794.89 Z" fill="#000000" fill-rule="nonzero" fill-opacity="1" /><path clip-path="url(#clip920)" d="M1828.55 1767.34 Q1824.94 1767.34 1823.11 1770.9 Q1821.31 1774.45 1821.31 1781.58 Q1821.31 1788.68 1823.11 1792.25 Q1824.94 1795.79 1828.55 1795.79 Q1832.19 1795.79 1833.99 1792.25 Q1835.82 1788.68 1835.82 1781.58 Q1835.82 1774.45 1833.99 1770.9 Q1832.19 1767.34 1828.55 1767.34 M1828.55 1763.64 Q1834.36 1763.64 1837.42 1768.24 Q1840.5 1772.83 1840.5 1781.58 Q1840.5 1790.3 1837.42 1794.91 Q1834.36 1799.49 1828.55 1799.49 Q1822.74 1799.49 1819.67 1794.91 Q1816.61 1790.3 1816.61 1781.58 Q1816.61 1772.83 1819.67 1768.24 Q1822.74 1763.64 1828.55 1763.64 Z" fill="#000000" fill-rule="nonzero" fill-opacity="1" /><path clip-path="url(#clip920)" d="M1858.72 1767.34 Q1855.1 1767.34 1853.28 1770.9 Q1851.47 1774.45 1851.47 1781.58 Q1851.47 1788.68 1853.28 1792.25 Q1855.1 1795.79 1858.72 1795.79 Q1862.35 1795.79 1864.16 1792.25 Q1865.98 1788.68 1865.98 1781.58 Q1865.98 1774.45 1864.16 1770.9 Q1862.35 1767.34 1858.72 1767.34 M1858.72 1763.64 Q1864.53 1763.64 1867.58 1768.24 Q1870.66 1772.83 1870.66 1781.58 Q1870.66 1790.3 1867.58 1794.91 Q1864.53 1799.49 1858.72 1799.49 Q1852.91 1799.49 1849.83 1794.91 Q1846.77 1790.3 1846.77 1781.58 Q1846.77 1772.83 1849.83 1768.24 Q1852.91 1763.64 1858.72 1763.64 Z" fill="#000000" fill-rule="nonzero" fill-opacity="1" /><path clip-path="url(#clip920)" d="M2547.47 1780.19 Q2550.83 1780.9 2552.7 1783.17 Q2554.6 1785.44 2554.6 1788.77 Q2554.6 1793.89 2551.08 1796.69 Q2547.56 1799.49 2541.08 1799.49 Q2538.9 1799.49 2536.59 1799.05 Q2534.3 1798.64 2531.84 1797.78 L2531.84 1793.27 Q2533.79 1794.4 2536.1 1794.98 Q2538.42 1795.56 2540.94 1795.56 Q2545.34 1795.56 2547.63 1793.82 Q2549.95 1792.08 2549.95 1788.77 Q2549.95 1785.72 2547.79 1784.01 Q2545.66 1782.27 2541.84 1782.27 L2537.82 1782.27 L2537.82 1778.43 L2542.03 1778.43 Q2545.48 1778.43 2547.31 1777.06 Q2549.14 1775.67 2549.14 1773.08 Q2549.14 1770.42 2547.24 1769.01 Q2545.36 1767.57 2541.84 1767.57 Q2539.92 1767.57 2537.72 1767.99 Q2535.53 1768.4 2532.89 1769.28 L2532.89 1765.12 Q2535.55 1764.38 2537.86 1764.01 Q2540.2 1763.64 2542.26 1763.64 Q2547.59 1763.64 2550.69 1766.07 Q2553.79 1768.47 2553.79 1772.59 Q2553.79 1775.46 2552.15 1777.46 Q2550.5 1779.42 2547.47 1780.19 Z" fill="#000000" fill-rule="nonzero" fill-opacity="1" /><path clip-path="url(#clip920)" d="M2573.46 1767.34 Q2569.85 1767.34 2568.02 1770.9 Q2566.22 1774.45 2566.22 1781.58 Q2566.22 1788.68 2568.02 1792.25 Q2569.85 1795.79 2573.46 1795.79 Q2577.1 1795.79 2578.9 1792.25 Q2580.73 1788.68 2580.73 1781.58 Q2580.73 1774.45 2578.9 1770.9 Q2577.1 1767.34 2573.46 1767.34 M2573.46 1763.64 Q2579.27 1763.64 2582.33 1768.24 Q2585.41 1772.83 2585.41 1781.58 Q2585.41 1790.3 2582.33 1794.91 Q2579.27 1799.49 2573.46 1799.49 Q2567.65 1799.49 2564.58 1794.91 Q2561.52 1790.3 2561.52 1781.58 Q2561.52 1772.83 2564.58 1768.24 Q2567.65 1763.64 2573.46 1763.64 Z" fill="#000000" fill-rule="nonzero" fill-opacity="1" /><path clip-path="url(#clip920)" d="M2603.63 1767.34 Q2600.02 1767.34 2598.19 1770.9 Q2596.38 1774.45 2596.38 1781.58 Q2596.38 1788.68 2598.19 1792.25 Q2600.02 1795.79 2603.63 1795.79 Q2607.26 1795.79 2609.07 1792.25 Q2610.89 1788.68 2610.89 1781.58 Q2610.89 1774.45 2609.07 1770.9 Q2607.26 1767.34 2603.63 1767.34 M2603.63 1763.64 Q2609.44 1763.64 2612.49 1768.24 Q2615.57 1772.83 2615.57 1781.58 Q2615.57 1790.3 2612.49 1794.91 Q2609.44 1799.49 2603.63 1799.49 Q2597.82 1799.49 2594.74 1794.91 Q2591.68 1790.3 2591.68 1781.58 Q2591.68 1772.83 2594.74 1768.24 Q2597.82 1763.64 2603.63 1763.64 Z" fill="#000000" fill-rule="nonzero" fill-opacity="1" /><path clip-path="url(#clip920)" d="M1402.48 1841.06 L1402.48 1878.02 L1410.25 1878.02 Q1420.08 1878.02 1424.63 1873.56 Q1429.22 1869.11 1429.22 1859.49 Q1429.22 1849.94 1424.63 1845.52 Q1420.08 1841.06 1410.25 1841.06 L1402.48 1841.06 M1396.05 1835.78 L1409.26 1835.78 Q1423.07 1835.78 1429.53 1841.54 Q1435.99 1847.27 1435.99 1859.49 Q1435.99 1871.78 1429.5 1877.54 Q1423.01 1883.3 1409.26 1883.3 L1396.05 1883.3 L1396.05 1835.78 Z" fill="#000000" fill-rule="nonzero" fill-opacity="1" /><path clip-path="url(#clip920)" d="M1462.19 1865.38 Q1455.09 1865.38 1452.35 1867 Q1449.62 1868.63 1449.62 1872.54 Q1449.62 1875.66 1451.65 1877.51 Q1453.72 1879.32 1457.26 1879.32 Q1462.13 1879.32 1465.05 1875.88 Q1468.01 1872.42 1468.01 1866.69 L1468.01 1865.38 L1462.19 1865.38 M1473.87 1862.96 L1473.87 1883.3 L1468.01 1883.3 L1468.01 1877.89 Q1466.01 1881.14 1463.02 1882.7 Q1460.03 1884.22 1455.7 1884.22 Q1450.22 1884.22 1446.98 1881.17 Q1443.76 1878.08 1443.76 1872.92 Q1443.76 1866.91 1447.77 1863.85 Q1451.81 1860.8 1459.8 1860.8 L1468.01 1860.8 L1468.01 1860.23 Q1468.01 1856.18 1465.34 1853.99 Q1462.7 1851.76 1457.89 1851.76 Q1454.84 1851.76 1451.94 1852.49 Q1449.04 1853.22 1446.37 1854.69 L1446.37 1849.28 Q1449.59 1848.03 1452.61 1847.43 Q1455.63 1846.79 1458.5 1846.79 Q1466.23 1846.79 1470.05 1850.8 Q1473.87 1854.81 1473.87 1862.96 Z" fill="#000000" fill-rule="nonzero" fill-opacity="1" /><path clip-path="url(#clip920)" d="M1500.77 1886.61 Q1498.28 1892.98 1495.93 1894.92 Q1493.57 1896.86 1489.63 1896.86 L1484.95 1896.86 L1484.95 1891.96 L1488.38 1891.96 Q1490.8 1891.96 1492.14 1890.81 Q1493.48 1889.67 1495.1 1885.4 L1496.15 1882.73 L1481.73 1847.65 L1487.94 1847.65 L1499.08 1875.53 L1510.22 1847.65 L1516.43 1847.65 L1500.77 1886.61 Z" fill="#000000" fill-rule="nonzero" fill-opacity="1" /><polyline clip-path="url(#clip920)" style="stroke:#000000; stroke-linecap:round; stroke-linejoin:round; stroke-width:4; stroke-opacity:1; fill:none" points="271.719,1734.12 271.719,127.792 "/>
<polyline clip-path="url(#clip920)" style="stroke:#000000; stroke-linecap:round; stroke-linejoin:round; stroke-width:4; stroke-opacity:1; fill:none" points="271.719,1688.65 290.617,1688.65 "/>
<polyline clip-path="url(#clip920)" style="stroke:#000000; stroke-linecap:round; stroke-linejoin:round; stroke-width:4; stroke-opacity:1; fill:none" points="271.719,1384.05 290.617,1384.05 "/>
<polyline clip-path="url(#clip920)" style="stroke:#000000; stroke-linecap:round; stroke-linejoin:round; stroke-width:4; stroke-opacity:1; fill:none" points="271.719,1079.45 290.617,1079.45 "/>
<polyline clip-path="url(#clip920)" style="stroke:#000000; stroke-linecap:round; stroke-linejoin:round; stroke-width:4; stroke-opacity:1; fill:none" points="271.719,774.845 290.617,774.845 "/>
<polyline clip-path="url(#clip920)" style="stroke:#000000; stroke-linecap:round; stroke-linejoin:round; stroke-width:4; stroke-opacity:1; fill:none" points="271.719,470.242 290.617,470.242 "/>
<polyline clip-path="url(#clip920)" style="stroke:#000000; stroke-linecap:round; stroke-linejoin:round; stroke-width:4; stroke-opacity:1; fill:none" points="271.719,165.639 290.617,165.639 "/>
<path clip-path="url(#clip920)" d="M219.455 1674.45 Q215.844 1674.45 214.015 1678.02 Q212.209 1681.56 212.209 1688.69 Q212.209 1695.8 214.015 1699.36 Q215.844 1702.9 219.455 1702.9 Q223.089 1702.9 224.894 1699.36 Q226.723 1695.8 226.723 1688.69 Q226.723 1681.56 224.894 1678.02 Q223.089 1674.45 219.455 1674.45 M219.455 1670.75 Q225.265 1670.75 228.32 1675.36 Q231.399 1679.94 231.399 1688.69 Q231.399 1697.42 228.32 1702.02 Q225.265 1706.61 219.455 1706.61 Q213.644 1706.61 210.566 1702.02 Q207.51 1697.42 207.51 1688.69 Q207.51 1679.94 210.566 1675.36 Q213.644 1670.75 219.455 1670.75 Z" fill="#000000" fill-rule="nonzero" fill-opacity="1" /><path clip-path="url(#clip920)" d="M119.779 1397.4 L127.418 1397.4 L127.418 1371.03 L119.108 1372.7 L119.108 1368.44 L127.372 1366.77 L132.048 1366.77 L132.048 1397.4 L139.687 1397.4 L139.687 1401.33 L119.779 1401.33 L119.779 1397.4 Z" fill="#000000" fill-rule="nonzero" fill-opacity="1" /><path clip-path="url(#clip920)" d="M159.131 1369.85 Q155.52 1369.85 153.691 1373.42 Q151.886 1376.96 151.886 1384.09 Q151.886 1391.19 153.691 1394.76 Q155.52 1398.3 159.131 1398.3 Q162.765 1398.3 164.571 1394.76 Q166.399 1391.19 166.399 1384.09 Q166.399 1376.96 164.571 1373.42 Q162.765 1369.85 159.131 1369.85 M159.131 1366.15 Q164.941 1366.15 167.997 1370.75 Q171.075 1375.34 171.075 1384.09 Q171.075 1392.81 167.997 1397.42 Q164.941 1402 159.131 1402 Q153.321 1402 150.242 1397.42 Q147.186 1392.81 147.186 1384.09 Q147.186 1375.34 150.242 1370.75 Q153.321 1366.15 159.131 1366.15 Z" fill="#000000" fill-rule="nonzero" fill-opacity="1" /><path clip-path="url(#clip920)" d="M189.293 1369.85 Q185.682 1369.85 183.853 1373.42 Q182.047 1376.96 182.047 1384.09 Q182.047 1391.19 183.853 1394.76 Q185.682 1398.3 189.293 1398.3 Q192.927 1398.3 194.733 1394.76 Q196.561 1391.19 196.561 1384.09 Q196.561 1376.96 194.733 1373.42 Q192.927 1369.85 189.293 1369.85 M189.293 1366.15 Q195.103 1366.15 198.158 1370.75 Q201.237 1375.34 201.237 1384.09 Q201.237 1392.81 198.158 1397.42 Q195.103 1402 189.293 1402 Q183.483 1402 180.404 1397.42 Q177.348 1392.81 177.348 1384.09 Q177.348 1375.34 180.404 1370.75 Q183.483 1366.15 189.293 1366.15 Z" fill="#000000" fill-rule="nonzero" fill-opacity="1" /><path clip-path="url(#clip920)" d="M219.455 1369.85 Q215.844 1369.85 214.015 1373.42 Q212.209 1376.96 212.209 1384.09 Q212.209 1391.19 214.015 1394.76 Q215.844 1398.3 219.455 1398.3 Q223.089 1398.3 224.894 1394.76 Q226.723 1391.19 226.723 1384.09 Q226.723 1376.96 224.894 1373.42 Q223.089 1369.85 219.455 1369.85 M219.455 1366.15 Q225.265 1366.15 228.32 1370.75 Q231.399 1375.34 231.399 1384.09 Q231.399 1392.81 228.32 1397.42 Q225.265 1402 219.455 1402 Q213.644 1402 210.566 1397.42 Q207.51 1392.81 207.51 1384.09 Q207.51 1375.34 210.566 1370.75 Q213.644 1366.15 219.455 1366.15 Z" fill="#000000" fill-rule="nonzero" fill-opacity="1" /><path clip-path="url(#clip920)" d="M122.997 1092.79 L139.316 1092.79 L139.316 1096.73 L117.372 1096.73 L117.372 1092.79 Q120.034 1090.04 124.617 1085.41 Q129.224 1080.76 130.404 1079.41 Q132.65 1076.89 133.529 1075.15 Q134.432 1073.4 134.432 1071.71 Q134.432 1068.95 132.488 1067.21 Q130.566 1065.48 127.464 1065.48 Q125.265 1065.48 122.812 1066.24 Q120.381 1067.01 117.603 1068.56 L117.603 1063.84 Q120.427 1062.7 122.881 1062.12 Q125.335 1061.54 127.372 1061.54 Q132.742 1061.54 135.937 1064.23 Q139.131 1066.91 139.131 1071.4 Q139.131 1073.53 138.321 1075.46 Q137.534 1077.35 135.427 1079.95 Q134.849 1080.62 131.747 1083.84 Q128.645 1087.03 122.997 1092.79 Z" fill="#000000" fill-rule="nonzero" fill-opacity="1" /><path clip-path="url(#clip920)" d="M159.131 1065.25 Q155.52 1065.25 153.691 1068.81 Q151.886 1072.35 151.886 1079.48 Q151.886 1086.59 153.691 1090.15 Q155.52 1093.7 159.131 1093.7 Q162.765 1093.7 164.571 1090.15 Q166.399 1086.59 166.399 1079.48 Q166.399 1072.35 164.571 1068.81 Q162.765 1065.25 159.131 1065.25 M159.131 1061.54 Q164.941 1061.54 167.997 1066.15 Q171.075 1070.73 171.075 1079.48 Q171.075 1088.21 167.997 1092.82 Q164.941 1097.4 159.131 1097.4 Q153.321 1097.4 150.242 1092.82 Q147.186 1088.21 147.186 1079.48 Q147.186 1070.73 150.242 1066.15 Q153.321 1061.54 159.131 1061.54 Z" fill="#000000" fill-rule="nonzero" fill-opacity="1" /><path clip-path="url(#clip920)" d="M189.293 1065.25 Q185.682 1065.25 183.853 1068.81 Q182.047 1072.35 182.047 1079.48 Q182.047 1086.59 183.853 1090.15 Q185.682 1093.7 189.293 1093.7 Q192.927 1093.7 194.733 1090.15 Q196.561 1086.59 196.561 1079.48 Q196.561 1072.35 194.733 1068.81 Q192.927 1065.25 189.293 1065.25 M189.293 1061.54 Q195.103 1061.54 198.158 1066.15 Q201.237 1070.73 201.237 1079.48 Q201.237 1088.21 198.158 1092.82 Q195.103 1097.4 189.293 1097.4 Q183.483 1097.4 180.404 1092.82 Q177.348 1088.21 177.348 1079.48 Q177.348 1070.73 180.404 1066.15 Q183.483 1061.54 189.293 1061.54 Z" fill="#000000" fill-rule="nonzero" fill-opacity="1" /><path clip-path="url(#clip920)" d="M219.455 1065.25 Q215.844 1065.25 214.015 1068.81 Q212.209 1072.35 212.209 1079.48 Q212.209 1086.59 214.015 1090.15 Q215.844 1093.7 219.455 1093.7 Q223.089 1093.7 224.894 1090.15 Q226.723 1086.59 226.723 1079.48 Q226.723 1072.35 224.894 1068.81 Q223.089 1065.25 219.455 1065.25 M219.455 1061.54 Q225.265 1061.54 228.32 1066.15 Q231.399 1070.73 231.399 1079.48 Q231.399 1088.21 228.32 1092.82 Q225.265 1097.4 219.455 1097.4 Q213.644 1097.4 210.566 1092.82 Q207.51 1088.21 207.51 1079.48 Q207.51 1070.73 210.566 1066.15 Q213.644 1061.54 219.455 1061.54 Z" fill="#000000" fill-rule="nonzero" fill-opacity="1" /><path clip-path="url(#clip920)" d="M133.136 773.491 Q136.492 774.209 138.367 776.477 Q140.265 778.746 140.265 782.079 Q140.265 787.195 136.747 789.996 Q133.228 792.797 126.747 792.797 Q124.571 792.797 122.256 792.357 Q119.964 791.94 117.511 791.084 L117.511 786.57 Q119.455 787.704 121.77 788.283 Q124.085 788.862 126.608 788.862 Q131.006 788.862 133.298 787.125 Q135.612 785.389 135.612 782.079 Q135.612 779.024 133.46 777.311 Q131.33 775.575 127.511 775.575 L123.483 775.575 L123.483 771.732 L127.696 771.732 Q131.145 771.732 132.974 770.366 Q134.802 768.977 134.802 766.385 Q134.802 763.723 132.904 762.311 Q131.029 760.876 127.511 760.876 Q125.589 760.876 123.39 761.292 Q121.191 761.709 118.552 762.589 L118.552 758.422 Q121.214 757.681 123.529 757.311 Q125.867 756.94 127.927 756.94 Q133.251 756.94 136.353 759.371 Q139.455 761.778 139.455 765.899 Q139.455 768.769 137.812 770.76 Q136.168 772.727 133.136 773.491 Z" fill="#000000" fill-rule="nonzero" fill-opacity="1" /><path clip-path="url(#clip920)" d="M159.131 760.644 Q155.52 760.644 153.691 764.209 Q151.886 767.751 151.886 774.88 Q151.886 781.987 153.691 785.551 Q155.52 789.093 159.131 789.093 Q162.765 789.093 164.571 785.551 Q166.399 781.987 166.399 774.88 Q166.399 767.751 164.571 764.209 Q162.765 760.644 159.131 760.644 M159.131 756.94 Q164.941 756.94 167.997 761.547 Q171.075 766.13 171.075 774.88 Q171.075 783.607 167.997 788.213 Q164.941 792.797 159.131 792.797 Q153.321 792.797 150.242 788.213 Q147.186 783.607 147.186 774.88 Q147.186 766.13 150.242 761.547 Q153.321 756.94 159.131 756.94 Z" fill="#000000" fill-rule="nonzero" fill-opacity="1" /><path clip-path="url(#clip920)" d="M189.293 760.644 Q185.682 760.644 183.853 764.209 Q182.047 767.751 182.047 774.88 Q182.047 781.987 183.853 785.551 Q185.682 789.093 189.293 789.093 Q192.927 789.093 194.733 785.551 Q196.561 781.987 196.561 774.88 Q196.561 767.751 194.733 764.209 Q192.927 760.644 189.293 760.644 M189.293 756.94 Q195.103 756.94 198.158 761.547 Q201.237 766.13 201.237 774.88 Q201.237 783.607 198.158 788.213 Q195.103 792.797 189.293 792.797 Q183.483 792.797 180.404 788.213 Q177.348 783.607 177.348 774.88 Q177.348 766.13 180.404 761.547 Q183.483 756.94 189.293 756.94 Z" fill="#000000" fill-rule="nonzero" fill-opacity="1" /><path clip-path="url(#clip920)" d="M219.455 760.644 Q215.844 760.644 214.015 764.209 Q212.209 767.751 212.209 774.88 Q212.209 781.987 214.015 785.551 Q215.844 789.093 219.455 789.093 Q223.089 789.093 224.894 785.551 Q226.723 781.987 226.723 774.88 Q226.723 767.751 224.894 764.209 Q223.089 760.644 219.455 760.644 M219.455 756.94 Q225.265 756.94 228.32 761.547 Q231.399 766.13 231.399 774.88 Q231.399 783.607 228.32 788.213 Q225.265 792.797 219.455 792.797 Q213.644 792.797 210.566 788.213 Q207.51 783.607 207.51 774.88 Q207.51 766.13 210.566 761.547 Q213.644 756.94 219.455 756.94 Z" fill="#000000" fill-rule="nonzero" fill-opacity="1" /><path clip-path="url(#clip920)" d="M131.816 457.036 L120.011 475.485 L131.816 475.485 L131.816 457.036 M130.589 452.962 L136.469 452.962 L136.469 475.485 L141.399 475.485 L141.399 479.374 L136.469 479.374 L136.469 487.522 L131.816 487.522 L131.816 479.374 L116.214 479.374 L116.214 474.86 L130.589 452.962 Z" fill="#000000" fill-rule="nonzero" fill-opacity="1" /><path clip-path="url(#clip920)" d="M159.131 456.041 Q155.52 456.041 153.691 459.606 Q151.886 463.147 151.886 470.277 Q151.886 477.383 153.691 480.948 Q155.52 484.49 159.131 484.49 Q162.765 484.49 164.571 480.948 Q166.399 477.383 166.399 470.277 Q166.399 463.147 164.571 459.606 Q162.765 456.041 159.131 456.041 M159.131 452.337 Q164.941 452.337 167.997 456.944 Q171.075 461.527 171.075 470.277 Q171.075 479.004 167.997 483.61 Q164.941 488.194 159.131 488.194 Q153.321 488.194 150.242 483.61 Q147.186 479.004 147.186 470.277 Q147.186 461.527 150.242 456.944 Q153.321 452.337 159.131 452.337 Z" fill="#000000" fill-rule="nonzero" fill-opacity="1" /><path clip-path="url(#clip920)" d="M189.293 456.041 Q185.682 456.041 183.853 459.606 Q182.047 463.147 182.047 470.277 Q182.047 477.383 183.853 480.948 Q185.682 484.49 189.293 484.49 Q192.927 484.49 194.733 480.948 Q196.561 477.383 196.561 470.277 Q196.561 463.147 194.733 459.606 Q192.927 456.041 189.293 456.041 M189.293 452.337 Q195.103 452.337 198.158 456.944 Q201.237 461.527 201.237 470.277 Q201.237 479.004 198.158 483.61 Q195.103 488.194 189.293 488.194 Q183.483 488.194 180.404 483.61 Q177.348 479.004 177.348 470.277 Q177.348 461.527 180.404 456.944 Q183.483 452.337 189.293 452.337 Z" fill="#000000" fill-rule="nonzero" fill-opacity="1" /><path clip-path="url(#clip920)" d="M219.455 456.041 Q215.844 456.041 214.015 459.606 Q212.209 463.147 212.209 470.277 Q212.209 477.383 214.015 480.948 Q215.844 484.49 219.455 484.49 Q223.089 484.49 224.894 480.948 Q226.723 477.383 226.723 470.277 Q226.723 463.147 224.894 459.606 Q223.089 456.041 219.455 456.041 M219.455 452.337 Q225.265 452.337 228.32 456.944 Q231.399 461.527 231.399 470.277 Q231.399 479.004 228.32 483.61 Q225.265 488.194 219.455 488.194 Q213.644 488.194 210.566 483.61 Q207.51 479.004 207.51 470.277 Q207.51 461.527 210.566 456.944 Q213.644 452.337 219.455 452.337 Z" fill="#000000" fill-rule="nonzero" fill-opacity="1" /><path clip-path="url(#clip920)" d="M119.015 148.359 L137.372 148.359 L137.372 152.294 L123.298 152.294 L123.298 160.766 Q124.316 160.419 125.335 160.257 Q126.353 160.072 127.372 160.072 Q133.159 160.072 136.538 163.243 Q139.918 166.415 139.918 171.831 Q139.918 177.41 136.446 180.512 Q132.974 183.59 126.654 183.59 Q124.478 183.59 122.21 183.22 Q119.964 182.85 117.557 182.109 L117.557 177.41 Q119.64 178.544 121.863 179.1 Q124.085 179.655 126.562 179.655 Q130.566 179.655 132.904 177.549 Q135.242 175.442 135.242 171.831 Q135.242 168.22 132.904 166.114 Q130.566 164.007 126.562 164.007 Q124.687 164.007 122.812 164.424 Q120.96 164.84 119.015 165.72 L119.015 148.359 Z" fill="#000000" fill-rule="nonzero" fill-opacity="1" /><path clip-path="url(#clip920)" d="M159.131 151.438 Q155.52 151.438 153.691 155.003 Q151.886 158.544 151.886 165.674 Q151.886 172.78 153.691 176.345 Q155.52 179.887 159.131 179.887 Q162.765 179.887 164.571 176.345 Q166.399 172.78 166.399 165.674 Q166.399 158.544 164.571 155.003 Q162.765 151.438 159.131 151.438 M159.131 147.734 Q164.941 147.734 167.997 152.341 Q171.075 156.924 171.075 165.674 Q171.075 174.401 167.997 179.007 Q164.941 183.59 159.131 183.59 Q153.321 183.59 150.242 179.007 Q147.186 174.401 147.186 165.674 Q147.186 156.924 150.242 152.341 Q153.321 147.734 159.131 147.734 Z" fill="#000000" fill-rule="nonzero" fill-opacity="1" /><path clip-path="url(#clip920)" d="M189.293 151.438 Q185.682 151.438 183.853 155.003 Q182.047 158.544 182.047 165.674 Q182.047 172.78 183.853 176.345 Q185.682 179.887 189.293 179.887 Q192.927 179.887 194.733 176.345 Q196.561 172.78 196.561 165.674 Q196.561 158.544 194.733 155.003 Q192.927 151.438 189.293 151.438 M189.293 147.734 Q195.103 147.734 198.158 152.341 Q201.237 156.924 201.237 165.674 Q201.237 174.401 198.158 179.007 Q195.103 183.59 189.293 183.59 Q183.483 183.59 180.404 179.007 Q177.348 174.401 177.348 165.674 Q177.348 156.924 180.404 152.341 Q183.483 147.734 189.293 147.734 Z" fill="#000000" fill-rule="nonzero" fill-opacity="1" /><path clip-path="url(#clip920)" d="M219.455 151.438 Q215.844 151.438 214.015 155.003 Q212.209 158.544 212.209 165.674 Q212.209 172.78 214.015 176.345 Q215.844 179.887 219.455 179.887 Q223.089 179.887 224.894 176.345 Q226.723 172.78 226.723 165.674 Q226.723 158.544 224.894 155.003 Q223.089 151.438 219.455 151.438 M219.455 147.734 Q225.265 147.734 228.32 152.341 Q231.399 156.924 231.399 165.674 Q231.399 174.401 228.32 179.007 Q225.265 183.59 219.455 183.59 Q213.644 183.59 210.566 179.007 Q207.51 174.401 207.51 165.674 Q207.51 156.924 210.566 152.341 Q213.644 147.734 219.455 147.734 Z" fill="#000000" fill-rule="nonzero" fill-opacity="1" /><path clip-path="url(#clip920)" d="M17.7787 986.814 L24.5582 986.814 Q21.5345 990.06 20.0386 993.752 Q18.5426 997.413 18.5426 1001.55 Q18.5426 1009.7 23.5397 1014.03 Q28.5049 1018.36 37.9262 1018.36 Q47.3156 1018.36 52.3127 1014.03 Q57.2779 1009.7 57.2779 1001.55 Q57.2779 997.413 55.782 993.752 Q54.2861 990.06 51.2623 986.814 L57.9782 986.814 Q60.2698 990.187 61.4156 993.975 Q62.5615 997.731 62.5615 1001.93 Q62.5615 1012.72 55.973 1018.93 Q49.3526 1025.14 37.9262 1025.14 Q26.4679 1025.14 19.8794 1018.93 Q13.2591 1012.72 13.2591 1001.93 Q13.2591 997.667 14.4049 993.911 Q15.5189 990.124 17.7787 986.814 Z" fill="#000000" fill-rule="nonzero" fill-opacity="1" /><path clip-path="url(#clip920)" d="M30.0964 963.324 Q30.0964 968.035 33.7885 970.772 Q37.4488 973.509 43.8463 973.509 Q50.2438 973.509 53.9359 970.804 Q57.5962 968.067 57.5962 963.324 Q57.5962 958.645 53.9041 955.908 Q50.212 953.171 43.8463 953.171 Q37.5124 953.171 33.8203 955.908 Q30.0964 958.645 30.0964 963.324 M25.1311 963.324 Q25.1311 955.685 30.0964 951.325 Q35.0616 946.964 43.8463 946.964 Q52.5991 946.964 57.5962 951.325 Q62.5615 955.685 62.5615 963.324 Q62.5615 970.995 57.5962 975.355 Q52.5991 979.684 43.8463 979.684 Q35.0616 979.684 30.0964 975.355 Q25.1311 970.995 25.1311 963.324 Z" fill="#000000" fill-rule="nonzero" fill-opacity="1" /><path clip-path="url(#clip920)" d="M47.5702 937.861 L25.9905 937.861 L25.9905 932.005 L47.3474 932.005 Q52.4082 932.005 54.9545 930.032 Q57.4689 928.058 57.4689 924.111 Q57.4689 919.369 54.4452 916.632 Q51.4215 913.863 46.2016 913.863 L25.9905 913.863 L25.9905 908.006 L61.6384 908.006 L61.6384 913.863 L56.1639 913.863 Q59.4104 915.995 61.0019 918.828 Q62.5615 921.629 62.5615 925.353 Q62.5615 931.496 58.742 934.678 Q54.9226 937.861 47.5702 937.861 M25.1311 923.125 L25.1311 923.125 Z" fill="#000000" fill-rule="nonzero" fill-opacity="1" /><path clip-path="url(#clip920)" d="M40.1224 866.311 L61.6384 866.311 L61.6384 872.167 L40.3133 872.167 Q35.2526 872.167 32.7381 874.141 Q30.2237 876.114 30.2237 880.061 Q30.2237 884.803 33.2474 887.54 Q36.2711 890.278 41.491 890.278 L61.6384 890.278 L61.6384 896.166 L25.9905 896.166 L25.9905 890.278 L31.5287 890.278 Q28.314 888.177 26.7225 885.344 Q25.1311 882.48 25.1311 878.756 Q25.1311 872.613 28.9505 869.462 Q32.7381 866.311 40.1224 866.311 Z" fill="#000000" fill-rule="nonzero" fill-opacity="1" /><path clip-path="url(#clip920)" d="M15.869 848.837 L25.9905 848.837 L25.9905 836.774 L30.542 836.774 L30.542 848.837 L49.8937 848.837 Q54.2542 848.837 55.4955 847.659 Q56.7368 846.45 56.7368 842.79 L56.7368 836.774 L61.6384 836.774 L61.6384 842.79 Q61.6384 849.569 59.124 852.147 Q56.5777 854.725 49.8937 854.725 L30.542 854.725 L30.542 859.022 L25.9905 859.022 L25.9905 854.725 L15.869 854.725 L15.869 848.837 Z" fill="#000000" fill-rule="nonzero" fill-opacity="1" /><path clip-path="url(#clip920)" d="M953.399 12.096 L991.639 12.096 L991.639 18.9825 L961.582 18.9825 L961.582 36.8875 L990.383 36.8875 L990.383 43.7741 L961.582 43.7741 L961.582 65.6895 L992.368 65.6895 L992.368 72.576 L953.399 72.576 L953.399 12.096 Z" fill="#000000" fill-rule="nonzero" fill-opacity="1" /><path clip-path="url(#clip920)" d="M1038.06 49.9314 Q1038.06 41.7081 1034.66 37.0496 Q1031.3 32.3505 1025.38 32.3505 Q1019.47 32.3505 1016.07 37.0496 Q1012.7 41.7081 1012.7 49.9314 Q1012.7 58.1548 1016.07 62.8538 Q1019.47 67.5124 1025.38 67.5124 Q1031.3 67.5124 1034.66 62.8538 Q1038.06 58.1548 1038.06 49.9314 M1012.7 34.0924 Q1015.05 30.0415 1018.62 28.0971 Q1022.22 26.1121 1027.21 26.1121 Q1035.47 26.1121 1040.61 32.6746 Q1045.8 39.2371 1045.8 49.9314 Q1045.8 60.6258 1040.61 67.1883 Q1035.47 73.7508 1027.21 73.7508 Q1022.22 73.7508 1018.62 71.8063 Q1015.05 69.8214 1012.7 65.7705 L1012.7 72.576 L1005.21 72.576 L1005.21 9.54393 L1012.7 9.54393 L1012.7 34.0924 Z" fill="#000000" fill-rule="nonzero" fill-opacity="1" /><path clip-path="url(#clip920)" d="M1075.74 32.4315 Q1069.74 32.4315 1066.26 37.1306 Q1062.77 41.7891 1062.77 49.9314 Q1062.77 58.0738 1066.22 62.7728 Q1069.7 67.4314 1075.74 67.4314 Q1081.69 67.4314 1085.17 62.7323 Q1088.66 58.0333 1088.66 49.9314 Q1088.66 41.8701 1085.17 37.1711 Q1081.69 32.4315 1075.74 32.4315 M1075.74 26.1121 Q1085.46 26.1121 1091.01 32.4315 Q1096.56 38.7509 1096.56 49.9314 Q1096.56 61.0714 1091.01 67.4314 Q1085.46 73.7508 1075.74 73.7508 Q1065.97 73.7508 1060.42 67.4314 Q1054.91 61.0714 1054.91 49.9314 Q1054.91 38.7509 1060.42 32.4315 Q1065.97 26.1121 1075.74 26.1121 Z" fill="#000000" fill-rule="nonzero" fill-opacity="1" /><path clip-path="url(#clip920)" d="M1108.91 9.54393 L1116.37 9.54393 L1116.37 72.576 L1108.91 72.576 L1108.91 9.54393 Z" fill="#000000" fill-rule="nonzero" fill-opacity="1" /><path clip-path="url(#clip920)" d="M1152.58 49.7694 Q1143.55 49.7694 1140.06 51.8354 Q1136.58 53.9013 1136.58 58.8839 Q1136.58 62.8538 1139.17 65.2034 Q1141.81 67.5124 1146.3 67.5124 Q1152.5 67.5124 1156.23 63.1374 Q1159.99 58.7219 1159.99 51.4303 L1159.99 49.7694 L1152.58 49.7694 M1167.45 46.6907 L1167.45 72.576 L1159.99 72.576 L1159.99 65.6895 Q1157.44 69.8214 1153.63 71.8063 Q1149.83 73.7508 1144.32 73.7508 Q1137.35 73.7508 1133.22 69.8619 Q1129.13 65.9325 1129.13 59.3701 Q1129.13 51.7138 1134.23 47.825 Q1139.38 43.9361 1149.54 43.9361 L1159.99 43.9361 L1159.99 43.2069 Q1159.99 38.0623 1156.59 35.2672 Q1153.23 32.4315 1147.11 32.4315 Q1143.22 32.4315 1139.54 33.3632 Q1135.85 34.295 1132.45 36.1584 L1132.45 29.2718 Q1136.54 27.692 1140.39 26.9223 Q1144.24 26.1121 1147.88 26.1121 Q1157.73 26.1121 1162.59 31.2163 Q1167.45 36.3204 1167.45 46.6907 Z" fill="#000000" fill-rule="nonzero" fill-opacity="1" /><path clip-path="url(#clip920)" d="M1217.68 18.8205 L1217.68 65.8515 L1227.56 65.8515 Q1240.08 65.8515 1245.87 60.1802 Q1251.71 54.509 1251.71 42.2752 Q1251.71 30.1225 1245.87 24.4918 Q1240.08 18.8205 1227.56 18.8205 L1217.68 18.8205 M1209.5 12.096 L1226.31 12.096 Q1243.89 12.096 1252.11 19.4281 Q1260.34 26.7198 1260.34 42.2752 Q1260.34 57.9117 1252.07 65.2439 Q1243.81 72.576 1226.31 72.576 L1209.5 72.576 L1209.5 12.096 Z" fill="#000000" fill-rule="nonzero" fill-opacity="1" /><path clip-path="url(#clip920)" d="M1273.06 27.2059 L1280.51 27.2059 L1280.51 72.576 L1273.06 72.576 L1273.06 27.2059 M1273.06 9.54393 L1280.51 9.54393 L1280.51 18.9825 L1273.06 18.9825 L1273.06 9.54393 Z" fill="#000000" fill-rule="nonzero" fill-opacity="1" /><path clip-path="url(#clip920)" d="M1325.03 28.5427 L1325.03 35.5912 Q1321.87 33.9709 1318.47 33.1607 Q1315.06 32.3505 1311.42 32.3505 Q1305.87 32.3505 1303.07 34.0519 Q1300.32 35.7533 1300.32 39.156 Q1300.32 41.7486 1302.3 43.2475 Q1304.29 44.7058 1310.28 46.0426 L1312.84 46.6097 Q1320.78 48.3111 1324.1 51.4303 Q1327.46 54.509 1327.46 60.0587 Q1327.46 66.3781 1322.44 70.0644 Q1317.45 73.7508 1308.7 73.7508 Q1305.06 73.7508 1301.09 73.0216 Q1297.16 72.3329 1292.78 70.9151 L1292.78 63.2184 Q1296.92 65.3654 1300.93 66.4591 Q1304.94 67.5124 1308.87 67.5124 Q1314.13 67.5124 1316.97 65.73 Q1319.8 63.9071 1319.8 60.6258 Q1319.8 57.5877 1317.74 55.9673 Q1315.71 54.3469 1308.78 52.8481 L1306.19 52.2405 Q1299.26 50.7821 1296.19 47.7845 Q1293.11 44.7463 1293.11 39.4801 Q1293.11 33.0797 1297.64 29.5959 Q1302.18 26.1121 1310.53 26.1121 Q1314.66 26.1121 1318.3 26.7198 Q1321.95 27.3274 1325.03 28.5427 Z" fill="#000000" fill-rule="nonzero" fill-opacity="1" /><path clip-path="url(#clip920)" d="M1378.14 48.0275 L1378.14 51.6733 L1343.87 51.6733 Q1344.35 59.3701 1348.48 63.421 Q1352.66 67.4314 1360.07 67.4314 Q1364.36 67.4314 1368.37 66.3781 Q1372.42 65.3249 1376.39 63.2184 L1376.39 70.267 Q1372.38 71.9684 1368.17 72.8596 Q1363.96 73.7508 1359.62 73.7508 Q1348.77 73.7508 1342.41 67.4314 Q1336.09 61.1119 1336.09 50.3365 Q1336.09 39.1965 1342.08 32.6746 Q1348.12 26.1121 1358.33 26.1121 Q1367.48 26.1121 1372.79 32.0264 Q1378.14 37.9003 1378.14 48.0275 M1370.68 45.84 Q1370.6 39.7232 1367.24 36.0774 Q1363.92 32.4315 1358.41 32.4315 Q1352.17 32.4315 1348.4 35.9558 Q1344.68 39.4801 1344.11 45.8805 L1370.68 45.84 Z" fill="#000000" fill-rule="nonzero" fill-opacity="1" /><path clip-path="url(#clip920)" d="M1410.99 49.7694 Q1401.96 49.7694 1398.47 51.8354 Q1394.99 53.9013 1394.99 58.8839 Q1394.99 62.8538 1397.58 65.2034 Q1400.21 67.5124 1404.71 67.5124 Q1410.91 67.5124 1414.63 63.1374 Q1418.4 58.7219 1418.4 51.4303 L1418.4 49.7694 L1410.99 49.7694 M1425.86 46.6907 L1425.86 72.576 L1418.4 72.576 L1418.4 65.6895 Q1415.85 69.8214 1412.04 71.8063 Q1408.23 73.7508 1402.73 73.7508 Q1395.76 73.7508 1391.63 69.8619 Q1387.53 65.9325 1387.53 59.3701 Q1387.53 51.7138 1392.64 47.825 Q1397.78 43.9361 1407.95 43.9361 L1418.4 43.9361 L1418.4 43.2069 Q1418.4 38.0623 1415 35.2672 Q1411.64 32.4315 1405.52 32.4315 Q1401.63 32.4315 1397.94 33.3632 Q1394.26 34.295 1390.86 36.1584 L1390.86 29.2718 Q1394.95 27.692 1398.8 26.9223 Q1402.64 26.1121 1406.29 26.1121 Q1416.13 26.1121 1420.99 31.2163 Q1425.86 36.3204 1425.86 46.6907 Z" fill="#000000" fill-rule="nonzero" fill-opacity="1" /><path clip-path="url(#clip920)" d="M1470.13 28.5427 L1470.13 35.5912 Q1466.97 33.9709 1463.57 33.1607 Q1460.17 32.3505 1456.52 32.3505 Q1450.97 32.3505 1448.18 34.0519 Q1445.42 35.7533 1445.42 39.156 Q1445.42 41.7486 1447.41 43.2475 Q1449.39 44.7058 1455.39 46.0426 L1457.94 46.6097 Q1465.88 48.3111 1469.2 51.4303 Q1472.56 54.509 1472.56 60.0587 Q1472.56 66.3781 1467.54 70.0644 Q1462.56 73.7508 1453.81 73.7508 Q1450.16 73.7508 1446.19 73.0216 Q1442.26 72.3329 1437.89 70.9151 L1437.89 63.2184 Q1442.02 65.3654 1446.03 66.4591 Q1450.04 67.5124 1453.97 67.5124 Q1459.24 67.5124 1462.07 65.73 Q1464.91 63.9071 1464.91 60.6258 Q1464.91 57.5877 1462.84 55.9673 Q1460.81 54.3469 1453.89 52.8481 L1451.3 52.2405 Q1444.37 50.7821 1441.29 47.7845 Q1438.21 44.7463 1438.21 39.4801 Q1438.21 33.0797 1442.75 29.5959 Q1447.28 26.1121 1455.63 26.1121 Q1459.76 26.1121 1463.41 26.7198 Q1467.05 27.3274 1470.13 28.5427 Z" fill="#000000" fill-rule="nonzero" fill-opacity="1" /><path clip-path="url(#clip920)" d="M1523.24 48.0275 L1523.24 51.6733 L1488.97 51.6733 Q1489.45 59.3701 1493.59 63.421 Q1497.76 67.4314 1505.17 67.4314 Q1509.47 67.4314 1513.48 66.3781 Q1517.53 65.3249 1521.5 63.2184 L1521.5 70.267 Q1517.49 71.9684 1513.27 72.8596 Q1509.06 73.7508 1504.73 73.7508 Q1493.87 73.7508 1487.51 67.4314 Q1481.19 61.1119 1481.19 50.3365 Q1481.19 39.1965 1487.19 32.6746 Q1493.22 26.1121 1503.43 26.1121 Q1512.59 26.1121 1517.89 32.0264 Q1523.24 37.9003 1523.24 48.0275 M1515.79 45.84 Q1515.7 39.7232 1512.34 36.0774 Q1509.02 32.4315 1503.51 32.4315 Q1497.27 32.4315 1493.51 35.9558 Q1489.78 39.4801 1489.21 45.8805 L1515.79 45.84 Z" fill="#000000" fill-rule="nonzero" fill-opacity="1" /><path clip-path="url(#clip920)" d="M1570.35 18.8205 L1570.35 65.8515 L1580.24 65.8515 Q1592.75 65.8515 1598.55 60.1802 Q1604.38 54.509 1604.38 42.2752 Q1604.38 30.1225 1598.55 24.4918 Q1592.75 18.8205 1580.24 18.8205 L1570.35 18.8205 M1562.17 12.096 L1578.98 12.096 Q1596.56 12.096 1604.78 19.4281 Q1613.01 26.7198 1613.01 42.2752 Q1613.01 57.9117 1604.74 65.2439 Q1596.48 72.576 1578.98 72.576 L1562.17 72.576 L1562.17 12.096 Z" fill="#000000" fill-rule="nonzero" fill-opacity="1" /><path clip-path="url(#clip920)" d="M1644.6 76.7889 Q1641.44 84.8907 1638.45 87.3618 Q1635.45 89.8329 1630.43 89.8329 L1624.47 89.8329 L1624.47 83.5945 L1628.85 83.5945 Q1631.93 83.5945 1633.63 82.1361 Q1635.33 80.6778 1637.39 75.2496 L1638.73 71.8468 L1620.38 27.2059 L1628.28 27.2059 L1642.46 62.6918 L1656.64 27.2059 L1664.53 27.2059 L1644.6 76.7889 Z" fill="#000000" fill-rule="nonzero" fill-opacity="1" /><path clip-path="url(#clip920)" d="M1712.54 45.1919 L1712.54 72.576 L1705.08 72.576 L1705.08 45.4349 Q1705.08 38.994 1702.57 35.7938 Q1700.06 32.5936 1695.04 32.5936 Q1689 32.5936 1685.52 36.4419 Q1682.03 40.2903 1682.03 46.9338 L1682.03 72.576 L1674.54 72.576 L1674.54 27.2059 L1682.03 27.2059 L1682.03 34.2544 Q1684.71 30.163 1688.31 28.1376 Q1691.96 26.1121 1696.7 26.1121 Q1704.52 26.1121 1708.53 30.9732 Q1712.54 35.7938 1712.54 45.1919 Z" fill="#000000" fill-rule="nonzero" fill-opacity="1" /><path clip-path="url(#clip920)" d="M1748.02 49.7694 Q1738.99 49.7694 1735.51 51.8354 Q1732.02 53.9013 1732.02 58.8839 Q1732.02 62.8538 1734.62 65.2034 Q1737.25 67.5124 1741.75 67.5124 Q1747.94 67.5124 1751.67 63.1374 Q1755.44 58.7219 1755.44 51.4303 L1755.44 49.7694 L1748.02 49.7694 M1762.89 46.6907 L1762.89 72.576 L1755.44 72.576 L1755.44 65.6895 Q1752.89 69.8214 1749.08 71.8063 Q1745.27 73.7508 1739.76 73.7508 Q1732.79 73.7508 1728.66 69.8619 Q1724.57 65.9325 1724.57 59.3701 Q1724.57 51.7138 1729.67 47.825 Q1734.82 43.9361 1744.99 43.9361 L1755.44 43.9361 L1755.44 43.2069 Q1755.44 38.0623 1752.03 35.2672 Q1748.67 32.4315 1742.56 32.4315 Q1738.67 32.4315 1734.98 33.3632 Q1731.29 34.295 1727.89 36.1584 L1727.89 29.2718 Q1731.98 27.692 1735.83 26.9223 Q1739.68 26.1121 1743.33 26.1121 Q1753.17 26.1121 1758.03 31.2163 Q1762.89 36.3204 1762.89 46.6907 Z" fill="#000000" fill-rule="nonzero" fill-opacity="1" /><path clip-path="url(#clip920)" d="M1813.57 35.9153 Q1816.36 30.8922 1820.25 28.5022 Q1824.14 26.1121 1829.41 26.1121 Q1836.5 26.1121 1840.34 31.0947 Q1844.19 36.0368 1844.19 45.1919 L1844.19 72.576 L1836.7 72.576 L1836.7 45.4349 Q1836.7 38.913 1834.39 35.7533 Q1832.08 32.5936 1827.34 32.5936 Q1821.55 32.5936 1818.19 36.4419 Q1814.82 40.2903 1814.82 46.9338 L1814.82 72.576 L1807.33 72.576 L1807.33 45.4349 Q1807.33 38.8725 1805.02 35.7533 Q1802.71 32.5936 1797.89 32.5936 Q1792.18 32.5936 1788.82 36.4824 Q1785.45 40.3308 1785.45 46.9338 L1785.45 72.576 L1777.96 72.576 L1777.96 27.2059 L1785.45 27.2059 L1785.45 34.2544 Q1788.01 30.082 1791.57 28.0971 Q1795.14 26.1121 1800.04 26.1121 Q1804.98 26.1121 1808.42 28.6237 Q1811.91 31.1352 1813.57 35.9153 Z" fill="#000000" fill-rule="nonzero" fill-opacity="1" /><path clip-path="url(#clip920)" d="M1859.06 27.2059 L1866.51 27.2059 L1866.51 72.576 L1859.06 72.576 L1859.06 27.2059 M1859.06 9.54393 L1866.51 9.54393 L1866.51 18.9825 L1859.06 18.9825 L1859.06 9.54393 Z" fill="#000000" fill-rule="nonzero" fill-opacity="1" /><path clip-path="url(#clip920)" d="M1914.76 28.9478 L1914.76 35.9153 Q1911.6 34.1734 1908.4 33.3227 Q1905.24 32.4315 1902 32.4315 Q1894.75 32.4315 1890.74 37.0496 Q1886.73 41.6271 1886.73 49.9314 Q1886.73 58.2358 1890.74 62.8538 Q1894.75 67.4314 1902 67.4314 Q1905.24 67.4314 1908.4 66.5807 Q1911.6 65.6895 1914.76 63.9476 L1914.76 70.8341 Q1911.64 72.2924 1908.28 73.0216 Q1904.96 73.7508 1901.19 73.7508 Q1890.94 73.7508 1884.9 67.3098 Q1878.87 60.8689 1878.87 49.9314 Q1878.87 38.832 1884.94 32.472 Q1891.06 26.1121 1901.67 26.1121 Q1905.12 26.1121 1908.4 26.8413 Q1911.68 27.5299 1914.76 28.9478 Z" fill="#000000" fill-rule="nonzero" fill-opacity="1" /><path clip-path="url(#clip920)" d="M1956.65 28.5427 L1956.65 35.5912 Q1953.49 33.9709 1950.08 33.1607 Q1946.68 32.3505 1943.03 32.3505 Q1937.48 32.3505 1934.69 34.0519 Q1931.94 35.7533 1931.94 39.156 Q1931.94 41.7486 1933.92 43.2475 Q1935.91 44.7058 1941.9 46.0426 L1944.45 46.6097 Q1952.39 48.3111 1955.71 51.4303 Q1959.08 54.509 1959.08 60.0587 Q1959.08 66.3781 1954.05 70.0644 Q1949.07 73.7508 1940.32 73.7508 Q1936.67 73.7508 1932.7 73.0216 Q1928.78 72.3329 1924.4 70.9151 L1924.4 63.2184 Q1928.53 65.3654 1932.54 66.4591 Q1936.55 67.5124 1940.48 67.5124 Q1945.75 67.5124 1948.58 65.73 Q1951.42 63.9071 1951.42 60.6258 Q1951.42 57.5877 1949.35 55.9673 Q1947.33 54.3469 1940.4 52.8481 L1937.81 52.2405 Q1930.88 50.7821 1927.8 47.7845 Q1924.72 44.7463 1924.72 39.4801 Q1924.72 33.0797 1929.26 29.5959 Q1933.8 26.1121 1942.14 26.1121 Q1946.28 26.1121 1949.92 26.7198 Q1953.57 27.3274 1956.65 28.5427 Z" fill="#000000" fill-rule="nonzero" fill-opacity="1" /><polyline clip-path="url(#clip921)" style="stroke:#0000ff; stroke-linecap:round; stroke-linejoin:round; stroke-width:8; stroke-opacity:1; fill:none" points="338.767,173.254 346.217,173.254 353.667,173.254 361.117,173.254 368.566,173.254 376.016,173.254 383.466,173.254 390.916,173.254 398.366,173.254 405.815,173.254 413.265,174.473 420.715,176.3 428.165,180.565 435.615,186.047 443.064,193.053 450.514,203.105 457.964,214.985 465.414,227.169 472.864,240.571 480.313,252.756 487.763,264.94 495.213,281.084 502.663,299.969 510.113,317.027 517.562,341.7 525.012,366.068 532.462,394.701 539.912,437.041 547.362,479.99 554.811,536.341 562.261,607.923 569.711,688.947 577.161,771.19 584.611,863.18 592.06,966.136 599.51,1069.09 606.96,1167.78 614.41,1263.73 621.86,1358.47 629.309,1432.18 636.759,1497.97 644.209,1548.84 651.659,1600.32 659.109,1636.26 666.558,1656.98 674.008,1672.51 681.458,1681.34 688.908,1685.3 696.358,1687.44 703.808,1688.05 711.257,1688.65 718.707,1688.65 726.157,1688.65 733.607,1688.65 741.057,1688.65 748.506,1688.65 755.956,1688.65 763.406,1688.65 770.856,1688.65 778.306,1688.65 785.755,1688.65 793.205,1688.65 800.655,1688.65 808.105,1688.65 815.555,1688.65 823.004,1688.65 830.454,1688.65 837.904,1688.65 845.354,1688.65 852.804,1688.65 860.253,1688.65 867.703,1688.65 875.153,1688.65 882.603,1688.65 890.053,1688.65 897.502,1688.65 904.952,1688.65 912.402,1688.65 919.852,1688.65 927.302,1688.65 934.751,1688.65 942.201,1688.65 949.651,1688.65 957.101,1688.65 964.551,1688.65 972,1688.65 979.45,1688.65 986.9,1688.65 994.35,1688.65 1001.8,1688.65 1009.25,1688.65 1016.7,1688.65 1024.15,1688.65 1031.6,1688.65 1039.05,1688.65 1046.5,1688.65 1053.95,1688.65 1061.4,1688.65 1068.85,1688.65 1076.3,1688.65 1083.75,1688.65 1091.2,1688.65 1098.65,1688.65 1106.1,1688.65 1113.55,1688.65 1121,1688.65 1128.45,1688.65 1135.9,1688.65 1143.35,1688.65 1150.8,1688.65 1158.25,1688.65 1165.7,1688.65 1173.14,1688.65 1180.59,1688.65 1188.04,1688.65 1195.49,1688.65 1202.94,1688.65 1210.39,1688.65 1217.84,1688.65 1225.29,1688.65 1232.74,1688.65 1240.19,1688.65 1247.64,1688.65 1255.09,1688.65 1262.54,1688.65 1269.99,1688.65 1277.44,1688.65 1284.89,1688.65 1292.34,1688.65 1299.79,1688.65 1307.24,1688.65 1314.69,1688.65 1322.14,1688.65 1329.59,1688.65 1337.04,1688.65 1344.49,1688.65 1351.94,1688.65 1359.39,1688.65 1366.84,1688.65 1374.29,1688.65 1381.74,1688.65 1389.19,1688.65 1396.64,1688.65 1404.09,1688.65 1411.54,1688.65 1418.99,1688.65 1426.44,1688.65 1433.89,1688.65 1441.34,1688.65 1448.79,1688.65 1456.24,1688.65 1463.69,1688.65 1471.14,1688.65 1478.59,1688.65 1486.04,1688.65 1493.49,1688.65 1500.94,1688.65 1508.39,1688.65 1515.84,1688.65 1523.29,1688.65 1530.74,1688.65 1538.19,1688.65 1545.64,1688.65 1553.08,1688.65 1560.53,1688.65 1567.98,1688.65 1575.43,1688.65 1582.88,1688.65 1590.33,1688.65 1597.78,1688.65 1605.23,1688.65 1612.68,1688.65 1620.13,1688.65 1627.58,1688.65 1635.03,1688.65 1642.48,1688.65 1649.93,1688.65 1657.38,1688.65 1664.83,1688.65 1672.28,1688.65 1679.73,1688.65 1687.18,1688.65 1694.63,1688.65 1702.08,1688.65 1709.53,1688.65 1716.98,1688.65 1724.43,1688.65 1731.88,1688.65 1739.33,1688.65 1746.78,1688.65 1754.23,1688.65 1761.68,1688.65 1769.13,1688.65 1776.58,1688.65 1784.03,1688.65 1791.48,1688.65 1798.93,1688.65 1806.38,1688.65 1813.83,1688.65 1821.28,1688.65 1828.73,1688.65 1836.18,1688.65 1843.63,1688.65 1851.08,1688.65 1858.53,1688.65 1865.98,1688.65 1873.43,1688.65 1880.88,1688.65 1888.33,1688.65 1895.78,1688.65 1903.23,1688.65 1910.68,1688.65 1918.13,1688.65 1925.57,1688.65 1933.02,1688.65 1940.47,1688.65 1947.92,1688.65 1955.37,1688.65 1962.82,1688.65 1970.27,1688.65 1977.72,1688.65 1985.17,1688.65 1992.62,1688.65 2000.07,1688.65 2007.52,1688.65 2014.97,1688.65 2022.42,1688.65 2029.87,1688.65 2037.32,1688.65 2044.77,1688.65 2052.22,1688.65 2059.67,1688.65 2067.12,1688.65 2074.57,1688.65 2082.02,1688.65 2089.47,1688.65 2096.92,1688.65 2104.37,1688.65 2111.82,1688.65 2119.27,1688.65 2126.72,1688.65 2134.17,1688.65 2141.62,1688.65 2149.07,1688.65 2156.52,1688.65 2163.97,1688.65 2171.42,1688.65 2178.87,1688.65 2186.32,1688.65 2193.77,1688.65 2201.22,1688.65 2208.67,1688.65 2216.12,1688.65 2223.57,1688.65 2231.02,1688.65 2238.47,1688.65 2245.92,1688.65 2253.37,1688.65 2260.82,1688.65 2268.27,1688.65 2275.72,1688.65 2283.17,1688.65 2290.62,1688.65 2298.07,1688.65 2305.51,1688.65 2312.96,1688.65 2320.41,1688.65 2327.86,1688.65 2335.31,1688.65 2342.76,1688.65 2350.21,1688.65 2357.66,1688.65 2365.11,1688.65 2372.56,1688.65 2380.01,1688.65 2387.46,1688.65 2394.91,1688.65 2402.36,1688.65 2409.81,1688.65 2417.26,1688.65 2424.71,1688.65 2432.16,1688.65 2439.61,1688.65 2447.06,1688.65 2454.51,1688.65 2461.96,1688.65 2469.41,1688.65 2476.86,1688.65 2484.31,1688.65 2491.76,1688.65 2499.21,1688.65 2506.66,1688.65 2514.11,1688.65 2521.56,1688.65 2529.01,1688.65 2536.46,1688.65 2543.91,1688.65 2551.36,1688.65 2558.81,1688.65 2566.26,1688.65 2573.71,1688.65 "/>
<polyline clip-path="url(#clip921)" style="stroke:#ffa500; stroke-linecap:round; stroke-linejoin:round; stroke-width:8; stroke-opacity:1; fill:none" points="338.767,1681.04 346.217,1681.04 353.667,1681.04 361.117,1681.04 368.566,1681.04 376.016,1681.04 383.466,1681.04 390.916,1681.04 398.366,1681.04 405.815,1681.04 413.265,1680.43 420.715,1679.52 428.165,1676.17 435.615,1671.9 443.064,1666.72 450.514,1657.59 457.964,1646.62 465.414,1634.44 472.864,1621.03 480.313,1608.85 487.763,1596.97 495.213,1581.13 502.663,1563.77 510.113,1547.62 517.562,1526.3 525.012,1505.89 532.462,1482.44 539.912,1447.41 547.362,1411.16 554.811,1364.25 562.261,1305.46 569.711,1239.97 577.161,1169.61 584.611,1088.89 592.06,1000.56 599.51,917.704 606.96,837.594 614.41,765.403 621.86,704.787 629.309,659.705 636.759,635.033 644.209,639.906 651.659,640.211 659.109,668.234 666.558,718.494 674.008,782.765 681.458,865.922 688.908,951.515 696.358,1044.72 703.808,1146.46 711.257,1230.84 718.707,1315.21 726.157,1398.67 733.607,1462.03 741.057,1522.95 748.506,1571.38 755.956,1606.41 763.406,1637.18 770.856,1657.89 778.306,1669.77 785.755,1677.38 793.205,1683.78 800.655,1686.22 808.105,1688.05 815.555,1688.35 823.004,1688.65 830.454,1688.65 837.904,1688.65 845.354,1688.65 852.804,1688.65 860.253,1688.65 867.703,1688.65 875.153,1688.65 882.603,1688.65 890.053,1688.65 897.502,1688.65 904.952,1688.65 912.402,1688.65 919.852,1688.65 927.302,1688.65 934.751,1688.65 942.201,1688.65 949.651,1688.65 957.101,1688.65 964.551,1688.65 972,1688.65 979.45,1688.65 986.9,1688.65 994.35,1688.65 1001.8,1688.65 1009.25,1688.65 1016.7,1688.65 1024.15,1688.65 1031.6,1688.65 1039.05,1688.65 1046.5,1688.65 1053.95,1688.65 1061.4,1688.65 1068.85,1688.65 1076.3,1688.65 1083.75,1688.65 1091.2,1688.65 1098.65,1688.65 1106.1,1688.65 1113.55,1688.65 1121,1688.65 1128.45,1688.65 1135.9,1688.65 1143.35,1688.65 1150.8,1688.65 1158.25,1688.65 1165.7,1688.65 1173.14,1688.65 1180.59,1688.65 1188.04,1688.65 1195.49,1688.65 1202.94,1688.65 1210.39,1688.65 1217.84,1688.65 1225.29,1688.65 1232.74,1688.65 1240.19,1688.65 1247.64,1688.65 1255.09,1688.65 1262.54,1688.65 1269.99,1688.65 1277.44,1688.65 1284.89,1688.65 1292.34,1688.65 1299.79,1688.65 1307.24,1688.65 1314.69,1688.65 1322.14,1688.65 1329.59,1688.65 1337.04,1688.65 1344.49,1688.65 1351.94,1688.65 1359.39,1688.65 1366.84,1688.65 1374.29,1688.65 1381.74,1688.65 1389.19,1688.65 1396.64,1688.65 1404.09,1688.65 1411.54,1688.65 1418.99,1688.65 1426.44,1688.65 1433.89,1688.65 1441.34,1688.65 1448.79,1688.65 1456.24,1688.65 1463.69,1688.65 1471.14,1688.65 1478.59,1688.65 1486.04,1688.65 1493.49,1688.65 1500.94,1688.65 1508.39,1688.65 1515.84,1688.65 1523.29,1688.65 1530.74,1688.65 1538.19,1688.65 1545.64,1688.65 1553.08,1688.65 1560.53,1688.65 1567.98,1688.65 1575.43,1688.65 1582.88,1688.65 1590.33,1688.65 1597.78,1688.65 1605.23,1688.65 1612.68,1688.65 1620.13,1688.65 1627.58,1688.65 1635.03,1688.65 1642.48,1688.65 1649.93,1688.65 1657.38,1688.65 1664.83,1688.65 1672.28,1688.65 1679.73,1688.65 1687.18,1688.65 1694.63,1688.65 1702.08,1688.65 1709.53,1688.65 1716.98,1688.65 1724.43,1688.65 1731.88,1688.65 1739.33,1688.65 1746.78,1688.65 1754.23,1688.65 1761.68,1688.65 1769.13,1688.65 1776.58,1688.65 1784.03,1688.65 1791.48,1688.65 1798.93,1688.65 1806.38,1688.65 1813.83,1688.65 1821.28,1688.65 1828.73,1688.65 1836.18,1688.65 1843.63,1688.65 1851.08,1688.65 1858.53,1688.65 1865.98,1688.65 1873.43,1688.65 1880.88,1688.65 1888.33,1688.65 1895.78,1688.65 1903.23,1688.65 1910.68,1688.65 1918.13,1688.65 1925.57,1688.65 1933.02,1688.65 1940.47,1688.65 1947.92,1688.65 1955.37,1688.65 1962.82,1688.65 1970.27,1688.65 1977.72,1688.65 1985.17,1688.65 1992.62,1688.65 2000.07,1688.65 2007.52,1688.65 2014.97,1688.65 2022.42,1688.65 2029.87,1688.65 2037.32,1688.65 2044.77,1688.65 2052.22,1688.65 2059.67,1688.65 2067.12,1688.65 2074.57,1688.65 2082.02,1688.65 2089.47,1688.65 2096.92,1688.65 2104.37,1688.65 2111.82,1688.65 2119.27,1688.65 2126.72,1688.65 2134.17,1688.65 2141.62,1688.65 2149.07,1688.65 2156.52,1688.65 2163.97,1688.65 2171.42,1688.65 2178.87,1688.65 2186.32,1688.65 2193.77,1688.65 2201.22,1688.65 2208.67,1688.65 2216.12,1688.65 2223.57,1688.65 2231.02,1688.65 2238.47,1688.65 2245.92,1688.65 2253.37,1688.65 2260.82,1688.65 2268.27,1688.65 2275.72,1688.65 2283.17,1688.65 2290.62,1688.65 2298.07,1688.65 2305.51,1688.65 2312.96,1688.65 2320.41,1688.65 2327.86,1688.65 2335.31,1688.65 2342.76,1688.65 2350.21,1688.65 2357.66,1688.65 2365.11,1688.65 2372.56,1688.65 2380.01,1688.65 2387.46,1688.65 2394.91,1688.65 2402.36,1688.65 2409.81,1688.65 2417.26,1688.65 2424.71,1688.65 2432.16,1688.65 2439.61,1688.65 2447.06,1688.65 2454.51,1688.65 2461.96,1688.65 2469.41,1688.65 2476.86,1688.65 2484.31,1688.65 2491.76,1688.65 2499.21,1688.65 2506.66,1688.65 2514.11,1688.65 2521.56,1688.65 2529.01,1688.65 2536.46,1688.65 2543.91,1688.65 2551.36,1688.65 2558.81,1688.65 2566.26,1688.65 2573.71,1688.65 "/>
<polyline clip-path="url(#clip921)" style="stroke:#ff0000; stroke-linecap:round; stroke-linejoin:round; stroke-width:8; stroke-opacity:1; fill:none" points="338.767,1688.65 346.217,1688.65 353.667,1688.65 361.117,1688.65 368.566,1688.65 376.016,1688.65 383.466,1688.65 390.916,1688.65 398.366,1688.65 405.815,1688.65 413.265,1688.05 420.715,1687.13 428.165,1686.22 435.615,1685 443.064,1683.17 450.514,1682.26 457.964,1681.34 465.414,1681.95 472.864,1682.26 480.313,1682.87 487.763,1682.87 495.213,1682.56 502.663,1681.34 510.113,1681.04 517.562,1677.99 525.012,1674.64 532.462,1670.07 539.912,1663.37 547.362,1657.89 554.811,1649.06 562.261,1636.87 569.711,1621.95 577.161,1612.81 584.611,1604.28 592.06,1591.49 599.51,1575.95 606.96,1562.85 614.41,1543.36 621.86,1518.69 629.309,1499.5 636.759,1465.69 644.209,1419.08 651.659,1384.97 659.109,1331.66 666.558,1276.83 674.008,1216.22 681.458,1149.2 688.908,1084.32 696.358,1022.49 703.808,952.429 711.257,918.314 718.707,883.589 726.157,849.778 733.607,844.904 741.057,846.732 748.506,868.968 755.956,910.394 763.406,957.303 770.856,1009.09 778.306,1076.1 785.755,1144.33 793.205,1209.21 800.655,1277.14 808.105,1342.02 815.555,1397.76 823.004,1445.89 830.454,1492.19 837.904,1530.87 845.354,1561.94 852.804,1587.83 860.253,1612.2 867.703,1633.22 875.153,1646.62 882.603,1659.41 890.053,1666.11 897.502,1675.56 904.952,1681.65 912.402,1684.7 919.852,1687.13 927.302,1687.44 934.751,1688.05 942.201,1688.65 949.651,1688.65 957.101,1688.65 964.551,1688.65 972,1688.65 979.45,1688.65 986.9,1688.65 994.35,1688.65 1001.8,1688.65 1009.25,1688.65 1016.7,1688.65 1024.15,1688.65 1031.6,1688.65 1039.05,1688.65 1046.5,1688.65 1053.95,1688.65 1061.4,1688.65 1068.85,1688.65 1076.3,1688.65 1083.75,1688.65 1091.2,1688.65 1098.65,1688.65 1106.1,1688.65 1113.55,1688.65 1121,1688.65 1128.45,1688.65 1135.9,1688.65 1143.35,1688.65 1150.8,1688.65 1158.25,1688.65 1165.7,1688.65 1173.14,1688.65 1180.59,1688.65 1188.04,1688.65 1195.49,1688.65 1202.94,1688.65 1210.39,1688.65 1217.84,1688.65 1225.29,1688.65 1232.74,1688.65 1240.19,1688.65 1247.64,1688.65 1255.09,1688.65 1262.54,1688.65 1269.99,1688.65 1277.44,1688.65 1284.89,1688.65 1292.34,1688.65 1299.79,1688.65 1307.24,1688.65 1314.69,1688.65 1322.14,1688.65 1329.59,1688.65 1337.04,1688.65 1344.49,1688.65 1351.94,1688.65 1359.39,1688.65 1366.84,1688.65 1374.29,1688.65 1381.74,1688.65 1389.19,1688.65 1396.64,1688.65 1404.09,1688.65 1411.54,1688.65 1418.99,1688.65 1426.44,1688.65 1433.89,1688.65 1441.34,1688.65 1448.79,1688.65 1456.24,1688.65 1463.69,1688.65 1471.14,1688.65 1478.59,1688.65 1486.04,1688.65 1493.49,1688.65 1500.94,1688.65 1508.39,1688.65 1515.84,1688.65 1523.29,1688.65 1530.74,1688.65 1538.19,1688.65 1545.64,1688.65 1553.08,1688.65 1560.53,1688.65 1567.98,1688.65 1575.43,1688.65 1582.88,1688.65 1590.33,1688.65 1597.78,1688.65 1605.23,1688.65 1612.68,1688.65 1620.13,1688.65 1627.58,1688.65 1635.03,1688.65 1642.48,1688.65 1649.93,1688.65 1657.38,1688.65 1664.83,1688.65 1672.28,1688.65 1679.73,1688.65 1687.18,1688.65 1694.63,1688.65 1702.08,1688.65 1709.53,1688.65 1716.98,1688.65 1724.43,1688.65 1731.88,1688.65 1739.33,1688.65 1746.78,1688.65 1754.23,1688.65 1761.68,1688.65 1769.13,1688.65 1776.58,1688.65 1784.03,1688.65 1791.48,1688.65 1798.93,1688.65 1806.38,1688.65 1813.83,1688.65 1821.28,1688.65 1828.73,1688.65 1836.18,1688.65 1843.63,1688.65 1851.08,1688.65 1858.53,1688.65 1865.98,1688.65 1873.43,1688.65 1880.88,1688.65 1888.33,1688.65 1895.78,1688.65 1903.23,1688.65 1910.68,1688.65 1918.13,1688.65 1925.57,1688.65 1933.02,1688.65 1940.47,1688.65 1947.92,1688.65 1955.37,1688.65 1962.82,1688.65 1970.27,1688.65 1977.72,1688.65 1985.17,1688.65 1992.62,1688.65 2000.07,1688.65 2007.52,1688.65 2014.97,1688.65 2022.42,1688.65 2029.87,1688.65 2037.32,1688.65 2044.77,1688.65 2052.22,1688.65 2059.67,1688.65 2067.12,1688.65 2074.57,1688.65 2082.02,1688.65 2089.47,1688.65 2096.92,1688.65 2104.37,1688.65 2111.82,1688.65 2119.27,1688.65 2126.72,1688.65 2134.17,1688.65 2141.62,1688.65 2149.07,1688.65 2156.52,1688.65 2163.97,1688.65 2171.42,1688.65 2178.87,1688.65 2186.32,1688.65 2193.77,1688.65 2201.22,1688.65 2208.67,1688.65 2216.12,1688.65 2223.57,1688.65 2231.02,1688.65 2238.47,1688.65 2245.92,1688.65 2253.37,1688.65 2260.82,1688.65 2268.27,1688.65 2275.72,1688.65 2283.17,1688.65 2290.62,1688.65 2298.07,1688.65 2305.51,1688.65 2312.96,1688.65 2320.41,1688.65 2327.86,1688.65 2335.31,1688.65 2342.76,1688.65 2350.21,1688.65 2357.66,1688.65 2365.11,1688.65 2372.56,1688.65 2380.01,1688.65 2387.46,1688.65 2394.91,1688.65 2402.36,1688.65 2409.81,1688.65 2417.26,1688.65 2424.71,1688.65 2432.16,1688.65 2439.61,1688.65 2447.06,1688.65 2454.51,1688.65 2461.96,1688.65 2469.41,1688.65 2476.86,1688.65 2484.31,1688.65 2491.76,1688.65 2499.21,1688.65 2506.66,1688.65 2514.11,1688.65 2521.56,1688.65 2529.01,1688.65 2536.46,1688.65 2543.91,1688.65 2551.36,1688.65 2558.81,1688.65 2566.26,1688.65 2573.71,1688.65 "/>
<polyline clip-path="url(#clip921)" style="stroke:#800080; stroke-linecap:round; stroke-linejoin:round; stroke-width:8; stroke-opacity:1; fill:none" points="338.767,1688.65 346.217,1688.65 353.667,1688.65 361.117,1688.65 368.566,1688.65 376.016,1688.65 383.466,1688.65 390.916,1688.65 398.366,1688.65 405.815,1688.65 413.265,1688.65 420.715,1688.65 428.165,1688.65 435.615,1688.65 443.064,1688.65 450.514,1688.35 457.964,1688.05 465.414,1688.05 472.864,1687.44 480.313,1687.13 487.763,1687.13 495.213,1685 502.663,1685 510.113,1685 517.562,1685.3 525.012,1685.91 532.462,1685.61 539.912,1685.3 547.362,1685.61 554.811,1685.61 562.261,1684.39 569.711,1681.04 577.161,1680.43 584.611,1679.21 592.06,1673.73 599.51,1671.29 606.96,1667.03 614.41,1660.02 621.86,1656.37 629.309,1653.32 636.759,1645.1 644.209,1637.79 651.659,1634.44 659.109,1627.73 666.558,1618.29 674.008,1610.37 681.458,1597.58 688.908,1574.73 696.358,1558.59 703.808,1535.13 711.257,1526.61 718.707,1503.15 726.157,1480.92 733.607,1455.94 741.057,1430.35 748.506,1412.68 755.956,1397.45 763.406,1391.36 770.856,1388.62 778.306,1388.62 785.755,1392.89 793.205,1407.81 800.655,1423.95 808.105,1451.06 815.555,1476.04 823.004,1499.19 830.454,1527.52 837.904,1554.32 845.354,1579 852.804,1596.97 860.253,1618.29 867.703,1635.65 875.153,1647.53 882.603,1659.41 890.053,1666.11 897.502,1675.56 904.952,1681.65 912.402,1684.7 919.852,1687.13 927.302,1687.44 934.751,1688.05 942.201,1688.65 949.651,1688.65 957.101,1688.65 964.551,1688.65 972,1688.65 979.45,1688.65 986.9,1688.65 994.35,1688.65 1001.8,1688.65 1009.25,1688.65 1016.7,1688.65 1024.15,1688.65 1031.6,1688.65 1039.05,1688.65 1046.5,1688.65 1053.95,1688.65 1061.4,1688.65 1068.85,1688.65 1076.3,1688.65 1083.75,1688.65 1091.2,1688.65 1098.65,1688.65 1106.1,1688.65 1113.55,1688.65 1121,1688.65 1128.45,1688.65 1135.9,1688.65 1143.35,1688.65 1150.8,1688.65 1158.25,1688.65 1165.7,1688.65 1173.14,1688.65 1180.59,1688.65 1188.04,1688.65 1195.49,1688.65 1202.94,1688.65 1210.39,1688.65 1217.84,1688.65 1225.29,1688.65 1232.74,1688.65 1240.19,1688.65 1247.64,1688.65 1255.09,1688.65 1262.54,1688.65 1269.99,1688.65 1277.44,1688.65 1284.89,1688.65 1292.34,1688.65 1299.79,1688.65 1307.24,1688.65 1314.69,1688.65 1322.14,1688.65 1329.59,1688.65 1337.04,1688.65 1344.49,1688.65 1351.94,1688.65 1359.39,1688.65 1366.84,1688.65 1374.29,1688.65 1381.74,1688.65 1389.19,1688.65 1396.64,1688.65 1404.09,1688.65 1411.54,1688.65 1418.99,1688.65 1426.44,1688.65 1433.89,1688.65 1441.34,1688.65 1448.79,1688.65 1456.24,1688.65 1463.69,1688.65 1471.14,1688.65 1478.59,1688.65 1486.04,1688.65 1493.49,1688.65 1500.94,1688.65 1508.39,1688.65 1515.84,1688.65 1523.29,1688.65 1530.74,1688.65 1538.19,1688.65 1545.64,1688.65 1553.08,1688.65 1560.53,1688.65 1567.98,1688.65 1575.43,1688.65 1582.88,1688.65 1590.33,1688.65 1597.78,1688.65 1605.23,1688.65 1612.68,1688.65 1620.13,1688.65 1627.58,1688.65 1635.03,1688.65 1642.48,1688.65 1649.93,1688.65 1657.38,1688.65 1664.83,1688.65 1672.28,1688.65 1679.73,1688.65 1687.18,1688.65 1694.63,1688.65 1702.08,1688.65 1709.53,1688.65 1716.98,1688.65 1724.43,1688.65 1731.88,1688.65 1739.33,1688.65 1746.78,1688.65 1754.23,1688.65 1761.68,1688.65 1769.13,1688.65 1776.58,1688.65 1784.03,1688.65 1791.48,1688.65 1798.93,1688.65 1806.38,1688.65 1813.83,1688.65 1821.28,1688.65 1828.73,1688.65 1836.18,1688.65 1843.63,1688.65 1851.08,1688.65 1858.53,1688.65 1865.98,1688.65 1873.43,1688.65 1880.88,1688.65 1888.33,1688.65 1895.78,1688.65 1903.23,1688.65 1910.68,1688.65 1918.13,1688.65 1925.57,1688.65 1933.02,1688.65 1940.47,1688.65 1947.92,1688.65 1955.37,1688.65 1962.82,1688.65 1970.27,1688.65 1977.72,1688.65 1985.17,1688.65 1992.62,1688.65 2000.07,1688.65 2007.52,1688.65 2014.97,1688.65 2022.42,1688.65 2029.87,1688.65 2037.32,1688.65 2044.77,1688.65 2052.22,1688.65 2059.67,1688.65 2067.12,1688.65 2074.57,1688.65 2082.02,1688.65 2089.47,1688.65 2096.92,1688.65 2104.37,1688.65 2111.82,1688.65 2119.27,1688.65 2126.72,1688.65 2134.17,1688.65 2141.62,1688.65 2149.07,1688.65 2156.52,1688.65 2163.97,1688.65 2171.42,1688.65 2178.87,1688.65 2186.32,1688.65 2193.77,1688.65 2201.22,1688.65 2208.67,1688.65 2216.12,1688.65 2223.57,1688.65 2231.02,1688.65 2238.47,1688.65 2245.92,1688.65 2253.37,1688.65 2260.82,1688.65 2268.27,1688.65 2275.72,1688.65 2283.17,1688.65 2290.62,1688.65 2298.07,1688.65 2305.51,1688.65 2312.96,1688.65 2320.41,1688.65 2327.86,1688.65 2335.31,1688.65 2342.76,1688.65 2350.21,1688.65 2357.66,1688.65 2365.11,1688.65 2372.56,1688.65 2380.01,1688.65 2387.46,1688.65 2394.91,1688.65 2402.36,1688.65 2409.81,1688.65 2417.26,1688.65 2424.71,1688.65 2432.16,1688.65 2439.61,1688.65 2447.06,1688.65 2454.51,1688.65 2461.96,1688.65 2469.41,1688.65 2476.86,1688.65 2484.31,1688.65 2491.76,1688.65 2499.21,1688.65 2506.66,1688.65 2514.11,1688.65 2521.56,1688.65 2529.01,1688.65 2536.46,1688.65 2543.91,1688.65 2551.36,1688.65 2558.81,1688.65 2566.26,1688.65 2573.71,1688.65 "/>
<polyline clip-path="url(#clip921)" style="stroke:#008000; stroke-linecap:round; stroke-linejoin:round; stroke-width:8; stroke-opacity:1; fill:none" points="338.767,1688.65 346.217,1688.65 353.667,1688.65 361.117,1688.65 368.566,1688.65 376.016,1688.65 383.466,1688.65 390.916,1688.65 398.366,1688.65 405.815,1688.65 413.265,1688.65 420.715,1688.65 428.165,1688.65 435.615,1688.65 443.064,1688.65 450.514,1688.65 457.964,1688.65 465.414,1688.65 472.864,1688.65 480.313,1688.35 487.763,1688.05 495.213,1688.05 502.663,1688.05 510.113,1687.44 517.562,1687.44 525.012,1686.83 532.462,1686.22 539.912,1685.61 547.362,1685 554.811,1684.7 562.261,1684.39 569.711,1684.09 577.161,1682.87 584.611,1680.74 592.06,1680.43 599.51,1679.21 606.96,1677.08 614.41,1675.56 621.86,1673.12 629.309,1667.94 636.759,1664.59 644.209,1660.02 651.659,1651.49 659.109,1647.23 666.558,1639.92 674.008,1633.22 681.458,1621.34 688.908,1609.15 696.358,1595.14 703.808,1583.57 711.257,1562.85 718.707,1539.4 726.157,1519.9 733.607,1494.01 741.057,1463.25 748.506,1428.83 755.956,1387.1 763.406,1344.76 770.856,1300.9 778.306,1255.2 785.755,1206.77 793.205,1161.08 800.655,1113.56 808.105,1062.09 815.555,1020.96 823.004,979.539 830.454,938.722 837.904,904.302 845.354,876.583 852.804,852.215 860.253,829.065 867.703,808.047 875.153,794.645 882.603,782.156 890.053,775.759 897.502,766.317 904.952,760.224 912.402,757.178 919.852,754.742 927.302,754.437 934.751,753.828 942.201,753.219 949.651,753.219 957.101,753.219 964.551,753.219 972,753.219 979.45,753.219 986.9,753.219 994.35,753.219 1001.8,753.219 1009.25,753.219 1016.7,753.219 1024.15,753.219 1031.6,753.219 1039.05,753.219 1046.5,753.219 1053.95,753.219 1061.4,753.219 1068.85,753.219 1076.3,753.219 1083.75,753.219 1091.2,753.219 1098.65,753.219 1106.1,753.219 1113.55,753.219 1121,753.219 1128.45,753.219 1135.9,753.219 1143.35,753.219 1150.8,753.219 1158.25,753.219 1165.7,753.219 1173.14,753.219 1180.59,753.219 1188.04,753.219 1195.49,753.219 1202.94,753.219 1210.39,753.219 1217.84,753.219 1225.29,753.219 1232.74,753.219 1240.19,753.219 1247.64,753.219 1255.09,753.219 1262.54,753.219 1269.99,753.219 1277.44,753.219 1284.89,753.219 1292.34,753.219 1299.79,753.219 1307.24,753.219 1314.69,753.219 1322.14,753.219 1329.59,753.219 1337.04,753.219 1344.49,753.219 1351.94,753.219 1359.39,753.219 1366.84,753.219 1374.29,753.219 1381.74,753.219 1389.19,753.219 1396.64,753.219 1404.09,753.219 1411.54,753.219 1418.99,753.219 1426.44,753.219 1433.89,753.219 1441.34,753.219 1448.79,753.219 1456.24,753.219 1463.69,753.219 1471.14,753.219 1478.59,753.219 1486.04,753.219 1493.49,753.219 1500.94,753.219 1508.39,753.219 1515.84,753.219 1523.29,753.219 1530.74,753.219 1538.19,753.219 1545.64,753.219 1553.08,753.219 1560.53,753.219 1567.98,753.219 1575.43,753.219 1582.88,753.219 1590.33,753.219 1597.78,753.219 1605.23,753.219 1612.68,753.219 1620.13,753.219 1627.58,753.219 1635.03,753.219 1642.48,753.219 1649.93,753.219 1657.38,753.219 1664.83,753.219 1672.28,753.219 1679.73,753.219 1687.18,753.219 1694.63,753.219 1702.08,753.219 1709.53,753.219 1716.98,753.219 1724.43,753.219 1731.88,753.219 1739.33,753.219 1746.78,753.219 1754.23,753.219 1761.68,753.219 1769.13,753.219 1776.58,753.219 1784.03,753.219 1791.48,753.219 1798.93,753.219 1806.38,753.219 1813.83,753.219 1821.28,753.219 1828.73,753.219 1836.18,753.219 1843.63,753.219 1851.08,753.219 1858.53,753.219 1865.98,753.219 1873.43,753.219 1880.88,753.219 1888.33,753.219 1895.78,753.219 1903.23,753.219 1910.68,753.219 1918.13,753.219 1925.57,753.219 1933.02,753.219 1940.47,753.219 1947.92,753.219 1955.37,753.219 1962.82,753.219 1970.27,753.219 1977.72,753.219 1985.17,753.219 1992.62,753.219 2000.07,753.219 2007.52,753.219 2014.97,753.219 2022.42,753.219 2029.87,753.219 2037.32,753.219 2044.77,753.219 2052.22,753.219 2059.67,753.219 2067.12,753.219 2074.57,753.219 2082.02,753.219 2089.47,753.219 2096.92,753.219 2104.37,753.219 2111.82,753.219 2119.27,753.219 2126.72,753.219 2134.17,753.219 2141.62,753.219 2149.07,753.219 2156.52,753.219 2163.97,753.219 2171.42,753.219 2178.87,753.219 2186.32,753.219 2193.77,753.219 2201.22,753.219 2208.67,753.219 2216.12,753.219 2223.57,753.219 2231.02,753.219 2238.47,753.219 2245.92,753.219 2253.37,753.219 2260.82,753.219 2268.27,753.219 2275.72,753.219 2283.17,753.219 2290.62,753.219 2298.07,753.219 2305.51,753.219 2312.96,753.219 2320.41,753.219 2327.86,753.219 2335.31,753.219 2342.76,753.219 2350.21,753.219 2357.66,753.219 2365.11,753.219 2372.56,753.219 2380.01,753.219 2387.46,753.219 2394.91,753.219 2402.36,753.219 2409.81,753.219 2417.26,753.219 2424.71,753.219 2432.16,753.219 2439.61,753.219 2447.06,753.219 2454.51,753.219 2461.96,753.219 2469.41,753.219 2476.86,753.219 2484.31,753.219 2491.76,753.219 2499.21,753.219 2506.66,753.219 2514.11,753.219 2521.56,753.219 2529.01,753.219 2536.46,753.219 2543.91,753.219 2551.36,753.219 2558.81,753.219 2566.26,753.219 2573.71,753.219 "/>
<path clip-path="url(#clip920)" d="M2056.18 492.376 L2561.79 492.376 L2561.79 181.336 L2056.18 181.336  Z" fill="#ffffff" fill-rule="evenodd" fill-opacity="1"/>
<polyline clip-path="url(#clip920)" style="stroke:#000000; stroke-linecap:round; stroke-linejoin:round; stroke-width:4; stroke-opacity:1; fill:none" points="2056.18,492.376 2561.79,492.376 2561.79,181.336 2056.18,181.336 2056.18,492.376 "/>
<polyline clip-path="url(#clip920)" style="stroke:#0000ff; stroke-linecap:round; stroke-linejoin:round; stroke-width:8; stroke-opacity:1; fill:none" points="2082.5,233.176 2240.44,233.176 "/>
<path clip-path="url(#clip920)" d="M2289.01 217.031 L2289.01 221.591 Q2286.35 220.318 2283.99 219.693 Q2281.62 219.068 2279.43 219.068 Q2275.61 219.068 2273.52 220.549 Q2271.46 222.031 2271.46 224.762 Q2271.46 227.054 2272.83 228.234 Q2274.22 229.392 2278.06 230.109 L2280.88 230.688 Q2286.11 231.683 2288.59 234.206 Q2291.09 236.706 2291.09 240.919 Q2291.09 245.942 2287.71 248.535 Q2284.36 251.128 2277.85 251.128 Q2275.4 251.128 2272.62 250.572 Q2269.86 250.016 2266.9 248.929 L2266.9 244.114 Q2269.75 245.711 2272.48 246.521 Q2275.21 247.331 2277.85 247.331 Q2281.86 247.331 2284.03 245.757 Q2286.21 244.183 2286.21 241.267 Q2286.21 238.72 2284.63 237.285 Q2283.08 235.85 2279.52 235.132 L2276.67 234.577 Q2271.44 233.535 2269.1 231.313 Q2266.76 229.091 2266.76 225.132 Q2266.76 220.549 2269.98 217.91 Q2273.22 215.271 2278.89 215.271 Q2281.32 215.271 2283.85 215.711 Q2286.37 216.151 2289.01 217.031 Z" fill="#000000" fill-rule="nonzero" fill-opacity="1" /><path clip-path="url(#clip920)" d="M2297.76 240.225 L2297.76 224.531 L2302.02 224.531 L2302.02 240.063 Q2302.02 243.743 2303.45 245.595 Q2304.89 247.424 2307.76 247.424 Q2311.21 247.424 2313.2 245.225 Q2315.21 243.026 2315.21 239.229 L2315.21 224.531 L2319.47 224.531 L2319.47 250.456 L2315.21 250.456 L2315.21 246.475 Q2313.66 248.836 2311.6 249.993 Q2309.56 251.128 2306.86 251.128 Q2302.39 251.128 2300.07 248.35 Q2297.76 245.572 2297.76 240.225 M2308.48 223.906 L2308.48 223.906 Z" fill="#000000" fill-rule="nonzero" fill-opacity="1" /><path clip-path="url(#clip920)" d="M2344.77 225.294 L2344.77 229.322 Q2342.97 228.396 2341.02 227.933 Q2339.08 227.47 2336.99 227.47 Q2333.82 227.47 2332.23 228.443 Q2330.65 229.415 2330.65 231.359 Q2330.65 232.841 2331.79 233.697 Q2332.92 234.53 2336.35 235.294 L2337.8 235.618 Q2342.34 236.591 2344.24 238.373 Q2346.16 240.132 2346.16 243.304 Q2346.16 246.915 2343.29 249.021 Q2340.44 251.128 2335.44 251.128 Q2333.36 251.128 2331.09 250.711 Q2328.85 250.317 2326.35 249.507 L2326.35 245.109 Q2328.71 246.336 2331 246.961 Q2333.29 247.563 2335.54 247.563 Q2338.55 247.563 2340.17 246.544 Q2341.79 245.503 2341.79 243.628 Q2341.79 241.892 2340.61 240.966 Q2339.45 240.04 2335.49 239.183 L2334.01 238.836 Q2330.05 238.003 2328.29 236.29 Q2326.53 234.554 2326.53 231.544 Q2326.53 227.887 2329.12 225.896 Q2331.72 223.906 2336.48 223.906 Q2338.85 223.906 2340.93 224.253 Q2343.01 224.6 2344.77 225.294 Z" fill="#000000" fill-rule="nonzero" fill-opacity="1" /><path clip-path="url(#clip920)" d="M2371.6 225.526 L2371.6 229.507 Q2369.79 228.512 2367.97 228.026 Q2366.16 227.517 2364.31 227.517 Q2360.17 227.517 2357.87 230.155 Q2355.58 232.771 2355.58 237.517 Q2355.58 242.262 2357.87 244.901 Q2360.17 247.516 2364.31 247.516 Q2366.16 247.516 2367.97 247.03 Q2369.79 246.521 2371.6 245.526 L2371.6 249.461 Q2369.82 250.294 2367.9 250.711 Q2366 251.128 2363.85 251.128 Q2357.99 251.128 2354.54 247.447 Q2351.09 243.767 2351.09 237.517 Q2351.09 231.174 2354.56 227.54 Q2358.06 223.906 2364.12 223.906 Q2366.09 223.906 2367.97 224.322 Q2369.84 224.716 2371.6 225.526 Z" fill="#000000" fill-rule="nonzero" fill-opacity="1" /><path clip-path="url(#clip920)" d="M2401.18 236.429 L2401.18 238.512 L2381.6 238.512 Q2381.88 242.91 2384.24 245.225 Q2386.62 247.516 2390.86 247.516 Q2393.31 247.516 2395.61 246.915 Q2397.92 246.313 2400.19 245.109 L2400.19 249.137 Q2397.9 250.109 2395.49 250.618 Q2393.08 251.128 2390.61 251.128 Q2384.4 251.128 2380.77 247.516 Q2377.16 243.905 2377.16 237.748 Q2377.16 231.382 2380.58 227.655 Q2384.03 223.906 2389.86 223.906 Q2395.1 223.906 2398.13 227.285 Q2401.18 230.642 2401.18 236.429 M2396.92 235.179 Q2396.88 231.683 2394.96 229.6 Q2393.06 227.517 2389.91 227.517 Q2386.35 227.517 2384.19 229.53 Q2382.06 231.544 2381.74 235.202 L2396.92 235.179 Z" fill="#000000" fill-rule="nonzero" fill-opacity="1" /><path clip-path="url(#clip920)" d="M2412.29 246.567 L2412.29 260.317 L2408.01 260.317 L2408.01 224.531 L2412.29 224.531 L2412.29 228.466 Q2413.64 226.151 2415.67 225.04 Q2417.73 223.906 2420.58 223.906 Q2425.3 223.906 2428.24 227.655 Q2431.21 231.405 2431.21 237.517 Q2431.21 243.628 2428.24 247.378 Q2425.3 251.128 2420.58 251.128 Q2417.73 251.128 2415.67 250.016 Q2413.64 248.882 2412.29 246.567 M2426.79 237.517 Q2426.79 232.817 2424.84 230.155 Q2422.92 227.47 2419.54 227.47 Q2416.16 227.47 2414.22 230.155 Q2412.29 232.817 2412.29 237.517 Q2412.29 242.216 2414.22 244.901 Q2416.16 247.563 2419.54 247.563 Q2422.92 247.563 2424.84 244.901 Q2426.79 242.216 2426.79 237.517 Z" fill="#000000" fill-rule="nonzero" fill-opacity="1" /><path clip-path="url(#clip920)" d="M2442.48 217.169 L2442.48 224.531 L2451.25 224.531 L2451.25 227.841 L2442.48 227.841 L2442.48 241.915 Q2442.48 245.086 2443.34 245.989 Q2444.22 246.891 2446.88 246.891 L2451.25 246.891 L2451.25 250.456 L2446.88 250.456 Q2441.95 250.456 2440.07 248.628 Q2438.2 246.776 2438.2 241.915 L2438.2 227.841 L2435.07 227.841 L2435.07 224.531 L2438.2 224.531 L2438.2 217.169 L2442.48 217.169 Z" fill="#000000" fill-rule="nonzero" fill-opacity="1" /><path clip-path="url(#clip920)" d="M2456.85 224.531 L2461.11 224.531 L2461.11 250.456 L2456.85 250.456 L2456.85 224.531 M2456.85 214.438 L2461.11 214.438 L2461.11 219.831 L2456.85 219.831 L2456.85 214.438 Z" fill="#000000" fill-rule="nonzero" fill-opacity="1" /><path clip-path="url(#clip920)" d="M2488.64 237.517 Q2488.64 232.817 2486.69 230.155 Q2484.77 227.47 2481.39 227.47 Q2478.01 227.47 2476.07 230.155 Q2474.15 232.817 2474.15 237.517 Q2474.15 242.216 2476.07 244.901 Q2478.01 247.563 2481.39 247.563 Q2484.77 247.563 2486.69 244.901 Q2488.64 242.216 2488.64 237.517 M2474.15 228.466 Q2475.49 226.151 2477.53 225.04 Q2479.59 223.906 2482.43 223.906 Q2487.16 223.906 2490.1 227.655 Q2493.06 231.405 2493.06 237.517 Q2493.06 243.628 2490.1 247.378 Q2487.16 251.128 2482.43 251.128 Q2479.59 251.128 2477.53 250.016 Q2475.49 248.882 2474.15 246.567 L2474.15 250.456 L2469.86 250.456 L2469.86 214.438 L2474.15 214.438 L2474.15 228.466 Z" fill="#000000" fill-rule="nonzero" fill-opacity="1" /><path clip-path="url(#clip920)" d="M2500.12 214.438 L2504.38 214.438 L2504.38 250.456 L2500.12 250.456 L2500.12 214.438 Z" fill="#000000" fill-rule="nonzero" fill-opacity="1" /><path clip-path="url(#clip920)" d="M2535.47 236.429 L2535.47 238.512 L2515.88 238.512 Q2516.16 242.91 2518.52 245.225 Q2520.91 247.516 2525.14 247.516 Q2527.6 247.516 2529.89 246.915 Q2532.2 246.313 2534.47 245.109 L2534.47 249.137 Q2532.18 250.109 2529.77 250.618 Q2527.36 251.128 2524.89 251.128 Q2518.68 251.128 2515.05 247.516 Q2511.44 243.905 2511.44 237.748 Q2511.44 231.382 2514.86 227.655 Q2518.31 223.906 2524.15 223.906 Q2529.38 223.906 2532.41 227.285 Q2535.47 230.642 2535.47 236.429 M2531.21 235.179 Q2531.16 231.683 2529.24 229.6 Q2527.34 227.517 2524.19 227.517 Q2520.63 227.517 2518.47 229.53 Q2516.35 231.544 2516.02 235.202 L2531.21 235.179 Z" fill="#000000" fill-rule="nonzero" fill-opacity="1" /><polyline clip-path="url(#clip920)" style="stroke:#ffa500; stroke-linecap:round; stroke-linejoin:round; stroke-width:8; stroke-opacity:1; fill:none" points="2082.5,285.016 2240.44,285.016 "/>
<path clip-path="url(#clip920)" d="M2266.76 267.736 L2288.61 267.736 L2288.61 271.671 L2271.44 271.671 L2271.44 281.903 L2287.9 281.903 L2287.9 285.838 L2271.44 285.838 L2271.44 298.361 L2289.03 298.361 L2289.03 302.296 L2266.76 302.296 L2266.76 267.736 Z" fill="#000000" fill-rule="nonzero" fill-opacity="1" /><path clip-path="url(#clip920)" d="M2318.08 276.371 L2308.71 288.986 L2318.57 302.296 L2313.55 302.296 L2306 292.111 L2298.45 302.296 L2293.43 302.296 L2303.5 288.732 L2294.29 276.371 L2299.31 276.371 L2306.18 285.607 L2313.06 276.371 L2318.08 276.371 Z" fill="#000000" fill-rule="nonzero" fill-opacity="1" /><path clip-path="url(#clip920)" d="M2328.71 298.407 L2328.71 312.157 L2324.42 312.157 L2324.42 276.371 L2328.71 276.371 L2328.71 280.306 Q2330.05 277.991 2332.09 276.88 Q2334.15 275.746 2336.99 275.746 Q2341.72 275.746 2344.66 279.495 Q2347.62 283.245 2347.62 289.357 Q2347.62 295.468 2344.66 299.218 Q2341.72 302.968 2336.99 302.968 Q2334.15 302.968 2332.09 301.856 Q2330.05 300.722 2328.71 298.407 M2343.2 289.357 Q2343.2 284.657 2341.25 281.995 Q2339.33 279.31 2335.95 279.31 Q2332.57 279.31 2330.63 281.995 Q2328.71 284.657 2328.71 289.357 Q2328.71 294.056 2330.63 296.741 Q2332.57 299.403 2335.95 299.403 Q2339.33 299.403 2341.25 296.741 Q2343.2 294.056 2343.2 289.357 Z" fill="#000000" fill-rule="nonzero" fill-opacity="1" /><path clip-path="url(#clip920)" d="M2364.73 279.357 Q2361.3 279.357 2359.31 282.042 Q2357.32 284.704 2357.32 289.357 Q2357.32 294.009 2359.29 296.694 Q2361.28 299.356 2364.73 299.356 Q2368.13 299.356 2370.12 296.671 Q2372.11 293.986 2372.11 289.357 Q2372.11 284.75 2370.12 282.065 Q2368.13 279.357 2364.73 279.357 M2364.73 275.746 Q2370.28 275.746 2373.45 279.357 Q2376.62 282.968 2376.62 289.357 Q2376.62 295.722 2373.45 299.356 Q2370.28 302.968 2364.73 302.968 Q2359.15 302.968 2355.98 299.356 Q2352.83 295.722 2352.83 289.357 Q2352.83 282.968 2355.98 279.357 Q2359.15 275.746 2364.73 275.746 Z" fill="#000000" fill-rule="nonzero" fill-opacity="1" /><path clip-path="url(#clip920)" d="M2400.21 277.134 L2400.21 281.162 Q2398.41 280.236 2396.46 279.773 Q2394.52 279.31 2392.43 279.31 Q2389.26 279.31 2387.67 280.283 Q2386.09 281.255 2386.09 283.199 Q2386.09 284.681 2387.23 285.537 Q2388.36 286.37 2391.79 287.134 L2393.24 287.458 Q2397.78 288.431 2399.68 290.213 Q2401.6 291.972 2401.6 295.144 Q2401.6 298.755 2398.73 300.861 Q2395.88 302.968 2390.88 302.968 Q2388.8 302.968 2386.53 302.551 Q2384.29 302.157 2381.79 301.347 L2381.79 296.949 Q2384.15 298.176 2386.44 298.801 Q2388.73 299.403 2390.98 299.403 Q2393.98 299.403 2395.61 298.384 Q2397.23 297.343 2397.23 295.468 Q2397.23 293.732 2396.04 292.806 Q2394.89 291.88 2390.93 291.023 L2389.45 290.676 Q2385.49 289.843 2383.73 288.13 Q2381.97 286.394 2381.97 283.384 Q2381.97 279.727 2384.56 277.736 Q2387.16 275.746 2391.92 275.746 Q2394.29 275.746 2396.37 276.093 Q2398.45 276.44 2400.21 277.134 Z" fill="#000000" fill-rule="nonzero" fill-opacity="1" /><path clip-path="url(#clip920)" d="M2430.56 288.269 L2430.56 290.352 L2410.98 290.352 Q2411.25 294.75 2413.61 297.065 Q2416 299.356 2420.23 299.356 Q2422.69 299.356 2424.98 298.755 Q2427.29 298.153 2429.56 296.949 L2429.56 300.977 Q2427.27 301.949 2424.86 302.458 Q2422.46 302.968 2419.98 302.968 Q2413.78 302.968 2410.14 299.356 Q2406.53 295.745 2406.53 289.588 Q2406.53 283.222 2409.96 279.495 Q2413.41 275.746 2419.24 275.746 Q2424.47 275.746 2427.5 279.125 Q2430.56 282.482 2430.56 288.269 M2426.3 287.019 Q2426.25 283.523 2424.33 281.44 Q2422.43 279.357 2419.29 279.357 Q2415.72 279.357 2413.57 281.37 Q2411.44 283.384 2411.11 287.042 L2426.3 287.019 Z" fill="#000000" fill-rule="nonzero" fill-opacity="1" /><path clip-path="url(#clip920)" d="M2454.61 280.306 L2454.61 266.278 L2458.87 266.278 L2458.87 302.296 L2454.61 302.296 L2454.61 298.407 Q2453.27 300.722 2451.21 301.856 Q2449.17 302.968 2446.3 302.968 Q2441.6 302.968 2438.64 299.218 Q2435.7 295.468 2435.7 289.357 Q2435.7 283.245 2438.64 279.495 Q2441.6 275.746 2446.3 275.746 Q2449.17 275.746 2451.21 276.88 Q2453.27 277.991 2454.61 280.306 M2440.1 289.357 Q2440.1 294.056 2442.02 296.741 Q2443.96 299.403 2447.34 299.403 Q2450.72 299.403 2452.66 296.741 Q2454.61 294.056 2454.61 289.357 Q2454.61 284.657 2452.66 281.995 Q2450.72 279.31 2447.34 279.31 Q2443.96 279.31 2442.02 281.995 Q2440.1 284.657 2440.1 289.357 Z" fill="#000000" fill-rule="nonzero" fill-opacity="1" /><polyline clip-path="url(#clip920)" style="stroke:#ff0000; stroke-linecap:round; stroke-linejoin:round; stroke-width:8; stroke-opacity:1; fill:none" points="2082.5,336.856 2240.44,336.856 "/>
<path clip-path="url(#clip920)" d="M2266.76 319.576 L2271.44 319.576 L2271.44 354.136 L2266.76 354.136 L2266.76 319.576 Z" fill="#000000" fill-rule="nonzero" fill-opacity="1" /><path clip-path="url(#clip920)" d="M2302.11 338.488 L2302.11 354.136 L2297.85 354.136 L2297.85 338.627 Q2297.85 334.947 2296.42 333.118 Q2294.98 331.289 2292.11 331.289 Q2288.66 331.289 2286.67 333.488 Q2284.68 335.687 2284.68 339.484 L2284.68 354.136 L2280.4 354.136 L2280.4 328.211 L2284.68 328.211 L2284.68 332.238 Q2286.21 329.9 2288.27 328.743 Q2290.35 327.586 2293.06 327.586 Q2297.53 327.586 2299.82 330.363 Q2302.11 333.118 2302.11 338.488 Z" fill="#000000" fill-rule="nonzero" fill-opacity="1" /><path clip-path="url(#clip920)" d="M2323.73 318.118 L2323.73 321.66 L2319.66 321.66 Q2317.36 321.66 2316.46 322.586 Q2315.58 323.511 2315.58 325.919 L2315.58 328.211 L2322.6 328.211 L2322.6 331.521 L2315.58 331.521 L2315.58 354.136 L2311.3 354.136 L2311.3 331.521 L2307.23 331.521 L2307.23 328.211 L2311.3 328.211 L2311.3 326.405 Q2311.3 322.076 2313.31 320.109 Q2315.33 318.118 2319.7 318.118 L2323.73 318.118 Z" fill="#000000" fill-rule="nonzero" fill-opacity="1" /><path clip-path="url(#clip920)" d="M2349.47 340.109 L2349.47 342.192 L2329.89 342.192 Q2330.17 346.59 2332.53 348.905 Q2334.91 351.196 2339.15 351.196 Q2341.6 351.196 2343.89 350.595 Q2346.21 349.993 2348.48 348.789 L2348.48 352.817 Q2346.18 353.789 2343.78 354.298 Q2341.37 354.808 2338.89 354.808 Q2332.69 354.808 2329.05 351.196 Q2325.44 347.585 2325.44 341.428 Q2325.44 335.062 2328.87 331.335 Q2332.32 327.586 2338.15 327.586 Q2343.38 327.586 2346.42 330.965 Q2349.47 334.322 2349.47 340.109 M2345.21 338.859 Q2345.17 335.363 2343.24 333.28 Q2341.35 331.197 2338.2 331.197 Q2334.63 331.197 2332.48 333.21 Q2330.35 335.224 2330.03 338.882 L2345.21 338.859 Z" fill="#000000" fill-rule="nonzero" fill-opacity="1" /><path clip-path="url(#clip920)" d="M2375.12 329.206 L2375.12 333.187 Q2373.31 332.192 2371.48 331.706 Q2369.68 331.197 2367.83 331.197 Q2363.68 331.197 2361.39 333.835 Q2359.1 336.451 2359.1 341.197 Q2359.1 345.942 2361.39 348.581 Q2363.68 351.196 2367.83 351.196 Q2369.68 351.196 2371.48 350.71 Q2373.31 350.201 2375.12 349.206 L2375.12 353.141 Q2373.34 353.974 2371.42 354.391 Q2369.52 354.808 2367.36 354.808 Q2361.51 354.808 2358.06 351.127 Q2354.61 347.447 2354.61 341.197 Q2354.61 334.854 2358.08 331.22 Q2361.58 327.586 2367.64 327.586 Q2369.61 327.586 2371.48 328.002 Q2373.36 328.396 2375.12 329.206 Z" fill="#000000" fill-rule="nonzero" fill-opacity="1" /><path clip-path="url(#clip920)" d="M2386.74 320.849 L2386.74 328.211 L2395.51 328.211 L2395.51 331.521 L2386.74 331.521 L2386.74 345.595 Q2386.74 348.766 2387.6 349.669 Q2388.48 350.571 2391.14 350.571 L2395.51 350.571 L2395.51 354.136 L2391.14 354.136 Q2386.21 354.136 2384.33 352.308 Q2382.46 350.456 2382.46 345.595 L2382.46 331.521 L2379.33 331.521 L2379.33 328.211 L2382.46 328.211 L2382.46 320.849 L2386.74 320.849 Z" fill="#000000" fill-rule="nonzero" fill-opacity="1" /><path clip-path="url(#clip920)" d="M2423.29 340.109 L2423.29 342.192 L2403.71 342.192 Q2403.98 346.59 2406.35 348.905 Q2408.73 351.196 2412.97 351.196 Q2415.42 351.196 2417.71 350.595 Q2420.03 349.993 2422.29 348.789 L2422.29 352.817 Q2420 353.789 2417.6 354.298 Q2415.19 354.808 2412.71 354.808 Q2406.51 354.808 2402.87 351.196 Q2399.26 347.585 2399.26 341.428 Q2399.26 335.062 2402.69 331.335 Q2406.14 327.586 2411.97 327.586 Q2417.2 327.586 2420.23 330.965 Q2423.29 334.322 2423.29 340.109 M2419.03 338.859 Q2418.98 335.363 2417.06 333.28 Q2415.17 331.197 2412.02 331.197 Q2408.45 331.197 2406.3 333.21 Q2404.17 335.224 2403.85 338.882 L2419.03 338.859 Z" fill="#000000" fill-rule="nonzero" fill-opacity="1" /><path clip-path="url(#clip920)" d="M2447.34 332.146 L2447.34 318.118 L2451.6 318.118 L2451.6 354.136 L2447.34 354.136 L2447.34 350.247 Q2446 352.562 2443.94 353.696 Q2441.9 354.808 2439.03 354.808 Q2434.33 354.808 2431.37 351.058 Q2428.43 347.308 2428.43 341.197 Q2428.43 335.085 2431.37 331.335 Q2434.33 327.586 2439.03 327.586 Q2441.9 327.586 2443.94 328.72 Q2446 329.831 2447.34 332.146 M2432.83 341.197 Q2432.83 345.896 2434.75 348.581 Q2436.69 351.243 2440.07 351.243 Q2443.45 351.243 2445.4 348.581 Q2447.34 345.896 2447.34 341.197 Q2447.34 336.497 2445.4 333.835 Q2443.45 331.15 2440.07 331.15 Q2436.69 331.15 2434.75 333.835 Q2432.83 336.497 2432.83 341.197 Z" fill="#000000" fill-rule="nonzero" fill-opacity="1" /><polyline clip-path="url(#clip920)" style="stroke:#800080; stroke-linecap:round; stroke-linejoin:round; stroke-width:8; stroke-opacity:1; fill:none" points="2082.5,388.696 2240.44,388.696 "/>
<path clip-path="url(#clip920)" d="M2289.01 372.551 L2289.01 377.111 Q2286.35 375.838 2283.99 375.213 Q2281.62 374.588 2279.43 374.588 Q2275.61 374.588 2273.52 376.069 Q2271.46 377.551 2271.46 380.282 Q2271.46 382.574 2272.83 383.754 Q2274.22 384.912 2278.06 385.629 L2280.88 386.208 Q2286.11 387.203 2288.59 389.726 Q2291.09 392.226 2291.09 396.439 Q2291.09 401.462 2287.71 404.055 Q2284.36 406.648 2277.85 406.648 Q2275.4 406.648 2272.62 406.092 Q2269.86 405.536 2266.9 404.449 L2266.9 399.634 Q2269.75 401.231 2272.48 402.041 Q2275.21 402.851 2277.85 402.851 Q2281.86 402.851 2284.03 401.277 Q2286.21 399.703 2286.21 396.787 Q2286.21 394.24 2284.63 392.805 Q2283.08 391.37 2279.52 390.652 L2276.67 390.097 Q2271.44 389.055 2269.1 386.833 Q2266.76 384.611 2266.76 380.652 Q2266.76 376.069 2269.98 373.43 Q2273.22 370.791 2278.89 370.791 Q2281.32 370.791 2283.85 371.231 Q2286.37 371.671 2289.01 372.551 Z" fill="#000000" fill-rule="nonzero" fill-opacity="1" /><path clip-path="url(#clip920)" d="M2320.37 391.949 L2320.37 394.032 L2300.79 394.032 Q2301.07 398.43 2303.43 400.745 Q2305.81 403.036 2310.05 403.036 Q2312.5 403.036 2314.8 402.435 Q2317.11 401.833 2319.38 400.629 L2319.38 404.657 Q2317.09 405.629 2314.68 406.138 Q2312.27 406.648 2309.8 406.648 Q2303.59 406.648 2299.96 403.036 Q2296.35 399.425 2296.35 393.268 Q2296.35 386.902 2299.77 383.175 Q2303.22 379.426 2309.05 379.426 Q2314.29 379.426 2317.32 382.805 Q2320.37 386.162 2320.37 391.949 M2316.11 390.699 Q2316.07 387.203 2314.15 385.12 Q2312.25 383.037 2309.1 383.037 Q2305.54 383.037 2303.38 385.05 Q2301.25 387.064 2300.93 390.722 L2316.11 390.699 Z" fill="#000000" fill-rule="nonzero" fill-opacity="1" /><path clip-path="url(#clip920)" d="M2324.31 380.051 L2328.82 380.051 L2336.92 401.81 L2345.03 380.051 L2349.54 380.051 L2339.82 405.976 L2334.03 405.976 L2324.31 380.051 Z" fill="#000000" fill-rule="nonzero" fill-opacity="1" /><path clip-path="url(#clip920)" d="M2377.6 391.949 L2377.6 394.032 L2358.01 394.032 Q2358.29 398.43 2360.65 400.745 Q2363.04 403.036 2367.27 403.036 Q2369.73 403.036 2372.02 402.435 Q2374.33 401.833 2376.6 400.629 L2376.6 404.657 Q2374.31 405.629 2371.9 406.138 Q2369.49 406.648 2367.02 406.648 Q2360.81 406.648 2357.18 403.036 Q2353.57 399.425 2353.57 393.268 Q2353.57 386.902 2356.99 383.175 Q2360.44 379.426 2366.28 379.426 Q2371.51 379.426 2374.54 382.805 Q2377.6 386.162 2377.6 391.949 M2373.34 390.699 Q2373.29 387.203 2371.37 385.12 Q2369.47 383.037 2366.32 383.037 Q2362.76 383.037 2360.61 385.05 Q2358.48 387.064 2358.15 390.722 L2373.34 390.699 Z" fill="#000000" fill-rule="nonzero" fill-opacity="1" /><path clip-path="url(#clip920)" d="M2399.61 384.032 Q2398.89 383.615 2398.04 383.43 Q2397.2 383.222 2396.18 383.222 Q2392.57 383.222 2390.63 385.583 Q2388.71 387.921 2388.71 392.319 L2388.71 405.976 L2384.42 405.976 L2384.42 380.051 L2388.71 380.051 L2388.71 384.078 Q2390.05 381.717 2392.2 380.583 Q2394.36 379.426 2397.43 379.426 Q2397.87 379.426 2398.41 379.495 Q2398.94 379.541 2399.59 379.657 L2399.61 384.032 Z" fill="#000000" fill-rule="nonzero" fill-opacity="1" /><path clip-path="url(#clip920)" d="M2425.21 391.949 L2425.21 394.032 L2405.63 394.032 Q2405.91 398.43 2408.27 400.745 Q2410.65 403.036 2414.89 403.036 Q2417.34 403.036 2419.63 402.435 Q2421.95 401.833 2424.22 400.629 L2424.22 404.657 Q2421.92 405.629 2419.52 406.138 Q2417.11 406.648 2414.63 406.648 Q2408.43 406.648 2404.79 403.036 Q2401.18 399.425 2401.18 393.268 Q2401.18 386.902 2404.61 383.175 Q2408.06 379.426 2413.89 379.426 Q2419.12 379.426 2422.16 382.805 Q2425.21 386.162 2425.21 391.949 M2420.95 390.699 Q2420.91 387.203 2418.98 385.12 Q2417.09 383.037 2413.94 383.037 Q2410.37 383.037 2408.22 385.05 Q2406.09 387.064 2405.77 390.722 L2420.95 390.699 Z" fill="#000000" fill-rule="nonzero" fill-opacity="1" /><polyline clip-path="url(#clip920)" style="stroke:#008000; stroke-linecap:round; stroke-linejoin:round; stroke-width:8; stroke-opacity:1; fill:none" points="2082.5,440.536 2240.44,440.536 "/>
<path clip-path="url(#clip920)" d="M2283.15 441.613 Q2284.66 442.122 2286.07 443.789 Q2287.5 445.455 2288.94 448.372 L2293.68 457.816 L2288.66 457.816 L2284.24 448.951 Q2282.53 445.478 2280.91 444.344 Q2279.31 443.21 2276.53 443.21 L2271.44 443.21 L2271.44 457.816 L2266.76 457.816 L2266.76 423.256 L2277.32 423.256 Q2283.24 423.256 2286.16 425.733 Q2289.08 428.21 2289.08 433.21 Q2289.08 436.474 2287.55 438.627 Q2286.05 440.779 2283.15 441.613 M2271.44 427.099 L2271.44 439.367 L2277.32 439.367 Q2280.7 439.367 2282.41 437.816 Q2284.15 436.242 2284.15 433.21 Q2284.15 430.178 2282.41 428.65 Q2280.7 427.099 2277.32 427.099 L2271.44 427.099 Z" fill="#000000" fill-rule="nonzero" fill-opacity="1" /><path clip-path="url(#clip920)" d="M2319.56 443.789 L2319.56 445.872 L2299.98 445.872 Q2300.26 450.27 2302.62 452.585 Q2305 454.876 2309.24 454.876 Q2311.69 454.876 2313.99 454.275 Q2316.3 453.673 2318.57 452.469 L2318.57 456.497 Q2316.28 457.469 2313.87 457.978 Q2311.46 458.488 2308.99 458.488 Q2302.78 458.488 2299.15 454.876 Q2295.54 451.265 2295.54 445.108 Q2295.54 438.742 2298.96 435.015 Q2302.41 431.266 2308.24 431.266 Q2313.48 431.266 2316.51 434.645 Q2319.56 438.002 2319.56 443.789 M2315.3 442.539 Q2315.26 439.043 2313.34 436.96 Q2311.44 434.877 2308.29 434.877 Q2304.73 434.877 2302.57 436.89 Q2300.44 438.904 2300.12 442.562 L2315.3 442.539 Z" fill="#000000" fill-rule="nonzero" fill-opacity="1" /><path clip-path="url(#clip920)" d="M2345.21 432.886 L2345.21 436.867 Q2343.41 435.872 2341.58 435.386 Q2339.77 434.877 2337.92 434.877 Q2333.78 434.877 2331.48 437.515 Q2329.19 440.131 2329.19 444.877 Q2329.19 449.622 2331.48 452.261 Q2333.78 454.876 2337.92 454.876 Q2339.77 454.876 2341.58 454.39 Q2343.41 453.881 2345.21 452.886 L2345.21 456.821 Q2343.43 457.654 2341.51 458.071 Q2339.61 458.488 2337.46 458.488 Q2331.6 458.488 2328.15 454.807 Q2324.7 451.127 2324.7 444.877 Q2324.7 438.534 2328.17 434.9 Q2331.67 431.266 2337.73 431.266 Q2339.7 431.266 2341.58 431.682 Q2343.45 432.076 2345.21 432.886 Z" fill="#000000" fill-rule="nonzero" fill-opacity="1" /><path clip-path="url(#clip920)" d="M2362.67 434.877 Q2359.24 434.877 2357.25 437.562 Q2355.26 440.224 2355.26 444.877 Q2355.26 449.529 2357.23 452.214 Q2359.22 454.876 2362.67 454.876 Q2366.07 454.876 2368.06 452.191 Q2370.05 449.506 2370.05 444.877 Q2370.05 440.27 2368.06 437.585 Q2366.07 434.877 2362.67 434.877 M2362.67 431.266 Q2368.22 431.266 2371.39 434.877 Q2374.56 438.488 2374.56 444.877 Q2374.56 451.242 2371.39 454.876 Q2368.22 458.488 2362.67 458.488 Q2357.09 458.488 2353.92 454.876 Q2350.77 451.242 2350.77 444.877 Q2350.77 438.488 2353.92 434.877 Q2357.09 431.266 2362.67 431.266 Z" fill="#000000" fill-rule="nonzero" fill-opacity="1" /><path clip-path="url(#clip920)" d="M2378.57 431.891 L2383.08 431.891 L2391.18 453.65 L2399.29 431.891 L2403.8 431.891 L2394.08 457.816 L2388.29 457.816 L2378.57 431.891 Z" fill="#000000" fill-rule="nonzero" fill-opacity="1" /><path clip-path="url(#clip920)" d="M2431.85 443.789 L2431.85 445.872 L2412.27 445.872 Q2412.55 450.27 2414.91 452.585 Q2417.29 454.876 2421.53 454.876 Q2423.98 454.876 2426.28 454.275 Q2428.59 453.673 2430.86 452.469 L2430.86 456.497 Q2428.57 457.469 2426.16 457.978 Q2423.75 458.488 2421.28 458.488 Q2415.07 458.488 2411.44 454.876 Q2407.83 451.265 2407.83 445.108 Q2407.83 438.742 2411.25 435.015 Q2414.7 431.266 2420.54 431.266 Q2425.77 431.266 2428.8 434.645 Q2431.85 438.002 2431.85 443.789 M2427.6 442.539 Q2427.55 439.043 2425.63 436.96 Q2423.73 434.877 2420.58 434.877 Q2417.02 434.877 2414.86 436.89 Q2412.73 438.904 2412.41 442.562 L2427.6 442.539 Z" fill="#000000" fill-rule="nonzero" fill-opacity="1" /><path clip-path="url(#clip920)" d="M2453.87 435.872 Q2453.15 435.455 2452.29 435.27 Q2451.46 435.062 2450.44 435.062 Q2446.83 435.062 2444.89 437.423 Q2442.97 439.761 2442.97 444.159 L2442.97 457.816 L2438.68 457.816 L2438.68 431.891 L2442.97 431.891 L2442.97 435.918 Q2444.31 433.557 2446.46 432.423 Q2448.61 431.266 2451.69 431.266 Q2452.13 431.266 2452.66 431.335 Q2453.2 431.381 2453.85 431.497 L2453.87 435.872 Z" fill="#000000" fill-rule="nonzero" fill-opacity="1" /><path clip-path="url(#clip920)" d="M2479.47 443.789 L2479.47 445.872 L2459.89 445.872 Q2460.16 450.27 2462.53 452.585 Q2464.91 454.876 2469.15 454.876 Q2471.6 454.876 2473.89 454.275 Q2476.21 453.673 2478.47 452.469 L2478.47 456.497 Q2476.18 457.469 2473.78 457.978 Q2471.37 458.488 2468.89 458.488 Q2462.69 458.488 2459.05 454.876 Q2455.44 451.265 2455.44 445.108 Q2455.44 438.742 2458.87 435.015 Q2462.32 431.266 2468.15 431.266 Q2473.38 431.266 2476.41 434.645 Q2479.47 438.002 2479.47 443.789 M2475.21 442.539 Q2475.16 439.043 2473.24 436.96 Q2471.35 434.877 2468.2 434.877 Q2464.63 434.877 2462.48 436.89 Q2460.35 438.904 2460.03 442.562 L2475.21 442.539 Z" fill="#000000" fill-rule="nonzero" fill-opacity="1" /><path clip-path="url(#clip920)" d="M2503.52 435.826 L2503.52 421.798 L2507.78 421.798 L2507.78 457.816 L2503.52 457.816 L2503.52 453.927 Q2502.18 456.242 2500.12 457.376 Q2498.08 458.488 2495.21 458.488 Q2490.51 458.488 2487.55 454.738 Q2484.61 450.988 2484.61 444.877 Q2484.61 438.765 2487.55 435.015 Q2490.51 431.266 2495.21 431.266 Q2498.08 431.266 2500.12 432.4 Q2502.18 433.511 2503.52 435.826 M2489.01 444.877 Q2489.01 449.576 2490.93 452.261 Q2492.87 454.923 2496.25 454.923 Q2499.63 454.923 2501.58 452.261 Q2503.52 449.576 2503.52 444.877 Q2503.52 440.177 2501.58 437.515 Q2499.63 434.83 2496.25 434.83 Q2492.87 434.83 2490.93 437.515 Q2489.01 440.177 2489.01 444.877 Z" fill="#000000" fill-rule="nonzero" fill-opacity="1" /></svg>
