<?xml version="1.0" encoding="utf-8"?>
<svg xmlns="http://www.w3.org/2000/svg" xmlns:xlink="http://www.w3.org/1999/xlink" width="672" height="480" viewBox="0 0 2688 1920">
<defs>
  <clipPath id="clip550">
    <rect x="0" y="0" width="2688" height="1920"/>
  </clipPath>
</defs>
<path clip-path="url(#clip550)" d="M0 1920 L2688 1920 L2688 -4.26326e-14 L0 -4.26326e-14  Z" fill="#ffffff" fill-rule="evenodd" fill-opacity="1"/>
<defs>
  <clipPath id="clip551">
    <rect x="298" y="127" width="2343" height="1607"/>
  </clipPath>
</defs>
<path clip-path="url(#clip550)" d="M298.987 1734.12 L2640.76 1734.12 L2640.76 127.792 L298.987 127.792  Z" fill="#ffffff" fill-rule="evenodd" fill-opacity="1"/>
<polyline clip-path="url(#clip551)" style="stroke:#000000; stroke-linecap:round; stroke-linejoin:round; stroke-width:2; stroke-opacity:0.1; fill:none" points="365.264,1734.12 365.264,127.792 "/>
<polyline clip-path="url(#clip551)" style="stroke:#000000; stroke-linecap:round; stroke-linejoin:round; stroke-width:2; stroke-opacity:0.1; fill:none" points="978.935,1734.12 978.935,127.792 "/>
<polyline clip-path="url(#clip551)" style="stroke:#000000; stroke-linecap:round; stroke-linejoin:round; stroke-width:2; stroke-opacity:0.1; fill:none" points="1592.61,1734.12 1592.61,127.792 "/>
<polyline clip-path="url(#clip551)" style="stroke:#000000; stroke-linecap:round; stroke-linejoin:round; stroke-width:2; stroke-opacity:0.1; fill:none" points="2206.28,1734.12 2206.28,127.792 "/>
<polyline clip-path="url(#clip551)" style="stroke:#000000; stroke-linecap:round; stroke-linejoin:round; stroke-width:2; stroke-opacity:0.1; fill:none" points="298.987,1688.65 2640.76,1688.65 "/>
<polyline clip-path="url(#clip551)" style="stroke:#000000; stroke-linecap:round; stroke-linejoin:round; stroke-width:2; stroke-opacity:0.1; fill:none" points="298.987,1309.8 2640.76,1309.8 "/>
<polyline clip-path="url(#clip551)" style="stroke:#000000; stroke-linecap:round; stroke-linejoin:round; stroke-width:2; stroke-opacity:0.1; fill:none" points="298.987,930.955 2640.76,930.955 "/>
<polyline clip-path="url(#clip551)" style="stroke:#000000; stroke-linecap:round; stroke-linejoin:round; stroke-width:2; stroke-opacity:0.1; fill:none" points="298.987,552.104 2640.76,552.104 "/>
<polyline clip-path="url(#clip551)" style="stroke:#000000; stroke-linecap:round; stroke-linejoin:round; stroke-width:2; stroke-opacity:0.1; fill:none" points="298.987,173.254 2640.76,173.254 "/>
<polyline clip-path="url(#clip550)" style="stroke:#000000; stroke-linecap:round; stroke-linejoin:round; stroke-width:4; stroke-opacity:1; fill:none" points="298.987,1734.12 2640.76,1734.12 "/>
<polyline clip-path="url(#clip550)" style="stroke:#000000; stroke-linecap:round; stroke-linejoin:round; stroke-width:4; stroke-opacity:1; fill:none" points="365.264,1734.12 365.264,1715.22 "/>
<polyline clip-path="url(#clip550)" style="stroke:#000000; stroke-linecap:round; stroke-linejoin:round; stroke-width:4; stroke-opacity:1; fill:none" points="978.935,1734.12 978.935,1715.22 "/>
<polyline clip-path="url(#clip550)" style="stroke:#000000; stroke-linecap:round; stroke-linejoin:round; stroke-width:4; stroke-opacity:1; fill:none" points="1592.61,1734.12 1592.61,1715.22 "/>
<polyline clip-path="url(#clip550)" style="stroke:#000000; stroke-linecap:round; stroke-linejoin:round; stroke-width:4; stroke-opacity:1; fill:none" points="2206.28,1734.12 2206.28,1715.22 "/>
<path clip-path="url(#clip550)" d="M365.264 1767.34 Q361.653 1767.34 359.824 1770.9 Q358.019 1774.45 358.019 1781.58 Q358.019 1788.68 359.824 1792.25 Q361.653 1795.79 365.264 1795.79 Q368.898 1795.79 370.704 1792.25 Q372.532 1788.68 372.532 1781.58 Q372.532 1774.45 370.704 1770.9 Q368.898 1767.34 365.264 1767.34 M365.264 1763.64 Q371.074 1763.64 374.13 1768.24 Q377.208 1772.83 377.208 1781.58 Q377.208 1790.3 374.13 1794.91 Q371.074 1799.49 365.264 1799.49 Q359.454 1799.49 356.375 1794.91 Q353.319 1790.3 353.319 1781.58 Q353.319 1772.83 356.375 1768.24 Q359.454 1763.64 365.264 1763.64 Z" fill="#000000" fill-rule="nonzero" fill-opacity="1" /><path clip-path="url(#clip550)" d="M953.634 1764.26 L971.99 1764.26 L971.99 1768.2 L957.916 1768.2 L957.916 1776.67 Q958.935 1776.32 959.953 1776.16 Q960.972 1775.97 961.99 1775.97 Q967.777 1775.97 971.157 1779.15 Q974.537 1782.32 974.537 1787.73 Q974.537 1793.31 971.065 1796.41 Q967.592 1799.49 961.273 1799.49 Q959.097 1799.49 956.828 1799.12 Q954.583 1798.75 952.176 1798.01 L952.176 1793.31 Q954.259 1794.45 956.481 1795 Q958.703 1795.56 961.18 1795.56 Q965.185 1795.56 967.523 1793.45 Q969.861 1791.34 969.861 1787.73 Q969.861 1784.12 967.523 1782.02 Q965.185 1779.91 961.18 1779.91 Q959.305 1779.91 957.43 1780.33 Q955.578 1780.74 953.634 1781.62 L953.634 1764.26 Z" fill="#000000" fill-rule="nonzero" fill-opacity="1" /><path clip-path="url(#clip550)" d="M993.75 1767.34 Q990.138 1767.34 988.31 1770.9 Q986.504 1774.45 986.504 1781.58 Q986.504 1788.68 988.31 1792.25 Q990.138 1795.79 993.75 1795.79 Q997.384 1795.79 999.189 1792.25 Q1001.02 1788.68 1001.02 1781.58 Q1001.02 1774.45 999.189 1770.9 Q997.384 1767.34 993.75 1767.34 M993.75 1763.64 Q999.56 1763.64 1002.62 1768.24 Q1005.69 1772.83 1005.69 1781.58 Q1005.69 1790.3 1002.62 1794.91 Q999.56 1799.49 993.75 1799.49 Q987.939 1799.49 984.861 1794.91 Q981.805 1790.3 981.805 1781.58 Q981.805 1772.83 984.861 1768.24 Q987.939 1763.64 993.75 1763.64 Z" fill="#000000" fill-rule="nonzero" fill-opacity="1" /><path clip-path="url(#clip550)" d="M1552.21 1794.89 L1559.85 1794.89 L1559.85 1768.52 L1551.54 1770.19 L1551.54 1765.93 L1559.81 1764.26 L1564.48 1764.26 L1564.48 1794.89 L1572.12 1794.89 L1572.12 1798.82 L1552.21 1798.82 L1552.21 1794.89 Z" fill="#000000" fill-rule="nonzero" fill-opacity="1" /><path clip-path="url(#clip550)" d="M1591.56 1767.34 Q1587.95 1767.34 1586.12 1770.9 Q1584.32 1774.45 1584.32 1781.58 Q1584.32 1788.68 1586.12 1792.25 Q1587.95 1795.79 1591.56 1795.79 Q1595.2 1795.79 1597 1792.25 Q1598.83 1788.68 1598.83 1781.58 Q1598.83 1774.45 1597 1770.9 Q1595.2 1767.34 1591.56 1767.34 M1591.56 1763.64 Q1597.37 1763.64 1600.43 1768.24 Q1603.51 1772.83 1603.51 1781.58 Q1603.51 1790.3 1600.43 1794.91 Q1597.37 1799.49 1591.56 1799.49 Q1585.75 1799.49 1582.68 1794.91 Q1579.62 1790.3 1579.62 1781.58 Q1579.62 1772.83 1582.68 1768.24 Q1585.75 1763.64 1591.56 1763.64 Z" fill="#000000" fill-rule="nonzero" fill-opacity="1" /><path clip-path="url(#clip550)" d="M1621.73 1767.34 Q1618.11 1767.34 1616.29 1770.9 Q1614.48 1774.45 1614.48 1781.58 Q1614.48 1788.68 1616.29 1792.25 Q1618.11 1795.79 1621.73 1795.79 Q1625.36 1795.79 1627.17 1792.25 Q1628.99 1788.68 1628.99 1781.58 Q1628.99 1774.45 1627.17 1770.9 Q1625.36 1767.34 1621.73 1767.34 M1621.73 1763.64 Q1627.54 1763.64 1630.59 1768.24 Q1633.67 1772.83 1633.67 1781.58 Q1633.67 1790.3 1630.59 1794.91 Q1627.54 1799.49 1621.73 1799.49 Q1615.92 1799.49 1612.84 1794.91 Q1609.78 1790.3 1609.78 1781.58 Q1609.78 1772.83 1612.84 1768.24 Q1615.92 1763.64 1621.73 1763.64 Z" fill="#000000" fill-rule="nonzero" fill-opacity="1" /><path clip-path="url(#clip550)" d="M2165.88 1794.89 L2173.52 1794.89 L2173.52 1768.52 L2165.21 1770.19 L2165.21 1765.93 L2173.48 1764.26 L2178.15 1764.26 L2178.15 1794.89 L2185.79 1794.89 L2185.79 1798.82 L2165.88 1798.82 L2165.88 1794.89 Z" fill="#000000" fill-rule="nonzero" fill-opacity="1" /><path clip-path="url(#clip550)" d="M2195.28 1764.26 L2213.64 1764.26 L2213.64 1768.2 L2199.56 1768.2 L2199.56 1776.67 Q2200.58 1776.32 2201.6 1776.16 Q2202.62 1775.97 2203.64 1775.97 Q2209.42 1775.97 2212.8 1779.15 Q2216.18 1782.32 2216.18 1787.73 Q2216.18 1793.31 2212.71 1796.41 Q2209.24 1799.49 2202.92 1799.49 Q2200.74 1799.49 2198.48 1799.12 Q2196.23 1798.75 2193.82 1798.01 L2193.82 1793.31 Q2195.91 1794.45 2198.13 1795 Q2200.35 1795.56 2202.83 1795.56 Q2206.83 1795.56 2209.17 1793.45 Q2211.51 1791.34 2211.51 1787.73 Q2211.51 1784.12 2209.17 1782.02 Q2206.83 1779.91 2202.83 1779.91 Q2200.95 1779.91 2199.08 1780.33 Q2197.23 1780.74 2195.28 1781.62 L2195.28 1764.26 Z" fill="#000000" fill-rule="nonzero" fill-opacity="1" /><path clip-path="url(#clip550)" d="M2235.4 1767.34 Q2231.79 1767.34 2229.96 1770.9 Q2228.15 1774.45 2228.15 1781.58 Q2228.15 1788.68 2229.96 1792.25 Q2231.79 1795.79 2235.4 1795.79 Q2239.03 1795.79 2240.84 1792.25 Q2242.67 1788.68 2242.67 1781.58 Q2242.67 1774.45 2240.84 1770.9 Q2239.03 1767.34 2235.4 1767.34 M2235.4 1763.64 Q2241.21 1763.64 2244.26 1768.24 Q2247.34 1772.83 2247.34 1781.58 Q2247.34 1790.3 2244.26 1794.91 Q2241.21 1799.49 2235.4 1799.49 Q2229.59 1799.49 2226.51 1794.91 Q2223.45 1790.3 2223.45 1781.58 Q2223.45 1772.83 2226.51 1768.24 Q2229.59 1763.64 2235.4 1763.64 Z" fill="#000000" fill-rule="nonzero" fill-opacity="1" /><path clip-path="url(#clip550)" d="M1416.11 1841.06 L1416.11 1878.02 L1423.88 1878.02 Q1433.71 1878.02 1438.27 1873.56 Q1442.85 1869.11 1442.85 1859.49 Q1442.85 1849.94 1438.27 1845.52 Q1433.71 1841.06 1423.88 1841.06 L1416.11 1841.06 M1409.68 1835.78 L1422.89 1835.78 Q1436.71 1835.78 1443.17 1841.54 Q1449.63 1847.27 1449.63 1859.49 Q1449.63 1871.78 1443.14 1877.54 Q1436.64 1883.3 1422.89 1883.3 L1409.68 1883.3 L1409.68 1835.78 Z" fill="#000000" fill-rule="nonzero" fill-opacity="1" /><path clip-path="url(#clip550)" d="M1475.82 1865.38 Q1468.73 1865.38 1465.99 1867 Q1463.25 1868.63 1463.25 1872.54 Q1463.25 1875.66 1465.29 1877.51 Q1467.36 1879.32 1470.89 1879.32 Q1475.76 1879.32 1478.69 1875.88 Q1481.65 1872.42 1481.65 1866.69 L1481.65 1865.38 L1475.82 1865.38 M1487.5 1862.96 L1487.5 1883.3 L1481.65 1883.3 L1481.65 1877.89 Q1479.64 1881.14 1476.65 1882.7 Q1473.66 1884.22 1469.33 1884.22 Q1463.86 1884.22 1460.61 1881.17 Q1457.39 1878.08 1457.39 1872.92 Q1457.39 1866.91 1461.41 1863.85 Q1465.45 1860.8 1473.44 1860.8 L1481.65 1860.8 L1481.65 1860.23 Q1481.65 1856.18 1478.97 1853.99 Q1476.33 1851.76 1471.53 1851.76 Q1468.47 1851.76 1465.57 1852.49 Q1462.68 1853.22 1460 1854.69 L1460 1849.28 Q1463.22 1848.03 1466.24 1847.43 Q1469.27 1846.79 1472.13 1846.79 Q1479.87 1846.79 1483.69 1850.8 Q1487.5 1854.81 1487.5 1862.96 Z" fill="#000000" fill-rule="nonzero" fill-opacity="1" /><path clip-path="url(#clip550)" d="M1514.4 1886.61 Q1511.92 1892.98 1509.56 1894.92 Q1507.21 1896.86 1503.26 1896.86 L1498.58 1896.86 L1498.58 1891.96 L1502.02 1891.96 Q1504.44 1891.96 1505.77 1890.81 Q1507.11 1889.67 1508.73 1885.4 L1509.78 1882.73 L1495.37 1847.65 L1501.57 1847.65 L1512.71 1875.53 L1523.85 1847.65 L1530.06 1847.65 L1514.4 1886.61 Z" fill="#000000" fill-rule="nonzero" fill-opacity="1" /><polyline clip-path="url(#clip550)" style="stroke:#000000; stroke-linecap:round; stroke-linejoin:round; stroke-width:4; stroke-opacity:1; fill:none" points="298.987,1734.12 298.987,127.792 "/>
<polyline clip-path="url(#clip550)" style="stroke:#000000; stroke-linecap:round; stroke-linejoin:round; stroke-width:4; stroke-opacity:1; fill:none" points="298.987,1688.65 317.885,1688.65 "/>
<polyline clip-path="url(#clip550)" style="stroke:#000000; stroke-linecap:round; stroke-linejoin:round; stroke-width:4; stroke-opacity:1; fill:none" points="298.987,1309.8 317.885,1309.8 "/>
<polyline clip-path="url(#clip550)" style="stroke:#000000; stroke-linecap:round; stroke-linejoin:round; stroke-width:4; stroke-opacity:1; fill:none" points="298.987,930.955 317.885,930.955 "/>
<polyline clip-path="url(#clip550)" style="stroke:#000000; stroke-linecap:round; stroke-linejoin:round; stroke-width:4; stroke-opacity:1; fill:none" points="298.987,552.104 317.885,552.104 "/>
<polyline clip-path="url(#clip550)" style="stroke:#000000; stroke-linecap:round; stroke-linejoin:round; stroke-width:4; stroke-opacity:1; fill:none" points="298.987,173.254 317.885,173.254 "/>
<path clip-path="url(#clip550)" d="M246.723 1674.45 Q243.112 1674.45 241.283 1678.02 Q239.478 1681.56 239.478 1688.69 Q239.478 1695.8 241.283 1699.36 Q243.112 1702.9 246.723 1702.9 Q250.357 1702.9 252.163 1699.36 Q253.991 1695.8 253.991 1688.69 Q253.991 1681.56 252.163 1678.02 Q250.357 1674.45 246.723 1674.45 M246.723 1670.75 Q252.533 1670.75 255.589 1675.36 Q258.667 1679.94 258.667 1688.69 Q258.667 1697.42 255.589 1702.02 Q252.533 1706.61 246.723 1706.61 Q240.913 1706.61 237.834 1702.02 Q234.779 1697.42 234.779 1688.69 Q234.779 1679.94 237.834 1675.36 Q240.913 1670.75 246.723 1670.75 Z" fill="#000000" fill-rule="nonzero" fill-opacity="1" /><path clip-path="url(#clip550)" d="M150.265 1323.15 L166.585 1323.15 L166.585 1327.08 L144.64 1327.08 L144.64 1323.15 Q147.302 1320.39 151.886 1315.77 Q156.492 1311.11 157.673 1309.77 Q159.918 1307.25 160.798 1305.51 Q161.7 1303.75 161.7 1302.06 Q161.7 1299.31 159.756 1297.57 Q157.835 1295.83 154.733 1295.83 Q152.534 1295.83 150.08 1296.6 Q147.649 1297.36 144.872 1298.91 L144.872 1294.19 Q147.696 1293.06 150.149 1292.48 Q152.603 1291.9 154.64 1291.9 Q160.011 1291.9 163.205 1294.58 Q166.399 1297.27 166.399 1301.76 Q166.399 1303.89 165.589 1305.81 Q164.802 1307.71 162.696 1310.3 Q162.117 1310.97 159.015 1314.19 Q155.913 1317.39 150.265 1323.15 Z" fill="#000000" fill-rule="nonzero" fill-opacity="1" /><path clip-path="url(#clip550)" d="M176.446 1292.52 L194.802 1292.52 L194.802 1296.46 L180.728 1296.46 L180.728 1304.93 Q181.746 1304.58 182.765 1304.42 Q183.784 1304.24 184.802 1304.24 Q190.589 1304.24 193.969 1307.41 Q197.348 1310.58 197.348 1316 Q197.348 1321.58 193.876 1324.68 Q190.404 1327.76 184.084 1327.76 Q181.909 1327.76 179.64 1327.39 Q177.395 1327.02 174.987 1326.27 L174.987 1321.58 Q177.071 1322.71 179.293 1323.27 Q181.515 1323.82 183.992 1323.82 Q187.996 1323.82 190.334 1321.71 Q192.672 1319.61 192.672 1316 Q192.672 1312.39 190.334 1310.28 Q187.996 1308.17 183.992 1308.17 Q182.117 1308.17 180.242 1308.59 Q178.39 1309.01 176.446 1309.89 L176.446 1292.52 Z" fill="#000000" fill-rule="nonzero" fill-opacity="1" /><path clip-path="url(#clip550)" d="M216.561 1295.6 Q212.95 1295.6 211.121 1299.17 Q209.316 1302.71 209.316 1309.84 Q209.316 1316.95 211.121 1320.51 Q212.95 1324.05 216.561 1324.05 Q220.195 1324.05 222.001 1320.51 Q223.83 1316.95 223.83 1309.84 Q223.83 1302.71 222.001 1299.17 Q220.195 1295.6 216.561 1295.6 M216.561 1291.9 Q222.371 1291.9 225.427 1296.51 Q228.506 1301.09 228.506 1309.84 Q228.506 1318.57 225.427 1323.17 Q222.371 1327.76 216.561 1327.76 Q210.751 1327.76 207.672 1323.17 Q204.617 1318.57 204.617 1309.84 Q204.617 1301.09 207.672 1296.51 Q210.751 1291.9 216.561 1291.9 Z" fill="#000000" fill-rule="nonzero" fill-opacity="1" /><path clip-path="url(#clip550)" d="M246.723 1295.6 Q243.112 1295.6 241.283 1299.17 Q239.478 1302.71 239.478 1309.84 Q239.478 1316.95 241.283 1320.51 Q243.112 1324.05 246.723 1324.05 Q250.357 1324.05 252.163 1320.51 Q253.991 1316.95 253.991 1309.84 Q253.991 1302.71 252.163 1299.17 Q250.357 1295.6 246.723 1295.6 M246.723 1291.9 Q252.533 1291.9 255.589 1296.51 Q258.667 1301.09 258.667 1309.84 Q258.667 1318.57 255.589 1323.17 Q252.533 1327.76 246.723 1327.76 Q240.913 1327.76 237.834 1323.17 Q234.779 1318.57 234.779 1309.84 Q234.779 1301.09 237.834 1296.51 Q240.913 1291.9 246.723 1291.9 Z" fill="#000000" fill-rule="nonzero" fill-opacity="1" /><path clip-path="url(#clip550)" d="M146.284 913.675 L164.64 913.675 L164.64 917.61 L150.566 917.61 L150.566 926.082 Q151.585 925.735 152.603 925.573 Q153.622 925.387 154.64 925.387 Q160.427 925.387 163.807 928.559 Q167.186 931.73 167.186 937.147 Q167.186 942.725 163.714 945.827 Q160.242 948.906 153.923 948.906 Q151.747 948.906 149.478 948.535 Q147.233 948.165 144.825 947.424 L144.825 942.725 Q146.909 943.86 149.131 944.415 Q151.353 944.971 153.83 944.971 Q157.835 944.971 160.173 942.864 Q162.51 940.758 162.51 937.147 Q162.51 933.536 160.173 931.429 Q157.835 929.323 153.83 929.323 Q151.955 929.323 150.08 929.739 Q148.228 930.156 146.284 931.036 L146.284 913.675 Z" fill="#000000" fill-rule="nonzero" fill-opacity="1" /><path clip-path="url(#clip550)" d="M186.399 916.753 Q182.788 916.753 180.959 920.318 Q179.154 923.86 179.154 930.989 Q179.154 938.096 180.959 941.661 Q182.788 945.202 186.399 945.202 Q190.033 945.202 191.839 941.661 Q193.668 938.096 193.668 930.989 Q193.668 923.86 191.839 920.318 Q190.033 916.753 186.399 916.753 M186.399 913.05 Q192.209 913.05 195.265 917.656 Q198.344 922.239 198.344 930.989 Q198.344 939.716 195.265 944.323 Q192.209 948.906 186.399 948.906 Q180.589 948.906 177.51 944.323 Q174.455 939.716 174.455 930.989 Q174.455 922.239 177.51 917.656 Q180.589 913.05 186.399 913.05 Z" fill="#000000" fill-rule="nonzero" fill-opacity="1" /><path clip-path="url(#clip550)" d="M216.561 916.753 Q212.95 916.753 211.121 920.318 Q209.316 923.86 209.316 930.989 Q209.316 938.096 211.121 941.661 Q212.95 945.202 216.561 945.202 Q220.195 945.202 222.001 941.661 Q223.83 938.096 223.83 930.989 Q223.83 923.86 222.001 920.318 Q220.195 916.753 216.561 916.753 M216.561 913.05 Q222.371 913.05 225.427 917.656 Q228.506 922.239 228.506 930.989 Q228.506 939.716 225.427 944.323 Q222.371 948.906 216.561 948.906 Q210.751 948.906 207.672 944.323 Q204.617 939.716 204.617 930.989 Q204.617 922.239 207.672 917.656 Q210.751 913.05 216.561 913.05 Z" fill="#000000" fill-rule="nonzero" fill-opacity="1" /><path clip-path="url(#clip550)" d="M246.723 916.753 Q243.112 916.753 241.283 920.318 Q239.478 923.86 239.478 930.989 Q239.478 938.096 241.283 941.661 Q243.112 945.202 246.723 945.202 Q250.357 945.202 252.163 941.661 Q253.991 938.096 253.991 930.989 Q253.991 923.86 252.163 920.318 Q250.357 916.753 246.723 916.753 M246.723 913.05 Q252.533 913.05 255.589 917.656 Q258.667 922.239 258.667 930.989 Q258.667 939.716 255.589 944.323 Q252.533 948.906 246.723 948.906 Q240.913 948.906 237.834 944.323 Q234.779 939.716 234.779 930.989 Q234.779 922.239 237.834 917.656 Q240.913 913.05 246.723 913.05 Z" fill="#000000" fill-rule="nonzero" fill-opacity="1" /><path clip-path="url(#clip550)" d="M145.057 534.824 L167.279 534.824 L167.279 536.815 L154.733 569.384 L149.849 569.384 L161.654 538.76 L145.057 538.76 L145.057 534.824 Z" fill="#000000" fill-rule="nonzero" fill-opacity="1" /><path clip-path="url(#clip550)" d="M176.446 534.824 L194.802 534.824 L194.802 538.76 L180.728 538.76 L180.728 547.232 Q181.746 546.884 182.765 546.722 Q183.784 546.537 184.802 546.537 Q190.589 546.537 193.969 549.709 Q197.348 552.88 197.348 558.296 Q197.348 563.875 193.876 566.977 Q190.404 570.056 184.084 570.056 Q181.909 570.056 179.64 569.685 Q177.395 569.315 174.987 568.574 L174.987 563.875 Q177.071 565.009 179.293 565.565 Q181.515 566.12 183.992 566.12 Q187.996 566.12 190.334 564.014 Q192.672 561.908 192.672 558.296 Q192.672 554.685 190.334 552.579 Q187.996 550.472 183.992 550.472 Q182.117 550.472 180.242 550.889 Q178.39 551.306 176.446 552.185 L176.446 534.824 Z" fill="#000000" fill-rule="nonzero" fill-opacity="1" /><path clip-path="url(#clip550)" d="M216.561 537.903 Q212.95 537.903 211.121 541.468 Q209.316 545.009 209.316 552.139 Q209.316 559.246 211.121 562.81 Q212.95 566.352 216.561 566.352 Q220.195 566.352 222.001 562.81 Q223.83 559.246 223.83 552.139 Q223.83 545.009 222.001 541.468 Q220.195 537.903 216.561 537.903 M216.561 534.199 Q222.371 534.199 225.427 538.806 Q228.506 543.389 228.506 552.139 Q228.506 560.866 225.427 565.472 Q222.371 570.056 216.561 570.056 Q210.751 570.056 207.672 565.472 Q204.617 560.866 204.617 552.139 Q204.617 543.389 207.672 538.806 Q210.751 534.199 216.561 534.199 Z" fill="#000000" fill-rule="nonzero" fill-opacity="1" /><path clip-path="url(#clip550)" d="M246.723 537.903 Q243.112 537.903 241.283 541.468 Q239.478 545.009 239.478 552.139 Q239.478 559.246 241.283 562.81 Q243.112 566.352 246.723 566.352 Q250.357 566.352 252.163 562.81 Q253.991 559.246 253.991 552.139 Q253.991 545.009 252.163 541.468 Q250.357 537.903 246.723 537.903 M246.723 534.199 Q252.533 534.199 255.589 538.806 Q258.667 543.389 258.667 552.139 Q258.667 560.866 255.589 565.472 Q252.533 570.056 246.723 570.056 Q240.913 570.056 237.834 565.472 Q234.779 560.866 234.779 552.139 Q234.779 543.389 237.834 538.806 Q240.913 534.199 246.723 534.199 Z" fill="#000000" fill-rule="nonzero" fill-opacity="1" /><path clip-path="url(#clip550)" d="M116.886 186.599 L124.525 186.599 L124.525 160.233 L116.214 161.9 L116.214 157.641 L124.478 155.974 L129.154 155.974 L129.154 186.599 L136.793 186.599 L136.793 190.534 L116.886 190.534 L116.886 186.599 Z" fill="#000000" fill-rule="nonzero" fill-opacity="1" /><path clip-path="url(#clip550)" d="M156.237 159.053 Q152.626 159.053 150.798 162.618 Q148.992 166.159 148.992 173.289 Q148.992 180.395 150.798 183.96 Q152.626 187.502 156.237 187.502 Q159.872 187.502 161.677 183.96 Q163.506 180.395 163.506 173.289 Q163.506 166.159 161.677 162.618 Q159.872 159.053 156.237 159.053 M156.237 155.349 Q162.048 155.349 165.103 159.956 Q168.182 164.539 168.182 173.289 Q168.182 182.016 165.103 186.622 Q162.048 191.205 156.237 191.205 Q150.427 191.205 147.349 186.622 Q144.293 182.016 144.293 173.289 Q144.293 164.539 147.349 159.956 Q150.427 155.349 156.237 155.349 Z" fill="#000000" fill-rule="nonzero" fill-opacity="1" /><path clip-path="url(#clip550)" d="M186.399 159.053 Q182.788 159.053 180.959 162.618 Q179.154 166.159 179.154 173.289 Q179.154 180.395 180.959 183.96 Q182.788 187.502 186.399 187.502 Q190.033 187.502 191.839 183.96 Q193.668 180.395 193.668 173.289 Q193.668 166.159 191.839 162.618 Q190.033 159.053 186.399 159.053 M186.399 155.349 Q192.209 155.349 195.265 159.956 Q198.344 164.539 198.344 173.289 Q198.344 182.016 195.265 186.622 Q192.209 191.205 186.399 191.205 Q180.589 191.205 177.51 186.622 Q174.455 182.016 174.455 173.289 Q174.455 164.539 177.51 159.956 Q180.589 155.349 186.399 155.349 Z" fill="#000000" fill-rule="nonzero" fill-opacity="1" /><path clip-path="url(#clip550)" d="M216.561 159.053 Q212.95 159.053 211.121 162.618 Q209.316 166.159 209.316 173.289 Q209.316 180.395 211.121 183.96 Q212.95 187.502 216.561 187.502 Q220.195 187.502 222.001 183.96 Q223.83 180.395 223.83 173.289 Q223.83 166.159 222.001 162.618 Q220.195 159.053 216.561 159.053 M216.561 155.349 Q222.371 155.349 225.427 159.956 Q228.506 164.539 228.506 173.289 Q228.506 182.016 225.427 186.622 Q222.371 191.205 216.561 191.205 Q210.751 191.205 207.672 186.622 Q204.617 182.016 204.617 173.289 Q204.617 164.539 207.672 159.956 Q210.751 155.349 216.561 155.349 Z" fill="#000000" fill-rule="nonzero" fill-opacity="1" /><path clip-path="url(#clip550)" d="M246.723 159.053 Q243.112 159.053 241.283 162.618 Q239.478 166.159 239.478 173.289 Q239.478 180.395 241.283 183.96 Q243.112 187.502 246.723 187.502 Q250.357 187.502 252.163 183.96 Q253.991 180.395 253.991 173.289 Q253.991 166.159 252.163 162.618 Q250.357 159.053 246.723 159.053 M246.723 155.349 Q252.533 155.349 255.589 159.956 Q258.667 164.539 258.667 173.289 Q258.667 182.016 255.589 186.622 Q252.533 191.205 246.723 191.205 Q240.913 191.205 237.834 186.622 Q234.779 182.016 234.779 173.289 Q234.779 164.539 237.834 159.956 Q240.913 155.349 246.723 155.349 Z" fill="#000000" fill-rule="nonzero" fill-opacity="1" /><path clip-path="url(#clip550)" d="M14.1184 1220.36 L14.1184 1211.7 L53.8723 1190.63 L14.1184 1190.63 L14.1184 1184.39 L61.6384 1184.39 L61.6384 1193.05 L21.8846 1214.12 L61.6384 1214.12 L61.6384 1220.36 L14.1184 1220.36 Z" fill="#000000" fill-rule="nonzero" fill-opacity="1" /><path clip-path="url(#clip550)" d="M47.5702 1172.45 L25.9905 1172.45 L25.9905 1166.6 L47.3474 1166.6 Q52.4082 1166.6 54.9545 1164.62 Q57.4689 1162.65 57.4689 1158.7 Q57.4689 1153.96 54.4452 1151.22 Q51.4215 1148.45 46.2016 1148.45 L25.9905 1148.45 L25.9905 1142.6 L61.6384 1142.6 L61.6384 1148.45 L56.1639 1148.45 Q59.4104 1150.59 61.0019 1153.42 Q62.5615 1156.22 62.5615 1159.94 Q62.5615 1166.09 58.742 1169.27 Q54.9226 1172.45 47.5702 1172.45 M25.1311 1157.72 L25.1311 1157.72 Z" fill="#000000" fill-rule="nonzero" fill-opacity="1" /><path clip-path="url(#clip550)" d="M32.8336 1102.78 Q28.8869 1100.58 27.009 1097.53 Q25.1311 1094.47 25.1311 1090.34 Q25.1311 1084.77 29.046 1081.74 Q32.9291 1078.72 40.1224 1078.72 L61.6384 1078.72 L61.6384 1084.61 L40.3133 1084.61 Q35.1889 1084.61 32.7063 1086.42 Q30.2237 1088.24 30.2237 1091.96 Q30.2237 1096.51 33.2474 1099.15 Q36.2711 1101.79 41.491 1101.79 L61.6384 1101.79 L61.6384 1107.68 L40.3133 1107.68 Q35.1571 1107.68 32.7063 1109.5 Q30.2237 1111.31 30.2237 1115.1 Q30.2237 1119.59 33.2792 1122.23 Q36.3029 1124.87 41.491 1124.87 L61.6384 1124.87 L61.6384 1130.76 L25.9905 1130.76 L25.9905 1124.87 L31.5287 1124.87 Q28.2503 1122.86 26.6907 1120.06 Q25.1311 1117.26 25.1311 1113.41 Q25.1311 1109.53 27.1045 1106.82 Q29.0779 1104.09 32.8336 1102.78 Z" fill="#000000" fill-rule="nonzero" fill-opacity="1" /><path clip-path="url(#clip550)" d="M43.8463 1041.45 Q37.3851 1041.45 33.7248 1044.12 Q30.0327 1046.76 30.0327 1051.41 Q30.0327 1056.06 33.7248 1058.73 Q37.3851 1061.37 43.8463 1061.37 Q50.3075 1061.37 53.9996 1058.73 Q57.6599 1056.06 57.6599 1051.41 Q57.6599 1046.76 53.9996 1044.12 Q50.3075 1041.45 43.8463 1041.45 M31.4013 1061.37 Q28.2185 1059.53 26.6907 1056.73 Q25.1311 1053.89 25.1311 1049.98 Q25.1311 1043.48 30.2873 1039.44 Q35.4436 1035.37 43.8463 1035.37 Q52.249 1035.37 57.4052 1039.44 Q62.5615 1043.48 62.5615 1049.98 Q62.5615 1053.89 61.0337 1056.73 Q59.4741 1059.53 56.2912 1061.37 L61.6384 1061.37 L61.6384 1067.26 L12.1132 1067.26 L12.1132 1061.37 L31.4013 1061.37 Z" fill="#000000" fill-rule="nonzero" fill-opacity="1" /><path clip-path="url(#clip550)" d="M42.3504 995.169 L45.2149 995.169 L45.2149 1022.1 Q51.2623 1021.71 54.4452 1018.47 Q57.5962 1015.19 57.5962 1009.36 Q57.5962 1005.99 56.7687 1002.84 Q55.9411 999.656 54.2861 996.537 L59.8242 996.537 Q61.161 999.688 61.8612 1003 Q62.5615 1006.31 62.5615 1009.71 Q62.5615 1018.24 57.5962 1023.24 Q52.631 1028.21 44.1646 1028.21 Q35.4117 1028.21 30.2873 1023.5 Q25.1311 1018.75 25.1311 1010.73 Q25.1311 1003.54 29.7781 999.37 Q34.3932 995.169 42.3504 995.169 M40.6316 1001.03 Q35.8255 1001.09 32.9609 1003.73 Q30.0964 1006.34 30.0964 1010.67 Q30.0964 1015.57 32.8654 1018.53 Q35.6345 1021.46 40.6634 1021.9 L40.6316 1001.03 Z" fill="#000000" fill-rule="nonzero" fill-opacity="1" /><path clip-path="url(#clip550)" d="M31.465 964.9 Q30.8921 965.886 30.6375 967.064 Q30.351 968.21 30.351 969.61 Q30.351 974.576 33.5975 977.249 Q36.8122 979.891 42.8596 979.891 L61.6384 979.891 L61.6384 985.779 L25.9905 985.779 L25.9905 979.891 L31.5287 979.891 Q28.2821 978.045 26.7225 975.085 Q25.1311 972.125 25.1311 967.892 Q25.1311 967.287 25.2266 966.555 Q25.2903 965.823 25.4494 964.932 L31.465 964.9 Z" fill="#000000" fill-rule="nonzero" fill-opacity="1" /><path clip-path="url(#clip550)" d="M30.0964 924.223 Q30.0964 928.933 33.7885 931.671 Q37.4488 934.408 43.8463 934.408 Q50.2438 934.408 53.9359 931.703 Q57.5962 928.965 57.5962 924.223 Q57.5962 919.544 53.9041 916.807 Q50.212 914.07 43.8463 914.07 Q37.5124 914.07 33.8203 916.807 Q30.0964 919.544 30.0964 924.223 M25.1311 924.223 Q25.1311 916.584 30.0964 912.223 Q35.0616 907.863 43.8463 907.863 Q52.5991 907.863 57.5962 912.223 Q62.5615 916.584 62.5615 924.223 Q62.5615 931.893 57.5962 936.254 Q52.5991 940.583 43.8463 940.583 Q35.0616 940.583 30.0964 936.254 Q25.1311 931.893 25.1311 924.223 Z" fill="#000000" fill-rule="nonzero" fill-opacity="1" /><path clip-path="url(#clip550)" d="M12.1132 880.108 L16.983 880.108 L16.983 885.71 Q16.983 888.861 18.2562 890.103 Q19.5293 891.312 22.8395 891.312 L25.9905 891.312 L25.9905 881.668 L30.542 881.668 L30.542 891.312 L61.6384 891.312 L61.6384 897.2 L30.542 897.2 L30.542 902.802 L25.9905 902.802 L25.9905 897.2 L23.5079 897.2 Q17.5559 897.2 14.8505 894.431 Q12.1132 891.662 12.1132 885.647 L12.1132 880.108 Z" fill="#000000" fill-rule="nonzero" fill-opacity="1" /><path clip-path="url(#clip550)" d="M43.719 838.286 Q43.719 845.384 45.3422 848.121 Q46.9655 850.858 50.8804 850.858 Q53.9996 850.858 55.8457 848.821 Q57.6599 846.752 57.6599 843.219 Q57.6599 838.349 54.2224 835.421 Q50.7531 832.461 45.0239 832.461 L43.719 832.461 L43.719 838.286 M41.3 826.605 L61.6384 826.605 L61.6384 832.461 L56.2276 832.461 Q59.4741 834.466 61.0337 837.458 Q62.5615 840.45 62.5615 844.779 Q62.5615 850.253 59.5059 853.5 Q56.4186 856.715 51.2623 856.715 Q45.2467 856.715 42.1912 852.704 Q39.1357 848.662 39.1357 840.673 L39.1357 832.461 L38.5628 832.461 Q34.5205 832.461 32.3244 835.135 Q30.0964 837.777 30.0964 842.583 Q30.0964 845.638 30.8284 848.535 Q31.5605 851.431 33.0246 854.105 L27.6137 854.105 Q26.3724 850.89 25.7677 847.866 Q25.1311 844.842 25.1311 841.978 Q25.1311 834.244 29.1415 830.424 Q33.1519 826.605 41.3 826.605 Z" fill="#000000" fill-rule="nonzero" fill-opacity="1" /><path clip-path="url(#clip550)" d="M43.4007 791.084 Q37.035 791.084 33.5338 793.726 Q30.0327 796.336 30.0327 801.078 Q30.0327 805.789 33.5338 808.431 Q37.035 811.041 43.4007 811.041 Q49.7346 811.041 53.2357 808.431 Q56.7368 805.789 56.7368 801.078 Q56.7368 796.336 53.2357 793.726 Q49.7346 791.084 43.4007 791.084 M57.2143 785.228 Q66.3172 785.228 70.7414 789.27 Q75.1974 793.312 75.1974 801.651 Q75.1974 804.739 74.72 807.476 Q74.2744 810.213 73.3195 812.791 L67.6222 812.791 Q69.0227 810.213 69.6911 807.699 Q70.3595 805.184 70.3595 802.574 Q70.3595 796.813 67.3358 793.949 Q64.3439 791.084 58.2646 791.084 L55.3682 791.084 Q58.5192 792.898 60.0788 795.731 Q61.6384 798.564 61.6384 802.511 Q61.6384 809.067 56.6414 813.078 Q51.6443 817.088 43.4007 817.088 Q35.1253 817.088 30.1282 813.078 Q25.1311 809.067 25.1311 802.511 Q25.1311 798.564 26.6907 795.731 Q28.2503 792.898 31.4013 791.084 L25.9905 791.084 L25.9905 785.228 L57.2143 785.228 Z" fill="#000000" fill-rule="nonzero" fill-opacity="1" /><path clip-path="url(#clip550)" d="M42.3504 742.673 L45.2149 742.673 L45.2149 769.6 Q51.2623 769.218 54.4452 765.971 Q57.5962 762.693 57.5962 756.868 Q57.5962 753.495 56.7687 750.344 Q55.9411 747.161 54.2861 744.041 L59.8242 744.041 Q61.161 747.193 61.8612 750.503 Q62.5615 753.813 62.5615 757.219 Q62.5615 765.749 57.5962 770.746 Q52.631 775.711 44.1646 775.711 Q35.4117 775.711 30.2873 771 Q25.1311 766.258 25.1311 758.237 Q25.1311 751.044 29.7781 746.874 Q34.3932 742.673 42.3504 742.673 M40.6316 748.529 Q35.8255 748.593 32.9609 751.235 Q30.0964 753.845 30.0964 758.173 Q30.0964 763.075 32.8654 766.035 Q35.6345 768.963 40.6634 769.409 L40.6316 748.529 Z" fill="#000000" fill-rule="nonzero" fill-opacity="1" /><path clip-path="url(#clip550)" d="M40.1224 703.428 L61.6384 703.428 L61.6384 709.285 L40.3133 709.285 Q35.2526 709.285 32.7381 711.258 Q30.2237 713.231 30.2237 717.178 Q30.2237 721.921 33.2474 724.658 Q36.2711 727.395 41.491 727.395 L61.6384 727.395 L61.6384 733.283 L25.9905 733.283 L25.9905 727.395 L31.5287 727.395 Q28.314 725.294 26.7225 722.462 Q25.1311 719.597 25.1311 715.873 Q25.1311 709.73 28.9505 706.579 Q32.7381 703.428 40.1224 703.428 Z" fill="#000000" fill-rule="nonzero" fill-opacity="1" /><path clip-path="url(#clip550)" d="M15.869 685.954 L25.9905 685.954 L25.9905 673.891 L30.542 673.891 L30.542 685.954 L49.8937 685.954 Q54.2542 685.954 55.4955 684.777 Q56.7368 683.567 56.7368 679.907 L56.7368 673.891 L61.6384 673.891 L61.6384 679.907 Q61.6384 686.686 59.124 689.265 Q56.5777 691.843 49.8937 691.843 L30.542 691.843 L30.542 696.14 L25.9905 696.14 L25.9905 691.843 L15.869 691.843 L15.869 685.954 Z" fill="#000000" fill-rule="nonzero" fill-opacity="1" /><path clip-path="url(#clip550)" d="M27.0408 643.463 L32.579 643.463 Q31.3059 645.946 30.6693 648.62 Q30.0327 651.293 30.0327 654.158 Q30.0327 658.518 31.3695 660.714 Q32.7063 662.879 35.3799 662.879 Q37.4169 662.879 38.5946 661.319 Q39.7404 659.76 40.7908 655.049 L41.2364 653.044 Q42.5732 646.805 45.0239 644.195 Q47.4429 641.554 51.8034 641.554 Q56.7687 641.554 59.6651 645.5 Q62.5615 649.415 62.5615 656.29 Q62.5615 659.155 61.9886 662.274 Q61.4475 665.361 60.3335 668.799 L54.2861 668.799 Q55.973 665.552 56.8323 662.401 Q57.6599 659.25 57.6599 656.163 Q57.6599 652.025 56.2594 649.797 Q54.8271 647.569 52.249 647.569 Q49.8619 647.569 48.5887 649.192 Q47.3156 650.784 46.1379 656.227 L45.6605 658.264 Q44.5147 663.706 42.1594 666.125 Q39.7722 668.544 35.6345 668.544 Q30.6056 668.544 27.8684 664.979 Q25.1311 661.415 25.1311 654.858 Q25.1311 651.611 25.6085 648.747 Q26.086 645.882 27.0408 643.463 Z" fill="#000000" fill-rule="nonzero" fill-opacity="1" /><path clip-path="url(#clip550)" d="M984.452 12.096 L996.645 12.096 L1012.08 53.2532 L1027.59 12.096 L1039.79 12.096 L1039.79 72.576 L1031.81 72.576 L1031.81 19.4686 L1016.21 60.9499 L1007.99 60.9499 L992.392 19.4686 L992.392 72.576 L984.452 72.576 L984.452 12.096 Z" fill="#000000" fill-rule="nonzero" fill-opacity="1" /><path clip-path="url(#clip550)" d="M1094.51 48.0275 L1094.51 51.6733 L1060.24 51.6733 Q1060.73 59.3701 1064.86 63.421 Q1069.03 67.4314 1076.45 67.4314 Q1080.74 67.4314 1084.75 66.3781 Q1088.8 65.3249 1092.77 63.2184 L1092.77 70.267 Q1088.76 71.9684 1084.55 72.8596 Q1080.34 73.7508 1076 73.7508 Q1065.15 73.7508 1058.79 67.4314 Q1052.47 61.1119 1052.47 50.3365 Q1052.47 39.1965 1058.46 32.6746 Q1064.5 26.1121 1074.71 26.1121 Q1083.86 26.1121 1089.17 32.0264 Q1094.51 37.9003 1094.51 48.0275 M1087.06 45.84 Q1086.98 39.7232 1083.62 36.0774 Q1080.3 32.4315 1074.79 32.4315 Q1068.55 32.4315 1064.78 35.9558 Q1061.05 39.4801 1060.49 45.8805 L1087.06 45.84 Z" fill="#000000" fill-rule="nonzero" fill-opacity="1" /><path clip-path="url(#clip550)" d="M1127.37 49.7694 Q1118.33 49.7694 1114.85 51.8354 Q1111.37 53.9013 1111.37 58.8839 Q1111.37 62.8538 1113.96 65.2034 Q1116.59 67.5124 1121.09 67.5124 Q1127.29 67.5124 1131.01 63.1374 Q1134.78 58.7219 1134.78 51.4303 L1134.78 49.7694 L1127.37 49.7694 M1142.23 46.6907 L1142.23 72.576 L1134.78 72.576 L1134.78 65.6895 Q1132.23 69.8214 1128.42 71.8063 Q1124.61 73.7508 1119.1 73.7508 Q1112.14 73.7508 1108 69.8619 Q1103.91 65.9325 1103.91 59.3701 Q1103.91 51.7138 1109.02 47.825 Q1114.16 43.9361 1124.33 43.9361 L1134.78 43.9361 L1134.78 43.2069 Q1134.78 38.0623 1131.38 35.2672 Q1128.02 32.4315 1121.9 32.4315 Q1118.01 32.4315 1114.32 33.3632 Q1110.64 34.295 1107.23 36.1584 L1107.23 29.2718 Q1111.33 27.692 1115.17 26.9223 Q1119.02 26.1121 1122.67 26.1121 Q1132.51 26.1121 1137.37 31.2163 Q1142.23 36.3204 1142.23 46.6907 Z" fill="#000000" fill-rule="nonzero" fill-opacity="1" /><path clip-path="url(#clip550)" d="M1186.51 28.5427 L1186.51 35.5912 Q1183.35 33.9709 1179.95 33.1607 Q1176.55 32.3505 1172.9 32.3505 Q1167.35 32.3505 1164.55 34.0519 Q1161.8 35.7533 1161.8 39.156 Q1161.8 41.7486 1163.79 43.2475 Q1165.77 44.7058 1171.77 46.0426 L1174.32 46.6097 Q1182.26 48.3111 1185.58 51.4303 Q1188.94 54.509 1188.94 60.0587 Q1188.94 66.3781 1183.92 70.0644 Q1178.94 73.7508 1170.19 73.7508 Q1166.54 73.7508 1162.57 73.0216 Q1158.64 72.3329 1154.27 70.9151 L1154.27 63.2184 Q1158.4 65.3654 1162.41 66.4591 Q1166.42 67.5124 1170.35 67.5124 Q1175.61 67.5124 1178.45 65.73 Q1181.29 63.9071 1181.29 60.6258 Q1181.29 57.5877 1179.22 55.9673 Q1177.19 54.3469 1170.27 52.8481 L1167.67 52.2405 Q1160.75 50.7821 1157.67 47.7845 Q1154.59 44.7463 1154.59 39.4801 Q1154.59 33.0797 1159.13 29.5959 Q1163.66 26.1121 1172.01 26.1121 Q1176.14 26.1121 1179.79 26.7198 Q1183.43 27.3274 1186.51 28.5427 Z" fill="#000000" fill-rule="nonzero" fill-opacity="1" /><path clip-path="url(#clip550)" d="M1200.81 9.54393 L1208.26 9.54393 L1208.26 72.576 L1200.81 72.576 L1200.81 9.54393 Z" fill="#000000" fill-rule="nonzero" fill-opacity="1" /><path clip-path="url(#clip550)" d="M1262.67 48.0275 L1262.67 51.6733 L1228.4 51.6733 Q1228.88 59.3701 1233.02 63.421 Q1237.19 67.4314 1244.6 67.4314 Q1248.89 67.4314 1252.91 66.3781 Q1256.96 65.3249 1260.93 63.2184 L1260.93 70.267 Q1256.92 71.9684 1252.7 72.8596 Q1248.49 73.7508 1244.16 73.7508 Q1233.3 73.7508 1226.94 67.4314 Q1220.62 61.1119 1220.62 50.3365 Q1220.62 39.1965 1226.61 32.6746 Q1232.65 26.1121 1242.86 26.1121 Q1252.01 26.1121 1257.32 32.0264 Q1262.67 37.9003 1262.67 48.0275 M1255.21 45.84 Q1255.13 39.7232 1251.77 36.0774 Q1248.45 32.4315 1242.94 32.4315 Q1236.7 32.4315 1232.93 35.9558 Q1229.21 39.4801 1228.64 45.8805 L1255.21 45.84 Z" fill="#000000" fill-rule="nonzero" fill-opacity="1" /><path clip-path="url(#clip550)" d="M1303.83 28.5427 L1303.83 35.5912 Q1300.67 33.9709 1297.26 33.1607 Q1293.86 32.3505 1290.21 32.3505 Q1284.66 32.3505 1281.87 34.0519 Q1279.11 35.7533 1279.11 39.156 Q1279.11 41.7486 1281.1 43.2475 Q1283.08 44.7058 1289.08 46.0426 L1291.63 46.6097 Q1299.57 48.3111 1302.89 51.4303 Q1306.26 54.509 1306.26 60.0587 Q1306.26 66.3781 1301.23 70.0644 Q1296.25 73.7508 1287.5 73.7508 Q1283.85 73.7508 1279.88 73.0216 Q1275.95 72.3329 1271.58 70.9151 L1271.58 63.2184 Q1275.71 65.3654 1279.72 66.4591 Q1283.73 67.5124 1287.66 67.5124 Q1292.93 67.5124 1295.76 65.73 Q1298.6 63.9071 1298.6 60.6258 Q1298.6 57.5877 1296.53 55.9673 Q1294.51 54.3469 1287.58 52.8481 L1284.99 52.2405 Q1278.06 50.7821 1274.98 47.7845 Q1271.9 44.7463 1271.9 39.4801 Q1271.9 33.0797 1276.44 29.5959 Q1280.98 26.1121 1289.32 26.1121 Q1293.45 26.1121 1297.1 26.7198 Q1300.75 27.3274 1303.83 28.5427 Z" fill="#000000" fill-rule="nonzero" fill-opacity="1" /><path clip-path="url(#clip550)" d="M1381.08 14.0809 L1381.08 22.0612 Q1376.42 19.8332 1372.29 18.7395 Q1368.15 17.6457 1364.31 17.6457 Q1357.62 17.6457 1353.98 20.2383 Q1350.37 22.8309 1350.37 27.611 Q1350.37 31.6214 1352.76 33.6873 Q1355.19 35.7128 1361.92 36.9686 L1366.86 37.9813 Q1376.01 39.7232 1380.35 44.1387 Q1384.72 48.5136 1384.72 55.8863 Q1384.72 64.6767 1378.81 69.2137 Q1372.93 73.7508 1361.55 73.7508 Q1357.26 73.7508 1352.4 72.7785 Q1347.57 71.8063 1342.39 69.9024 L1342.39 61.4765 Q1347.37 64.2716 1352.15 65.6895 Q1356.93 67.1073 1361.55 67.1073 Q1368.56 67.1073 1372.37 64.3527 Q1376.17 61.598 1376.17 56.4939 Q1376.17 52.0379 1373.42 49.5264 Q1370.71 47.0148 1364.47 45.759 L1359.48 44.7868 Q1350.33 42.9639 1346.24 39.075 Q1342.15 35.1862 1342.15 28.2591 Q1342.15 20.2383 1347.78 15.6203 Q1353.45 11.0023 1363.37 11.0023 Q1367.63 11.0023 1372.04 11.7719 Q1376.46 12.5416 1381.08 14.0809 Z" fill="#000000" fill-rule="nonzero" fill-opacity="1" /><path clip-path="url(#clip550)" d="M1397.48 12.096 L1435.72 12.096 L1435.72 18.9825 L1405.66 18.9825 L1405.66 36.8875 L1434.47 36.8875 L1434.47 43.7741 L1405.66 43.7741 L1405.66 65.6895 L1436.45 65.6895 L1436.45 72.576 L1397.48 72.576 L1397.48 12.096 Z" fill="#000000" fill-rule="nonzero" fill-opacity="1" /><path clip-path="url(#clip550)" d="M1449.9 12.096 L1458.08 12.096 L1458.08 72.576 L1449.9 72.576 L1449.9 12.096 Z" fill="#000000" fill-rule="nonzero" fill-opacity="1" /><path clip-path="url(#clip550)" d="M1503.05 44.2197 Q1505.68 45.1109 1508.15 48.0275 Q1510.66 50.9442 1513.18 56.0483 L1521.48 72.576 L1512.69 72.576 L1504.95 57.061 Q1501.95 50.9847 1499.12 48.9997 Q1496.32 47.0148 1491.46 47.0148 L1482.55 47.0148 L1482.55 72.576 L1474.37 72.576 L1474.37 12.096 L1492.84 12.096 Q1503.21 12.096 1508.31 16.4305 Q1513.42 20.7649 1513.42 29.5149 Q1513.42 35.2267 1510.75 38.994 Q1508.11 42.7613 1503.05 44.2197 M1482.55 18.8205 L1482.55 40.2903 L1492.84 40.2903 Q1498.75 40.2903 1501.75 37.5762 Q1504.79 34.8216 1504.79 29.5149 Q1504.79 24.2082 1501.75 21.5346 Q1498.75 18.8205 1492.84 18.8205 L1482.55 18.8205 Z" fill="#000000" fill-rule="nonzero" fill-opacity="1" /><path clip-path="url(#clip550)" d="M1566.57 18.8205 L1566.57 65.8515 L1576.45 65.8515 Q1588.97 65.8515 1594.76 60.1802 Q1600.59 54.509 1600.59 42.2752 Q1600.59 30.1225 1594.76 24.4918 Q1588.97 18.8205 1576.45 18.8205 L1566.57 18.8205 M1558.38 12.096 L1575.2 12.096 Q1592.78 12.096 1601 19.4281 Q1609.22 26.7198 1609.22 42.2752 Q1609.22 57.9117 1600.96 65.2439 Q1592.7 72.576 1575.2 72.576 L1558.38 72.576 L1558.38 12.096 Z" fill="#000000" fill-rule="nonzero" fill-opacity="1" /><path clip-path="url(#clip550)" d="M1640.82 76.7889 Q1637.66 84.8907 1634.66 87.3618 Q1631.66 89.8329 1626.64 89.8329 L1620.69 89.8329 L1620.69 83.5945 L1625.06 83.5945 Q1628.14 83.5945 1629.84 82.1361 Q1631.54 80.6778 1633.61 75.2496 L1634.95 71.8468 L1616.6 27.2059 L1624.49 27.2059 L1638.67 62.6918 L1652.85 27.2059 L1660.75 27.2059 L1640.82 76.7889 Z" fill="#000000" fill-rule="nonzero" fill-opacity="1" /><path clip-path="url(#clip550)" d="M1708.75 45.1919 L1708.75 72.576 L1701.3 72.576 L1701.3 45.4349 Q1701.3 38.994 1698.79 35.7938 Q1696.28 32.5936 1691.25 32.5936 Q1685.22 32.5936 1681.73 36.4419 Q1678.25 40.2903 1678.25 46.9338 L1678.25 72.576 L1670.76 72.576 L1670.76 27.2059 L1678.25 27.2059 L1678.25 34.2544 Q1680.92 30.163 1684.53 28.1376 Q1688.17 26.1121 1692.91 26.1121 Q1700.73 26.1121 1704.74 30.9732 Q1708.75 35.7938 1708.75 45.1919 Z" fill="#000000" fill-rule="nonzero" fill-opacity="1" /><path clip-path="url(#clip550)" d="M1744.24 49.7694 Q1735.21 49.7694 1731.72 51.8354 Q1728.24 53.9013 1728.24 58.8839 Q1728.24 62.8538 1730.83 65.2034 Q1733.46 67.5124 1737.96 67.5124 Q1744.16 67.5124 1747.89 63.1374 Q1751.65 58.7219 1751.65 51.4303 L1751.65 49.7694 L1744.24 49.7694 M1759.11 46.6907 L1759.11 72.576 L1751.65 72.576 L1751.65 65.6895 Q1749.1 69.8214 1745.29 71.8063 Q1741.48 73.7508 1735.98 73.7508 Q1729.01 73.7508 1724.88 69.8619 Q1720.78 65.9325 1720.78 59.3701 Q1720.78 51.7138 1725.89 47.825 Q1731.03 43.9361 1741.2 43.9361 L1751.65 43.9361 L1751.65 43.2069 Q1751.65 38.0623 1748.25 35.2672 Q1744.89 32.4315 1738.77 32.4315 Q1734.88 32.4315 1731.2 33.3632 Q1727.51 34.295 1724.11 36.1584 L1724.11 29.2718 Q1728.2 27.692 1732.05 26.9223 Q1735.89 26.1121 1739.54 26.1121 Q1749.38 26.1121 1754.25 31.2163 Q1759.11 36.3204 1759.11 46.6907 Z" fill="#000000" fill-rule="nonzero" fill-opacity="1" /><path clip-path="url(#clip550)" d="M1809.78 35.9153 Q1812.58 30.8922 1816.47 28.5022 Q1820.36 26.1121 1825.62 26.1121 Q1832.71 26.1121 1836.56 31.0947 Q1840.41 36.0368 1840.41 45.1919 L1840.41 72.576 L1832.91 72.576 L1832.91 45.4349 Q1832.91 38.913 1830.6 35.7533 Q1828.3 32.5936 1823.56 32.5936 Q1817.76 32.5936 1814.4 36.4419 Q1811.04 40.2903 1811.04 46.9338 L1811.04 72.576 L1803.54 72.576 L1803.54 45.4349 Q1803.54 38.8725 1801.24 35.7533 Q1798.93 32.5936 1794.11 32.5936 Q1788.39 32.5936 1785.03 36.4824 Q1781.67 40.3308 1781.67 46.9338 L1781.67 72.576 L1774.18 72.576 L1774.18 27.2059 L1781.67 27.2059 L1781.67 34.2544 Q1784.22 30.082 1787.79 28.0971 Q1791.35 26.1121 1796.25 26.1121 Q1801.2 26.1121 1804.64 28.6237 Q1808.12 31.1352 1809.78 35.9153 Z" fill="#000000" fill-rule="nonzero" fill-opacity="1" /><path clip-path="url(#clip550)" d="M1855.27 27.2059 L1862.73 27.2059 L1862.73 72.576 L1855.27 72.576 L1855.27 27.2059 M1855.27 9.54393 L1862.73 9.54393 L1862.73 18.9825 L1855.27 18.9825 L1855.27 9.54393 Z" fill="#000000" fill-rule="nonzero" fill-opacity="1" /><path clip-path="url(#clip550)" d="M1910.97 28.9478 L1910.97 35.9153 Q1907.81 34.1734 1904.61 33.3227 Q1901.45 32.4315 1898.21 32.4315 Q1890.96 32.4315 1886.95 37.0496 Q1882.94 41.6271 1882.94 49.9314 Q1882.94 58.2358 1886.95 62.8538 Q1890.96 67.4314 1898.21 67.4314 Q1901.45 67.4314 1904.61 66.5807 Q1907.81 65.6895 1910.97 63.9476 L1910.97 70.8341 Q1907.86 72.2924 1904.49 73.0216 Q1901.17 73.7508 1897.4 73.7508 Q1887.16 73.7508 1881.12 67.3098 Q1875.08 60.8689 1875.08 49.9314 Q1875.08 38.832 1881.16 32.472 Q1887.28 26.1121 1897.89 26.1121 Q1901.33 26.1121 1904.61 26.8413 Q1907.9 27.5299 1910.97 28.9478 Z" fill="#000000" fill-rule="nonzero" fill-opacity="1" /><path clip-path="url(#clip550)" d="M1952.86 28.5427 L1952.86 35.5912 Q1949.7 33.9709 1946.3 33.1607 Q1942.9 32.3505 1939.25 32.3505 Q1933.7 32.3505 1930.91 34.0519 Q1928.15 35.7533 1928.15 39.156 Q1928.15 41.7486 1930.14 43.2475 Q1932.12 44.7058 1938.12 46.0426 L1940.67 46.6097 Q1948.61 48.3111 1951.93 51.4303 Q1955.29 54.509 1955.29 60.0587 Q1955.29 66.3781 1950.27 70.0644 Q1945.29 73.7508 1936.54 73.7508 Q1932.89 73.7508 1928.92 73.0216 Q1924.99 72.3329 1920.62 70.9151 L1920.62 63.2184 Q1924.75 65.3654 1928.76 66.4591 Q1932.77 67.5124 1936.7 67.5124 Q1941.96 67.5124 1944.8 65.73 Q1947.64 63.9071 1947.64 60.6258 Q1947.64 57.5877 1945.57 55.9673 Q1943.54 54.3469 1936.62 52.8481 L1934.02 52.2405 Q1927.1 50.7821 1924.02 47.7845 Q1920.94 44.7463 1920.94 39.4801 Q1920.94 33.0797 1925.48 29.5959 Q1930.01 26.1121 1938.36 26.1121 Q1942.49 26.1121 1946.14 26.7198 Q1949.78 27.3274 1952.86 28.5427 Z" fill="#000000" fill-rule="nonzero" fill-opacity="1" /><polyline clip-path="url(#clip551)" style="stroke:#0000ff; stroke-linecap:round; stroke-linejoin:round; stroke-width:8; stroke-opacity:1; fill:none" points="365.264,180.68 377.537,185.377 389.811,189.014 402.084,191.136 414.358,192.803 426.631,194.621 438.904,196.137 451.178,197.197 463.451,219.322 475.725,255.692 487.998,298.881 500.271,349.344 512.545,395.109 524.818,436.025 537.092,482.244 549.365,522.402 561.639,622.722 573.912,778.808 586.185,984.448 598.459,1202.21 610.732,1375.27 623.006,1501.96 635.279,1585.3 647.553,1630.31 659.826,1660.92 672.099,1678.35 684.373,1685.47 696.646,1688.2 708.92,1688.65 721.193,1688.65 733.466,1688.65 745.74,1688.65 758.013,1688.65 770.287,1688.65 782.56,1688.65 794.834,1688.65 807.107,1688.65 819.38,1688.65 831.654,1688.65 843.927,1688.65 856.201,1688.65 868.474,1688.65 880.747,1688.65 893.021,1688.65 905.294,1688.65 917.568,1688.65 929.841,1688.65 942.115,1688.65 954.388,1688.65 966.661,1688.65 978.935,1688.65 991.208,1688.65 1003.48,1688.65 1015.76,1688.65 1028.03,1688.65 1040.3,1688.65 1052.58,1688.65 1064.85,1688.65 1077.12,1688.65 1089.4,1688.65 1101.67,1688.65 1113.94,1688.65 1126.22,1688.65 1138.49,1688.65 1150.76,1688.65 1163.04,1688.65 1175.31,1688.65 1187.58,1688.65 1199.86,1688.65 1212.13,1688.65 1224.4,1688.65 1236.68,1688.65 1248.95,1688.65 1261.22,1688.65 1273.5,1688.65 1285.77,1688.65 1298.04,1688.65 1310.32,1688.65 1322.59,1688.65 1334.86,1688.65 1347.14,1688.65 1359.41,1688.65 1371.68,1688.65 1383.96,1688.65 1396.23,1688.65 1408.5,1688.65 1420.78,1688.65 1433.05,1688.65 1445.32,1688.65 1457.6,1688.65 1469.87,1688.65 1482.15,1688.65 1494.42,1688.65 1506.69,1688.65 1518.97,1688.65 1531.24,1688.65 1543.51,1688.65 1555.79,1688.65 1568.06,1688.65 1580.33,1688.65 1592.61,1688.65 1604.88,1688.65 1617.15,1688.65 1629.43,1688.65 1641.7,1688.65 1653.97,1688.65 1666.25,1688.65 1678.52,1688.65 1690.79,1688.65 1703.07,1688.65 1715.34,1688.65 1727.61,1688.65 1739.89,1688.65 1752.16,1688.65 1764.43,1688.65 1776.71,1688.65 1788.98,1688.65 1801.25,1688.65 1813.53,1688.65 1825.8,1688.65 1838.07,1688.65 1850.35,1688.65 1862.62,1688.65 1874.89,1688.65 1887.17,1688.65 1899.44,1688.65 1911.71,1688.65 1923.99,1688.65 1936.26,1688.65 1948.54,1688.65 1960.81,1688.65 1973.08,1688.65 1985.36,1688.65 1997.63,1688.65 2009.9,1688.65 2022.18,1688.65 2034.45,1688.65 2046.72,1688.65 2059,1688.65 2071.27,1688.65 2083.54,1688.65 2095.82,1688.65 2108.09,1688.65 2120.36,1688.65 2132.64,1688.65 2144.91,1688.65 2157.18,1688.65 2169.46,1688.65 2181.73,1688.65 2194,1688.65 2206.28,1688.65 2218.55,1688.65 2230.82,1688.65 2243.1,1688.65 2255.37,1688.65 2267.64,1688.65 2279.92,1688.65 2292.19,1688.65 2304.46,1688.65 2316.74,1688.65 2329.01,1688.65 2341.28,1688.65 2353.56,1688.65 2365.83,1688.65 2378.1,1688.65 2390.38,1688.65 2402.65,1688.65 2414.92,1688.65 2427.2,1688.65 2439.47,1688.65 2451.75,1688.65 2464.02,1688.65 2476.29,1688.65 2488.57,1688.65 2500.84,1688.65 2513.11,1688.65 2525.39,1688.65 2537.66,1688.65 2549.93,1688.65 2562.21,1688.65 2574.48,1688.65 "/>
<polyline clip-path="url(#clip551)" style="stroke:#ffa500; stroke-linecap:round; stroke-linejoin:round; stroke-width:8; stroke-opacity:1; fill:none" points="365.264,1682.74 377.537,1678.05 389.811,1674.41 402.084,1672.29 414.358,1670.62 426.631,1668.8 438.904,1667.29 451.178,1666.23 463.451,1650.01 475.725,1618.34 487.998,1578.79 500.271,1530.45 512.545,1486.35 524.818,1447.25 537.092,1402.55 549.365,1363.45 561.639,1285.26 573.912,1165.54 586.185,1003.09 598.459,835.787 610.732,708.494 623.006,622.722 635.279,585.595 647.553,580.745 659.826,650.454 672.099,789.113 684.373,987.631 696.646,1202.67 708.92,1375.27 721.193,1501.96 733.466,1585.3 745.74,1630.31 758.013,1660.92 770.287,1678.35 782.56,1685.47 794.834,1688.2 807.107,1688.65 819.38,1688.65 831.654,1688.65 843.927,1688.65 856.201,1688.65 868.474,1688.65 880.747,1688.65 893.021,1688.65 905.294,1688.65 917.568,1688.65 929.841,1688.65 942.115,1688.65 954.388,1688.65 966.661,1688.65 978.935,1688.65 991.208,1688.65 1003.48,1688.65 1015.76,1688.65 1028.03,1688.65 1040.3,1688.65 1052.58,1688.65 1064.85,1688.65 1077.12,1688.65 1089.4,1688.65 1101.67,1688.65 1113.94,1688.65 1126.22,1688.65 1138.49,1688.65 1150.76,1688.65 1163.04,1688.65 1175.31,1688.65 1187.58,1688.65 1199.86,1688.65 1212.13,1688.65 1224.4,1688.65 1236.68,1688.65 1248.95,1688.65 1261.22,1688.65 1273.5,1688.65 1285.77,1688.65 1298.04,1688.65 1310.32,1688.65 1322.59,1688.65 1334.86,1688.65 1347.14,1688.65 1359.41,1688.65 1371.68,1688.65 1383.96,1688.65 1396.23,1688.65 1408.5,1688.65 1420.78,1688.65 1433.05,1688.65 1445.32,1688.65 1457.6,1688.65 1469.87,1688.65 1482.15,1688.65 1494.42,1688.65 1506.69,1688.65 1518.97,1688.65 1531.24,1688.65 1543.51,1688.65 1555.79,1688.65 1568.06,1688.65 1580.33,1688.65 1592.61,1688.65 1604.88,1688.65 1617.15,1688.65 1629.43,1688.65 1641.7,1688.65 1653.97,1688.65 1666.25,1688.65 1678.52,1688.65 1690.79,1688.65 1703.07,1688.65 1715.34,1688.65 1727.61,1688.65 1739.89,1688.65 1752.16,1688.65 1764.43,1688.65 1776.71,1688.65 1788.98,1688.65 1801.25,1688.65 1813.53,1688.65 1825.8,1688.65 1838.07,1688.65 1850.35,1688.65 1862.62,1688.65 1874.89,1688.65 1887.17,1688.65 1899.44,1688.65 1911.71,1688.65 1923.99,1688.65 1936.26,1688.65 1948.54,1688.65 1960.81,1688.65 1973.08,1688.65 1985.36,1688.65 1997.63,1688.65 2009.9,1688.65 2022.18,1688.65 2034.45,1688.65 2046.72,1688.65 2059,1688.65 2071.27,1688.65 2083.54,1688.65 2095.82,1688.65 2108.09,1688.65 2120.36,1688.65 2132.64,1688.65 2144.91,1688.65 2157.18,1688.65 2169.46,1688.65 2181.73,1688.65 2194,1688.65 2206.28,1688.65 2218.55,1688.65 2230.82,1688.65 2243.1,1688.65 2255.37,1688.65 2267.64,1688.65 2279.92,1688.65 2292.19,1688.65 2304.46,1688.65 2316.74,1688.65 2329.01,1688.65 2341.28,1688.65 2353.56,1688.65 2365.83,1688.65 2378.1,1688.65 2390.38,1688.65 2402.65,1688.65 2414.92,1688.65 2427.2,1688.65 2439.47,1688.65 2451.75,1688.65 2464.02,1688.65 2476.29,1688.65 2488.57,1688.65 2500.84,1688.65 2513.11,1688.65 2525.39,1688.65 2537.66,1688.65 2549.93,1688.65 2562.21,1688.65 2574.48,1688.65 "/>
<polyline clip-path="url(#clip551)" style="stroke:#ff0000; stroke-linecap:round; stroke-linejoin:round; stroke-width:8; stroke-opacity:1; fill:none" points="365.264,1687.14 377.537,1687.29 389.811,1687.59 402.084,1687.75 414.358,1688.05 426.631,1688.05 438.904,1688.05 451.178,1688.2 463.451,1682.44 475.725,1678.2 487.998,1675.62 500.271,1674.86 512.545,1674.41 524.818,1673.8 537.092,1673.8 549.365,1674.26 561.639,1652.89 573.912,1619.25 586.185,1582.73 598.459,1540.75 610.732,1505.44 623.006,1480.74 635.279,1454.83 647.553,1437.25 659.826,1359.51 672.099,1237.37 684.373,1070.83 696.646,905.193 708.92,800.327 721.193,749.713 733.466,745.015 745.74,786.082 758.013,837.606 770.287,897.313 782.56,962.778 794.834,1021.12 807.107,1076.28 819.38,1130.99 831.654,1182.81 843.927,1226.31 856.201,1265.71 868.474,1305.11 880.747,1337.69 893.021,1367.09 905.294,1393.45 917.568,1417.85 929.841,1440.89 942.115,1464.83 954.388,1485.89 966.661,1501.5 978.935,1516.66 991.208,1531.2 1003.48,1543.48 1015.76,1555 1028.03,1566.97 1040.3,1576.36 1052.58,1586.06 1064.85,1595.91 1077.12,1606.22 1089.4,1613.49 1101.67,1619.7 1113.94,1626.52 1126.22,1631.37 1138.49,1635.77 1150.76,1640.47 1163.04,1645.62 1175.31,1649.1 1187.58,1652.89 1199.86,1655.77 1212.13,1658.65 1224.4,1661.23 1236.68,1663.65 1248.95,1665.47 1261.22,1666.98 1273.5,1668.65 1285.77,1670.17 1298.04,1671.99 1310.32,1673.8 1322.59,1675.17 1334.86,1676.38 1347.14,1677.74 1359.41,1678.96 1371.68,1679.87 1383.96,1680.62 1396.23,1681.38 1408.5,1681.99 1420.78,1682.9 1433.05,1682.9 1445.32,1683.65 1457.6,1684.11 1469.87,1684.26 1482.15,1684.87 1494.42,1685.17 1506.69,1685.78 1518.97,1685.78 1531.24,1686.08 1543.51,1686.23 1555.79,1686.23 1568.06,1686.68 1580.33,1686.84 1592.61,1687.29 1604.88,1687.44 1617.15,1687.59 1629.43,1687.59 1641.7,1687.59 1653.97,1687.59 1666.25,1687.59 1678.52,1687.59 1690.79,1687.75 1703.07,1688.05 1715.34,1688.05 1727.61,1688.05 1739.89,1688.05 1752.16,1688.2 1764.43,1688.2 1776.71,1688.2 1788.98,1688.2 1801.25,1688.2 1813.53,1688.2 1825.8,1688.2 1838.07,1688.2 1850.35,1688.2 1862.62,1688.2 1874.89,1688.35 1887.17,1688.35 1899.44,1688.35 1911.71,1688.35 1923.99,1688.35 1936.26,1688.35 1948.54,1688.35 1960.81,1688.35 1973.08,1688.35 1985.36,1688.5 1997.63,1688.5 2009.9,1688.5 2022.18,1688.5 2034.45,1688.5 2046.72,1688.65 2059,1688.65 2071.27,1688.65 2083.54,1688.65 2095.82,1688.65 2108.09,1688.65 2120.36,1688.65 2132.64,1688.65 2144.91,1688.65 2157.18,1688.65 2169.46,1688.65 2181.73,1688.65 2194,1688.65 2206.28,1688.65 2218.55,1688.65 2230.82,1688.65 2243.1,1688.65 2255.37,1688.65 2267.64,1688.65 2279.92,1688.65 2292.19,1688.65 2304.46,1688.65 2316.74,1688.65 2329.01,1688.65 2341.28,1688.65 2353.56,1688.65 2365.83,1688.65 2378.1,1688.65 2390.38,1688.65 2402.65,1688.65 2414.92,1688.65 2427.2,1688.65 2439.47,1688.65 2451.75,1688.65 2464.02,1688.65 2476.29,1688.65 2488.57,1688.65 2500.84,1688.65 2513.11,1688.65 2525.39,1688.65 2537.66,1688.65 2549.93,1688.65 2562.21,1688.65 2574.48,1688.65 "/>
<polyline clip-path="url(#clip551)" style="stroke:#008000; stroke-linecap:round; stroke-linejoin:round; stroke-width:8; stroke-opacity:1; fill:none" points="365.264,1688.65 377.537,1688.5 389.811,1688.2 402.084,1688.05 414.358,1687.75 426.631,1687.75 438.904,1687.75 451.178,1687.59 463.451,1687.44 475.725,1686.99 487.998,1685.93 500.271,1684.56 512.545,1683.35 524.818,1682.14 537.092,1680.62 549.365,1679.11 561.639,1678.35 573.912,1675.62 586.185,1668.95 598.459,1660.47 610.732,1650.01 623.006,1633.8 635.279,1613.49 647.553,1590.91 659.826,1568.33 672.099,1534.39 684.373,1495.29 696.646,1443.16 708.92,1374.97 721.193,1298.89 733.466,1220.24 745.74,1134.17 758.013,1052.04 770.287,974.901 782.56,902.313 794.834,841.243 807.107,785.628 819.38,730.922 831.654,679.095 843.927,635.603 856.201,596.203 868.474,556.802 880.747,524.221 893.021,494.822 905.294,468.454 917.568,444.056 929.841,421.022 942.115,397.079 954.388,376.015 966.661,360.406 978.935,345.252 991.208,330.704 1003.48,318.43 1015.76,306.913 1028.03,294.941 1040.3,285.545 1052.58,275.847 1064.85,265.997 1077.12,255.692 1089.4,248.418 1101.67,242.205 1113.94,235.386 1126.22,230.536 1138.49,226.142 1150.76,221.444 1163.04,216.292 1175.31,212.806 1187.58,209.018 1199.86,206.138 1212.13,203.259 1224.4,200.683 1236.68,198.258 1248.95,196.44 1261.22,194.924 1273.5,193.257 1285.77,191.742 1298.04,189.924 1310.32,188.105 1322.59,186.741 1334.86,185.529 1347.14,184.165 1359.41,182.953 1371.68,182.043 1383.96,181.286 1396.23,180.528 1408.5,179.922 1420.78,179.013 1433.05,179.013 1445.32,178.255 1457.6,177.8 1469.87,177.649 1482.15,177.043 1494.42,176.74 1506.69,176.133 1518.97,176.133 1531.24,175.83 1543.51,175.679 1555.79,175.679 1568.06,175.224 1580.33,175.073 1592.61,174.618 1604.88,174.466 1617.15,174.315 1629.43,174.315 1641.7,174.315 1653.97,174.315 1666.25,174.315 1678.52,174.315 1690.79,174.163 1703.07,173.86 1715.34,173.86 1727.61,173.86 1739.89,173.86 1752.16,173.709 1764.43,173.709 1776.71,173.709 1788.98,173.709 1801.25,173.709 1813.53,173.709 1825.8,173.709 1838.07,173.709 1850.35,173.709 1862.62,173.709 1874.89,173.557 1887.17,173.557 1899.44,173.557 1911.71,173.557 1923.99,173.557 1936.26,173.557 1948.54,173.557 1960.81,173.557 1973.08,173.557 1985.36,173.406 1997.63,173.406 2009.9,173.406 2022.18,173.406 2034.45,173.406 2046.72,173.254 2059,173.254 2071.27,173.254 2083.54,173.254 2095.82,173.254 2108.09,173.254 2120.36,173.254 2132.64,173.254 2144.91,173.254 2157.18,173.254 2169.46,173.254 2181.73,173.254 2194,173.254 2206.28,173.254 2218.55,173.254 2230.82,173.254 2243.1,173.254 2255.37,173.254 2267.64,173.254 2279.92,173.254 2292.19,173.254 2304.46,173.254 2316.74,173.254 2329.01,173.254 2341.28,173.254 2353.56,173.254 2365.83,173.254 2378.1,173.254 2390.38,173.254 2402.65,173.254 2414.92,173.254 2427.2,173.254 2439.47,173.254 2451.75,173.254 2464.02,173.254 2476.29,173.254 2488.57,173.254 2500.84,173.254 2513.11,173.254 2525.39,173.254 2537.66,173.254 2549.93,173.254 2562.21,173.254 2574.48,173.254 "/>
<path clip-path="url(#clip550)" d="M377.046 440.536 L879.925 440.536 L879.925 181.336 L377.046 181.336  Z" fill="#ffffff" fill-rule="evenodd" fill-opacity="1"/>
<polyline clip-path="url(#clip550)" style="stroke:#000000; stroke-linecap:round; stroke-linejoin:round; stroke-width:4; stroke-opacity:1; fill:none" points="377.046,440.536 879.925,440.536 879.925,181.336 377.046,181.336 377.046,440.536 "/>
<polyline clip-path="url(#clip550)" style="stroke:#0000ff; stroke-linecap:round; stroke-linejoin:round; stroke-width:8; stroke-opacity:1; fill:none" points="403.066,233.176 559.184,233.176 "/>
<path clip-path="url(#clip550)" d="M607.449 217.031 L607.449 221.591 Q604.787 220.318 602.426 219.693 Q600.065 219.068 597.866 219.068 Q594.046 219.068 591.963 220.549 Q589.903 222.031 589.903 224.762 Q589.903 227.054 591.268 228.234 Q592.657 229.392 596.5 230.109 L599.324 230.688 Q604.555 231.683 607.032 234.206 Q609.532 236.706 609.532 240.919 Q609.532 245.942 606.152 248.535 Q602.796 251.128 596.291 251.128 Q593.838 251.128 591.06 250.572 Q588.305 250.016 585.342 248.929 L585.342 244.114 Q588.19 245.711 590.921 246.521 Q593.653 247.331 596.291 247.331 Q600.296 247.331 602.472 245.757 Q604.648 244.183 604.648 241.267 Q604.648 238.72 603.074 237.285 Q601.523 235.85 597.958 235.132 L595.111 234.577 Q589.879 233.535 587.541 231.313 Q585.204 229.091 585.204 225.132 Q585.204 220.549 588.421 217.91 Q591.662 215.271 597.333 215.271 Q599.764 215.271 602.287 215.711 Q604.81 216.151 607.449 217.031 Z" fill="#000000" fill-rule="nonzero" fill-opacity="1" /><path clip-path="url(#clip550)" d="M616.199 240.225 L616.199 224.531 L620.458 224.531 L620.458 240.063 Q620.458 243.743 621.893 245.595 Q623.328 247.424 626.199 247.424 Q629.648 247.424 631.638 245.225 Q633.652 243.026 633.652 239.229 L633.652 224.531 L637.912 224.531 L637.912 250.456 L633.652 250.456 L633.652 246.475 Q632.101 248.836 630.041 249.993 Q628.004 251.128 625.296 251.128 Q620.828 251.128 618.514 248.35 Q616.199 245.572 616.199 240.225 M626.916 223.906 L626.916 223.906 Z" fill="#000000" fill-rule="nonzero" fill-opacity="1" /><path clip-path="url(#clip550)" d="M663.212 225.294 L663.212 229.322 Q661.407 228.396 659.462 227.933 Q657.518 227.47 655.435 227.47 Q652.263 227.47 650.666 228.443 Q649.092 229.415 649.092 231.359 Q649.092 232.841 650.226 233.697 Q651.361 234.53 654.786 235.294 L656.245 235.618 Q660.782 236.591 662.68 238.373 Q664.601 240.132 664.601 243.304 Q664.601 246.915 661.731 249.021 Q658.884 251.128 653.884 251.128 Q651.8 251.128 649.532 250.711 Q647.287 250.317 644.787 249.507 L644.787 245.109 Q647.148 246.336 649.439 246.961 Q651.731 247.563 653.976 247.563 Q656.986 247.563 658.606 246.544 Q660.226 245.503 660.226 243.628 Q660.226 241.892 659.046 240.966 Q657.888 240.04 653.93 239.183 L652.449 238.836 Q648.49 238.003 646.731 236.29 Q644.972 234.554 644.972 231.544 Q644.972 227.887 647.564 225.896 Q650.157 223.906 654.925 223.906 Q657.286 223.906 659.37 224.253 Q661.453 224.6 663.212 225.294 Z" fill="#000000" fill-rule="nonzero" fill-opacity="1" /><path clip-path="url(#clip550)" d="M690.041 225.526 L690.041 229.507 Q688.235 228.512 686.407 228.026 Q684.601 227.517 682.749 227.517 Q678.606 227.517 676.314 230.155 Q674.023 232.771 674.023 237.517 Q674.023 242.262 676.314 244.901 Q678.606 247.516 682.749 247.516 Q684.601 247.516 686.407 247.03 Q688.235 246.521 690.041 245.526 L690.041 249.461 Q688.259 250.294 686.337 250.711 Q684.439 251.128 682.286 251.128 Q676.43 251.128 672.981 247.447 Q669.532 243.767 669.532 237.517 Q669.532 231.174 673.004 227.54 Q676.499 223.906 682.564 223.906 Q684.532 223.906 686.407 224.322 Q688.282 224.716 690.041 225.526 Z" fill="#000000" fill-rule="nonzero" fill-opacity="1" /><path clip-path="url(#clip550)" d="M719.624 236.429 L719.624 238.512 L700.041 238.512 Q700.319 242.91 702.68 245.225 Q705.064 247.516 709.3 247.516 Q711.754 247.516 714.045 246.915 Q716.36 246.313 718.629 245.109 L718.629 249.137 Q716.337 250.109 713.93 250.618 Q711.522 251.128 709.045 251.128 Q702.842 251.128 699.208 247.516 Q695.596 243.905 695.596 237.748 Q695.596 231.382 699.022 227.655 Q702.471 223.906 708.305 223.906 Q713.536 223.906 716.569 227.285 Q719.624 230.642 719.624 236.429 M715.365 235.179 Q715.319 231.683 713.397 229.6 Q711.499 227.517 708.351 227.517 Q704.786 227.517 702.633 229.53 Q700.504 231.544 700.18 235.202 L715.365 235.179 Z" fill="#000000" fill-rule="nonzero" fill-opacity="1" /><path clip-path="url(#clip550)" d="M730.735 246.567 L730.735 260.317 L726.453 260.317 L726.453 224.531 L730.735 224.531 L730.735 228.466 Q732.078 226.151 734.115 225.04 Q736.175 223.906 739.022 223.906 Q743.744 223.906 746.684 227.655 Q749.647 231.405 749.647 237.517 Q749.647 243.628 746.684 247.378 Q743.744 251.128 739.022 251.128 Q736.175 251.128 734.115 250.016 Q732.078 248.882 730.735 246.567 M745.226 237.517 Q745.226 232.817 743.281 230.155 Q741.36 227.47 737.98 227.47 Q734.601 227.47 732.656 230.155 Q730.735 232.817 730.735 237.517 Q730.735 242.216 732.656 244.901 Q734.601 247.563 737.98 247.563 Q741.36 247.563 743.281 244.901 Q745.226 242.216 745.226 237.517 Z" fill="#000000" fill-rule="nonzero" fill-opacity="1" /><path clip-path="url(#clip550)" d="M760.92 217.169 L760.92 224.531 L769.693 224.531 L769.693 227.841 L760.92 227.841 L760.92 241.915 Q760.92 245.086 761.777 245.989 Q762.656 246.891 765.318 246.891 L769.693 246.891 L769.693 250.456 L765.318 250.456 Q760.388 250.456 758.513 248.628 Q756.638 246.776 756.638 241.915 L756.638 227.841 L753.513 227.841 L753.513 224.531 L756.638 224.531 L756.638 217.169 L760.92 217.169 Z" fill="#000000" fill-rule="nonzero" fill-opacity="1" /><path clip-path="url(#clip550)" d="M775.295 224.531 L779.554 224.531 L779.554 250.456 L775.295 250.456 L775.295 224.531 M775.295 214.438 L779.554 214.438 L779.554 219.831 L775.295 219.831 L775.295 214.438 Z" fill="#000000" fill-rule="nonzero" fill-opacity="1" /><path clip-path="url(#clip550)" d="M807.077 237.517 Q807.077 232.817 805.133 230.155 Q803.212 227.47 799.832 227.47 Q796.452 227.47 794.508 230.155 Q792.587 232.817 792.587 237.517 Q792.587 242.216 794.508 244.901 Q796.452 247.563 799.832 247.563 Q803.212 247.563 805.133 244.901 Q807.077 242.216 807.077 237.517 M792.587 228.466 Q793.929 226.151 795.966 225.04 Q798.026 223.906 800.874 223.906 Q805.596 223.906 808.536 227.655 Q811.499 231.405 811.499 237.517 Q811.499 243.628 808.536 247.378 Q805.596 251.128 800.874 251.128 Q798.026 251.128 795.966 250.016 Q793.929 248.882 792.587 246.567 L792.587 250.456 L788.304 250.456 L788.304 214.438 L792.587 214.438 L792.587 228.466 Z" fill="#000000" fill-rule="nonzero" fill-opacity="1" /><path clip-path="url(#clip550)" d="M818.559 214.438 L822.818 214.438 L822.818 250.456 L818.559 250.456 L818.559 214.438 Z" fill="#000000" fill-rule="nonzero" fill-opacity="1" /><path clip-path="url(#clip550)" d="M853.906 236.429 L853.906 238.512 L834.323 238.512 Q834.6 242.91 836.961 245.225 Q839.346 247.516 843.582 247.516 Q846.035 247.516 848.327 246.915 Q850.642 246.313 852.91 245.109 L852.91 249.137 Q850.619 250.109 848.211 250.618 Q845.804 251.128 843.327 251.128 Q837.123 251.128 833.489 247.516 Q829.878 243.905 829.878 237.748 Q829.878 231.382 833.304 227.655 Q836.753 223.906 842.586 223.906 Q847.818 223.906 850.85 227.285 Q853.906 230.642 853.906 236.429 M849.647 235.179 Q849.6 231.683 847.679 229.6 Q845.781 227.517 842.633 227.517 Q839.068 227.517 836.915 229.53 Q834.786 231.544 834.461 235.202 L849.647 235.179 Z" fill="#000000" fill-rule="nonzero" fill-opacity="1" /><polyline clip-path="url(#clip550)" style="stroke:#ffa500; stroke-linecap:round; stroke-linejoin:round; stroke-width:8; stroke-opacity:1; fill:none" points="403.066,285.016 559.184,285.016 "/>
<path clip-path="url(#clip550)" d="M585.204 267.736 L607.055 267.736 L607.055 271.671 L589.879 271.671 L589.879 281.903 L606.338 281.903 L606.338 285.838 L589.879 285.838 L589.879 298.361 L607.472 298.361 L607.472 302.296 L585.204 302.296 L585.204 267.736 Z" fill="#000000" fill-rule="nonzero" fill-opacity="1" /><path clip-path="url(#clip550)" d="M636.523 276.371 L627.148 288.986 L637.009 302.296 L631.986 302.296 L624.439 292.111 L616.893 302.296 L611.87 302.296 L621.939 288.732 L612.727 276.371 L617.75 276.371 L624.625 285.607 L631.5 276.371 L636.523 276.371 Z" fill="#000000" fill-rule="nonzero" fill-opacity="1" /><path clip-path="url(#clip550)" d="M647.148 298.407 L647.148 312.157 L642.865 312.157 L642.865 276.371 L647.148 276.371 L647.148 280.306 Q648.49 277.991 650.527 276.88 Q652.587 275.746 655.435 275.746 Q660.157 275.746 663.097 279.495 Q666.06 283.245 666.06 289.357 Q666.06 295.468 663.097 299.218 Q660.157 302.968 655.435 302.968 Q652.587 302.968 650.527 301.856 Q648.49 300.722 647.148 298.407 M661.638 289.357 Q661.638 284.657 659.694 281.995 Q657.773 279.31 654.393 279.31 Q651.013 279.31 649.069 281.995 Q647.148 284.657 647.148 289.357 Q647.148 294.056 649.069 296.741 Q651.013 299.403 654.393 299.403 Q657.773 299.403 659.694 296.741 Q661.638 294.056 661.638 289.357 Z" fill="#000000" fill-rule="nonzero" fill-opacity="1" /><path clip-path="url(#clip550)" d="M683.166 279.357 Q679.74 279.357 677.749 282.042 Q675.759 284.704 675.759 289.357 Q675.759 294.009 677.726 296.694 Q679.717 299.356 683.166 299.356 Q686.569 299.356 688.559 296.671 Q690.55 293.986 690.55 289.357 Q690.55 284.75 688.559 282.065 Q686.569 279.357 683.166 279.357 M683.166 275.746 Q688.722 275.746 691.893 279.357 Q695.064 282.968 695.064 289.357 Q695.064 295.722 691.893 299.356 Q688.722 302.968 683.166 302.968 Q677.587 302.968 674.416 299.356 Q671.268 295.722 671.268 289.357 Q671.268 282.968 674.416 279.357 Q677.587 275.746 683.166 275.746 Z" fill="#000000" fill-rule="nonzero" fill-opacity="1" /><path clip-path="url(#clip550)" d="M718.652 277.134 L718.652 281.162 Q716.846 280.236 714.902 279.773 Q712.957 279.31 710.874 279.31 Q707.703 279.31 706.106 280.283 Q704.532 281.255 704.532 283.199 Q704.532 284.681 705.666 285.537 Q706.8 286.37 710.226 287.134 L711.684 287.458 Q716.221 288.431 718.119 290.213 Q720.041 291.972 720.041 295.144 Q720.041 298.755 717.17 300.861 Q714.323 302.968 709.323 302.968 Q707.24 302.968 704.971 302.551 Q702.726 302.157 700.226 301.347 L700.226 296.949 Q702.587 298.176 704.879 298.801 Q707.17 299.403 709.416 299.403 Q712.425 299.403 714.045 298.384 Q715.666 297.343 715.666 295.468 Q715.666 293.732 714.485 292.806 Q713.328 291.88 709.37 291.023 L707.888 290.676 Q703.93 289.843 702.171 288.13 Q700.411 286.394 700.411 283.384 Q700.411 279.727 703.004 277.736 Q705.596 275.746 710.365 275.746 Q712.726 275.746 714.809 276.093 Q716.893 276.44 718.652 277.134 Z" fill="#000000" fill-rule="nonzero" fill-opacity="1" /><path clip-path="url(#clip550)" d="M748.999 288.269 L748.999 290.352 L729.416 290.352 Q729.694 294.75 732.055 297.065 Q734.439 299.356 738.675 299.356 Q741.129 299.356 743.42 298.755 Q745.735 298.153 748.004 296.949 L748.004 300.977 Q745.712 301.949 743.305 302.458 Q740.897 302.968 738.42 302.968 Q732.217 302.968 728.582 299.356 Q724.971 295.745 724.971 289.588 Q724.971 283.222 728.397 279.495 Q731.846 275.746 737.68 275.746 Q742.911 275.746 745.943 279.125 Q748.999 282.482 748.999 288.269 M744.74 287.019 Q744.693 283.523 742.772 281.44 Q740.874 279.357 737.726 279.357 Q734.161 279.357 732.008 281.37 Q729.879 283.384 729.555 287.042 L744.74 287.019 Z" fill="#000000" fill-rule="nonzero" fill-opacity="1" /><path clip-path="url(#clip550)" d="M773.05 280.306 L773.05 266.278 L777.309 266.278 L777.309 302.296 L773.05 302.296 L773.05 298.407 Q771.707 300.722 769.647 301.856 Q767.61 302.968 764.74 302.968 Q760.041 302.968 757.078 299.218 Q754.138 295.468 754.138 289.357 Q754.138 283.245 757.078 279.495 Q760.041 275.746 764.74 275.746 Q767.61 275.746 769.647 276.88 Q771.707 277.991 773.05 280.306 M758.536 289.357 Q758.536 294.056 760.457 296.741 Q762.402 299.403 765.781 299.403 Q769.161 299.403 771.105 296.741 Q773.05 294.056 773.05 289.357 Q773.05 284.657 771.105 281.995 Q769.161 279.31 765.781 279.31 Q762.402 279.31 760.457 281.995 Q758.536 284.657 758.536 289.357 Z" fill="#000000" fill-rule="nonzero" fill-opacity="1" /><polyline clip-path="url(#clip550)" style="stroke:#ff0000; stroke-linecap:round; stroke-linejoin:round; stroke-width:8; stroke-opacity:1; fill:none" points="403.066,336.856 559.184,336.856 "/>
<path clip-path="url(#clip550)" d="M585.204 319.576 L589.879 319.576 L589.879 354.136 L585.204 354.136 L585.204 319.576 Z" fill="#000000" fill-rule="nonzero" fill-opacity="1" /><path clip-path="url(#clip550)" d="M620.551 338.488 L620.551 354.136 L616.291 354.136 L616.291 338.627 Q616.291 334.947 614.856 333.118 Q613.421 331.289 610.551 331.289 Q607.102 331.289 605.111 333.488 Q603.12 335.687 603.12 339.484 L603.12 354.136 L598.838 354.136 L598.838 328.211 L603.12 328.211 L603.12 332.238 Q604.648 329.9 606.708 328.743 Q608.791 327.586 611.5 327.586 Q615.967 327.586 618.259 330.363 Q620.551 333.118 620.551 338.488 Z" fill="#000000" fill-rule="nonzero" fill-opacity="1" /><path clip-path="url(#clip550)" d="M642.171 318.118 L642.171 321.66 L638.097 321.66 Q635.805 321.66 634.902 322.586 Q634.023 323.511 634.023 325.919 L634.023 328.211 L641.037 328.211 L641.037 331.521 L634.023 331.521 L634.023 354.136 L629.74 354.136 L629.74 331.521 L625.666 331.521 L625.666 328.211 L629.74 328.211 L629.74 326.405 Q629.74 322.076 631.754 320.109 Q633.768 318.118 638.143 318.118 L642.171 318.118 Z" fill="#000000" fill-rule="nonzero" fill-opacity="1" /><path clip-path="url(#clip550)" d="M667.911 340.109 L667.911 342.192 L648.328 342.192 Q648.606 346.59 650.967 348.905 Q653.351 351.196 657.587 351.196 Q660.041 351.196 662.333 350.595 Q664.648 349.993 666.916 348.789 L666.916 352.817 Q664.624 353.789 662.217 354.298 Q659.81 354.808 657.333 354.808 Q651.129 354.808 647.495 351.196 Q643.884 347.585 643.884 341.428 Q643.884 335.062 647.31 331.335 Q650.759 327.586 656.592 327.586 Q661.823 327.586 664.856 330.965 Q667.911 334.322 667.911 340.109 M663.652 338.859 Q663.606 335.363 661.685 333.28 Q659.786 331.197 656.638 331.197 Q653.074 331.197 650.921 333.21 Q648.791 335.224 648.467 338.882 L663.652 338.859 Z" fill="#000000" fill-rule="nonzero" fill-opacity="1" /><path clip-path="url(#clip550)" d="M693.559 329.206 L693.559 333.187 Q691.754 332.192 689.925 331.706 Q688.12 331.197 686.268 331.197 Q682.124 331.197 679.833 333.835 Q677.541 336.451 677.541 341.197 Q677.541 345.942 679.833 348.581 Q682.124 351.196 686.268 351.196 Q688.12 351.196 689.925 350.71 Q691.754 350.201 693.559 349.206 L693.559 353.141 Q691.777 353.974 689.856 354.391 Q687.958 354.808 685.805 354.808 Q679.948 354.808 676.499 351.127 Q673.05 347.447 673.05 341.197 Q673.05 334.854 676.522 331.22 Q680.018 327.586 686.083 327.586 Q688.05 327.586 689.925 328.002 Q691.8 328.396 693.559 329.206 Z" fill="#000000" fill-rule="nonzero" fill-opacity="1" /><path clip-path="url(#clip550)" d="M705.18 320.849 L705.18 328.211 L713.953 328.211 L713.953 331.521 L705.18 331.521 L705.18 345.595 Q705.18 348.766 706.036 349.669 Q706.916 350.571 709.578 350.571 L713.953 350.571 L713.953 354.136 L709.578 354.136 Q704.647 354.136 702.772 352.308 Q700.897 350.456 700.897 345.595 L700.897 331.521 L697.772 331.521 L697.772 328.211 L700.897 328.211 L700.897 320.849 L705.18 320.849 Z" fill="#000000" fill-rule="nonzero" fill-opacity="1" /><path clip-path="url(#clip550)" d="M719.555 328.211 L723.814 328.211 L723.814 354.136 L719.555 354.136 L719.555 328.211 M719.555 318.118 L723.814 318.118 L723.814 323.511 L719.555 323.511 L719.555 318.118 Z" fill="#000000" fill-rule="nonzero" fill-opacity="1" /><path clip-path="url(#clip550)" d="M742.772 331.197 Q739.346 331.197 737.355 333.882 Q735.365 336.544 735.365 341.197 Q735.365 345.849 737.332 348.534 Q739.323 351.196 742.772 351.196 Q746.175 351.196 748.166 348.511 Q750.156 345.826 750.156 341.197 Q750.156 336.59 748.166 333.905 Q746.175 331.197 742.772 331.197 M742.772 327.586 Q748.328 327.586 751.499 331.197 Q754.67 334.808 754.67 341.197 Q754.67 347.562 751.499 351.196 Q748.328 354.808 742.772 354.808 Q737.193 354.808 734.022 351.196 Q730.874 347.562 730.874 341.197 Q730.874 334.808 734.022 331.197 Q737.193 327.586 742.772 327.586 Z" fill="#000000" fill-rule="nonzero" fill-opacity="1" /><path clip-path="url(#clip550)" d="M761.291 343.905 L761.291 328.211 L765.55 328.211 L765.55 343.743 Q765.55 347.423 766.985 349.275 Q768.42 351.104 771.291 351.104 Q774.74 351.104 776.73 348.905 Q778.744 346.706 778.744 342.909 L778.744 328.211 L783.003 328.211 L783.003 354.136 L778.744 354.136 L778.744 350.155 Q777.193 352.516 775.133 353.673 Q773.096 354.808 770.388 354.808 Q765.92 354.808 763.605 352.03 Q761.291 349.252 761.291 343.905 M772.008 327.586 L772.008 327.586 Z" fill="#000000" fill-rule="nonzero" fill-opacity="1" /><path clip-path="url(#clip550)" d="M808.304 328.974 L808.304 333.002 Q806.499 332.076 804.554 331.613 Q802.61 331.15 800.526 331.15 Q797.355 331.15 795.758 332.123 Q794.184 333.095 794.184 335.039 Q794.184 336.521 795.318 337.377 Q796.452 338.21 799.878 338.974 L801.337 339.298 Q805.874 340.271 807.772 342.053 Q809.693 343.812 809.693 346.984 Q809.693 350.595 806.823 352.701 Q803.976 354.808 798.976 354.808 Q796.892 354.808 794.624 354.391 Q792.378 353.997 789.878 353.187 L789.878 348.789 Q792.239 350.016 794.531 350.641 Q796.823 351.243 799.068 351.243 Q802.077 351.243 803.698 350.224 Q805.318 349.183 805.318 347.308 Q805.318 345.572 804.138 344.646 Q802.98 343.72 799.022 342.863 L797.54 342.516 Q793.582 341.683 791.823 339.97 Q790.064 338.234 790.064 335.224 Q790.064 331.567 792.656 329.576 Q795.249 327.586 800.017 327.586 Q802.378 327.586 804.462 327.933 Q806.545 328.28 808.304 328.974 Z" fill="#000000" fill-rule="nonzero" fill-opacity="1" /><polyline clip-path="url(#clip550)" style="stroke:#008000; stroke-linecap:round; stroke-linejoin:round; stroke-width:8; stroke-opacity:1; fill:none" points="403.066,388.696 559.184,388.696 "/>
<path clip-path="url(#clip550)" d="M601.592 389.773 Q603.097 390.282 604.509 391.949 Q605.944 393.615 607.379 396.532 L612.125 405.976 L607.102 405.976 L602.68 397.111 Q600.967 393.638 599.347 392.504 Q597.75 391.37 594.972 391.37 L589.879 391.37 L589.879 405.976 L585.204 405.976 L585.204 371.416 L595.759 371.416 Q601.685 371.416 604.602 373.893 Q607.518 376.37 607.518 381.37 Q607.518 384.634 605.99 386.787 Q604.486 388.939 601.592 389.773 M589.879 375.259 L589.879 387.527 L595.759 387.527 Q599.139 387.527 600.852 385.976 Q602.588 384.402 602.588 381.37 Q602.588 378.338 600.852 376.81 Q599.139 375.259 595.759 375.259 L589.879 375.259 Z" fill="#000000" fill-rule="nonzero" fill-opacity="1" /><path clip-path="url(#clip550)" d="M638.004 391.949 L638.004 394.032 L618.421 394.032 Q618.699 398.43 621.06 400.745 Q623.444 403.036 627.68 403.036 Q630.134 403.036 632.426 402.435 Q634.74 401.833 637.009 400.629 L637.009 404.657 Q634.717 405.629 632.31 406.138 Q629.902 406.648 627.426 406.648 Q621.222 406.648 617.588 403.036 Q613.977 399.425 613.977 393.268 Q613.977 386.902 617.402 383.175 Q620.851 379.426 626.685 379.426 Q631.916 379.426 634.949 382.805 Q638.004 386.162 638.004 391.949 M633.745 390.699 Q633.699 387.203 631.777 385.12 Q629.879 383.037 626.731 383.037 Q623.166 383.037 621.014 385.05 Q618.884 387.064 618.56 390.722 L633.745 390.699 Z" fill="#000000" fill-rule="nonzero" fill-opacity="1" /><path clip-path="url(#clip550)" d="M663.652 381.046 L663.652 385.027 Q661.847 384.032 660.018 383.546 Q658.212 383.037 656.361 383.037 Q652.217 383.037 649.925 385.675 Q647.634 388.291 647.634 393.037 Q647.634 397.782 649.925 400.421 Q652.217 403.036 656.361 403.036 Q658.212 403.036 660.018 402.55 Q661.847 402.041 663.652 401.046 L663.652 404.981 Q661.87 405.814 659.949 406.231 Q658.05 406.648 655.898 406.648 Q650.041 406.648 646.592 402.967 Q643.143 399.287 643.143 393.037 Q643.143 386.694 646.615 383.06 Q650.111 379.426 656.175 379.426 Q658.143 379.426 660.018 379.842 Q661.893 380.236 663.652 381.046 Z" fill="#000000" fill-rule="nonzero" fill-opacity="1" /><path clip-path="url(#clip550)" d="M681.106 383.037 Q677.68 383.037 675.689 385.722 Q673.698 388.384 673.698 393.037 Q673.698 397.689 675.666 400.374 Q677.657 403.036 681.106 403.036 Q684.509 403.036 686.499 400.351 Q688.49 397.666 688.49 393.037 Q688.49 388.43 686.499 385.745 Q684.509 383.037 681.106 383.037 M681.106 379.426 Q686.661 379.426 689.833 383.037 Q693.004 386.648 693.004 393.037 Q693.004 399.402 689.833 403.036 Q686.661 406.648 681.106 406.648 Q675.527 406.648 672.356 403.036 Q669.208 399.402 669.208 393.037 Q669.208 386.648 672.356 383.037 Q675.527 379.426 681.106 379.426 Z" fill="#000000" fill-rule="nonzero" fill-opacity="1" /><path clip-path="url(#clip550)" d="M697.008 380.051 L701.522 380.051 L709.624 401.81 L717.726 380.051 L722.24 380.051 L712.518 405.976 L706.731 405.976 L697.008 380.051 Z" fill="#000000" fill-rule="nonzero" fill-opacity="1" /><path clip-path="url(#clip550)" d="M750.295 391.949 L750.295 394.032 L730.712 394.032 Q730.99 398.43 733.351 400.745 Q735.735 403.036 739.971 403.036 Q742.425 403.036 744.717 402.435 Q747.031 401.833 749.3 400.629 L749.3 404.657 Q747.008 405.629 744.601 406.138 Q742.193 406.648 739.717 406.648 Q733.513 406.648 729.879 403.036 Q726.268 399.425 726.268 393.268 Q726.268 386.902 729.694 383.175 Q733.143 379.426 738.976 379.426 Q744.207 379.426 747.24 382.805 Q750.295 386.162 750.295 391.949 M746.036 390.699 Q745.99 387.203 744.068 385.12 Q742.17 383.037 739.022 383.037 Q735.457 383.037 733.305 385.05 Q731.175 387.064 730.851 390.722 L746.036 390.699 Z" fill="#000000" fill-rule="nonzero" fill-opacity="1" /><path clip-path="url(#clip550)" d="M772.309 384.032 Q771.591 383.615 770.735 383.43 Q769.902 383.222 768.883 383.222 Q765.272 383.222 763.328 385.583 Q761.406 387.921 761.406 392.319 L761.406 405.976 L757.124 405.976 L757.124 380.051 L761.406 380.051 L761.406 384.078 Q762.749 381.717 764.902 380.583 Q767.054 379.426 770.133 379.426 Q770.573 379.426 771.105 379.495 Q771.638 379.541 772.286 379.657 L772.309 384.032 Z" fill="#000000" fill-rule="nonzero" fill-opacity="1" /><path clip-path="url(#clip550)" d="M797.911 391.949 L797.911 394.032 L778.328 394.032 Q778.605 398.43 780.966 400.745 Q783.351 403.036 787.587 403.036 Q790.04 403.036 792.332 402.435 Q794.647 401.833 796.915 400.629 L796.915 404.657 Q794.624 405.629 792.216 406.138 Q789.809 406.648 787.332 406.648 Q781.128 406.648 777.494 403.036 Q773.883 399.425 773.883 393.268 Q773.883 386.902 777.309 383.175 Q780.758 379.426 786.591 379.426 Q791.823 379.426 794.855 382.805 Q797.911 386.162 797.911 391.949 M793.651 390.699 Q793.605 387.203 791.684 385.12 Q789.786 383.037 786.638 383.037 Q783.073 383.037 780.92 385.05 Q778.79 387.064 778.466 390.722 L793.651 390.699 Z" fill="#000000" fill-rule="nonzero" fill-opacity="1" /><path clip-path="url(#clip550)" d="M821.962 383.986 L821.962 369.958 L826.221 369.958 L826.221 405.976 L821.962 405.976 L821.962 402.087 Q820.619 404.402 818.559 405.536 Q816.522 406.648 813.651 406.648 Q808.952 406.648 805.989 402.898 Q803.05 399.148 803.05 393.037 Q803.05 386.925 805.989 383.175 Q808.952 379.426 813.651 379.426 Q816.522 379.426 818.559 380.56 Q820.619 381.671 821.962 383.986 M807.448 393.037 Q807.448 397.736 809.369 400.421 Q811.313 403.083 814.693 403.083 Q818.073 403.083 820.017 400.421 Q821.962 397.736 821.962 393.037 Q821.962 388.337 820.017 385.675 Q818.073 382.99 814.693 382.99 Q811.313 382.99 809.369 385.675 Q807.448 388.337 807.448 393.037 Z" fill="#000000" fill-rule="nonzero" fill-opacity="1" /></svg>
