<?xml version="1.0" encoding="utf-8"?>
<svg xmlns="http://www.w3.org/2000/svg" xmlns:xlink="http://www.w3.org/1999/xlink" width="672" height="480" viewBox="0 0 2688 1920">
<defs>
  <clipPath id="clip580">
    <rect x="0" y="0" width="2688" height="1920"/>
  </clipPath>
</defs>
<path clip-path="url(#clip580)" d="M0 1920 L2688 1920 L2688 -4.26326e-14 L0 -4.26326e-14  Z" fill="#ffffff" fill-rule="evenodd" fill-opacity="1"/>
<defs>
  <clipPath id="clip581">
    <rect x="271" y="127" width="2370" height="1607"/>
  </clipPath>
</defs>
<path clip-path="url(#clip580)" d="M271.719 1734.12 L2640.76 1734.12 L2640.76 127.792 L271.719 127.792  Z" fill="#ffffff" fill-rule="evenodd" fill-opacity="1"/>
<polyline clip-path="url(#clip581)" style="stroke:#000000; stroke-linecap:round; stroke-linejoin:round; stroke-width:2; stroke-opacity:0.1; fill:none" points="338.767,1734.12 338.767,127.792 "/>
<polyline clip-path="url(#clip581)" style="stroke:#000000; stroke-linecap:round; stroke-linejoin:round; stroke-width:2; stroke-opacity:0.1; fill:none" points="959.584,1734.12 959.584,127.792 "/>
<polyline clip-path="url(#clip581)" style="stroke:#000000; stroke-linecap:round; stroke-linejoin:round; stroke-width:2; stroke-opacity:0.1; fill:none" points="1580.4,1734.12 1580.4,127.792 "/>
<polyline clip-path="url(#clip581)" style="stroke:#000000; stroke-linecap:round; stroke-linejoin:round; stroke-width:2; stroke-opacity:0.1; fill:none" points="2201.22,1734.12 2201.22,127.792 "/>
<polyline clip-path="url(#clip581)" style="stroke:#000000; stroke-linecap:round; stroke-linejoin:round; stroke-width:2; stroke-opacity:0.1; fill:none" points="271.719,1688.65 2640.76,1688.65 "/>
<polyline clip-path="url(#clip581)" style="stroke:#000000; stroke-linecap:round; stroke-linejoin:round; stroke-width:2; stroke-opacity:0.1; fill:none" points="271.719,1361.43 2640.76,1361.43 "/>
<polyline clip-path="url(#clip581)" style="stroke:#000000; stroke-linecap:round; stroke-linejoin:round; stroke-width:2; stroke-opacity:0.1; fill:none" points="271.719,1034.2 2640.76,1034.2 "/>
<polyline clip-path="url(#clip581)" style="stroke:#000000; stroke-linecap:round; stroke-linejoin:round; stroke-width:2; stroke-opacity:0.1; fill:none" points="271.719,706.966 2640.76,706.966 "/>
<polyline clip-path="url(#clip581)" style="stroke:#000000; stroke-linecap:round; stroke-linejoin:round; stroke-width:2; stroke-opacity:0.1; fill:none" points="271.719,379.736 2640.76,379.736 "/>
<polyline clip-path="url(#clip580)" style="stroke:#000000; stroke-linecap:round; stroke-linejoin:round; stroke-width:4; stroke-opacity:1; fill:none" points="271.719,1734.12 2640.76,1734.12 "/>
<polyline clip-path="url(#clip580)" style="stroke:#000000; stroke-linecap:round; stroke-linejoin:round; stroke-width:4; stroke-opacity:1; fill:none" points="338.767,1734.12 338.767,1715.22 "/>
<polyline clip-path="url(#clip580)" style="stroke:#000000; stroke-linecap:round; stroke-linejoin:round; stroke-width:4; stroke-opacity:1; fill:none" points="959.584,1734.12 959.584,1715.22 "/>
<polyline clip-path="url(#clip580)" style="stroke:#000000; stroke-linecap:round; stroke-linejoin:round; stroke-width:4; stroke-opacity:1; fill:none" points="1580.4,1734.12 1580.4,1715.22 "/>
<polyline clip-path="url(#clip580)" style="stroke:#000000; stroke-linecap:round; stroke-linejoin:round; stroke-width:4; stroke-opacity:1; fill:none" points="2201.22,1734.12 2201.22,1715.22 "/>
<path clip-path="url(#clip580)" d="M338.767 1767.34 Q335.156 1767.34 333.327 1770.9 Q331.522 1774.45 331.522 1781.58 Q331.522 1788.68 333.327 1792.25 Q335.156 1795.79 338.767 1795.79 Q342.401 1795.79 344.207 1792.25 Q346.036 1788.68 346.036 1781.58 Q346.036 1774.45 344.207 1770.9 Q342.401 1767.34 338.767 1767.34 M338.767 1763.64 Q344.577 1763.64 347.633 1768.24 Q350.712 1772.83 350.712 1781.58 Q350.712 1790.3 347.633 1794.91 Q344.577 1799.49 338.767 1799.49 Q332.957 1799.49 329.878 1794.91 Q326.823 1790.3 326.823 1781.58 Q326.823 1772.83 329.878 1768.24 Q332.957 1763.64 338.767 1763.64 Z" fill="#000000" fill-rule="nonzero" fill-opacity="1" /><path clip-path="url(#clip580)" d="M934.283 1764.26 L952.64 1764.26 L952.64 1768.2 L938.566 1768.2 L938.566 1776.67 Q939.584 1776.32 940.603 1776.16 Q941.621 1775.97 942.64 1775.97 Q948.427 1775.97 951.806 1779.15 Q955.186 1782.32 955.186 1787.73 Q955.186 1793.31 951.714 1796.41 Q948.241 1799.49 941.922 1799.49 Q939.746 1799.49 937.478 1799.12 Q935.232 1798.75 932.825 1798.01 L932.825 1793.31 Q934.908 1794.45 937.13 1795 Q939.353 1795.56 941.829 1795.56 Q945.834 1795.56 948.172 1793.45 Q950.51 1791.34 950.51 1787.73 Q950.51 1784.12 948.172 1782.02 Q945.834 1779.91 941.829 1779.91 Q939.954 1779.91 938.08 1780.33 Q936.228 1780.74 934.283 1781.62 L934.283 1764.26 Z" fill="#000000" fill-rule="nonzero" fill-opacity="1" /><path clip-path="url(#clip580)" d="M974.399 1767.34 Q970.788 1767.34 968.959 1770.9 Q967.153 1774.45 967.153 1781.58 Q967.153 1788.68 968.959 1792.25 Q970.788 1795.79 974.399 1795.79 Q978.033 1795.79 979.839 1792.25 Q981.667 1788.68 981.667 1781.58 Q981.667 1774.45 979.839 1770.9 Q978.033 1767.34 974.399 1767.34 M974.399 1763.64 Q980.209 1763.64 983.264 1768.24 Q986.343 1772.83 986.343 1781.58 Q986.343 1790.3 983.264 1794.91 Q980.209 1799.49 974.399 1799.49 Q968.589 1799.49 965.51 1794.91 Q962.454 1790.3 962.454 1781.58 Q962.454 1772.83 965.51 1768.24 Q968.589 1763.64 974.399 1763.64 Z" fill="#000000" fill-rule="nonzero" fill-opacity="1" /><path clip-path="url(#clip580)" d="M1540.01 1794.89 L1547.65 1794.89 L1547.65 1768.52 L1539.34 1770.19 L1539.34 1765.93 L1547.6 1764.26 L1552.28 1764.26 L1552.28 1794.89 L1559.91 1794.89 L1559.91 1798.82 L1540.01 1798.82 L1540.01 1794.89 Z" fill="#000000" fill-rule="nonzero" fill-opacity="1" /><path clip-path="url(#clip580)" d="M1579.36 1767.34 Q1575.75 1767.34 1573.92 1770.9 Q1572.11 1774.45 1572.11 1781.58 Q1572.11 1788.68 1573.92 1792.25 Q1575.75 1795.79 1579.36 1795.79 Q1582.99 1795.79 1584.8 1792.25 Q1586.63 1788.68 1586.63 1781.58 Q1586.63 1774.45 1584.8 1770.9 Q1582.99 1767.34 1579.36 1767.34 M1579.36 1763.64 Q1585.17 1763.64 1588.22 1768.24 Q1591.3 1772.83 1591.3 1781.58 Q1591.3 1790.3 1588.22 1794.91 Q1585.17 1799.49 1579.36 1799.49 Q1573.55 1799.49 1570.47 1794.91 Q1567.41 1790.3 1567.41 1781.58 Q1567.41 1772.83 1570.47 1768.24 Q1573.55 1763.64 1579.36 1763.64 Z" fill="#000000" fill-rule="nonzero" fill-opacity="1" /><path clip-path="url(#clip580)" d="M1609.52 1767.34 Q1605.91 1767.34 1604.08 1770.9 Q1602.28 1774.45 1602.28 1781.58 Q1602.28 1788.68 1604.08 1792.25 Q1605.91 1795.79 1609.52 1795.79 Q1613.16 1795.79 1614.96 1792.25 Q1616.79 1788.68 1616.79 1781.58 Q1616.79 1774.45 1614.96 1770.9 Q1613.16 1767.34 1609.52 1767.34 M1609.52 1763.64 Q1615.33 1763.64 1618.39 1768.24 Q1621.47 1772.83 1621.47 1781.58 Q1621.47 1790.3 1618.39 1794.91 Q1615.33 1799.49 1609.52 1799.49 Q1603.71 1799.49 1600.63 1794.91 Q1597.58 1790.3 1597.58 1781.58 Q1597.58 1772.83 1600.63 1768.24 Q1603.71 1763.64 1609.52 1763.64 Z" fill="#000000" fill-rule="nonzero" fill-opacity="1" /><path clip-path="url(#clip580)" d="M2160.82 1794.89 L2168.46 1794.89 L2168.46 1768.52 L2160.15 1770.19 L2160.15 1765.93 L2168.42 1764.26 L2173.09 1764.26 L2173.09 1794.89 L2180.73 1794.89 L2180.73 1798.82 L2160.82 1798.82 L2160.82 1794.89 Z" fill="#000000" fill-rule="nonzero" fill-opacity="1" /><path clip-path="url(#clip580)" d="M2190.22 1764.26 L2208.58 1764.26 L2208.58 1768.2 L2194.5 1768.2 L2194.5 1776.67 Q2195.52 1776.32 2196.54 1776.16 Q2197.56 1775.97 2198.58 1775.97 Q2204.37 1775.97 2207.75 1779.15 Q2211.12 1782.32 2211.12 1787.73 Q2211.12 1793.31 2207.65 1796.41 Q2204.18 1799.49 2197.86 1799.49 Q2195.69 1799.49 2193.42 1799.12 Q2191.17 1798.75 2188.76 1798.01 L2188.76 1793.31 Q2190.85 1794.45 2193.07 1795 Q2195.29 1795.56 2197.77 1795.56 Q2201.77 1795.56 2204.11 1793.45 Q2206.45 1791.34 2206.45 1787.73 Q2206.45 1784.12 2204.11 1782.02 Q2201.77 1779.91 2197.77 1779.91 Q2195.89 1779.91 2194.02 1780.33 Q2192.17 1780.74 2190.22 1781.62 L2190.22 1764.26 Z" fill="#000000" fill-rule="nonzero" fill-opacity="1" /><path clip-path="url(#clip580)" d="M2230.34 1767.34 Q2226.73 1767.34 2224.9 1770.9 Q2223.09 1774.45 2223.09 1781.58 Q2223.09 1788.68 2224.9 1792.25 Q2226.73 1795.79 2230.34 1795.79 Q2233.97 1795.79 2235.78 1792.25 Q2237.61 1788.68 2237.61 1781.58 Q2237.61 1774.45 2235.78 1770.9 Q2233.97 1767.34 2230.34 1767.34 M2230.34 1763.64 Q2236.15 1763.64 2239.2 1768.24 Q2242.28 1772.83 2242.28 1781.58 Q2242.28 1790.3 2239.2 1794.91 Q2236.15 1799.49 2230.34 1799.49 Q2224.53 1799.49 2221.45 1794.91 Q2218.39 1790.3 2218.39 1781.58 Q2218.39 1772.83 2221.45 1768.24 Q2224.53 1763.64 2230.34 1763.64 Z" fill="#000000" fill-rule="nonzero" fill-opacity="1" /><path clip-path="url(#clip580)" d="M1402.48 1841.06 L1402.48 1878.02 L1410.25 1878.02 Q1420.08 1878.02 1424.63 1873.56 Q1429.22 1869.11 1429.22 1859.49 Q1429.22 1849.94 1424.63 1845.52 Q1420.08 1841.06 1410.25 1841.06 L1402.48 1841.06 M1396.05 1835.78 L1409.26 1835.78 Q1423.07 1835.78 1429.53 1841.54 Q1435.99 1847.27 1435.99 1859.49 Q1435.99 1871.78 1429.5 1877.54 Q1423.01 1883.3 1409.26 1883.3 L1396.05 1883.3 L1396.05 1835.78 Z" fill="#000000" fill-rule="nonzero" fill-opacity="1" /><path clip-path="url(#clip580)" d="M1462.19 1865.38 Q1455.09 1865.38 1452.35 1867 Q1449.62 1868.63 1449.62 1872.54 Q1449.62 1875.66 1451.65 1877.51 Q1453.72 1879.32 1457.26 1879.32 Q1462.13 1879.32 1465.05 1875.88 Q1468.01 1872.42 1468.01 1866.69 L1468.01 1865.38 L1462.19 1865.38 M1473.87 1862.96 L1473.87 1883.3 L1468.01 1883.3 L1468.01 1877.89 Q1466.01 1881.14 1463.02 1882.7 Q1460.03 1884.22 1455.7 1884.22 Q1450.22 1884.22 1446.98 1881.17 Q1443.76 1878.08 1443.76 1872.92 Q1443.76 1866.91 1447.77 1863.85 Q1451.81 1860.8 1459.8 1860.8 L1468.01 1860.8 L1468.01 1860.23 Q1468.01 1856.18 1465.34 1853.99 Q1462.7 1851.76 1457.89 1851.76 Q1454.84 1851.76 1451.94 1852.49 Q1449.04 1853.22 1446.37 1854.69 L1446.37 1849.28 Q1449.59 1848.03 1452.61 1847.43 Q1455.63 1846.79 1458.5 1846.79 Q1466.23 1846.79 1470.05 1850.8 Q1473.87 1854.81 1473.87 1862.96 Z" fill="#000000" fill-rule="nonzero" fill-opacity="1" /><path clip-path="url(#clip580)" d="M1500.77 1886.61 Q1498.28 1892.98 1495.93 1894.92 Q1493.57 1896.86 1489.63 1896.86 L1484.95 1896.86 L1484.95 1891.96 L1488.38 1891.96 Q1490.8 1891.96 1492.14 1890.81 Q1493.48 1889.67 1495.1 1885.4 L1496.15 1882.73 L1481.73 1847.65 L1487.94 1847.65 L1499.08 1875.53 L1510.22 1847.65 L1516.43 1847.65 L1500.77 1886.61 Z" fill="#000000" fill-rule="nonzero" fill-opacity="1" /><polyline clip-path="url(#clip580)" style="stroke:#000000; stroke-linecap:round; stroke-linejoin:round; stroke-width:4; stroke-opacity:1; fill:none" points="271.719,1734.12 271.719,127.792 "/>
<polyline clip-path="url(#clip580)" style="stroke:#000000; stroke-linecap:round; stroke-linejoin:round; stroke-width:4; stroke-opacity:1; fill:none" points="271.719,1688.65 290.617,1688.65 "/>
<polyline clip-path="url(#clip580)" style="stroke:#000000; stroke-linecap:round; stroke-linejoin:round; stroke-width:4; stroke-opacity:1; fill:none" points="271.719,1361.43 290.617,1361.43 "/>
<polyline clip-path="url(#clip580)" style="stroke:#000000; stroke-linecap:round; stroke-linejoin:round; stroke-width:4; stroke-opacity:1; fill:none" points="271.719,1034.2 290.617,1034.2 "/>
<polyline clip-path="url(#clip580)" style="stroke:#000000; stroke-linecap:round; stroke-linejoin:round; stroke-width:4; stroke-opacity:1; fill:none" points="271.719,706.966 290.617,706.966 "/>
<polyline clip-path="url(#clip580)" style="stroke:#000000; stroke-linecap:round; stroke-linejoin:round; stroke-width:4; stroke-opacity:1; fill:none" points="271.719,379.736 290.617,379.736 "/>
<path clip-path="url(#clip580)" d="M219.455 1674.45 Q215.844 1674.45 214.015 1678.02 Q212.209 1681.56 212.209 1688.69 Q212.209 1695.8 214.015 1699.36 Q215.844 1702.9 219.455 1702.9 Q223.089 1702.9 224.894 1699.36 Q226.723 1695.8 226.723 1688.69 Q226.723 1681.56 224.894 1678.02 Q223.089 1674.45 219.455 1674.45 M219.455 1670.75 Q225.265 1670.75 228.32 1675.36 Q231.399 1679.94 231.399 1688.69 Q231.399 1697.42 228.32 1702.02 Q225.265 1706.61 219.455 1706.61 Q213.644 1706.61 210.566 1702.02 Q207.51 1697.42 207.51 1688.69 Q207.51 1679.94 210.566 1675.36 Q213.644 1670.75 219.455 1670.75 Z" fill="#000000" fill-rule="nonzero" fill-opacity="1" /><path clip-path="url(#clip580)" d="M122.997 1374.77 L139.316 1374.77 L139.316 1378.71 L117.372 1378.71 L117.372 1374.77 Q120.034 1372.02 124.617 1367.39 Q129.224 1362.73 130.404 1361.39 Q132.65 1358.87 133.529 1357.13 Q134.432 1355.37 134.432 1353.68 Q134.432 1350.93 132.488 1349.19 Q130.566 1347.46 127.464 1347.46 Q125.265 1347.46 122.812 1348.22 Q120.381 1348.98 117.603 1350.53 L117.603 1345.81 Q120.427 1344.68 122.881 1344.1 Q125.335 1343.52 127.372 1343.52 Q132.742 1343.52 135.937 1346.21 Q139.131 1348.89 139.131 1353.38 Q139.131 1355.51 138.321 1357.43 Q137.534 1359.33 135.427 1361.92 Q134.849 1362.59 131.747 1365.81 Q128.645 1369.01 122.997 1374.77 Z" fill="#000000" fill-rule="nonzero" fill-opacity="1" /><path clip-path="url(#clip580)" d="M159.131 1347.22 Q155.52 1347.22 153.691 1350.79 Q151.886 1354.33 151.886 1361.46 Q151.886 1368.57 153.691 1372.13 Q155.52 1375.67 159.131 1375.67 Q162.765 1375.67 164.571 1372.13 Q166.399 1368.57 166.399 1361.46 Q166.399 1354.33 164.571 1350.79 Q162.765 1347.22 159.131 1347.22 M159.131 1343.52 Q164.941 1343.52 167.997 1348.13 Q171.075 1352.71 171.075 1361.46 Q171.075 1370.19 167.997 1374.79 Q164.941 1379.38 159.131 1379.38 Q153.321 1379.38 150.242 1374.79 Q147.186 1370.19 147.186 1361.46 Q147.186 1352.71 150.242 1348.13 Q153.321 1343.52 159.131 1343.52 Z" fill="#000000" fill-rule="nonzero" fill-opacity="1" /><path clip-path="url(#clip580)" d="M189.293 1347.22 Q185.682 1347.22 183.853 1350.79 Q182.047 1354.33 182.047 1361.46 Q182.047 1368.57 183.853 1372.13 Q185.682 1375.67 189.293 1375.67 Q192.927 1375.67 194.733 1372.13 Q196.561 1368.57 196.561 1361.46 Q196.561 1354.33 194.733 1350.79 Q192.927 1347.22 189.293 1347.22 M189.293 1343.52 Q195.103 1343.52 198.158 1348.13 Q201.237 1352.71 201.237 1361.46 Q201.237 1370.19 198.158 1374.79 Q195.103 1379.38 189.293 1379.38 Q183.483 1379.38 180.404 1374.79 Q177.348 1370.19 177.348 1361.46 Q177.348 1352.71 180.404 1348.13 Q183.483 1343.52 189.293 1343.52 Z" fill="#000000" fill-rule="nonzero" fill-opacity="1" /><path clip-path="url(#clip580)" d="M219.455 1347.22 Q215.844 1347.22 214.015 1350.79 Q212.209 1354.33 212.209 1361.46 Q212.209 1368.57 214.015 1372.13 Q215.844 1375.67 219.455 1375.67 Q223.089 1375.67 224.894 1372.13 Q226.723 1368.57 226.723 1361.46 Q226.723 1354.33 224.894 1350.79 Q223.089 1347.22 219.455 1347.22 M219.455 1343.52 Q225.265 1343.52 228.32 1348.13 Q231.399 1352.71 231.399 1361.46 Q231.399 1370.19 228.32 1374.79 Q225.265 1379.38 219.455 1379.38 Q213.644 1379.38 210.566 1374.79 Q207.51 1370.19 207.51 1361.46 Q207.51 1352.71 210.566 1348.13 Q213.644 1343.52 219.455 1343.52 Z" fill="#000000" fill-rule="nonzero" fill-opacity="1" /><path clip-path="url(#clip580)" d="M131.816 1020.99 L120.011 1039.44 L131.816 1039.44 L131.816 1020.99 M130.589 1016.92 L136.469 1016.92 L136.469 1039.44 L141.399 1039.44 L141.399 1043.33 L136.469 1043.33 L136.469 1051.48 L131.816 1051.48 L131.816 1043.33 L116.214 1043.33 L116.214 1038.81 L130.589 1016.92 Z" fill="#000000" fill-rule="nonzero" fill-opacity="1" /><path clip-path="url(#clip580)" d="M159.131 1019.99 Q155.52 1019.99 153.691 1023.56 Q151.886 1027.1 151.886 1034.23 Q151.886 1041.34 153.691 1044.9 Q155.52 1048.44 159.131 1048.44 Q162.765 1048.44 164.571 1044.9 Q166.399 1041.34 166.399 1034.23 Q166.399 1027.1 164.571 1023.56 Q162.765 1019.99 159.131 1019.99 M159.131 1016.29 Q164.941 1016.29 167.997 1020.9 Q171.075 1025.48 171.075 1034.23 Q171.075 1042.96 167.997 1047.56 Q164.941 1052.15 159.131 1052.15 Q153.321 1052.15 150.242 1047.56 Q147.186 1042.96 147.186 1034.23 Q147.186 1025.48 150.242 1020.9 Q153.321 1016.29 159.131 1016.29 Z" fill="#000000" fill-rule="nonzero" fill-opacity="1" /><path clip-path="url(#clip580)" d="M189.293 1019.99 Q185.682 1019.99 183.853 1023.56 Q182.047 1027.1 182.047 1034.23 Q182.047 1041.34 183.853 1044.9 Q185.682 1048.44 189.293 1048.44 Q192.927 1048.44 194.733 1044.9 Q196.561 1041.34 196.561 1034.23 Q196.561 1027.1 194.733 1023.56 Q192.927 1019.99 189.293 1019.99 M189.293 1016.29 Q195.103 1016.29 198.158 1020.9 Q201.237 1025.48 201.237 1034.23 Q201.237 1042.96 198.158 1047.56 Q195.103 1052.15 189.293 1052.15 Q183.483 1052.15 180.404 1047.56 Q177.348 1042.96 177.348 1034.23 Q177.348 1025.48 180.404 1020.9 Q183.483 1016.29 189.293 1016.29 Z" fill="#000000" fill-rule="nonzero" fill-opacity="1" /><path clip-path="url(#clip580)" d="M219.455 1019.99 Q215.844 1019.99 214.015 1023.56 Q212.209 1027.1 212.209 1034.23 Q212.209 1041.34 214.015 1044.9 Q215.844 1048.44 219.455 1048.44 Q223.089 1048.44 224.894 1044.9 Q226.723 1041.34 226.723 1034.23 Q226.723 1027.1 224.894 1023.56 Q223.089 1019.99 219.455 1019.99 M219.455 1016.29 Q225.265 1016.29 228.32 1020.9 Q231.399 1025.48 231.399 1034.23 Q231.399 1042.96 228.32 1047.56 Q225.265 1052.15 219.455 1052.15 Q213.644 1052.15 210.566 1047.56 Q207.51 1042.96 207.51 1034.23 Q207.51 1025.48 210.566 1020.9 Q213.644 1016.29 219.455 1016.29 Z" fill="#000000" fill-rule="nonzero" fill-opacity="1" /><path clip-path="url(#clip580)" d="M129.548 705.102 Q126.4 705.102 124.548 707.255 Q122.719 709.408 122.719 713.158 Q122.719 716.885 124.548 719.061 Q126.4 721.213 129.548 721.213 Q132.696 721.213 134.525 719.061 Q136.376 716.885 136.376 713.158 Q136.376 709.408 134.525 707.255 Q132.696 705.102 129.548 705.102 M138.83 690.45 L138.83 694.709 Q137.071 693.876 135.265 693.436 Q133.483 692.996 131.724 692.996 Q127.094 692.996 124.64 696.121 Q122.21 699.246 121.863 705.565 Q123.228 703.551 125.288 702.487 Q127.349 701.399 129.825 701.399 Q135.034 701.399 138.043 704.57 Q141.075 707.718 141.075 713.158 Q141.075 718.482 137.927 721.7 Q134.779 724.917 129.548 724.917 Q123.552 724.917 120.381 720.334 Q117.21 715.727 117.21 707.001 Q117.21 698.806 121.099 693.945 Q124.988 689.061 131.538 689.061 Q133.298 689.061 135.08 689.408 Q136.886 689.755 138.83 690.45 Z" fill="#000000" fill-rule="nonzero" fill-opacity="1" /><path clip-path="url(#clip580)" d="M159.131 692.765 Q155.52 692.765 153.691 696.329 Q151.886 699.871 151.886 707.001 Q151.886 714.107 153.691 717.672 Q155.52 721.213 159.131 721.213 Q162.765 721.213 164.571 717.672 Q166.399 714.107 166.399 707.001 Q166.399 699.871 164.571 696.329 Q162.765 692.765 159.131 692.765 M159.131 689.061 Q164.941 689.061 167.997 693.667 Q171.075 698.251 171.075 707.001 Q171.075 715.727 167.997 720.334 Q164.941 724.917 159.131 724.917 Q153.321 724.917 150.242 720.334 Q147.186 715.727 147.186 707.001 Q147.186 698.251 150.242 693.667 Q153.321 689.061 159.131 689.061 Z" fill="#000000" fill-rule="nonzero" fill-opacity="1" /><path clip-path="url(#clip580)" d="M189.293 692.765 Q185.682 692.765 183.853 696.329 Q182.047 699.871 182.047 707.001 Q182.047 714.107 183.853 717.672 Q185.682 721.213 189.293 721.213 Q192.927 721.213 194.733 717.672 Q196.561 714.107 196.561 707.001 Q196.561 699.871 194.733 696.329 Q192.927 692.765 189.293 692.765 M189.293 689.061 Q195.103 689.061 198.158 693.667 Q201.237 698.251 201.237 707.001 Q201.237 715.727 198.158 720.334 Q195.103 724.917 189.293 724.917 Q183.483 724.917 180.404 720.334 Q177.348 715.727 177.348 707.001 Q177.348 698.251 180.404 693.667 Q183.483 689.061 189.293 689.061 Z" fill="#000000" fill-rule="nonzero" fill-opacity="1" /><path clip-path="url(#clip580)" d="M219.455 692.765 Q215.844 692.765 214.015 696.329 Q212.209 699.871 212.209 707.001 Q212.209 714.107 214.015 717.672 Q215.844 721.213 219.455 721.213 Q223.089 721.213 224.894 717.672 Q226.723 714.107 226.723 707.001 Q226.723 699.871 224.894 696.329 Q223.089 692.765 219.455 692.765 M219.455 689.061 Q225.265 689.061 228.32 693.667 Q231.399 698.251 231.399 707.001 Q231.399 715.727 228.32 720.334 Q225.265 724.917 219.455 724.917 Q213.644 724.917 210.566 720.334 Q207.51 715.727 207.51 707.001 Q207.51 698.251 210.566 693.667 Q213.644 689.061 219.455 689.061 Z" fill="#000000" fill-rule="nonzero" fill-opacity="1" /><path clip-path="url(#clip580)" d="M128.969 380.604 Q125.636 380.604 123.714 382.387 Q121.816 384.169 121.816 387.294 Q121.816 390.419 123.714 392.201 Q125.636 393.984 128.969 393.984 Q132.302 393.984 134.224 392.201 Q136.145 390.396 136.145 387.294 Q136.145 384.169 134.224 382.387 Q132.325 380.604 128.969 380.604 M124.293 378.613 Q121.284 377.873 119.594 375.813 Q117.927 373.752 117.927 370.789 Q117.927 366.646 120.867 364.238 Q123.83 361.831 128.969 361.831 Q134.131 361.831 137.071 364.238 Q140.011 366.646 140.011 370.789 Q140.011 373.752 138.321 375.813 Q136.654 377.873 133.668 378.613 Q137.048 379.4 138.923 381.692 Q140.821 383.984 140.821 387.294 Q140.821 392.317 137.742 395.002 Q134.687 397.687 128.969 397.687 Q123.251 397.687 120.173 395.002 Q117.117 392.317 117.117 387.294 Q117.117 383.984 119.015 381.692 Q120.913 379.4 124.293 378.613 M122.58 371.229 Q122.58 373.914 124.247 375.419 Q125.937 376.924 128.969 376.924 Q131.978 376.924 133.668 375.419 Q135.381 373.914 135.381 371.229 Q135.381 368.544 133.668 367.039 Q131.978 365.535 128.969 365.535 Q125.937 365.535 124.247 367.039 Q122.58 368.544 122.58 371.229 Z" fill="#000000" fill-rule="nonzero" fill-opacity="1" /><path clip-path="url(#clip580)" d="M159.131 365.535 Q155.52 365.535 153.691 369.1 Q151.886 372.641 151.886 379.771 Q151.886 386.877 153.691 390.442 Q155.52 393.984 159.131 393.984 Q162.765 393.984 164.571 390.442 Q166.399 386.877 166.399 379.771 Q166.399 372.641 164.571 369.1 Q162.765 365.535 159.131 365.535 M159.131 361.831 Q164.941 361.831 167.997 366.438 Q171.075 371.021 171.075 379.771 Q171.075 388.498 167.997 393.104 Q164.941 397.687 159.131 397.687 Q153.321 397.687 150.242 393.104 Q147.186 388.498 147.186 379.771 Q147.186 371.021 150.242 366.438 Q153.321 361.831 159.131 361.831 Z" fill="#000000" fill-rule="nonzero" fill-opacity="1" /><path clip-path="url(#clip580)" d="M189.293 365.535 Q185.682 365.535 183.853 369.1 Q182.047 372.641 182.047 379.771 Q182.047 386.877 183.853 390.442 Q185.682 393.984 189.293 393.984 Q192.927 393.984 194.733 390.442 Q196.561 386.877 196.561 379.771 Q196.561 372.641 194.733 369.1 Q192.927 365.535 189.293 365.535 M189.293 361.831 Q195.103 361.831 198.158 366.438 Q201.237 371.021 201.237 379.771 Q201.237 388.498 198.158 393.104 Q195.103 397.687 189.293 397.687 Q183.483 397.687 180.404 393.104 Q177.348 388.498 177.348 379.771 Q177.348 371.021 180.404 366.438 Q183.483 361.831 189.293 361.831 Z" fill="#000000" fill-rule="nonzero" fill-opacity="1" /><path clip-path="url(#clip580)" d="M219.455 365.535 Q215.844 365.535 214.015 369.1 Q212.209 372.641 212.209 379.771 Q212.209 386.877 214.015 390.442 Q215.844 393.984 219.455 393.984 Q223.089 393.984 224.894 390.442 Q226.723 386.877 226.723 379.771 Q226.723 372.641 224.894 369.1 Q223.089 365.535 219.455 365.535 M219.455 361.831 Q225.265 361.831 228.32 366.438 Q231.399 371.021 231.399 379.771 Q231.399 388.498 228.32 393.104 Q225.265 397.687 219.455 397.687 Q213.644 397.687 210.566 393.104 Q207.51 388.498 207.51 379.771 Q207.51 371.021 210.566 366.438 Q213.644 361.831 219.455 361.831 Z" fill="#000000" fill-rule="nonzero" fill-opacity="1" /><path clip-path="url(#clip580)" d="M17.7787 986.814 L24.5582 986.814 Q21.5345 990.06 20.0386 993.752 Q18.5426 997.413 18.5426 1001.55 Q18.5426 1009.7 23.5397 1014.03 Q28.5049 1018.36 37.9262 1018.36 Q47.3156 1018.36 52.3127 1014.03 Q57.2779 1009.7 57.2779 1001.55 Q57.2779 997.413 55.782 993.752 Q54.2861 990.06 51.2623 986.814 L57.9782 986.814 Q60.2698 990.187 61.4156 993.975 Q62.5615 997.731 62.5615 1001.93 Q62.5615 1012.72 55.973 1018.93 Q49.3526 1025.14 37.9262 1025.14 Q26.4679 1025.14 19.8794 1018.93 Q13.2591 1012.72 13.2591 1001.93 Q13.2591 997.667 14.4049 993.911 Q15.5189 990.124 17.7787 986.814 Z" fill="#000000" fill-rule="nonzero" fill-opacity="1" /><path clip-path="url(#clip580)" d="M30.0964 963.324 Q30.0964 968.035 33.7885 970.772 Q37.4488 973.509 43.8463 973.509 Q50.2438 973.509 53.9359 970.804 Q57.5962 968.067 57.5962 963.324 Q57.5962 958.645 53.9041 955.908 Q50.212 953.171 43.8463 953.171 Q37.5124 953.171 33.8203 955.908 Q30.0964 958.645 30.0964 963.324 M25.1311 963.324 Q25.1311 955.685 30.0964 951.325 Q35.0616 946.964 43.8463 946.964 Q52.5991 946.964 57.5962 951.325 Q62.5615 955.685 62.5615 963.324 Q62.5615 970.995 57.5962 975.355 Q52.5991 979.684 43.8463 979.684 Q35.0616 979.684 30.0964 975.355 Q25.1311 970.995 25.1311 963.324 Z" fill="#000000" fill-rule="nonzero" fill-opacity="1" /><path clip-path="url(#clip580)" d="M47.5702 937.861 L25.9905 937.861 L25.9905 932.005 L47.3474 932.005 Q52.4082 932.005 54.9545 930.032 Q57.4689 928.058 57.4689 924.111 Q57.4689 919.369 54.4452 916.632 Q51.4215 913.863 46.2016 913.863 L25.9905 913.863 L25.9905 908.006 L61.6384 908.006 L61.6384 913.863 L56.1639 913.863 Q59.4104 915.995 61.0019 918.828 Q62.5615 921.629 62.5615 925.353 Q62.5615 931.496 58.742 934.678 Q54.9226 937.861 47.5702 937.861 M25.1311 923.125 L25.1311 923.125 Z" fill="#000000" fill-rule="nonzero" fill-opacity="1" /><path clip-path="url(#clip580)" d="M40.1224 866.311 L61.6384 866.311 L61.6384 872.167 L40.3133 872.167 Q35.2526 872.167 32.7381 874.141 Q30.2237 876.114 30.2237 880.061 Q30.2237 884.803 33.2474 887.54 Q36.2711 890.278 41.491 890.278 L61.6384 890.278 L61.6384 896.166 L25.9905 896.166 L25.9905 890.278 L31.5287 890.278 Q28.314 888.177 26.7225 885.344 Q25.1311 882.48 25.1311 878.756 Q25.1311 872.613 28.9505 869.462 Q32.7381 866.311 40.1224 866.311 Z" fill="#000000" fill-rule="nonzero" fill-opacity="1" /><path clip-path="url(#clip580)" d="M15.869 848.837 L25.9905 848.837 L25.9905 836.774 L30.542 836.774 L30.542 848.837 L49.8937 848.837 Q54.2542 848.837 55.4955 847.659 Q56.7368 846.45 56.7368 842.79 L56.7368 836.774 L61.6384 836.774 L61.6384 842.79 Q61.6384 849.569 59.124 852.147 Q56.5777 854.725 49.8937 854.725 L30.542 854.725 L30.542 859.022 L25.9905 859.022 L25.9905 854.725 L15.869 854.725 L15.869 848.837 Z" fill="#000000" fill-rule="nonzero" fill-opacity="1" /><path clip-path="url(#clip580)" d="M780.506 14.0809 L780.506 22.0612 Q775.848 19.8332 771.716 18.7395 Q767.584 17.6457 763.735 17.6457 Q757.051 17.6457 753.406 20.2383 Q749.8 22.8309 749.8 27.611 Q749.8 31.6214 752.19 33.6873 Q754.621 35.7128 761.345 36.9686 L766.287 37.9813 Q775.442 39.7232 779.777 44.1387 Q784.152 48.5136 784.152 55.8863 Q784.152 64.6767 778.238 69.2137 Q772.364 73.7508 760.981 73.7508 Q756.687 73.7508 751.826 72.7785 Q747.005 71.8063 741.82 69.9024 L741.82 61.4765 Q746.803 64.2716 751.583 65.6895 Q756.363 67.1073 760.981 67.1073 Q767.989 67.1073 771.797 64.3527 Q775.605 61.598 775.605 56.4939 Q775.605 52.0379 772.85 49.5264 Q770.136 47.0148 763.897 45.759 L758.915 44.7868 Q749.76 42.9639 745.668 39.075 Q741.577 35.1862 741.577 28.2591 Q741.577 20.2383 747.208 15.6203 Q752.879 11.0023 762.804 11.0023 Q767.057 11.0023 771.473 11.7719 Q775.888 12.5416 780.506 14.0809 Z" fill="#000000" fill-rule="nonzero" fill-opacity="1" /><path clip-path="url(#clip580)" d="M796.912 12.096 L805.095 12.096 L805.095 72.576 L796.912 72.576 L796.912 12.096 Z" fill="#000000" fill-rule="nonzero" fill-opacity="1" /><path clip-path="url(#clip580)" d="M850.06 44.2197 Q852.693 45.1109 855.164 48.0275 Q857.676 50.9442 860.187 56.0483 L868.492 72.576 L859.701 72.576 L851.964 57.061 Q848.966 50.9847 846.131 48.9997 Q843.336 47.0148 838.475 47.0148 L829.563 47.0148 L829.563 72.576 L821.38 72.576 L821.38 12.096 L839.852 12.096 Q850.222 12.096 855.326 16.4305 Q860.43 20.7649 860.43 29.5149 Q860.43 35.2267 857.757 38.994 Q855.124 42.7613 850.06 44.2197 M829.563 18.8205 L829.563 40.2903 L839.852 40.2903 Q845.766 40.2903 848.764 37.5762 Q851.802 34.8216 851.802 29.5149 Q851.802 24.2082 848.764 21.5346 Q845.766 18.8205 839.852 18.8205 L829.563 18.8205 Z" fill="#000000" fill-rule="nonzero" fill-opacity="1" /><path clip-path="url(#clip580)" d="M899.724 27.2059 L907.623 27.2059 L921.802 65.2844 L935.98 27.2059 L943.879 27.2059 L926.865 72.576 L916.738 72.576 L899.724 27.2059 Z" fill="#000000" fill-rule="nonzero" fill-opacity="1" /><path clip-path="url(#clip580)" d="M983.092 28.5427 L983.092 35.5912 Q979.932 33.9709 976.529 33.1607 Q973.127 32.3505 969.481 32.3505 Q963.931 32.3505 961.136 34.0519 Q958.381 35.7533 958.381 39.156 Q958.381 41.7486 960.366 43.2475 Q962.351 44.7058 968.347 46.0426 L970.899 46.6097 Q978.838 48.3111 982.16 51.4303 Q985.522 54.509 985.522 60.0587 Q985.522 66.3781 980.499 70.0644 Q975.517 73.7508 966.767 73.7508 Q963.121 73.7508 959.151 73.0216 Q955.222 72.3329 950.847 70.9151 L950.847 63.2184 Q954.979 65.3654 958.989 66.4591 Q962.999 67.5124 966.929 67.5124 Q972.195 67.5124 975.031 65.73 Q977.866 63.9071 977.866 60.6258 Q977.866 57.5877 975.8 55.9673 Q973.775 54.3469 966.848 52.8481 L964.255 52.2405 Q957.328 50.7821 954.249 47.7845 Q951.171 44.7463 951.171 39.4801 Q951.171 33.0797 955.708 29.5959 Q960.245 26.1121 968.59 26.1121 Q972.722 26.1121 976.367 26.7198 Q980.013 27.3274 983.092 28.5427 Z" fill="#000000" fill-rule="nonzero" fill-opacity="1" /><path clip-path="url(#clip580)" d="M1060.34 14.0809 L1060.34 22.0612 Q1055.68 19.8332 1051.55 18.7395 Q1047.42 17.6457 1043.57 17.6457 Q1036.89 17.6457 1033.24 20.2383 Q1029.64 22.8309 1029.64 27.611 Q1029.64 31.6214 1032.03 33.6873 Q1034.46 35.7128 1041.18 36.9686 L1046.12 37.9813 Q1055.28 39.7232 1059.61 44.1387 Q1063.99 48.5136 1063.99 55.8863 Q1063.99 64.6767 1058.07 69.2137 Q1052.2 73.7508 1040.82 73.7508 Q1036.52 73.7508 1031.66 72.7785 Q1026.84 71.8063 1021.66 69.9024 L1021.66 61.4765 Q1026.64 64.2716 1031.42 65.6895 Q1036.2 67.1073 1040.82 67.1073 Q1047.83 67.1073 1051.63 64.3527 Q1055.44 61.598 1055.44 56.4939 Q1055.44 52.0379 1052.69 49.5264 Q1049.97 47.0148 1043.73 45.759 L1038.75 44.7868 Q1029.6 42.9639 1025.5 39.075 Q1021.41 35.1862 1021.41 28.2591 Q1021.41 20.2383 1027.04 15.6203 Q1032.72 11.0023 1042.64 11.0023 Q1046.89 11.0023 1051.31 11.7719 Q1055.72 12.5416 1060.34 14.0809 Z" fill="#000000" fill-rule="nonzero" fill-opacity="1" /><path clip-path="url(#clip580)" d="M1076.75 12.096 L1114.99 12.096 L1114.99 18.9825 L1084.93 18.9825 L1084.93 36.8875 L1113.73 36.8875 L1113.73 43.7741 L1084.93 43.7741 L1084.93 65.6895 L1115.72 65.6895 L1115.72 72.576 L1076.75 72.576 L1076.75 12.096 Z" fill="#000000" fill-rule="nonzero" fill-opacity="1" /><path clip-path="url(#clip580)" d="M1129.17 12.096 L1137.35 12.096 L1137.35 72.576 L1129.17 72.576 L1129.17 12.096 Z" fill="#000000" fill-rule="nonzero" fill-opacity="1" /><path clip-path="url(#clip580)" d="M1182.32 44.2197 Q1184.95 45.1109 1187.42 48.0275 Q1189.93 50.9442 1192.44 56.0483 L1200.75 72.576 L1191.96 72.576 L1184.22 57.061 Q1181.22 50.9847 1178.39 48.9997 Q1175.59 47.0148 1170.73 47.0148 L1161.82 47.0148 L1161.82 72.576 L1153.63 72.576 L1153.63 12.096 L1172.11 12.096 Q1182.48 12.096 1187.58 16.4305 Q1192.69 20.7649 1192.69 29.5149 Q1192.69 35.2267 1190.01 38.994 Q1187.38 42.7613 1182.32 44.2197 M1161.82 18.8205 L1161.82 40.2903 L1172.11 40.2903 Q1178.02 40.2903 1181.02 37.5762 Q1184.06 34.8216 1184.06 29.5149 Q1184.06 24.2082 1181.02 21.5346 Q1178.02 18.8205 1172.11 18.8205 L1161.82 18.8205 Z" fill="#000000" fill-rule="nonzero" fill-opacity="1" /><path clip-path="url(#clip580)" d="M1210.31 62.2867 L1218.85 62.2867 L1218.85 72.576 L1210.31 72.576 L1210.31 62.2867 M1210.31 29.6769 L1218.85 29.6769 L1218.85 39.9662 L1210.31 39.9662 L1210.31 29.6769 Z" fill="#000000" fill-rule="nonzero" fill-opacity="1" /><path clip-path="url(#clip580)" d="M1263.05 12.096 L1301.29 12.096 L1301.29 18.9825 L1271.23 18.9825 L1271.23 36.8875 L1300.03 36.8875 L1300.03 43.7741 L1271.23 43.7741 L1271.23 65.6895 L1302.02 65.6895 L1302.02 72.576 L1263.05 72.576 L1263.05 12.096 Z" fill="#000000" fill-rule="nonzero" fill-opacity="1" /><path clip-path="url(#clip580)" d="M1338.11 9.54393 L1338.11 15.7418 L1330.98 15.7418 Q1326.97 15.7418 1325.39 17.3622 Q1323.85 18.9825 1323.85 23.1955 L1323.85 27.2059 L1336.13 27.2059 L1336.13 32.9987 L1323.85 32.9987 L1323.85 72.576 L1316.36 72.576 L1316.36 32.9987 L1309.23 32.9987 L1309.23 27.2059 L1316.36 27.2059 L1316.36 24.0462 Q1316.36 16.471 1319.88 13.0277 Q1323.41 9.54393 1331.06 9.54393 L1338.11 9.54393 Z" fill="#000000" fill-rule="nonzero" fill-opacity="1" /><path clip-path="url(#clip580)" d="M1367.32 9.54393 L1367.32 15.7418 L1360.19 15.7418 Q1356.18 15.7418 1354.6 17.3622 Q1353.06 18.9825 1353.06 23.1955 L1353.06 27.2059 L1365.34 27.2059 L1365.34 32.9987 L1353.06 32.9987 L1353.06 72.576 L1345.57 72.576 L1345.57 32.9987 L1338.44 32.9987 L1338.44 27.2059 L1345.57 27.2059 L1345.57 24.0462 Q1345.57 16.471 1349.09 13.0277 Q1352.62 9.54393 1360.27 9.54393 L1367.32 9.54393 Z" fill="#000000" fill-rule="nonzero" fill-opacity="1" /><path clip-path="url(#clip580)" d="M1412.37 48.0275 L1412.37 51.6733 L1378.1 51.6733 Q1378.58 59.3701 1382.71 63.421 Q1386.89 67.4314 1394.3 67.4314 Q1398.59 67.4314 1402.6 66.3781 Q1406.65 65.3249 1410.62 63.2184 L1410.62 70.267 Q1406.61 71.9684 1402.4 72.8596 Q1398.19 73.7508 1393.85 73.7508 Q1383 73.7508 1376.64 67.4314 Q1370.32 61.1119 1370.32 50.3365 Q1370.32 39.1965 1376.31 32.6746 Q1382.35 26.1121 1392.56 26.1121 Q1401.71 26.1121 1407.02 32.0264 Q1412.37 37.9003 1412.37 48.0275 M1404.91 45.84 Q1404.83 39.7232 1401.47 36.0774 Q1398.15 32.4315 1392.64 32.4315 Q1386.4 32.4315 1382.63 35.9558 Q1378.91 39.4801 1378.34 45.8805 L1404.91 45.84 Z" fill="#000000" fill-rule="nonzero" fill-opacity="1" /><path clip-path="url(#clip580)" d="M1457.25 28.9478 L1457.25 35.9153 Q1454.09 34.1734 1450.89 33.3227 Q1447.73 32.4315 1444.49 32.4315 Q1437.24 32.4315 1433.23 37.0496 Q1429.22 41.6271 1429.22 49.9314 Q1429.22 58.2358 1433.23 62.8538 Q1437.24 67.4314 1444.49 67.4314 Q1447.73 67.4314 1450.89 66.5807 Q1454.09 65.6895 1457.25 63.9476 L1457.25 70.8341 Q1454.13 72.2924 1450.77 73.0216 Q1447.45 73.7508 1443.68 73.7508 Q1433.43 73.7508 1427.4 67.3098 Q1421.36 60.8689 1421.36 49.9314 Q1421.36 38.832 1427.44 32.472 Q1433.55 26.1121 1444.17 26.1121 Q1447.61 26.1121 1450.89 26.8413 Q1454.17 27.5299 1457.25 28.9478 Z" fill="#000000" fill-rule="nonzero" fill-opacity="1" /><path clip-path="url(#clip580)" d="M1477.59 14.324 L1477.59 27.2059 L1492.94 27.2059 L1492.94 32.9987 L1477.59 32.9987 L1477.59 57.6282 Q1477.59 63.1779 1479.08 64.7578 Q1480.62 66.3376 1485.28 66.3376 L1492.94 66.3376 L1492.94 72.576 L1485.28 72.576 Q1476.65 72.576 1473.37 69.3758 Q1470.09 66.1351 1470.09 57.6282 L1470.09 32.9987 L1464.62 32.9987 L1464.62 27.2059 L1470.09 27.2059 L1470.09 14.324 L1477.59 14.324 Z" fill="#000000" fill-rule="nonzero" fill-opacity="1" /><path clip-path="url(#clip580)" d="M1546.69 32.4315 Q1540.7 32.4315 1537.22 37.1306 Q1533.73 41.7891 1533.73 49.9314 Q1533.73 58.0738 1537.17 62.7728 Q1540.66 67.4314 1546.69 67.4314 Q1552.65 67.4314 1556.13 62.7323 Q1559.62 58.0333 1559.62 49.9314 Q1559.62 41.8701 1556.13 37.1711 Q1552.65 32.4315 1546.69 32.4315 M1546.69 26.1121 Q1556.42 26.1121 1561.97 32.4315 Q1567.52 38.7509 1567.52 49.9314 Q1567.52 61.0714 1561.97 67.4314 Q1556.42 73.7508 1546.69 73.7508 Q1536.93 73.7508 1531.38 67.4314 Q1525.87 61.0714 1525.87 49.9314 Q1525.87 38.7509 1531.38 32.4315 Q1536.93 26.1121 1546.69 26.1121 Z" fill="#000000" fill-rule="nonzero" fill-opacity="1" /><path clip-path="url(#clip580)" d="M1602.84 9.54393 L1602.84 15.7418 L1595.71 15.7418 Q1591.7 15.7418 1590.12 17.3622 Q1588.58 18.9825 1588.58 23.1955 L1588.58 27.2059 L1600.85 27.2059 L1600.85 32.9987 L1588.58 32.9987 L1588.58 72.576 L1581.09 72.576 L1581.09 32.9987 L1573.96 32.9987 L1573.96 27.2059 L1581.09 27.2059 L1581.09 24.0462 Q1581.09 16.471 1584.61 13.0277 Q1588.13 9.54393 1595.79 9.54393 L1602.84 9.54393 Z" fill="#000000" fill-rule="nonzero" fill-opacity="1" /><path clip-path="url(#clip580)" d="M1635.77 12.096 L1643.96 12.096 L1643.96 65.6895 L1673.41 65.6895 L1673.41 72.576 L1635.77 72.576 L1635.77 12.096 Z" fill="#000000" fill-rule="nonzero" fill-opacity="1" /><path clip-path="url(#clip580)" d="M1702.29 49.7694 Q1693.26 49.7694 1689.77 51.8354 Q1686.29 53.9013 1686.29 58.8839 Q1686.29 62.8538 1688.88 65.2034 Q1691.51 67.5124 1696.01 67.5124 Q1702.21 67.5124 1705.94 63.1374 Q1709.7 58.7219 1709.7 51.4303 L1709.7 49.7694 L1702.29 49.7694 M1717.16 46.6907 L1717.16 72.576 L1709.7 72.576 L1709.7 65.6895 Q1707.15 69.8214 1703.34 71.8063 Q1699.53 73.7508 1694.03 73.7508 Q1687.06 73.7508 1682.93 69.8619 Q1678.83 65.9325 1678.83 59.3701 Q1678.83 51.7138 1683.94 47.825 Q1689.08 43.9361 1699.25 43.9361 L1709.7 43.9361 L1709.7 43.2069 Q1709.7 38.0623 1706.3 35.2672 Q1702.94 32.4315 1696.82 32.4315 Q1692.93 32.4315 1689.25 33.3632 Q1685.56 34.295 1682.16 36.1584 L1682.16 29.2718 Q1686.25 27.692 1690.1 26.9223 Q1693.94 26.1121 1697.59 26.1121 Q1707.43 26.1121 1712.3 31.2163 Q1717.16 36.3204 1717.16 46.6907 Z" fill="#000000" fill-rule="nonzero" fill-opacity="1" /><path clip-path="url(#clip580)" d="M1739.88 14.324 L1739.88 27.2059 L1755.23 27.2059 L1755.23 32.9987 L1739.88 32.9987 L1739.88 57.6282 Q1739.88 63.1779 1741.38 64.7578 Q1742.92 66.3376 1747.58 66.3376 L1755.23 66.3376 L1755.23 72.576 L1747.58 72.576 Q1738.95 72.576 1735.67 69.3758 Q1732.39 66.1351 1732.39 57.6282 L1732.39 32.9987 L1726.92 32.9987 L1726.92 27.2059 L1732.39 27.2059 L1732.39 14.324 L1739.88 14.324 Z" fill="#000000" fill-rule="nonzero" fill-opacity="1" /><path clip-path="url(#clip580)" d="M1803.85 48.0275 L1803.85 51.6733 L1769.57 51.6733 Q1770.06 59.3701 1774.19 63.421 Q1778.37 67.4314 1785.78 67.4314 Q1790.07 67.4314 1794.08 66.3781 Q1798.13 65.3249 1802.1 63.2184 L1802.1 70.267 Q1798.09 71.9684 1793.88 72.8596 Q1789.67 73.7508 1785.33 73.7508 Q1774.48 73.7508 1768.12 67.4314 Q1761.8 61.1119 1761.8 50.3365 Q1761.8 39.1965 1767.79 32.6746 Q1773.83 26.1121 1784.04 26.1121 Q1793.19 26.1121 1798.5 32.0264 Q1803.85 37.9003 1803.85 48.0275 M1796.39 45.84 Q1796.31 39.7232 1792.95 36.0774 Q1789.63 32.4315 1784.12 32.4315 Q1777.88 32.4315 1774.11 35.9558 Q1770.39 39.4801 1769.82 45.8805 L1796.39 45.84 Z" fill="#000000" fill-rule="nonzero" fill-opacity="1" /><path clip-path="url(#clip580)" d="M1853.79 45.1919 L1853.79 72.576 L1846.34 72.576 L1846.34 45.4349 Q1846.34 38.994 1843.83 35.7938 Q1841.32 32.5936 1836.29 32.5936 Q1830.26 32.5936 1826.77 36.4419 Q1823.29 40.2903 1823.29 46.9338 L1823.29 72.576 L1815.8 72.576 L1815.8 27.2059 L1823.29 27.2059 L1823.29 34.2544 Q1825.96 30.163 1829.57 28.1376 Q1833.21 26.1121 1837.95 26.1121 Q1845.77 26.1121 1849.78 30.9732 Q1853.79 35.7938 1853.79 45.1919 Z" fill="#000000" fill-rule="nonzero" fill-opacity="1" /><path clip-path="url(#clip580)" d="M1876.03 14.324 L1876.03 27.2059 L1891.39 27.2059 L1891.39 32.9987 L1876.03 32.9987 L1876.03 57.6282 Q1876.03 63.1779 1877.53 64.7578 Q1879.07 66.3376 1883.73 66.3376 L1891.39 66.3376 L1891.39 72.576 L1883.73 72.576 Q1875.1 72.576 1871.82 69.3758 Q1868.54 66.1351 1868.54 57.6282 L1868.54 32.9987 L1863.07 32.9987 L1863.07 27.2059 L1868.54 27.2059 L1868.54 14.324 L1876.03 14.324 Z" fill="#000000" fill-rule="nonzero" fill-opacity="1" /><path clip-path="url(#clip580)" d="M1936.07 18.8205 L1936.07 41.5461 L1946.36 41.5461 Q1952.07 41.5461 1955.19 38.5889 Q1958.31 35.6318 1958.31 30.163 Q1958.31 24.7348 1955.19 21.7777 Q1952.07 18.8205 1946.36 18.8205 L1936.07 18.8205 M1927.88 12.096 L1946.36 12.096 Q1956.52 12.096 1961.71 16.714 Q1966.93 21.2916 1966.93 30.163 Q1966.93 39.1155 1961.71 43.6931 Q1956.52 48.2706 1946.36 48.2706 L1936.07 48.2706 L1936.07 72.576 L1927.88 72.576 L1927.88 12.096 Z" fill="#000000" fill-rule="nonzero" fill-opacity="1" /><path clip-path="url(#clip580)" d="M2013.44 48.0275 L2013.44 51.6733 L1979.17 51.6733 Q1979.65 59.3701 1983.79 63.421 Q1987.96 67.4314 1995.37 67.4314 Q1999.67 67.4314 2003.68 66.3781 Q2007.73 65.3249 2011.7 63.2184 L2011.7 70.267 Q2007.69 71.9684 2003.47 72.8596 Q1999.26 73.7508 1994.93 73.7508 Q1984.07 73.7508 1977.71 67.4314 Q1971.39 61.1119 1971.39 50.3365 Q1971.39 39.1965 1977.39 32.6746 Q1983.42 26.1121 1993.63 26.1121 Q2002.79 26.1121 2008.09 32.0264 Q2013.44 37.9003 2013.44 48.0275 M2005.99 45.84 Q2005.9 39.7232 2002.54 36.0774 Q1999.22 32.4315 1993.71 32.4315 Q1987.47 32.4315 1983.71 35.9558 Q1979.98 39.4801 1979.41 45.8805 L2005.99 45.84 Z" fill="#000000" fill-rule="nonzero" fill-opacity="1" /><path clip-path="url(#clip580)" d="M2051.96 34.1734 Q2050.71 33.4443 2049.21 33.1202 Q2047.75 32.7556 2045.97 32.7556 Q2039.65 32.7556 2036.25 36.8875 Q2032.88 40.9789 2032.88 48.6757 L2032.88 72.576 L2025.39 72.576 L2025.39 27.2059 L2032.88 27.2059 L2032.88 34.2544 Q2035.23 30.1225 2039 28.1376 Q2042.77 26.1121 2048.16 26.1121 Q2048.93 26.1121 2049.86 26.2337 Q2050.79 26.3147 2051.92 26.5172 L2051.96 34.1734 Z" fill="#000000" fill-rule="nonzero" fill-opacity="1" /><path clip-path="url(#clip580)" d="M2059.78 27.2059 L2067.24 27.2059 L2067.24 72.576 L2059.78 72.576 L2059.78 27.2059 M2059.78 9.54393 L2067.24 9.54393 L2067.24 18.9825 L2059.78 18.9825 L2059.78 9.54393 Z" fill="#000000" fill-rule="nonzero" fill-opacity="1" /><path clip-path="url(#clip580)" d="M2100.41 32.4315 Q2094.42 32.4315 2090.93 37.1306 Q2087.45 41.7891 2087.45 49.9314 Q2087.45 58.0738 2090.89 62.7728 Q2094.38 67.4314 2100.41 67.4314 Q2106.37 67.4314 2109.85 62.7323 Q2113.33 58.0333 2113.33 49.9314 Q2113.33 41.8701 2109.85 37.1711 Q2106.37 32.4315 2100.41 32.4315 M2100.41 26.1121 Q2110.13 26.1121 2115.68 32.4315 Q2121.23 38.7509 2121.23 49.9314 Q2121.23 61.0714 2115.68 67.4314 Q2110.13 73.7508 2100.41 73.7508 Q2090.65 73.7508 2085.1 67.4314 Q2079.59 61.0714 2079.59 49.9314 Q2079.59 38.7509 2085.1 32.4315 Q2090.65 26.1121 2100.41 26.1121 Z" fill="#000000" fill-rule="nonzero" fill-opacity="1" /><path clip-path="url(#clip580)" d="M2163.44 34.0924 L2163.44 9.54393 L2170.9 9.54393 L2170.9 72.576 L2163.44 72.576 L2163.44 65.7705 Q2161.09 69.8214 2157.49 71.8063 Q2153.92 73.7508 2148.9 73.7508 Q2140.68 73.7508 2135.49 67.1883 Q2130.35 60.6258 2130.35 49.9314 Q2130.35 39.2371 2135.49 32.6746 Q2140.68 26.1121 2148.9 26.1121 Q2153.92 26.1121 2157.49 28.0971 Q2161.09 30.0415 2163.44 34.0924 M2138.05 49.9314 Q2138.05 58.1548 2141.41 62.8538 Q2144.81 67.5124 2150.72 67.5124 Q2156.64 67.5124 2160.04 62.8538 Q2163.44 58.1548 2163.44 49.9314 Q2163.44 41.7081 2160.04 37.0496 Q2156.64 32.3505 2150.72 32.3505 Q2144.81 32.3505 2141.41 37.0496 Q2138.05 41.7081 2138.05 49.9314 Z" fill="#000000" fill-rule="nonzero" fill-opacity="1" /><polyline clip-path="url(#clip581)" style="stroke:#ff0000; stroke-linecap:round; stroke-linejoin:round; stroke-width:8; stroke-opacity:1; fill:none" stroke-dasharray="32, 20" points="338.767,1680.47 351.184,1649.06 363.6,1535.68 376.016,1129.75 388.433,404.278 400.849,173.254 413.265,240.5 425.682,318.871 438.098,389.553 450.514,449.763 462.931,516.355 475.347,578.201 487.763,631.376 500.18,685.205 512.596,741.979 525.012,790.737 537.429,830.986 549.845,875.489 562.261,916.884 574.678,959.424 587.094,996.564 599.51,1031.58 611.927,1062.34 624.343,1092.28 636.759,1122.87 649.176,1153.63 661.592,1184.23 674.008,1209.92 686.425,1234.13 698.841,1258.51 711.257,1281.25 723.674,1301.54 736.09,1322.16 748.506,1340.16 760.923,1357.33 773.339,1376.64 785.755,1394.64 798.172,1410.35 810.588,1425.07 823.004,1439.47 835.421,1451.58 847.837,1463.36 860.253,1474.32 872.67,1484.95 885.086,1496.24 897.502,1505.57 909.919,1516.04 922.335,1525.53 934.751,1533.71 947.168,1540.75 959.584,1546.96 972,1555.31 984.417,1563.33 996.833,1569.22 1009.25,1575.27 1021.67,1581.49 1034.08,1587.87 1046.5,1591.47 1058.91,1595.39 1071.33,1600.63 1083.75,1605.54 1096.16,1608.81 1108.58,1612.25 1121,1615.52 1133.41,1618.79 1145.83,1622.23 1158.25,1625.99 1170.66,1628.61 1183.08,1632.04 1195.49,1635.64 1207.91,1638.26 1220.33,1640.22 1232.74,1643.01 1245.16,1645.3 1257.58,1647.1 1269.99,1649.55 1282.41,1651.68 1294.83,1653.64 1307.24,1654.95 1319.66,1655.6 1332.07,1657.57 1344.49,1658.71 1356.91,1659.7 1369.32,1660.68 1381.74,1662.64 1394.16,1663.46 1406.57,1665.26 1418.99,1666.73 1431.4,1668.2 1443.82,1669.51 1456.24,1670.33 1468.65,1671.64 1481.07,1672.78 1493.49,1673.77 1505.9,1674.42 1518.32,1674.91 1530.74,1675.57 1543.15,1676.22 1555.57,1676.55 1567.98,1677.37 1580.4,1678.35 1592.82,1679.66 1605.23,1680.47 1617.65,1680.8 1630.07,1681.29 1642.48,1681.62 1654.9,1681.95 1667.32,1682.27 1679.73,1682.6 1692.15,1682.93 1704.56,1683.26 1716.98,1683.58 1729.4,1683.58 1741.81,1683.91 1754.23,1684.07 1766.65,1684.56 1779.06,1684.73 1791.48,1684.89 1803.89,1685.55 1816.31,1685.55 1828.73,1685.55 1841.14,1685.55 1853.56,1685.71 1865.98,1685.87 1878.39,1685.87 1890.81,1685.87 1903.23,1686.04 1915.64,1686.2 1928.06,1686.2 1940.47,1686.2 1952.89,1686.2 1965.31,1686.53 1977.72,1686.53 1990.14,1686.53 2002.56,1686.86 2014.97,1687.02 2027.39,1687.02 2039.81,1687.18 2052.22,1687.35 2064.64,1687.35 2077.05,1687.35 2089.47,1687.51 2101.89,1687.51 2114.3,1687.51 2126.72,1687.67 2139.14,1687.67 2151.55,1687.67 2163.97,1687.67 2176.38,1687.67 2188.8,1687.67 2201.22,1687.84 2213.63,1687.84 2226.05,1687.84 2238.47,1687.84 2250.88,1687.84 2263.3,1687.84 2275.72,1687.84 2288.13,1687.84 2300.55,1687.84 2312.96,1687.84 2325.38,1688 2337.8,1688.16 2350.21,1688.16 2362.63,1688.16 2375.05,1688.16 2387.46,1688.16 2399.88,1688.16 2412.3,1688.16 2424.71,1688.16 2437.13,1688.16 2449.54,1688.16 2461.96,1688.16 2474.38,1688.16 2486.79,1688.16 2499.21,1688.16 2511.63,1688.16 2524.04,1688.16 2536.46,1688.33 2548.88,1688.33 2561.29,1688.33 2573.71,1688.33 "/>
<polyline clip-path="url(#clip581)" style="stroke:#ff0000; stroke-linecap:round; stroke-linejoin:round; stroke-width:8; stroke-opacity:1; fill:none" points="338.767,1687.02 351.184,1687.18 363.6,1687.51 376.016,1687.67 388.433,1688 400.849,1688 413.265,1688 425.682,1688.16 438.098,1681.95 450.514,1677.37 462.931,1674.58 475.347,1673.77 487.763,1673.28 500.18,1672.62 512.596,1672.62 525.012,1673.11 537.429,1650.04 549.845,1613.72 562.261,1574.29 574.678,1528.97 587.094,1490.84 599.51,1464.18 611.927,1436.2 624.343,1417.22 636.759,1333.28 649.176,1201.41 661.592,1021.6 674.008,842.766 686.425,729.545 698.841,674.897 711.257,669.825 723.674,714.165 736.09,769.794 748.506,834.258 760.923,904.94 773.339,967.932 785.755,1027.49 798.172,1086.55 810.588,1142.51 823.004,1189.47 835.421,1232.01 847.837,1274.55 860.253,1309.72 872.67,1341.46 885.086,1369.93 897.502,1396.28 909.919,1421.14 922.335,1447 934.751,1469.74 947.168,1486.59 959.584,1502.95 972,1518.66 984.417,1531.91 996.833,1544.35 1009.25,1557.27 1021.67,1567.42 1034.08,1577.89 1046.5,1588.52 1058.91,1599.65 1071.33,1607.5 1083.75,1614.21 1096.16,1621.57 1108.58,1626.81 1121,1631.55 1133.41,1636.63 1145.83,1642.19 1158.25,1645.95 1170.66,1650.04 1183.08,1653.15 1195.49,1656.26 1207.91,1659.04 1220.33,1661.66 1232.74,1663.62 1245.16,1665.26 1257.58,1667.06 1269.99,1668.69 1282.41,1670.66 1294.83,1672.62 1307.24,1674.09 1319.66,1675.4 1332.07,1676.87 1344.49,1678.18 1356.91,1679.17 1369.32,1679.98 1381.74,1680.8 1394.16,1681.46 1406.57,1682.44 1418.99,1682.44 1431.4,1683.26 1443.82,1683.75 1456.24,1683.91 1468.65,1684.56 1481.07,1684.89 1493.49,1685.55 1505.9,1685.55 1518.32,1685.87 1530.74,1686.04 1543.15,1686.04 1555.57,1686.53 1567.98,1686.69 1580.4,1687.18 1592.82,1687.35 1605.23,1687.51 1617.65,1687.51 1630.07,1687.51 1642.48,1687.51 1654.9,1687.51 1667.32,1687.51 1679.73,1687.67 1692.15,1688 1704.56,1688 1716.98,1688 1729.4,1688 1741.81,1688.16 1754.23,1688.16 1766.65,1688.16 1779.06,1688.16 1791.48,1688.16 1803.89,1688.16 1816.31,1688.16 1828.73,1688.16 1841.14,1688.16 1853.56,1688.16 1865.98,1688.33 1878.39,1688.33 1890.81,1688.33 1903.23,1688.33 1915.64,1688.33 1928.06,1688.33 1940.47,1688.33 1952.89,1688.33 1965.31,1688.33 1977.72,1688.49 1990.14,1688.49 2002.56,1688.49 2014.97,1688.49 2027.39,1688.49 2039.81,1688.65 2052.22,1688.65 2064.64,1688.65 2077.05,1688.65 2089.47,1688.65 2101.89,1688.65 2114.3,1688.65 2126.72,1688.65 2139.14,1688.65 2151.55,1688.65 2163.97,1688.65 2176.38,1688.65 2188.8,1688.65 2201.22,1688.65 2213.63,1688.65 2226.05,1688.65 2238.47,1688.65 2250.88,1688.65 2263.3,1688.65 2275.72,1688.65 2288.13,1688.65 2300.55,1688.65 2312.96,1688.65 2325.38,1688.65 2337.8,1688.65 2350.21,1688.65 2362.63,1688.65 2375.05,1688.65 2387.46,1688.65 2399.88,1688.65 2412.3,1688.65 2424.71,1688.65 2437.13,1688.65 2449.54,1688.65 2461.96,1688.65 2474.38,1688.65 2486.79,1688.65 2499.21,1688.65 2511.63,1688.65 2524.04,1688.65 2536.46,1688.65 2548.88,1688.65 2561.29,1688.65 2573.71,1688.65 "/>
<polyline clip-path="url(#clip581)" style="stroke:#ffa500; stroke-linecap:round; stroke-linejoin:round; stroke-width:8; stroke-opacity:1; fill:none" points="338.767,1682.27 351.184,1677.2 363.6,1673.28 376.016,1670.98 388.433,1669.18 400.849,1667.22 413.265,1665.59 425.682,1664.44 438.098,1646.93 450.514,1612.74 462.931,1570.03 475.347,1517.84 487.763,1470.23 500.18,1428.02 512.596,1379.75 525.012,1337.54 537.429,1253.11 549.845,1123.86 562.261,948.461 574.678,767.831 587.094,630.394 599.51,537.788 611.927,497.702 624.343,492.467 636.759,567.73 649.176,717.437 661.592,931.773 674.008,1163.94 686.425,1350.3 698.841,1487.08 711.257,1577.07 723.674,1625.66 736.09,1658.71 748.506,1677.53 760.923,1685.22 773.339,1688.16 785.755,1688.65 798.172,1688.65 810.588,1688.65 823.004,1688.65 835.421,1688.65 847.837,1688.65 860.253,1688.65 872.67,1688.65 885.086,1688.65 897.502,1688.65 909.919,1688.65 922.335,1688.65 934.751,1688.65 947.168,1688.65 959.584,1688.65 972,1688.65 984.417,1688.65 996.833,1688.65 1009.25,1688.65 1021.67,1688.65 1034.08,1688.65 1046.5,1688.65 1058.91,1688.65 1071.33,1688.65 1083.75,1688.65 1096.16,1688.65 1108.58,1688.65 1121,1688.65 1133.41,1688.65 1145.83,1688.65 1158.25,1688.65 1170.66,1688.65 1183.08,1688.65 1195.49,1688.65 1207.91,1688.65 1220.33,1688.65 1232.74,1688.65 1245.16,1688.65 1257.58,1688.65 1269.99,1688.65 1282.41,1688.65 1294.83,1688.65 1307.24,1688.65 1319.66,1688.65 1332.07,1688.65 1344.49,1688.65 1356.91,1688.65 1369.32,1688.65 1381.74,1688.65 1394.16,1688.65 1406.57,1688.65 1418.99,1688.65 1431.4,1688.65 1443.82,1688.65 1456.24,1688.65 1468.65,1688.65 1481.07,1688.65 1493.49,1688.65 1505.9,1688.65 1518.32,1688.65 1530.74,1688.65 1543.15,1688.65 1555.57,1688.65 1567.98,1688.65 1580.4,1688.65 1592.82,1688.65 1605.23,1688.65 1617.65,1688.65 1630.07,1688.65 1642.48,1688.65 1654.9,1688.65 1667.32,1688.65 1679.73,1688.65 1692.15,1688.65 1704.56,1688.65 1716.98,1688.65 1729.4,1688.65 1741.81,1688.65 1754.23,1688.65 1766.65,1688.65 1779.06,1688.65 1791.48,1688.65 1803.89,1688.65 1816.31,1688.65 1828.73,1688.65 1841.14,1688.65 1853.56,1688.65 1865.98,1688.65 1878.39,1688.65 1890.81,1688.65 1903.23,1688.65 1915.64,1688.65 1928.06,1688.65 1940.47,1688.65 1952.89,1688.65 1965.31,1688.65 1977.72,1688.65 1990.14,1688.65 2002.56,1688.65 2014.97,1688.65 2027.39,1688.65 2039.81,1688.65 2052.22,1688.65 2064.64,1688.65 2077.05,1688.65 2089.47,1688.65 2101.89,1688.65 2114.3,1688.65 2126.72,1688.65 2139.14,1688.65 2151.55,1688.65 2163.97,1688.65 2176.38,1688.65 2188.8,1688.65 2201.22,1688.65 2213.63,1688.65 2226.05,1688.65 2238.47,1688.65 2250.88,1688.65 2263.3,1688.65 2275.72,1688.65 2288.13,1688.65 2300.55,1688.65 2312.96,1688.65 2325.38,1688.65 2337.8,1688.65 2350.21,1688.65 2362.63,1688.65 2375.05,1688.65 2387.46,1688.65 2399.88,1688.65 2412.3,1688.65 2424.71,1688.65 2437.13,1688.65 2449.54,1688.65 2461.96,1688.65 2474.38,1688.65 2486.79,1688.65 2499.21,1688.65 2511.63,1688.65 2524.04,1688.65 2536.46,1688.65 2548.88,1688.65 2561.29,1688.65 2573.71,1688.65 "/>
<path clip-path="url(#clip580)" d="M1942.41 388.696 L2561.79 388.696 L2561.79 181.336 L1942.41 181.336  Z" fill="#ffffff" fill-rule="evenodd" fill-opacity="1"/>
<polyline clip-path="url(#clip580)" style="stroke:#000000; stroke-linecap:round; stroke-linejoin:round; stroke-width:4; stroke-opacity:1; fill:none" points="1942.41,388.696 2561.79,388.696 2561.79,181.336 1942.41,181.336 1942.41,388.696 "/>
<polyline clip-path="url(#clip580)" style="stroke:#ff0000; stroke-linecap:round; stroke-linejoin:round; stroke-width:8; stroke-opacity:1; fill:none" stroke-dasharray="32, 20" points="1968.73,233.176 2126.67,233.176 "/>
<path clip-path="url(#clip580)" d="M2175.24 217.031 L2175.24 221.591 Q2172.57 220.318 2170.21 219.693 Q2167.85 219.068 2165.65 219.068 Q2161.83 219.068 2159.75 220.549 Q2157.69 222.031 2157.69 224.762 Q2157.69 227.054 2159.06 228.234 Q2160.44 229.392 2164.29 230.109 L2167.11 230.688 Q2172.34 231.683 2174.82 234.206 Q2177.32 236.706 2177.32 240.919 Q2177.32 245.942 2173.94 248.535 Q2170.58 251.128 2164.08 251.128 Q2161.62 251.128 2158.85 250.572 Q2156.09 250.016 2153.13 248.929 L2153.13 244.114 Q2155.98 245.711 2158.71 246.521 Q2161.44 247.331 2164.08 247.331 Q2168.08 247.331 2170.26 245.757 Q2172.43 244.183 2172.43 241.267 Q2172.43 238.72 2170.86 237.285 Q2169.31 235.85 2165.75 235.132 L2162.9 234.577 Q2157.67 233.535 2155.33 231.313 Q2152.99 229.091 2152.99 225.132 Q2152.99 220.549 2156.21 217.91 Q2159.45 215.271 2165.12 215.271 Q2167.55 215.271 2170.07 215.711 Q2172.6 216.151 2175.24 217.031 Z" fill="#000000" fill-rule="nonzero" fill-opacity="1" /><path clip-path="url(#clip580)" d="M2184.61 215.896 L2189.29 215.896 L2189.29 250.456 L2184.61 250.456 L2184.61 215.896 Z" fill="#000000" fill-rule="nonzero" fill-opacity="1" /><path clip-path="url(#clip580)" d="M2214.98 234.253 Q2216.49 234.762 2217.9 236.429 Q2219.33 238.095 2220.77 241.012 L2225.51 250.456 L2220.49 250.456 L2216.07 241.591 Q2214.36 238.118 2212.74 236.984 Q2211.14 235.85 2208.36 235.85 L2203.27 235.85 L2203.27 250.456 L2198.59 250.456 L2198.59 215.896 L2209.15 215.896 Q2215.07 215.896 2217.99 218.373 Q2220.91 220.85 2220.91 225.85 Q2220.91 229.114 2219.38 231.267 Q2217.87 233.419 2214.98 234.253 M2203.27 219.739 L2203.27 232.007 L2209.15 232.007 Q2212.53 232.007 2214.24 230.456 Q2215.98 228.882 2215.98 225.85 Q2215.98 222.818 2214.24 221.29 Q2212.53 219.739 2209.15 219.739 L2203.27 219.739 Z" fill="#000000" fill-rule="nonzero" fill-opacity="1" /><path clip-path="url(#clip580)" d="M2256.65 214.484 Q2253.55 219.808 2252.04 225.017 Q2250.54 230.225 2250.54 235.572 Q2250.54 240.919 2252.04 246.174 Q2253.57 251.405 2256.65 256.706 L2252.94 256.706 Q2249.47 251.266 2247.74 246.012 Q2246.02 240.757 2246.02 235.572 Q2246.02 230.41 2247.74 225.179 Q2249.45 219.947 2252.94 214.484 L2256.65 214.484 Z" fill="#000000" fill-rule="nonzero" fill-opacity="1" /><path clip-path="url(#clip580)" d="M2264.91 224.531 L2269.17 224.531 L2269.17 250.456 L2264.91 250.456 L2264.91 224.531 M2264.91 214.438 L2269.17 214.438 L2269.17 219.831 L2264.91 219.831 L2264.91 214.438 Z" fill="#000000" fill-rule="nonzero" fill-opacity="1" /><path clip-path="url(#clip580)" d="M2299.63 234.808 L2299.63 250.456 L2295.37 250.456 L2295.37 234.947 Q2295.37 231.267 2293.94 229.438 Q2292.5 227.609 2289.63 227.609 Q2286.18 227.609 2284.19 229.808 Q2282.2 232.007 2282.2 235.804 L2282.2 250.456 L2277.92 250.456 L2277.92 224.531 L2282.2 224.531 L2282.2 228.558 Q2283.73 226.22 2285.79 225.063 Q2287.87 223.906 2290.58 223.906 Q2295.05 223.906 2297.34 226.683 Q2299.63 229.438 2299.63 234.808 Z" fill="#000000" fill-rule="nonzero" fill-opacity="1" /><path clip-path="url(#clip580)" d="M2321.25 214.438 L2321.25 217.98 L2317.18 217.98 Q2314.89 217.98 2313.99 218.906 Q2313.11 219.831 2313.11 222.239 L2313.11 224.531 L2320.12 224.531 L2320.12 227.841 L2313.11 227.841 L2313.11 250.456 L2308.82 250.456 L2308.82 227.841 L2304.75 227.841 L2304.75 224.531 L2308.82 224.531 L2308.82 222.725 Q2308.82 218.396 2310.84 216.429 Q2312.85 214.438 2317.23 214.438 L2321.25 214.438 Z" fill="#000000" fill-rule="nonzero" fill-opacity="1" /><path clip-path="url(#clip580)" d="M2346.99 236.429 L2346.99 238.512 L2327.41 238.512 Q2327.69 242.91 2330.05 245.225 Q2332.43 247.516 2336.67 247.516 Q2339.12 247.516 2341.42 246.915 Q2343.73 246.313 2346 245.109 L2346 249.137 Q2343.71 250.109 2341.3 250.618 Q2338.89 251.128 2336.42 251.128 Q2330.21 251.128 2326.58 247.516 Q2322.97 243.905 2322.97 237.748 Q2322.97 231.382 2326.39 227.655 Q2329.84 223.906 2335.67 223.906 Q2340.91 223.906 2343.94 227.285 Q2346.99 230.642 2346.99 236.429 M2342.73 235.179 Q2342.69 231.683 2340.77 229.6 Q2338.87 227.517 2335.72 227.517 Q2332.16 227.517 2330 229.53 Q2327.87 231.544 2327.55 235.202 L2342.73 235.179 Z" fill="#000000" fill-rule="nonzero" fill-opacity="1" /><path clip-path="url(#clip580)" d="M2372.64 225.526 L2372.64 229.507 Q2370.84 228.512 2369.01 228.026 Q2367.2 227.517 2365.35 227.517 Q2361.21 227.517 2358.92 230.155 Q2356.62 232.771 2356.62 237.517 Q2356.62 242.262 2358.92 244.901 Q2361.21 247.516 2365.35 247.516 Q2367.2 247.516 2369.01 247.03 Q2370.84 246.521 2372.64 245.526 L2372.64 249.461 Q2370.86 250.294 2368.94 250.711 Q2367.04 251.128 2364.89 251.128 Q2359.03 251.128 2355.58 247.447 Q2352.13 243.767 2352.13 237.517 Q2352.13 231.174 2355.61 227.54 Q2359.1 223.906 2365.17 223.906 Q2367.13 223.906 2369.01 224.322 Q2370.88 224.716 2372.64 225.526 Z" fill="#000000" fill-rule="nonzero" fill-opacity="1" /><path clip-path="url(#clip580)" d="M2384.26 217.169 L2384.26 224.531 L2393.04 224.531 L2393.04 227.841 L2384.26 227.841 L2384.26 241.915 Q2384.26 245.086 2385.12 245.989 Q2386 246.891 2388.66 246.891 L2393.04 246.891 L2393.04 250.456 L2388.66 250.456 Q2383.73 250.456 2381.86 248.628 Q2379.98 246.776 2379.98 241.915 L2379.98 227.841 L2376.86 227.841 L2376.86 224.531 L2379.98 224.531 L2379.98 217.169 L2384.26 217.169 Z" fill="#000000" fill-rule="nonzero" fill-opacity="1" /><path clip-path="url(#clip580)" d="M2420.81 236.429 L2420.81 238.512 L2401.23 238.512 Q2401.51 242.91 2403.87 245.225 Q2406.25 247.516 2410.49 247.516 Q2412.94 247.516 2415.23 246.915 Q2417.55 246.313 2419.82 245.109 L2419.82 249.137 Q2417.53 250.109 2415.12 250.618 Q2412.71 251.128 2410.23 251.128 Q2404.03 251.128 2400.4 247.516 Q2396.79 243.905 2396.79 237.748 Q2396.79 231.382 2400.21 227.655 Q2403.66 223.906 2409.49 223.906 Q2414.73 223.906 2417.76 227.285 Q2420.81 230.642 2420.81 236.429 M2416.55 235.179 Q2416.51 231.683 2414.59 229.6 Q2412.69 227.517 2409.54 227.517 Q2405.98 227.517 2403.82 229.53 Q2401.69 231.544 2401.37 235.202 L2416.55 235.179 Z" fill="#000000" fill-rule="nonzero" fill-opacity="1" /><path clip-path="url(#clip580)" d="M2444.86 228.466 L2444.86 214.438 L2449.12 214.438 L2449.12 250.456 L2444.86 250.456 L2444.86 246.567 Q2443.52 248.882 2441.46 250.016 Q2439.42 251.128 2436.55 251.128 Q2431.85 251.128 2428.89 247.378 Q2425.95 243.628 2425.95 237.517 Q2425.95 231.405 2428.89 227.655 Q2431.85 223.906 2436.55 223.906 Q2439.42 223.906 2441.46 225.04 Q2443.52 226.151 2444.86 228.466 M2430.35 237.517 Q2430.35 242.216 2432.27 244.901 Q2434.22 247.563 2437.6 247.563 Q2440.98 247.563 2442.92 244.901 Q2444.86 242.216 2444.86 237.517 Q2444.86 232.817 2442.92 230.155 Q2440.98 227.47 2437.6 227.47 Q2434.22 227.47 2432.27 230.155 Q2430.35 232.817 2430.35 237.517 Z" fill="#000000" fill-rule="nonzero" fill-opacity="1" /><path clip-path="url(#clip580)" d="M2457.23 214.484 L2460.93 214.484 Q2464.4 219.947 2466.11 225.179 Q2467.85 230.41 2467.85 235.572 Q2467.85 240.757 2466.11 246.012 Q2464.4 251.266 2460.93 256.706 L2457.23 256.706 Q2460.3 251.405 2461.81 246.174 Q2463.34 240.919 2463.34 235.572 Q2463.34 230.225 2461.81 225.017 Q2460.3 219.808 2457.23 214.484 Z" fill="#000000" fill-rule="nonzero" fill-opacity="1" /><polyline clip-path="url(#clip580)" style="stroke:#ff0000; stroke-linecap:round; stroke-linejoin:round; stroke-width:8; stroke-opacity:1; fill:none" points="1968.73,285.016 2126.67,285.016 "/>
<path clip-path="url(#clip580)" d="M2175.24 268.871 L2175.24 273.431 Q2172.57 272.158 2170.21 271.533 Q2167.85 270.908 2165.65 270.908 Q2161.83 270.908 2159.75 272.389 Q2157.69 273.871 2157.69 276.602 Q2157.69 278.894 2159.06 280.074 Q2160.44 281.232 2164.29 281.949 L2167.11 282.528 Q2172.34 283.523 2174.82 286.046 Q2177.32 288.546 2177.32 292.759 Q2177.32 297.782 2173.94 300.375 Q2170.58 302.968 2164.08 302.968 Q2161.62 302.968 2158.85 302.412 Q2156.09 301.856 2153.13 300.769 L2153.13 295.954 Q2155.98 297.551 2158.71 298.361 Q2161.44 299.171 2164.08 299.171 Q2168.08 299.171 2170.26 297.597 Q2172.43 296.023 2172.43 293.107 Q2172.43 290.56 2170.86 289.125 Q2169.31 287.69 2165.75 286.972 L2162.9 286.417 Q2157.67 285.375 2155.33 283.153 Q2152.99 280.931 2152.99 276.972 Q2152.99 272.389 2156.21 269.75 Q2159.45 267.111 2165.12 267.111 Q2167.55 267.111 2170.07 267.551 Q2172.6 267.991 2175.24 268.871 Z" fill="#000000" fill-rule="nonzero" fill-opacity="1" /><path clip-path="url(#clip580)" d="M2184.61 267.736 L2206.46 267.736 L2206.46 271.671 L2189.29 271.671 L2189.29 281.903 L2205.74 281.903 L2205.74 285.838 L2189.29 285.838 L2189.29 298.361 L2206.88 298.361 L2206.88 302.296 L2184.61 302.296 L2184.61 267.736 Z" fill="#000000" fill-rule="nonzero" fill-opacity="1" /><path clip-path="url(#clip580)" d="M2214.56 267.736 L2219.24 267.736 L2219.24 302.296 L2214.56 302.296 L2214.56 267.736 Z" fill="#000000" fill-rule="nonzero" fill-opacity="1" /><path clip-path="url(#clip580)" d="M2244.93 286.093 Q2246.44 286.602 2247.85 288.269 Q2249.29 289.935 2250.72 292.852 L2255.47 302.296 L2250.44 302.296 L2246.02 293.431 Q2244.31 289.958 2242.69 288.824 Q2241.09 287.69 2238.31 287.69 L2233.22 287.69 L2233.22 302.296 L2228.55 302.296 L2228.55 267.736 L2239.1 267.736 Q2245.03 267.736 2247.94 270.213 Q2250.86 272.69 2250.86 277.69 Q2250.86 280.954 2249.33 283.107 Q2247.83 285.259 2244.93 286.093 M2233.22 271.579 L2233.22 283.847 L2239.1 283.847 Q2242.48 283.847 2244.19 282.296 Q2245.93 280.722 2245.93 277.69 Q2245.93 274.658 2244.19 273.13 Q2242.48 271.579 2239.1 271.579 L2233.22 271.579 Z" fill="#000000" fill-rule="nonzero" fill-opacity="1" /><path clip-path="url(#clip580)" d="M2286.6 266.324 Q2283.5 271.648 2281.99 276.857 Q2280.49 282.065 2280.49 287.412 Q2280.49 292.759 2281.99 298.014 Q2283.52 303.245 2286.6 308.546 L2282.9 308.546 Q2279.43 303.106 2277.69 297.852 Q2275.98 292.597 2275.98 287.412 Q2275.98 282.25 2277.69 277.019 Q2279.4 271.787 2282.9 266.324 L2286.6 266.324 Z" fill="#000000" fill-rule="nonzero" fill-opacity="1" /><path clip-path="url(#clip580)" d="M2294.86 276.371 L2299.12 276.371 L2299.12 302.296 L2294.86 302.296 L2294.86 276.371 M2294.86 266.278 L2299.12 266.278 L2299.12 271.671 L2294.86 271.671 L2294.86 266.278 Z" fill="#000000" fill-rule="nonzero" fill-opacity="1" /><path clip-path="url(#clip580)" d="M2329.59 286.648 L2329.59 302.296 L2325.33 302.296 L2325.33 286.787 Q2325.33 283.107 2323.89 281.278 Q2322.46 279.449 2319.59 279.449 Q2316.14 279.449 2314.15 281.648 Q2312.16 283.847 2312.16 287.644 L2312.16 302.296 L2307.87 302.296 L2307.87 276.371 L2312.16 276.371 L2312.16 280.398 Q2313.68 278.06 2315.74 276.903 Q2317.83 275.746 2320.54 275.746 Q2325 275.746 2327.3 278.523 Q2329.59 281.278 2329.59 286.648 Z" fill="#000000" fill-rule="nonzero" fill-opacity="1" /><path clip-path="url(#clip580)" d="M2351.21 266.278 L2351.21 269.82 L2347.13 269.82 Q2344.84 269.82 2343.94 270.746 Q2343.06 271.671 2343.06 274.079 L2343.06 276.371 L2350.07 276.371 L2350.07 279.681 L2343.06 279.681 L2343.06 302.296 L2338.78 302.296 L2338.78 279.681 L2334.7 279.681 L2334.7 276.371 L2338.78 276.371 L2338.78 274.565 Q2338.78 270.236 2340.79 268.269 Q2342.8 266.278 2347.18 266.278 L2351.21 266.278 Z" fill="#000000" fill-rule="nonzero" fill-opacity="1" /><path clip-path="url(#clip580)" d="M2376.95 288.269 L2376.95 290.352 L2357.36 290.352 Q2357.64 294.75 2360 297.065 Q2362.39 299.356 2366.62 299.356 Q2369.08 299.356 2371.37 298.755 Q2373.68 298.153 2375.95 296.949 L2375.95 300.977 Q2373.66 301.949 2371.25 302.458 Q2368.85 302.968 2366.37 302.968 Q2360.17 302.968 2356.53 299.356 Q2352.92 295.745 2352.92 289.588 Q2352.92 283.222 2356.35 279.495 Q2359.8 275.746 2365.63 275.746 Q2370.86 275.746 2373.89 279.125 Q2376.95 282.482 2376.95 288.269 M2372.69 287.019 Q2372.64 283.523 2370.72 281.44 Q2368.82 279.357 2365.67 279.357 Q2362.11 279.357 2359.96 281.37 Q2357.83 283.384 2357.5 287.042 L2372.69 287.019 Z" fill="#000000" fill-rule="nonzero" fill-opacity="1" /><path clip-path="url(#clip580)" d="M2402.6 277.366 L2402.6 281.347 Q2400.79 280.352 2398.96 279.866 Q2397.16 279.357 2395.3 279.357 Q2391.16 279.357 2388.87 281.995 Q2386.58 284.611 2386.58 289.357 Q2386.58 294.102 2388.87 296.741 Q2391.16 299.356 2395.3 299.356 Q2397.16 299.356 2398.96 298.87 Q2400.79 298.361 2402.6 297.366 L2402.6 301.301 Q2400.81 302.134 2398.89 302.551 Q2396.99 302.968 2394.84 302.968 Q2388.98 302.968 2385.54 299.287 Q2382.09 295.607 2382.09 289.357 Q2382.09 283.014 2385.56 279.38 Q2389.05 275.746 2395.12 275.746 Q2397.09 275.746 2398.96 276.162 Q2400.84 276.556 2402.6 277.366 Z" fill="#000000" fill-rule="nonzero" fill-opacity="1" /><path clip-path="url(#clip580)" d="M2414.22 269.009 L2414.22 276.371 L2422.99 276.371 L2422.99 279.681 L2414.22 279.681 L2414.22 293.755 Q2414.22 296.926 2415.07 297.829 Q2415.95 298.731 2418.61 298.731 L2422.99 298.731 L2422.99 302.296 L2418.61 302.296 Q2413.68 302.296 2411.81 300.468 Q2409.93 298.616 2409.93 293.755 L2409.93 279.681 L2406.81 279.681 L2406.81 276.371 L2409.93 276.371 L2409.93 269.009 L2414.22 269.009 Z" fill="#000000" fill-rule="nonzero" fill-opacity="1" /><path clip-path="url(#clip580)" d="M2428.59 276.371 L2432.85 276.371 L2432.85 302.296 L2428.59 302.296 L2428.59 276.371 M2428.59 266.278 L2432.85 266.278 L2432.85 271.671 L2428.59 271.671 L2428.59 266.278 Z" fill="#000000" fill-rule="nonzero" fill-opacity="1" /><path clip-path="url(#clip580)" d="M2451.81 279.357 Q2448.38 279.357 2446.39 282.042 Q2444.4 284.704 2444.4 289.357 Q2444.4 294.009 2446.37 296.694 Q2448.36 299.356 2451.81 299.356 Q2455.21 299.356 2457.2 296.671 Q2459.19 293.986 2459.19 289.357 Q2459.19 284.75 2457.2 282.065 Q2455.21 279.357 2451.81 279.357 M2451.81 275.746 Q2457.36 275.746 2460.54 279.357 Q2463.71 282.968 2463.71 289.357 Q2463.71 295.722 2460.54 299.356 Q2457.36 302.968 2451.81 302.968 Q2446.23 302.968 2443.06 299.356 Q2439.91 295.722 2439.91 289.357 Q2439.91 282.968 2443.06 279.357 Q2446.23 275.746 2451.81 275.746 Z" fill="#000000" fill-rule="nonzero" fill-opacity="1" /><path clip-path="url(#clip580)" d="M2470.33 292.065 L2470.33 276.371 L2474.59 276.371 L2474.59 291.903 Q2474.59 295.583 2476.02 297.435 Q2477.46 299.264 2480.33 299.264 Q2483.78 299.264 2485.77 297.065 Q2487.78 294.866 2487.78 291.069 L2487.78 276.371 L2492.04 276.371 L2492.04 302.296 L2487.78 302.296 L2487.78 298.315 Q2486.23 300.676 2484.17 301.833 Q2482.13 302.968 2479.42 302.968 Q2474.96 302.968 2472.64 300.19 Q2470.33 297.412 2470.33 292.065 M2481.04 275.746 L2481.04 275.746 Z" fill="#000000" fill-rule="nonzero" fill-opacity="1" /><path clip-path="url(#clip580)" d="M2517.34 277.134 L2517.34 281.162 Q2515.53 280.236 2513.59 279.773 Q2511.65 279.31 2509.56 279.31 Q2506.39 279.31 2504.79 280.283 Q2503.22 281.255 2503.22 283.199 Q2503.22 284.681 2504.35 285.537 Q2505.49 286.37 2508.91 287.134 L2510.37 287.458 Q2514.91 288.431 2516.81 290.213 Q2518.73 291.972 2518.73 295.144 Q2518.73 298.755 2515.86 300.861 Q2513.01 302.968 2508.01 302.968 Q2505.93 302.968 2503.66 302.551 Q2501.41 302.157 2498.91 301.347 L2498.91 296.949 Q2501.28 298.176 2503.57 298.801 Q2505.86 299.403 2508.1 299.403 Q2511.11 299.403 2512.73 298.384 Q2514.35 297.343 2514.35 295.468 Q2514.35 293.732 2513.17 292.806 Q2512.02 291.88 2508.06 291.023 L2506.58 290.676 Q2502.62 289.843 2500.86 288.13 Q2499.1 286.394 2499.1 283.384 Q2499.1 279.727 2501.69 277.736 Q2504.28 275.746 2509.05 275.746 Q2511.41 275.746 2513.5 276.093 Q2515.58 276.44 2517.34 277.134 Z" fill="#000000" fill-rule="nonzero" fill-opacity="1" /><path clip-path="url(#clip580)" d="M2524.84 266.324 L2528.54 266.324 Q2532.02 271.787 2533.73 277.019 Q2535.47 282.25 2535.47 287.412 Q2535.47 292.597 2533.73 297.852 Q2532.02 303.106 2528.54 308.546 L2524.84 308.546 Q2527.92 303.245 2529.42 298.014 Q2530.95 292.759 2530.95 287.412 Q2530.95 282.065 2529.42 276.857 Q2527.92 271.648 2524.84 266.324 Z" fill="#000000" fill-rule="nonzero" fill-opacity="1" /><polyline clip-path="url(#clip580)" style="stroke:#ffa500; stroke-linecap:round; stroke-linejoin:round; stroke-width:8; stroke-opacity:1; fill:none" points="1968.73,336.856 2126.67,336.856 "/>
<path clip-path="url(#clip580)" d="M2175.24 320.711 L2175.24 325.271 Q2172.57 323.998 2170.21 323.373 Q2167.85 322.748 2165.65 322.748 Q2161.83 322.748 2159.75 324.229 Q2157.69 325.711 2157.69 328.442 Q2157.69 330.734 2159.06 331.914 Q2160.44 333.072 2164.29 333.789 L2167.11 334.368 Q2172.34 335.363 2174.82 337.886 Q2177.32 340.386 2177.32 344.599 Q2177.32 349.622 2173.94 352.215 Q2170.58 354.808 2164.08 354.808 Q2161.62 354.808 2158.85 354.252 Q2156.09 353.696 2153.13 352.609 L2153.13 347.794 Q2155.98 349.391 2158.71 350.201 Q2161.44 351.011 2164.08 351.011 Q2168.08 351.011 2170.26 349.437 Q2172.43 347.863 2172.43 344.947 Q2172.43 342.4 2170.86 340.965 Q2169.31 339.53 2165.75 338.812 L2162.9 338.257 Q2157.67 337.215 2155.33 334.993 Q2152.99 332.771 2152.99 328.812 Q2152.99 324.229 2156.21 321.59 Q2159.45 318.951 2165.12 318.951 Q2167.55 318.951 2170.07 319.391 Q2172.6 319.831 2175.24 320.711 Z" fill="#000000" fill-rule="nonzero" fill-opacity="1" /><path clip-path="url(#clip580)" d="M2184.61 319.576 L2206.46 319.576 L2206.46 323.511 L2189.29 323.511 L2189.29 333.743 L2205.74 333.743 L2205.74 337.678 L2189.29 337.678 L2189.29 350.201 L2206.88 350.201 L2206.88 354.136 L2184.61 354.136 L2184.61 319.576 Z" fill="#000000" fill-rule="nonzero" fill-opacity="1" /><path clip-path="url(#clip580)" d="M2214.56 319.576 L2219.24 319.576 L2219.24 354.136 L2214.56 354.136 L2214.56 319.576 Z" fill="#000000" fill-rule="nonzero" fill-opacity="1" /><path clip-path="url(#clip580)" d="M2244.93 337.933 Q2246.44 338.442 2247.85 340.109 Q2249.29 341.775 2250.72 344.692 L2255.47 354.136 L2250.44 354.136 L2246.02 345.271 Q2244.31 341.798 2242.69 340.664 Q2241.09 339.53 2238.31 339.53 L2233.22 339.53 L2233.22 354.136 L2228.55 354.136 L2228.55 319.576 L2239.1 319.576 Q2245.03 319.576 2247.94 322.053 Q2250.86 324.53 2250.86 329.53 Q2250.86 332.794 2249.33 334.947 Q2247.83 337.099 2244.93 337.933 M2233.22 323.419 L2233.22 335.687 L2239.1 335.687 Q2242.48 335.687 2244.19 334.136 Q2245.93 332.562 2245.93 329.53 Q2245.93 326.498 2244.19 324.97 Q2242.48 323.419 2239.1 323.419 L2233.22 323.419 Z" fill="#000000" fill-rule="nonzero" fill-opacity="1" /><path clip-path="url(#clip580)" d="M2286.6 318.164 Q2283.5 323.488 2281.99 328.697 Q2280.49 333.905 2280.49 339.252 Q2280.49 344.599 2281.99 349.854 Q2283.52 355.085 2286.6 360.386 L2282.9 360.386 Q2279.43 354.946 2277.69 349.692 Q2275.98 344.437 2275.98 339.252 Q2275.98 334.09 2277.69 328.859 Q2279.4 323.627 2282.9 318.164 L2286.6 318.164 Z" fill="#000000" fill-rule="nonzero" fill-opacity="1" /><path clip-path="url(#clip580)" d="M2317.04 340.109 L2317.04 342.192 L2297.46 342.192 Q2297.74 346.59 2300.1 348.905 Q2302.48 351.196 2306.72 351.196 Q2309.17 351.196 2311.46 350.595 Q2313.78 349.993 2316.05 348.789 L2316.05 352.817 Q2313.75 353.789 2311.35 354.298 Q2308.94 354.808 2306.46 354.808 Q2300.26 354.808 2296.62 351.196 Q2293.01 347.585 2293.01 341.428 Q2293.01 335.062 2296.44 331.335 Q2299.89 327.586 2305.72 327.586 Q2310.95 327.586 2313.99 330.965 Q2317.04 334.322 2317.04 340.109 M2312.78 338.859 Q2312.74 335.363 2310.81 333.28 Q2308.92 331.197 2305.77 331.197 Q2302.2 331.197 2300.05 333.21 Q2297.92 335.224 2297.6 338.882 L2312.78 338.859 Z" fill="#000000" fill-rule="nonzero" fill-opacity="1" /><path clip-path="url(#clip580)" d="M2344.75 328.211 L2335.37 340.826 L2345.23 354.136 L2340.21 354.136 L2332.67 343.951 L2325.12 354.136 L2320.1 354.136 L2330.17 340.572 L2320.95 328.211 L2325.98 328.211 L2332.85 337.447 L2339.73 328.211 L2344.75 328.211 Z" fill="#000000" fill-rule="nonzero" fill-opacity="1" /><path clip-path="url(#clip580)" d="M2355.37 350.247 L2355.37 363.997 L2351.09 363.997 L2351.09 328.211 L2355.37 328.211 L2355.37 332.146 Q2356.72 329.831 2358.75 328.72 Q2360.81 327.586 2363.66 327.586 Q2368.38 327.586 2371.32 331.335 Q2374.29 335.085 2374.29 341.197 Q2374.29 347.308 2371.32 351.058 Q2368.38 354.808 2363.66 354.808 Q2360.81 354.808 2358.75 353.696 Q2356.72 352.562 2355.37 350.247 M2369.86 341.197 Q2369.86 336.497 2367.92 333.835 Q2366 331.15 2362.62 331.15 Q2359.24 331.15 2357.3 333.835 Q2355.37 336.497 2355.37 341.197 Q2355.37 345.896 2357.3 348.581 Q2359.24 351.243 2362.62 351.243 Q2366 351.243 2367.92 348.581 Q2369.86 345.896 2369.86 341.197 Z" fill="#000000" fill-rule="nonzero" fill-opacity="1" /><path clip-path="url(#clip580)" d="M2391.39 331.197 Q2387.97 331.197 2385.98 333.882 Q2383.98 336.544 2383.98 341.197 Q2383.98 345.849 2385.95 348.534 Q2387.94 351.196 2391.39 351.196 Q2394.79 351.196 2396.79 348.511 Q2398.78 345.826 2398.78 341.197 Q2398.78 336.59 2396.79 333.905 Q2394.79 331.197 2391.39 331.197 M2391.39 327.586 Q2396.95 327.586 2400.12 331.197 Q2403.29 334.808 2403.29 341.197 Q2403.29 347.562 2400.12 351.196 Q2396.95 354.808 2391.39 354.808 Q2385.81 354.808 2382.64 351.196 Q2379.49 347.562 2379.49 341.197 Q2379.49 334.808 2382.64 331.197 Q2385.81 327.586 2391.39 327.586 Z" fill="#000000" fill-rule="nonzero" fill-opacity="1" /><path clip-path="url(#clip580)" d="M2426.88 328.974 L2426.88 333.002 Q2425.07 332.076 2423.13 331.613 Q2421.18 331.15 2419.1 331.15 Q2415.93 331.15 2414.33 332.123 Q2412.76 333.095 2412.76 335.039 Q2412.76 336.521 2413.89 337.377 Q2415.03 338.21 2418.45 338.974 L2419.91 339.298 Q2424.45 340.271 2426.35 342.053 Q2428.27 343.812 2428.27 346.984 Q2428.27 350.595 2425.4 352.701 Q2422.55 354.808 2417.55 354.808 Q2415.47 354.808 2413.2 354.391 Q2410.95 353.997 2408.45 353.187 L2408.45 348.789 Q2410.81 350.016 2413.1 350.641 Q2415.4 351.243 2417.64 351.243 Q2420.65 351.243 2422.27 350.224 Q2423.89 349.183 2423.89 347.308 Q2423.89 345.572 2422.71 344.646 Q2421.55 343.72 2417.6 342.863 L2416.11 342.516 Q2412.16 341.683 2410.4 339.97 Q2408.64 338.234 2408.64 335.224 Q2408.64 331.567 2411.23 329.576 Q2413.82 327.586 2418.59 327.586 Q2420.95 327.586 2423.04 327.933 Q2425.12 328.28 2426.88 328.974 Z" fill="#000000" fill-rule="nonzero" fill-opacity="1" /><path clip-path="url(#clip580)" d="M2457.23 340.109 L2457.23 342.192 L2437.64 342.192 Q2437.92 346.59 2440.28 348.905 Q2442.66 351.196 2446.9 351.196 Q2449.35 351.196 2451.65 350.595 Q2453.96 349.993 2456.23 348.789 L2456.23 352.817 Q2453.94 353.789 2451.53 354.298 Q2449.12 354.808 2446.65 354.808 Q2440.44 354.808 2436.81 351.196 Q2433.2 347.585 2433.2 341.428 Q2433.2 335.062 2436.62 331.335 Q2440.07 327.586 2445.91 327.586 Q2451.14 327.586 2454.17 330.965 Q2457.23 334.322 2457.23 340.109 M2452.97 338.859 Q2452.92 335.363 2451 333.28 Q2449.1 331.197 2445.95 331.197 Q2442.39 331.197 2440.23 333.21 Q2438.1 335.224 2437.78 338.882 L2452.97 338.859 Z" fill="#000000" fill-rule="nonzero" fill-opacity="1" /><path clip-path="url(#clip580)" d="M2481.28 332.146 L2481.28 318.118 L2485.54 318.118 L2485.54 354.136 L2481.28 354.136 L2481.28 350.247 Q2479.93 352.562 2477.87 353.696 Q2475.84 354.808 2472.97 354.808 Q2468.27 354.808 2465.3 351.058 Q2462.36 347.308 2462.36 341.197 Q2462.36 335.085 2465.3 331.335 Q2468.27 327.586 2472.97 327.586 Q2475.84 327.586 2477.87 328.72 Q2479.93 329.831 2481.28 332.146 M2466.76 341.197 Q2466.76 345.896 2468.68 348.581 Q2470.63 351.243 2474.01 351.243 Q2477.39 351.243 2479.33 348.581 Q2481.28 345.896 2481.28 341.197 Q2481.28 336.497 2479.33 333.835 Q2477.39 331.15 2474.01 331.15 Q2470.63 331.15 2468.68 333.835 Q2466.76 336.497 2466.76 341.197 Z" fill="#000000" fill-rule="nonzero" fill-opacity="1" /><path clip-path="url(#clip580)" d="M2493.64 318.164 L2497.34 318.164 Q2500.81 323.627 2502.53 328.859 Q2504.26 334.09 2504.26 339.252 Q2504.26 344.437 2502.53 349.692 Q2500.81 354.946 2497.34 360.386 L2493.64 360.386 Q2496.72 355.085 2498.22 349.854 Q2499.75 344.599 2499.75 339.252 Q2499.75 333.905 2498.22 328.697 Q2496.72 323.488 2493.64 318.164 Z" fill="#000000" fill-rule="nonzero" fill-opacity="1" /></svg>
