<?xml version="1.0" encoding="utf-8"?>
<svg xmlns="http://www.w3.org/2000/svg" xmlns:xlink="http://www.w3.org/1999/xlink" width="672" height="480" viewBox="0 0 2688 1920">
<defs>
  <clipPath id="clip030">
    <rect x="0" y="0" width="2688" height="1920"/>
  </clipPath>
</defs>
<path clip-path="url(#clip030)" d="M0 1920 L2688 1920 L2688 -4.26326e-14 L0 -4.26326e-14  Z" fill="#ffffff" fill-rule="evenodd" fill-opacity="1"/>
<defs>
  <clipPath id="clip031">
    <rect x="256" y="127" width="2385" height="1607"/>
  </clipPath>
</defs>
<path clip-path="url(#clip030)" d="M256.302 1734.12 L2640.76 1734.12 L2640.76 127.792 L256.302 127.792  Z" fill="#ffffff" fill-rule="evenodd" fill-opacity="1"/>
<polyline clip-path="url(#clip031)" style="stroke:#000000; stroke-linecap:round; stroke-linejoin:round; stroke-width:2; stroke-opacity:0.1; fill:none" points="323.787,1734.12 323.787,127.792 "/>
<polyline clip-path="url(#clip031)" style="stroke:#000000; stroke-linecap:round; stroke-linejoin:round; stroke-width:2; stroke-opacity:0.1; fill:none" points="886.158,1734.12 886.158,127.792 "/>
<polyline clip-path="url(#clip031)" style="stroke:#000000; stroke-linecap:round; stroke-linejoin:round; stroke-width:2; stroke-opacity:0.1; fill:none" points="1448.53,1734.12 1448.53,127.792 "/>
<polyline clip-path="url(#clip031)" style="stroke:#000000; stroke-linecap:round; stroke-linejoin:round; stroke-width:2; stroke-opacity:0.1; fill:none" points="2010.9,1734.12 2010.9,127.792 "/>
<polyline clip-path="url(#clip031)" style="stroke:#000000; stroke-linecap:round; stroke-linejoin:round; stroke-width:2; stroke-opacity:0.1; fill:none" points="2573.27,1734.12 2573.27,127.792 "/>
<polyline clip-path="url(#clip031)" style="stroke:#000000; stroke-linecap:round; stroke-linejoin:round; stroke-width:2; stroke-opacity:0.1; fill:none" points="256.302,1551.05 2640.76,1551.05 "/>
<polyline clip-path="url(#clip031)" style="stroke:#000000; stroke-linecap:round; stroke-linejoin:round; stroke-width:2; stroke-opacity:0.1; fill:none" points="256.302,1254.44 2640.76,1254.44 "/>
<polyline clip-path="url(#clip031)" style="stroke:#000000; stroke-linecap:round; stroke-linejoin:round; stroke-width:2; stroke-opacity:0.1; fill:none" points="256.302,957.831 2640.76,957.831 "/>
<polyline clip-path="url(#clip031)" style="stroke:#000000; stroke-linecap:round; stroke-linejoin:round; stroke-width:2; stroke-opacity:0.1; fill:none" points="256.302,661.223 2640.76,661.223 "/>
<polyline clip-path="url(#clip031)" style="stroke:#000000; stroke-linecap:round; stroke-linejoin:round; stroke-width:2; stroke-opacity:0.1; fill:none" points="256.302,364.614 2640.76,364.614 "/>
<polyline clip-path="url(#clip030)" style="stroke:#000000; stroke-linecap:round; stroke-linejoin:round; stroke-width:4; stroke-opacity:1; fill:none" points="256.302,1734.12 2640.76,1734.12 "/>
<polyline clip-path="url(#clip030)" style="stroke:#000000; stroke-linecap:round; stroke-linejoin:round; stroke-width:4; stroke-opacity:1; fill:none" points="323.787,1734.12 323.787,1715.22 "/>
<polyline clip-path="url(#clip030)" style="stroke:#000000; stroke-linecap:round; stroke-linejoin:round; stroke-width:4; stroke-opacity:1; fill:none" points="886.158,1734.12 886.158,1715.22 "/>
<polyline clip-path="url(#clip030)" style="stroke:#000000; stroke-linecap:round; stroke-linejoin:round; stroke-width:4; stroke-opacity:1; fill:none" points="1448.53,1734.12 1448.53,1715.22 "/>
<polyline clip-path="url(#clip030)" style="stroke:#000000; stroke-linecap:round; stroke-linejoin:round; stroke-width:4; stroke-opacity:1; fill:none" points="2010.9,1734.12 2010.9,1715.22 "/>
<polyline clip-path="url(#clip030)" style="stroke:#000000; stroke-linecap:round; stroke-linejoin:round; stroke-width:4; stroke-opacity:1; fill:none" points="2573.27,1734.12 2573.27,1715.22 "/>
<path clip-path="url(#clip030)" d="M323.787 1767.34 Q320.176 1767.34 318.347 1770.9 Q316.542 1774.45 316.542 1781.58 Q316.542 1788.68 318.347 1792.25 Q320.176 1795.79 323.787 1795.79 Q327.421 1795.79 329.227 1792.25 Q331.055 1788.68 331.055 1781.58 Q331.055 1774.45 329.227 1770.9 Q327.421 1767.34 323.787 1767.34 M323.787 1763.64 Q329.597 1763.64 332.653 1768.24 Q335.731 1772.83 335.731 1781.58 Q335.731 1790.3 332.653 1794.91 Q329.597 1799.49 323.787 1799.49 Q317.977 1799.49 314.898 1794.91 Q311.843 1790.3 311.843 1781.58 Q311.843 1772.83 314.898 1768.24 Q317.977 1763.64 323.787 1763.64 Z" fill="#000000" fill-rule="nonzero" fill-opacity="1" /><path clip-path="url(#clip030)" d="M860.846 1794.89 L868.485 1794.89 L868.485 1768.52 L860.174 1770.19 L860.174 1765.93 L868.438 1764.26 L873.114 1764.26 L873.114 1794.89 L880.753 1794.89 L880.753 1798.82 L860.846 1798.82 L860.846 1794.89 Z" fill="#000000" fill-rule="nonzero" fill-opacity="1" /><path clip-path="url(#clip030)" d="M900.197 1767.34 Q896.586 1767.34 894.758 1770.9 Q892.952 1774.45 892.952 1781.58 Q892.952 1788.68 894.758 1792.25 Q896.586 1795.79 900.197 1795.79 Q903.832 1795.79 905.637 1792.25 Q907.466 1788.68 907.466 1781.58 Q907.466 1774.45 905.637 1770.9 Q903.832 1767.34 900.197 1767.34 M900.197 1763.64 Q906.007 1763.64 909.063 1768.24 Q912.142 1772.83 912.142 1781.58 Q912.142 1790.3 909.063 1794.91 Q906.007 1799.49 900.197 1799.49 Q894.387 1799.49 891.308 1794.91 Q888.253 1790.3 888.253 1781.58 Q888.253 1772.83 891.308 1768.24 Q894.387 1763.64 900.197 1763.64 Z" fill="#000000" fill-rule="nonzero" fill-opacity="1" /><path clip-path="url(#clip030)" d="M1427.3 1794.89 L1443.62 1794.89 L1443.62 1798.82 L1421.68 1798.82 L1421.68 1794.89 Q1424.34 1792.13 1428.92 1787.5 Q1433.53 1782.85 1434.71 1781.51 Q1436.96 1778.98 1437.83 1777.25 Q1438.74 1775.49 1438.74 1773.8 Q1438.74 1771.04 1436.79 1769.31 Q1434.87 1767.57 1431.77 1767.57 Q1429.57 1767.57 1427.12 1768.34 Q1424.69 1769.1 1421.91 1770.65 L1421.91 1765.93 Q1424.73 1764.79 1427.19 1764.21 Q1429.64 1763.64 1431.68 1763.64 Q1437.05 1763.64 1440.24 1766.32 Q1443.44 1769.01 1443.44 1773.5 Q1443.44 1775.63 1442.63 1777.55 Q1441.84 1779.45 1439.73 1782.04 Q1439.15 1782.71 1436.05 1785.93 Q1432.95 1789.12 1427.3 1794.89 Z" fill="#000000" fill-rule="nonzero" fill-opacity="1" /><path clip-path="url(#clip030)" d="M1463.44 1767.34 Q1459.83 1767.34 1458 1770.9 Q1456.19 1774.45 1456.19 1781.58 Q1456.19 1788.68 1458 1792.25 Q1459.83 1795.79 1463.44 1795.79 Q1467.07 1795.79 1468.88 1792.25 Q1470.7 1788.68 1470.7 1781.58 Q1470.7 1774.45 1468.88 1770.9 Q1467.07 1767.34 1463.44 1767.34 M1463.44 1763.64 Q1469.25 1763.64 1472.3 1768.24 Q1475.38 1772.83 1475.38 1781.58 Q1475.38 1790.3 1472.3 1794.91 Q1469.25 1799.49 1463.44 1799.49 Q1457.63 1799.49 1454.55 1794.91 Q1451.49 1790.3 1451.49 1781.58 Q1451.49 1772.83 1454.55 1768.24 Q1457.63 1763.64 1463.44 1763.64 Z" fill="#000000" fill-rule="nonzero" fill-opacity="1" /><path clip-path="url(#clip030)" d="M1999.74 1780.19 Q2003.1 1780.9 2004.97 1783.17 Q2006.87 1785.44 2006.87 1788.77 Q2006.87 1793.89 2003.35 1796.69 Q1999.84 1799.49 1993.35 1799.49 Q1991.18 1799.49 1988.86 1799.05 Q1986.57 1798.64 1984.12 1797.78 L1984.12 1793.27 Q1986.06 1794.4 1988.38 1794.98 Q1990.69 1795.56 1993.22 1795.56 Q1997.61 1795.56 1999.9 1793.82 Q2002.22 1792.08 2002.22 1788.77 Q2002.22 1785.72 2000.07 1784.01 Q1997.94 1782.27 1994.12 1782.27 L1990.09 1782.27 L1990.09 1778.43 L1994.3 1778.43 Q1997.75 1778.43 1999.58 1777.06 Q2001.41 1775.67 2001.41 1773.08 Q2001.41 1770.42 1999.51 1769.01 Q1997.64 1767.57 1994.12 1767.57 Q1992.2 1767.57 1990 1767.99 Q1987.8 1768.4 1985.16 1769.28 L1985.16 1765.12 Q1987.82 1764.38 1990.14 1764.01 Q1992.47 1763.64 1994.53 1763.64 Q1999.86 1763.64 2002.96 1766.07 Q2006.06 1768.47 2006.06 1772.59 Q2006.06 1775.46 2004.42 1777.46 Q2002.78 1779.42 1999.74 1780.19 Z" fill="#000000" fill-rule="nonzero" fill-opacity="1" /><path clip-path="url(#clip030)" d="M2025.74 1767.34 Q2022.13 1767.34 2020.3 1770.9 Q2018.49 1774.45 2018.49 1781.58 Q2018.49 1788.68 2020.3 1792.25 Q2022.13 1795.79 2025.74 1795.79 Q2029.37 1795.79 2031.18 1792.25 Q2033.01 1788.68 2033.01 1781.58 Q2033.01 1774.45 2031.18 1770.9 Q2029.37 1767.34 2025.74 1767.34 M2025.74 1763.64 Q2031.55 1763.64 2034.6 1768.24 Q2037.68 1772.83 2037.68 1781.58 Q2037.68 1790.3 2034.6 1794.91 Q2031.55 1799.49 2025.74 1799.49 Q2019.93 1799.49 2016.85 1794.91 Q2013.79 1790.3 2013.79 1781.58 Q2013.79 1772.83 2016.85 1768.24 Q2019.93 1763.64 2025.74 1763.64 Z" fill="#000000" fill-rule="nonzero" fill-opacity="1" /><path clip-path="url(#clip030)" d="M2561.44 1768.34 L2549.64 1786.78 L2561.44 1786.78 L2561.44 1768.34 M2560.22 1764.26 L2566.1 1764.26 L2566.1 1786.78 L2571.03 1786.78 L2571.03 1790.67 L2566.1 1790.67 L2566.1 1798.82 L2561.44 1798.82 L2561.44 1790.67 L2545.84 1790.67 L2545.84 1786.16 L2560.22 1764.26 Z" fill="#000000" fill-rule="nonzero" fill-opacity="1" /><path clip-path="url(#clip030)" d="M2588.76 1767.34 Q2585.15 1767.34 2583.32 1770.9 Q2581.51 1774.45 2581.51 1781.58 Q2581.51 1788.68 2583.32 1792.25 Q2585.15 1795.79 2588.76 1795.79 Q2592.39 1795.79 2594.2 1792.25 Q2596.03 1788.68 2596.03 1781.58 Q2596.03 1774.45 2594.2 1770.9 Q2592.39 1767.34 2588.76 1767.34 M2588.76 1763.64 Q2594.57 1763.64 2597.62 1768.24 Q2600.7 1772.83 2600.7 1781.58 Q2600.7 1790.3 2597.62 1794.91 Q2594.57 1799.49 2588.76 1799.49 Q2582.95 1799.49 2579.87 1794.91 Q2576.81 1790.3 2576.81 1781.58 Q2576.81 1772.83 2579.87 1768.24 Q2582.95 1763.64 2588.76 1763.64 Z" fill="#000000" fill-rule="nonzero" fill-opacity="1" /><path clip-path="url(#clip030)" d="M1394.77 1841.06 L1394.77 1878.02 L1402.54 1878.02 Q1412.37 1878.02 1416.92 1873.56 Q1421.51 1869.11 1421.51 1859.49 Q1421.51 1849.94 1416.92 1845.52 Q1412.37 1841.06 1402.54 1841.06 L1394.77 1841.06 M1388.34 1835.78 L1401.55 1835.78 Q1415.36 1835.78 1421.83 1841.54 Q1428.29 1847.27 1428.29 1859.49 Q1428.29 1871.78 1421.79 1877.54 Q1415.3 1883.3 1401.55 1883.3 L1388.34 1883.3 L1388.34 1835.78 Z" fill="#000000" fill-rule="nonzero" fill-opacity="1" /><path clip-path="url(#clip030)" d="M1454.48 1865.38 Q1447.38 1865.38 1444.65 1867 Q1441.91 1868.63 1441.91 1872.54 Q1441.91 1875.66 1443.95 1877.51 Q1446.01 1879.32 1449.55 1879.32 Q1454.42 1879.32 1457.35 1875.88 Q1460.31 1872.42 1460.31 1866.69 L1460.31 1865.38 L1454.48 1865.38 M1466.16 1862.96 L1466.16 1883.3 L1460.31 1883.3 L1460.31 1877.89 Q1458.3 1881.14 1455.31 1882.7 Q1452.32 1884.22 1447.99 1884.22 Q1442.51 1884.22 1439.27 1881.17 Q1436.05 1878.08 1436.05 1872.92 Q1436.05 1866.91 1440.06 1863.85 Q1444.11 1860.8 1452.09 1860.8 L1460.31 1860.8 L1460.31 1860.23 Q1460.31 1856.18 1457.63 1853.99 Q1454.99 1851.76 1450.18 1851.76 Q1447.13 1851.76 1444.23 1852.49 Q1441.34 1853.22 1438.66 1854.69 L1438.66 1849.28 Q1441.88 1848.03 1444.9 1847.43 Q1447.92 1846.79 1450.79 1846.79 Q1458.52 1846.79 1462.34 1850.8 Q1466.16 1854.81 1466.16 1862.96 Z" fill="#000000" fill-rule="nonzero" fill-opacity="1" /><path clip-path="url(#clip030)" d="M1493.06 1886.61 Q1490.57 1892.98 1488.22 1894.92 Q1485.86 1896.86 1481.92 1896.86 L1477.24 1896.86 L1477.24 1891.96 L1480.68 1891.96 Q1483.09 1891.96 1484.43 1890.81 Q1485.77 1889.67 1487.39 1885.4 L1488.44 1882.73 L1474.02 1847.65 L1480.23 1847.65 L1491.37 1875.53 L1502.51 1847.65 L1508.72 1847.65 L1493.06 1886.61 Z" fill="#000000" fill-rule="nonzero" fill-opacity="1" /><polyline clip-path="url(#clip030)" style="stroke:#000000; stroke-linecap:round; stroke-linejoin:round; stroke-width:4; stroke-opacity:1; fill:none" points="256.302,1734.12 256.302,127.792 "/>
<polyline clip-path="url(#clip030)" style="stroke:#000000; stroke-linecap:round; stroke-linejoin:round; stroke-width:4; stroke-opacity:1; fill:none" points="256.302,1551.05 275.2,1551.05 "/>
<polyline clip-path="url(#clip030)" style="stroke:#000000; stroke-linecap:round; stroke-linejoin:round; stroke-width:4; stroke-opacity:1; fill:none" points="256.302,1254.44 275.2,1254.44 "/>
<polyline clip-path="url(#clip030)" style="stroke:#000000; stroke-linecap:round; stroke-linejoin:round; stroke-width:4; stroke-opacity:1; fill:none" points="256.302,957.831 275.2,957.831 "/>
<polyline clip-path="url(#clip030)" style="stroke:#000000; stroke-linecap:round; stroke-linejoin:round; stroke-width:4; stroke-opacity:1; fill:none" points="256.302,661.223 275.2,661.223 "/>
<polyline clip-path="url(#clip030)" style="stroke:#000000; stroke-linecap:round; stroke-linejoin:round; stroke-width:4; stroke-opacity:1; fill:none" points="256.302,364.614 275.2,364.614 "/>
<path clip-path="url(#clip030)" d="M130.242 1536.85 Q126.631 1536.85 124.802 1540.41 Q122.997 1543.95 122.997 1551.08 Q122.997 1558.19 124.802 1561.75 Q126.631 1565.29 130.242 1565.29 Q133.876 1565.29 135.682 1561.75 Q137.511 1558.19 137.511 1551.08 Q137.511 1543.95 135.682 1540.41 Q133.876 1536.85 130.242 1536.85 M130.242 1533.14 Q136.052 1533.14 139.108 1537.75 Q142.187 1542.33 142.187 1551.08 Q142.187 1559.81 139.108 1564.42 Q136.052 1569 130.242 1569 Q124.432 1569 121.353 1564.42 Q118.298 1559.81 118.298 1551.08 Q118.298 1542.33 121.353 1537.75 Q124.432 1533.14 130.242 1533.14 Z" fill="#000000" fill-rule="nonzero" fill-opacity="1" /><path clip-path="url(#clip030)" d="M150.404 1562.45 L155.288 1562.45 L155.288 1568.33 L150.404 1568.33 L150.404 1562.45 Z" fill="#000000" fill-rule="nonzero" fill-opacity="1" /><path clip-path="url(#clip030)" d="M175.473 1536.85 Q171.862 1536.85 170.034 1540.41 Q168.228 1543.95 168.228 1551.08 Q168.228 1558.19 170.034 1561.75 Q171.862 1565.29 175.473 1565.29 Q179.108 1565.29 180.913 1561.75 Q182.742 1558.19 182.742 1551.08 Q182.742 1543.95 180.913 1540.41 Q179.108 1536.85 175.473 1536.85 M175.473 1533.14 Q181.284 1533.14 184.339 1537.75 Q187.418 1542.33 187.418 1551.08 Q187.418 1559.81 184.339 1564.42 Q181.284 1569 175.473 1569 Q169.663 1569 166.585 1564.42 Q163.529 1559.81 163.529 1551.08 Q163.529 1542.33 166.585 1537.75 Q169.663 1533.14 175.473 1533.14 Z" fill="#000000" fill-rule="nonzero" fill-opacity="1" /><path clip-path="url(#clip030)" d="M199.663 1564.39 L215.982 1564.39 L215.982 1568.33 L194.038 1568.33 L194.038 1564.39 Q196.7 1561.64 201.283 1557.01 Q205.89 1552.36 207.07 1551.01 Q209.316 1548.49 210.195 1546.75 Q211.098 1544.99 211.098 1543.3 Q211.098 1540.55 209.154 1538.81 Q207.232 1537.08 204.131 1537.08 Q201.932 1537.08 199.478 1537.84 Q197.047 1538.61 194.27 1540.16 L194.27 1535.43 Q197.094 1534.3 199.547 1533.72 Q202.001 1533.14 204.038 1533.14 Q209.408 1533.14 212.603 1535.83 Q215.797 1538.51 215.797 1543 Q215.797 1545.13 214.987 1547.05 Q214.2 1548.95 212.094 1551.54 Q211.515 1552.22 208.413 1555.43 Q205.311 1558.63 199.663 1564.39 Z" fill="#000000" fill-rule="nonzero" fill-opacity="1" /><path clip-path="url(#clip030)" d="M128.159 1240.24 Q124.548 1240.24 122.719 1243.8 Q120.913 1247.34 120.913 1254.47 Q120.913 1261.58 122.719 1265.14 Q124.548 1268.69 128.159 1268.69 Q131.793 1268.69 133.599 1265.14 Q135.427 1261.58 135.427 1254.47 Q135.427 1247.34 133.599 1243.8 Q131.793 1240.24 128.159 1240.24 M128.159 1236.53 Q133.969 1236.53 137.025 1241.14 Q140.103 1245.72 140.103 1254.47 Q140.103 1263.2 137.025 1267.81 Q133.969 1272.39 128.159 1272.39 Q122.349 1272.39 119.27 1267.81 Q116.214 1263.2 116.214 1254.47 Q116.214 1245.72 119.27 1241.14 Q122.349 1236.53 128.159 1236.53 Z" fill="#000000" fill-rule="nonzero" fill-opacity="1" /><path clip-path="url(#clip030)" d="M148.321 1265.84 L153.205 1265.84 L153.205 1271.72 L148.321 1271.72 L148.321 1265.84 Z" fill="#000000" fill-rule="nonzero" fill-opacity="1" /><path clip-path="url(#clip030)" d="M173.39 1240.24 Q169.779 1240.24 167.95 1243.8 Q166.145 1247.34 166.145 1254.47 Q166.145 1261.58 167.95 1265.14 Q169.779 1268.69 173.39 1268.69 Q177.024 1268.69 178.83 1265.14 Q180.659 1261.58 180.659 1254.47 Q180.659 1247.34 178.83 1243.8 Q177.024 1240.24 173.39 1240.24 M173.39 1236.53 Q179.2 1236.53 182.256 1241.14 Q185.334 1245.72 185.334 1254.47 Q185.334 1263.2 182.256 1267.81 Q179.2 1272.39 173.39 1272.39 Q167.58 1272.39 164.501 1267.81 Q161.446 1263.2 161.446 1254.47 Q161.446 1245.72 164.501 1241.14 Q167.58 1236.53 173.39 1236.53 Z" fill="#000000" fill-rule="nonzero" fill-opacity="1" /><path clip-path="url(#clip030)" d="M206.399 1241.23 L194.594 1259.68 L206.399 1259.68 L206.399 1241.23 M205.172 1237.16 L211.052 1237.16 L211.052 1259.68 L215.982 1259.68 L215.982 1263.57 L211.052 1263.57 L211.052 1271.72 L206.399 1271.72 L206.399 1263.57 L190.797 1263.57 L190.797 1259.06 L205.172 1237.16 Z" fill="#000000" fill-rule="nonzero" fill-opacity="1" /><path clip-path="url(#clip030)" d="M128.483 943.629 Q124.872 943.629 123.043 947.194 Q121.238 950.736 121.238 957.865 Q121.238 964.972 123.043 968.537 Q124.872 972.078 128.483 972.078 Q132.117 972.078 133.923 968.537 Q135.751 964.972 135.751 957.865 Q135.751 950.736 133.923 947.194 Q132.117 943.629 128.483 943.629 M128.483 939.926 Q134.293 939.926 137.349 944.532 Q140.427 949.116 140.427 957.865 Q140.427 966.592 137.349 971.199 Q134.293 975.782 128.483 975.782 Q122.673 975.782 119.594 971.199 Q116.539 966.592 116.539 957.865 Q116.539 949.116 119.594 944.532 Q122.673 939.926 128.483 939.926 Z" fill="#000000" fill-rule="nonzero" fill-opacity="1" /><path clip-path="url(#clip030)" d="M148.645 969.231 L153.529 969.231 L153.529 975.111 L148.645 975.111 L148.645 969.231 Z" fill="#000000" fill-rule="nonzero" fill-opacity="1" /><path clip-path="url(#clip030)" d="M173.714 943.629 Q170.103 943.629 168.274 947.194 Q166.469 950.736 166.469 957.865 Q166.469 964.972 168.274 968.537 Q170.103 972.078 173.714 972.078 Q177.348 972.078 179.154 968.537 Q180.983 964.972 180.983 957.865 Q180.983 950.736 179.154 947.194 Q177.348 943.629 173.714 943.629 M173.714 939.926 Q179.524 939.926 182.58 944.532 Q185.659 949.116 185.659 957.865 Q185.659 966.592 182.58 971.199 Q179.524 975.782 173.714 975.782 Q167.904 975.782 164.825 971.199 Q161.77 966.592 161.77 957.865 Q161.77 949.116 164.825 944.532 Q167.904 939.926 173.714 939.926 Z" fill="#000000" fill-rule="nonzero" fill-opacity="1" /><path clip-path="url(#clip030)" d="M204.455 955.967 Q201.307 955.967 199.455 958.12 Q197.626 960.273 197.626 964.023 Q197.626 967.75 199.455 969.926 Q201.307 972.078 204.455 972.078 Q207.603 972.078 209.432 969.926 Q211.283 967.75 211.283 964.023 Q211.283 960.273 209.432 958.12 Q207.603 955.967 204.455 955.967 M213.737 941.315 L213.737 945.574 Q211.978 944.741 210.172 944.301 Q208.39 943.861 206.631 943.861 Q202.001 943.861 199.547 946.986 Q197.117 950.111 196.77 956.43 Q198.135 954.416 200.195 953.352 Q202.256 952.264 204.732 952.264 Q209.941 952.264 212.95 955.435 Q215.982 958.583 215.982 964.023 Q215.982 969.347 212.834 972.564 Q209.686 975.782 204.455 975.782 Q198.459 975.782 195.288 971.199 Q192.117 966.592 192.117 957.865 Q192.117 949.671 196.006 944.81 Q199.895 939.926 206.445 939.926 Q208.205 939.926 209.987 940.273 Q211.793 940.62 213.737 941.315 Z" fill="#000000" fill-rule="nonzero" fill-opacity="1" /><path clip-path="url(#clip030)" d="M128.738 647.021 Q125.126 647.021 123.298 650.586 Q121.492 654.128 121.492 661.257 Q121.492 668.364 123.298 671.928 Q125.126 675.47 128.738 675.47 Q132.372 675.47 134.177 671.928 Q136.006 668.364 136.006 661.257 Q136.006 654.128 134.177 650.586 Q132.372 647.021 128.738 647.021 M128.738 643.318 Q134.548 643.318 137.603 647.924 Q140.682 652.507 140.682 661.257 Q140.682 669.984 137.603 674.591 Q134.548 679.174 128.738 679.174 Q122.927 679.174 119.849 674.591 Q116.793 669.984 116.793 661.257 Q116.793 652.507 119.849 647.924 Q122.927 643.318 128.738 643.318 Z" fill="#000000" fill-rule="nonzero" fill-opacity="1" /><path clip-path="url(#clip030)" d="M148.899 672.623 L153.784 672.623 L153.784 678.503 L148.899 678.503 L148.899 672.623 Z" fill="#000000" fill-rule="nonzero" fill-opacity="1" /><path clip-path="url(#clip030)" d="M173.969 647.021 Q170.358 647.021 168.529 650.586 Q166.723 654.128 166.723 661.257 Q166.723 668.364 168.529 671.928 Q170.358 675.47 173.969 675.47 Q177.603 675.47 179.409 671.928 Q181.237 668.364 181.237 661.257 Q181.237 654.128 179.409 650.586 Q177.603 647.021 173.969 647.021 M173.969 643.318 Q179.779 643.318 182.834 647.924 Q185.913 652.507 185.913 661.257 Q185.913 669.984 182.834 674.591 Q179.779 679.174 173.969 679.174 Q168.159 679.174 165.08 674.591 Q162.024 669.984 162.024 661.257 Q162.024 652.507 165.08 647.924 Q168.159 643.318 173.969 643.318 Z" fill="#000000" fill-rule="nonzero" fill-opacity="1" /><path clip-path="url(#clip030)" d="M204.131 662.091 Q200.797 662.091 198.876 663.873 Q196.978 665.655 196.978 668.78 Q196.978 671.905 198.876 673.688 Q200.797 675.47 204.131 675.47 Q207.464 675.47 209.385 673.688 Q211.307 671.882 211.307 668.78 Q211.307 665.655 209.385 663.873 Q207.487 662.091 204.131 662.091 M199.455 660.1 Q196.445 659.359 194.756 657.299 Q193.089 655.239 193.089 652.276 Q193.089 648.132 196.029 645.725 Q198.992 643.318 204.131 643.318 Q209.293 643.318 212.232 645.725 Q215.172 648.132 215.172 652.276 Q215.172 655.239 213.482 657.299 Q211.816 659.359 208.83 660.1 Q212.209 660.887 214.084 663.179 Q215.982 665.47 215.982 668.78 Q215.982 673.803 212.904 676.489 Q209.848 679.174 204.131 679.174 Q198.413 679.174 195.334 676.489 Q192.279 673.803 192.279 668.78 Q192.279 665.47 194.177 663.179 Q196.075 660.887 199.455 660.1 M197.742 652.716 Q197.742 655.401 199.408 656.905 Q201.098 658.41 204.131 658.41 Q207.14 658.41 208.83 656.905 Q210.543 655.401 210.543 652.716 Q210.543 650.03 208.83 648.526 Q207.14 647.021 204.131 647.021 Q201.098 647.021 199.408 648.526 Q197.742 650.03 197.742 652.716 Z" fill="#000000" fill-rule="nonzero" fill-opacity="1" /><path clip-path="url(#clip030)" d="M128.645 350.413 Q125.034 350.413 123.205 353.978 Q121.4 357.519 121.4 364.649 Q121.4 371.755 123.205 375.32 Q125.034 378.862 128.645 378.862 Q132.279 378.862 134.085 375.32 Q135.913 371.755 135.913 364.649 Q135.913 357.519 134.085 353.978 Q132.279 350.413 128.645 350.413 M128.645 346.709 Q134.455 346.709 137.511 351.316 Q140.589 355.899 140.589 364.649 Q140.589 373.376 137.511 377.982 Q134.455 382.566 128.645 382.566 Q122.835 382.566 119.756 377.982 Q116.701 373.376 116.701 364.649 Q116.701 355.899 119.756 351.316 Q122.835 346.709 128.645 346.709 Z" fill="#000000" fill-rule="nonzero" fill-opacity="1" /><path clip-path="url(#clip030)" d="M148.807 376.015 L153.691 376.015 L153.691 381.894 L148.807 381.894 L148.807 376.015 Z" fill="#000000" fill-rule="nonzero" fill-opacity="1" /><path clip-path="url(#clip030)" d="M164.686 377.959 L172.325 377.959 L172.325 351.594 L164.015 353.26 L164.015 349.001 L172.279 347.334 L176.955 347.334 L176.955 377.959 L184.594 377.959 L184.594 381.894 L164.686 381.894 L164.686 377.959 Z" fill="#000000" fill-rule="nonzero" fill-opacity="1" /><path clip-path="url(#clip030)" d="M204.038 350.413 Q200.427 350.413 198.598 353.978 Q196.793 357.519 196.793 364.649 Q196.793 371.755 198.598 375.32 Q200.427 378.862 204.038 378.862 Q207.672 378.862 209.478 375.32 Q211.307 371.755 211.307 364.649 Q211.307 357.519 209.478 353.978 Q207.672 350.413 204.038 350.413 M204.038 346.709 Q209.848 346.709 212.904 351.316 Q215.982 355.899 215.982 364.649 Q215.982 373.376 212.904 377.982 Q209.848 382.566 204.038 382.566 Q198.228 382.566 195.149 377.982 Q192.094 373.376 192.094 364.649 Q192.094 355.899 195.149 351.316 Q198.228 346.709 204.038 346.709 Z" fill="#000000" fill-rule="nonzero" fill-opacity="1" /><path clip-path="url(#clip030)" d="M19.402 1098.4 L37.2578 1098.4 L37.2578 1090.32 Q37.2578 1085.83 34.9343 1083.38 Q32.6108 1080.93 28.314 1080.93 Q24.0489 1080.93 21.7255 1083.38 Q19.402 1085.83 19.402 1090.32 L19.402 1098.4 M14.1184 1104.83 L14.1184 1090.32 Q14.1184 1082.33 17.7469 1078.26 Q21.3435 1074.15 28.314 1074.15 Q35.3481 1074.15 38.9447 1078.26 Q42.5413 1082.33 42.5413 1090.32 L42.5413 1098.4 L61.6384 1098.4 L61.6384 1104.83 L14.1184 1104.83 Z" fill="#000000" fill-rule="nonzero" fill-opacity="1" /><path clip-path="url(#clip030)" d="M31.465 1046.27 Q30.8921 1047.26 30.6375 1048.43 Q30.351 1049.58 30.351 1050.98 Q30.351 1055.95 33.5975 1058.62 Q36.8122 1061.26 42.8596 1061.26 L61.6384 1061.26 L61.6384 1067.15 L25.9905 1067.15 L25.9905 1061.26 L31.5287 1061.26 Q28.2821 1059.41 26.7225 1056.45 Q25.1311 1053.49 25.1311 1049.26 Q25.1311 1048.66 25.2266 1047.92 Q25.2903 1047.19 25.4494 1046.3 L31.465 1046.27 Z" fill="#000000" fill-rule="nonzero" fill-opacity="1" /><path clip-path="url(#clip030)" d="M42.3504 1011.07 L45.2149 1011.07 L45.2149 1037.99 Q51.2623 1037.61 54.4452 1034.37 Q57.5962 1031.09 57.5962 1025.26 Q57.5962 1021.89 56.7687 1018.74 Q55.9411 1015.55 54.2861 1012.44 L59.8242 1012.44 Q61.161 1015.59 61.8612 1018.9 Q62.5615 1022.21 62.5615 1025.61 Q62.5615 1034.14 57.5962 1039.14 Q52.631 1044.1 44.1646 1044.1 Q35.4117 1044.1 30.2873 1039.39 Q25.1311 1034.65 25.1311 1026.63 Q25.1311 1019.44 29.7781 1015.27 Q34.3932 1011.07 42.3504 1011.07 M40.6316 1016.92 Q35.8255 1016.99 32.9609 1019.63 Q30.0964 1022.24 30.0964 1026.57 Q30.0964 1031.47 32.8654 1034.43 Q35.6345 1037.36 40.6634 1037.8 L40.6316 1016.92 Z" fill="#000000" fill-rule="nonzero" fill-opacity="1" /><path clip-path="url(#clip030)" d="M25.9905 1005.66 L25.9905 999.45 L55.9093 988.31 L25.9905 977.17 L25.9905 970.963 L61.6384 984.331 L61.6384 992.288 L25.9905 1005.66 Z" fill="#000000" fill-rule="nonzero" fill-opacity="1" /><path clip-path="url(#clip030)" d="M43.719 946.678 Q43.719 953.776 45.3422 956.513 Q46.9655 959.25 50.8804 959.25 Q53.9996 959.25 55.8457 957.213 Q57.6599 955.144 57.6599 951.611 Q57.6599 946.742 54.2224 943.813 Q50.7531 940.853 45.0239 940.853 L43.719 940.853 L43.719 946.678 M41.3 934.997 L61.6384 934.997 L61.6384 940.853 L56.2276 940.853 Q59.4741 942.858 61.0337 945.85 Q62.5615 948.842 62.5615 953.171 Q62.5615 958.645 59.5059 961.892 Q56.4186 965.107 51.2623 965.107 Q45.2467 965.107 42.1912 961.096 Q39.1357 957.054 39.1357 949.065 L39.1357 940.853 L38.5628 940.853 Q34.5205 940.853 32.3244 943.527 Q30.0964 946.169 30.0964 950.975 Q30.0964 954.03 30.8284 956.927 Q31.5605 959.823 33.0246 962.497 L27.6137 962.497 Q26.3724 959.282 25.7677 956.258 Q25.1311 953.235 25.1311 950.37 Q25.1311 942.636 29.1415 938.816 Q33.1519 934.997 41.3 934.997 Z" fill="#000000" fill-rule="nonzero" fill-opacity="1" /><path clip-path="url(#clip030)" d="M12.1132 922.934 L12.1132 917.077 L61.6384 917.077 L61.6384 922.934 L12.1132 922.934 Z" fill="#000000" fill-rule="nonzero" fill-opacity="1" /><path clip-path="url(#clip030)" d="M42.3504 874.332 L45.2149 874.332 L45.2149 901.259 Q51.2623 900.877 54.4452 897.63 Q57.5962 894.352 57.5962 888.527 Q57.5962 885.153 56.7687 882.002 Q55.9411 878.819 54.2861 875.7 L59.8242 875.7 Q61.161 878.851 61.8612 882.161 Q62.5615 885.472 62.5615 888.877 Q62.5615 897.407 57.5962 902.404 Q52.631 907.37 44.1646 907.37 Q35.4117 907.37 30.2873 902.659 Q25.1311 897.917 25.1311 889.896 Q25.1311 882.702 29.7781 878.533 Q34.3932 874.332 42.3504 874.332 M40.6316 880.188 Q35.8255 880.252 32.9609 882.893 Q30.0964 885.503 30.0964 889.832 Q30.0964 894.734 32.8654 897.694 Q35.6345 900.622 40.6634 901.068 L40.6316 880.188 Z" fill="#000000" fill-rule="nonzero" fill-opacity="1" /><path clip-path="url(#clip030)" d="M40.1224 835.087 L61.6384 835.087 L61.6384 840.943 L40.3133 840.943 Q35.2526 840.943 32.7381 842.917 Q30.2237 844.89 30.2237 848.837 Q30.2237 853.579 33.2474 856.317 Q36.2711 859.054 41.491 859.054 L61.6384 859.054 L61.6384 864.942 L25.9905 864.942 L25.9905 859.054 L31.5287 859.054 Q28.314 856.953 26.7225 854.12 Q25.1311 851.256 25.1311 847.532 Q25.1311 841.389 28.9505 838.238 Q32.7381 835.087 40.1224 835.087 Z" fill="#000000" fill-rule="nonzero" fill-opacity="1" /><path clip-path="url(#clip030)" d="M27.3591 797.752 L32.8336 797.752 Q31.465 800.235 30.7966 802.749 Q30.0964 805.232 30.0964 807.778 Q30.0964 813.475 33.7248 816.626 Q37.3214 819.777 43.8463 819.777 Q50.3711 819.777 53.9996 816.626 Q57.5962 813.475 57.5962 807.778 Q57.5962 805.232 56.9278 802.749 Q56.2276 800.235 54.859 797.752 L60.2698 797.752 Q61.4156 800.203 61.9886 802.845 Q62.5615 805.455 62.5615 808.415 Q62.5615 816.467 57.5007 821.21 Q52.44 825.952 43.8463 825.952 Q35.1253 825.952 30.1282 821.178 Q25.1311 816.372 25.1311 808.033 Q25.1311 805.327 25.704 802.749 Q26.2451 800.171 27.3591 797.752 Z" fill="#000000" fill-rule="nonzero" fill-opacity="1" /><path clip-path="url(#clip030)" d="M42.3504 757.075 L45.2149 757.075 L45.2149 784.002 Q51.2623 783.62 54.4452 780.374 Q57.5962 777.095 57.5962 771.271 Q57.5962 767.897 56.7687 764.746 Q55.9411 761.563 54.2861 758.444 L59.8242 758.444 Q61.161 761.595 61.8612 764.905 Q62.5615 768.215 62.5615 771.621 Q62.5615 780.151 57.5962 785.148 Q52.631 790.113 44.1646 790.113 Q35.4117 790.113 30.2873 785.403 Q25.1311 780.66 25.1311 772.639 Q25.1311 765.446 29.7781 761.277 Q34.3932 757.075 42.3504 757.075 M40.6316 762.932 Q35.8255 762.995 32.9609 765.637 Q30.0964 768.247 30.0964 772.576 Q30.0964 777.477 32.8654 780.437 Q35.6345 783.366 40.6634 783.811 L40.6316 762.932 Z" fill="#000000" fill-rule="nonzero" fill-opacity="1" /><path clip-path="url(#clip030)" d="M749.809 18.8205 L749.809 65.8515 L759.693 65.8515 Q772.21 65.8515 778.003 60.1802 Q783.837 54.509 783.837 42.2752 Q783.837 30.1225 778.003 24.4918 Q772.21 18.8205 759.693 18.8205 L749.809 18.8205 M741.626 12.096 L758.437 12.096 Q776.018 12.096 784.242 19.4281 Q792.465 26.7198 792.465 42.2752 Q792.465 57.9117 784.201 65.2439 Q775.937 72.576 758.437 72.576 L741.626 72.576 L741.626 12.096 Z" fill="#000000" fill-rule="nonzero" fill-opacity="1" /><path clip-path="url(#clip030)" d="M843.992 48.0275 L843.992 51.6733 L809.722 51.6733 Q810.208 59.3701 814.34 63.421 Q818.512 67.4314 825.925 67.4314 Q830.219 67.4314 834.23 66.3781 Q838.281 65.3249 842.251 63.2184 L842.251 70.267 Q838.24 71.9684 834.027 72.8596 Q829.814 73.7508 825.48 73.7508 Q814.623 73.7508 808.263 67.4314 Q801.944 61.1119 801.944 50.3365 Q801.944 39.1965 807.939 32.6746 Q813.975 26.1121 824.184 26.1121 Q833.339 26.1121 838.645 32.0264 Q843.992 37.9003 843.992 48.0275 M836.539 45.84 Q836.458 39.7232 833.096 36.0774 Q829.774 32.4315 824.265 32.4315 Q818.026 32.4315 814.259 35.9558 Q810.532 39.4801 809.965 45.8805 L836.539 45.84 Z" fill="#000000" fill-rule="nonzero" fill-opacity="1" /><path clip-path="url(#clip030)" d="M891.55 35.9153 Q894.345 30.8922 898.234 28.5022 Q902.123 26.1121 907.389 26.1121 Q914.478 26.1121 918.327 31.0947 Q922.175 36.0368 922.175 45.1919 L922.175 72.576 L914.681 72.576 L914.681 45.4349 Q914.681 38.913 912.372 35.7533 Q910.063 32.5936 905.323 32.5936 Q899.53 32.5936 896.168 36.4419 Q892.806 40.2903 892.806 46.9338 L892.806 72.576 L885.312 72.576 L885.312 45.4349 Q885.312 38.8725 883.003 35.7533 Q880.694 32.5936 875.873 32.5936 Q870.161 32.5936 866.799 36.4824 Q863.437 40.3308 863.437 46.9338 L863.437 72.576 L855.943 72.576 L855.943 27.2059 L863.437 27.2059 L863.437 34.2544 Q865.989 30.082 869.554 28.0971 Q873.118 26.1121 878.02 26.1121 Q882.962 26.1121 886.405 28.6237 Q889.889 31.1352 891.55 35.9153 Z" fill="#000000" fill-rule="nonzero" fill-opacity="1" /><path clip-path="url(#clip030)" d="M954.623 32.4315 Q948.627 32.4315 945.144 37.1306 Q941.66 41.7891 941.66 49.9314 Q941.66 58.0738 945.103 62.7728 Q948.587 67.4314 954.623 67.4314 Q960.577 67.4314 964.061 62.7323 Q967.545 58.0333 967.545 49.9314 Q967.545 41.8701 964.061 37.1711 Q960.577 32.4315 954.623 32.4315 M954.623 26.1121 Q964.345 26.1121 969.895 32.4315 Q975.444 38.7509 975.444 49.9314 Q975.444 61.0714 969.895 67.4314 Q964.345 73.7508 954.623 73.7508 Q944.86 73.7508 939.31 67.4314 Q933.801 61.0714 933.801 49.9314 Q933.801 38.7509 939.31 32.4315 Q944.86 26.1121 954.623 26.1121 Z" fill="#000000" fill-rule="nonzero" fill-opacity="1" /><path clip-path="url(#clip030)" d="M1017.65 49.3643 Q1017.65 41.2625 1014.29 36.8065 Q1010.97 32.3505 1004.93 32.3505 Q998.94 32.3505 995.577 36.8065 Q992.256 41.2625 992.256 49.3643 Q992.256 57.4256 995.577 61.8816 Q998.94 66.3376 1004.93 66.3376 Q1010.97 66.3376 1014.29 61.8816 Q1017.65 57.4256 1017.65 49.3643 M1025.11 66.9452 Q1025.11 78.5308 1019.96 84.1616 Q1014.82 89.8329 1004.21 89.8329 Q1000.28 89.8329 996.793 89.2252 Q993.309 88.6581 990.028 87.4428 L990.028 80.1917 Q993.309 81.9741 996.509 82.8248 Q999.709 83.6755 1003.03 83.6755 Q1010.36 83.6755 1014.01 79.8271 Q1017.65 76.0193 1017.65 68.282 L1017.65 64.5957 Q1015.35 68.6061 1011.74 70.5911 Q1008.14 72.576 1003.11 72.576 Q994.767 72.576 989.663 66.2161 Q984.559 59.8562 984.559 49.3643 Q984.559 38.832 989.663 32.472 Q994.767 26.1121 1003.11 26.1121 Q1008.14 26.1121 1011.74 28.0971 Q1015.35 30.082 1017.65 34.0924 L1017.65 27.2059 L1025.11 27.2059 L1025.11 66.9452 Z" fill="#000000" fill-rule="nonzero" fill-opacity="1" /><path clip-path="url(#clip030)" d="M1066.75 34.1734 Q1065.5 33.4443 1064 33.1202 Q1062.54 32.7556 1060.76 32.7556 Q1054.44 32.7556 1051.03 36.8875 Q1047.67 40.9789 1047.67 48.6757 L1047.67 72.576 L1040.18 72.576 L1040.18 27.2059 L1047.67 27.2059 L1047.67 34.2544 Q1050.02 30.1225 1053.79 28.1376 Q1057.56 26.1121 1062.94 26.1121 Q1063.71 26.1121 1064.65 26.2337 Q1065.58 26.3147 1066.71 26.5172 L1066.75 34.1734 Z" fill="#000000" fill-rule="nonzero" fill-opacity="1" /><path clip-path="url(#clip030)" d="M1095.19 49.7694 Q1086.16 49.7694 1082.67 51.8354 Q1079.19 53.9013 1079.19 58.8839 Q1079.19 62.8538 1081.78 65.2034 Q1084.41 67.5124 1088.91 67.5124 Q1095.11 67.5124 1098.83 63.1374 Q1102.6 58.7219 1102.6 51.4303 L1102.6 49.7694 L1095.19 49.7694 M1110.06 46.6907 L1110.06 72.576 L1102.6 72.576 L1102.6 65.6895 Q1100.05 69.8214 1096.24 71.8063 Q1092.43 73.7508 1086.93 73.7508 Q1079.96 73.7508 1075.83 69.8619 Q1071.73 65.9325 1071.73 59.3701 Q1071.73 51.7138 1076.84 47.825 Q1081.98 43.9361 1092.15 43.9361 L1102.6 43.9361 L1102.6 43.2069 Q1102.6 38.0623 1099.2 35.2672 Q1095.84 32.4315 1089.72 32.4315 Q1085.83 32.4315 1082.15 33.3632 Q1078.46 34.295 1075.06 36.1584 L1075.06 29.2718 Q1079.15 27.692 1083 26.9223 Q1086.84 26.1121 1090.49 26.1121 Q1100.33 26.1121 1105.19 31.2163 Q1110.06 36.3204 1110.06 46.6907 Z" fill="#000000" fill-rule="nonzero" fill-opacity="1" /><path clip-path="url(#clip030)" d="M1132.62 65.7705 L1132.62 89.8329 L1125.13 89.8329 L1125.13 27.2059 L1132.62 27.2059 L1132.62 34.0924 Q1134.97 30.0415 1138.53 28.0971 Q1142.14 26.1121 1147.12 26.1121 Q1155.39 26.1121 1160.53 32.6746 Q1165.72 39.2371 1165.72 49.9314 Q1165.72 60.6258 1160.53 67.1883 Q1155.39 73.7508 1147.12 73.7508 Q1142.14 73.7508 1138.53 71.8063 Q1134.97 69.8214 1132.62 65.7705 M1157.98 49.9314 Q1157.98 41.7081 1154.58 37.0496 Q1151.21 32.3505 1145.3 32.3505 Q1139.38 32.3505 1135.98 37.0496 Q1132.62 41.7081 1132.62 49.9314 Q1132.62 58.1548 1135.98 62.8538 Q1139.38 67.5124 1145.3 67.5124 Q1151.21 67.5124 1154.58 62.8538 Q1157.98 58.1548 1157.98 49.9314 Z" fill="#000000" fill-rule="nonzero" fill-opacity="1" /><path clip-path="url(#clip030)" d="M1215.78 45.1919 L1215.78 72.576 L1208.33 72.576 L1208.33 45.4349 Q1208.33 38.994 1205.82 35.7938 Q1203.31 32.5936 1198.28 32.5936 Q1192.25 32.5936 1188.76 36.4419 Q1185.28 40.2903 1185.28 46.9338 L1185.28 72.576 L1177.79 72.576 L1177.79 9.54393 L1185.28 9.54393 L1185.28 34.2544 Q1187.95 30.163 1191.56 28.1376 Q1195.21 26.1121 1199.95 26.1121 Q1207.76 26.1121 1211.77 30.9732 Q1215.78 35.7938 1215.78 45.1919 Z" fill="#000000" fill-rule="nonzero" fill-opacity="1" /><path clip-path="url(#clip030)" d="M1230.65 27.2059 L1238.1 27.2059 L1238.1 72.576 L1230.65 72.576 L1230.65 27.2059 M1230.65 9.54393 L1238.1 9.54393 L1238.1 18.9825 L1230.65 18.9825 L1230.65 9.54393 Z" fill="#000000" fill-rule="nonzero" fill-opacity="1" /><path clip-path="url(#clip030)" d="M1286.35 28.9478 L1286.35 35.9153 Q1283.19 34.1734 1279.99 33.3227 Q1276.83 32.4315 1273.59 32.4315 Q1266.34 32.4315 1262.33 37.0496 Q1258.32 41.6271 1258.32 49.9314 Q1258.32 58.2358 1262.33 62.8538 Q1266.34 67.4314 1273.59 67.4314 Q1276.83 67.4314 1279.99 66.5807 Q1283.19 65.6895 1286.35 63.9476 L1286.35 70.8341 Q1283.23 72.2924 1279.87 73.0216 Q1276.55 73.7508 1272.78 73.7508 Q1262.53 73.7508 1256.5 67.3098 Q1250.46 60.8689 1250.46 49.9314 Q1250.46 38.832 1256.54 32.472 Q1262.65 26.1121 1273.27 26.1121 Q1276.71 26.1121 1279.99 26.8413 Q1283.27 27.5299 1286.35 28.9478 Z" fill="#000000" fill-rule="nonzero" fill-opacity="1" /><path clip-path="url(#clip030)" d="M1328.24 28.5427 L1328.24 35.5912 Q1325.08 33.9709 1321.68 33.1607 Q1318.27 32.3505 1314.63 32.3505 Q1309.08 32.3505 1306.28 34.0519 Q1303.53 35.7533 1303.53 39.156 Q1303.53 41.7486 1305.51 43.2475 Q1307.5 44.7058 1313.49 46.0426 L1316.04 46.6097 Q1323.98 48.3111 1327.31 51.4303 Q1330.67 54.509 1330.67 60.0587 Q1330.67 66.3781 1325.64 70.0644 Q1320.66 73.7508 1311.91 73.7508 Q1308.27 73.7508 1304.3 73.0216 Q1300.37 72.3329 1295.99 70.9151 L1295.99 63.2184 Q1300.12 65.3654 1304.13 66.4591 Q1308.15 67.5124 1312.07 67.5124 Q1317.34 67.5124 1320.18 65.73 Q1323.01 63.9071 1323.01 60.6258 Q1323.01 57.5877 1320.95 55.9673 Q1318.92 54.3469 1311.99 52.8481 L1309.4 52.2405 Q1302.47 50.7821 1299.4 47.7845 Q1296.32 44.7463 1296.32 39.4801 Q1296.32 33.0797 1300.85 29.5959 Q1305.39 26.1121 1313.74 26.1121 Q1317.87 26.1121 1321.51 26.7198 Q1325.16 27.3274 1328.24 28.5427 Z" fill="#000000" fill-rule="nonzero" fill-opacity="1" /><path clip-path="url(#clip030)" d="M1389.53 49.7694 Q1380.49 49.7694 1377.01 51.8354 Q1373.53 53.9013 1373.53 58.8839 Q1373.53 62.8538 1376.12 65.2034 Q1378.75 67.5124 1383.25 67.5124 Q1389.45 67.5124 1393.17 63.1374 Q1396.94 58.7219 1396.94 51.4303 L1396.94 49.7694 L1389.53 49.7694 M1404.39 46.6907 L1404.39 72.576 L1396.94 72.576 L1396.94 65.6895 Q1394.39 69.8214 1390.58 71.8063 Q1386.77 73.7508 1381.26 73.7508 Q1374.3 73.7508 1370.16 69.8619 Q1366.07 65.9325 1366.07 59.3701 Q1366.07 51.7138 1371.18 47.825 Q1376.32 43.9361 1386.49 43.9361 L1396.94 43.9361 L1396.94 43.2069 Q1396.94 38.0623 1393.54 35.2672 Q1390.18 32.4315 1384.06 32.4315 Q1380.17 32.4315 1376.48 33.3632 Q1372.8 34.295 1369.39 36.1584 L1369.39 29.2718 Q1373.49 27.692 1377.33 26.9223 Q1381.18 26.1121 1384.83 26.1121 Q1394.67 26.1121 1399.53 31.2163 Q1404.39 36.3204 1404.39 46.6907 Z" fill="#000000" fill-rule="nonzero" fill-opacity="1" /><path clip-path="url(#clip030)" d="M1457.46 45.1919 L1457.46 72.576 L1450.01 72.576 L1450.01 45.4349 Q1450.01 38.994 1447.5 35.7938 Q1444.98 32.5936 1439.96 32.5936 Q1433.93 32.5936 1430.44 36.4419 Q1426.96 40.2903 1426.96 46.9338 L1426.96 72.576 L1419.46 72.576 L1419.46 27.2059 L1426.96 27.2059 L1426.96 34.2544 Q1429.63 30.163 1433.24 28.1376 Q1436.88 26.1121 1441.62 26.1121 Q1449.44 26.1121 1453.45 30.9732 Q1457.46 35.7938 1457.46 45.1919 Z" fill="#000000" fill-rule="nonzero" fill-opacity="1" /><path clip-path="url(#clip030)" d="M1502.18 34.0924 L1502.18 9.54393 L1509.64 9.54393 L1509.64 72.576 L1502.18 72.576 L1502.18 65.7705 Q1499.83 69.8214 1496.23 71.8063 Q1492.66 73.7508 1487.64 73.7508 Q1479.42 73.7508 1474.23 67.1883 Q1469.09 60.6258 1469.09 49.9314 Q1469.09 39.2371 1474.23 32.6746 Q1479.42 26.1121 1487.64 26.1121 Q1492.66 26.1121 1496.23 28.0971 Q1499.83 30.0415 1502.18 34.0924 M1476.78 49.9314 Q1476.78 58.1548 1480.15 62.8538 Q1483.55 67.5124 1489.46 67.5124 Q1495.38 67.5124 1498.78 62.8538 Q1502.18 58.1548 1502.18 49.9314 Q1502.18 41.7081 1498.78 37.0496 Q1495.38 32.3505 1489.46 32.3505 Q1483.55 32.3505 1480.15 37.0496 Q1476.78 41.7081 1476.78 49.9314 Z" fill="#000000" fill-rule="nonzero" fill-opacity="1" /><path clip-path="url(#clip030)" d="M1587.94 14.0809 L1587.94 22.0612 Q1583.28 19.8332 1579.15 18.7395 Q1575.02 17.6457 1571.17 17.6457 Q1564.49 17.6457 1560.84 20.2383 Q1557.24 22.8309 1557.24 27.611 Q1557.24 31.6214 1559.63 33.6873 Q1562.06 35.7128 1568.78 36.9686 L1573.72 37.9813 Q1582.88 39.7232 1587.21 44.1387 Q1591.59 48.5136 1591.59 55.8863 Q1591.59 64.6767 1585.67 69.2137 Q1579.8 73.7508 1568.42 73.7508 Q1564.12 73.7508 1559.26 72.7785 Q1554.44 71.8063 1549.25 69.9024 L1549.25 61.4765 Q1554.24 64.2716 1559.02 65.6895 Q1563.8 67.1073 1568.42 67.1073 Q1575.42 67.1073 1579.23 64.3527 Q1583.04 61.598 1583.04 56.4939 Q1583.04 52.0379 1580.28 49.5264 Q1577.57 47.0148 1571.33 45.759 L1566.35 44.7868 Q1557.19 42.9639 1553.1 39.075 Q1549.01 35.1862 1549.01 28.2591 Q1549.01 20.2383 1554.64 15.6203 Q1560.31 11.0023 1570.24 11.0023 Q1574.49 11.0023 1578.91 11.7719 Q1583.32 12.5416 1587.94 14.0809 Z" fill="#000000" fill-rule="nonzero" fill-opacity="1" /><path clip-path="url(#clip030)" d="M1604.35 12.096 L1612.53 12.096 L1612.53 72.576 L1604.35 72.576 L1604.35 12.096 Z" fill="#000000" fill-rule="nonzero" fill-opacity="1" /><path clip-path="url(#clip030)" d="M1657.5 44.2197 Q1660.13 45.1109 1662.6 48.0275 Q1665.11 50.9442 1667.62 56.0483 L1675.93 72.576 L1667.14 72.576 L1659.4 57.061 Q1656.4 50.9847 1653.57 48.9997 Q1650.77 47.0148 1645.91 47.0148 L1637 47.0148 L1637 72.576 L1628.81 72.576 L1628.81 12.096 L1647.29 12.096 Q1657.66 12.096 1662.76 16.4305 Q1667.87 20.7649 1667.87 29.5149 Q1667.87 35.2267 1665.19 38.994 Q1662.56 42.7613 1657.5 44.2197 M1637 18.8205 L1637 40.2903 L1647.29 40.2903 Q1653.2 40.2903 1656.2 37.5762 Q1659.24 34.8216 1659.24 29.5149 Q1659.24 24.2082 1656.2 21.5346 Q1653.2 18.8205 1647.29 18.8205 L1637 18.8205 Z" fill="#000000" fill-rule="nonzero" fill-opacity="1" /><path clip-path="url(#clip030)" d="M1721.01 18.8205 L1721.01 41.5461 L1731.3 41.5461 Q1737.01 41.5461 1740.13 38.5889 Q1743.25 35.6318 1743.25 30.163 Q1743.25 24.7348 1740.13 21.7777 Q1737.01 18.8205 1731.3 18.8205 L1721.01 18.8205 M1712.83 12.096 L1731.3 12.096 Q1741.47 12.096 1746.66 16.714 Q1751.88 21.2916 1751.88 30.163 Q1751.88 39.1155 1746.66 43.6931 Q1741.47 48.2706 1731.3 48.2706 L1721.01 48.2706 L1721.01 72.576 L1712.83 72.576 L1712.83 12.096 Z" fill="#000000" fill-rule="nonzero" fill-opacity="1" /><path clip-path="url(#clip030)" d="M1787.37 34.1734 Q1786.11 33.4443 1784.61 33.1202 Q1783.15 32.7556 1781.37 32.7556 Q1775.05 32.7556 1771.65 36.8875 Q1768.29 40.9789 1768.29 48.6757 L1768.29 72.576 L1760.79 72.576 L1760.79 27.2059 L1768.29 27.2059 L1768.29 34.2544 Q1770.64 30.1225 1774.4 28.1376 Q1778.17 26.1121 1783.56 26.1121 Q1784.33 26.1121 1785.26 26.2337 Q1786.19 26.3147 1787.33 26.5172 L1787.37 34.1734 Z" fill="#000000" fill-rule="nonzero" fill-opacity="1" /><path clip-path="url(#clip030)" d="M1832.17 48.0275 L1832.17 51.6733 L1797.9 51.6733 Q1798.39 59.3701 1802.52 63.421 Q1806.69 67.4314 1814.1 67.4314 Q1818.4 67.4314 1822.41 66.3781 Q1826.46 65.3249 1830.43 63.2184 L1830.43 70.267 Q1826.42 71.9684 1822.2 72.8596 Q1817.99 73.7508 1813.66 73.7508 Q1802.8 73.7508 1796.44 67.4314 Q1790.12 61.1119 1790.12 50.3365 Q1790.12 39.1965 1796.12 32.6746 Q1802.15 26.1121 1812.36 26.1121 Q1821.52 26.1121 1826.82 32.0264 Q1832.17 37.9003 1832.17 48.0275 M1824.72 45.84 Q1824.64 39.7232 1821.27 36.0774 Q1817.95 32.4315 1812.44 32.4315 Q1806.2 32.4315 1802.44 35.9558 Q1798.71 39.4801 1798.14 45.8805 L1824.72 45.84 Z" fill="#000000" fill-rule="nonzero" fill-opacity="1" /><path clip-path="url(#clip030)" d="M1839.06 27.2059 L1846.96 27.2059 L1861.13 65.2844 L1875.31 27.2059 L1883.21 27.2059 L1866.2 72.576 L1856.07 72.576 L1839.06 27.2059 Z" fill="#000000" fill-rule="nonzero" fill-opacity="1" /><path clip-path="url(#clip030)" d="M1914.12 49.7694 Q1905.09 49.7694 1901.6 51.8354 Q1898.12 53.9013 1898.12 58.8839 Q1898.12 62.8538 1900.71 65.2034 Q1903.34 67.5124 1907.84 67.5124 Q1914.04 67.5124 1917.77 63.1374 Q1921.53 58.7219 1921.53 51.4303 L1921.53 49.7694 L1914.12 49.7694 M1928.99 46.6907 L1928.99 72.576 L1921.53 72.576 L1921.53 65.6895 Q1918.98 69.8214 1915.17 71.8063 Q1911.37 73.7508 1905.86 73.7508 Q1898.89 73.7508 1894.76 69.8619 Q1890.67 65.9325 1890.67 59.3701 Q1890.67 51.7138 1895.77 47.825 Q1900.91 43.9361 1911.08 43.9361 L1921.53 43.9361 L1921.53 43.2069 Q1921.53 38.0623 1918.13 35.2672 Q1914.77 32.4315 1908.65 32.4315 Q1904.76 32.4315 1901.08 33.3632 Q1897.39 34.295 1893.99 36.1584 L1893.99 29.2718 Q1898.08 27.692 1901.93 26.9223 Q1905.77 26.1121 1909.42 26.1121 Q1919.26 26.1121 1924.13 31.2163 Q1928.99 36.3204 1928.99 46.6907 Z" fill="#000000" fill-rule="nonzero" fill-opacity="1" /><path clip-path="url(#clip030)" d="M1944.34 9.54393 L1951.79 9.54393 L1951.79 72.576 L1944.34 72.576 L1944.34 9.54393 Z" fill="#000000" fill-rule="nonzero" fill-opacity="1" /><path clip-path="url(#clip030)" d="M2006.2 48.0275 L2006.2 51.6733 L1971.93 51.6733 Q1972.41 59.3701 1976.54 63.421 Q1980.72 67.4314 1988.13 67.4314 Q1992.42 67.4314 1996.43 66.3781 Q2000.49 65.3249 2004.46 63.2184 L2004.46 70.267 Q2000.44 71.9684 1996.23 72.8596 Q1992.02 73.7508 1987.68 73.7508 Q1976.83 73.7508 1970.47 67.4314 Q1964.15 61.1119 1964.15 50.3365 Q1964.15 39.1965 1970.14 32.6746 Q1976.18 26.1121 1986.39 26.1121 Q1995.54 26.1121 2000.85 32.0264 Q2006.2 37.9003 2006.2 48.0275 M1998.74 45.84 Q1998.66 39.7232 1995.3 36.0774 Q1991.98 32.4315 1986.47 32.4315 Q1980.23 32.4315 1976.46 35.9558 Q1972.74 39.4801 1972.17 45.8805 L1998.74 45.84 Z" fill="#000000" fill-rule="nonzero" fill-opacity="1" /><path clip-path="url(#clip030)" d="M2056.14 45.1919 L2056.14 72.576 L2048.69 72.576 L2048.69 45.4349 Q2048.69 38.994 2046.18 35.7938 Q2043.67 32.5936 2038.64 32.5936 Q2032.61 32.5936 2029.13 36.4419 Q2025.64 40.2903 2025.64 46.9338 L2025.64 72.576 L2018.15 72.576 L2018.15 27.2059 L2025.64 27.2059 L2025.64 34.2544 Q2028.31 30.163 2031.92 28.1376 Q2035.57 26.1121 2040.31 26.1121 Q2048.12 26.1121 2052.13 30.9732 Q2056.14 35.7938 2056.14 45.1919 Z" fill="#000000" fill-rule="nonzero" fill-opacity="1" /><path clip-path="url(#clip030)" d="M2103.66 28.9478 L2103.66 35.9153 Q2100.5 34.1734 2097.3 33.3227 Q2094.14 32.4315 2090.9 32.4315 Q2083.65 32.4315 2079.64 37.0496 Q2075.63 41.6271 2075.63 49.9314 Q2075.63 58.2358 2079.64 62.8538 Q2083.65 67.4314 2090.9 67.4314 Q2094.14 67.4314 2097.3 66.5807 Q2100.5 65.6895 2103.66 63.9476 L2103.66 70.8341 Q2100.54 72.2924 2097.18 73.0216 Q2093.86 73.7508 2090.09 73.7508 Q2079.84 73.7508 2073.81 67.3098 Q2067.77 60.8689 2067.77 49.9314 Q2067.77 38.832 2073.85 32.472 Q2079.96 26.1121 2090.58 26.1121 Q2094.02 26.1121 2097.3 26.8413 Q2100.58 27.5299 2103.66 28.9478 Z" fill="#000000" fill-rule="nonzero" fill-opacity="1" /><path clip-path="url(#clip030)" d="M2155.43 48.0275 L2155.43 51.6733 L2121.16 51.6733 Q2121.65 59.3701 2125.78 63.421 Q2129.95 67.4314 2137.37 67.4314 Q2141.66 67.4314 2145.67 66.3781 Q2149.72 65.3249 2153.69 63.2184 L2153.69 70.267 Q2149.68 71.9684 2145.47 72.8596 Q2141.25 73.7508 2136.92 73.7508 Q2126.06 73.7508 2119.7 67.4314 Q2113.38 61.1119 2113.38 50.3365 Q2113.38 39.1965 2119.38 32.6746 Q2125.42 26.1121 2135.62 26.1121 Q2144.78 26.1121 2150.09 32.0264 Q2155.43 37.9003 2155.43 48.0275 M2147.98 45.84 Q2147.9 39.7232 2144.54 36.0774 Q2141.21 32.4315 2135.7 32.4315 Q2129.47 32.4315 2125.7 35.9558 Q2121.97 39.4801 2121.4 45.8805 L2147.98 45.84 Z" fill="#000000" fill-rule="nonzero" fill-opacity="1" /><polyline clip-path="url(#clip031)" style="stroke:#0000ff; stroke-linecap:round; stroke-linejoin:round; stroke-width:8; stroke-opacity:1; fill:none" stroke-dasharray="32, 20" points="323.787,1640.03 380.024,1654.86 436.261,1580.71 492.498,1491.73 548.735,1373.08 604.973,1269.27 661.21,1224.78 717.447,1313.76 773.684,1180.29 829.921,1150.63 886.158,1061.64 942.395,1046.81 998.632,883.679 1054.87,839.187 1111.11,809.527 1167.34,631.562 1223.58,468.427 1279.82,394.275 1336.05,379.445 1392.29,186.649 1448.53,260.801 1504.77,423.936 1561,349.784 1617.24,601.901 1673.48,720.544 1729.71,779.866 1785.95,705.714 1842.19,913.34 1898.43,943 1954.66,1091.3 2010.9,1106.13 2067.14,1031.98 2123.37,1076.47 2179.61,1106.13 2235.85,1135.8 2292.09,1135.8 2348.32,1135.8 2404.56,1239.61 2460.8,1343.42 2517.03,1328.59 2573.27,1462.06 "/>
<polyline clip-path="url(#clip031)" style="stroke:#ff0000; stroke-linecap:round; stroke-linejoin:round; stroke-width:8; stroke-opacity:1; fill:none" points="323.787,1658.64 380.024,1688.65 436.261,1661.02 492.498,1605.24 548.735,1521.56 604.973,1424.33 661.21,1300.46 717.447,1191.32 773.684,1122.86 829.921,1068.57 886.158,1001.39 942.395,1088.18 998.632,982.548 1054.87,794.204 1111.11,788.34 1167.34,575.704 1223.58,380.764 1279.82,256.295 1336.05,173.254 1392.29,226.197 1448.53,318.882 1504.77,214.35 1561,217.223 1617.24,220.086 1673.48,453.232 1729.71,577.218 1785.95,650.409 1842.19,669.419 1898.43,628.718 1954.66,516.721 2010.9,548.733 2067.14,652.669 2123.37,739.422 2179.61,773.169 2235.85,860.627 2292.09,836.491 2348.32,779.468 2404.56,857.311 2460.8,1036.04 2517.03,1077.4 2573.27,1191.77 "/>
<path clip-path="url(#clip030)" d="M1866.86 336.856 L2561.27 336.856 L2561.27 181.336 L1866.86 181.336  Z" fill="#ffffff" fill-rule="evenodd" fill-opacity="1"/>
<polyline clip-path="url(#clip030)" style="stroke:#000000; stroke-linecap:round; stroke-linejoin:round; stroke-width:4; stroke-opacity:1; fill:none" points="1866.86,336.856 2561.27,336.856 2561.27,181.336 1866.86,181.336 1866.86,336.856 "/>
<polyline clip-path="url(#clip030)" style="stroke:#0000ff; stroke-linecap:round; stroke-linejoin:round; stroke-width:8; stroke-opacity:1; fill:none" stroke-dasharray="32, 20" points="1893.35,233.176 2052.32,233.176 "/>
<path clip-path="url(#clip030)" d="M2078.81 215.896 L2085.11 215.896 L2100.43 244.808 L2100.43 215.896 L2104.97 215.896 L2104.97 250.456 L2098.67 250.456 L2083.35 221.544 L2083.35 250.456 L2078.81 250.456 L2078.81 215.896 Z" fill="#000000" fill-rule="nonzero" fill-opacity="1" /><path clip-path="url(#clip030)" d="M2124.13 227.517 Q2120.71 227.517 2118.72 230.202 Q2116.73 232.864 2116.73 237.517 Q2116.73 242.169 2118.69 244.854 Q2120.69 247.516 2124.13 247.516 Q2127.54 247.516 2129.53 244.831 Q2131.52 242.146 2131.52 237.517 Q2131.52 232.91 2129.53 230.225 Q2127.54 227.517 2124.13 227.517 M2124.13 223.906 Q2129.69 223.906 2132.86 227.517 Q2136.03 231.128 2136.03 237.517 Q2136.03 243.882 2132.86 247.516 Q2129.69 251.128 2124.13 251.128 Q2118.56 251.128 2115.38 247.516 Q2112.24 243.882 2112.24 237.517 Q2112.24 231.128 2115.38 227.517 Q2118.56 223.906 2124.13 223.906 Z" fill="#000000" fill-rule="nonzero" fill-opacity="1" /><path clip-path="url(#clip030)" d="M2175.22 228.466 L2175.22 214.438 L2179.48 214.438 L2179.48 250.456 L2175.22 250.456 L2175.22 246.567 Q2173.88 248.882 2171.82 250.016 Q2169.78 251.128 2166.91 251.128 Q2162.21 251.128 2159.25 247.378 Q2156.31 243.628 2156.31 237.517 Q2156.31 231.405 2159.25 227.655 Q2162.21 223.906 2166.91 223.906 Q2169.78 223.906 2171.82 225.04 Q2173.88 226.151 2175.22 228.466 M2160.71 237.517 Q2160.71 242.216 2162.63 244.901 Q2164.57 247.563 2167.95 247.563 Q2171.33 247.563 2173.28 244.901 Q2175.22 242.216 2175.22 237.517 Q2175.22 232.817 2173.28 230.155 Q2171.33 227.47 2167.95 227.47 Q2164.57 227.47 2162.63 230.155 Q2160.71 232.817 2160.71 237.517 Z" fill="#000000" fill-rule="nonzero" fill-opacity="1" /><path clip-path="url(#clip030)" d="M2210.43 236.429 L2210.43 238.512 L2190.85 238.512 Q2191.12 242.91 2193.49 245.225 Q2195.87 247.516 2200.11 247.516 Q2202.56 247.516 2204.85 246.915 Q2207.17 246.313 2209.43 245.109 L2209.43 249.137 Q2207.14 250.109 2204.74 250.618 Q2202.33 251.128 2199.85 251.128 Q2193.65 251.128 2190.01 247.516 Q2186.4 243.905 2186.4 237.748 Q2186.4 231.382 2189.83 227.655 Q2193.28 223.906 2199.11 223.906 Q2204.34 223.906 2207.37 227.285 Q2210.43 230.642 2210.43 236.429 M2206.17 235.179 Q2206.12 231.683 2204.2 229.6 Q2202.31 227.517 2199.16 227.517 Q2195.59 227.517 2193.44 229.53 Q2191.31 231.544 2190.99 235.202 L2206.17 235.179 Z" fill="#000000" fill-rule="nonzero" fill-opacity="1" /><path clip-path="url(#clip030)" d="M2237.61 229.507 Q2239.2 226.637 2241.43 225.271 Q2243.65 223.906 2246.66 223.906 Q2250.71 223.906 2252.91 226.753 Q2255.11 229.577 2255.11 234.808 L2255.11 250.456 L2250.82 250.456 L2250.82 234.947 Q2250.82 231.22 2249.5 229.415 Q2248.18 227.609 2245.48 227.609 Q2242.17 227.609 2240.24 229.808 Q2238.32 232.007 2238.32 235.804 L2238.32 250.456 L2234.04 250.456 L2234.04 234.947 Q2234.04 231.197 2232.72 229.415 Q2231.4 227.609 2228.65 227.609 Q2225.38 227.609 2223.46 229.831 Q2221.54 232.03 2221.54 235.804 L2221.54 250.456 L2217.26 250.456 L2217.26 224.531 L2221.54 224.531 L2221.54 228.558 Q2223 226.174 2225.04 225.04 Q2227.07 223.906 2229.87 223.906 Q2232.7 223.906 2234.67 225.341 Q2236.66 226.776 2237.61 229.507 Z" fill="#000000" fill-rule="nonzero" fill-opacity="1" /><path clip-path="url(#clip030)" d="M2273.65 227.517 Q2270.22 227.517 2268.23 230.202 Q2266.24 232.864 2266.24 237.517 Q2266.24 242.169 2268.21 244.854 Q2270.2 247.516 2273.65 247.516 Q2277.05 247.516 2279.04 244.831 Q2281.03 242.146 2281.03 237.517 Q2281.03 232.91 2279.04 230.225 Q2277.05 227.517 2273.65 227.517 M2273.65 223.906 Q2279.2 223.906 2282.37 227.517 Q2285.55 231.128 2285.55 237.517 Q2285.55 243.882 2282.37 247.516 Q2279.2 251.128 2273.65 251.128 Q2268.07 251.128 2264.9 247.516 Q2261.75 243.882 2261.75 237.517 Q2261.75 231.128 2264.9 227.517 Q2268.07 223.906 2273.65 223.906 Z" fill="#000000" fill-rule="nonzero" fill-opacity="1" /><path clip-path="url(#clip030)" d="M2309.67 237.192 Q2309.67 232.563 2307.74 230.017 Q2305.85 227.47 2302.4 227.47 Q2298.97 227.47 2297.05 230.017 Q2295.15 232.563 2295.15 237.192 Q2295.15 241.799 2297.05 244.345 Q2298.97 246.891 2302.4 246.891 Q2305.85 246.891 2307.74 244.345 Q2309.67 241.799 2309.67 237.192 M2313.92 247.239 Q2313.92 253.859 2310.99 257.077 Q2308.05 260.317 2301.98 260.317 Q2299.74 260.317 2297.74 259.97 Q2295.75 259.646 2293.88 258.952 L2293.88 254.808 Q2295.75 255.827 2297.58 256.313 Q2299.41 256.799 2301.31 256.799 Q2305.5 256.799 2307.58 254.6 Q2309.67 252.424 2309.67 248.003 L2309.67 245.896 Q2308.35 248.188 2306.29 249.322 Q2304.23 250.456 2301.36 250.456 Q2296.59 250.456 2293.67 246.822 Q2290.75 243.188 2290.75 237.192 Q2290.75 231.174 2293.67 227.54 Q2296.59 223.906 2301.36 223.906 Q2304.23 223.906 2306.29 225.04 Q2308.35 226.174 2309.67 228.466 L2309.67 224.531 L2313.92 224.531 L2313.92 247.239 Z" fill="#000000" fill-rule="nonzero" fill-opacity="1" /><path clip-path="url(#clip030)" d="M2337.72 228.512 Q2337 228.095 2336.15 227.91 Q2335.31 227.702 2334.3 227.702 Q2330.68 227.702 2328.74 230.063 Q2326.82 232.401 2326.82 236.799 L2326.82 250.456 L2322.54 250.456 L2322.54 224.531 L2326.82 224.531 L2326.82 228.558 Q2328.16 226.197 2330.31 225.063 Q2332.47 223.906 2335.55 223.906 Q2335.98 223.906 2336.52 223.975 Q2337.05 224.021 2337.7 224.137 L2337.72 228.512 Z" fill="#000000" fill-rule="nonzero" fill-opacity="1" /><path clip-path="url(#clip030)" d="M2353.97 237.424 Q2348.81 237.424 2346.82 238.604 Q2344.83 239.785 2344.83 242.632 Q2344.83 244.901 2346.31 246.243 Q2347.81 247.563 2350.38 247.563 Q2353.92 247.563 2356.05 245.063 Q2358.21 242.54 2358.21 238.373 L2358.21 237.424 L2353.97 237.424 M2362.47 235.665 L2362.47 250.456 L2358.21 250.456 L2358.21 246.521 Q2356.75 248.882 2354.57 250.016 Q2352.4 251.128 2349.25 251.128 Q2345.27 251.128 2342.91 248.905 Q2340.57 246.66 2340.57 242.91 Q2340.57 238.535 2343.48 236.313 Q2346.42 234.091 2352.23 234.091 L2358.21 234.091 L2358.21 233.674 Q2358.21 230.734 2356.26 229.137 Q2354.34 227.517 2350.85 227.517 Q2348.62 227.517 2346.52 228.049 Q2344.41 228.581 2342.47 229.646 L2342.47 225.711 Q2344.8 224.808 2347 224.368 Q2349.2 223.906 2351.29 223.906 Q2356.91 223.906 2359.69 226.822 Q2362.47 229.739 2362.47 235.665 Z" fill="#000000" fill-rule="nonzero" fill-opacity="1" /><path clip-path="url(#clip030)" d="M2375.36 246.567 L2375.36 260.317 L2371.08 260.317 L2371.08 224.531 L2375.36 224.531 L2375.36 228.466 Q2376.7 226.151 2378.74 225.04 Q2380.8 223.906 2383.65 223.906 Q2388.37 223.906 2391.31 227.655 Q2394.27 231.405 2394.27 237.517 Q2394.27 243.628 2391.31 247.378 Q2388.37 251.128 2383.65 251.128 Q2380.8 251.128 2378.74 250.016 Q2376.7 248.882 2375.36 246.567 M2389.85 237.517 Q2389.85 232.817 2387.91 230.155 Q2385.98 227.47 2382.61 227.47 Q2379.23 227.47 2377.28 230.155 Q2375.36 232.817 2375.36 237.517 Q2375.36 242.216 2377.28 244.901 Q2379.23 247.563 2382.61 247.563 Q2385.98 247.563 2387.91 244.901 Q2389.85 242.216 2389.85 237.517 Z" fill="#000000" fill-rule="nonzero" fill-opacity="1" /><path clip-path="url(#clip030)" d="M2422.88 234.808 L2422.88 250.456 L2418.62 250.456 L2418.62 234.947 Q2418.62 231.267 2417.19 229.438 Q2415.75 227.609 2412.88 227.609 Q2409.43 227.609 2407.44 229.808 Q2405.45 232.007 2405.45 235.804 L2405.45 250.456 L2401.17 250.456 L2401.17 214.438 L2405.45 214.438 L2405.45 228.558 Q2406.98 226.22 2409.04 225.063 Q2411.12 223.906 2413.83 223.906 Q2418.3 223.906 2420.59 226.683 Q2422.88 229.438 2422.88 234.808 Z" fill="#000000" fill-rule="nonzero" fill-opacity="1" /><path clip-path="url(#clip030)" d="M2431.38 224.531 L2435.64 224.531 L2435.64 250.456 L2431.38 250.456 L2431.38 224.531 M2431.38 214.438 L2435.64 214.438 L2435.64 219.831 L2431.38 219.831 L2431.38 214.438 Z" fill="#000000" fill-rule="nonzero" fill-opacity="1" /><path clip-path="url(#clip030)" d="M2463.21 225.526 L2463.21 229.507 Q2461.4 228.512 2459.57 228.026 Q2457.77 227.517 2455.91 227.517 Q2451.77 227.517 2449.48 230.155 Q2447.19 232.771 2447.19 237.517 Q2447.19 242.262 2449.48 244.901 Q2451.77 247.516 2455.91 247.516 Q2457.77 247.516 2459.57 247.03 Q2461.4 246.521 2463.21 245.526 L2463.21 249.461 Q2461.42 250.294 2459.5 250.711 Q2457.6 251.128 2455.45 251.128 Q2449.6 251.128 2446.15 247.447 Q2442.7 243.767 2442.7 237.517 Q2442.7 231.174 2446.17 227.54 Q2449.66 223.906 2455.73 223.906 Q2457.7 223.906 2459.57 224.322 Q2461.45 224.716 2463.21 225.526 Z" fill="#000000" fill-rule="nonzero" fill-opacity="1" /><path clip-path="url(#clip030)" d="M2487.14 225.294 L2487.14 229.322 Q2485.34 228.396 2483.39 227.933 Q2481.45 227.47 2479.36 227.47 Q2476.19 227.47 2474.6 228.443 Q2473.02 229.415 2473.02 231.359 Q2473.02 232.841 2474.16 233.697 Q2475.29 234.53 2478.72 235.294 L2480.17 235.618 Q2484.71 236.591 2486.61 238.373 Q2488.53 240.132 2488.53 243.304 Q2488.53 246.915 2485.66 249.021 Q2482.81 251.128 2477.81 251.128 Q2475.73 251.128 2473.46 250.711 Q2471.22 250.317 2468.72 249.507 L2468.72 245.109 Q2471.08 246.336 2473.37 246.961 Q2475.66 247.563 2477.91 247.563 Q2480.91 247.563 2482.54 246.544 Q2484.16 245.503 2484.16 243.628 Q2484.16 241.892 2482.97 240.966 Q2481.82 240.04 2477.86 239.183 L2476.38 238.836 Q2472.42 238.003 2470.66 236.29 Q2468.9 234.554 2468.9 231.544 Q2468.9 227.887 2471.49 225.896 Q2474.09 223.906 2478.85 223.906 Q2481.22 223.906 2483.3 224.253 Q2485.38 224.6 2487.14 225.294 Z" fill="#000000" fill-rule="nonzero" fill-opacity="1" /><polyline clip-path="url(#clip030)" style="stroke:#ff0000; stroke-linecap:round; stroke-linejoin:round; stroke-width:8; stroke-opacity:1; fill:none" points="1893.35,285.016 2052.32,285.016 "/>
<path clip-path="url(#clip030)" d="M2078.81 267.736 L2083.53 267.736 L2090.8 296.949 L2098.05 267.736 L2103.3 267.736 L2110.57 296.949 L2117.81 267.736 L2122.56 267.736 L2113.88 302.296 L2108 302.296 L2100.71 272.296 L2093.35 302.296 L2087.47 302.296 L2078.81 267.736 Z" fill="#000000" fill-rule="nonzero" fill-opacity="1" /><path clip-path="url(#clip030)" d="M2127.54 276.371 L2131.8 276.371 L2131.8 302.296 L2127.54 302.296 L2127.54 276.371 M2127.54 266.278 L2131.8 266.278 L2131.8 271.671 L2127.54 271.671 L2127.54 266.278 Z" fill="#000000" fill-rule="nonzero" fill-opacity="1" /><path clip-path="url(#clip030)" d="M2144.92 269.009 L2144.92 276.371 L2153.69 276.371 L2153.69 279.681 L2144.92 279.681 L2144.92 293.755 Q2144.92 296.926 2145.78 297.829 Q2146.66 298.731 2149.32 298.731 L2153.69 298.731 L2153.69 302.296 L2149.32 302.296 Q2144.39 302.296 2142.51 300.468 Q2140.64 298.616 2140.64 293.755 L2140.64 279.681 L2137.51 279.681 L2137.51 276.371 L2140.64 276.371 L2140.64 269.009 L2144.92 269.009 Z" fill="#000000" fill-rule="nonzero" fill-opacity="1" /><path clip-path="url(#clip030)" d="M2180.85 286.648 L2180.85 302.296 L2176.59 302.296 L2176.59 286.787 Q2176.59 283.107 2175.15 281.278 Q2173.72 279.449 2170.85 279.449 Q2167.4 279.449 2165.41 281.648 Q2163.42 283.847 2163.42 287.644 L2163.42 302.296 L2159.13 302.296 L2159.13 266.278 L2163.42 266.278 L2163.42 280.398 Q2164.94 278.06 2167 276.903 Q2169.09 275.746 2171.8 275.746 Q2176.26 275.746 2178.56 278.523 Q2180.85 281.278 2180.85 286.648 Z" fill="#000000" fill-rule="nonzero" fill-opacity="1" /><path clip-path="url(#clip030)" d="M2221.47 280.306 L2221.47 266.278 L2225.73 266.278 L2225.73 302.296 L2221.47 302.296 L2221.47 298.407 Q2220.13 300.722 2218.07 301.856 Q2216.03 302.968 2213.16 302.968 Q2208.46 302.968 2205.5 299.218 Q2202.56 295.468 2202.56 289.357 Q2202.56 283.245 2205.5 279.495 Q2208.46 275.746 2213.16 275.746 Q2216.03 275.746 2218.07 276.88 Q2220.13 277.991 2221.47 280.306 M2206.96 289.357 Q2206.96 294.056 2208.88 296.741 Q2210.82 299.403 2214.2 299.403 Q2217.58 299.403 2219.53 296.741 Q2221.47 294.056 2221.47 289.357 Q2221.47 284.657 2219.53 281.995 Q2217.58 279.31 2214.2 279.31 Q2210.82 279.31 2208.88 281.995 Q2206.96 284.657 2206.96 289.357 Z" fill="#000000" fill-rule="nonzero" fill-opacity="1" /><path clip-path="url(#clip030)" d="M2256.68 288.269 L2256.68 290.352 L2237.1 290.352 Q2237.37 294.75 2239.74 297.065 Q2242.12 299.356 2246.36 299.356 Q2248.81 299.356 2251.1 298.755 Q2253.42 298.153 2255.68 296.949 L2255.68 300.977 Q2253.39 301.949 2250.99 302.458 Q2248.58 302.968 2246.1 302.968 Q2239.9 302.968 2236.26 299.356 Q2232.65 295.745 2232.65 289.588 Q2232.65 283.222 2236.08 279.495 Q2239.53 275.746 2245.36 275.746 Q2250.59 275.746 2253.62 279.125 Q2256.68 282.482 2256.68 288.269 M2252.42 287.019 Q2252.37 283.523 2250.45 281.44 Q2248.55 279.357 2245.41 279.357 Q2241.84 279.357 2239.69 281.37 Q2237.56 283.384 2237.24 287.042 L2252.42 287.019 Z" fill="#000000" fill-rule="nonzero" fill-opacity="1" /><path clip-path="url(#clip030)" d="M2283.86 281.347 Q2285.45 278.477 2287.68 277.111 Q2289.9 275.746 2292.91 275.746 Q2296.96 275.746 2299.16 278.593 Q2301.36 281.417 2301.36 286.648 L2301.36 302.296 L2297.07 302.296 L2297.07 286.787 Q2297.07 283.06 2295.75 281.255 Q2294.43 279.449 2291.73 279.449 Q2288.42 279.449 2286.49 281.648 Q2284.57 283.847 2284.57 287.644 L2284.57 302.296 L2280.29 302.296 L2280.29 286.787 Q2280.29 283.037 2278.97 281.255 Q2277.65 279.449 2274.9 279.449 Q2271.63 279.449 2269.71 281.671 Q2267.79 283.87 2267.79 287.644 L2267.79 302.296 L2263.51 302.296 L2263.51 276.371 L2267.79 276.371 L2267.79 280.398 Q2269.25 278.014 2271.29 276.88 Q2273.32 275.746 2276.12 275.746 Q2278.95 275.746 2280.92 277.181 Q2282.91 278.616 2283.86 281.347 Z" fill="#000000" fill-rule="nonzero" fill-opacity="1" /><path clip-path="url(#clip030)" d="M2319.9 279.357 Q2316.47 279.357 2314.48 282.042 Q2312.49 284.704 2312.49 289.357 Q2312.49 294.009 2314.46 296.694 Q2316.45 299.356 2319.9 299.356 Q2323.3 299.356 2325.29 296.671 Q2327.28 293.986 2327.28 289.357 Q2327.28 284.75 2325.29 282.065 Q2323.3 279.357 2319.9 279.357 M2319.9 275.746 Q2325.45 275.746 2328.62 279.357 Q2331.8 282.968 2331.8 289.357 Q2331.8 295.722 2328.62 299.356 Q2325.45 302.968 2319.9 302.968 Q2314.32 302.968 2311.15 299.356 Q2308 295.722 2308 289.357 Q2308 282.968 2311.15 279.357 Q2314.32 275.746 2319.9 275.746 Z" fill="#000000" fill-rule="nonzero" fill-opacity="1" /><path clip-path="url(#clip030)" d="M2355.92 289.032 Q2355.92 284.403 2353.99 281.857 Q2352.1 279.31 2348.65 279.31 Q2345.22 279.31 2343.3 281.857 Q2341.4 284.403 2341.4 289.032 Q2341.4 293.639 2343.3 296.185 Q2345.22 298.731 2348.65 298.731 Q2352.1 298.731 2353.99 296.185 Q2355.92 293.639 2355.92 289.032 M2360.17 299.079 Q2360.17 305.699 2357.23 308.917 Q2354.3 312.157 2348.23 312.157 Q2345.98 312.157 2343.99 311.81 Q2342 311.486 2340.13 310.792 L2340.13 306.648 Q2342 307.667 2343.83 308.153 Q2345.66 308.639 2347.56 308.639 Q2351.75 308.639 2353.83 306.44 Q2355.92 304.264 2355.92 299.843 L2355.92 297.736 Q2354.6 300.028 2352.54 301.162 Q2350.48 302.296 2347.61 302.296 Q2342.84 302.296 2339.92 298.662 Q2337 295.028 2337 289.032 Q2337 283.014 2339.92 279.38 Q2342.84 275.746 2347.61 275.746 Q2350.48 275.746 2352.54 276.88 Q2354.6 278.014 2355.92 280.306 L2355.92 276.371 L2360.17 276.371 L2360.17 299.079 Z" fill="#000000" fill-rule="nonzero" fill-opacity="1" /><path clip-path="url(#clip030)" d="M2383.97 280.352 Q2383.25 279.935 2382.4 279.75 Q2381.56 279.542 2380.54 279.542 Q2376.93 279.542 2374.99 281.903 Q2373.07 284.241 2373.07 288.639 L2373.07 302.296 L2368.79 302.296 L2368.79 276.371 L2373.07 276.371 L2373.07 280.398 Q2374.41 278.037 2376.56 276.903 Q2378.72 275.746 2381.79 275.746 Q2382.23 275.746 2382.77 275.815 Q2383.3 275.861 2383.95 275.977 L2383.97 280.352 Z" fill="#000000" fill-rule="nonzero" fill-opacity="1" /><path clip-path="url(#clip030)" d="M2400.22 289.264 Q2395.06 289.264 2393.07 290.444 Q2391.08 291.625 2391.08 294.472 Q2391.08 296.741 2392.56 298.083 Q2394.06 299.403 2396.63 299.403 Q2400.17 299.403 2402.3 296.903 Q2404.46 294.38 2404.46 290.213 L2404.46 289.264 L2400.22 289.264 M2408.72 287.505 L2408.72 302.296 L2404.46 302.296 L2404.46 298.361 Q2403 300.722 2400.82 301.856 Q2398.65 302.968 2395.5 302.968 Q2391.52 302.968 2389.16 300.745 Q2386.82 298.5 2386.82 294.75 Q2386.82 290.375 2389.73 288.153 Q2392.67 285.931 2398.48 285.931 L2404.46 285.931 L2404.46 285.514 Q2404.46 282.574 2402.51 280.977 Q2400.59 279.357 2397.1 279.357 Q2394.87 279.357 2392.77 279.889 Q2390.66 280.421 2388.72 281.486 L2388.72 277.551 Q2391.05 276.648 2393.25 276.208 Q2395.45 275.746 2397.54 275.746 Q2403.16 275.746 2405.94 278.662 Q2408.72 281.579 2408.72 287.505 Z" fill="#000000" fill-rule="nonzero" fill-opacity="1" /><path clip-path="url(#clip030)" d="M2421.61 298.407 L2421.61 312.157 L2417.33 312.157 L2417.33 276.371 L2421.61 276.371 L2421.61 280.306 Q2422.95 277.991 2424.99 276.88 Q2427.05 275.746 2429.9 275.746 Q2434.62 275.746 2437.56 279.495 Q2440.52 283.245 2440.52 289.357 Q2440.52 295.468 2437.56 299.218 Q2434.62 302.968 2429.9 302.968 Q2427.05 302.968 2424.99 301.856 Q2422.95 300.722 2421.61 298.407 M2436.1 289.357 Q2436.1 284.657 2434.16 281.995 Q2432.23 279.31 2428.85 279.31 Q2425.48 279.31 2423.53 281.995 Q2421.61 284.657 2421.61 289.357 Q2421.61 294.056 2423.53 296.741 Q2425.48 299.403 2428.85 299.403 Q2432.23 299.403 2434.16 296.741 Q2436.1 294.056 2436.1 289.357 Z" fill="#000000" fill-rule="nonzero" fill-opacity="1" /><path clip-path="url(#clip030)" d="M2469.13 286.648 L2469.13 302.296 L2464.87 302.296 L2464.87 286.787 Q2464.87 283.107 2463.44 281.278 Q2462 279.449 2459.13 279.449 Q2455.68 279.449 2453.69 281.648 Q2451.7 283.847 2451.7 287.644 L2451.7 302.296 L2447.42 302.296 L2447.42 266.278 L2451.7 266.278 L2451.7 280.398 Q2453.23 278.06 2455.29 276.903 Q2457.37 275.746 2460.08 275.746 Q2464.55 275.746 2466.84 278.523 Q2469.13 281.278 2469.13 286.648 Z" fill="#000000" fill-rule="nonzero" fill-opacity="1" /><path clip-path="url(#clip030)" d="M2477.63 276.371 L2481.89 276.371 L2481.89 302.296 L2477.63 302.296 L2477.63 276.371 M2477.63 266.278 L2481.89 266.278 L2481.89 271.671 L2477.63 271.671 L2477.63 266.278 Z" fill="#000000" fill-rule="nonzero" fill-opacity="1" /><path clip-path="url(#clip030)" d="M2509.46 277.366 L2509.46 281.347 Q2507.65 280.352 2505.82 279.866 Q2504.02 279.357 2502.16 279.357 Q2498.02 279.357 2495.73 281.995 Q2493.44 284.611 2493.44 289.357 Q2493.44 294.102 2495.73 296.741 Q2498.02 299.356 2502.16 299.356 Q2504.02 299.356 2505.82 298.87 Q2507.65 298.361 2509.46 297.366 L2509.46 301.301 Q2507.67 302.134 2505.75 302.551 Q2503.85 302.968 2501.7 302.968 Q2495.85 302.968 2492.4 299.287 Q2488.95 295.607 2488.95 289.357 Q2488.95 283.014 2492.42 279.38 Q2495.91 275.746 2501.98 275.746 Q2503.95 275.746 2505.82 276.162 Q2507.7 276.556 2509.46 277.366 Z" fill="#000000" fill-rule="nonzero" fill-opacity="1" /><path clip-path="url(#clip030)" d="M2533.39 277.134 L2533.39 281.162 Q2531.59 280.236 2529.64 279.773 Q2527.7 279.31 2525.61 279.31 Q2522.44 279.31 2520.85 280.283 Q2519.27 281.255 2519.27 283.199 Q2519.27 284.681 2520.41 285.537 Q2521.54 286.37 2524.97 287.134 L2526.42 287.458 Q2530.96 288.431 2532.86 290.213 Q2534.78 291.972 2534.78 295.144 Q2534.78 298.755 2531.91 300.861 Q2529.06 302.968 2524.06 302.968 Q2521.98 302.968 2519.71 302.551 Q2517.47 302.157 2514.97 301.347 L2514.97 296.949 Q2517.33 298.176 2519.62 298.801 Q2521.91 299.403 2524.16 299.403 Q2527.16 299.403 2528.78 298.384 Q2530.41 297.343 2530.41 295.468 Q2530.41 293.732 2529.22 292.806 Q2528.07 291.88 2524.11 291.023 L2522.63 290.676 Q2518.67 289.843 2516.91 288.13 Q2515.15 286.394 2515.15 283.384 Q2515.15 279.727 2517.74 277.736 Q2520.34 275.746 2525.1 275.746 Q2527.47 275.746 2529.55 276.093 Q2531.63 276.44 2533.39 277.134 Z" fill="#000000" fill-rule="nonzero" fill-opacity="1" /></svg>
