<?xml version="1.0" encoding="utf-8"?>
<svg xmlns="http://www.w3.org/2000/svg" xmlns:xlink="http://www.w3.org/1999/xlink" width="672" height="480" viewBox="0 0 2688 1920">
<defs>
  <clipPath id="clip640">
    <rect x="0" y="0" width="2688" height="1920"/>
  </clipPath>
</defs>
<path clip-path="url(#clip640)" d="M0 1920 L2688 1920 L2688 -4.26326e-14 L0 -4.26326e-14  Z" fill="#ffffff" fill-rule="evenodd" fill-opacity="1"/>
<defs>
  <clipPath id="clip641">
    <rect x="525" y="127" width="2116" height="1607"/>
  </clipPath>
</defs>
<path clip-path="url(#clip640)" d="M525.793 1734.12 L2640.76 1734.12 L2640.76 127.792 L525.793 127.792  Z" fill="#ffffff" fill-rule="evenodd" fill-opacity="1"/>
<polyline clip-path="url(#clip641)" style="stroke:#000000; stroke-linecap:round; stroke-linejoin:round; stroke-width:2; stroke-opacity:0.1; fill:none" points="585.651,1734.12 585.651,127.792 "/>
<polyline clip-path="url(#clip641)" style="stroke:#000000; stroke-linecap:round; stroke-linejoin:round; stroke-width:2; stroke-opacity:0.1; fill:none" points="918.192,1734.12 918.192,127.792 "/>
<polyline clip-path="url(#clip641)" style="stroke:#000000; stroke-linecap:round; stroke-linejoin:round; stroke-width:2; stroke-opacity:0.1; fill:none" points="1250.73,1734.12 1250.73,127.792 "/>
<polyline clip-path="url(#clip641)" style="stroke:#000000; stroke-linecap:round; stroke-linejoin:round; stroke-width:2; stroke-opacity:0.1; fill:none" points="1583.27,1734.12 1583.27,127.792 "/>
<polyline clip-path="url(#clip641)" style="stroke:#000000; stroke-linecap:round; stroke-linejoin:round; stroke-width:2; stroke-opacity:0.1; fill:none" points="1915.82,1734.12 1915.82,127.792 "/>
<polyline clip-path="url(#clip641)" style="stroke:#000000; stroke-linecap:round; stroke-linejoin:round; stroke-width:2; stroke-opacity:0.1; fill:none" points="2248.36,1734.12 2248.36,127.792 "/>
<polyline clip-path="url(#clip641)" style="stroke:#000000; stroke-linecap:round; stroke-linejoin:round; stroke-width:2; stroke-opacity:0.1; fill:none" points="2580.9,1734.12 2580.9,127.792 "/>
<polyline clip-path="url(#clip641)" style="stroke:#000000; stroke-linecap:round; stroke-linejoin:round; stroke-width:2; stroke-opacity:0.1; fill:none" points="525.793,1688.65 2640.76,1688.65 "/>
<polyline clip-path="url(#clip641)" style="stroke:#000000; stroke-linecap:round; stroke-linejoin:round; stroke-width:2; stroke-opacity:0.1; fill:none" points="525.793,1309.8 2640.76,1309.8 "/>
<polyline clip-path="url(#clip641)" style="stroke:#000000; stroke-linecap:round; stroke-linejoin:round; stroke-width:2; stroke-opacity:0.1; fill:none" points="525.793,930.955 2640.76,930.955 "/>
<polyline clip-path="url(#clip641)" style="stroke:#000000; stroke-linecap:round; stroke-linejoin:round; stroke-width:2; stroke-opacity:0.1; fill:none" points="525.793,552.104 2640.76,552.104 "/>
<polyline clip-path="url(#clip641)" style="stroke:#000000; stroke-linecap:round; stroke-linejoin:round; stroke-width:2; stroke-opacity:0.1; fill:none" points="525.793,173.254 2640.76,173.254 "/>
<polyline clip-path="url(#clip640)" style="stroke:#000000; stroke-linecap:round; stroke-linejoin:round; stroke-width:4; stroke-opacity:1; fill:none" points="525.793,1734.12 2640.76,1734.12 "/>
<polyline clip-path="url(#clip640)" style="stroke:#000000; stroke-linecap:round; stroke-linejoin:round; stroke-width:4; stroke-opacity:1; fill:none" points="585.651,1734.12 585.651,1715.22 "/>
<polyline clip-path="url(#clip640)" style="stroke:#000000; stroke-linecap:round; stroke-linejoin:round; stroke-width:4; stroke-opacity:1; fill:none" points="918.192,1734.12 918.192,1715.22 "/>
<polyline clip-path="url(#clip640)" style="stroke:#000000; stroke-linecap:round; stroke-linejoin:round; stroke-width:4; stroke-opacity:1; fill:none" points="1250.73,1734.12 1250.73,1715.22 "/>
<polyline clip-path="url(#clip640)" style="stroke:#000000; stroke-linecap:round; stroke-linejoin:round; stroke-width:4; stroke-opacity:1; fill:none" points="1583.27,1734.12 1583.27,1715.22 "/>
<polyline clip-path="url(#clip640)" style="stroke:#000000; stroke-linecap:round; stroke-linejoin:round; stroke-width:4; stroke-opacity:1; fill:none" points="1915.82,1734.12 1915.82,1715.22 "/>
<polyline clip-path="url(#clip640)" style="stroke:#000000; stroke-linecap:round; stroke-linejoin:round; stroke-width:4; stroke-opacity:1; fill:none" points="2248.36,1734.12 2248.36,1715.22 "/>
<polyline clip-path="url(#clip640)" style="stroke:#000000; stroke-linecap:round; stroke-linejoin:round; stroke-width:4; stroke-opacity:1; fill:none" points="2580.9,1734.12 2580.9,1715.22 "/>
<path clip-path="url(#clip640)" d="M585.651 1767.34 Q582.04 1767.34 580.211 1770.9 Q578.405 1774.45 578.405 1781.58 Q578.405 1788.68 580.211 1792.25 Q582.04 1795.79 585.651 1795.79 Q589.285 1795.79 591.09 1792.25 Q592.919 1788.68 592.919 1781.58 Q592.919 1774.45 591.09 1770.9 Q589.285 1767.34 585.651 1767.34 M585.651 1763.64 Q591.461 1763.64 594.516 1768.24 Q597.595 1772.83 597.595 1781.58 Q597.595 1790.3 594.516 1794.91 Q591.461 1799.49 585.651 1799.49 Q579.84 1799.49 576.762 1794.91 Q573.706 1790.3 573.706 1781.58 Q573.706 1772.83 576.762 1768.24 Q579.84 1763.64 585.651 1763.64 Z" fill="#000000" fill-rule="nonzero" fill-opacity="1" /><path clip-path="url(#clip640)" d="M892.88 1794.89 L900.518 1794.89 L900.518 1768.52 L892.208 1770.19 L892.208 1765.93 L900.472 1764.26 L905.148 1764.26 L905.148 1794.89 L912.787 1794.89 L912.787 1798.82 L892.88 1798.82 L892.88 1794.89 Z" fill="#000000" fill-rule="nonzero" fill-opacity="1" /><path clip-path="url(#clip640)" d="M932.231 1767.34 Q928.62 1767.34 926.791 1770.9 Q924.986 1774.45 924.986 1781.58 Q924.986 1788.68 926.791 1792.25 Q928.62 1795.79 932.231 1795.79 Q935.865 1795.79 937.671 1792.25 Q939.5 1788.68 939.5 1781.58 Q939.5 1774.45 937.671 1770.9 Q935.865 1767.34 932.231 1767.34 M932.231 1763.64 Q938.041 1763.64 941.097 1768.24 Q944.176 1772.83 944.176 1781.58 Q944.176 1790.3 941.097 1794.91 Q938.041 1799.49 932.231 1799.49 Q926.421 1799.49 923.342 1794.91 Q920.287 1790.3 920.287 1781.58 Q920.287 1772.83 923.342 1768.24 Q926.421 1763.64 932.231 1763.64 Z" fill="#000000" fill-rule="nonzero" fill-opacity="1" /><path clip-path="url(#clip640)" d="M1229.51 1794.89 L1245.83 1794.89 L1245.83 1798.82 L1223.88 1798.82 L1223.88 1794.89 Q1226.54 1792.13 1231.13 1787.5 Q1235.73 1782.85 1236.91 1781.51 Q1239.16 1778.98 1240.04 1777.25 Q1240.94 1775.49 1240.94 1773.8 Q1240.94 1771.04 1239 1769.31 Q1237.08 1767.57 1233.97 1767.57 Q1231.77 1767.57 1229.32 1768.34 Q1226.89 1769.1 1224.11 1770.65 L1224.11 1765.93 Q1226.94 1764.79 1229.39 1764.21 Q1231.84 1763.64 1233.88 1763.64 Q1239.25 1763.64 1242.45 1766.32 Q1245.64 1769.01 1245.64 1773.5 Q1245.64 1775.63 1244.83 1777.55 Q1244.04 1779.45 1241.94 1782.04 Q1241.36 1782.71 1238.26 1785.93 Q1235.15 1789.12 1229.51 1794.89 Z" fill="#000000" fill-rule="nonzero" fill-opacity="1" /><path clip-path="url(#clip640)" d="M1265.64 1767.34 Q1262.03 1767.34 1260.2 1770.9 Q1258.4 1774.45 1258.4 1781.58 Q1258.4 1788.68 1260.2 1792.25 Q1262.03 1795.79 1265.64 1795.79 Q1269.27 1795.79 1271.08 1792.25 Q1272.91 1788.68 1272.91 1781.58 Q1272.91 1774.45 1271.08 1770.9 Q1269.27 1767.34 1265.64 1767.34 M1265.64 1763.64 Q1271.45 1763.64 1274.51 1768.24 Q1277.58 1772.83 1277.58 1781.58 Q1277.58 1790.3 1274.51 1794.91 Q1271.45 1799.49 1265.64 1799.49 Q1259.83 1799.49 1256.75 1794.91 Q1253.7 1790.3 1253.7 1781.58 Q1253.7 1772.83 1256.75 1768.24 Q1259.83 1763.64 1265.64 1763.64 Z" fill="#000000" fill-rule="nonzero" fill-opacity="1" /><path clip-path="url(#clip640)" d="M1572.12 1780.19 Q1575.47 1780.9 1577.35 1783.17 Q1579.25 1785.44 1579.25 1788.77 Q1579.25 1793.89 1575.73 1796.69 Q1572.21 1799.49 1565.73 1799.49 Q1563.55 1799.49 1561.24 1799.05 Q1558.95 1798.64 1556.49 1797.78 L1556.49 1793.27 Q1558.44 1794.4 1560.75 1794.98 Q1563.07 1795.56 1565.59 1795.56 Q1569.99 1795.56 1572.28 1793.82 Q1574.59 1792.08 1574.59 1788.77 Q1574.59 1785.72 1572.44 1784.01 Q1570.31 1782.27 1566.49 1782.27 L1562.46 1782.27 L1562.46 1778.43 L1566.68 1778.43 Q1570.13 1778.43 1571.96 1777.06 Q1573.78 1775.67 1573.78 1773.08 Q1573.78 1770.42 1571.89 1769.01 Q1570.01 1767.57 1566.49 1767.57 Q1564.57 1767.57 1562.37 1767.99 Q1560.17 1768.4 1557.53 1769.28 L1557.53 1765.12 Q1560.2 1764.38 1562.51 1764.01 Q1564.85 1763.64 1566.91 1763.64 Q1572.23 1763.64 1575.33 1766.07 Q1578.44 1768.47 1578.44 1772.59 Q1578.44 1775.46 1576.79 1777.46 Q1575.15 1779.42 1572.12 1780.19 Z" fill="#000000" fill-rule="nonzero" fill-opacity="1" /><path clip-path="url(#clip640)" d="M1598.11 1767.34 Q1594.5 1767.34 1592.67 1770.9 Q1590.87 1774.45 1590.87 1781.58 Q1590.87 1788.68 1592.67 1792.25 Q1594.5 1795.79 1598.11 1795.79 Q1601.75 1795.79 1603.55 1792.25 Q1605.38 1788.68 1605.38 1781.58 Q1605.38 1774.45 1603.55 1770.9 Q1601.75 1767.34 1598.11 1767.34 M1598.11 1763.64 Q1603.92 1763.64 1606.98 1768.24 Q1610.06 1772.83 1610.06 1781.58 Q1610.06 1790.3 1606.98 1794.91 Q1603.92 1799.49 1598.11 1799.49 Q1592.3 1799.49 1589.22 1794.91 Q1586.17 1790.3 1586.17 1781.58 Q1586.17 1772.83 1589.22 1768.24 Q1592.3 1763.64 1598.11 1763.64 Z" fill="#000000" fill-rule="nonzero" fill-opacity="1" /><path clip-path="url(#clip640)" d="M1903.99 1768.34 L1892.18 1786.78 L1903.99 1786.78 L1903.99 1768.34 M1902.76 1764.26 L1908.64 1764.26 L1908.64 1786.78 L1913.57 1786.78 L1913.57 1790.67 L1908.64 1790.67 L1908.64 1798.82 L1903.99 1798.82 L1903.99 1790.67 L1888.39 1790.67 L1888.39 1786.16 L1902.76 1764.26 Z" fill="#000000" fill-rule="nonzero" fill-opacity="1" /><path clip-path="url(#clip640)" d="M1931.3 1767.34 Q1927.69 1767.34 1925.86 1770.9 Q1924.06 1774.45 1924.06 1781.58 Q1924.06 1788.68 1925.86 1792.25 Q1927.69 1795.79 1931.3 1795.79 Q1934.94 1795.79 1936.74 1792.25 Q1938.57 1788.68 1938.57 1781.58 Q1938.57 1774.45 1936.74 1770.9 Q1934.94 1767.34 1931.3 1767.34 M1931.3 1763.64 Q1937.11 1763.64 1940.17 1768.24 Q1943.25 1772.83 1943.25 1781.58 Q1943.25 1790.3 1940.17 1794.91 Q1937.11 1799.49 1931.3 1799.49 Q1925.49 1799.49 1922.41 1794.91 Q1919.36 1790.3 1919.36 1781.58 Q1919.36 1772.83 1922.41 1768.24 Q1925.49 1763.64 1931.3 1763.64 Z" fill="#000000" fill-rule="nonzero" fill-opacity="1" /><path clip-path="url(#clip640)" d="M2223.06 1764.26 L2241.41 1764.26 L2241.41 1768.2 L2227.34 1768.2 L2227.34 1776.67 Q2228.36 1776.32 2229.38 1776.16 Q2230.39 1775.97 2231.41 1775.97 Q2237.2 1775.97 2240.58 1779.15 Q2243.96 1782.32 2243.96 1787.73 Q2243.96 1793.31 2240.49 1796.41 Q2237.01 1799.49 2230.7 1799.49 Q2228.52 1799.49 2226.25 1799.12 Q2224.01 1798.75 2221.6 1798.01 L2221.6 1793.31 Q2223.68 1794.45 2225.9 1795 Q2228.13 1795.56 2230.6 1795.56 Q2234.61 1795.56 2236.95 1793.45 Q2239.28 1791.34 2239.28 1787.73 Q2239.28 1784.12 2236.95 1782.02 Q2234.61 1779.91 2230.6 1779.91 Q2228.73 1779.91 2226.85 1780.33 Q2225 1780.74 2223.06 1781.62 L2223.06 1764.26 Z" fill="#000000" fill-rule="nonzero" fill-opacity="1" /><path clip-path="url(#clip640)" d="M2263.17 1767.34 Q2259.56 1767.34 2257.73 1770.9 Q2255.93 1774.45 2255.93 1781.58 Q2255.93 1788.68 2257.73 1792.25 Q2259.56 1795.79 2263.17 1795.79 Q2266.81 1795.79 2268.61 1792.25 Q2270.44 1788.68 2270.44 1781.58 Q2270.44 1774.45 2268.61 1770.9 Q2266.81 1767.34 2263.17 1767.34 M2263.17 1763.64 Q2268.98 1763.64 2272.04 1768.24 Q2275.12 1772.83 2275.12 1781.58 Q2275.12 1790.3 2272.04 1794.91 Q2268.98 1799.49 2263.17 1799.49 Q2257.36 1799.49 2254.28 1794.91 Q2251.23 1790.3 2251.23 1781.58 Q2251.23 1772.83 2254.28 1768.24 Q2257.36 1763.64 2263.17 1763.64 Z" fill="#000000" fill-rule="nonzero" fill-opacity="1" /><path clip-path="url(#clip640)" d="M2566.3 1779.68 Q2563.16 1779.68 2561.3 1781.83 Q2559.47 1783.98 2559.47 1787.73 Q2559.47 1791.46 2561.3 1793.64 Q2563.16 1795.79 2566.3 1795.79 Q2569.45 1795.79 2571.28 1793.64 Q2573.13 1791.46 2573.13 1787.73 Q2573.13 1783.98 2571.28 1781.83 Q2569.45 1779.68 2566.3 1779.68 M2575.59 1765.02 L2575.59 1769.28 Q2573.83 1768.45 2572.02 1768.01 Q2570.24 1767.57 2568.48 1767.57 Q2563.85 1767.57 2561.4 1770.7 Q2558.97 1773.82 2558.62 1780.14 Q2559.98 1778.13 2562.04 1777.06 Q2564.1 1775.97 2566.58 1775.97 Q2571.79 1775.97 2574.8 1779.15 Q2577.83 1782.29 2577.83 1787.73 Q2577.83 1793.06 2574.68 1796.27 Q2571.54 1799.49 2566.3 1799.49 Q2560.31 1799.49 2557.14 1794.91 Q2553.97 1790.3 2553.97 1781.58 Q2553.97 1773.38 2557.85 1768.52 Q2561.74 1763.64 2568.29 1763.64 Q2570.05 1763.64 2571.84 1763.98 Q2573.64 1764.33 2575.59 1765.02 Z" fill="#000000" fill-rule="nonzero" fill-opacity="1" /><path clip-path="url(#clip640)" d="M2595.89 1767.34 Q2592.28 1767.34 2590.45 1770.9 Q2588.64 1774.45 2588.64 1781.58 Q2588.64 1788.68 2590.45 1792.25 Q2592.28 1795.79 2595.89 1795.79 Q2599.52 1795.79 2601.33 1792.25 Q2603.16 1788.68 2603.16 1781.58 Q2603.16 1774.45 2601.33 1770.9 Q2599.52 1767.34 2595.89 1767.34 M2595.89 1763.64 Q2601.7 1763.64 2604.75 1768.24 Q2607.83 1772.83 2607.83 1781.58 Q2607.83 1790.3 2604.75 1794.91 Q2601.7 1799.49 2595.89 1799.49 Q2590.08 1799.49 2587 1794.91 Q2583.94 1790.3 2583.94 1781.58 Q2583.94 1772.83 2587 1768.24 Q2590.08 1763.64 2595.89 1763.64 Z" fill="#000000" fill-rule="nonzero" fill-opacity="1" /><path clip-path="url(#clip640)" d="M1243.14 1861.02 Q1245.21 1861.72 1247.15 1864.01 Q1249.12 1866.3 1251.1 1870.31 L1257.62 1883.3 L1250.71 1883.3 L1244.63 1871.11 Q1242.28 1866.34 1240.05 1864.78 Q1237.86 1863.22 1234.04 1863.22 L1227.03 1863.22 L1227.03 1883.3 L1220.6 1883.3 L1220.6 1835.78 L1235.12 1835.78 Q1243.27 1835.78 1247.28 1839.19 Q1251.29 1842.59 1251.29 1849.47 Q1251.29 1853.96 1249.19 1856.92 Q1247.12 1859.88 1243.14 1861.02 M1227.03 1841.06 L1227.03 1857.93 L1235.12 1857.93 Q1239.77 1857.93 1242.12 1855.8 Q1244.51 1853.64 1244.51 1849.47 Q1244.51 1845.3 1242.12 1843.2 Q1239.77 1841.06 1235.12 1841.06 L1227.03 1841.06 Z" fill="#000000" fill-rule="nonzero" fill-opacity="1" /><path clip-path="url(#clip640)" d="M1293.21 1864.01 L1293.21 1866.88 L1266.28 1866.88 Q1266.66 1872.92 1269.91 1876.11 Q1273.19 1879.26 1279.01 1879.26 Q1282.38 1879.26 1285.53 1878.43 Q1288.72 1877.6 1291.84 1875.95 L1291.84 1881.49 Q1288.69 1882.82 1285.38 1883.52 Q1282.07 1884.22 1278.66 1884.22 Q1270.13 1884.22 1265.13 1879.26 Q1260.17 1874.29 1260.17 1865.83 Q1260.17 1857.07 1264.88 1851.95 Q1269.62 1846.79 1277.64 1846.79 Q1284.83 1846.79 1289 1851.44 Q1293.21 1856.06 1293.21 1864.01 M1287.35 1862.29 Q1287.29 1857.49 1284.64 1854.62 Q1282.03 1851.76 1277.7 1851.76 Q1272.8 1851.76 1269.84 1854.53 Q1266.91 1857.3 1266.47 1862.33 L1287.35 1862.29 Z" fill="#000000" fill-rule="nonzero" fill-opacity="1" /><path clip-path="url(#clip640)" d="M1325.54 1848.7 L1325.54 1854.24 Q1323.06 1852.97 1320.39 1852.33 Q1317.71 1851.7 1314.85 1851.7 Q1310.49 1851.7 1308.29 1853.03 Q1306.13 1854.37 1306.13 1857.04 Q1306.13 1859.08 1307.69 1860.26 Q1309.25 1861.4 1313.96 1862.45 L1315.96 1862.9 Q1322.2 1864.24 1324.81 1866.69 Q1327.45 1869.11 1327.45 1873.47 Q1327.45 1878.43 1323.51 1881.33 Q1319.59 1884.22 1312.72 1884.22 Q1309.85 1884.22 1306.73 1883.65 Q1303.64 1883.11 1300.21 1882 L1300.21 1875.95 Q1303.45 1877.64 1306.61 1878.49 Q1309.76 1879.32 1312.84 1879.32 Q1316.98 1879.32 1319.21 1877.92 Q1321.44 1876.49 1321.44 1873.91 Q1321.44 1871.52 1319.81 1870.25 Q1318.22 1868.98 1312.78 1867.8 L1310.74 1867.32 Q1305.3 1866.18 1302.88 1863.82 Q1300.46 1861.43 1300.46 1857.3 Q1300.46 1852.27 1304.03 1849.53 Q1307.59 1846.79 1314.15 1846.79 Q1317.39 1846.79 1320.26 1847.27 Q1323.12 1847.75 1325.54 1848.7 Z" fill="#000000" fill-rule="nonzero" fill-opacity="1" /><path clip-path="url(#clip640)" d="M1342.44 1877.95 L1342.44 1896.86 L1336.56 1896.86 L1336.56 1847.65 L1342.44 1847.65 L1342.44 1853.06 Q1344.29 1849.88 1347.09 1848.35 Q1349.92 1846.79 1353.84 1846.79 Q1360.33 1846.79 1364.37 1851.95 Q1368.45 1857.11 1368.45 1865.51 Q1368.45 1873.91 1364.37 1879.07 Q1360.33 1884.22 1353.84 1884.22 Q1349.92 1884.22 1347.09 1882.7 Q1344.29 1881.14 1342.44 1877.95 M1362.37 1865.51 Q1362.37 1859.05 1359.7 1855.39 Q1357.05 1851.7 1352.41 1851.7 Q1347.76 1851.7 1345.09 1855.39 Q1342.44 1859.05 1342.44 1865.51 Q1342.44 1871.97 1345.09 1875.66 Q1347.76 1879.32 1352.41 1879.32 Q1357.05 1879.32 1359.7 1875.66 Q1362.37 1871.97 1362.37 1865.51 Z" fill="#000000" fill-rule="nonzero" fill-opacity="1" /><path clip-path="url(#clip640)" d="M1391.97 1851.76 Q1387.26 1851.76 1384.52 1855.45 Q1381.78 1859.11 1381.78 1865.51 Q1381.78 1871.91 1384.49 1875.6 Q1387.23 1879.26 1391.97 1879.26 Q1396.65 1879.26 1399.39 1875.57 Q1402.12 1871.87 1402.12 1865.51 Q1402.12 1859.17 1399.39 1855.48 Q1396.65 1851.76 1391.97 1851.76 M1391.97 1846.79 Q1399.61 1846.79 1403.97 1851.76 Q1408.33 1856.72 1408.33 1865.51 Q1408.33 1874.26 1403.97 1879.26 Q1399.61 1884.22 1391.97 1884.22 Q1384.3 1884.22 1379.94 1879.26 Q1375.61 1874.26 1375.61 1865.51 Q1375.61 1856.72 1379.94 1851.76 Q1384.3 1846.79 1391.97 1846.79 Z" fill="#000000" fill-rule="nonzero" fill-opacity="1" /><path clip-path="url(#clip640)" d="M1447.67 1861.78 L1447.67 1883.3 L1441.81 1883.3 L1441.81 1861.98 Q1441.81 1856.92 1439.84 1854.4 Q1437.87 1851.89 1433.92 1851.89 Q1429.18 1851.89 1426.44 1854.91 Q1423.7 1857.93 1423.7 1863.15 L1423.7 1883.3 L1417.81 1883.3 L1417.81 1847.65 L1423.7 1847.65 L1423.7 1853.19 Q1425.8 1849.98 1428.64 1848.39 Q1431.5 1846.79 1435.22 1846.79 Q1441.37 1846.79 1444.52 1850.61 Q1447.67 1854.4 1447.67 1861.78 Z" fill="#000000" fill-rule="nonzero" fill-opacity="1" /><path clip-path="url(#clip640)" d="M1482.08 1848.7 L1482.08 1854.24 Q1479.59 1852.97 1476.92 1852.33 Q1474.25 1851.7 1471.38 1851.7 Q1467.02 1851.7 1464.82 1853.03 Q1462.66 1854.37 1462.66 1857.04 Q1462.66 1859.08 1464.22 1860.26 Q1465.78 1861.4 1470.49 1862.45 L1472.5 1862.9 Q1478.73 1864.24 1481.34 1866.69 Q1483.99 1869.11 1483.99 1873.47 Q1483.99 1878.43 1480.04 1881.33 Q1476.12 1884.22 1469.25 1884.22 Q1466.38 1884.22 1463.27 1883.65 Q1460.18 1883.11 1456.74 1882 L1456.74 1875.95 Q1459.99 1877.64 1463.14 1878.49 Q1466.29 1879.32 1469.38 1879.32 Q1473.51 1879.32 1475.74 1877.92 Q1477.97 1876.49 1477.97 1873.91 Q1477.97 1871.52 1476.35 1870.25 Q1474.76 1868.98 1469.31 1867.8 L1467.28 1867.32 Q1461.83 1866.18 1459.41 1863.82 Q1456.99 1861.43 1456.99 1857.3 Q1456.99 1852.27 1460.56 1849.53 Q1464.12 1846.79 1470.68 1846.79 Q1473.93 1846.79 1476.79 1847.27 Q1479.66 1847.75 1482.08 1848.7 Z" fill="#000000" fill-rule="nonzero" fill-opacity="1" /><path clip-path="url(#clip640)" d="M1523.8 1864.01 L1523.8 1866.88 L1496.88 1866.88 Q1497.26 1872.92 1500.5 1876.11 Q1503.78 1879.26 1509.61 1879.26 Q1512.98 1879.26 1516.13 1878.43 Q1519.32 1877.6 1522.43 1875.95 L1522.43 1881.49 Q1519.28 1882.82 1515.97 1883.52 Q1512.66 1884.22 1509.26 1884.22 Q1500.73 1884.22 1495.73 1879.26 Q1490.76 1874.29 1490.76 1865.83 Q1490.76 1857.07 1495.48 1851.95 Q1500.22 1846.79 1508.24 1846.79 Q1515.43 1846.79 1519.6 1851.44 Q1523.8 1856.06 1523.8 1864.01 M1517.95 1862.29 Q1517.88 1857.49 1515.24 1854.62 Q1512.63 1851.76 1508.3 1851.76 Q1503.4 1851.76 1500.44 1854.53 Q1497.51 1857.3 1497.07 1862.33 L1517.95 1862.29 Z" fill="#000000" fill-rule="nonzero" fill-opacity="1" /><path clip-path="url(#clip640)" d="M1577.59 1853.06 L1577.59 1833.78 L1583.45 1833.78 L1583.45 1883.3 L1577.59 1883.3 L1577.59 1877.95 Q1575.75 1881.14 1572.91 1882.7 Q1570.11 1884.22 1566.17 1884.22 Q1559.71 1884.22 1555.63 1879.07 Q1551.59 1873.91 1551.59 1865.51 Q1551.59 1857.11 1555.63 1851.95 Q1559.71 1846.79 1566.17 1846.79 Q1570.11 1846.79 1572.91 1848.35 Q1575.75 1849.88 1577.59 1853.06 M1557.64 1865.51 Q1557.64 1871.97 1560.28 1875.66 Q1562.95 1879.32 1567.6 1879.32 Q1572.25 1879.32 1574.92 1875.66 Q1577.59 1871.97 1577.59 1865.51 Q1577.59 1859.05 1574.92 1855.39 Q1572.25 1851.7 1567.6 1851.7 Q1562.95 1851.7 1560.28 1855.39 Q1557.64 1859.05 1557.64 1865.51 Z" fill="#000000" fill-rule="nonzero" fill-opacity="1" /><path clip-path="url(#clip640)" d="M1626 1864.01 L1626 1866.88 L1599.08 1866.88 Q1599.46 1872.92 1602.71 1876.11 Q1605.98 1879.26 1611.81 1879.26 Q1615.18 1879.26 1618.33 1878.43 Q1621.52 1877.6 1624.64 1875.95 L1624.64 1881.49 Q1621.48 1882.82 1618.17 1883.52 Q1614.86 1884.22 1611.46 1884.22 Q1602.93 1884.22 1597.93 1879.26 Q1592.97 1874.29 1592.97 1865.83 Q1592.97 1857.07 1597.68 1851.95 Q1602.42 1846.79 1610.44 1846.79 Q1617.63 1846.79 1621.8 1851.44 Q1626 1856.06 1626 1864.01 M1620.15 1862.29 Q1620.08 1857.49 1617.44 1854.62 Q1614.83 1851.76 1610.5 1851.76 Q1605.6 1851.76 1602.64 1854.53 Q1599.71 1857.3 1599.27 1862.33 L1620.15 1862.29 Z" fill="#000000" fill-rule="nonzero" fill-opacity="1" /><path clip-path="url(#clip640)" d="M1635.62 1833.78 L1641.47 1833.78 L1641.47 1883.3 L1635.62 1883.3 L1635.62 1833.78 Z" fill="#000000" fill-rule="nonzero" fill-opacity="1" /><path clip-path="url(#clip640)" d="M1669.93 1865.38 Q1662.83 1865.38 1660.09 1867 Q1657.36 1868.63 1657.36 1872.54 Q1657.36 1875.66 1659.39 1877.51 Q1661.46 1879.32 1664.99 1879.32 Q1669.86 1879.32 1672.79 1875.88 Q1675.75 1872.42 1675.75 1866.69 L1675.75 1865.38 L1669.93 1865.38 M1681.61 1862.96 L1681.61 1883.3 L1675.75 1883.3 L1675.75 1877.89 Q1673.75 1881.14 1670.76 1882.7 Q1667.76 1884.22 1663.43 1884.22 Q1657.96 1884.22 1654.71 1881.17 Q1651.5 1878.08 1651.5 1872.92 Q1651.5 1866.91 1655.51 1863.85 Q1659.55 1860.8 1667.54 1860.8 L1675.75 1860.8 L1675.75 1860.23 Q1675.75 1856.18 1673.08 1853.99 Q1670.44 1851.76 1665.63 1851.76 Q1662.58 1851.76 1659.68 1852.49 Q1656.78 1853.22 1654.11 1854.69 L1654.11 1849.28 Q1657.32 1848.03 1660.35 1847.43 Q1663.37 1846.79 1666.24 1846.79 Q1673.97 1846.79 1677.79 1850.8 Q1681.61 1854.81 1681.61 1862.96 Z" fill="#000000" fill-rule="nonzero" fill-opacity="1" /><path clip-path="url(#clip640)" d="M1708.5 1886.61 Q1706.02 1892.98 1703.67 1894.92 Q1701.31 1896.86 1697.36 1896.86 L1692.69 1896.86 L1692.69 1891.96 L1696.12 1891.96 Q1698.54 1891.96 1699.88 1890.81 Q1701.22 1889.67 1702.84 1885.4 L1703.89 1882.73 L1689.47 1847.65 L1695.68 1847.65 L1706.82 1875.53 L1717.96 1847.65 L1724.16 1847.65 L1708.5 1886.61 Z" fill="#000000" fill-rule="nonzero" fill-opacity="1" /><path clip-path="url(#clip640)" d="M1767.04 1833.84 Q1762.77 1841.16 1760.7 1848.32 Q1758.63 1855.48 1758.63 1862.84 Q1758.63 1870.19 1760.7 1877.41 Q1762.8 1884.61 1767.04 1891.89 L1761.94 1891.89 Q1757.17 1884.41 1754.78 1877.19 Q1752.43 1869.96 1752.43 1862.84 Q1752.43 1855.74 1754.78 1848.54 Q1757.14 1841.35 1761.94 1833.84 L1767.04 1833.84 Z" fill="#000000" fill-rule="nonzero" fill-opacity="1" /><path clip-path="url(#clip640)" d="M1801.86 1853.06 L1801.86 1833.78 L1807.71 1833.78 L1807.71 1883.3 L1801.86 1883.3 L1801.86 1877.95 Q1800.01 1881.14 1797.18 1882.7 Q1794.38 1884.22 1790.43 1884.22 Q1783.97 1884.22 1779.9 1879.07 Q1775.85 1873.91 1775.85 1865.51 Q1775.85 1857.11 1779.9 1851.95 Q1783.97 1846.79 1790.43 1846.79 Q1794.38 1846.79 1797.18 1848.35 Q1800.01 1849.88 1801.86 1853.06 M1781.9 1865.51 Q1781.9 1871.97 1784.54 1875.66 Q1787.22 1879.32 1791.86 1879.32 Q1796.51 1879.32 1799.18 1875.66 Q1801.86 1871.97 1801.86 1865.51 Q1801.86 1859.05 1799.18 1855.39 Q1796.51 1851.7 1791.86 1851.7 Q1787.22 1851.7 1784.54 1855.39 Q1781.9 1859.05 1781.9 1865.51 Z" fill="#000000" fill-rule="nonzero" fill-opacity="1" /><path clip-path="url(#clip640)" d="M1835.98 1865.38 Q1828.88 1865.38 1826.14 1867 Q1823.4 1868.63 1823.4 1872.54 Q1823.4 1875.66 1825.44 1877.51 Q1827.51 1879.32 1831.04 1879.32 Q1835.91 1879.32 1838.84 1875.88 Q1841.8 1872.42 1841.8 1866.69 L1841.8 1865.38 L1835.98 1865.38 M1847.66 1862.96 L1847.66 1883.3 L1841.8 1883.3 L1841.8 1877.89 Q1839.8 1881.14 1836.8 1882.7 Q1833.81 1884.22 1829.48 1884.22 Q1824.01 1884.22 1820.76 1881.17 Q1817.55 1878.08 1817.55 1872.92 Q1817.55 1866.91 1821.56 1863.85 Q1825.6 1860.8 1833.59 1860.8 L1841.8 1860.8 L1841.8 1860.23 Q1841.8 1856.18 1839.13 1853.99 Q1836.49 1851.76 1831.68 1851.76 Q1828.62 1851.76 1825.73 1852.49 Q1822.83 1853.22 1820.16 1854.69 L1820.16 1849.28 Q1823.37 1848.03 1826.4 1847.43 Q1829.42 1846.79 1832.29 1846.79 Q1840.02 1846.79 1843.84 1850.8 Q1847.66 1854.81 1847.66 1862.96 Z" fill="#000000" fill-rule="nonzero" fill-opacity="1" /><path clip-path="url(#clip640)" d="M1874.55 1886.61 Q1872.07 1892.98 1869.72 1894.92 Q1867.36 1896.86 1863.41 1896.86 L1858.73 1896.86 L1858.73 1891.96 L1862.17 1891.96 Q1864.59 1891.96 1865.93 1890.81 Q1867.26 1889.67 1868.89 1885.4 L1869.94 1882.73 L1855.52 1847.65 L1861.73 1847.65 L1872.87 1875.53 L1884.01 1847.65 L1890.21 1847.65 L1874.55 1886.61 Z" fill="#000000" fill-rule="nonzero" fill-opacity="1" /><path clip-path="url(#clip640)" d="M1921.02 1848.7 L1921.02 1854.24 Q1918.54 1852.97 1915.87 1852.33 Q1913.19 1851.7 1910.33 1851.7 Q1905.97 1851.7 1903.77 1853.03 Q1901.61 1854.37 1901.61 1857.04 Q1901.61 1859.08 1903.17 1860.26 Q1904.73 1861.4 1909.44 1862.45 L1911.44 1862.9 Q1917.68 1864.24 1920.29 1866.69 Q1922.93 1869.11 1922.93 1873.47 Q1922.93 1878.43 1918.99 1881.33 Q1915.07 1884.22 1908.2 1884.22 Q1905.33 1884.22 1902.21 1883.65 Q1899.12 1883.11 1895.69 1882 L1895.69 1875.95 Q1898.93 1877.64 1902.09 1878.49 Q1905.24 1879.32 1908.32 1879.32 Q1912.46 1879.32 1914.69 1877.92 Q1916.92 1876.49 1916.92 1873.91 Q1916.92 1871.52 1915.29 1870.25 Q1913.7 1868.98 1908.26 1867.8 L1906.22 1867.32 Q1900.78 1866.18 1898.36 1863.82 Q1895.94 1861.43 1895.94 1857.3 Q1895.94 1852.27 1899.51 1849.53 Q1903.07 1846.79 1909.63 1846.79 Q1912.87 1846.79 1915.74 1847.27 Q1918.6 1847.75 1921.02 1848.7 Z" fill="#000000" fill-rule="nonzero" fill-opacity="1" /><path clip-path="url(#clip640)" d="M1931.34 1833.84 L1936.43 1833.84 Q1941.2 1841.35 1943.56 1848.54 Q1945.94 1855.74 1945.94 1862.84 Q1945.94 1869.96 1943.56 1877.19 Q1941.2 1884.41 1936.43 1891.89 L1931.34 1891.89 Q1935.57 1884.61 1937.64 1877.41 Q1939.74 1870.19 1939.74 1862.84 Q1939.74 1855.48 1937.64 1848.32 Q1935.57 1841.16 1931.34 1833.84 Z" fill="#000000" fill-rule="nonzero" fill-opacity="1" /><polyline clip-path="url(#clip640)" style="stroke:#000000; stroke-linecap:round; stroke-linejoin:round; stroke-width:4; stroke-opacity:1; fill:none" points="525.793,1734.12 525.793,127.792 "/>
<polyline clip-path="url(#clip640)" style="stroke:#000000; stroke-linecap:round; stroke-linejoin:round; stroke-width:4; stroke-opacity:1; fill:none" points="525.793,1688.65 544.691,1688.65 "/>
<polyline clip-path="url(#clip640)" style="stroke:#000000; stroke-linecap:round; stroke-linejoin:round; stroke-width:4; stroke-opacity:1; fill:none" points="525.793,1309.8 544.691,1309.8 "/>
<polyline clip-path="url(#clip640)" style="stroke:#000000; stroke-linecap:round; stroke-linejoin:round; stroke-width:4; stroke-opacity:1; fill:none" points="525.793,930.955 544.691,930.955 "/>
<polyline clip-path="url(#clip640)" style="stroke:#000000; stroke-linecap:round; stroke-linejoin:round; stroke-width:4; stroke-opacity:1; fill:none" points="525.793,552.104 544.691,552.104 "/>
<polyline clip-path="url(#clip640)" style="stroke:#000000; stroke-linecap:round; stroke-linejoin:round; stroke-width:4; stroke-opacity:1; fill:none" points="525.793,173.254 544.691,173.254 "/>
<path clip-path="url(#clip640)" d="M118.437 1711.66 L118.437 1707.41 Q120.196 1708.24 122.001 1708.68 Q123.807 1709.12 125.543 1709.12 Q130.173 1709.12 132.603 1706.02 Q135.057 1702.89 135.404 1696.55 Q134.062 1698.54 132.001 1699.6 Q129.941 1700.67 127.441 1700.67 Q122.256 1700.67 119.224 1697.54 Q116.214 1694.4 116.214 1688.96 Q116.214 1683.63 119.363 1680.42 Q122.511 1677.2 127.742 1677.2 Q133.737 1677.2 136.886 1681.8 Q140.057 1686.39 140.057 1695.14 Q140.057 1703.31 136.168 1708.19 Q132.302 1713.05 125.751 1713.05 Q123.992 1713.05 122.187 1712.71 Q120.381 1712.36 118.437 1711.66 M127.742 1697.01 Q130.89 1697.01 132.719 1694.86 Q134.571 1692.71 134.571 1688.96 Q134.571 1685.23 132.719 1683.08 Q130.89 1680.9 127.742 1680.9 Q124.594 1680.9 122.742 1683.08 Q120.913 1685.23 120.913 1688.96 Q120.913 1692.71 122.742 1694.86 Q124.594 1697.01 127.742 1697.01 Z" fill="#000000" fill-rule="nonzero" fill-opacity="1" /><path clip-path="url(#clip640)" d="M148.46 1706.5 L153.344 1706.5 L153.344 1712.38 L148.46 1712.38 L148.46 1706.5 Z" fill="#000000" fill-rule="nonzero" fill-opacity="1" /><path clip-path="url(#clip640)" d="M163.668 1711.66 L163.668 1707.41 Q165.427 1708.24 167.233 1708.68 Q169.038 1709.12 170.774 1709.12 Q175.404 1709.12 177.834 1706.02 Q180.288 1702.89 180.635 1696.55 Q179.293 1698.54 177.233 1699.6 Q175.172 1700.67 172.672 1700.67 Q167.487 1700.67 164.455 1697.54 Q161.446 1694.4 161.446 1688.96 Q161.446 1683.63 164.594 1680.42 Q167.742 1677.2 172.973 1677.2 Q178.969 1677.2 182.117 1681.8 Q185.288 1686.39 185.288 1695.14 Q185.288 1703.31 181.399 1708.19 Q177.534 1713.05 170.983 1713.05 Q169.223 1713.05 167.418 1712.71 Q165.612 1712.36 163.668 1711.66 M172.973 1697.01 Q176.122 1697.01 177.95 1694.86 Q179.802 1692.71 179.802 1688.96 Q179.802 1685.23 177.95 1683.08 Q176.122 1680.9 172.973 1680.9 Q169.825 1680.9 167.973 1683.08 Q166.145 1685.23 166.145 1688.96 Q166.145 1692.71 167.973 1694.86 Q169.825 1697.01 172.973 1697.01 Z" fill="#000000" fill-rule="nonzero" fill-opacity="1" /><path clip-path="url(#clip640)" d="M193.83 1711.66 L193.83 1707.41 Q195.589 1708.24 197.395 1708.68 Q199.2 1709.12 200.936 1709.12 Q205.566 1709.12 207.996 1706.02 Q210.45 1702.89 210.797 1696.55 Q209.455 1698.54 207.395 1699.6 Q205.334 1700.67 202.834 1700.67 Q197.649 1700.67 194.617 1697.54 Q191.608 1694.4 191.608 1688.96 Q191.608 1683.63 194.756 1680.42 Q197.904 1677.2 203.135 1677.2 Q209.131 1677.2 212.279 1681.8 Q215.45 1686.39 215.45 1695.14 Q215.45 1703.31 211.561 1708.19 Q207.695 1713.05 201.145 1713.05 Q199.385 1713.05 197.58 1712.71 Q195.774 1712.36 193.83 1711.66 M203.135 1697.01 Q206.283 1697.01 208.112 1694.86 Q209.964 1692.71 209.964 1688.96 Q209.964 1685.23 208.112 1683.08 Q206.283 1680.9 203.135 1680.9 Q199.987 1680.9 198.135 1683.08 Q196.307 1685.23 196.307 1688.96 Q196.307 1692.71 198.135 1694.86 Q199.987 1697.01 203.135 1697.01 Z" fill="#000000" fill-rule="nonzero" fill-opacity="1" /><path clip-path="url(#clip640)" d="M223.992 1711.66 L223.992 1707.41 Q225.751 1708.24 227.556 1708.68 Q229.362 1709.12 231.098 1709.12 Q235.728 1709.12 238.158 1706.02 Q240.612 1702.89 240.959 1696.55 Q239.617 1698.54 237.556 1699.6 Q235.496 1700.67 232.996 1700.67 Q227.811 1700.67 224.779 1697.54 Q221.769 1694.4 221.769 1688.96 Q221.769 1683.63 224.918 1680.42 Q228.066 1677.2 233.297 1677.2 Q239.292 1677.2 242.441 1681.8 Q245.612 1686.39 245.612 1695.14 Q245.612 1703.31 241.723 1708.19 Q237.857 1713.05 231.306 1713.05 Q229.547 1713.05 227.742 1712.71 Q225.936 1712.36 223.992 1711.66 M233.297 1697.01 Q236.445 1697.01 238.274 1694.86 Q240.126 1692.71 240.126 1688.96 Q240.126 1685.23 238.274 1683.08 Q236.445 1680.9 233.297 1680.9 Q230.149 1680.9 228.297 1683.08 Q226.468 1685.23 226.468 1688.96 Q226.468 1692.71 228.297 1694.86 Q230.149 1697.01 233.297 1697.01 Z" fill="#000000" fill-rule="nonzero" fill-opacity="1" /><path clip-path="url(#clip640)" d="M264.015 1680.9 Q260.403 1680.9 258.575 1684.47 Q256.769 1688.01 256.769 1695.14 Q256.769 1702.24 258.575 1705.81 Q260.403 1709.35 264.015 1709.35 Q267.649 1709.35 269.454 1705.81 Q271.283 1702.24 271.283 1695.14 Q271.283 1688.01 269.454 1684.47 Q267.649 1680.9 264.015 1680.9 M264.015 1677.2 Q269.825 1677.2 272.88 1681.8 Q275.959 1686.39 275.959 1695.14 Q275.959 1703.86 272.88 1708.47 Q269.825 1713.05 264.015 1713.05 Q258.204 1713.05 255.126 1708.47 Q252.07 1703.86 252.07 1695.14 Q252.07 1686.39 255.126 1681.8 Q258.204 1677.2 264.015 1677.2 Z" fill="#000000" fill-rule="nonzero" fill-opacity="1" /><path clip-path="url(#clip640)" d="M294.176 1680.9 Q290.565 1680.9 288.737 1684.47 Q286.931 1688.01 286.931 1695.14 Q286.931 1702.24 288.737 1705.81 Q290.565 1709.35 294.176 1709.35 Q297.811 1709.35 299.616 1705.81 Q301.445 1702.24 301.445 1695.14 Q301.445 1688.01 299.616 1684.47 Q297.811 1680.9 294.176 1680.9 M294.176 1677.2 Q299.987 1677.2 303.042 1681.8 Q306.121 1686.39 306.121 1695.14 Q306.121 1703.86 303.042 1708.47 Q299.987 1713.05 294.176 1713.05 Q288.366 1713.05 285.288 1708.47 Q282.232 1703.86 282.232 1695.14 Q282.232 1686.39 285.288 1681.8 Q288.366 1677.2 294.176 1677.2 Z" fill="#000000" fill-rule="nonzero" fill-opacity="1" /><path clip-path="url(#clip640)" d="M324.338 1680.9 Q320.727 1680.9 318.899 1684.47 Q317.093 1688.01 317.093 1695.14 Q317.093 1702.24 318.899 1705.81 Q320.727 1709.35 324.338 1709.35 Q327.973 1709.35 329.778 1705.81 Q331.607 1702.24 331.607 1695.14 Q331.607 1688.01 329.778 1684.47 Q327.973 1680.9 324.338 1680.9 M324.338 1677.2 Q330.148 1677.2 333.204 1681.8 Q336.283 1686.39 336.283 1695.14 Q336.283 1703.86 333.204 1708.47 Q330.148 1713.05 324.338 1713.05 Q318.528 1713.05 315.449 1708.47 Q312.394 1703.86 312.394 1695.14 Q312.394 1686.39 315.449 1681.8 Q318.528 1677.2 324.338 1677.2 Z" fill="#000000" fill-rule="nonzero" fill-opacity="1" /><path clip-path="url(#clip640)" d="M372.671 1686.92 L362.093 1697.54 L372.671 1708.12 L369.917 1710.92 L359.292 1700.3 L348.667 1710.92 L345.935 1708.12 L356.491 1697.54 L345.935 1686.92 L348.667 1684.12 L359.292 1694.74 L369.917 1684.12 L372.671 1686.92 Z" fill="#000000" fill-rule="nonzero" fill-opacity="1" /><path clip-path="url(#clip640)" d="M385.032 1708.45 L392.671 1708.45 L392.671 1682.08 L384.361 1683.75 L384.361 1679.49 L392.625 1677.82 L397.301 1677.82 L397.301 1708.45 L404.94 1708.45 L404.94 1712.38 L385.032 1712.38 L385.032 1708.45 Z" fill="#000000" fill-rule="nonzero" fill-opacity="1" /><path clip-path="url(#clip640)" d="M424.384 1680.9 Q420.773 1680.9 418.944 1684.47 Q417.139 1688.01 417.139 1695.14 Q417.139 1702.24 418.944 1705.81 Q420.773 1709.35 424.384 1709.35 Q428.018 1709.35 429.824 1705.81 Q431.653 1702.24 431.653 1695.14 Q431.653 1688.01 429.824 1684.47 Q428.018 1680.9 424.384 1680.9 M424.384 1677.2 Q430.194 1677.2 433.25 1681.8 Q436.328 1686.39 436.328 1695.14 Q436.328 1703.86 433.25 1708.47 Q430.194 1713.05 424.384 1713.05 Q418.574 1713.05 415.495 1708.47 Q412.44 1703.86 412.44 1695.14 Q412.44 1686.39 415.495 1681.8 Q418.574 1677.2 424.384 1677.2 Z" fill="#000000" fill-rule="nonzero" fill-opacity="1" /><path clip-path="url(#clip640)" d="M436.328 1671.3 L460.44 1671.3 L460.44 1674.5 L436.328 1674.5 L436.328 1671.3 Z" fill="#000000" fill-rule="nonzero" fill-opacity="1" /><path clip-path="url(#clip640)" d="M469.298 1681.77 L475.505 1681.77 L475.505 1660.35 L468.753 1661.71 L468.753 1658.25 L475.467 1656.89 L479.267 1656.89 L479.267 1681.77 L485.473 1681.77 L485.473 1684.97 L469.298 1684.97 L469.298 1681.77 Z" fill="#000000" fill-rule="nonzero" fill-opacity="1" /><path clip-path="url(#clip640)" d="M118.437 1332.81 L118.437 1328.56 Q120.196 1329.39 122.001 1329.83 Q123.807 1330.27 125.543 1330.27 Q130.173 1330.27 132.603 1327.17 Q135.057 1324.04 135.404 1317.7 Q134.062 1319.69 132.001 1320.75 Q129.941 1321.82 127.441 1321.82 Q122.256 1321.82 119.224 1318.69 Q116.214 1315.55 116.214 1310.11 Q116.214 1304.78 119.363 1301.56 Q122.511 1298.35 127.742 1298.35 Q133.737 1298.35 136.886 1302.95 Q140.057 1307.54 140.057 1316.29 Q140.057 1324.46 136.168 1329.34 Q132.302 1334.2 125.751 1334.2 Q123.992 1334.2 122.187 1333.86 Q120.381 1333.51 118.437 1332.81 M127.742 1318.16 Q130.89 1318.16 132.719 1316.01 Q134.571 1313.86 134.571 1310.11 Q134.571 1306.38 132.719 1304.23 Q130.89 1302.05 127.742 1302.05 Q124.594 1302.05 122.742 1304.23 Q120.913 1306.38 120.913 1310.11 Q120.913 1313.86 122.742 1316.01 Q124.594 1318.16 127.742 1318.16 Z" fill="#000000" fill-rule="nonzero" fill-opacity="1" /><path clip-path="url(#clip640)" d="M148.46 1327.65 L153.344 1327.65 L153.344 1333.53 L148.46 1333.53 L148.46 1327.65 Z" fill="#000000" fill-rule="nonzero" fill-opacity="1" /><path clip-path="url(#clip640)" d="M163.668 1332.81 L163.668 1328.56 Q165.427 1329.39 167.233 1329.83 Q169.038 1330.27 170.774 1330.27 Q175.404 1330.27 177.834 1327.17 Q180.288 1324.04 180.635 1317.7 Q179.293 1319.69 177.233 1320.75 Q175.172 1321.82 172.672 1321.82 Q167.487 1321.82 164.455 1318.69 Q161.446 1315.55 161.446 1310.11 Q161.446 1304.78 164.594 1301.56 Q167.742 1298.35 172.973 1298.35 Q178.969 1298.35 182.117 1302.95 Q185.288 1307.54 185.288 1316.29 Q185.288 1324.46 181.399 1329.34 Q177.534 1334.2 170.983 1334.2 Q169.223 1334.2 167.418 1333.86 Q165.612 1333.51 163.668 1332.81 M172.973 1318.16 Q176.122 1318.16 177.95 1316.01 Q179.802 1313.86 179.802 1310.11 Q179.802 1306.38 177.95 1304.23 Q176.122 1302.05 172.973 1302.05 Q169.825 1302.05 167.973 1304.23 Q166.145 1306.38 166.145 1310.11 Q166.145 1313.86 167.973 1316.01 Q169.825 1318.16 172.973 1318.16 Z" fill="#000000" fill-rule="nonzero" fill-opacity="1" /><path clip-path="url(#clip640)" d="M193.83 1332.81 L193.83 1328.56 Q195.589 1329.39 197.395 1329.83 Q199.2 1330.27 200.936 1330.27 Q205.566 1330.27 207.996 1327.17 Q210.45 1324.04 210.797 1317.7 Q209.455 1319.69 207.395 1320.75 Q205.334 1321.82 202.834 1321.82 Q197.649 1321.82 194.617 1318.69 Q191.608 1315.55 191.608 1310.11 Q191.608 1304.78 194.756 1301.56 Q197.904 1298.35 203.135 1298.35 Q209.131 1298.35 212.279 1302.95 Q215.45 1307.54 215.45 1316.29 Q215.45 1324.46 211.561 1329.34 Q207.695 1334.2 201.145 1334.2 Q199.385 1334.2 197.58 1333.86 Q195.774 1333.51 193.83 1332.81 M203.135 1318.16 Q206.283 1318.16 208.112 1316.01 Q209.964 1313.86 209.964 1310.11 Q209.964 1306.38 208.112 1304.23 Q206.283 1302.05 203.135 1302.05 Q199.987 1302.05 198.135 1304.23 Q196.307 1306.38 196.307 1310.11 Q196.307 1313.86 198.135 1316.01 Q199.987 1318.16 203.135 1318.16 Z" fill="#000000" fill-rule="nonzero" fill-opacity="1" /><path clip-path="url(#clip640)" d="M223.992 1332.81 L223.992 1328.56 Q225.751 1329.39 227.556 1329.83 Q229.362 1330.27 231.098 1330.27 Q235.728 1330.27 238.158 1327.17 Q240.612 1324.04 240.959 1317.7 Q239.617 1319.69 237.556 1320.75 Q235.496 1321.82 232.996 1321.82 Q227.811 1321.82 224.779 1318.69 Q221.769 1315.55 221.769 1310.11 Q221.769 1304.78 224.918 1301.56 Q228.066 1298.35 233.297 1298.35 Q239.292 1298.35 242.441 1302.95 Q245.612 1307.54 245.612 1316.29 Q245.612 1324.46 241.723 1329.34 Q237.857 1334.2 231.306 1334.2 Q229.547 1334.2 227.742 1333.86 Q225.936 1333.51 223.992 1332.81 M233.297 1318.16 Q236.445 1318.16 238.274 1316.01 Q240.126 1313.86 240.126 1310.11 Q240.126 1306.38 238.274 1304.23 Q236.445 1302.05 233.297 1302.05 Q230.149 1302.05 228.297 1304.23 Q226.468 1306.38 226.468 1310.11 Q226.468 1313.86 228.297 1316.01 Q230.149 1318.16 233.297 1318.16 Z" fill="#000000" fill-rule="nonzero" fill-opacity="1" /><path clip-path="url(#clip640)" d="M258.042 1329.6 L274.362 1329.6 L274.362 1333.53 L252.417 1333.53 L252.417 1329.6 Q255.079 1326.84 259.663 1322.21 Q264.269 1317.56 265.45 1316.22 Q267.695 1313.69 268.575 1311.96 Q269.478 1310.2 269.478 1308.51 Q269.478 1305.75 267.533 1304.02 Q265.612 1302.28 262.51 1302.28 Q260.311 1302.28 257.857 1303.05 Q255.427 1303.81 252.649 1305.36 L252.649 1300.64 Q255.473 1299.5 257.927 1298.93 Q260.38 1298.35 262.417 1298.35 Q267.788 1298.35 270.982 1301.03 Q274.177 1303.72 274.177 1308.21 Q274.177 1310.34 273.366 1312.26 Q272.579 1314.16 270.473 1316.75 Q269.894 1317.42 266.792 1320.64 Q263.691 1323.83 258.042 1329.6 Z" fill="#000000" fill-rule="nonzero" fill-opacity="1" /><path clip-path="url(#clip640)" d="M284.223 1298.97 L302.579 1298.97 L302.579 1302.91 L288.505 1302.91 L288.505 1311.38 Q289.524 1311.03 290.542 1310.87 Q291.561 1310.69 292.579 1310.69 Q298.366 1310.69 301.746 1313.86 Q305.125 1317.03 305.125 1322.44 Q305.125 1328.02 301.653 1331.12 Q298.181 1334.2 291.862 1334.2 Q289.686 1334.2 287.417 1333.83 Q285.172 1333.46 282.764 1332.72 L282.764 1328.02 Q284.848 1329.16 287.07 1329.71 Q289.292 1330.27 291.769 1330.27 Q295.774 1330.27 298.112 1328.16 Q300.45 1326.06 300.45 1322.44 Q300.45 1318.83 298.112 1316.73 Q295.774 1314.62 291.769 1314.62 Q289.894 1314.62 288.019 1315.04 Q286.167 1315.45 284.223 1316.33 L284.223 1298.97 Z" fill="#000000" fill-rule="nonzero" fill-opacity="1" /><path clip-path="url(#clip640)" d="M324.338 1302.05 Q320.727 1302.05 318.899 1305.62 Q317.093 1309.16 317.093 1316.29 Q317.093 1323.39 318.899 1326.96 Q320.727 1330.5 324.338 1330.5 Q327.973 1330.5 329.778 1326.96 Q331.607 1323.39 331.607 1316.29 Q331.607 1309.16 329.778 1305.62 Q327.973 1302.05 324.338 1302.05 M324.338 1298.35 Q330.148 1298.35 333.204 1302.95 Q336.283 1307.54 336.283 1316.29 Q336.283 1325.01 333.204 1329.62 Q330.148 1334.2 324.338 1334.2 Q318.528 1334.2 315.449 1329.62 Q312.394 1325.01 312.394 1316.29 Q312.394 1307.54 315.449 1302.95 Q318.528 1298.35 324.338 1298.35 Z" fill="#000000" fill-rule="nonzero" fill-opacity="1" /><path clip-path="url(#clip640)" d="M372.671 1308.07 L362.093 1318.69 L372.671 1329.27 L369.917 1332.07 L359.292 1321.45 L348.667 1332.07 L345.935 1329.27 L356.491 1318.69 L345.935 1308.07 L348.667 1305.27 L359.292 1315.89 L369.917 1305.27 L372.671 1308.07 Z" fill="#000000" fill-rule="nonzero" fill-opacity="1" /><path clip-path="url(#clip640)" d="M385.032 1329.6 L392.671 1329.6 L392.671 1303.23 L384.361 1304.9 L384.361 1300.64 L392.625 1298.97 L397.301 1298.97 L397.301 1329.6 L404.94 1329.6 L404.94 1333.53 L385.032 1333.53 L385.032 1329.6 Z" fill="#000000" fill-rule="nonzero" fill-opacity="1" /><path clip-path="url(#clip640)" d="M424.384 1302.05 Q420.773 1302.05 418.944 1305.62 Q417.139 1309.16 417.139 1316.29 Q417.139 1323.39 418.944 1326.96 Q420.773 1330.5 424.384 1330.5 Q428.018 1330.5 429.824 1326.96 Q431.653 1323.39 431.653 1316.29 Q431.653 1309.16 429.824 1305.62 Q428.018 1302.05 424.384 1302.05 M424.384 1298.35 Q430.194 1298.35 433.25 1302.95 Q436.328 1307.54 436.328 1316.29 Q436.328 1325.01 433.25 1329.62 Q430.194 1334.2 424.384 1334.2 Q418.574 1334.2 415.495 1329.62 Q412.44 1325.01 412.44 1316.29 Q412.44 1307.54 415.495 1302.95 Q418.574 1298.35 424.384 1298.35 Z" fill="#000000" fill-rule="nonzero" fill-opacity="1" /><path clip-path="url(#clip640)" d="M436.328 1292.45 L460.44 1292.45 L460.44 1295.65 L436.328 1295.65 L436.328 1292.45 Z" fill="#000000" fill-rule="nonzero" fill-opacity="1" /><path clip-path="url(#clip640)" d="M469.298 1302.92 L475.505 1302.92 L475.505 1281.5 L468.753 1282.86 L468.753 1279.4 L475.467 1278.04 L479.267 1278.04 L479.267 1302.92 L485.473 1302.92 L485.473 1306.12 L469.298 1306.12 L469.298 1302.92 Z" fill="#000000" fill-rule="nonzero" fill-opacity="1" /><path clip-path="url(#clip640)" d="M118.437 953.965 L118.437 949.705 Q120.196 950.539 122.001 950.978 Q123.807 951.418 125.543 951.418 Q130.173 951.418 132.603 948.316 Q135.057 945.191 135.404 938.849 Q134.062 940.84 132.001 941.904 Q129.941 942.969 127.441 942.969 Q122.256 942.969 119.224 939.844 Q116.214 936.696 116.214 931.256 Q116.214 925.932 119.363 922.715 Q122.511 919.497 127.742 919.497 Q133.737 919.497 136.886 924.104 Q140.057 928.687 140.057 937.437 Q140.057 945.608 136.168 950.492 Q132.302 955.353 125.751 955.353 Q123.992 955.353 122.187 955.006 Q120.381 954.659 118.437 953.965 M127.742 939.312 Q130.89 939.312 132.719 937.159 Q134.571 935.006 134.571 931.256 Q134.571 927.53 132.719 925.377 Q130.89 923.201 127.742 923.201 Q124.594 923.201 122.742 925.377 Q120.913 927.53 120.913 931.256 Q120.913 935.006 122.742 937.159 Q124.594 939.312 127.742 939.312 Z" fill="#000000" fill-rule="nonzero" fill-opacity="1" /><path clip-path="url(#clip640)" d="M148.46 948.803 L153.344 948.803 L153.344 954.682 L148.46 954.682 L148.46 948.803 Z" fill="#000000" fill-rule="nonzero" fill-opacity="1" /><path clip-path="url(#clip640)" d="M163.668 953.965 L163.668 949.705 Q165.427 950.539 167.233 950.978 Q169.038 951.418 170.774 951.418 Q175.404 951.418 177.834 948.316 Q180.288 945.191 180.635 938.849 Q179.293 940.84 177.233 941.904 Q175.172 942.969 172.672 942.969 Q167.487 942.969 164.455 939.844 Q161.446 936.696 161.446 931.256 Q161.446 925.932 164.594 922.715 Q167.742 919.497 172.973 919.497 Q178.969 919.497 182.117 924.104 Q185.288 928.687 185.288 937.437 Q185.288 945.608 181.399 950.492 Q177.534 955.353 170.983 955.353 Q169.223 955.353 167.418 955.006 Q165.612 954.659 163.668 953.965 M172.973 939.312 Q176.122 939.312 177.95 937.159 Q179.802 935.006 179.802 931.256 Q179.802 927.53 177.95 925.377 Q176.122 923.201 172.973 923.201 Q169.825 923.201 167.973 925.377 Q166.145 927.53 166.145 931.256 Q166.145 935.006 167.973 937.159 Q169.825 939.312 172.973 939.312 Z" fill="#000000" fill-rule="nonzero" fill-opacity="1" /><path clip-path="url(#clip640)" d="M193.83 953.965 L193.83 949.705 Q195.589 950.539 197.395 950.978 Q199.2 951.418 200.936 951.418 Q205.566 951.418 207.996 948.316 Q210.45 945.191 210.797 938.849 Q209.455 940.84 207.395 941.904 Q205.334 942.969 202.834 942.969 Q197.649 942.969 194.617 939.844 Q191.608 936.696 191.608 931.256 Q191.608 925.932 194.756 922.715 Q197.904 919.497 203.135 919.497 Q209.131 919.497 212.279 924.104 Q215.45 928.687 215.45 937.437 Q215.45 945.608 211.561 950.492 Q207.695 955.353 201.145 955.353 Q199.385 955.353 197.58 955.006 Q195.774 954.659 193.83 953.965 M203.135 939.312 Q206.283 939.312 208.112 937.159 Q209.964 935.006 209.964 931.256 Q209.964 927.53 208.112 925.377 Q206.283 923.201 203.135 923.201 Q199.987 923.201 198.135 925.377 Q196.307 927.53 196.307 931.256 Q196.307 935.006 198.135 937.159 Q199.987 939.312 203.135 939.312 Z" fill="#000000" fill-rule="nonzero" fill-opacity="1" /><path clip-path="url(#clip640)" d="M223.992 953.965 L223.992 949.705 Q225.751 950.539 227.556 950.978 Q229.362 951.418 231.098 951.418 Q235.728 951.418 238.158 948.316 Q240.612 945.191 240.959 938.849 Q239.617 940.84 237.556 941.904 Q235.496 942.969 232.996 942.969 Q227.811 942.969 224.779 939.844 Q221.769 936.696 221.769 931.256 Q221.769 925.932 224.918 922.715 Q228.066 919.497 233.297 919.497 Q239.292 919.497 242.441 924.104 Q245.612 928.687 245.612 937.437 Q245.612 945.608 241.723 950.492 Q237.857 955.353 231.306 955.353 Q229.547 955.353 227.742 955.006 Q225.936 954.659 223.992 953.965 M233.297 939.312 Q236.445 939.312 238.274 937.159 Q240.126 935.006 240.126 931.256 Q240.126 927.53 238.274 925.377 Q236.445 923.201 233.297 923.201 Q230.149 923.201 228.297 925.377 Q226.468 927.53 226.468 931.256 Q226.468 935.006 228.297 937.159 Q230.149 939.312 233.297 939.312 Z" fill="#000000" fill-rule="nonzero" fill-opacity="1" /><path clip-path="url(#clip640)" d="M254.061 920.122 L272.417 920.122 L272.417 924.057 L258.343 924.057 L258.343 932.529 Q259.362 932.182 260.38 932.02 Q261.399 931.835 262.417 931.835 Q268.204 931.835 271.584 935.006 Q274.964 938.178 274.964 943.594 Q274.964 949.173 271.491 952.275 Q268.019 955.353 261.7 955.353 Q259.524 955.353 257.255 954.983 Q255.01 954.613 252.603 953.872 L252.603 949.173 Q254.686 950.307 256.908 950.863 Q259.13 951.418 261.607 951.418 Q265.612 951.418 267.95 949.312 Q270.288 947.205 270.288 943.594 Q270.288 939.983 267.95 937.877 Q265.612 935.77 261.607 935.77 Q259.732 935.77 257.857 936.187 Q256.005 936.604 254.061 937.483 L254.061 920.122 Z" fill="#000000" fill-rule="nonzero" fill-opacity="1" /><path clip-path="url(#clip640)" d="M294.176 923.201 Q290.565 923.201 288.737 926.766 Q286.931 930.307 286.931 937.437 Q286.931 944.543 288.737 948.108 Q290.565 951.65 294.176 951.65 Q297.811 951.65 299.616 948.108 Q301.445 944.543 301.445 937.437 Q301.445 930.307 299.616 926.766 Q297.811 923.201 294.176 923.201 M294.176 919.497 Q299.987 919.497 303.042 924.104 Q306.121 928.687 306.121 937.437 Q306.121 946.164 303.042 950.77 Q299.987 955.353 294.176 955.353 Q288.366 955.353 285.288 950.77 Q282.232 946.164 282.232 937.437 Q282.232 928.687 285.288 924.104 Q288.366 919.497 294.176 919.497 Z" fill="#000000" fill-rule="nonzero" fill-opacity="1" /><path clip-path="url(#clip640)" d="M324.338 923.201 Q320.727 923.201 318.899 926.766 Q317.093 930.307 317.093 937.437 Q317.093 944.543 318.899 948.108 Q320.727 951.65 324.338 951.65 Q327.973 951.65 329.778 948.108 Q331.607 944.543 331.607 937.437 Q331.607 930.307 329.778 926.766 Q327.973 923.201 324.338 923.201 M324.338 919.497 Q330.148 919.497 333.204 924.104 Q336.283 928.687 336.283 937.437 Q336.283 946.164 333.204 950.77 Q330.148 955.353 324.338 955.353 Q318.528 955.353 315.449 950.77 Q312.394 946.164 312.394 937.437 Q312.394 928.687 315.449 924.104 Q318.528 919.497 324.338 919.497 Z" fill="#000000" fill-rule="nonzero" fill-opacity="1" /><path clip-path="url(#clip640)" d="M372.671 929.219 L362.093 939.844 L372.671 950.423 L369.917 953.224 L359.292 942.599 L348.667 953.224 L345.935 950.423 L356.491 939.844 L345.935 929.219 L348.667 926.418 L359.292 937.043 L369.917 926.418 L372.671 929.219 Z" fill="#000000" fill-rule="nonzero" fill-opacity="1" /><path clip-path="url(#clip640)" d="M385.032 950.747 L392.671 950.747 L392.671 924.381 L384.361 926.048 L384.361 921.789 L392.625 920.122 L397.301 920.122 L397.301 950.747 L404.94 950.747 L404.94 954.682 L385.032 954.682 L385.032 950.747 Z" fill="#000000" fill-rule="nonzero" fill-opacity="1" /><path clip-path="url(#clip640)" d="M424.384 923.201 Q420.773 923.201 418.944 926.766 Q417.139 930.307 417.139 937.437 Q417.139 944.543 418.944 948.108 Q420.773 951.65 424.384 951.65 Q428.018 951.65 429.824 948.108 Q431.653 944.543 431.653 937.437 Q431.653 930.307 429.824 926.766 Q428.018 923.201 424.384 923.201 M424.384 919.497 Q430.194 919.497 433.25 924.104 Q436.328 928.687 436.328 937.437 Q436.328 946.164 433.25 950.77 Q430.194 955.353 424.384 955.353 Q418.574 955.353 415.495 950.77 Q412.44 946.164 412.44 937.437 Q412.44 928.687 415.495 924.104 Q418.574 919.497 424.384 919.497 Z" fill="#000000" fill-rule="nonzero" fill-opacity="1" /><path clip-path="url(#clip640)" d="M436.328 913.599 L460.44 913.599 L460.44 916.796 L436.328 916.796 L436.328 913.599 Z" fill="#000000" fill-rule="nonzero" fill-opacity="1" /><path clip-path="url(#clip640)" d="M469.298 924.074 L475.505 924.074 L475.505 902.652 L468.753 904.007 L468.753 900.546 L475.467 899.192 L479.267 899.192 L479.267 924.074 L485.473 924.074 L485.473 927.272 L469.298 927.272 L469.298 924.074 Z" fill="#000000" fill-rule="nonzero" fill-opacity="1" /><path clip-path="url(#clip640)" d="M118.437 575.114 L118.437 570.855 Q120.196 571.688 122.001 572.128 Q123.807 572.568 125.543 572.568 Q130.173 572.568 132.603 569.466 Q135.057 566.341 135.404 559.999 Q134.062 561.989 132.001 563.054 Q129.941 564.119 127.441 564.119 Q122.256 564.119 119.224 560.994 Q116.214 557.846 116.214 552.406 Q116.214 547.082 119.363 543.865 Q122.511 540.647 127.742 540.647 Q133.737 540.647 136.886 545.253 Q140.057 549.837 140.057 558.587 Q140.057 566.758 136.168 571.642 Q132.302 576.503 125.751 576.503 Q123.992 576.503 122.187 576.156 Q120.381 575.809 118.437 575.114 M127.742 560.462 Q130.89 560.462 132.719 558.309 Q134.571 556.156 134.571 552.406 Q134.571 548.679 132.719 546.527 Q130.89 544.351 127.742 544.351 Q124.594 544.351 122.742 546.527 Q120.913 548.679 120.913 552.406 Q120.913 556.156 122.742 558.309 Q124.594 560.462 127.742 560.462 Z" fill="#000000" fill-rule="nonzero" fill-opacity="1" /><path clip-path="url(#clip640)" d="M148.46 569.952 L153.344 569.952 L153.344 575.832 L148.46 575.832 L148.46 569.952 Z" fill="#000000" fill-rule="nonzero" fill-opacity="1" /><path clip-path="url(#clip640)" d="M163.668 575.114 L163.668 570.855 Q165.427 571.688 167.233 572.128 Q169.038 572.568 170.774 572.568 Q175.404 572.568 177.834 569.466 Q180.288 566.341 180.635 559.999 Q179.293 561.989 177.233 563.054 Q175.172 564.119 172.672 564.119 Q167.487 564.119 164.455 560.994 Q161.446 557.846 161.446 552.406 Q161.446 547.082 164.594 543.865 Q167.742 540.647 172.973 540.647 Q178.969 540.647 182.117 545.253 Q185.288 549.837 185.288 558.587 Q185.288 566.758 181.399 571.642 Q177.534 576.503 170.983 576.503 Q169.223 576.503 167.418 576.156 Q165.612 575.809 163.668 575.114 M172.973 560.462 Q176.122 560.462 177.95 558.309 Q179.802 556.156 179.802 552.406 Q179.802 548.679 177.95 546.527 Q176.122 544.351 172.973 544.351 Q169.825 544.351 167.973 546.527 Q166.145 548.679 166.145 552.406 Q166.145 556.156 167.973 558.309 Q169.825 560.462 172.973 560.462 Z" fill="#000000" fill-rule="nonzero" fill-opacity="1" /><path clip-path="url(#clip640)" d="M193.83 575.114 L193.83 570.855 Q195.589 571.688 197.395 572.128 Q199.2 572.568 200.936 572.568 Q205.566 572.568 207.996 569.466 Q210.45 566.341 210.797 559.999 Q209.455 561.989 207.395 563.054 Q205.334 564.119 202.834 564.119 Q197.649 564.119 194.617 560.994 Q191.608 557.846 191.608 552.406 Q191.608 547.082 194.756 543.865 Q197.904 540.647 203.135 540.647 Q209.131 540.647 212.279 545.253 Q215.45 549.837 215.45 558.587 Q215.45 566.758 211.561 571.642 Q207.695 576.503 201.145 576.503 Q199.385 576.503 197.58 576.156 Q195.774 575.809 193.83 575.114 M203.135 560.462 Q206.283 560.462 208.112 558.309 Q209.964 556.156 209.964 552.406 Q209.964 548.679 208.112 546.527 Q206.283 544.351 203.135 544.351 Q199.987 544.351 198.135 546.527 Q196.307 548.679 196.307 552.406 Q196.307 556.156 198.135 558.309 Q199.987 560.462 203.135 560.462 Z" fill="#000000" fill-rule="nonzero" fill-opacity="1" /><path clip-path="url(#clip640)" d="M223.992 575.114 L223.992 570.855 Q225.751 571.688 227.556 572.128 Q229.362 572.568 231.098 572.568 Q235.728 572.568 238.158 569.466 Q240.612 566.341 240.959 559.999 Q239.617 561.989 237.556 563.054 Q235.496 564.119 232.996 564.119 Q227.811 564.119 224.779 560.994 Q221.769 557.846 221.769 552.406 Q221.769 547.082 224.918 543.865 Q228.066 540.647 233.297 540.647 Q239.292 540.647 242.441 545.253 Q245.612 549.837 245.612 558.587 Q245.612 566.758 241.723 571.642 Q237.857 576.503 231.306 576.503 Q229.547 576.503 227.742 576.156 Q225.936 575.809 223.992 575.114 M233.297 560.462 Q236.445 560.462 238.274 558.309 Q240.126 556.156 240.126 552.406 Q240.126 548.679 238.274 546.527 Q236.445 544.351 233.297 544.351 Q230.149 544.351 228.297 546.527 Q226.468 548.679 226.468 552.406 Q226.468 556.156 228.297 558.309 Q230.149 560.462 233.297 560.462 Z" fill="#000000" fill-rule="nonzero" fill-opacity="1" /><path clip-path="url(#clip640)" d="M252.834 541.272 L275.056 541.272 L275.056 543.263 L262.51 575.832 L257.626 575.832 L269.431 545.207 L252.834 545.207 L252.834 541.272 Z" fill="#000000" fill-rule="nonzero" fill-opacity="1" /><path clip-path="url(#clip640)" d="M284.223 541.272 L302.579 541.272 L302.579 545.207 L288.505 545.207 L288.505 553.679 Q289.524 553.332 290.542 553.17 Q291.561 552.985 292.579 552.985 Q298.366 552.985 301.746 556.156 Q305.125 559.327 305.125 564.744 Q305.125 570.323 301.653 573.425 Q298.181 576.503 291.862 576.503 Q289.686 576.503 287.417 576.133 Q285.172 575.763 282.764 575.022 L282.764 570.323 Q284.848 571.457 287.07 572.013 Q289.292 572.568 291.769 572.568 Q295.774 572.568 298.112 570.462 Q300.45 568.355 300.45 564.744 Q300.45 561.133 298.112 559.026 Q295.774 556.92 291.769 556.92 Q289.894 556.92 288.019 557.337 Q286.167 557.753 284.223 558.633 L284.223 541.272 Z" fill="#000000" fill-rule="nonzero" fill-opacity="1" /><path clip-path="url(#clip640)" d="M324.338 544.351 Q320.727 544.351 318.899 547.915 Q317.093 551.457 317.093 558.587 Q317.093 565.693 318.899 569.258 Q320.727 572.8 324.338 572.8 Q327.973 572.8 329.778 569.258 Q331.607 565.693 331.607 558.587 Q331.607 551.457 329.778 547.915 Q327.973 544.351 324.338 544.351 M324.338 540.647 Q330.148 540.647 333.204 545.253 Q336.283 549.837 336.283 558.587 Q336.283 567.313 333.204 571.92 Q330.148 576.503 324.338 576.503 Q318.528 576.503 315.449 571.92 Q312.394 567.313 312.394 558.587 Q312.394 549.837 315.449 545.253 Q318.528 540.647 324.338 540.647 Z" fill="#000000" fill-rule="nonzero" fill-opacity="1" /><path clip-path="url(#clip640)" d="M372.671 550.369 L362.093 560.994 L372.671 571.573 L369.917 574.374 L359.292 563.749 L348.667 574.374 L345.935 571.573 L356.491 560.994 L345.935 550.369 L348.667 547.568 L359.292 558.193 L369.917 547.568 L372.671 550.369 Z" fill="#000000" fill-rule="nonzero" fill-opacity="1" /><path clip-path="url(#clip640)" d="M385.032 571.897 L392.671 571.897 L392.671 545.531 L384.361 547.198 L384.361 542.939 L392.625 541.272 L397.301 541.272 L397.301 571.897 L404.94 571.897 L404.94 575.832 L385.032 575.832 L385.032 571.897 Z" fill="#000000" fill-rule="nonzero" fill-opacity="1" /><path clip-path="url(#clip640)" d="M424.384 544.351 Q420.773 544.351 418.944 547.915 Q417.139 551.457 417.139 558.587 Q417.139 565.693 418.944 569.258 Q420.773 572.8 424.384 572.8 Q428.018 572.8 429.824 569.258 Q431.653 565.693 431.653 558.587 Q431.653 551.457 429.824 547.915 Q428.018 544.351 424.384 544.351 M424.384 540.647 Q430.194 540.647 433.25 545.253 Q436.328 549.837 436.328 558.587 Q436.328 567.313 433.25 571.92 Q430.194 576.503 424.384 576.503 Q418.574 576.503 415.495 571.92 Q412.44 567.313 412.44 558.587 Q412.44 549.837 415.495 545.253 Q418.574 540.647 424.384 540.647 Z" fill="#000000" fill-rule="nonzero" fill-opacity="1" /><path clip-path="url(#clip640)" d="M436.328 534.748 L460.44 534.748 L460.44 537.946 L436.328 537.946 L436.328 534.748 Z" fill="#000000" fill-rule="nonzero" fill-opacity="1" /><path clip-path="url(#clip640)" d="M469.298 545.224 L475.505 545.224 L475.505 523.802 L468.753 525.156 L468.753 521.696 L475.467 520.342 L479.267 520.342 L479.267 545.224 L485.473 545.224 L485.473 548.422 L469.298 548.422 L469.298 545.224 Z" fill="#000000" fill-rule="nonzero" fill-opacity="1" /><path clip-path="url(#clip640)" d="M148.843 193.047 L156.482 193.047 L156.482 166.681 L148.172 168.348 L148.172 164.088 L156.436 162.422 L161.111 162.422 L161.111 193.047 L168.75 193.047 L168.75 196.982 L148.843 196.982 L148.843 193.047 Z" fill="#000000" fill-rule="nonzero" fill-opacity="1" /><path clip-path="url(#clip640)" d="M178.195 191.102 L183.079 191.102 L183.079 196.982 L178.195 196.982 L178.195 191.102 Z" fill="#000000" fill-rule="nonzero" fill-opacity="1" /><path clip-path="url(#clip640)" d="M203.264 165.5 Q199.653 165.5 197.824 169.065 Q196.019 172.607 196.019 179.736 Q196.019 186.843 197.824 190.408 Q199.653 193.949 203.264 193.949 Q206.898 193.949 208.704 190.408 Q210.533 186.843 210.533 179.736 Q210.533 172.607 208.704 169.065 Q206.898 165.5 203.264 165.5 M203.264 161.797 Q209.074 161.797 212.13 166.403 Q215.208 170.987 215.208 179.736 Q215.208 188.463 212.13 193.07 Q209.074 197.653 203.264 197.653 Q197.454 197.653 194.375 193.07 Q191.32 188.463 191.32 179.736 Q191.32 170.987 194.375 166.403 Q197.454 161.797 203.264 161.797 Z" fill="#000000" fill-rule="nonzero" fill-opacity="1" /><path clip-path="url(#clip640)" d="M233.426 165.5 Q229.815 165.5 227.986 169.065 Q226.181 172.607 226.181 179.736 Q226.181 186.843 227.986 190.408 Q229.815 193.949 233.426 193.949 Q237.06 193.949 238.866 190.408 Q240.694 186.843 240.694 179.736 Q240.694 172.607 238.866 169.065 Q237.06 165.5 233.426 165.5 M233.426 161.797 Q239.236 161.797 242.292 166.403 Q245.37 170.987 245.37 179.736 Q245.37 188.463 242.292 193.07 Q239.236 197.653 233.426 197.653 Q227.616 197.653 224.537 193.07 Q221.482 188.463 221.482 179.736 Q221.482 170.987 224.537 166.403 Q227.616 161.797 233.426 161.797 Z" fill="#000000" fill-rule="nonzero" fill-opacity="1" /><path clip-path="url(#clip640)" d="M263.588 165.5 Q259.977 165.5 258.148 169.065 Q256.342 172.607 256.342 179.736 Q256.342 186.843 258.148 190.408 Q259.977 193.949 263.588 193.949 Q267.222 193.949 269.028 190.408 Q270.856 186.843 270.856 179.736 Q270.856 172.607 269.028 169.065 Q267.222 165.5 263.588 165.5 M263.588 161.797 Q269.398 161.797 272.453 166.403 Q275.532 170.987 275.532 179.736 Q275.532 188.463 272.453 193.07 Q269.398 197.653 263.588 197.653 Q257.778 197.653 254.699 193.07 Q251.643 188.463 251.643 179.736 Q251.643 170.987 254.699 166.403 Q257.778 161.797 263.588 161.797 Z" fill="#000000" fill-rule="nonzero" fill-opacity="1" /><path clip-path="url(#clip640)" d="M293.75 165.5 Q290.139 165.5 288.31 169.065 Q286.504 172.607 286.504 179.736 Q286.504 186.843 288.31 190.408 Q290.139 193.949 293.75 193.949 Q297.384 193.949 299.189 190.408 Q301.018 186.843 301.018 179.736 Q301.018 172.607 299.189 169.065 Q297.384 165.5 293.75 165.5 M293.75 161.797 Q299.56 161.797 302.615 166.403 Q305.694 170.987 305.694 179.736 Q305.694 188.463 302.615 193.07 Q299.56 197.653 293.75 197.653 Q287.94 197.653 284.861 193.07 Q281.805 188.463 281.805 179.736 Q281.805 170.987 284.861 166.403 Q287.94 161.797 293.75 161.797 Z" fill="#000000" fill-rule="nonzero" fill-opacity="1" /><path clip-path="url(#clip640)" d="M323.912 165.5 Q320.3 165.5 318.472 169.065 Q316.666 172.607 316.666 179.736 Q316.666 186.843 318.472 190.408 Q320.3 193.949 323.912 193.949 Q327.546 193.949 329.351 190.408 Q331.18 186.843 331.18 179.736 Q331.18 172.607 329.351 169.065 Q327.546 165.5 323.912 165.5 M323.912 161.797 Q329.722 161.797 332.777 166.403 Q335.856 170.987 335.856 179.736 Q335.856 188.463 332.777 193.07 Q329.722 197.653 323.912 197.653 Q318.101 197.653 315.023 193.07 Q311.967 188.463 311.967 179.736 Q311.967 170.987 315.023 166.403 Q318.101 161.797 323.912 161.797 Z" fill="#000000" fill-rule="nonzero" fill-opacity="1" /><path clip-path="url(#clip640)" d="M354.073 165.5 Q350.462 165.5 348.634 169.065 Q346.828 172.607 346.828 179.736 Q346.828 186.843 348.634 190.408 Q350.462 193.949 354.073 193.949 Q357.708 193.949 359.513 190.408 Q361.342 186.843 361.342 179.736 Q361.342 172.607 359.513 169.065 Q357.708 165.5 354.073 165.5 M354.073 161.797 Q359.884 161.797 362.939 166.403 Q366.018 170.987 366.018 179.736 Q366.018 188.463 362.939 193.07 Q359.884 197.653 354.073 197.653 Q348.263 197.653 345.185 193.07 Q342.129 188.463 342.129 179.736 Q342.129 170.987 345.185 166.403 Q348.263 161.797 354.073 161.797 Z" fill="#000000" fill-rule="nonzero" fill-opacity="1" /><path clip-path="url(#clip640)" d="M402.406 171.519 L391.828 182.144 L402.406 192.723 L399.652 195.523 L389.027 184.898 L378.402 195.523 L375.671 192.723 L386.226 182.144 L375.671 171.519 L378.402 168.718 L389.027 179.343 L399.652 168.718 L402.406 171.519 Z" fill="#000000" fill-rule="nonzero" fill-opacity="1" /><path clip-path="url(#clip640)" d="M414.768 193.047 L422.406 193.047 L422.406 166.681 L414.096 168.348 L414.096 164.088 L422.36 162.422 L427.036 162.422 L427.036 193.047 L434.675 193.047 L434.675 196.982 L414.768 196.982 L414.768 193.047 Z" fill="#000000" fill-rule="nonzero" fill-opacity="1" /><path clip-path="url(#clip640)" d="M454.119 165.5 Q450.508 165.5 448.679 169.065 Q446.874 172.607 446.874 179.736 Q446.874 186.843 448.679 190.408 Q450.508 193.949 454.119 193.949 Q457.753 193.949 459.559 190.408 Q461.388 186.843 461.388 179.736 Q461.388 172.607 459.559 169.065 Q457.753 165.5 454.119 165.5 M454.119 161.797 Q459.929 161.797 462.985 166.403 Q466.064 170.987 466.064 179.736 Q466.064 188.463 462.985 193.07 Q459.929 197.653 454.119 197.653 Q448.309 197.653 445.23 193.07 Q442.175 188.463 442.175 179.736 Q442.175 170.987 445.23 166.403 Q448.309 161.797 454.119 161.797 Z" fill="#000000" fill-rule="nonzero" fill-opacity="1" /><path clip-path="url(#clip640)" d="M475.768 143.993 Q472.834 143.993 471.349 146.889 Q469.882 149.767 469.882 155.56 Q469.882 161.334 471.349 164.23 Q472.834 167.108 475.768 167.108 Q478.721 167.108 480.188 164.23 Q481.674 161.334 481.674 155.56 Q481.674 149.767 480.188 146.889 Q478.721 143.993 475.768 143.993 M475.768 140.984 Q480.489 140.984 482.972 144.726 Q485.473 148.45 485.473 155.56 Q485.473 162.65 482.972 166.393 Q480.489 170.117 475.768 170.117 Q471.048 170.117 468.546 166.393 Q466.064 162.65 466.064 155.56 Q466.064 148.45 468.546 144.726 Q471.048 140.984 475.768 140.984 Z" fill="#000000" fill-rule="nonzero" fill-opacity="1" /><path clip-path="url(#clip640)" d="M20.4523 1087.81 L44.1009 1096.53 L44.1009 1079.05 L20.4523 1087.81 M14.1184 1091.43 L14.1184 1084.15 L61.6384 1066.03 L61.6384 1072.72 L49.4481 1077.05 L49.4481 1098.47 L61.6384 1102.8 L61.6384 1109.58 L14.1184 1091.43 Z" fill="#000000" fill-rule="nonzero" fill-opacity="1" /><path clip-path="url(#clip640)" d="M15.869 1054.7 L25.9905 1054.7 L25.9905 1042.64 L30.542 1042.64 L30.542 1054.7 L49.8937 1054.7 Q54.2542 1054.7 55.4955 1053.53 Q56.7368 1052.32 56.7368 1048.66 L56.7368 1042.64 L61.6384 1042.64 L61.6384 1048.66 Q61.6384 1055.44 59.124 1058.01 Q56.5777 1060.59 49.8937 1060.59 L30.542 1060.59 L30.542 1064.89 L25.9905 1064.89 L25.9905 1060.59 L15.869 1060.59 L15.869 1054.7 Z" fill="#000000" fill-rule="nonzero" fill-opacity="1" /><path clip-path="url(#clip640)" d="M15.869 1029.15 L25.9905 1029.15 L25.9905 1017.08 L30.542 1017.08 L30.542 1029.15 L49.8937 1029.15 Q54.2542 1029.15 55.4955 1027.97 Q56.7368 1026.76 56.7368 1023.1 L56.7368 1017.08 L61.6384 1017.08 L61.6384 1023.1 Q61.6384 1029.88 59.124 1032.46 Q56.5777 1035.03 49.8937 1035.03 L30.542 1035.03 L30.542 1039.33 L25.9905 1039.33 L25.9905 1035.03 L15.869 1035.03 L15.869 1029.15 Z" fill="#000000" fill-rule="nonzero" fill-opacity="1" /><path clip-path="url(#clip640)" d="M43.719 993.179 Q43.719 1000.28 45.3422 1003.01 Q46.9655 1005.75 50.8804 1005.75 Q53.9996 1005.75 55.8457 1003.71 Q57.6599 1001.65 57.6599 998.113 Q57.6599 993.243 54.2224 990.315 Q50.7531 987.355 45.0239 987.355 L43.719 987.355 L43.719 993.179 M41.3 981.498 L61.6384 981.498 L61.6384 987.355 L56.2276 987.355 Q59.4741 989.36 61.0337 992.352 Q62.5615 995.344 62.5615 999.672 Q62.5615 1005.15 59.5059 1008.39 Q56.4186 1011.61 51.2623 1011.61 Q45.2467 1011.61 42.1912 1007.6 Q39.1357 1003.56 39.1357 995.566 L39.1357 987.355 L38.5628 987.355 Q34.5205 987.355 32.3244 990.028 Q30.0964 992.67 30.0964 997.476 Q30.0964 1000.53 30.8284 1003.43 Q31.5605 1006.32 33.0246 1009 L27.6137 1009 Q26.3724 1005.78 25.7677 1002.76 Q25.1311 999.736 25.1311 996.871 Q25.1311 989.137 29.1415 985.318 Q33.1519 981.498 41.3 981.498 Z" fill="#000000" fill-rule="nonzero" fill-opacity="1" /><path clip-path="url(#clip640)" d="M27.3591 943.781 L32.8336 943.781 Q31.465 946.264 30.7966 948.779 Q30.0964 951.261 30.0964 953.807 Q30.0964 959.505 33.7248 962.656 Q37.3214 965.807 43.8463 965.807 Q50.3711 965.807 53.9996 962.656 Q57.5962 959.505 57.5962 953.807 Q57.5962 951.261 56.9278 948.779 Q56.2276 946.264 54.859 943.781 L60.2698 943.781 Q61.4156 946.232 61.9886 948.874 Q62.5615 951.484 62.5615 954.444 Q62.5615 962.497 57.5007 967.239 Q52.44 971.982 43.8463 971.982 Q35.1253 971.982 30.1282 967.207 Q25.1311 962.401 25.1311 954.062 Q25.1311 951.357 25.704 948.779 Q26.2451 946.2 27.3591 943.781 Z" fill="#000000" fill-rule="nonzero" fill-opacity="1" /><path clip-path="url(#clip640)" d="M12.1132 933.819 L12.1132 927.931 L41.3637 927.931 L25.9905 910.457 L25.9905 902.977 L42.6686 921.883 L61.6384 902.182 L61.6384 909.82 L44.2282 927.931 L61.6384 927.931 L61.6384 933.819 L12.1132 933.819 Z" fill="#000000" fill-rule="nonzero" fill-opacity="1" /><path clip-path="url(#clip640)" d="M31.465 854.471 Q30.8921 855.457 30.6375 856.635 Q30.351 857.781 30.351 859.181 Q30.351 864.146 33.5975 866.82 Q36.8122 869.462 42.8596 869.462 L61.6384 869.462 L61.6384 875.35 L25.9905 875.35 L25.9905 869.462 L31.5287 869.462 Q28.2821 867.616 26.7225 864.656 Q25.1311 861.696 25.1311 857.462 Q25.1311 856.858 25.2266 856.126 Q25.2903 855.394 25.4494 854.502 L31.465 854.471 Z" fill="#000000" fill-rule="nonzero" fill-opacity="1" /><path clip-path="url(#clip640)" d="M43.719 832.127 Q43.719 839.225 45.3422 841.962 Q46.9655 844.699 50.8804 844.699 Q53.9996 844.699 55.8457 842.662 Q57.6599 840.593 57.6599 837.06 Q57.6599 832.191 54.2224 829.262 Q50.7531 826.302 45.0239 826.302 L43.719 826.302 L43.719 832.127 M41.3 820.446 L61.6384 820.446 L61.6384 826.302 L56.2276 826.302 Q59.4741 828.308 61.0337 831.299 Q62.5615 834.291 62.5615 838.62 Q62.5615 844.094 59.5059 847.341 Q56.4186 850.556 51.2623 850.556 Q45.2467 850.556 42.1912 846.545 Q39.1357 842.503 39.1357 834.514 L39.1357 826.302 L38.5628 826.302 Q34.5205 826.302 32.3244 828.976 Q30.0964 831.618 30.0964 836.424 Q30.0964 839.479 30.8284 842.376 Q31.5605 845.272 33.0246 847.946 L27.6137 847.946 Q26.3724 844.731 25.7677 841.707 Q25.1311 838.684 25.1311 835.819 Q25.1311 828.085 29.1415 824.265 Q33.1519 820.446 41.3 820.446 Z" fill="#000000" fill-rule="nonzero" fill-opacity="1" /><path clip-path="url(#clip640)" d="M15.869 802.59 L25.9905 802.59 L25.9905 790.527 L30.542 790.527 L30.542 802.59 L49.8937 802.59 Q54.2542 802.59 55.4955 801.412 Q56.7368 800.203 56.7368 796.543 L56.7368 790.527 L61.6384 790.527 L61.6384 796.543 Q61.6384 803.322 59.124 805.9 Q56.5777 808.478 49.8937 808.478 L30.542 808.478 L30.542 812.775 L25.9905 812.775 L25.9905 808.478 L15.869 808.478 L15.869 802.59 Z" fill="#000000" fill-rule="nonzero" fill-opacity="1" /><path clip-path="url(#clip640)" d="M42.3504 752.333 L45.2149 752.333 L45.2149 779.26 Q51.2623 778.878 54.4452 775.631 Q57.5962 772.353 57.5962 766.528 Q57.5962 763.155 56.7687 760.004 Q55.9411 756.821 54.2861 753.701 L59.8242 753.701 Q61.161 756.852 61.8612 760.163 Q62.5615 763.473 62.5615 766.878 Q62.5615 775.409 57.5962 780.406 Q52.631 785.371 44.1646 785.371 Q35.4117 785.371 30.2873 780.66 Q25.1311 775.918 25.1311 767.897 Q25.1311 760.704 29.7781 756.534 Q34.3932 752.333 42.3504 752.333 M40.6316 758.189 Q35.8255 758.253 32.9609 760.895 Q30.0964 763.505 30.0964 767.833 Q30.0964 772.735 32.8654 775.695 Q35.6345 778.623 40.6634 779.069 L40.6316 758.189 Z" fill="#000000" fill-rule="nonzero" fill-opacity="1" /><path clip-path="url(#clip640)" d="M822.92 12.096 L831.103 12.096 L831.103 72.576 L822.92 72.576 L822.92 12.096 Z" fill="#000000" fill-rule="nonzero" fill-opacity="1" /><path clip-path="url(#clip640)" d="M882.387 35.9153 Q885.182 30.8922 889.071 28.5022 Q892.96 26.1121 898.226 26.1121 Q905.315 26.1121 909.164 31.0947 Q913.012 36.0368 913.012 45.1919 L913.012 72.576 L905.518 72.576 L905.518 45.4349 Q905.518 38.913 903.209 35.7533 Q900.9 32.5936 896.16 32.5936 Q890.367 32.5936 887.005 36.4419 Q883.643 40.2903 883.643 46.9338 L883.643 72.576 L876.149 72.576 L876.149 45.4349 Q876.149 38.8725 873.84 35.7533 Q871.531 32.5936 866.71 32.5936 Q860.998 32.5936 857.636 36.4824 Q854.274 40.3308 854.274 46.9338 L854.274 72.576 L846.78 72.576 L846.78 27.2059 L854.274 27.2059 L854.274 34.2544 Q856.826 30.082 860.391 28.0971 Q863.955 26.1121 868.857 26.1121 Q873.799 26.1121 877.242 28.6237 Q880.726 31.1352 882.387 35.9153 Z" fill="#000000" fill-rule="nonzero" fill-opacity="1" /><path clip-path="url(#clip640)" d="M935.089 65.7705 L935.089 89.8329 L927.595 89.8329 L927.595 27.2059 L935.089 27.2059 L935.089 34.0924 Q937.439 30.0415 941.004 28.0971 Q944.609 26.1121 949.592 26.1121 Q957.855 26.1121 963 32.6746 Q968.185 39.2371 968.185 49.9314 Q968.185 60.6258 963 67.1883 Q957.855 73.7508 949.592 73.7508 Q944.609 73.7508 941.004 71.8063 Q937.439 69.8214 935.089 65.7705 M960.448 49.9314 Q960.448 41.7081 957.045 37.0496 Q953.683 32.3505 947.769 32.3505 Q941.854 32.3505 938.452 37.0496 Q935.089 41.7081 935.089 49.9314 Q935.089 58.1548 938.452 62.8538 Q941.854 67.5124 947.769 67.5124 Q953.683 67.5124 957.045 62.8538 Q960.448 58.1548 960.448 49.9314 Z" fill="#000000" fill-rule="nonzero" fill-opacity="1" /><path clip-path="url(#clip640)" d="M1001.16 49.7694 Q992.126 49.7694 988.642 51.8354 Q985.159 53.9013 985.159 58.8839 Q985.159 62.8538 987.751 65.2034 Q990.384 67.5124 994.881 67.5124 Q1001.08 67.5124 1004.81 63.1374 Q1008.57 58.7219 1008.57 51.4303 L1008.57 49.7694 L1001.16 49.7694 M1016.03 46.6907 L1016.03 72.576 L1008.57 72.576 L1008.57 65.6895 Q1006.02 69.8214 1002.21 71.8063 Q998.405 73.7508 992.896 73.7508 Q985.928 73.7508 981.796 69.8619 Q977.705 65.9325 977.705 59.3701 Q977.705 51.7138 982.809 47.825 Q987.954 43.9361 998.121 43.9361 L1008.57 43.9361 L1008.57 43.2069 Q1008.57 38.0623 1005.17 35.2672 Q1001.81 32.4315 995.691 32.4315 Q991.802 32.4315 988.116 33.3632 Q984.429 34.295 981.027 36.1584 L981.027 29.2718 Q985.118 27.692 988.966 26.9223 Q992.815 26.1121 996.461 26.1121 Q1006.3 26.1121 1011.17 31.2163 Q1016.03 36.3204 1016.03 46.6907 Z" fill="#000000" fill-rule="nonzero" fill-opacity="1" /><path clip-path="url(#clip640)" d="M1064.03 28.9478 L1064.03 35.9153 Q1060.87 34.1734 1057.67 33.3227 Q1054.51 32.4315 1051.27 32.4315 Q1044.02 32.4315 1040.01 37.0496 Q1036 41.6271 1036 49.9314 Q1036 58.2358 1040.01 62.8538 Q1044.02 67.4314 1051.27 67.4314 Q1054.51 67.4314 1057.67 66.5807 Q1060.87 65.6895 1064.03 63.9476 L1064.03 70.8341 Q1060.91 72.2924 1057.55 73.0216 Q1054.23 73.7508 1050.46 73.7508 Q1040.21 73.7508 1034.17 67.3098 Q1028.14 60.8689 1028.14 49.9314 Q1028.14 38.832 1034.21 32.472 Q1040.33 26.1121 1050.95 26.1121 Q1054.39 26.1121 1057.67 26.8413 Q1060.95 27.5299 1064.03 28.9478 Z" fill="#000000" fill-rule="nonzero" fill-opacity="1" /><path clip-path="url(#clip640)" d="M1084.37 14.324 L1084.37 27.2059 L1099.72 27.2059 L1099.72 32.9987 L1084.37 32.9987 L1084.37 57.6282 Q1084.37 63.1779 1085.86 64.7578 Q1087.4 66.3376 1092.06 66.3376 L1099.72 66.3376 L1099.72 72.576 L1092.06 72.576 Q1083.43 72.576 1080.15 69.3758 Q1076.87 66.1351 1076.87 57.6282 L1076.87 32.9987 L1071.4 32.9987 L1071.4 27.2059 L1076.87 27.2059 L1076.87 14.324 L1084.37 14.324 Z" fill="#000000" fill-rule="nonzero" fill-opacity="1" /><path clip-path="url(#clip640)" d="M1153.47 32.4315 Q1147.48 32.4315 1143.99 37.1306 Q1140.51 41.7891 1140.51 49.9314 Q1140.51 58.0738 1143.95 62.7728 Q1147.44 67.4314 1153.47 67.4314 Q1159.43 67.4314 1162.91 62.7323 Q1166.4 58.0333 1166.4 49.9314 Q1166.4 41.8701 1162.91 37.1711 Q1159.43 32.4315 1153.47 32.4315 M1153.47 26.1121 Q1163.2 26.1121 1168.75 32.4315 Q1174.3 38.7509 1174.3 49.9314 Q1174.3 61.0714 1168.75 67.4314 Q1163.2 73.7508 1153.47 73.7508 Q1143.71 73.7508 1138.16 67.4314 Q1132.65 61.0714 1132.65 49.9314 Q1132.65 38.7509 1138.16 32.4315 Q1143.71 26.1121 1153.47 26.1121 Z" fill="#000000" fill-rule="nonzero" fill-opacity="1" /><path clip-path="url(#clip640)" d="M1209.62 9.54393 L1209.62 15.7418 L1202.49 15.7418 Q1198.48 15.7418 1196.9 17.3622 Q1195.36 18.9825 1195.36 23.1955 L1195.36 27.2059 L1207.63 27.2059 L1207.63 32.9987 L1195.36 32.9987 L1195.36 72.576 L1187.87 72.576 L1187.87 32.9987 L1180.74 32.9987 L1180.74 27.2059 L1187.87 27.2059 L1187.87 24.0462 Q1187.87 16.471 1191.39 13.0277 Q1194.91 9.54393 1202.57 9.54393 L1209.62 9.54393 Z" fill="#000000" fill-rule="nonzero" fill-opacity="1" /><path clip-path="url(#clip640)" d="M1267.1 17.6457 Q1258.19 17.6457 1252.92 24.2892 Q1247.7 30.9327 1247.7 42.3968 Q1247.7 53.8203 1252.92 60.4638 Q1258.19 67.1073 1267.1 67.1073 Q1276.01 67.1073 1281.2 60.4638 Q1286.42 53.8203 1286.42 42.3968 Q1286.42 30.9327 1281.2 24.2892 Q1276.01 17.6457 1267.1 17.6457 M1267.1 11.0023 Q1279.82 11.0023 1287.44 19.5497 Q1295.05 28.0566 1295.05 42.3968 Q1295.05 56.6965 1287.44 65.2439 Q1279.82 73.7508 1267.1 73.7508 Q1254.34 73.7508 1246.68 65.2439 Q1239.07 56.737 1239.07 42.3968 Q1239.07 28.0566 1246.68 19.5497 Q1254.34 11.0023 1267.1 11.0023 Z" fill="#000000" fill-rule="nonzero" fill-opacity="1" /><path clip-path="url(#clip640)" d="M1306.76 54.671 L1306.76 27.2059 L1314.21 27.2059 L1314.21 54.3874 Q1314.21 60.8284 1316.73 64.0691 Q1319.24 67.2693 1324.26 67.2693 Q1330.3 67.2693 1333.78 63.421 Q1337.3 59.5726 1337.3 52.9291 L1337.3 27.2059 L1344.76 27.2059 L1344.76 72.576 L1337.3 72.576 L1337.3 65.6084 Q1334.59 69.7404 1330.98 71.7658 Q1327.42 73.7508 1322.68 73.7508 Q1314.86 73.7508 1310.81 68.8897 Q1306.76 64.0286 1306.76 54.671 M1325.52 26.1121 L1325.52 26.1121 Z" fill="#000000" fill-rule="nonzero" fill-opacity="1" /><path clip-path="url(#clip640)" d="M1367.48 14.324 L1367.48 27.2059 L1382.84 27.2059 L1382.84 32.9987 L1367.48 32.9987 L1367.48 57.6282 Q1367.48 63.1779 1368.98 64.7578 Q1370.52 66.3376 1375.18 66.3376 L1382.84 66.3376 L1382.84 72.576 L1375.18 72.576 Q1366.55 72.576 1363.27 69.3758 Q1359.99 66.1351 1359.99 57.6282 L1359.99 32.9987 L1354.52 32.9987 L1354.52 27.2059 L1359.99 27.2059 L1359.99 14.324 L1367.48 14.324 Z" fill="#000000" fill-rule="nonzero" fill-opacity="1" /><path clip-path="url(#clip640)" d="M1425.21 49.9314 Q1425.21 41.7081 1421.81 37.0496 Q1418.44 32.3505 1412.53 32.3505 Q1406.61 32.3505 1403.21 37.0496 Q1399.85 41.7081 1399.85 49.9314 Q1399.85 58.1548 1403.21 62.8538 Q1406.61 67.5124 1412.53 67.5124 Q1418.44 67.5124 1421.81 62.8538 Q1425.21 58.1548 1425.21 49.9314 M1399.85 34.0924 Q1402.2 30.0415 1405.76 28.0971 Q1409.37 26.1121 1414.35 26.1121 Q1422.62 26.1121 1427.76 32.6746 Q1432.95 39.2371 1432.95 49.9314 Q1432.95 60.6258 1427.76 67.1883 Q1422.62 73.7508 1414.35 73.7508 Q1409.37 73.7508 1405.76 71.8063 Q1402.2 69.8214 1399.85 65.7705 L1399.85 72.576 L1392.36 72.576 L1392.36 9.54393 L1399.85 9.54393 L1399.85 34.0924 Z" fill="#000000" fill-rule="nonzero" fill-opacity="1" /><path clip-path="url(#clip640)" d="M1471.59 34.1734 Q1470.34 33.4443 1468.84 33.1202 Q1467.38 32.7556 1465.6 32.7556 Q1459.28 32.7556 1455.87 36.8875 Q1452.51 40.9789 1452.51 48.6757 L1452.51 72.576 L1445.02 72.576 L1445.02 27.2059 L1452.51 27.2059 L1452.51 34.2544 Q1454.86 30.1225 1458.63 28.1376 Q1462.4 26.1121 1467.78 26.1121 Q1468.55 26.1121 1469.48 26.2337 Q1470.42 26.3147 1471.55 26.5172 L1471.59 34.1734 Z" fill="#000000" fill-rule="nonzero" fill-opacity="1" /><path clip-path="url(#clip640)" d="M1516.39 48.0275 L1516.39 51.6733 L1482.12 51.6733 Q1482.61 59.3701 1486.74 63.421 Q1490.91 67.4314 1498.33 67.4314 Q1502.62 67.4314 1506.63 66.3781 Q1510.68 65.3249 1514.65 63.2184 L1514.65 70.267 Q1510.64 71.9684 1506.43 72.8596 Q1502.22 73.7508 1497.88 73.7508 Q1487.03 73.7508 1480.67 67.4314 Q1474.35 61.1119 1474.35 50.3365 Q1474.35 39.1965 1480.34 32.6746 Q1486.38 26.1121 1496.59 26.1121 Q1505.74 26.1121 1511.05 32.0264 Q1516.39 37.9003 1516.39 48.0275 M1508.94 45.84 Q1508.86 39.7232 1505.5 36.0774 Q1502.18 32.4315 1496.67 32.4315 Q1490.43 32.4315 1486.66 35.9558 Q1482.93 39.4801 1482.37 45.8805 L1508.94 45.84 Z" fill="#000000" fill-rule="nonzero" fill-opacity="1" /><path clip-path="url(#clip640)" d="M1549.25 49.7694 Q1540.21 49.7694 1536.73 51.8354 Q1533.25 53.9013 1533.25 58.8839 Q1533.25 62.8538 1535.84 65.2034 Q1538.47 67.5124 1542.97 67.5124 Q1549.17 67.5124 1552.89 63.1374 Q1556.66 58.7219 1556.66 51.4303 L1556.66 49.7694 L1549.25 49.7694 M1564.11 46.6907 L1564.11 72.576 L1556.66 72.576 L1556.66 65.6895 Q1554.11 69.8214 1550.3 71.8063 Q1546.49 73.7508 1540.98 73.7508 Q1534.02 73.7508 1529.88 69.8619 Q1525.79 65.9325 1525.79 59.3701 Q1525.79 51.7138 1530.9 47.825 Q1536.04 43.9361 1546.21 43.9361 L1556.66 43.9361 L1556.66 43.2069 Q1556.66 38.0623 1553.26 35.2672 Q1549.9 32.4315 1543.78 32.4315 Q1539.89 32.4315 1536.2 33.3632 Q1532.52 34.295 1529.11 36.1584 L1529.11 29.2718 Q1533.21 27.692 1537.05 26.9223 Q1540.9 26.1121 1544.55 26.1121 Q1554.39 26.1121 1559.25 31.2163 Q1564.11 36.3204 1564.11 46.6907 Z" fill="#000000" fill-rule="nonzero" fill-opacity="1" /><path clip-path="url(#clip640)" d="M1579.18 9.54393 L1586.68 9.54393 L1586.68 46.7717 L1608.92 27.2059 L1618.44 27.2059 L1594.37 48.4326 L1619.45 72.576 L1609.73 72.576 L1586.68 50.4176 L1586.68 72.576 L1579.18 72.576 L1579.18 9.54393 Z" fill="#000000" fill-rule="nonzero" fill-opacity="1" /><path clip-path="url(#clip640)" d="M1682.89 44.2197 Q1685.52 45.1109 1687.99 48.0275 Q1690.5 50.9442 1693.01 56.0483 L1701.32 72.576 L1692.53 72.576 L1684.79 57.061 Q1681.79 50.9847 1678.96 48.9997 Q1676.16 47.0148 1671.3 47.0148 L1662.39 47.0148 L1662.39 72.576 L1654.21 72.576 L1654.21 12.096 L1672.68 12.096 Q1683.05 12.096 1688.15 16.4305 Q1693.26 20.7649 1693.26 29.5149 Q1693.26 35.2267 1690.58 38.994 Q1687.95 42.7613 1682.89 44.2197 M1662.39 18.8205 L1662.39 40.2903 L1672.68 40.2903 Q1678.59 40.2903 1681.59 37.5762 Q1684.63 34.8216 1684.63 29.5149 Q1684.63 24.2082 1681.59 21.5346 Q1678.59 18.8205 1672.68 18.8205 L1662.39 18.8205 Z" fill="#000000" fill-rule="nonzero" fill-opacity="1" /><path clip-path="url(#clip640)" d="M1746.61 48.0275 L1746.61 51.6733 L1712.34 51.6733 Q1712.82 59.3701 1716.95 63.421 Q1721.13 67.4314 1728.54 67.4314 Q1732.83 67.4314 1736.84 66.3781 Q1740.9 65.3249 1744.87 63.2184 L1744.87 70.267 Q1740.85 71.9684 1736.64 72.8596 Q1732.43 73.7508 1728.09 73.7508 Q1717.24 73.7508 1710.88 67.4314 Q1704.56 61.1119 1704.56 50.3365 Q1704.56 39.1965 1710.55 32.6746 Q1716.59 26.1121 1726.8 26.1121 Q1735.95 26.1121 1741.26 32.0264 Q1746.61 37.9003 1746.61 48.0275 M1739.15 45.84 Q1739.07 39.7232 1735.71 36.0774 Q1732.39 32.4315 1726.88 32.4315 Q1720.64 32.4315 1716.87 35.9558 Q1713.15 39.4801 1712.58 45.8805 L1739.15 45.84 Z" fill="#000000" fill-rule="nonzero" fill-opacity="1" /><path clip-path="url(#clip640)" d="M1787.76 28.5427 L1787.76 35.5912 Q1784.6 33.9709 1781.2 33.1607 Q1777.8 32.3505 1774.15 32.3505 Q1768.6 32.3505 1765.81 34.0519 Q1763.05 35.7533 1763.05 39.156 Q1763.05 41.7486 1765.04 43.2475 Q1767.02 44.7058 1773.02 46.0426 L1775.57 46.6097 Q1783.51 48.3111 1786.83 51.4303 Q1790.19 54.509 1790.19 60.0587 Q1790.19 66.3781 1785.17 70.0644 Q1780.19 73.7508 1771.44 73.7508 Q1767.79 73.7508 1763.82 73.0216 Q1759.89 72.3329 1755.52 70.9151 L1755.52 63.2184 Q1759.65 65.3654 1763.66 66.4591 Q1767.67 67.5124 1771.6 67.5124 Q1776.87 67.5124 1779.7 65.73 Q1782.54 63.9071 1782.54 60.6258 Q1782.54 57.5877 1780.47 55.9673 Q1778.45 54.3469 1771.52 52.8481 L1768.93 52.2405 Q1762 50.7821 1758.92 47.7845 Q1755.84 44.7463 1755.84 39.4801 Q1755.84 33.0797 1760.38 29.5959 Q1764.92 26.1121 1773.26 26.1121 Q1777.39 26.1121 1781.04 26.7198 Q1784.69 27.3274 1787.76 28.5427 Z" fill="#000000" fill-rule="nonzero" fill-opacity="1" /><path clip-path="url(#clip640)" d="M1809.27 65.7705 L1809.27 89.8329 L1801.78 89.8329 L1801.78 27.2059 L1809.27 27.2059 L1809.27 34.0924 Q1811.62 30.0415 1815.19 28.0971 Q1818.79 26.1121 1823.78 26.1121 Q1832.04 26.1121 1837.19 32.6746 Q1842.37 39.2371 1842.37 49.9314 Q1842.37 60.6258 1837.19 67.1883 Q1832.04 73.7508 1823.78 73.7508 Q1818.79 73.7508 1815.19 71.8063 Q1811.62 69.8214 1809.27 65.7705 M1834.63 49.9314 Q1834.63 41.7081 1831.23 37.0496 Q1827.87 32.3505 1821.95 32.3505 Q1816.04 32.3505 1812.64 37.0496 Q1809.27 41.7081 1809.27 49.9314 Q1809.27 58.1548 1812.64 62.8538 Q1816.04 67.5124 1821.95 67.5124 Q1827.87 67.5124 1831.23 62.8538 Q1834.63 58.1548 1834.63 49.9314 Z" fill="#000000" fill-rule="nonzero" fill-opacity="1" /><path clip-path="url(#clip640)" d="M1872.31 32.4315 Q1866.31 32.4315 1862.83 37.1306 Q1859.34 41.7891 1859.34 49.9314 Q1859.34 58.0738 1862.79 62.7728 Q1866.27 67.4314 1872.31 67.4314 Q1878.26 67.4314 1881.75 62.7323 Q1885.23 58.0333 1885.23 49.9314 Q1885.23 41.8701 1881.75 37.1711 Q1878.26 32.4315 1872.31 32.4315 M1872.31 26.1121 Q1882.03 26.1121 1887.58 32.4315 Q1893.13 38.7509 1893.13 49.9314 Q1893.13 61.0714 1887.58 67.4314 Q1882.03 73.7508 1872.31 73.7508 Q1862.54 73.7508 1856.99 67.4314 Q1851.48 61.0714 1851.48 49.9314 Q1851.48 38.7509 1856.99 32.4315 Q1862.54 26.1121 1872.31 26.1121 Z" fill="#000000" fill-rule="nonzero" fill-opacity="1" /><path clip-path="url(#clip640)" d="M1943.2 45.1919 L1943.2 72.576 L1935.74 72.576 L1935.74 45.4349 Q1935.74 38.994 1933.23 35.7938 Q1930.72 32.5936 1925.7 32.5936 Q1919.66 32.5936 1916.18 36.4419 Q1912.69 40.2903 1912.69 46.9338 L1912.69 72.576 L1905.2 72.576 L1905.2 27.2059 L1912.69 27.2059 L1912.69 34.2544 Q1915.37 30.163 1918.97 28.1376 Q1922.62 26.1121 1927.36 26.1121 Q1935.18 26.1121 1939.19 30.9732 Q1943.2 35.7938 1943.2 45.1919 Z" fill="#000000" fill-rule="nonzero" fill-opacity="1" /><path clip-path="url(#clip640)" d="M1986.99 28.5427 L1986.99 35.5912 Q1983.83 33.9709 1980.43 33.1607 Q1977.02 32.3505 1973.38 32.3505 Q1967.83 32.3505 1965.03 34.0519 Q1962.28 35.7533 1962.28 39.156 Q1962.28 41.7486 1964.26 43.2475 Q1966.25 44.7058 1972.24 46.0426 L1974.79 46.6097 Q1982.73 48.3111 1986.06 51.4303 Q1989.42 54.509 1989.42 60.0587 Q1989.42 66.3781 1984.4 70.0644 Q1979.41 73.7508 1970.66 73.7508 Q1967.02 73.7508 1963.05 73.0216 Q1959.12 72.3329 1954.74 70.9151 L1954.74 63.2184 Q1958.87 65.3654 1962.88 66.4591 Q1966.9 67.5124 1970.82 67.5124 Q1976.09 67.5124 1978.93 65.73 Q1981.76 63.9071 1981.76 60.6258 Q1981.76 57.5877 1979.7 55.9673 Q1977.67 54.3469 1970.74 52.8481 L1968.15 52.2405 Q1961.22 50.7821 1958.15 47.7845 Q1955.07 44.7463 1955.07 39.4801 Q1955.07 33.0797 1959.6 29.5959 Q1964.14 26.1121 1972.49 26.1121 Q1976.62 26.1121 1980.26 26.7198 Q1983.91 27.3274 1986.99 28.5427 Z" fill="#000000" fill-rule="nonzero" fill-opacity="1" /><path clip-path="url(#clip640)" d="M2040.1 48.0275 L2040.1 51.6733 L2005.82 51.6733 Q2006.31 59.3701 2010.44 63.421 Q2014.61 67.4314 2022.03 67.4314 Q2026.32 67.4314 2030.33 66.3781 Q2034.38 65.3249 2038.35 63.2184 L2038.35 70.267 Q2034.34 71.9684 2030.13 72.8596 Q2025.92 73.7508 2021.58 73.7508 Q2010.73 73.7508 2004.37 67.4314 Q1998.05 61.1119 1998.05 50.3365 Q1998.05 39.1965 2004.04 32.6746 Q2010.08 26.1121 2020.29 26.1121 Q2029.44 26.1121 2034.75 32.0264 Q2040.1 37.9003 2040.1 48.0275 M2032.64 45.84 Q2032.56 39.7232 2029.2 36.0774 Q2025.88 32.4315 2020.37 32.4315 Q2014.13 32.4315 2010.36 35.9558 Q2006.63 39.4801 2006.07 45.8805 L2032.64 45.84 Z" fill="#000000" fill-rule="nonzero" fill-opacity="1" /><path clip-path="url(#clip640)" d="M2070.64 12.096 L2121.8 12.096 L2121.8 18.9825 L2100.33 18.9825 L2100.33 72.576 L2092.11 72.576 L2092.11 18.9825 L2070.64 18.9825 L2070.64 12.096 Z" fill="#000000" fill-rule="nonzero" fill-opacity="1" /><path clip-path="url(#clip640)" d="M2126.82 27.2059 L2134.28 27.2059 L2134.28 72.576 L2126.82 72.576 L2126.82 27.2059 M2126.82 9.54393 L2134.28 9.54393 L2134.28 18.9825 L2126.82 18.9825 L2126.82 9.54393 Z" fill="#000000" fill-rule="nonzero" fill-opacity="1" /><path clip-path="url(#clip640)" d="M2185.2 35.9153 Q2187.99 30.8922 2191.88 28.5022 Q2195.77 26.1121 2201.04 26.1121 Q2208.13 26.1121 2211.97 31.0947 Q2215.82 36.0368 2215.82 45.1919 L2215.82 72.576 L2208.33 72.576 L2208.33 45.4349 Q2208.33 38.913 2206.02 35.7533 Q2203.71 32.5936 2198.97 32.5936 Q2193.18 32.5936 2189.82 36.4419 Q2186.45 40.2903 2186.45 46.9338 L2186.45 72.576 L2178.96 72.576 L2178.96 45.4349 Q2178.96 38.8725 2176.65 35.7533 Q2174.34 32.5936 2169.52 32.5936 Q2163.81 32.5936 2160.45 36.4824 Q2157.09 40.3308 2157.09 46.9338 L2157.09 72.576 L2149.59 72.576 L2149.59 27.2059 L2157.09 27.2059 L2157.09 34.2544 Q2159.64 30.082 2163.2 28.0971 Q2166.77 26.1121 2171.67 26.1121 Q2176.61 26.1121 2180.05 28.6237 Q2183.54 31.1352 2185.2 35.9153 Z" fill="#000000" fill-rule="nonzero" fill-opacity="1" /><path clip-path="url(#clip640)" d="M2230.69 27.2059 L2238.14 27.2059 L2238.14 72.576 L2230.69 72.576 L2230.69 27.2059 M2230.69 9.54393 L2238.14 9.54393 L2238.14 18.9825 L2230.69 18.9825 L2230.69 9.54393 Z" fill="#000000" fill-rule="nonzero" fill-opacity="1" /><path clip-path="url(#clip640)" d="M2291.45 45.1919 L2291.45 72.576 L2284 72.576 L2284 45.4349 Q2284 38.994 2281.49 35.7938 Q2278.98 32.5936 2273.95 32.5936 Q2267.92 32.5936 2264.43 36.4419 Q2260.95 40.2903 2260.95 46.9338 L2260.95 72.576 L2253.46 72.576 L2253.46 27.2059 L2260.95 27.2059 L2260.95 34.2544 Q2263.62 30.163 2267.23 28.1376 Q2270.88 26.1121 2275.61 26.1121 Q2283.43 26.1121 2287.44 30.9732 Q2291.45 35.7938 2291.45 45.1919 Z" fill="#000000" fill-rule="nonzero" fill-opacity="1" /><path clip-path="url(#clip640)" d="M2336.18 49.3643 Q2336.18 41.2625 2332.81 36.8065 Q2329.49 32.3505 2323.46 32.3505 Q2317.46 32.3505 2314.1 36.8065 Q2310.78 41.2625 2310.78 49.3643 Q2310.78 57.4256 2314.1 61.8816 Q2317.46 66.3376 2323.46 66.3376 Q2329.49 66.3376 2332.81 61.8816 Q2336.18 57.4256 2336.18 49.3643 M2343.63 66.9452 Q2343.63 78.5308 2338.48 84.1616 Q2333.34 89.8329 2322.73 89.8329 Q2318.8 89.8329 2315.31 89.2252 Q2311.83 88.6581 2308.55 87.4428 L2308.55 80.1917 Q2311.83 81.9741 2315.03 82.8248 Q2318.23 83.6755 2321.55 83.6755 Q2328.88 83.6755 2332.53 79.8271 Q2336.18 76.0193 2336.18 68.282 L2336.18 64.5957 Q2333.87 68.6061 2330.26 70.5911 Q2326.66 72.576 2321.63 72.576 Q2313.29 72.576 2308.18 66.2161 Q2303.08 59.8562 2303.08 49.3643 Q2303.08 38.832 2308.18 32.472 Q2313.29 26.1121 2321.63 26.1121 Q2326.66 26.1121 2330.26 28.0971 Q2333.87 30.082 2336.18 34.0924 L2336.18 27.2059 L2343.63 27.2059 L2343.63 66.9452 Z" fill="#000000" fill-rule="nonzero" fill-opacity="1" /><polyline clip-path="url(#clip641)" style="stroke:#009af9; stroke-linecap:round; stroke-linejoin:round; stroke-width:8; stroke-opacity:1; fill:none" points="585.651,173.254 818.43,1688.65 1051.21,173.254 1283.99,173.254 1583.27,173.254 2580.9,173.254 "/>
<circle clip-path="url(#clip641)" cx="585.651" cy="173.254" r="14.4" fill="#009af9" fill-rule="evenodd" fill-opacity="1" stroke="#000000" stroke-opacity="1" stroke-width="3.84"/>
<circle clip-path="url(#clip641)" cx="818.43" cy="1688.65" r="14.4" fill="#009af9" fill-rule="evenodd" fill-opacity="1" stroke="#000000" stroke-opacity="1" stroke-width="3.84"/>
<circle clip-path="url(#clip641)" cx="1051.21" cy="173.254" r="14.4" fill="#009af9" fill-rule="evenodd" fill-opacity="1" stroke="#000000" stroke-opacity="1" stroke-width="3.84"/>
<circle clip-path="url(#clip641)" cx="1283.99" cy="173.254" r="14.4" fill="#009af9" fill-rule="evenodd" fill-opacity="1" stroke="#000000" stroke-opacity="1" stroke-width="3.84"/>
<circle clip-path="url(#clip641)" cx="1583.27" cy="173.254" r="14.4" fill="#009af9" fill-rule="evenodd" fill-opacity="1" stroke="#000000" stroke-opacity="1" stroke-width="3.84"/>
<circle clip-path="url(#clip641)" cx="2580.9" cy="173.254" r="14.4" fill="#009af9" fill-rule="evenodd" fill-opacity="1" stroke="#000000" stroke-opacity="1" stroke-width="3.84"/>
<path clip-path="url(#clip640)" d="M2098.95 1680.57 L2570.26 1680.57 L2570.26 1576.89 L2098.95 1576.89  Z" fill="#ffffff" fill-rule="evenodd" fill-opacity="1"/>
<polyline clip-path="url(#clip640)" style="stroke:#000000; stroke-linecap:round; stroke-linejoin:round; stroke-width:4; stroke-opacity:1; fill:none" points="2098.95,1680.57 2570.26,1680.57 2570.26,1576.89 2098.95,1576.89 2098.95,1680.57 "/>
<polyline clip-path="url(#clip640)" style="stroke:#009af9; stroke-linecap:round; stroke-linejoin:round; stroke-width:8; stroke-opacity:1; fill:none" points="2122.45,1628.73 2263.44,1628.73 "/>
<circle clip-path="url(#clip640)" cx="2192.95" cy="1628.73" r="19.583" fill="#009af9" fill-rule="evenodd" fill-opacity="1" stroke="#000000" stroke-opacity="1" stroke-width="5.46133"/>
<path clip-path="url(#clip640)" d="M2302.78 1616.06 L2296.43 1633.26 L2309.14 1633.26 L2302.78 1616.06 M2300.14 1611.45 L2305.44 1611.45 L2318.61 1646.01 L2313.75 1646.01 L2310.6 1637.15 L2295.02 1637.15 L2291.87 1646.01 L2286.94 1646.01 L2300.14 1611.45 Z" fill="#000000" fill-rule="nonzero" fill-opacity="1" /><path clip-path="url(#clip640)" d="M2326.85 1612.73 L2326.85 1620.09 L2335.62 1620.09 L2335.62 1623.4 L2326.85 1623.4 L2326.85 1637.47 Q2326.85 1640.64 2327.71 1641.55 Q2328.59 1642.45 2331.25 1642.45 L2335.62 1642.45 L2335.62 1646.01 L2331.25 1646.01 Q2326.32 1646.01 2324.44 1644.18 Q2322.57 1642.33 2322.57 1637.47 L2322.57 1623.4 L2319.44 1623.4 L2319.44 1620.09 L2322.57 1620.09 L2322.57 1612.73 L2326.85 1612.73 Z" fill="#000000" fill-rule="nonzero" fill-opacity="1" /><path clip-path="url(#clip640)" d="M2345.44 1612.73 L2345.44 1620.09 L2354.21 1620.09 L2354.21 1623.4 L2345.44 1623.4 L2345.44 1637.47 Q2345.44 1640.64 2346.3 1641.55 Q2347.18 1642.45 2349.84 1642.45 L2354.21 1642.45 L2354.21 1646.01 L2349.84 1646.01 Q2344.91 1646.01 2343.03 1644.18 Q2341.16 1642.33 2341.16 1637.47 L2341.16 1623.4 L2338.03 1623.4 L2338.03 1620.09 L2341.16 1620.09 L2341.16 1612.73 L2345.44 1612.73 Z" fill="#000000" fill-rule="nonzero" fill-opacity="1" /><path clip-path="url(#clip640)" d="M2371.6 1632.98 Q2366.43 1632.98 2364.44 1634.16 Q2362.45 1635.34 2362.45 1638.19 Q2362.45 1640.46 2363.93 1641.8 Q2365.44 1643.12 2368.01 1643.12 Q2371.55 1643.12 2373.68 1640.62 Q2375.83 1638.1 2375.83 1633.93 L2375.83 1632.98 L2371.6 1632.98 M2380.09 1631.22 L2380.09 1646.01 L2375.83 1646.01 L2375.83 1642.08 Q2374.37 1644.44 2372.2 1645.57 Q2370.02 1646.68 2366.87 1646.68 Q2362.89 1646.68 2360.53 1644.46 Q2358.19 1642.22 2358.19 1638.47 Q2358.19 1634.09 2361.11 1631.87 Q2364.05 1629.65 2369.86 1629.65 L2375.83 1629.65 L2375.83 1629.23 Q2375.83 1626.29 2373.89 1624.69 Q2371.97 1623.07 2368.47 1623.07 Q2366.25 1623.07 2364.14 1623.61 Q2362.04 1624.14 2360.09 1625.2 L2360.09 1621.27 Q2362.43 1620.36 2364.63 1619.93 Q2366.83 1619.46 2368.91 1619.46 Q2374.54 1619.46 2377.31 1622.38 Q2380.09 1625.3 2380.09 1631.22 Z" fill="#000000" fill-rule="nonzero" fill-opacity="1" /><path clip-path="url(#clip640)" d="M2407.52 1621.08 L2407.52 1625.06 Q2405.72 1624.07 2403.89 1623.58 Q2402.08 1623.07 2400.23 1623.07 Q2396.09 1623.07 2393.8 1625.71 Q2391.5 1628.33 2391.5 1633.07 Q2391.5 1637.82 2393.8 1640.46 Q2396.09 1643.07 2400.23 1643.07 Q2402.08 1643.07 2403.89 1642.59 Q2405.72 1642.08 2407.52 1641.08 L2407.52 1645.02 Q2405.74 1645.85 2403.82 1646.27 Q2401.92 1646.68 2399.77 1646.68 Q2393.91 1646.68 2390.46 1643 Q2387.01 1639.32 2387.01 1633.07 Q2387.01 1626.73 2390.49 1623.1 Q2393.98 1619.46 2400.05 1619.46 Q2402.01 1619.46 2403.89 1619.88 Q2405.76 1620.27 2407.52 1621.08 Z" fill="#000000" fill-rule="nonzero" fill-opacity="1" /><path clip-path="url(#clip640)" d="M2414.77 1609.99 L2419.05 1609.99 L2419.05 1631.27 L2431.76 1620.09 L2437.2 1620.09 L2423.45 1632.22 L2437.78 1646.01 L2432.22 1646.01 L2419.05 1633.35 L2419.05 1646.01 L2414.77 1646.01 L2414.77 1609.99 Z" fill="#000000" fill-rule="nonzero" fill-opacity="1" /><path clip-path="url(#clip640)" d="M2472.48 1624.07 Q2471.76 1623.65 2470.9 1623.47 Q2470.07 1623.26 2469.05 1623.26 Q2465.44 1623.26 2463.49 1625.62 Q2461.57 1627.96 2461.57 1632.36 L2461.57 1646.01 L2457.29 1646.01 L2457.29 1620.09 L2461.57 1620.09 L2461.57 1624.11 Q2462.92 1621.75 2465.07 1620.62 Q2467.22 1619.46 2470.3 1619.46 Q2470.74 1619.46 2471.27 1619.53 Q2471.8 1619.58 2472.45 1619.69 L2472.48 1624.07 Z" fill="#000000" fill-rule="nonzero" fill-opacity="1" /><path clip-path="url(#clip640)" d="M2488.73 1632.98 Q2483.56 1632.98 2481.57 1634.16 Q2479.58 1635.34 2479.58 1638.19 Q2479.58 1640.46 2481.06 1641.8 Q2482.57 1643.12 2485.14 1643.12 Q2488.68 1643.12 2490.81 1640.62 Q2492.96 1638.1 2492.96 1633.93 L2492.96 1632.98 L2488.73 1632.98 M2497.22 1631.22 L2497.22 1646.01 L2492.96 1646.01 L2492.96 1642.08 Q2491.5 1644.44 2489.33 1645.57 Q2487.15 1646.68 2484 1646.68 Q2480.02 1646.68 2477.66 1644.46 Q2475.32 1642.22 2475.32 1638.47 Q2475.32 1634.09 2478.24 1631.87 Q2481.18 1629.65 2486.99 1629.65 L2492.96 1629.65 L2492.96 1629.23 Q2492.96 1626.29 2491.02 1624.69 Q2489.1 1623.07 2485.6 1623.07 Q2483.38 1623.07 2481.27 1623.61 Q2479.17 1624.14 2477.22 1625.2 L2477.22 1621.27 Q2479.56 1620.36 2481.76 1619.93 Q2483.96 1619.46 2486.04 1619.46 Q2491.67 1619.46 2494.44 1622.38 Q2497.22 1625.3 2497.22 1631.22 Z" fill="#000000" fill-rule="nonzero" fill-opacity="1" /><path clip-path="url(#clip640)" d="M2510.21 1612.73 L2510.21 1620.09 L2518.98 1620.09 L2518.98 1623.4 L2510.21 1623.4 L2510.21 1637.47 Q2510.21 1640.64 2511.06 1641.55 Q2511.94 1642.45 2514.6 1642.45 L2518.98 1642.45 L2518.98 1646.01 L2514.6 1646.01 Q2509.67 1646.01 2507.8 1644.18 Q2505.92 1642.33 2505.92 1637.47 L2505.92 1623.4 L2502.8 1623.4 L2502.8 1620.09 L2505.92 1620.09 L2505.92 1612.73 L2510.21 1612.73 Z" fill="#000000" fill-rule="nonzero" fill-opacity="1" /><path clip-path="url(#clip640)" d="M2546.76 1631.99 L2546.76 1634.07 L2527.17 1634.07 Q2527.45 1638.47 2529.81 1640.78 Q2532.2 1643.07 2536.43 1643.07 Q2538.89 1643.07 2541.18 1642.47 Q2543.49 1641.87 2545.76 1640.67 L2545.76 1644.69 Q2543.47 1645.67 2541.06 1646.17 Q2538.66 1646.68 2536.18 1646.68 Q2529.98 1646.68 2526.34 1643.07 Q2522.73 1639.46 2522.73 1633.3 Q2522.73 1626.94 2526.16 1623.21 Q2529.6 1619.46 2535.44 1619.46 Q2540.67 1619.46 2543.7 1622.84 Q2546.76 1626.2 2546.76 1631.99 M2542.5 1630.74 Q2542.45 1627.24 2540.53 1625.16 Q2538.63 1623.07 2535.48 1623.07 Q2531.92 1623.07 2529.77 1625.09 Q2527.64 1627.1 2527.31 1630.76 L2542.5 1630.74 Z" fill="#000000" fill-rule="nonzero" fill-opacity="1" /></svg>
