<?xml version="1.0" encoding="utf-8"?>
<svg xmlns="http://www.w3.org/2000/svg" xmlns:xlink="http://www.w3.org/1999/xlink" width="672" height="480" viewBox="0 0 2688 1920">
<defs>
  <clipPath id="clip100">
    <rect x="0" y="0" width="2688" height="1920"/>
  </clipPath>
</defs>
<path clip-path="url(#clip100)" d="M0 1920 L2688 1920 L2688 -4.26326e-14 L0 -4.26326e-14  Z" fill="#ffffff" fill-rule="evenodd" fill-opacity="1"/>
<defs>
  <clipPath id="clip101">
    <rect x="271" y="127" width="2370" height="1607"/>
  </clipPath>
</defs>
<path clip-path="url(#clip100)" d="M271.719 1734.12 L2640.76 1734.12 L2640.76 127.792 L271.719 127.792  Z" fill="#ffffff" fill-rule="evenodd" fill-opacity="1"/>
<polyline clip-path="url(#clip101)" style="stroke:#000000; stroke-linecap:round; stroke-linejoin:round; stroke-width:2; stroke-opacity:0.1; fill:none" points="338.767,1734.12 338.767,127.792 "/>
<polyline clip-path="url(#clip101)" style="stroke:#000000; stroke-linecap:round; stroke-linejoin:round; stroke-width:2; stroke-opacity:0.1; fill:none" points="897.502,1734.12 897.502,127.792 "/>
<polyline clip-path="url(#clip101)" style="stroke:#000000; stroke-linecap:round; stroke-linejoin:round; stroke-width:2; stroke-opacity:0.1; fill:none" points="1456.24,1734.12 1456.24,127.792 "/>
<polyline clip-path="url(#clip101)" style="stroke:#000000; stroke-linecap:round; stroke-linejoin:round; stroke-width:2; stroke-opacity:0.1; fill:none" points="2014.97,1734.12 2014.97,127.792 "/>
<polyline clip-path="url(#clip101)" style="stroke:#000000; stroke-linecap:round; stroke-linejoin:round; stroke-width:2; stroke-opacity:0.1; fill:none" points="2573.71,1734.12 2573.71,127.792 "/>
<polyline clip-path="url(#clip101)" style="stroke:#000000; stroke-linecap:round; stroke-linejoin:round; stroke-width:2; stroke-opacity:0.1; fill:none" points="271.719,1688.65 2640.76,1688.65 "/>
<polyline clip-path="url(#clip101)" style="stroke:#000000; stroke-linecap:round; stroke-linejoin:round; stroke-width:2; stroke-opacity:0.1; fill:none" points="271.719,1384.6 2640.76,1384.6 "/>
<polyline clip-path="url(#clip101)" style="stroke:#000000; stroke-linecap:round; stroke-linejoin:round; stroke-width:2; stroke-opacity:0.1; fill:none" points="271.719,1080.55 2640.76,1080.55 "/>
<polyline clip-path="url(#clip101)" style="stroke:#000000; stroke-linecap:round; stroke-linejoin:round; stroke-width:2; stroke-opacity:0.1; fill:none" points="271.719,776.496 2640.76,776.496 "/>
<polyline clip-path="url(#clip101)" style="stroke:#000000; stroke-linecap:round; stroke-linejoin:round; stroke-width:2; stroke-opacity:0.1; fill:none" points="271.719,472.442 2640.76,472.442 "/>
<polyline clip-path="url(#clip101)" style="stroke:#000000; stroke-linecap:round; stroke-linejoin:round; stroke-width:2; stroke-opacity:0.1; fill:none" points="271.719,168.389 2640.76,168.389 "/>
<polyline clip-path="url(#clip100)" style="stroke:#000000; stroke-linecap:round; stroke-linejoin:round; stroke-width:4; stroke-opacity:1; fill:none" points="271.719,1734.12 2640.76,1734.12 "/>
<polyline clip-path="url(#clip100)" style="stroke:#000000; stroke-linecap:round; stroke-linejoin:round; stroke-width:4; stroke-opacity:1; fill:none" points="338.767,1734.12 338.767,1715.22 "/>
<polyline clip-path="url(#clip100)" style="stroke:#000000; stroke-linecap:round; stroke-linejoin:round; stroke-width:4; stroke-opacity:1; fill:none" points="897.502,1734.12 897.502,1715.22 "/>
<polyline clip-path="url(#clip100)" style="stroke:#000000; stroke-linecap:round; stroke-linejoin:round; stroke-width:4; stroke-opacity:1; fill:none" points="1456.24,1734.12 1456.24,1715.22 "/>
<polyline clip-path="url(#clip100)" style="stroke:#000000; stroke-linecap:round; stroke-linejoin:round; stroke-width:4; stroke-opacity:1; fill:none" points="2014.97,1734.12 2014.97,1715.22 "/>
<polyline clip-path="url(#clip100)" style="stroke:#000000; stroke-linecap:round; stroke-linejoin:round; stroke-width:4; stroke-opacity:1; fill:none" points="2573.71,1734.12 2573.71,1715.22 "/>
<path clip-path="url(#clip100)" d="M338.767 1767.34 Q335.156 1767.34 333.327 1770.9 Q331.522 1774.45 331.522 1781.58 Q331.522 1788.68 333.327 1792.25 Q335.156 1795.79 338.767 1795.79 Q342.401 1795.79 344.207 1792.25 Q346.036 1788.68 346.036 1781.58 Q346.036 1774.45 344.207 1770.9 Q342.401 1767.34 338.767 1767.34 M338.767 1763.64 Q344.577 1763.64 347.633 1768.24 Q350.712 1772.83 350.712 1781.58 Q350.712 1790.3 347.633 1794.91 Q344.577 1799.49 338.767 1799.49 Q332.957 1799.49 329.878 1794.91 Q326.823 1790.3 326.823 1781.58 Q326.823 1772.83 329.878 1768.24 Q332.957 1763.64 338.767 1763.64 Z" fill="#000000" fill-rule="nonzero" fill-opacity="1" /><path clip-path="url(#clip100)" d="M872.202 1764.26 L890.558 1764.26 L890.558 1768.2 L876.484 1768.2 L876.484 1776.67 Q877.502 1776.32 878.521 1776.16 Q879.539 1775.97 880.558 1775.97 Q886.345 1775.97 889.725 1779.15 Q893.104 1782.32 893.104 1787.73 Q893.104 1793.31 889.632 1796.41 Q886.16 1799.49 879.84 1799.49 Q877.664 1799.49 875.396 1799.12 Q873.151 1798.75 870.743 1798.01 L870.743 1793.31 Q872.827 1794.45 875.049 1795 Q877.271 1795.56 879.748 1795.56 Q883.752 1795.56 886.09 1793.45 Q888.428 1791.34 888.428 1787.73 Q888.428 1784.12 886.09 1782.02 Q883.752 1779.91 879.748 1779.91 Q877.873 1779.91 875.998 1780.33 Q874.146 1780.74 872.202 1781.62 L872.202 1764.26 Z" fill="#000000" fill-rule="nonzero" fill-opacity="1" /><path clip-path="url(#clip100)" d="M912.317 1767.34 Q908.706 1767.34 906.877 1770.9 Q905.072 1774.45 905.072 1781.58 Q905.072 1788.68 906.877 1792.25 Q908.706 1795.79 912.317 1795.79 Q915.951 1795.79 917.757 1792.25 Q919.586 1788.68 919.586 1781.58 Q919.586 1774.45 917.757 1770.9 Q915.951 1767.34 912.317 1767.34 M912.317 1763.64 Q918.127 1763.64 921.183 1768.24 Q924.261 1772.83 924.261 1781.58 Q924.261 1790.3 921.183 1794.91 Q918.127 1799.49 912.317 1799.49 Q906.507 1799.49 903.428 1794.91 Q900.373 1790.3 900.373 1781.58 Q900.373 1772.83 903.428 1768.24 Q906.507 1763.64 912.317 1763.64 Z" fill="#000000" fill-rule="nonzero" fill-opacity="1" /><path clip-path="url(#clip100)" d="M1415.84 1794.89 L1423.48 1794.89 L1423.48 1768.52 L1415.17 1770.19 L1415.17 1765.93 L1423.44 1764.26 L1428.11 1764.26 L1428.11 1794.89 L1435.75 1794.89 L1435.75 1798.82 L1415.84 1798.82 L1415.84 1794.89 Z" fill="#000000" fill-rule="nonzero" fill-opacity="1" /><path clip-path="url(#clip100)" d="M1455.2 1767.34 Q1451.58 1767.34 1449.76 1770.9 Q1447.95 1774.45 1447.95 1781.58 Q1447.95 1788.68 1449.76 1792.25 Q1451.58 1795.79 1455.2 1795.79 Q1458.83 1795.79 1460.64 1792.25 Q1462.46 1788.68 1462.46 1781.58 Q1462.46 1774.45 1460.64 1770.9 Q1458.83 1767.34 1455.2 1767.34 M1455.2 1763.64 Q1461.01 1763.64 1464.06 1768.24 Q1467.14 1772.83 1467.14 1781.58 Q1467.14 1790.3 1464.06 1794.91 Q1461.01 1799.49 1455.2 1799.49 Q1449.39 1799.49 1446.31 1794.91 Q1443.25 1790.3 1443.25 1781.58 Q1443.25 1772.83 1446.31 1768.24 Q1449.39 1763.64 1455.2 1763.64 Z" fill="#000000" fill-rule="nonzero" fill-opacity="1" /><path clip-path="url(#clip100)" d="M1485.36 1767.34 Q1481.75 1767.34 1479.92 1770.9 Q1478.11 1774.45 1478.11 1781.58 Q1478.11 1788.68 1479.92 1792.25 Q1481.75 1795.79 1485.36 1795.79 Q1488.99 1795.79 1490.8 1792.25 Q1492.63 1788.68 1492.63 1781.58 Q1492.63 1774.45 1490.8 1770.9 Q1488.99 1767.34 1485.36 1767.34 M1485.36 1763.64 Q1491.17 1763.64 1494.22 1768.24 Q1497.3 1772.83 1497.3 1781.58 Q1497.3 1790.3 1494.22 1794.91 Q1491.17 1799.49 1485.36 1799.49 Q1479.55 1799.49 1476.47 1794.91 Q1473.41 1790.3 1473.41 1781.58 Q1473.41 1772.83 1476.47 1768.24 Q1479.55 1763.64 1485.36 1763.64 Z" fill="#000000" fill-rule="nonzero" fill-opacity="1" /><path clip-path="url(#clip100)" d="M1974.58 1794.89 L1982.22 1794.89 L1982.22 1768.52 L1973.91 1770.19 L1973.91 1765.93 L1982.17 1764.26 L1986.85 1764.26 L1986.85 1794.89 L1994.49 1794.89 L1994.49 1798.82 L1974.58 1798.82 L1974.58 1794.89 Z" fill="#000000" fill-rule="nonzero" fill-opacity="1" /><path clip-path="url(#clip100)" d="M2003.98 1764.26 L2022.33 1764.26 L2022.33 1768.2 L2008.26 1768.2 L2008.26 1776.67 Q2009.28 1776.32 2010.3 1776.16 Q2011.32 1775.97 2012.33 1775.97 Q2018.12 1775.97 2021.5 1779.15 Q2024.88 1782.32 2024.88 1787.73 Q2024.88 1793.31 2021.41 1796.41 Q2017.94 1799.49 2011.62 1799.49 Q2009.44 1799.49 2007.17 1799.12 Q2004.93 1798.75 2002.52 1798.01 L2002.52 1793.31 Q2004.6 1794.45 2006.82 1795 Q2009.05 1795.56 2011.52 1795.56 Q2015.53 1795.56 2017.87 1793.45 Q2020.2 1791.34 2020.2 1787.73 Q2020.2 1784.12 2017.87 1782.02 Q2015.53 1779.91 2011.52 1779.91 Q2009.65 1779.91 2007.77 1780.33 Q2005.92 1780.74 2003.98 1781.62 L2003.98 1764.26 Z" fill="#000000" fill-rule="nonzero" fill-opacity="1" /><path clip-path="url(#clip100)" d="M2044.09 1767.34 Q2040.48 1767.34 2038.65 1770.9 Q2036.85 1774.45 2036.85 1781.58 Q2036.85 1788.68 2038.65 1792.25 Q2040.48 1795.79 2044.09 1795.79 Q2047.73 1795.79 2049.53 1792.25 Q2051.36 1788.68 2051.36 1781.58 Q2051.36 1774.45 2049.53 1770.9 Q2047.73 1767.34 2044.09 1767.34 M2044.09 1763.64 Q2049.9 1763.64 2052.96 1768.24 Q2056.04 1772.83 2056.04 1781.58 Q2056.04 1790.3 2052.96 1794.91 Q2049.9 1799.49 2044.09 1799.49 Q2038.28 1799.49 2035.2 1794.91 Q2032.15 1790.3 2032.15 1781.58 Q2032.15 1772.83 2035.2 1768.24 Q2038.28 1763.64 2044.09 1763.64 Z" fill="#000000" fill-rule="nonzero" fill-opacity="1" /><path clip-path="url(#clip100)" d="M2537.4 1794.89 L2553.72 1794.89 L2553.72 1798.82 L2531.78 1798.82 L2531.78 1794.89 Q2534.44 1792.13 2539.02 1787.5 Q2543.63 1782.85 2544.81 1781.51 Q2547.05 1778.98 2547.93 1777.25 Q2548.84 1775.49 2548.84 1773.8 Q2548.84 1771.04 2546.89 1769.31 Q2544.97 1767.57 2541.87 1767.57 Q2539.67 1767.57 2537.21 1768.34 Q2534.78 1769.1 2532.01 1770.65 L2532.01 1765.93 Q2534.83 1764.79 2537.28 1764.21 Q2539.74 1763.64 2541.77 1763.64 Q2547.15 1763.64 2550.34 1766.32 Q2553.53 1769.01 2553.53 1773.5 Q2553.53 1775.63 2552.72 1777.55 Q2551.94 1779.45 2549.83 1782.04 Q2549.25 1782.71 2546.15 1785.93 Q2543.05 1789.12 2537.4 1794.89 Z" fill="#000000" fill-rule="nonzero" fill-opacity="1" /><path clip-path="url(#clip100)" d="M2573.53 1767.34 Q2569.92 1767.34 2568.09 1770.9 Q2566.29 1774.45 2566.29 1781.58 Q2566.29 1788.68 2568.09 1792.25 Q2569.92 1795.79 2573.53 1795.79 Q2577.17 1795.79 2578.97 1792.25 Q2580.8 1788.68 2580.8 1781.58 Q2580.8 1774.45 2578.97 1770.9 Q2577.17 1767.34 2573.53 1767.34 M2573.53 1763.64 Q2579.34 1763.64 2582.4 1768.24 Q2585.48 1772.83 2585.48 1781.58 Q2585.48 1790.3 2582.4 1794.91 Q2579.34 1799.49 2573.53 1799.49 Q2567.72 1799.49 2564.65 1794.91 Q2561.59 1790.3 2561.59 1781.58 Q2561.59 1772.83 2564.65 1768.24 Q2567.72 1763.64 2573.53 1763.64 Z" fill="#000000" fill-rule="nonzero" fill-opacity="1" /><path clip-path="url(#clip100)" d="M2603.7 1767.34 Q2600.08 1767.34 2598.26 1770.9 Q2596.45 1774.45 2596.45 1781.58 Q2596.45 1788.68 2598.26 1792.25 Q2600.08 1795.79 2603.7 1795.79 Q2607.33 1795.79 2609.14 1792.25 Q2610.96 1788.68 2610.96 1781.58 Q2610.96 1774.45 2609.14 1770.9 Q2607.33 1767.34 2603.7 1767.34 M2603.7 1763.64 Q2609.51 1763.64 2612.56 1768.24 Q2615.64 1772.83 2615.64 1781.58 Q2615.64 1790.3 2612.56 1794.91 Q2609.51 1799.49 2603.7 1799.49 Q2597.89 1799.49 2594.81 1794.91 Q2591.75 1790.3 2591.75 1781.58 Q2591.75 1772.83 2594.81 1768.24 Q2597.89 1763.64 2603.7 1763.64 Z" fill="#000000" fill-rule="nonzero" fill-opacity="1" /><path clip-path="url(#clip100)" d="M1402.48 1841.06 L1402.48 1878.02 L1410.25 1878.02 Q1420.08 1878.02 1424.63 1873.56 Q1429.22 1869.11 1429.22 1859.49 Q1429.22 1849.94 1424.63 1845.52 Q1420.08 1841.06 1410.25 1841.06 L1402.48 1841.06 M1396.05 1835.78 L1409.26 1835.78 Q1423.07 1835.78 1429.53 1841.54 Q1435.99 1847.27 1435.99 1859.49 Q1435.99 1871.78 1429.5 1877.54 Q1423.01 1883.3 1409.26 1883.3 L1396.05 1883.3 L1396.05 1835.78 Z" fill="#000000" fill-rule="nonzero" fill-opacity="1" /><path clip-path="url(#clip100)" d="M1462.19 1865.38 Q1455.09 1865.38 1452.35 1867 Q1449.62 1868.63 1449.62 1872.54 Q1449.62 1875.66 1451.65 1877.51 Q1453.72 1879.32 1457.26 1879.32 Q1462.13 1879.32 1465.05 1875.88 Q1468.01 1872.42 1468.01 1866.69 L1468.01 1865.38 L1462.19 1865.38 M1473.87 1862.96 L1473.87 1883.3 L1468.01 1883.3 L1468.01 1877.89 Q1466.01 1881.14 1463.02 1882.7 Q1460.03 1884.22 1455.7 1884.22 Q1450.22 1884.22 1446.98 1881.17 Q1443.76 1878.08 1443.76 1872.92 Q1443.76 1866.91 1447.77 1863.85 Q1451.81 1860.8 1459.8 1860.8 L1468.01 1860.8 L1468.01 1860.23 Q1468.01 1856.18 1465.34 1853.99 Q1462.7 1851.76 1457.89 1851.76 Q1454.84 1851.76 1451.94 1852.49 Q1449.04 1853.22 1446.37 1854.69 L1446.37 1849.28 Q1449.59 1848.03 1452.61 1847.43 Q1455.63 1846.79 1458.5 1846.79 Q1466.23 1846.79 1470.05 1850.8 Q1473.87 1854.81 1473.87 1862.96 Z" fill="#000000" fill-rule="nonzero" fill-opacity="1" /><path clip-path="url(#clip100)" d="M1500.77 1886.61 Q1498.28 1892.98 1495.93 1894.92 Q1493.57 1896.86 1489.63 1896.86 L1484.95 1896.86 L1484.95 1891.96 L1488.38 1891.96 Q1490.8 1891.96 1492.14 1890.81 Q1493.48 1889.67 1495.1 1885.4 L1496.15 1882.73 L1481.73 1847.65 L1487.94 1847.65 L1499.08 1875.53 L1510.22 1847.65 L1516.43 1847.65 L1500.77 1886.61 Z" fill="#000000" fill-rule="nonzero" fill-opacity="1" /><polyline clip-path="url(#clip100)" style="stroke:#000000; stroke-linecap:round; stroke-linejoin:round; stroke-width:4; stroke-opacity:1; fill:none" points="271.719,1734.12 271.719,127.792 "/>
<polyline clip-path="url(#clip100)" style="stroke:#000000; stroke-linecap:round; stroke-linejoin:round; stroke-width:4; stroke-opacity:1; fill:none" points="271.719,1688.65 290.617,1688.65 "/>
<polyline clip-path="url(#clip100)" style="stroke:#000000; stroke-linecap:round; stroke-linejoin:round; stroke-width:4; stroke-opacity:1; fill:none" points="271.719,1384.6 290.617,1384.6 "/>
<polyline clip-path="url(#clip100)" style="stroke:#000000; stroke-linecap:round; stroke-linejoin:round; stroke-width:4; stroke-opacity:1; fill:none" points="271.719,1080.55 290.617,1080.55 "/>
<polyline clip-path="url(#clip100)" style="stroke:#000000; stroke-linecap:round; stroke-linejoin:round; stroke-width:4; stroke-opacity:1; fill:none" points="271.719,776.496 290.617,776.496 "/>
<polyline clip-path="url(#clip100)" style="stroke:#000000; stroke-linecap:round; stroke-linejoin:round; stroke-width:4; stroke-opacity:1; fill:none" points="271.719,472.442 290.617,472.442 "/>
<polyline clip-path="url(#clip100)" style="stroke:#000000; stroke-linecap:round; stroke-linejoin:round; stroke-width:4; stroke-opacity:1; fill:none" points="271.719,168.389 290.617,168.389 "/>
<path clip-path="url(#clip100)" d="M219.455 1674.45 Q215.844 1674.45 214.015 1678.02 Q212.209 1681.56 212.209 1688.69 Q212.209 1695.8 214.015 1699.36 Q215.844 1702.9 219.455 1702.9 Q223.089 1702.9 224.894 1699.36 Q226.723 1695.8 226.723 1688.69 Q226.723 1681.56 224.894 1678.02 Q223.089 1674.45 219.455 1674.45 M219.455 1670.75 Q225.265 1670.75 228.32 1675.36 Q231.399 1679.94 231.399 1688.69 Q231.399 1697.42 228.32 1702.02 Q225.265 1706.61 219.455 1706.61 Q213.644 1706.61 210.566 1702.02 Q207.51 1697.42 207.51 1688.69 Q207.51 1679.94 210.566 1675.36 Q213.644 1670.75 219.455 1670.75 Z" fill="#000000" fill-rule="nonzero" fill-opacity="1" /><path clip-path="url(#clip100)" d="M119.779 1397.95 L127.418 1397.95 L127.418 1371.58 L119.108 1373.25 L119.108 1368.99 L127.372 1367.32 L132.048 1367.32 L132.048 1397.95 L139.687 1397.95 L139.687 1401.88 L119.779 1401.88 L119.779 1397.95 Z" fill="#000000" fill-rule="nonzero" fill-opacity="1" /><path clip-path="url(#clip100)" d="M159.131 1370.4 Q155.52 1370.4 153.691 1373.97 Q151.886 1377.51 151.886 1384.64 Q151.886 1391.74 153.691 1395.31 Q155.52 1398.85 159.131 1398.85 Q162.765 1398.85 164.571 1395.31 Q166.399 1391.74 166.399 1384.64 Q166.399 1377.51 164.571 1373.97 Q162.765 1370.4 159.131 1370.4 M159.131 1366.7 Q164.941 1366.7 167.997 1371.3 Q171.075 1375.89 171.075 1384.64 Q171.075 1393.36 167.997 1397.97 Q164.941 1402.55 159.131 1402.55 Q153.321 1402.55 150.242 1397.97 Q147.186 1393.36 147.186 1384.64 Q147.186 1375.89 150.242 1371.3 Q153.321 1366.7 159.131 1366.7 Z" fill="#000000" fill-rule="nonzero" fill-opacity="1" /><path clip-path="url(#clip100)" d="M189.293 1370.4 Q185.682 1370.4 183.853 1373.97 Q182.047 1377.51 182.047 1384.64 Q182.047 1391.74 183.853 1395.31 Q185.682 1398.85 189.293 1398.85 Q192.927 1398.85 194.733 1395.31 Q196.561 1391.74 196.561 1384.64 Q196.561 1377.51 194.733 1373.97 Q192.927 1370.4 189.293 1370.4 M189.293 1366.7 Q195.103 1366.7 198.158 1371.3 Q201.237 1375.89 201.237 1384.64 Q201.237 1393.36 198.158 1397.97 Q195.103 1402.55 189.293 1402.55 Q183.483 1402.55 180.404 1397.97 Q177.348 1393.36 177.348 1384.64 Q177.348 1375.89 180.404 1371.3 Q183.483 1366.7 189.293 1366.7 Z" fill="#000000" fill-rule="nonzero" fill-opacity="1" /><path clip-path="url(#clip100)" d="M219.455 1370.4 Q215.844 1370.4 214.015 1373.97 Q212.209 1377.51 212.209 1384.64 Q212.209 1391.74 214.015 1395.31 Q215.844 1398.85 219.455 1398.85 Q223.089 1398.85 224.894 1395.31 Q226.723 1391.74 226.723 1384.64 Q226.723 1377.51 224.894 1373.97 Q223.089 1370.4 219.455 1370.4 M219.455 1366.7 Q225.265 1366.7 228.32 1371.3 Q231.399 1375.89 231.399 1384.64 Q231.399 1393.36 228.32 1397.97 Q225.265 1402.55 219.455 1402.55 Q213.644 1402.55 210.566 1397.97 Q207.51 1393.36 207.51 1384.64 Q207.51 1375.89 210.566 1371.3 Q213.644 1366.7 219.455 1366.7 Z" fill="#000000" fill-rule="nonzero" fill-opacity="1" /><path clip-path="url(#clip100)" d="M122.997 1093.89 L139.316 1093.89 L139.316 1097.83 L117.372 1097.83 L117.372 1093.89 Q120.034 1091.14 124.617 1086.51 Q129.224 1081.86 130.404 1080.51 Q132.65 1077.99 133.529 1076.25 Q134.432 1074.5 134.432 1072.81 Q134.432 1070.05 132.488 1068.31 Q130.566 1066.58 127.464 1066.58 Q125.265 1066.58 122.812 1067.34 Q120.381 1068.11 117.603 1069.66 L117.603 1064.94 Q120.427 1063.8 122.881 1063.22 Q125.335 1062.64 127.372 1062.64 Q132.742 1062.64 135.937 1065.33 Q139.131 1068.01 139.131 1072.5 Q139.131 1074.63 138.321 1076.56 Q137.534 1078.45 135.427 1081.05 Q134.849 1081.72 131.747 1084.94 Q128.645 1088.13 122.997 1093.89 Z" fill="#000000" fill-rule="nonzero" fill-opacity="1" /><path clip-path="url(#clip100)" d="M159.131 1066.35 Q155.52 1066.35 153.691 1069.91 Q151.886 1073.45 151.886 1080.58 Q151.886 1087.69 153.691 1091.25 Q155.52 1094.8 159.131 1094.8 Q162.765 1094.8 164.571 1091.25 Q166.399 1087.69 166.399 1080.58 Q166.399 1073.45 164.571 1069.91 Q162.765 1066.35 159.131 1066.35 M159.131 1062.64 Q164.941 1062.64 167.997 1067.25 Q171.075 1071.83 171.075 1080.58 Q171.075 1089.31 167.997 1093.92 Q164.941 1098.5 159.131 1098.5 Q153.321 1098.5 150.242 1093.92 Q147.186 1089.31 147.186 1080.58 Q147.186 1071.83 150.242 1067.25 Q153.321 1062.64 159.131 1062.64 Z" fill="#000000" fill-rule="nonzero" fill-opacity="1" /><path clip-path="url(#clip100)" d="M189.293 1066.35 Q185.682 1066.35 183.853 1069.91 Q182.047 1073.45 182.047 1080.58 Q182.047 1087.69 183.853 1091.25 Q185.682 1094.8 189.293 1094.8 Q192.927 1094.8 194.733 1091.25 Q196.561 1087.69 196.561 1080.58 Q196.561 1073.45 194.733 1069.91 Q192.927 1066.35 189.293 1066.35 M189.293 1062.64 Q195.103 1062.64 198.158 1067.25 Q201.237 1071.83 201.237 1080.58 Q201.237 1089.31 198.158 1093.92 Q195.103 1098.5 189.293 1098.5 Q183.483 1098.5 180.404 1093.92 Q177.348 1089.31 177.348 1080.58 Q177.348 1071.83 180.404 1067.25 Q183.483 1062.64 189.293 1062.64 Z" fill="#000000" fill-rule="nonzero" fill-opacity="1" /><path clip-path="url(#clip100)" d="M219.455 1066.35 Q215.844 1066.35 214.015 1069.91 Q212.209 1073.45 212.209 1080.58 Q212.209 1087.69 214.015 1091.25 Q215.844 1094.8 219.455 1094.8 Q223.089 1094.8 224.894 1091.25 Q226.723 1087.69 226.723 1080.58 Q226.723 1073.45 224.894 1069.91 Q223.089 1066.35 219.455 1066.35 M219.455 1062.64 Q225.265 1062.64 228.32 1067.25 Q231.399 1071.83 231.399 1080.58 Q231.399 1089.31 228.32 1093.92 Q225.265 1098.5 219.455 1098.5 Q213.644 1098.5 210.566 1093.92 Q207.51 1089.31 207.51 1080.58 Q207.51 1071.83 210.566 1067.25 Q213.644 1062.64 219.455 1062.64 Z" fill="#000000" fill-rule="nonzero" fill-opacity="1" /><path clip-path="url(#clip100)" d="M133.136 775.141 Q136.492 775.859 138.367 778.128 Q140.265 780.396 140.265 783.729 Q140.265 788.845 136.747 791.646 Q133.228 794.447 126.747 794.447 Q124.571 794.447 122.256 794.007 Q119.964 793.59 117.511 792.734 L117.511 788.22 Q119.455 789.354 121.77 789.933 Q124.085 790.512 126.608 790.512 Q131.006 790.512 133.298 788.776 Q135.612 787.039 135.612 783.729 Q135.612 780.674 133.46 778.961 Q131.33 777.225 127.511 777.225 L123.483 777.225 L123.483 773.382 L127.696 773.382 Q131.145 773.382 132.974 772.016 Q134.802 770.628 134.802 768.035 Q134.802 765.373 132.904 763.961 Q131.029 762.526 127.511 762.526 Q125.589 762.526 123.39 762.942 Q121.191 763.359 118.552 764.239 L118.552 760.072 Q121.214 759.331 123.529 758.961 Q125.867 758.591 127.927 758.591 Q133.251 758.591 136.353 761.021 Q139.455 763.429 139.455 767.549 Q139.455 770.419 137.812 772.41 Q136.168 774.378 133.136 775.141 Z" fill="#000000" fill-rule="nonzero" fill-opacity="1" /><path clip-path="url(#clip100)" d="M159.131 762.294 Q155.52 762.294 153.691 765.859 Q151.886 769.401 151.886 776.53 Q151.886 783.637 153.691 787.202 Q155.52 790.743 159.131 790.743 Q162.765 790.743 164.571 787.202 Q166.399 783.637 166.399 776.53 Q166.399 769.401 164.571 765.859 Q162.765 762.294 159.131 762.294 M159.131 758.591 Q164.941 758.591 167.997 763.197 Q171.075 767.78 171.075 776.53 Q171.075 785.257 167.997 789.864 Q164.941 794.447 159.131 794.447 Q153.321 794.447 150.242 789.864 Q147.186 785.257 147.186 776.53 Q147.186 767.78 150.242 763.197 Q153.321 758.591 159.131 758.591 Z" fill="#000000" fill-rule="nonzero" fill-opacity="1" /><path clip-path="url(#clip100)" d="M189.293 762.294 Q185.682 762.294 183.853 765.859 Q182.047 769.401 182.047 776.53 Q182.047 783.637 183.853 787.202 Q185.682 790.743 189.293 790.743 Q192.927 790.743 194.733 787.202 Q196.561 783.637 196.561 776.53 Q196.561 769.401 194.733 765.859 Q192.927 762.294 189.293 762.294 M189.293 758.591 Q195.103 758.591 198.158 763.197 Q201.237 767.78 201.237 776.53 Q201.237 785.257 198.158 789.864 Q195.103 794.447 189.293 794.447 Q183.483 794.447 180.404 789.864 Q177.348 785.257 177.348 776.53 Q177.348 767.78 180.404 763.197 Q183.483 758.591 189.293 758.591 Z" fill="#000000" fill-rule="nonzero" fill-opacity="1" /><path clip-path="url(#clip100)" d="M219.455 762.294 Q215.844 762.294 214.015 765.859 Q212.209 769.401 212.209 776.53 Q212.209 783.637 214.015 787.202 Q215.844 790.743 219.455 790.743 Q223.089 790.743 224.894 787.202 Q226.723 783.637 226.723 776.53 Q226.723 769.401 224.894 765.859 Q223.089 762.294 219.455 762.294 M219.455 758.591 Q225.265 758.591 228.32 763.197 Q231.399 767.78 231.399 776.53 Q231.399 785.257 228.32 789.864 Q225.265 794.447 219.455 794.447 Q213.644 794.447 210.566 789.864 Q207.51 785.257 207.51 776.53 Q207.51 767.78 210.566 763.197 Q213.644 758.591 219.455 758.591 Z" fill="#000000" fill-rule="nonzero" fill-opacity="1" /><path clip-path="url(#clip100)" d="M131.816 459.236 L120.011 477.685 L131.816 477.685 L131.816 459.236 M130.589 455.162 L136.469 455.162 L136.469 477.685 L141.399 477.685 L141.399 481.574 L136.469 481.574 L136.469 489.722 L131.816 489.722 L131.816 481.574 L116.214 481.574 L116.214 477.06 L130.589 455.162 Z" fill="#000000" fill-rule="nonzero" fill-opacity="1" /><path clip-path="url(#clip100)" d="M159.131 458.241 Q155.52 458.241 153.691 461.806 Q151.886 465.348 151.886 472.477 Q151.886 479.584 153.691 483.148 Q155.52 486.69 159.131 486.69 Q162.765 486.69 164.571 483.148 Q166.399 479.584 166.399 472.477 Q166.399 465.348 164.571 461.806 Q162.765 458.241 159.131 458.241 M159.131 454.537 Q164.941 454.537 167.997 459.144 Q171.075 463.727 171.075 472.477 Q171.075 481.204 167.997 485.81 Q164.941 490.394 159.131 490.394 Q153.321 490.394 150.242 485.81 Q147.186 481.204 147.186 472.477 Q147.186 463.727 150.242 459.144 Q153.321 454.537 159.131 454.537 Z" fill="#000000" fill-rule="nonzero" fill-opacity="1" /><path clip-path="url(#clip100)" d="M189.293 458.241 Q185.682 458.241 183.853 461.806 Q182.047 465.348 182.047 472.477 Q182.047 479.584 183.853 483.148 Q185.682 486.69 189.293 486.69 Q192.927 486.69 194.733 483.148 Q196.561 479.584 196.561 472.477 Q196.561 465.348 194.733 461.806 Q192.927 458.241 189.293 458.241 M189.293 454.537 Q195.103 454.537 198.158 459.144 Q201.237 463.727 201.237 472.477 Q201.237 481.204 198.158 485.81 Q195.103 490.394 189.293 490.394 Q183.483 490.394 180.404 485.81 Q177.348 481.204 177.348 472.477 Q177.348 463.727 180.404 459.144 Q183.483 454.537 189.293 454.537 Z" fill="#000000" fill-rule="nonzero" fill-opacity="1" /><path clip-path="url(#clip100)" d="M219.455 458.241 Q215.844 458.241 214.015 461.806 Q212.209 465.348 212.209 472.477 Q212.209 479.584 214.015 483.148 Q215.844 486.69 219.455 486.69 Q223.089 486.69 224.894 483.148 Q226.723 479.584 226.723 472.477 Q226.723 465.348 224.894 461.806 Q223.089 458.241 219.455 458.241 M219.455 454.537 Q225.265 454.537 228.32 459.144 Q231.399 463.727 231.399 472.477 Q231.399 481.204 228.32 485.81 Q225.265 490.394 219.455 490.394 Q213.644 490.394 210.566 485.81 Q207.51 481.204 207.51 472.477 Q207.51 463.727 210.566 459.144 Q213.644 454.537 219.455 454.537 Z" fill="#000000" fill-rule="nonzero" fill-opacity="1" /><path clip-path="url(#clip100)" d="M119.015 151.109 L137.372 151.109 L137.372 155.044 L123.298 155.044 L123.298 163.517 Q124.316 163.169 125.335 163.007 Q126.353 162.822 127.372 162.822 Q133.159 162.822 136.538 165.993 Q139.918 169.165 139.918 174.581 Q139.918 180.16 136.446 183.262 Q132.974 186.341 126.654 186.341 Q124.478 186.341 122.21 185.97 Q119.964 185.6 117.557 184.859 L117.557 180.16 Q119.64 181.294 121.863 181.85 Q124.085 182.405 126.562 182.405 Q130.566 182.405 132.904 180.299 Q135.242 178.192 135.242 174.581 Q135.242 170.97 132.904 168.864 Q130.566 166.757 126.562 166.757 Q124.687 166.757 122.812 167.174 Q120.96 167.591 119.015 168.47 L119.015 151.109 Z" fill="#000000" fill-rule="nonzero" fill-opacity="1" /><path clip-path="url(#clip100)" d="M159.131 154.188 Q155.52 154.188 153.691 157.753 Q151.886 161.294 151.886 168.424 Q151.886 175.53 153.691 179.095 Q155.52 182.637 159.131 182.637 Q162.765 182.637 164.571 179.095 Q166.399 175.53 166.399 168.424 Q166.399 161.294 164.571 157.753 Q162.765 154.188 159.131 154.188 M159.131 150.484 Q164.941 150.484 167.997 155.091 Q171.075 159.674 171.075 168.424 Q171.075 177.151 167.997 181.757 Q164.941 186.341 159.131 186.341 Q153.321 186.341 150.242 181.757 Q147.186 177.151 147.186 168.424 Q147.186 159.674 150.242 155.091 Q153.321 150.484 159.131 150.484 Z" fill="#000000" fill-rule="nonzero" fill-opacity="1" /><path clip-path="url(#clip100)" d="M189.293 154.188 Q185.682 154.188 183.853 157.753 Q182.047 161.294 182.047 168.424 Q182.047 175.53 183.853 179.095 Q185.682 182.637 189.293 182.637 Q192.927 182.637 194.733 179.095 Q196.561 175.53 196.561 168.424 Q196.561 161.294 194.733 157.753 Q192.927 154.188 189.293 154.188 M189.293 150.484 Q195.103 150.484 198.158 155.091 Q201.237 159.674 201.237 168.424 Q201.237 177.151 198.158 181.757 Q195.103 186.341 189.293 186.341 Q183.483 186.341 180.404 181.757 Q177.348 177.151 177.348 168.424 Q177.348 159.674 180.404 155.091 Q183.483 150.484 189.293 150.484 Z" fill="#000000" fill-rule="nonzero" fill-opacity="1" /><path clip-path="url(#clip100)" d="M219.455 154.188 Q215.844 154.188 214.015 157.753 Q212.209 161.294 212.209 168.424 Q212.209 175.53 214.015 179.095 Q215.844 182.637 219.455 182.637 Q223.089 182.637 224.894 179.095 Q226.723 175.53 226.723 168.424 Q226.723 161.294 224.894 157.753 Q223.089 154.188 219.455 154.188 M219.455 150.484 Q225.265 150.484 228.32 155.091 Q231.399 159.674 231.399 168.424 Q231.399 177.151 228.32 181.757 Q225.265 186.341 219.455 186.341 Q213.644 186.341 210.566 181.757 Q207.51 177.151 207.51 168.424 Q207.51 159.674 210.566 155.091 Q213.644 150.484 219.455 150.484 Z" fill="#000000" fill-rule="nonzero" fill-opacity="1" /><path clip-path="url(#clip100)" d="M17.7787 986.814 L24.5582 986.814 Q21.5345 990.06 20.0386 993.752 Q18.5426 997.413 18.5426 1001.55 Q18.5426 1009.7 23.5397 1014.03 Q28.5049 1018.36 37.9262 1018.36 Q47.3156 1018.36 52.3127 1014.03 Q57.2779 1009.7 57.2779 1001.55 Q57.2779 997.413 55.782 993.752 Q54.2861 990.06 51.2623 986.814 L57.9782 986.814 Q60.2698 990.187 61.4156 993.975 Q62.5615 997.731 62.5615 1001.93 Q62.5615 1012.72 55.973 1018.93 Q49.3526 1025.14 37.9262 1025.14 Q26.4679 1025.14 19.8794 1018.93 Q13.2591 1012.72 13.2591 1001.93 Q13.2591 997.667 14.4049 993.911 Q15.5189 990.124 17.7787 986.814 Z" fill="#000000" fill-rule="nonzero" fill-opacity="1" /><path clip-path="url(#clip100)" d="M30.0964 963.324 Q30.0964 968.035 33.7885 970.772 Q37.4488 973.509 43.8463 973.509 Q50.2438 973.509 53.9359 970.804 Q57.5962 968.067 57.5962 963.324 Q57.5962 958.645 53.9041 955.908 Q50.212 953.171 43.8463 953.171 Q37.5124 953.171 33.8203 955.908 Q30.0964 958.645 30.0964 963.324 M25.1311 963.324 Q25.1311 955.685 30.0964 951.325 Q35.0616 946.964 43.8463 946.964 Q52.5991 946.964 57.5962 951.325 Q62.5615 955.685 62.5615 963.324 Q62.5615 970.995 57.5962 975.355 Q52.5991 979.684 43.8463 979.684 Q35.0616 979.684 30.0964 975.355 Q25.1311 970.995 25.1311 963.324 Z" fill="#000000" fill-rule="nonzero" fill-opacity="1" /><path clip-path="url(#clip100)" d="M47.5702 937.861 L25.9905 937.861 L25.9905 932.005 L47.3474 932.005 Q52.4082 932.005 54.9545 930.032 Q57.4689 928.058 57.4689 924.111 Q57.4689 919.369 54.4452 916.632 Q51.4215 913.863 46.2016 913.863 L25.9905 913.863 L25.9905 908.006 L61.6384 908.006 L61.6384 913.863 L56.1639 913.863 Q59.4104 915.995 61.0019 918.828 Q62.5615 921.629 62.5615 925.353 Q62.5615 931.496 58.742 934.678 Q54.9226 937.861 47.5702 937.861 M25.1311 923.125 L25.1311 923.125 Z" fill="#000000" fill-rule="nonzero" fill-opacity="1" /><path clip-path="url(#clip100)" d="M40.1224 866.311 L61.6384 866.311 L61.6384 872.167 L40.3133 872.167 Q35.2526 872.167 32.7381 874.141 Q30.2237 876.114 30.2237 880.061 Q30.2237 884.803 33.2474 887.54 Q36.2711 890.278 41.491 890.278 L61.6384 890.278 L61.6384 896.166 L25.9905 896.166 L25.9905 890.278 L31.5287 890.278 Q28.314 888.177 26.7225 885.344 Q25.1311 882.48 25.1311 878.756 Q25.1311 872.613 28.9505 869.462 Q32.7381 866.311 40.1224 866.311 Z" fill="#000000" fill-rule="nonzero" fill-opacity="1" /><path clip-path="url(#clip100)" d="M15.869 848.837 L25.9905 848.837 L25.9905 836.774 L30.542 836.774 L30.542 848.837 L49.8937 848.837 Q54.2542 848.837 55.4955 847.659 Q56.7368 846.45 56.7368 842.79 L56.7368 836.774 L61.6384 836.774 L61.6384 842.79 Q61.6384 849.569 59.124 852.147 Q56.5777 854.725 49.8937 854.725 L30.542 854.725 L30.542 859.022 L25.9905 859.022 L25.9905 854.725 L15.869 854.725 L15.869 848.837 Z" fill="#000000" fill-rule="nonzero" fill-opacity="1" /><path clip-path="url(#clip100)" d="M328.851 16.7545 L328.851 25.383 Q324.719 21.5346 320.02 19.6307 Q315.361 17.7268 310.095 17.7268 Q299.725 17.7268 294.215 24.0867 Q288.706 30.4061 288.706 42.3968 Q288.706 54.3469 294.215 60.7069 Q299.725 67.0263 310.095 67.0263 Q315.361 67.0263 320.02 65.1223 Q324.719 63.2184 328.851 59.3701 L328.851 67.9175 Q324.557 70.8341 319.736 72.2924 Q314.956 73.7508 309.609 73.7508 Q295.876 73.7508 287.977 65.3654 Q280.078 56.9395 280.078 42.3968 Q280.078 27.8135 287.977 19.4281 Q295.876 11.0023 309.609 11.0023 Q315.037 11.0023 319.817 12.4606 Q324.638 13.8784 328.851 16.7545 Z" fill="#000000" fill-rule="nonzero" fill-opacity="1" /><path clip-path="url(#clip100)" d="M378.879 45.1919 L378.879 72.576 L371.426 72.576 L371.426 45.4349 Q371.426 38.994 368.914 35.7938 Q366.402 32.5936 361.379 32.5936 Q355.343 32.5936 351.86 36.4419 Q348.376 40.2903 348.376 46.9338 L348.376 72.576 L340.882 72.576 L340.882 9.54393 L348.376 9.54393 L348.376 34.2544 Q351.05 30.163 354.655 28.1376 Q358.301 26.1121 363.04 26.1121 Q370.858 26.1121 374.869 30.9732 Q378.879 35.7938 378.879 45.1919 Z" fill="#000000" fill-rule="nonzero" fill-opacity="1" /><path clip-path="url(#clip100)" d="M411.327 32.4315 Q405.332 32.4315 401.848 37.1306 Q398.364 41.7891 398.364 49.9314 Q398.364 58.0738 401.807 62.7728 Q405.291 67.4314 411.327 67.4314 Q417.282 67.4314 420.766 62.7323 Q424.249 58.0333 424.249 49.9314 Q424.249 41.8701 420.766 37.1711 Q417.282 32.4315 411.327 32.4315 M411.327 26.1121 Q421.049 26.1121 426.599 32.4315 Q432.149 38.7509 432.149 49.9314 Q432.149 61.0714 426.599 67.4314 Q421.049 73.7508 411.327 73.7508 Q401.564 73.7508 396.015 67.4314 Q390.505 61.0714 390.505 49.9314 Q390.505 38.7509 396.015 32.4315 Q401.564 26.1121 411.327 26.1121 Z" fill="#000000" fill-rule="nonzero" fill-opacity="1" /><path clip-path="url(#clip100)" d="M444.504 9.54393 L451.958 9.54393 L451.958 72.576 L444.504 72.576 L444.504 9.54393 Z" fill="#000000" fill-rule="nonzero" fill-opacity="1" /><path clip-path="url(#clip100)" d="M506.361 48.0275 L506.361 51.6733 L472.091 51.6733 Q472.577 59.3701 476.709 63.421 Q480.881 67.4314 488.294 67.4314 Q492.588 67.4314 496.599 66.3781 Q500.649 65.3249 504.619 63.2184 L504.619 70.267 Q500.609 71.9684 496.396 72.8596 Q492.183 73.7508 487.849 73.7508 Q476.992 73.7508 470.632 67.4314 Q464.313 61.1119 464.313 50.3365 Q464.313 39.1965 470.308 32.6746 Q476.344 26.1121 486.552 26.1121 Q495.707 26.1121 501.014 32.0264 Q506.361 37.9003 506.361 48.0275 M498.908 45.84 Q498.827 39.7232 495.464 36.0774 Q492.143 32.4315 486.633 32.4315 Q480.395 32.4315 476.628 35.9558 Q472.901 39.4801 472.334 45.8805 L498.908 45.84 Z" fill="#000000" fill-rule="nonzero" fill-opacity="1" /><path clip-path="url(#clip100)" d="M544.885 34.1734 Q543.63 33.4443 542.131 33.1202 Q540.672 32.7556 538.89 32.7556 Q532.571 32.7556 529.168 36.8875 Q525.806 40.9789 525.806 48.6757 L525.806 72.576 L518.311 72.576 L518.311 27.2059 L525.806 27.2059 L525.806 34.2544 Q528.155 30.1225 531.922 28.1376 Q535.69 26.1121 541.077 26.1121 Q541.847 26.1121 542.779 26.2337 Q543.711 26.3147 544.845 26.5172 L544.885 34.1734 Z" fill="#000000" fill-rule="nonzero" fill-opacity="1" /><path clip-path="url(#clip100)" d="M573.323 49.7694 Q564.289 49.7694 560.805 51.8354 Q557.322 53.9013 557.322 58.8839 Q557.322 62.8538 559.914 65.2034 Q562.547 67.5124 567.044 67.5124 Q573.242 67.5124 576.968 63.1374 Q580.736 58.7219 580.736 51.4303 L580.736 49.7694 L573.323 49.7694 M588.189 46.6907 L588.189 72.576 L580.736 72.576 L580.736 65.6895 Q578.184 69.8214 574.376 71.8063 Q570.568 73.7508 565.059 73.7508 Q558.091 73.7508 553.959 69.8619 Q549.868 65.9325 549.868 59.3701 Q549.868 51.7138 554.972 47.825 Q560.117 43.9361 570.284 43.9361 L580.736 43.9361 L580.736 43.2069 Q580.736 38.0623 577.333 35.2672 Q573.971 32.4315 567.854 32.4315 Q563.965 32.4315 560.279 33.3632 Q556.592 34.295 553.19 36.1584 L553.19 29.2718 Q557.281 27.692 561.129 26.9223 Q564.978 26.1121 568.624 26.1121 Q578.467 26.1121 583.328 31.2163 Q588.189 36.3204 588.189 46.6907 Z" fill="#000000" fill-rule="nonzero" fill-opacity="1" /><path clip-path="url(#clip100)" d="M666.493 14.0809 L666.493 22.0612 Q661.835 19.8332 657.703 18.7395 Q653.571 17.6457 649.723 17.6457 Q643.039 17.6457 639.393 20.2383 Q635.788 22.8309 635.788 27.611 Q635.788 31.6214 638.178 33.6873 Q640.608 35.7128 647.333 36.9686 L652.275 37.9813 Q661.43 39.7232 665.764 44.1387 Q670.139 48.5136 670.139 55.8863 Q670.139 64.6767 664.225 69.2137 Q658.351 73.7508 646.968 73.7508 Q642.674 73.7508 637.813 72.7785 Q632.992 71.8063 627.807 69.9024 L627.807 61.4765 Q632.79 64.2716 637.57 65.6895 Q642.35 67.1073 646.968 67.1073 Q653.976 67.1073 657.784 64.3527 Q661.592 61.598 661.592 56.4939 Q661.592 52.0379 658.837 49.5264 Q656.123 47.0148 649.885 45.759 L644.902 44.7868 Q635.747 42.9639 631.656 39.075 Q627.564 35.1862 627.564 28.2591 Q627.564 20.2383 633.195 15.6203 Q638.866 11.0023 648.791 11.0023 Q653.044 11.0023 657.46 11.7719 Q661.875 12.5416 666.493 14.0809 Z" fill="#000000" fill-rule="nonzero" fill-opacity="1" /><path clip-path="url(#clip100)" d="M682.9 12.096 L721.14 12.096 L721.14 18.9825 L691.082 18.9825 L691.082 36.8875 L719.884 36.8875 L719.884 43.7741 L691.082 43.7741 L691.082 65.6895 L721.869 65.6895 L721.869 72.576 L682.9 72.576 L682.9 12.096 Z" fill="#000000" fill-rule="nonzero" fill-opacity="1" /><path clip-path="url(#clip100)" d="M735.318 12.096 L743.501 12.096 L743.501 72.576 L735.318 72.576 L735.318 12.096 Z" fill="#000000" fill-rule="nonzero" fill-opacity="1" /><path clip-path="url(#clip100)" d="M788.466 44.2197 Q791.099 45.1109 793.57 48.0275 Q796.082 50.9442 798.593 56.0483 L806.898 72.576 L798.107 72.576 L790.37 57.061 Q787.372 50.9847 784.537 48.9997 Q781.742 47.0148 776.881 47.0148 L767.969 47.0148 L767.969 72.576 L759.786 72.576 L759.786 12.096 L778.258 12.096 Q788.628 12.096 793.732 16.4305 Q798.836 20.7649 798.836 29.5149 Q798.836 35.2267 796.163 38.994 Q793.53 42.7613 788.466 44.2197 M767.969 18.8205 L767.969 40.2903 L778.258 40.2903 Q784.172 40.2903 787.17 37.5762 Q790.208 34.8216 790.208 29.5149 Q790.208 24.2082 787.17 21.5346 Q784.172 18.8205 778.258 18.8205 L767.969 18.8205 Z" fill="#000000" fill-rule="nonzero" fill-opacity="1" /><path clip-path="url(#clip100)" d="M851.984 18.8205 L851.984 65.8515 L861.869 65.8515 Q874.386 65.8515 880.179 60.1802 Q886.012 54.509 886.012 42.2752 Q886.012 30.1225 880.179 24.4918 Q874.386 18.8205 861.869 18.8205 L851.984 18.8205 M843.802 12.096 L860.613 12.096 Q878.194 12.096 886.417 19.4281 Q894.64 26.7198 894.64 42.2752 Q894.64 57.9117 886.377 65.2439 Q878.113 72.576 860.613 72.576 L843.802 72.576 L843.802 12.096 Z" fill="#000000" fill-rule="nonzero" fill-opacity="1" /><path clip-path="url(#clip100)" d="M926.237 76.7889 Q923.078 84.8907 920.08 87.3618 Q917.082 89.8329 912.059 89.8329 L906.104 89.8329 L906.104 83.5945 L910.479 83.5945 Q913.558 83.5945 915.259 82.1361 Q916.961 80.6778 919.027 75.2496 L920.364 71.8468 L902.013 27.2059 L909.912 27.2059 L924.09 62.6918 L938.269 27.2059 L946.168 27.2059 L926.237 76.7889 Z" fill="#000000" fill-rule="nonzero" fill-opacity="1" /><path clip-path="url(#clip100)" d="M994.171 45.1919 L994.171 72.576 L986.717 72.576 L986.717 45.4349 Q986.717 38.994 984.206 35.7938 Q981.694 32.5936 976.671 32.5936 Q970.635 32.5936 967.152 36.4419 Q963.668 40.2903 963.668 46.9338 L963.668 72.576 L956.174 72.576 L956.174 27.2059 L963.668 27.2059 L963.668 34.2544 Q966.341 30.163 969.947 28.1376 Q973.592 26.1121 978.332 26.1121 Q986.15 26.1121 990.161 30.9732 Q994.171 35.7938 994.171 45.1919 Z" fill="#000000" fill-rule="nonzero" fill-opacity="1" /><path clip-path="url(#clip100)" d="M1029.66 49.7694 Q1020.62 49.7694 1017.14 51.8354 Q1013.66 53.9013 1013.66 58.8839 Q1013.66 62.8538 1016.25 65.2034 Q1018.88 67.5124 1023.38 67.5124 Q1029.58 67.5124 1033.3 63.1374 Q1037.07 58.7219 1037.07 51.4303 L1037.07 49.7694 L1029.66 49.7694 M1044.52 46.6907 L1044.52 72.576 L1037.07 72.576 L1037.07 65.6895 Q1034.52 69.8214 1030.71 71.8063 Q1026.9 73.7508 1021.39 73.7508 Q1014.43 73.7508 1010.29 69.8619 Q1006.2 65.9325 1006.2 59.3701 Q1006.2 51.7138 1011.31 47.825 Q1016.45 43.9361 1026.62 43.9361 L1037.07 43.9361 L1037.07 43.2069 Q1037.07 38.0623 1033.67 35.2672 Q1030.31 32.4315 1024.19 32.4315 Q1020.3 32.4315 1016.61 33.3632 Q1012.93 34.295 1009.52 36.1584 L1009.52 29.2718 Q1013.62 27.692 1017.46 26.9223 Q1021.31 26.1121 1024.96 26.1121 Q1034.8 26.1121 1039.66 31.2163 Q1044.52 36.3204 1044.52 46.6907 Z" fill="#000000" fill-rule="nonzero" fill-opacity="1" /><path clip-path="url(#clip100)" d="M1095.2 35.9153 Q1098 30.8922 1101.88 28.5022 Q1105.77 26.1121 1111.04 26.1121 Q1118.13 26.1121 1121.98 31.0947 Q1125.83 36.0368 1125.83 45.1919 L1125.83 72.576 L1118.33 72.576 L1118.33 45.4349 Q1118.33 38.913 1116.02 35.7533 Q1113.71 32.5936 1108.97 32.5936 Q1103.18 32.5936 1099.82 36.4419 Q1096.46 40.2903 1096.46 46.9338 L1096.46 72.576 L1088.96 72.576 L1088.96 45.4349 Q1088.96 38.8725 1086.65 35.7533 Q1084.34 32.5936 1079.52 32.5936 Q1073.81 32.5936 1070.45 36.4824 Q1067.09 40.3308 1067.09 46.9338 L1067.09 72.576 L1059.59 72.576 L1059.59 27.2059 L1067.09 27.2059 L1067.09 34.2544 Q1069.64 30.082 1073.2 28.0971 Q1076.77 26.1121 1081.67 26.1121 Q1086.61 26.1121 1090.06 28.6237 Q1093.54 31.1352 1095.2 35.9153 Z" fill="#000000" fill-rule="nonzero" fill-opacity="1" /><path clip-path="url(#clip100)" d="M1140.69 27.2059 L1148.15 27.2059 L1148.15 72.576 L1140.69 72.576 L1140.69 27.2059 M1140.69 9.54393 L1148.15 9.54393 L1148.15 18.9825 L1140.69 18.9825 L1140.69 9.54393 Z" fill="#000000" fill-rule="nonzero" fill-opacity="1" /><path clip-path="url(#clip100)" d="M1196.39 28.9478 L1196.39 35.9153 Q1193.23 34.1734 1190.03 33.3227 Q1186.87 32.4315 1183.63 32.4315 Q1176.38 32.4315 1172.37 37.0496 Q1168.36 41.6271 1168.36 49.9314 Q1168.36 58.2358 1172.37 62.8538 Q1176.38 67.4314 1183.63 67.4314 Q1186.87 67.4314 1190.03 66.5807 Q1193.23 65.6895 1196.39 63.9476 L1196.39 70.8341 Q1193.27 72.2924 1189.91 73.0216 Q1186.59 73.7508 1182.82 73.7508 Q1172.57 73.7508 1166.54 67.3098 Q1160.5 60.8689 1160.5 49.9314 Q1160.5 38.832 1166.58 32.472 Q1172.69 26.1121 1183.31 26.1121 Q1186.75 26.1121 1190.03 26.8413 Q1193.31 27.5299 1196.39 28.9478 Z" fill="#000000" fill-rule="nonzero" fill-opacity="1" /><path clip-path="url(#clip100)" d="M1238.28 28.5427 L1238.28 35.5912 Q1235.12 33.9709 1231.72 33.1607 Q1228.31 32.3505 1224.67 32.3505 Q1219.12 32.3505 1216.32 34.0519 Q1213.57 35.7533 1213.57 39.156 Q1213.57 41.7486 1215.55 43.2475 Q1217.54 44.7058 1223.53 46.0426 L1226.09 46.6097 Q1234.03 48.3111 1237.35 51.4303 Q1240.71 54.509 1240.71 60.0587 Q1240.71 66.3781 1235.69 70.0644 Q1230.7 73.7508 1221.95 73.7508 Q1218.31 73.7508 1214.34 73.0216 Q1210.41 72.3329 1206.03 70.9151 L1206.03 63.2184 Q1210.17 65.3654 1214.18 66.4591 Q1218.19 67.5124 1222.12 67.5124 Q1227.38 67.5124 1230.22 65.73 Q1233.05 63.9071 1233.05 60.6258 Q1233.05 57.5877 1230.99 55.9673 Q1228.96 54.3469 1222.03 52.8481 L1219.44 52.2405 Q1212.51 50.7821 1209.44 47.7845 Q1206.36 44.7463 1206.36 39.4801 Q1206.36 33.0797 1210.89 29.5959 Q1215.43 26.1121 1223.78 26.1121 Q1227.91 26.1121 1231.55 26.7198 Q1235.2 27.3274 1238.28 28.5427 Z" fill="#000000" fill-rule="nonzero" fill-opacity="1" /><path clip-path="url(#clip100)" d="M1274.62 27.2059 L1282.07 27.2059 L1291.39 62.6108 L1300.66 27.2059 L1309.45 27.2059 L1318.77 62.6108 L1328.05 27.2059 L1335.5 27.2059 L1323.63 72.576 L1314.84 72.576 L1305.08 35.3887 L1295.27 72.576 L1286.48 72.576 L1274.62 27.2059 Z" fill="#000000" fill-rule="nonzero" fill-opacity="1" /><path clip-path="url(#clip100)" d="M1346.8 27.2059 L1354.26 27.2059 L1354.26 72.576 L1346.8 72.576 L1346.8 27.2059 M1346.8 9.54393 L1354.26 9.54393 L1354.26 18.9825 L1346.8 18.9825 L1346.8 9.54393 Z" fill="#000000" fill-rule="nonzero" fill-opacity="1" /><path clip-path="url(#clip100)" d="M1377.22 14.324 L1377.22 27.2059 L1392.58 27.2059 L1392.58 32.9987 L1377.22 32.9987 L1377.22 57.6282 Q1377.22 63.1779 1378.72 64.7578 Q1380.26 66.3376 1384.92 66.3376 L1392.58 66.3376 L1392.58 72.576 L1384.92 72.576 Q1376.29 72.576 1373.01 69.3758 Q1369.73 66.1351 1369.73 57.6282 L1369.73 32.9987 L1364.26 32.9987 L1364.26 27.2059 L1369.73 27.2059 L1369.73 14.324 L1377.22 14.324 Z" fill="#000000" fill-rule="nonzero" fill-opacity="1" /><path clip-path="url(#clip100)" d="M1440.09 45.1919 L1440.09 72.576 L1432.64 72.576 L1432.64 45.4349 Q1432.64 38.994 1430.13 35.7938 Q1427.62 32.5936 1422.59 32.5936 Q1416.56 32.5936 1413.08 36.4419 Q1409.59 40.2903 1409.59 46.9338 L1409.59 72.576 L1402.1 72.576 L1402.1 9.54393 L1409.59 9.54393 L1409.59 34.2544 Q1412.26 30.163 1415.87 28.1376 Q1419.52 26.1121 1424.26 26.1121 Q1432.07 26.1121 1436.08 30.9732 Q1440.09 35.7938 1440.09 45.1919 Z" fill="#000000" fill-rule="nonzero" fill-opacity="1" /><path clip-path="url(#clip100)" d="M1481.66 12.096 L1519.9 12.096 L1519.9 18.9825 L1489.84 18.9825 L1489.84 36.8875 L1518.64 36.8875 L1518.64 43.7741 L1489.84 43.7741 L1489.84 65.6895 L1520.63 65.6895 L1520.63 72.576 L1481.66 72.576 L1481.66 12.096 Z" fill="#000000" fill-rule="nonzero" fill-opacity="1" /><path clip-path="url(#clip100)" d="M1571.47 45.1919 L1571.47 72.576 L1564.01 72.576 L1564.01 45.4349 Q1564.01 38.994 1561.5 35.7938 Q1558.99 32.5936 1553.97 32.5936 Q1547.93 32.5936 1544.45 36.4419 Q1540.96 40.2903 1540.96 46.9338 L1540.96 72.576 L1533.47 72.576 L1533.47 27.2059 L1540.96 27.2059 L1540.96 34.2544 Q1543.64 30.163 1547.24 28.1376 Q1550.89 26.1121 1555.63 26.1121 Q1563.44 26.1121 1567.46 30.9732 Q1571.47 35.7938 1571.47 45.1919 Z" fill="#000000" fill-rule="nonzero" fill-opacity="1" /><path clip-path="url(#clip100)" d="M1580.99 27.2059 L1588.88 27.2059 L1603.06 65.2844 L1617.24 27.2059 L1625.14 27.2059 L1608.13 72.576 L1598 72.576 L1580.99 27.2059 Z" fill="#000000" fill-rule="nonzero" fill-opacity="1" /><path clip-path="url(#clip100)" d="M1635.43 27.2059 L1642.88 27.2059 L1642.88 72.576 L1635.43 72.576 L1635.43 27.2059 M1635.43 9.54393 L1642.88 9.54393 L1642.88 18.9825 L1635.43 18.9825 L1635.43 9.54393 Z" fill="#000000" fill-rule="nonzero" fill-opacity="1" /><path clip-path="url(#clip100)" d="M1684.77 34.1734 Q1683.51 33.4443 1682.01 33.1202 Q1680.56 32.7556 1678.77 32.7556 Q1672.45 32.7556 1669.05 36.8875 Q1665.69 40.9789 1665.69 48.6757 L1665.69 72.576 L1658.2 72.576 L1658.2 27.2059 L1665.69 27.2059 L1665.69 34.2544 Q1668.04 30.1225 1671.81 28.1376 Q1675.57 26.1121 1680.96 26.1121 Q1681.73 26.1121 1682.66 26.2337 Q1683.59 26.3147 1684.73 26.5172 L1684.77 34.1734 Z" fill="#000000" fill-rule="nonzero" fill-opacity="1" /><path clip-path="url(#clip100)" d="M1708.35 32.4315 Q1702.35 32.4315 1698.87 37.1306 Q1695.38 41.7891 1695.38 49.9314 Q1695.38 58.0738 1698.83 62.7728 Q1702.31 67.4314 1708.35 67.4314 Q1714.3 67.4314 1717.78 62.7323 Q1721.27 58.0333 1721.27 49.9314 Q1721.27 41.8701 1717.78 37.1711 Q1714.3 32.4315 1708.35 32.4315 M1708.35 26.1121 Q1718.07 26.1121 1723.62 32.4315 Q1729.17 38.7509 1729.17 49.9314 Q1729.17 61.0714 1723.62 67.4314 Q1718.07 73.7508 1708.35 73.7508 Q1698.58 73.7508 1693.03 67.4314 Q1687.52 61.0714 1687.52 49.9314 Q1687.52 38.7509 1693.03 32.4315 Q1698.58 26.1121 1708.35 26.1121 Z" fill="#000000" fill-rule="nonzero" fill-opacity="1" /><path clip-path="url(#clip100)" d="M1779.24 45.1919 L1779.24 72.576 L1771.78 72.576 L1771.78 45.4349 Q1771.78 38.994 1769.27 35.7938 Q1766.76 32.5936 1761.74 32.5936 Q1755.7 32.5936 1752.22 36.4419 Q1748.73 40.2903 1748.73 46.9338 L1748.73 72.576 L1741.24 72.576 L1741.24 27.2059 L1748.73 27.2059 L1748.73 34.2544 Q1751.41 30.163 1755.01 28.1376 Q1758.66 26.1121 1763.4 26.1121 Q1771.22 26.1121 1775.23 30.9732 Q1779.24 35.7938 1779.24 45.1919 Z" fill="#000000" fill-rule="nonzero" fill-opacity="1" /><path clip-path="url(#clip100)" d="M1829.43 35.9153 Q1832.22 30.8922 1836.11 28.5022 Q1840 26.1121 1845.27 26.1121 Q1852.36 26.1121 1856.2 31.0947 Q1860.05 36.0368 1860.05 45.1919 L1860.05 72.576 L1852.56 72.576 L1852.56 45.4349 Q1852.56 38.913 1850.25 35.7533 Q1847.94 32.5936 1843.2 32.5936 Q1837.41 32.5936 1834.05 36.4419 Q1830.68 40.2903 1830.68 46.9338 L1830.68 72.576 L1823.19 72.576 L1823.19 45.4349 Q1823.19 38.8725 1820.88 35.7533 Q1818.57 32.5936 1813.75 32.5936 Q1808.04 32.5936 1804.68 36.4824 Q1801.31 40.3308 1801.31 46.9338 L1801.31 72.576 L1793.82 72.576 L1793.82 27.2059 L1801.31 27.2059 L1801.31 34.2544 Q1803.87 30.082 1807.43 28.0971 Q1811 26.1121 1815.9 26.1121 Q1820.84 26.1121 1824.28 28.6237 Q1827.77 31.1352 1829.43 35.9153 Z" fill="#000000" fill-rule="nonzero" fill-opacity="1" /><path clip-path="url(#clip100)" d="M1913.73 48.0275 L1913.73 51.6733 L1879.46 51.6733 Q1879.94 59.3701 1884.07 63.421 Q1888.25 67.4314 1895.66 67.4314 Q1899.95 67.4314 1903.96 66.3781 Q1908.01 65.3249 1911.98 63.2184 L1911.98 70.267 Q1907.97 71.9684 1903.76 72.8596 Q1899.55 73.7508 1895.21 73.7508 Q1884.36 73.7508 1878 67.4314 Q1871.68 61.1119 1871.68 50.3365 Q1871.68 39.1965 1877.67 32.6746 Q1883.71 26.1121 1893.92 26.1121 Q1903.07 26.1121 1908.38 32.0264 Q1913.73 37.9003 1913.73 48.0275 M1906.27 45.84 Q1906.19 39.7232 1902.83 36.0774 Q1899.51 32.4315 1894 32.4315 Q1887.76 32.4315 1883.99 35.9558 Q1880.27 39.4801 1879.7 45.8805 L1906.27 45.84 Z" fill="#000000" fill-rule="nonzero" fill-opacity="1" /><path clip-path="url(#clip100)" d="M1963.67 45.1919 L1963.67 72.576 L1956.22 72.576 L1956.22 45.4349 Q1956.22 38.994 1953.71 35.7938 Q1951.2 32.5936 1946.17 32.5936 Q1940.14 32.5936 1936.65 36.4419 Q1933.17 40.2903 1933.17 46.9338 L1933.17 72.576 L1925.68 72.576 L1925.68 27.2059 L1933.17 27.2059 L1933.17 34.2544 Q1935.84 30.163 1939.45 28.1376 Q1943.1 26.1121 1947.83 26.1121 Q1955.65 26.1121 1959.66 30.9732 Q1963.67 35.7938 1963.67 45.1919 Z" fill="#000000" fill-rule="nonzero" fill-opacity="1" /><path clip-path="url(#clip100)" d="M1985.91 14.324 L1985.91 27.2059 L2001.27 27.2059 L2001.27 32.9987 L1985.91 32.9987 L1985.91 57.6282 Q1985.91 63.1779 1987.41 64.7578 Q1988.95 66.3376 1993.61 66.3376 L2001.27 66.3376 L2001.27 72.576 L1993.61 72.576 Q1984.98 72.576 1981.7 69.3758 Q1978.42 66.1351 1978.42 57.6282 L1978.42 32.9987 L1972.95 32.9987 L1972.95 27.2059 L1978.42 27.2059 L1978.42 14.324 L1985.91 14.324 Z" fill="#000000" fill-rule="nonzero" fill-opacity="1" /><path clip-path="url(#clip100)" d="M2031.69 49.7694 Q2022.66 49.7694 2019.17 51.8354 Q2015.69 53.9013 2015.69 58.8839 Q2015.69 62.8538 2018.28 65.2034 Q2020.91 67.5124 2025.41 67.5124 Q2031.61 67.5124 2035.33 63.1374 Q2039.1 58.7219 2039.1 51.4303 L2039.1 49.7694 L2031.69 49.7694 M2046.56 46.6907 L2046.56 72.576 L2039.1 72.576 L2039.1 65.6895 Q2036.55 69.8214 2032.74 71.8063 Q2028.93 73.7508 2023.42 73.7508 Q2016.46 73.7508 2012.33 69.8619 Q2008.23 65.9325 2008.23 59.3701 Q2008.23 51.7138 2013.34 47.825 Q2018.48 43.9361 2028.65 43.9361 L2039.1 43.9361 L2039.1 43.2069 Q2039.1 38.0623 2035.7 35.2672 Q2032.34 32.4315 2026.22 32.4315 Q2022.33 32.4315 2018.64 33.3632 Q2014.96 34.295 2011.56 36.1584 L2011.56 29.2718 Q2015.65 27.692 2019.5 26.9223 Q2023.34 26.1121 2026.99 26.1121 Q2036.83 26.1121 2041.69 31.2163 Q2046.56 36.3204 2046.56 46.6907 Z" fill="#000000" fill-rule="nonzero" fill-opacity="1" /><path clip-path="url(#clip100)" d="M2061.91 9.54393 L2069.36 9.54393 L2069.36 72.576 L2061.91 72.576 L2061.91 9.54393 Z" fill="#000000" fill-rule="nonzero" fill-opacity="1" /><path clip-path="url(#clip100)" d="M2103.27 12.096 L2154.43 12.096 L2154.43 18.9825 L2132.96 18.9825 L2132.96 72.576 L2124.74 72.576 L2124.74 18.9825 L2103.27 18.9825 L2103.27 12.096 Z" fill="#000000" fill-rule="nonzero" fill-opacity="1" /><path clip-path="url(#clip100)" d="M2176.1 34.1734 Q2174.85 33.4443 2173.35 33.1202 Q2171.89 32.7556 2170.11 32.7556 Q2163.79 32.7556 2160.39 36.8875 Q2157.02 40.9789 2157.02 48.6757 L2157.02 72.576 L2149.53 72.576 L2149.53 27.2059 L2157.02 27.2059 L2157.02 34.2544 Q2159.37 30.1225 2163.14 28.1376 Q2166.91 26.1121 2172.3 26.1121 Q2173.07 26.1121 2174 26.2337 Q2174.93 26.3147 2176.06 26.5172 L2176.1 34.1734 Z" fill="#000000" fill-rule="nonzero" fill-opacity="1" /><path clip-path="url(#clip100)" d="M2204.54 49.7694 Q2195.51 49.7694 2192.02 51.8354 Q2188.54 53.9013 2188.54 58.8839 Q2188.54 62.8538 2191.13 65.2034 Q2193.77 67.5124 2198.26 67.5124 Q2204.46 67.5124 2208.19 63.1374 Q2211.95 58.7219 2211.95 51.4303 L2211.95 49.7694 L2204.54 49.7694 M2219.41 46.6907 L2219.41 72.576 L2211.95 72.576 L2211.95 65.6895 Q2209.4 69.8214 2205.59 71.8063 Q2201.79 73.7508 2196.28 73.7508 Q2189.31 73.7508 2185.18 69.8619 Q2181.09 65.9325 2181.09 59.3701 Q2181.09 51.7138 2186.19 47.825 Q2191.33 43.9361 2201.5 43.9361 L2211.95 43.9361 L2211.95 43.2069 Q2211.95 38.0623 2208.55 35.2672 Q2205.19 32.4315 2199.07 32.4315 Q2195.18 32.4315 2191.5 33.3632 Q2187.81 34.295 2184.41 36.1584 L2184.41 29.2718 Q2188.5 27.692 2192.35 26.9223 Q2196.2 26.1121 2199.84 26.1121 Q2209.69 26.1121 2214.55 31.2163 Q2219.41 36.3204 2219.41 46.6907 Z" fill="#000000" fill-rule="nonzero" fill-opacity="1" /><path clip-path="url(#clip100)" d="M2272.47 45.1919 L2272.47 72.576 L2265.02 72.576 L2265.02 45.4349 Q2265.02 38.994 2262.51 35.7938 Q2260 32.5936 2254.97 32.5936 Q2248.94 32.5936 2245.45 36.4419 Q2241.97 40.2903 2241.97 46.9338 L2241.97 72.576 L2234.48 72.576 L2234.48 27.2059 L2241.97 27.2059 L2241.97 34.2544 Q2244.64 30.163 2248.25 28.1376 Q2251.9 26.1121 2256.64 26.1121 Q2264.45 26.1121 2268.46 30.9732 Q2272.47 35.7938 2272.47 45.1919 Z" fill="#000000" fill-rule="nonzero" fill-opacity="1" /><path clip-path="url(#clip100)" d="M2316.26 28.5427 L2316.26 35.5912 Q2313.1 33.9709 2309.7 33.1607 Q2306.3 32.3505 2302.65 32.3505 Q2297.1 32.3505 2294.31 34.0519 Q2291.55 35.7533 2291.55 39.156 Q2291.55 41.7486 2293.54 43.2475 Q2295.52 44.7058 2301.52 46.0426 L2304.07 46.6097 Q2312.01 48.3111 2315.33 51.4303 Q2318.7 54.509 2318.7 60.0587 Q2318.7 66.3781 2313.67 70.0644 Q2308.69 73.7508 2299.94 73.7508 Q2296.29 73.7508 2292.32 73.0216 Q2288.39 72.3329 2284.02 70.9151 L2284.02 63.2184 Q2288.15 65.3654 2292.16 66.4591 Q2296.17 67.5124 2300.1 67.5124 Q2305.37 67.5124 2308.2 65.73 Q2311.04 63.9071 2311.04 60.6258 Q2311.04 57.5877 2308.97 55.9673 Q2306.95 54.3469 2300.02 52.8481 L2297.43 52.2405 Q2290.5 50.7821 2287.42 47.7845 Q2284.34 44.7463 2284.34 39.4801 Q2284.34 33.0797 2288.88 29.5959 Q2293.42 26.1121 2301.76 26.1121 Q2305.89 26.1121 2309.54 26.7198 Q2313.19 27.3274 2316.26 28.5427 Z" fill="#000000" fill-rule="nonzero" fill-opacity="1" /><path clip-path="url(#clip100)" d="M2365.89 35.9153 Q2368.68 30.8922 2372.57 28.5022 Q2376.46 26.1121 2381.73 26.1121 Q2388.82 26.1121 2392.66 31.0947 Q2396.51 36.0368 2396.51 45.1919 L2396.51 72.576 L2389.02 72.576 L2389.02 45.4349 Q2389.02 38.913 2386.71 35.7533 Q2384.4 32.5936 2379.66 32.5936 Q2373.87 32.5936 2370.51 36.4419 Q2367.14 40.2903 2367.14 46.9338 L2367.14 72.576 L2359.65 72.576 L2359.65 45.4349 Q2359.65 38.8725 2357.34 35.7533 Q2355.03 32.5936 2350.21 32.5936 Q2344.5 32.5936 2341.14 36.4824 Q2337.77 40.3308 2337.77 46.9338 L2337.77 72.576 L2330.28 72.576 L2330.28 27.2059 L2337.77 27.2059 L2337.77 34.2544 Q2340.33 30.082 2343.89 28.0971 Q2347.46 26.1121 2352.36 26.1121 Q2357.3 26.1121 2360.74 28.6237 Q2364.23 31.1352 2365.89 35.9153 Z" fill="#000000" fill-rule="nonzero" fill-opacity="1" /><path clip-path="url(#clip100)" d="M2411.38 27.2059 L2418.83 27.2059 L2418.83 72.576 L2411.38 72.576 L2411.38 27.2059 M2411.38 9.54393 L2418.83 9.54393 L2418.83 18.9825 L2411.38 18.9825 L2411.38 9.54393 Z" fill="#000000" fill-rule="nonzero" fill-opacity="1" /><path clip-path="url(#clip100)" d="M2463.35 28.5427 L2463.35 35.5912 Q2460.19 33.9709 2456.79 33.1607 Q2453.39 32.3505 2449.74 32.3505 Q2444.19 32.3505 2441.4 34.0519 Q2438.64 35.7533 2438.64 39.156 Q2438.64 41.7486 2440.63 43.2475 Q2442.61 44.7058 2448.61 46.0426 L2451.16 46.6097 Q2459.1 48.3111 2462.42 51.4303 Q2465.78 54.509 2465.78 60.0587 Q2465.78 66.3781 2460.76 70.0644 Q2455.78 73.7508 2447.03 73.7508 Q2443.38 73.7508 2439.41 73.0216 Q2435.48 72.3329 2431.11 70.9151 L2431.11 63.2184 Q2435.24 65.3654 2439.25 66.4591 Q2443.26 67.5124 2447.19 67.5124 Q2452.46 67.5124 2455.29 65.73 Q2458.13 63.9071 2458.13 60.6258 Q2458.13 57.5877 2456.06 55.9673 Q2454.04 54.3469 2447.11 52.8481 L2444.52 52.2405 Q2437.59 50.7821 2434.51 47.7845 Q2431.43 44.7463 2431.43 39.4801 Q2431.43 33.0797 2435.97 29.5959 Q2440.51 26.1121 2448.85 26.1121 Q2452.98 26.1121 2456.63 26.7198 Q2460.27 27.3274 2463.35 28.5427 Z" fill="#000000" fill-rule="nonzero" fill-opacity="1" /><path clip-path="url(#clip100)" d="M2506.58 28.5427 L2506.58 35.5912 Q2503.42 33.9709 2500.01 33.1607 Q2496.61 32.3505 2492.97 32.3505 Q2487.42 32.3505 2484.62 34.0519 Q2481.87 35.7533 2481.87 39.156 Q2481.87 41.7486 2483.85 43.2475 Q2485.84 44.7058 2491.83 46.0426 L2494.38 46.6097 Q2502.32 48.3111 2505.64 51.4303 Q2509.01 54.509 2509.01 60.0587 Q2509.01 66.3781 2503.98 70.0644 Q2499 73.7508 2490.25 73.7508 Q2486.61 73.7508 2482.64 73.0216 Q2478.71 72.3329 2474.33 70.9151 L2474.33 63.2184 Q2478.46 65.3654 2482.47 66.4591 Q2486.48 67.5124 2490.41 67.5124 Q2495.68 67.5124 2498.51 65.73 Q2501.35 63.9071 2501.35 60.6258 Q2501.35 57.5877 2499.28 55.9673 Q2497.26 54.3469 2490.33 52.8481 L2487.74 52.2405 Q2480.81 50.7821 2477.73 47.7845 Q2474.66 44.7463 2474.66 39.4801 Q2474.66 33.0797 2479.19 29.5959 Q2483.73 26.1121 2492.07 26.1121 Q2496.21 26.1121 2499.85 26.7198 Q2503.5 27.3274 2506.58 28.5427 Z" fill="#000000" fill-rule="nonzero" fill-opacity="1" /><path clip-path="url(#clip100)" d="M2520.88 27.2059 L2528.33 27.2059 L2528.33 72.576 L2520.88 72.576 L2520.88 27.2059 M2520.88 9.54393 L2528.33 9.54393 L2528.33 18.9825 L2520.88 18.9825 L2520.88 9.54393 Z" fill="#000000" fill-rule="nonzero" fill-opacity="1" /><path clip-path="url(#clip100)" d="M2561.51 32.4315 Q2555.51 32.4315 2552.03 37.1306 Q2548.54 41.7891 2548.54 49.9314 Q2548.54 58.0738 2551.99 62.7728 Q2555.47 67.4314 2561.51 67.4314 Q2567.46 67.4314 2570.95 62.7323 Q2574.43 58.0333 2574.43 49.9314 Q2574.43 41.8701 2570.95 37.1711 Q2567.46 32.4315 2561.51 32.4315 M2561.51 26.1121 Q2571.23 26.1121 2576.78 32.4315 Q2582.33 38.7509 2582.33 49.9314 Q2582.33 61.0714 2576.78 67.4314 Q2571.23 73.7508 2561.51 73.7508 Q2551.74 73.7508 2546.19 67.4314 Q2540.68 61.0714 2540.68 49.9314 Q2540.68 38.7509 2546.19 32.4315 Q2551.74 26.1121 2561.51 26.1121 Z" fill="#000000" fill-rule="nonzero" fill-opacity="1" /><path clip-path="url(#clip100)" d="M2632.4 45.1919 L2632.4 72.576 L2624.94 72.576 L2624.94 45.4349 Q2624.94 38.994 2622.43 35.7938 Q2619.92 32.5936 2614.9 32.5936 Q2608.86 32.5936 2605.38 36.4419 Q2601.89 40.2903 2601.89 46.9338 L2601.89 72.576 L2594.4 72.576 L2594.4 27.2059 L2601.89 27.2059 L2601.89 34.2544 Q2604.57 30.163 2608.17 28.1376 Q2611.82 26.1121 2616.56 26.1121 Q2624.38 26.1121 2628.39 30.9732 Q2632.4 35.7938 2632.4 45.1919 Z" fill="#000000" fill-rule="nonzero" fill-opacity="1" /><polyline clip-path="url(#clip101)" style="stroke:#0000ff; stroke-linecap:round; stroke-linejoin:round; stroke-width:8; stroke-opacity:1; fill:none" points="338.767,175.991 349.942,175.991 361.117,177.207 372.291,195.45 383.466,222.511 394.641,252.308 405.815,313.727 416.99,425.618 428.165,619.908 439.34,874.705 450.514,1174.5 461.689,1442.37 472.864,1613.86 484.038,1675.88 495.213,1686.83 506.388,1688.65 517.562,1688.65 528.737,1688.65 539.912,1688.65 551.087,1688.65 562.261,1688.65 573.436,1688.65 584.611,1688.65 595.785,1688.65 606.96,1688.65 618.135,1688.65 629.309,1688.65 640.484,1688.65 651.659,1688.65 662.834,1688.65 674.008,1688.65 685.183,1688.65 696.358,1688.65 707.532,1688.65 718.707,1688.65 729.882,1688.65 741.057,1688.65 752.231,1688.65 763.406,1688.65 774.581,1688.65 785.755,1688.65 796.93,1688.65 808.105,1688.65 819.279,1688.65 830.454,1688.65 841.629,1688.65 852.804,1688.65 863.978,1688.65 875.153,1688.65 886.328,1688.65 897.502,1688.65 908.677,1688.65 919.852,1688.65 931.026,1688.65 942.201,1688.65 953.376,1688.65 964.551,1688.65 975.725,1688.65 986.9,1688.65 998.075,1688.65 1009.25,1688.65 1020.42,1688.65 1031.6,1688.65 1042.77,1688.65 1053.95,1688.65 1065.12,1688.65 1076.3,1688.65 1087.47,1688.65 1098.65,1688.65 1109.82,1688.65 1121,1688.65 1132.17,1688.65 1143.35,1688.65 1154.52,1688.65 1165.7,1688.65 1176.87,1688.65 1188.04,1688.65 1199.22,1688.65 1210.39,1688.65 1221.57,1688.65 1232.74,1688.65 1243.92,1688.65 1255.09,1688.65 1266.27,1688.65 1277.44,1688.65 1288.62,1688.65 1299.79,1688.65 1310.97,1688.65 1322.14,1688.65 1333.32,1688.65 1344.49,1688.65 1355.67,1688.65 1366.84,1688.65 1378.01,1688.65 1389.19,1688.65 1400.36,1688.65 1411.54,1688.65 1422.71,1688.65 1433.89,1688.65 1445.06,1688.65 1456.24,1688.65 1467.41,1688.65 1478.59,1688.65 1489.76,1688.65 1500.94,1688.65 1512.11,1688.65 1523.29,1688.65 1534.46,1688.65 1545.64,1688.65 1556.81,1688.65 1567.98,1688.65 1579.16,1688.65 1590.33,1688.65 1601.51,1688.65 1612.68,1688.65 1623.86,1688.65 1635.03,1688.65 1646.21,1688.65 1657.38,1688.65 1668.56,1688.65 1679.73,1688.65 1690.91,1688.65 1702.08,1688.65 1713.26,1688.65 1724.43,1688.65 1735.61,1688.65 1746.78,1688.65 1757.95,1688.65 1769.13,1688.65 1780.3,1688.65 1791.48,1688.65 1802.65,1688.65 1813.83,1688.65 1825,1688.65 1836.18,1688.65 1847.35,1688.65 1858.53,1688.65 1869.7,1688.65 1880.88,1688.65 1892.05,1688.65 1903.23,1688.65 1914.4,1688.65 1925.57,1688.65 1936.75,1688.65 1947.92,1688.65 1959.1,1688.65 1970.27,1688.65 1981.45,1688.65 1992.62,1688.65 2003.8,1688.65 2014.97,1688.65 2026.15,1688.65 2037.32,1688.65 2048.5,1688.65 2059.67,1688.65 2070.85,1688.65 2082.02,1688.65 2093.2,1688.65 2104.37,1688.65 2115.54,1688.65 2126.72,1688.65 2137.89,1688.65 2149.07,1688.65 2160.24,1688.65 2171.42,1688.65 2182.59,1688.65 2193.77,1688.65 2204.94,1688.65 2216.12,1688.65 2227.29,1688.65 2238.47,1688.65 2249.64,1688.65 2260.82,1688.65 2271.99,1688.65 2283.17,1688.65 2294.34,1688.65 2305.51,1688.65 2316.69,1688.65 2327.86,1688.65 2339.04,1688.65 2350.21,1688.65 2361.39,1688.65 2372.56,1688.65 2383.74,1688.65 2394.91,1688.65 2406.09,1688.65 2417.26,1688.65 2428.44,1688.65 2439.61,1688.65 2450.79,1688.65 2461.96,1688.65 2473.14,1688.65 2484.31,1688.65 2495.48,1688.65 2506.66,1688.65 2517.83,1688.65 2529.01,1688.65 2540.18,1688.65 2551.36,1688.65 2562.53,1688.65 2573.71,1688.65 "/>
<polyline clip-path="url(#clip101)" style="stroke:#ff0000; stroke-linecap:round; stroke-linejoin:round; stroke-width:8; stroke-opacity:1; fill:none" points="338.767,1688.65 349.942,1688.65 361.117,1688.35 372.291,1682.88 383.466,1680.75 394.641,1678.32 405.815,1667.07 416.99,1647 428.165,1613.55 439.34,1559.74 450.514,1475.82 461.689,1349.94 472.864,1183.62 484.038,1011.22 495.213,924.265 506.388,930.651 517.562,1027.34 528.737,1217.68 539.912,1387.64 551.087,1522.34 562.261,1617.51 573.436,1663.42 584.611,1683.79 595.785,1686.83 606.96,1688.65 618.135,1688.65 629.309,1688.65 640.484,1688.65 651.659,1688.65 662.834,1688.65 674.008,1688.65 685.183,1688.65 696.358,1688.65 707.532,1688.65 718.707,1688.65 729.882,1688.65 741.057,1688.65 752.231,1688.65 763.406,1688.65 774.581,1688.65 785.755,1688.65 796.93,1688.65 808.105,1688.65 819.279,1688.65 830.454,1688.65 841.629,1688.65 852.804,1688.65 863.978,1688.65 875.153,1688.65 886.328,1688.65 897.502,1688.65 908.677,1688.65 919.852,1688.65 931.026,1688.65 942.201,1688.65 953.376,1688.65 964.551,1688.65 975.725,1688.65 986.9,1688.65 998.075,1688.65 1009.25,1688.65 1020.42,1688.65 1031.6,1688.65 1042.77,1688.65 1053.95,1688.65 1065.12,1688.65 1076.3,1688.65 1087.47,1688.65 1098.65,1688.65 1109.82,1688.65 1121,1688.65 1132.17,1688.65 1143.35,1688.65 1154.52,1688.65 1165.7,1688.65 1176.87,1688.65 1188.04,1688.65 1199.22,1688.65 1210.39,1688.65 1221.57,1688.65 1232.74,1688.65 1243.92,1688.65 1255.09,1688.65 1266.27,1688.65 1277.44,1688.65 1288.62,1688.65 1299.79,1688.65 1310.97,1688.65 1322.14,1688.65 1333.32,1688.65 1344.49,1688.65 1355.67,1688.65 1366.84,1688.65 1378.01,1688.65 1389.19,1688.65 1400.36,1688.65 1411.54,1688.65 1422.71,1688.65 1433.89,1688.65 1445.06,1688.65 1456.24,1688.65 1467.41,1688.65 1478.59,1688.65 1489.76,1688.65 1500.94,1688.65 1512.11,1688.65 1523.29,1688.65 1534.46,1688.65 1545.64,1688.65 1556.81,1688.65 1567.98,1688.65 1579.16,1688.65 1590.33,1688.65 1601.51,1688.65 1612.68,1688.65 1623.86,1688.65 1635.03,1688.65 1646.21,1688.65 1657.38,1688.65 1668.56,1688.65 1679.73,1688.65 1690.91,1688.65 1702.08,1688.65 1713.26,1688.65 1724.43,1688.65 1735.61,1688.65 1746.78,1688.65 1757.95,1688.65 1769.13,1688.65 1780.3,1688.65 1791.48,1688.65 1802.65,1688.65 1813.83,1688.65 1825,1688.65 1836.18,1688.65 1847.35,1688.65 1858.53,1688.65 1869.7,1688.65 1880.88,1688.65 1892.05,1688.65 1903.23,1688.65 1914.4,1688.65 1925.57,1688.65 1936.75,1688.65 1947.92,1688.65 1959.1,1688.65 1970.27,1688.65 1981.45,1688.65 1992.62,1688.65 2003.8,1688.65 2014.97,1688.65 2026.15,1688.65 2037.32,1688.65 2048.5,1688.65 2059.67,1688.65 2070.85,1688.65 2082.02,1688.65 2093.2,1688.65 2104.37,1688.65 2115.54,1688.65 2126.72,1688.65 2137.89,1688.65 2149.07,1688.65 2160.24,1688.65 2171.42,1688.65 2182.59,1688.65 2193.77,1688.65 2204.94,1688.65 2216.12,1688.65 2227.29,1688.65 2238.47,1688.65 2249.64,1688.65 2260.82,1688.65 2271.99,1688.65 2283.17,1688.65 2294.34,1688.65 2305.51,1688.65 2316.69,1688.65 2327.86,1688.65 2339.04,1688.65 2350.21,1688.65 2361.39,1688.65 2372.56,1688.65 2383.74,1688.65 2394.91,1688.65 2406.09,1688.65 2417.26,1688.65 2428.44,1688.65 2439.61,1688.65 2450.79,1688.65 2461.96,1688.65 2473.14,1688.65 2484.31,1688.65 2495.48,1688.65 2506.66,1688.65 2517.83,1688.65 2529.01,1688.65 2540.18,1688.65 2551.36,1688.65 2562.53,1688.65 2573.71,1688.65 "/>
<polyline clip-path="url(#clip101)" style="stroke:#ffa500; stroke-linecap:round; stroke-linejoin:round; stroke-width:8; stroke-opacity:1; fill:none" stroke-dasharray="32, 20" points="338.767,1688.65 349.942,1688.65 361.117,1688.35 372.291,1685.61 383.466,1684.4 394.641,1683.79 405.815,1678.32 416.99,1669.5 428.165,1652.17 439.34,1631.8 450.514,1600.48 461.689,1546.36 472.864,1470.65 484.038,1409.53 495.213,1398.59 506.388,1441.16 517.562,1505.31 528.737,1591.05 539.912,1649.43 551.087,1674.97 562.261,1685.92 573.436,1688.65 584.611,1688.65 595.785,1688.65 606.96,1688.65 618.135,1688.65 629.309,1688.65 640.484,1688.65 651.659,1688.65 662.834,1688.65 674.008,1688.65 685.183,1688.65 696.358,1688.65 707.532,1688.65 718.707,1688.65 729.882,1688.65 741.057,1688.65 752.231,1688.65 763.406,1688.65 774.581,1688.65 785.755,1688.65 796.93,1688.65 808.105,1688.65 819.279,1688.65 830.454,1688.65 841.629,1688.65 852.804,1688.65 863.978,1688.65 875.153,1688.65 886.328,1688.65 897.502,1688.65 908.677,1688.65 919.852,1688.65 931.026,1688.65 942.201,1688.65 953.376,1688.65 964.551,1688.65 975.725,1688.65 986.9,1688.65 998.075,1688.65 1009.25,1688.65 1020.42,1688.65 1031.6,1688.65 1042.77,1688.65 1053.95,1688.65 1065.12,1688.65 1076.3,1688.65 1087.47,1688.65 1098.65,1688.65 1109.82,1688.65 1121,1688.65 1132.17,1688.65 1143.35,1688.65 1154.52,1688.65 1165.7,1688.65 1176.87,1688.65 1188.04,1688.65 1199.22,1688.65 1210.39,1688.65 1221.57,1688.65 1232.74,1688.65 1243.92,1688.65 1255.09,1688.65 1266.27,1688.65 1277.44,1688.65 1288.62,1688.65 1299.79,1688.65 1310.97,1688.65 1322.14,1688.65 1333.32,1688.65 1344.49,1688.65 1355.67,1688.65 1366.84,1688.65 1378.01,1688.65 1389.19,1688.65 1400.36,1688.65 1411.54,1688.65 1422.71,1688.65 1433.89,1688.65 1445.06,1688.65 1456.24,1688.65 1467.41,1688.65 1478.59,1688.65 1489.76,1688.65 1500.94,1688.65 1512.11,1688.65 1523.29,1688.65 1534.46,1688.65 1545.64,1688.65 1556.81,1688.65 1567.98,1688.65 1579.16,1688.65 1590.33,1688.65 1601.51,1688.65 1612.68,1688.65 1623.86,1688.65 1635.03,1688.65 1646.21,1688.65 1657.38,1688.65 1668.56,1688.65 1679.73,1688.65 1690.91,1688.65 1702.08,1688.65 1713.26,1688.65 1724.43,1688.65 1735.61,1688.65 1746.78,1688.65 1757.95,1688.65 1769.13,1688.65 1780.3,1688.65 1791.48,1688.65 1802.65,1688.65 1813.83,1688.65 1825,1688.65 1836.18,1688.65 1847.35,1688.65 1858.53,1688.65 1869.7,1688.65 1880.88,1688.65 1892.05,1688.65 1903.23,1688.65 1914.4,1688.65 1925.57,1688.65 1936.75,1688.65 1947.92,1688.65 1959.1,1688.65 1970.27,1688.65 1981.45,1688.65 1992.62,1688.65 2003.8,1688.65 2014.97,1688.65 2026.15,1688.65 2037.32,1688.65 2048.5,1688.65 2059.67,1688.65 2070.85,1688.65 2082.02,1688.65 2093.2,1688.65 2104.37,1688.65 2115.54,1688.65 2126.72,1688.65 2137.89,1688.65 2149.07,1688.65 2160.24,1688.65 2171.42,1688.65 2182.59,1688.65 2193.77,1688.65 2204.94,1688.65 2216.12,1688.65 2227.29,1688.65 2238.47,1688.65 2249.64,1688.65 2260.82,1688.65 2271.99,1688.65 2283.17,1688.65 2294.34,1688.65 2305.51,1688.65 2316.69,1688.65 2327.86,1688.65 2339.04,1688.65 2350.21,1688.65 2361.39,1688.65 2372.56,1688.65 2383.74,1688.65 2394.91,1688.65 2406.09,1688.65 2417.26,1688.65 2428.44,1688.65 2439.61,1688.65 2450.79,1688.65 2461.96,1688.65 2473.14,1688.65 2484.31,1688.65 2495.48,1688.65 2506.66,1688.65 2517.83,1688.65 2529.01,1688.65 2540.18,1688.65 2551.36,1688.65 2562.53,1688.65 2573.71,1688.65 "/>
<polyline clip-path="url(#clip101)" style="stroke:#008000; stroke-linecap:round; stroke-linejoin:round; stroke-width:8; stroke-opacity:1; fill:none" points="338.767,1688.65 349.942,1688.65 361.117,1688.65 372.291,1688.65 383.466,1688.05 394.641,1686.83 405.815,1684.7 416.99,1681.05 428.165,1675.58 439.34,1663.42 450.514,1644.57 461.689,1607.78 472.864,1546.36 484.038,1444.5 495.213,1295.82 506.388,1104.26 517.562,892.644 528.737,656.395 539.912,476.699 551.087,339.875 562.261,244.403 573.436,198.491 584.611,178.119 595.785,175.078 606.96,173.254 618.135,173.254 629.309,173.254 640.484,173.254 651.659,173.254 662.834,173.254 674.008,173.254 685.183,173.254 696.358,173.254 707.532,173.254 718.707,173.254 729.882,173.254 741.057,173.254 752.231,173.254 763.406,173.254 774.581,173.254 785.755,173.254 796.93,173.254 808.105,173.254 819.279,173.254 830.454,173.254 841.629,173.254 852.804,173.254 863.978,173.254 875.153,173.254 886.328,173.254 897.502,173.254 908.677,173.254 919.852,173.254 931.026,173.254 942.201,173.254 953.376,173.254 964.551,173.254 975.725,173.254 986.9,173.254 998.075,173.254 1009.25,173.254 1020.42,173.254 1031.6,173.254 1042.77,173.254 1053.95,173.254 1065.12,173.254 1076.3,173.254 1087.47,173.254 1098.65,173.254 1109.82,173.254 1121,173.254 1132.17,173.254 1143.35,173.254 1154.52,173.254 1165.7,173.254 1176.87,173.254 1188.04,173.254 1199.22,173.254 1210.39,173.254 1221.57,173.254 1232.74,173.254 1243.92,173.254 1255.09,173.254 1266.27,173.254 1277.44,173.254 1288.62,173.254 1299.79,173.254 1310.97,173.254 1322.14,173.254 1333.32,173.254 1344.49,173.254 1355.67,173.254 1366.84,173.254 1378.01,173.254 1389.19,173.254 1400.36,173.254 1411.54,173.254 1422.71,173.254 1433.89,173.254 1445.06,173.254 1456.24,173.254 1467.41,173.254 1478.59,173.254 1489.76,173.254 1500.94,173.254 1512.11,173.254 1523.29,173.254 1534.46,173.254 1545.64,173.254 1556.81,173.254 1567.98,173.254 1579.16,173.254 1590.33,173.254 1601.51,173.254 1612.68,173.254 1623.86,173.254 1635.03,173.254 1646.21,173.254 1657.38,173.254 1668.56,173.254 1679.73,173.254 1690.91,173.254 1702.08,173.254 1713.26,173.254 1724.43,173.254 1735.61,173.254 1746.78,173.254 1757.95,173.254 1769.13,173.254 1780.3,173.254 1791.48,173.254 1802.65,173.254 1813.83,173.254 1825,173.254 1836.18,173.254 1847.35,173.254 1858.53,173.254 1869.7,173.254 1880.88,173.254 1892.05,173.254 1903.23,173.254 1914.4,173.254 1925.57,173.254 1936.75,173.254 1947.92,173.254 1959.1,173.254 1970.27,173.254 1981.45,173.254 1992.62,173.254 2003.8,173.254 2014.97,173.254 2026.15,173.254 2037.32,173.254 2048.5,173.254 2059.67,173.254 2070.85,173.254 2082.02,173.254 2093.2,173.254 2104.37,173.254 2115.54,173.254 2126.72,173.254 2137.89,173.254 2149.07,173.254 2160.24,173.254 2171.42,173.254 2182.59,173.254 2193.77,173.254 2204.94,173.254 2216.12,173.254 2227.29,173.254 2238.47,173.254 2249.64,173.254 2260.82,173.254 2271.99,173.254 2283.17,173.254 2294.34,173.254 2305.51,173.254 2316.69,173.254 2327.86,173.254 2339.04,173.254 2350.21,173.254 2361.39,173.254 2372.56,173.254 2383.74,173.254 2394.91,173.254 2406.09,173.254 2417.26,173.254 2428.44,173.254 2439.61,173.254 2450.79,173.254 2461.96,173.254 2473.14,173.254 2484.31,173.254 2495.48,173.254 2506.66,173.254 2517.83,173.254 2529.01,173.254 2540.18,173.254 2551.36,173.254 2562.53,173.254 2573.71,173.254 "/>
<path clip-path="url(#clip100)" d="M350.687 440.536 L896.594 440.536 L896.594 181.336 L350.687 181.336  Z" fill="#ffffff" fill-rule="evenodd" fill-opacity="1"/>
<polyline clip-path="url(#clip100)" style="stroke:#000000; stroke-linecap:round; stroke-linejoin:round; stroke-width:4; stroke-opacity:1; fill:none" points="350.687,440.536 896.594,440.536 896.594,181.336 350.687,181.336 350.687,440.536 "/>
<polyline clip-path="url(#clip100)" style="stroke:#0000ff; stroke-linecap:round; stroke-linejoin:round; stroke-width:8; stroke-opacity:1; fill:none" points="377.01,233.176 534.945,233.176 "/>
<path clip-path="url(#clip100)" d="M583.513 217.031 L583.513 221.591 Q580.851 220.318 578.49 219.693 Q576.129 219.068 573.93 219.068 Q570.111 219.068 568.027 220.549 Q565.967 222.031 565.967 224.762 Q565.967 227.054 567.333 228.234 Q568.722 229.392 572.564 230.109 L575.388 230.688 Q580.62 231.683 583.097 234.206 Q585.597 236.706 585.597 240.919 Q585.597 245.942 582.217 248.535 Q578.86 251.128 572.356 251.128 Q569.902 251.128 567.124 250.572 Q564.37 250.016 561.407 248.929 L561.407 244.114 Q564.254 245.711 566.986 246.521 Q569.717 247.331 572.356 247.331 Q576.36 247.331 578.536 245.757 Q580.712 244.183 580.712 241.267 Q580.712 238.72 579.138 237.285 Q577.587 235.85 574.023 235.132 L571.175 234.577 Q565.944 233.535 563.606 231.313 Q561.268 229.091 561.268 225.132 Q561.268 220.549 564.486 217.91 Q567.726 215.271 573.398 215.271 Q575.828 215.271 578.351 215.711 Q580.874 216.151 583.513 217.031 Z" fill="#000000" fill-rule="nonzero" fill-opacity="1" /><path clip-path="url(#clip100)" d="M592.263 240.225 L592.263 224.531 L596.522 224.531 L596.522 240.063 Q596.522 243.743 597.958 245.595 Q599.393 247.424 602.263 247.424 Q605.712 247.424 607.703 245.225 Q609.717 243.026 609.717 239.229 L609.717 224.531 L613.976 224.531 L613.976 250.456 L609.717 250.456 L609.717 246.475 Q608.166 248.836 606.106 249.993 Q604.069 251.128 601.36 251.128 Q596.893 251.128 594.578 248.35 Q592.263 245.572 592.263 240.225 M602.981 223.906 L602.981 223.906 Z" fill="#000000" fill-rule="nonzero" fill-opacity="1" /><path clip-path="url(#clip100)" d="M639.277 225.294 L639.277 229.322 Q637.471 228.396 635.527 227.933 Q633.582 227.47 631.499 227.47 Q628.328 227.47 626.731 228.443 Q625.157 229.415 625.157 231.359 Q625.157 232.841 626.291 233.697 Q627.425 234.53 630.851 235.294 L632.309 235.618 Q636.846 236.591 638.744 238.373 Q640.666 240.132 640.666 243.304 Q640.666 246.915 637.795 249.021 Q634.948 251.128 629.948 251.128 Q627.865 251.128 625.596 250.711 Q623.351 250.317 620.851 249.507 L620.851 245.109 Q623.212 246.336 625.504 246.961 Q627.795 247.563 630.041 247.563 Q633.05 247.563 634.67 246.544 Q636.291 245.503 636.291 243.628 Q636.291 241.892 635.11 240.966 Q633.953 240.04 629.994 239.183 L628.513 238.836 Q624.555 238.003 622.795 236.29 Q621.036 234.554 621.036 231.544 Q621.036 227.887 623.629 225.896 Q626.221 223.906 630.99 223.906 Q633.351 223.906 635.434 224.253 Q637.518 224.6 639.277 225.294 Z" fill="#000000" fill-rule="nonzero" fill-opacity="1" /><path clip-path="url(#clip100)" d="M666.105 225.526 L666.105 229.507 Q664.3 228.512 662.471 228.026 Q660.666 227.517 658.814 227.517 Q654.67 227.517 652.379 230.155 Q650.087 232.771 650.087 237.517 Q650.087 242.262 652.379 244.901 Q654.67 247.516 658.814 247.516 Q660.666 247.516 662.471 247.03 Q664.3 246.521 666.105 245.526 L666.105 249.461 Q664.323 250.294 662.402 250.711 Q660.504 251.128 658.351 251.128 Q652.494 251.128 649.045 247.447 Q645.596 243.767 645.596 237.517 Q645.596 231.174 649.068 227.54 Q652.564 223.906 658.629 223.906 Q660.596 223.906 662.471 224.322 Q664.346 224.716 666.105 225.526 Z" fill="#000000" fill-rule="nonzero" fill-opacity="1" /><path clip-path="url(#clip100)" d="M695.689 236.429 L695.689 238.512 L676.105 238.512 Q676.383 242.91 678.744 245.225 Q681.128 247.516 685.365 247.516 Q687.818 247.516 690.11 246.915 Q692.425 246.313 694.693 245.109 L694.693 249.137 Q692.402 250.109 689.994 250.618 Q687.587 251.128 685.11 251.128 Q678.906 251.128 675.272 247.516 Q671.661 243.905 671.661 237.748 Q671.661 231.382 675.087 227.655 Q678.536 223.906 684.369 223.906 Q689.601 223.906 692.633 227.285 Q695.689 230.642 695.689 236.429 M691.429 235.179 Q691.383 231.683 689.462 229.6 Q687.564 227.517 684.415 227.517 Q680.851 227.517 678.698 229.53 Q676.568 231.544 676.244 235.202 L691.429 235.179 Z" fill="#000000" fill-rule="nonzero" fill-opacity="1" /><path clip-path="url(#clip100)" d="M706.8 246.567 L706.8 260.317 L702.517 260.317 L702.517 224.531 L706.8 224.531 L706.8 228.466 Q708.142 226.151 710.179 225.04 Q712.239 223.906 715.087 223.906 Q719.809 223.906 722.749 227.655 Q725.712 231.405 725.712 237.517 Q725.712 243.628 722.749 247.378 Q719.809 251.128 715.087 251.128 Q712.239 251.128 710.179 250.016 Q708.142 248.882 706.8 246.567 M721.29 237.517 Q721.29 232.817 719.346 230.155 Q717.425 227.47 714.045 227.47 Q710.665 227.47 708.721 230.155 Q706.8 232.817 706.8 237.517 Q706.8 242.216 708.721 244.901 Q710.665 247.563 714.045 247.563 Q717.425 247.563 719.346 244.901 Q721.29 242.216 721.29 237.517 Z" fill="#000000" fill-rule="nonzero" fill-opacity="1" /><path clip-path="url(#clip100)" d="M736.985 217.169 L736.985 224.531 L745.758 224.531 L745.758 227.841 L736.985 227.841 L736.985 241.915 Q736.985 245.086 737.841 245.989 Q738.721 246.891 741.383 246.891 L745.758 246.891 L745.758 250.456 L741.383 250.456 Q736.452 250.456 734.577 248.628 Q732.702 246.776 732.702 241.915 L732.702 227.841 L729.577 227.841 L729.577 224.531 L732.702 224.531 L732.702 217.169 L736.985 217.169 Z" fill="#000000" fill-rule="nonzero" fill-opacity="1" /><path clip-path="url(#clip100)" d="M751.36 224.531 L755.619 224.531 L755.619 250.456 L751.36 250.456 L751.36 224.531 M751.36 214.438 L755.619 214.438 L755.619 219.831 L751.36 219.831 L751.36 214.438 Z" fill="#000000" fill-rule="nonzero" fill-opacity="1" /><path clip-path="url(#clip100)" d="M783.142 237.517 Q783.142 232.817 781.197 230.155 Q779.276 227.47 775.896 227.47 Q772.517 227.47 770.572 230.155 Q768.651 232.817 768.651 237.517 Q768.651 242.216 770.572 244.901 Q772.517 247.563 775.896 247.563 Q779.276 247.563 781.197 244.901 Q783.142 242.216 783.142 237.517 M768.651 228.466 Q769.994 226.151 772.031 225.04 Q774.091 223.906 776.938 223.906 Q781.66 223.906 784.6 227.655 Q787.563 231.405 787.563 237.517 Q787.563 243.628 784.6 247.378 Q781.66 251.128 776.938 251.128 Q774.091 251.128 772.031 250.016 Q769.994 248.882 768.651 246.567 L768.651 250.456 L764.369 250.456 L764.369 214.438 L768.651 214.438 L768.651 228.466 Z" fill="#000000" fill-rule="nonzero" fill-opacity="1" /><path clip-path="url(#clip100)" d="M794.623 214.438 L798.882 214.438 L798.882 250.456 L794.623 250.456 L794.623 214.438 Z" fill="#000000" fill-rule="nonzero" fill-opacity="1" /><path clip-path="url(#clip100)" d="M829.97 236.429 L829.97 238.512 L810.387 238.512 Q810.665 242.91 813.026 245.225 Q815.41 247.516 819.646 247.516 Q822.1 247.516 824.392 246.915 Q826.706 246.313 828.975 245.109 L828.975 249.137 Q826.683 250.109 824.276 250.618 Q821.868 251.128 819.392 251.128 Q813.188 251.128 809.554 247.516 Q805.943 243.905 805.943 237.748 Q805.943 231.382 809.368 227.655 Q812.818 223.906 818.651 223.906 Q823.882 223.906 826.915 227.285 Q829.97 230.642 829.97 236.429 M825.711 235.179 Q825.665 231.683 823.743 229.6 Q821.845 227.517 818.697 227.517 Q815.132 227.517 812.98 229.53 Q810.85 231.544 810.526 235.202 L825.711 235.179 Z" fill="#000000" fill-rule="nonzero" fill-opacity="1" /><polyline clip-path="url(#clip100)" style="stroke:#ff0000; stroke-linecap:round; stroke-linejoin:round; stroke-width:8; stroke-opacity:1; fill:none" points="377.01,285.016 534.945,285.016 "/>
<path clip-path="url(#clip100)" d="M561.268 267.736 L565.944 267.736 L565.944 302.296 L561.268 302.296 L561.268 267.736 Z" fill="#000000" fill-rule="nonzero" fill-opacity="1" /><path clip-path="url(#clip100)" d="M596.615 286.648 L596.615 302.296 L592.356 302.296 L592.356 286.787 Q592.356 283.107 590.921 281.278 Q589.485 279.449 586.615 279.449 Q583.166 279.449 581.175 281.648 Q579.185 283.847 579.185 287.644 L579.185 302.296 L574.902 302.296 L574.902 276.371 L579.185 276.371 L579.185 280.398 Q580.712 278.06 582.772 276.903 Q584.856 275.746 587.564 275.746 Q592.032 275.746 594.323 278.523 Q596.615 281.278 596.615 286.648 Z" fill="#000000" fill-rule="nonzero" fill-opacity="1" /><path clip-path="url(#clip100)" d="M618.235 266.278 L618.235 269.82 L614.161 269.82 Q611.87 269.82 610.967 270.746 Q610.087 271.671 610.087 274.079 L610.087 276.371 L617.101 276.371 L617.101 279.681 L610.087 279.681 L610.087 302.296 L605.805 302.296 L605.805 279.681 L601.731 279.681 L601.731 276.371 L605.805 276.371 L605.805 274.565 Q605.805 270.236 607.819 268.269 Q609.833 266.278 614.207 266.278 L618.235 266.278 Z" fill="#000000" fill-rule="nonzero" fill-opacity="1" /><path clip-path="url(#clip100)" d="M643.976 288.269 L643.976 290.352 L624.393 290.352 Q624.67 294.75 627.032 297.065 Q629.416 299.356 633.652 299.356 Q636.106 299.356 638.397 298.755 Q640.712 298.153 642.98 296.949 L642.98 300.977 Q640.689 301.949 638.281 302.458 Q635.874 302.968 633.397 302.968 Q627.194 302.968 623.559 299.356 Q619.948 295.745 619.948 289.588 Q619.948 283.222 623.374 279.495 Q626.823 275.746 632.656 275.746 Q637.888 275.746 640.92 279.125 Q643.976 282.482 643.976 288.269 M639.717 287.019 Q639.67 283.523 637.749 281.44 Q635.851 279.357 632.703 279.357 Q629.138 279.357 626.985 281.37 Q624.856 283.384 624.532 287.042 L639.717 287.019 Z" fill="#000000" fill-rule="nonzero" fill-opacity="1" /><path clip-path="url(#clip100)" d="M669.624 277.366 L669.624 281.347 Q667.818 280.352 665.99 279.866 Q664.184 279.357 662.332 279.357 Q658.189 279.357 655.897 281.995 Q653.605 284.611 653.605 289.357 Q653.605 294.102 655.897 296.741 Q658.189 299.356 662.332 299.356 Q664.184 299.356 665.99 298.87 Q667.818 298.361 669.624 297.366 L669.624 301.301 Q667.841 302.134 665.92 302.551 Q664.022 302.968 661.869 302.968 Q656.013 302.968 652.564 299.287 Q649.115 295.607 649.115 289.357 Q649.115 283.014 652.587 279.38 Q656.082 275.746 662.147 275.746 Q664.115 275.746 665.99 276.162 Q667.865 276.556 669.624 277.366 Z" fill="#000000" fill-rule="nonzero" fill-opacity="1" /><path clip-path="url(#clip100)" d="M681.244 269.009 L681.244 276.371 L690.017 276.371 L690.017 279.681 L681.244 279.681 L681.244 293.755 Q681.244 296.926 682.101 297.829 Q682.98 298.731 685.642 298.731 L690.017 298.731 L690.017 302.296 L685.642 302.296 Q680.712 302.296 678.837 300.468 Q676.962 298.616 676.962 293.755 L676.962 279.681 L673.837 279.681 L673.837 276.371 L676.962 276.371 L676.962 269.009 L681.244 269.009 Z" fill="#000000" fill-rule="nonzero" fill-opacity="1" /><path clip-path="url(#clip100)" d="M717.795 288.269 L717.795 290.352 L698.212 290.352 Q698.489 294.75 700.851 297.065 Q703.235 299.356 707.471 299.356 Q709.925 299.356 712.216 298.755 Q714.531 298.153 716.8 296.949 L716.8 300.977 Q714.508 301.949 712.1 302.458 Q709.693 302.968 707.216 302.968 Q701.013 302.968 697.378 299.356 Q693.767 295.745 693.767 289.588 Q693.767 283.222 697.193 279.495 Q700.642 275.746 706.476 275.746 Q711.707 275.746 714.739 279.125 Q717.795 282.482 717.795 288.269 M713.536 287.019 Q713.489 283.523 711.568 281.44 Q709.67 279.357 706.522 279.357 Q702.957 279.357 700.804 281.37 Q698.675 283.384 698.351 287.042 L713.536 287.019 Z" fill="#000000" fill-rule="nonzero" fill-opacity="1" /><path clip-path="url(#clip100)" d="M741.846 280.306 L741.846 266.278 L746.105 266.278 L746.105 302.296 L741.846 302.296 L741.846 298.407 Q740.503 300.722 738.443 301.856 Q736.406 302.968 733.536 302.968 Q728.837 302.968 725.874 299.218 Q722.934 295.468 722.934 289.357 Q722.934 283.245 725.874 279.495 Q728.837 275.746 733.536 275.746 Q736.406 275.746 738.443 276.88 Q740.503 277.991 741.846 280.306 M727.332 289.357 Q727.332 294.056 729.253 296.741 Q731.198 299.403 734.577 299.403 Q737.957 299.403 739.901 296.741 Q741.846 294.056 741.846 289.357 Q741.846 284.657 739.901 281.995 Q737.957 279.31 734.577 279.31 Q731.198 279.31 729.253 281.995 Q727.332 284.657 727.332 289.357 Z" fill="#000000" fill-rule="nonzero" fill-opacity="1" /><polyline clip-path="url(#clip100)" style="stroke:#ffa500; stroke-linecap:round; stroke-linejoin:round; stroke-width:8; stroke-opacity:1; fill:none" stroke-dasharray="32, 20" points="377.01,336.856 534.945,336.856 "/>
<path clip-path="url(#clip100)" d="M583.513 320.711 L583.513 325.271 Q580.851 323.998 578.49 323.373 Q576.129 322.748 573.93 322.748 Q570.111 322.748 568.027 324.229 Q565.967 325.711 565.967 328.442 Q565.967 330.734 567.333 331.914 Q568.722 333.072 572.564 333.789 L575.388 334.368 Q580.62 335.363 583.097 337.886 Q585.597 340.386 585.597 344.599 Q585.597 349.622 582.217 352.215 Q578.86 354.808 572.356 354.808 Q569.902 354.808 567.124 354.252 Q564.37 353.696 561.407 352.609 L561.407 347.794 Q564.254 349.391 566.986 350.201 Q569.717 351.011 572.356 351.011 Q576.36 351.011 578.536 349.437 Q580.712 347.863 580.712 344.947 Q580.712 342.4 579.138 340.965 Q577.587 339.53 574.023 338.812 L571.175 338.257 Q565.944 337.215 563.606 334.993 Q561.268 332.771 561.268 328.812 Q561.268 324.229 564.486 321.59 Q567.726 318.951 573.398 318.951 Q575.828 318.951 578.351 319.391 Q580.874 319.831 583.513 320.711 Z" fill="#000000" fill-rule="nonzero" fill-opacity="1" /><path clip-path="url(#clip100)" d="M603.49 356.544 Q601.684 361.173 599.971 362.585 Q598.259 363.997 595.388 363.997 L591.985 363.997 L591.985 360.433 L594.485 360.433 Q596.245 360.433 597.217 359.599 Q598.189 358.766 599.37 355.664 L600.133 353.72 L589.647 328.211 L594.161 328.211 L602.263 348.488 L610.365 328.211 L614.879 328.211 L603.49 356.544 Z" fill="#000000" fill-rule="nonzero" fill-opacity="1" /><path clip-path="url(#clip100)" d="M640.943 333.187 Q642.541 330.317 644.763 328.951 Q646.985 327.586 649.994 327.586 Q654.045 327.586 656.244 330.433 Q658.443 333.257 658.443 338.488 L658.443 354.136 L654.161 354.136 L654.161 338.627 Q654.161 334.9 652.842 333.095 Q651.522 331.289 648.814 331.289 Q645.504 331.289 643.582 333.488 Q641.661 335.687 641.661 339.484 L641.661 354.136 L637.379 354.136 L637.379 338.627 Q637.379 334.877 636.059 333.095 Q634.74 331.289 631.985 331.289 Q628.721 331.289 626.8 333.511 Q624.879 335.71 624.879 339.484 L624.879 354.136 L620.596 354.136 L620.596 328.211 L624.879 328.211 L624.879 332.238 Q626.337 329.854 628.374 328.72 Q630.411 327.586 633.212 327.586 Q636.036 327.586 638.004 329.021 Q639.994 330.456 640.943 333.187 Z" fill="#000000" fill-rule="nonzero" fill-opacity="1" /><path clip-path="url(#clip100)" d="M671.059 350.247 L671.059 363.997 L666.777 363.997 L666.777 328.211 L671.059 328.211 L671.059 332.146 Q672.402 329.831 674.439 328.72 Q676.499 327.586 679.346 327.586 Q684.068 327.586 687.008 331.335 Q689.971 335.085 689.971 341.197 Q689.971 347.308 687.008 351.058 Q684.068 354.808 679.346 354.808 Q676.499 354.808 674.439 353.696 Q672.402 352.562 671.059 350.247 M685.55 341.197 Q685.55 336.497 683.605 333.835 Q681.684 331.15 678.304 331.15 Q674.925 331.15 672.98 333.835 Q671.059 336.497 671.059 341.197 Q671.059 345.896 672.98 348.581 Q674.925 351.243 678.304 351.243 Q681.684 351.243 683.605 348.581 Q685.55 345.896 685.55 341.197 Z" fill="#000000" fill-rule="nonzero" fill-opacity="1" /><path clip-path="url(#clip100)" d="M701.244 320.849 L701.244 328.211 L710.017 328.211 L710.017 331.521 L701.244 331.521 L701.244 345.595 Q701.244 348.766 702.101 349.669 Q702.98 350.571 705.642 350.571 L710.017 350.571 L710.017 354.136 L705.642 354.136 Q700.712 354.136 698.837 352.308 Q696.962 350.456 696.962 345.595 L696.962 331.521 L693.837 331.521 L693.837 328.211 L696.962 328.211 L696.962 320.849 L701.244 320.849 Z" fill="#000000" fill-rule="nonzero" fill-opacity="1" /><path clip-path="url(#clip100)" d="M725.665 331.197 Q722.239 331.197 720.249 333.882 Q718.258 336.544 718.258 341.197 Q718.258 345.849 720.225 348.534 Q722.216 351.196 725.665 351.196 Q729.068 351.196 731.059 348.511 Q733.049 345.826 733.049 341.197 Q733.049 336.59 731.059 333.905 Q729.068 331.197 725.665 331.197 M725.665 327.586 Q731.221 327.586 734.392 331.197 Q737.563 334.808 737.563 341.197 Q737.563 347.562 734.392 351.196 Q731.221 354.808 725.665 354.808 Q720.087 354.808 716.915 351.196 Q713.767 347.562 713.767 341.197 Q713.767 334.808 716.915 331.197 Q720.087 327.586 725.665 327.586 Z" fill="#000000" fill-rule="nonzero" fill-opacity="1" /><path clip-path="url(#clip100)" d="M764.809 333.187 Q766.406 330.317 768.628 328.951 Q770.85 327.586 773.859 327.586 Q777.91 327.586 780.109 330.433 Q782.308 333.257 782.308 338.488 L782.308 354.136 L778.026 354.136 L778.026 338.627 Q778.026 334.9 776.707 333.095 Q775.387 331.289 772.679 331.289 Q769.369 331.289 767.447 333.488 Q765.526 335.687 765.526 339.484 L765.526 354.136 L761.244 354.136 L761.244 338.627 Q761.244 334.877 759.924 333.095 Q758.605 331.289 755.85 331.289 Q752.586 331.289 750.665 333.511 Q748.744 335.71 748.744 339.484 L748.744 354.136 L744.461 354.136 L744.461 328.211 L748.744 328.211 L748.744 332.238 Q750.202 329.854 752.239 328.72 Q754.276 327.586 757.077 327.586 Q759.901 327.586 761.869 329.021 Q763.859 330.456 764.809 333.187 Z" fill="#000000" fill-rule="nonzero" fill-opacity="1" /><path clip-path="url(#clip100)" d="M802.586 341.104 Q797.424 341.104 795.433 342.284 Q793.443 343.465 793.443 346.312 Q793.443 348.581 794.924 349.923 Q796.429 351.243 798.998 351.243 Q802.54 351.243 804.669 348.743 Q806.822 346.22 806.822 342.053 L806.822 341.104 L802.586 341.104 M811.081 339.345 L811.081 354.136 L806.822 354.136 L806.822 350.201 Q805.364 352.562 803.188 353.696 Q801.012 354.808 797.864 354.808 Q793.882 354.808 791.521 352.585 Q789.183 350.34 789.183 346.59 Q789.183 342.215 792.1 339.993 Q795.04 337.771 800.85 337.771 L806.822 337.771 L806.822 337.354 Q806.822 334.414 804.878 332.817 Q802.956 331.197 799.461 331.197 Q797.239 331.197 795.132 331.729 Q793.026 332.261 791.082 333.326 L791.082 329.391 Q793.419 328.488 795.619 328.048 Q797.818 327.586 799.901 327.586 Q805.526 327.586 808.304 330.502 Q811.081 333.419 811.081 339.345 Z" fill="#000000" fill-rule="nonzero" fill-opacity="1" /><path clip-path="url(#clip100)" d="M824.067 320.849 L824.067 328.211 L832.841 328.211 L832.841 331.521 L824.067 331.521 L824.067 345.595 Q824.067 348.766 824.924 349.669 Q825.804 350.571 828.466 350.571 L832.841 350.571 L832.841 354.136 L828.466 354.136 Q823.535 354.136 821.66 352.308 Q819.785 350.456 819.785 345.595 L819.785 331.521 L816.66 331.521 L816.66 328.211 L819.785 328.211 L819.785 320.849 L824.067 320.849 Z" fill="#000000" fill-rule="nonzero" fill-opacity="1" /><path clip-path="url(#clip100)" d="M838.442 328.211 L842.702 328.211 L842.702 354.136 L838.442 354.136 L838.442 328.211 M838.442 318.118 L842.702 318.118 L842.702 323.511 L838.442 323.511 L838.442 318.118 Z" fill="#000000" fill-rule="nonzero" fill-opacity="1" /><path clip-path="url(#clip100)" d="M870.271 329.206 L870.271 333.187 Q868.465 332.192 866.637 331.706 Q864.831 331.197 862.979 331.197 Q858.836 331.197 856.544 333.835 Q854.253 336.451 854.253 341.197 Q854.253 345.942 856.544 348.581 Q858.836 351.196 862.979 351.196 Q864.831 351.196 866.637 350.71 Q868.465 350.201 870.271 349.206 L870.271 353.141 Q868.489 353.974 866.567 354.391 Q864.669 354.808 862.516 354.808 Q856.66 354.808 853.211 351.127 Q849.762 347.447 849.762 341.197 Q849.762 334.854 853.234 331.22 Q856.729 327.586 862.794 327.586 Q864.762 327.586 866.637 328.002 Q868.512 328.396 870.271 329.206 Z" fill="#000000" fill-rule="nonzero" fill-opacity="1" /><polyline clip-path="url(#clip100)" style="stroke:#008000; stroke-linecap:round; stroke-linejoin:round; stroke-width:8; stroke-opacity:1; fill:none" points="377.01,388.696 534.945,388.696 "/>
<path clip-path="url(#clip100)" d="M577.657 389.773 Q579.161 390.282 580.573 391.949 Q582.009 393.615 583.444 396.532 L588.189 405.976 L583.166 405.976 L578.745 397.111 Q577.032 393.638 575.411 392.504 Q573.814 391.37 571.036 391.37 L565.944 391.37 L565.944 405.976 L561.268 405.976 L561.268 371.416 L571.823 371.416 Q577.749 371.416 580.666 373.893 Q583.583 376.37 583.583 381.37 Q583.583 384.634 582.055 386.787 Q580.55 388.939 577.657 389.773 M565.944 375.259 L565.944 387.527 L571.823 387.527 Q575.203 387.527 576.916 385.976 Q578.652 384.402 578.652 381.37 Q578.652 378.338 576.916 376.81 Q575.203 375.259 571.823 375.259 L565.944 375.259 Z" fill="#000000" fill-rule="nonzero" fill-opacity="1" /><path clip-path="url(#clip100)" d="M614.069 391.949 L614.069 394.032 L594.485 394.032 Q594.763 398.43 597.124 400.745 Q599.509 403.036 603.745 403.036 Q606.198 403.036 608.49 402.435 Q610.805 401.833 613.073 400.629 L613.073 404.657 Q610.782 405.629 608.374 406.138 Q605.967 406.648 603.49 406.648 Q597.286 406.648 593.652 403.036 Q590.041 399.425 590.041 393.268 Q590.041 386.902 593.467 383.175 Q596.916 379.426 602.749 379.426 Q607.981 379.426 611.013 382.805 Q614.069 386.162 614.069 391.949 M609.809 390.699 Q609.763 387.203 607.842 385.12 Q605.944 383.037 602.796 383.037 Q599.231 383.037 597.078 385.05 Q594.948 387.064 594.624 390.722 L609.809 390.699 Z" fill="#000000" fill-rule="nonzero" fill-opacity="1" /><path clip-path="url(#clip100)" d="M639.717 381.046 L639.717 385.027 Q637.911 384.032 636.082 383.546 Q634.277 383.037 632.425 383.037 Q628.281 383.037 625.99 385.675 Q623.698 388.291 623.698 393.037 Q623.698 397.782 625.99 400.421 Q628.281 403.036 632.425 403.036 Q634.277 403.036 636.082 402.55 Q637.911 402.041 639.717 401.046 L639.717 404.981 Q637.934 405.814 636.013 406.231 Q634.115 406.648 631.962 406.648 Q626.106 406.648 622.657 402.967 Q619.207 399.287 619.207 393.037 Q619.207 386.694 622.68 383.06 Q626.175 379.426 632.24 379.426 Q634.207 379.426 636.082 379.842 Q637.957 380.236 639.717 381.046 Z" fill="#000000" fill-rule="nonzero" fill-opacity="1" /><path clip-path="url(#clip100)" d="M657.17 383.037 Q653.744 383.037 651.754 385.722 Q649.763 388.384 649.763 393.037 Q649.763 397.689 651.73 400.374 Q653.721 403.036 657.17 403.036 Q660.573 403.036 662.564 400.351 Q664.554 397.666 664.554 393.037 Q664.554 388.43 662.564 385.745 Q660.573 383.037 657.17 383.037 M657.17 379.426 Q662.726 379.426 665.897 383.037 Q669.068 386.648 669.068 393.037 Q669.068 399.402 665.897 403.036 Q662.726 406.648 657.17 406.648 Q651.592 406.648 648.42 403.036 Q645.272 399.402 645.272 393.037 Q645.272 386.648 648.42 383.037 Q651.592 379.426 657.17 379.426 Z" fill="#000000" fill-rule="nonzero" fill-opacity="1" /><path clip-path="url(#clip100)" d="M673.073 380.051 L677.587 380.051 L685.689 401.81 L693.79 380.051 L698.304 380.051 L688.582 405.976 L682.795 405.976 L673.073 380.051 Z" fill="#000000" fill-rule="nonzero" fill-opacity="1" /><path clip-path="url(#clip100)" d="M726.36 391.949 L726.36 394.032 L706.776 394.032 Q707.054 398.43 709.415 400.745 Q711.8 403.036 716.036 403.036 Q718.489 403.036 720.781 402.435 Q723.096 401.833 725.364 400.629 L725.364 404.657 Q723.073 405.629 720.665 406.138 Q718.258 406.648 715.781 406.648 Q709.577 406.648 705.943 403.036 Q702.332 399.425 702.332 393.268 Q702.332 386.902 705.758 383.175 Q709.207 379.426 715.04 379.426 Q720.272 379.426 723.304 382.805 Q726.36 386.162 726.36 391.949 M722.1 390.699 Q722.054 387.203 720.133 385.12 Q718.235 383.037 715.087 383.037 Q711.522 383.037 709.369 385.05 Q707.239 387.064 706.915 390.722 L722.1 390.699 Z" fill="#000000" fill-rule="nonzero" fill-opacity="1" /><path clip-path="url(#clip100)" d="M748.373 384.032 Q747.656 383.615 746.799 383.43 Q745.966 383.222 744.948 383.222 Q741.336 383.222 739.392 385.583 Q737.471 387.921 737.471 392.319 L737.471 405.976 L733.188 405.976 L733.188 380.051 L737.471 380.051 L737.471 384.078 Q738.813 381.717 740.966 380.583 Q743.119 379.426 746.198 379.426 Q746.637 379.426 747.17 379.495 Q747.702 379.541 748.35 379.657 L748.373 384.032 Z" fill="#000000" fill-rule="nonzero" fill-opacity="1" /><path clip-path="url(#clip100)" d="M773.975 391.949 L773.975 394.032 L754.392 394.032 Q754.67 398.43 757.031 400.745 Q759.415 403.036 763.651 403.036 Q766.105 403.036 768.396 402.435 Q770.711 401.833 772.98 400.629 L772.98 404.657 Q770.688 405.629 768.281 406.138 Q765.873 406.648 763.397 406.648 Q757.193 406.648 753.559 403.036 Q749.948 399.425 749.948 393.268 Q749.948 386.902 753.373 383.175 Q756.822 379.426 762.656 379.426 Q767.887 379.426 770.92 382.805 Q773.975 386.162 773.975 391.949 M769.716 390.699 Q769.67 387.203 767.748 385.12 Q765.85 383.037 762.702 383.037 Q759.137 383.037 756.985 385.05 Q754.855 387.064 754.531 390.722 L769.716 390.699 Z" fill="#000000" fill-rule="nonzero" fill-opacity="1" /><path clip-path="url(#clip100)" d="M798.026 383.986 L798.026 369.958 L802.285 369.958 L802.285 405.976 L798.026 405.976 L798.026 402.087 Q796.683 404.402 794.623 405.536 Q792.586 406.648 789.716 406.648 Q785.017 406.648 782.054 402.898 Q779.114 399.148 779.114 393.037 Q779.114 386.925 782.054 383.175 Q785.017 379.426 789.716 379.426 Q792.586 379.426 794.623 380.56 Q796.683 381.671 798.026 383.986 M783.512 393.037 Q783.512 397.736 785.433 400.421 Q787.378 403.083 790.757 403.083 Q794.137 403.083 796.082 400.421 Q798.026 397.736 798.026 393.037 Q798.026 388.337 796.082 385.675 Q794.137 382.99 790.757 382.99 Q787.378 382.99 785.433 385.675 Q783.512 388.337 783.512 393.037 Z" fill="#000000" fill-rule="nonzero" fill-opacity="1" /></svg>
