<?xml version="1.0" encoding="utf-8"?>
<svg xmlns="http://www.w3.org/2000/svg" xmlns:xlink="http://www.w3.org/1999/xlink" width="672" height="480" viewBox="0 0 2688 1920">
<defs>
  <clipPath id="clip760">
    <rect x="0" y="0" width="2688" height="1920"/>
  </clipPath>
</defs>
<path clip-path="url(#clip760)" d="M0 1920 L2688 1920 L2688 -4.26326e-14 L0 -4.26326e-14  Z" fill="#ffffff" fill-rule="evenodd" fill-opacity="1"/>
<defs>
  <clipPath id="clip761">
    <rect x="255" y="127" width="2386" height="1607"/>
  </clipPath>
</defs>
<path clip-path="url(#clip760)" d="M255.816 1734.12 L2640.76 1734.12 L2640.76 127.792 L255.816 127.792  Z" fill="#ffffff" fill-rule="evenodd" fill-opacity="1"/>
<polyline clip-path="url(#clip761)" style="stroke:#000000; stroke-linecap:round; stroke-linejoin:round; stroke-width:2; stroke-opacity:0.1; fill:none" points="323.315,1734.12 323.315,127.792 "/>
<polyline clip-path="url(#clip761)" style="stroke:#000000; stroke-linecap:round; stroke-linejoin:round; stroke-width:2; stroke-opacity:0.1; fill:none" points="885.8,1734.12 885.8,127.792 "/>
<polyline clip-path="url(#clip761)" style="stroke:#000000; stroke-linecap:round; stroke-linejoin:round; stroke-width:2; stroke-opacity:0.1; fill:none" points="1448.29,1734.12 1448.29,127.792 "/>
<polyline clip-path="url(#clip761)" style="stroke:#000000; stroke-linecap:round; stroke-linejoin:round; stroke-width:2; stroke-opacity:0.1; fill:none" points="2010.77,1734.12 2010.77,127.792 "/>
<polyline clip-path="url(#clip761)" style="stroke:#000000; stroke-linecap:round; stroke-linejoin:round; stroke-width:2; stroke-opacity:0.1; fill:none" points="2573.26,1734.12 2573.26,127.792 "/>
<polyline clip-path="url(#clip761)" style="stroke:#000000; stroke-linecap:round; stroke-linejoin:round; stroke-width:2; stroke-opacity:0.1; fill:none" points="255.816,1711.73 2640.76,1711.73 "/>
<polyline clip-path="url(#clip761)" style="stroke:#000000; stroke-linecap:round; stroke-linejoin:round; stroke-width:2; stroke-opacity:0.1; fill:none" points="255.816,1327.11 2640.76,1327.11 "/>
<polyline clip-path="url(#clip761)" style="stroke:#000000; stroke-linecap:round; stroke-linejoin:round; stroke-width:2; stroke-opacity:0.1; fill:none" points="255.816,942.493 2640.76,942.493 "/>
<polyline clip-path="url(#clip761)" style="stroke:#000000; stroke-linecap:round; stroke-linejoin:round; stroke-width:2; stroke-opacity:0.1; fill:none" points="255.816,557.874 2640.76,557.874 "/>
<polyline clip-path="url(#clip761)" style="stroke:#000000; stroke-linecap:round; stroke-linejoin:round; stroke-width:2; stroke-opacity:0.1; fill:none" points="255.816,173.254 2640.76,173.254 "/>
<polyline clip-path="url(#clip760)" style="stroke:#000000; stroke-linecap:round; stroke-linejoin:round; stroke-width:4; stroke-opacity:1; fill:none" points="255.816,1734.12 2640.76,1734.12 "/>
<polyline clip-path="url(#clip760)" style="stroke:#000000; stroke-linecap:round; stroke-linejoin:round; stroke-width:4; stroke-opacity:1; fill:none" points="323.315,1734.12 323.315,1715.22 "/>
<polyline clip-path="url(#clip760)" style="stroke:#000000; stroke-linecap:round; stroke-linejoin:round; stroke-width:4; stroke-opacity:1; fill:none" points="885.8,1734.12 885.8,1715.22 "/>
<polyline clip-path="url(#clip760)" style="stroke:#000000; stroke-linecap:round; stroke-linejoin:round; stroke-width:4; stroke-opacity:1; fill:none" points="1448.29,1734.12 1448.29,1715.22 "/>
<polyline clip-path="url(#clip760)" style="stroke:#000000; stroke-linecap:round; stroke-linejoin:round; stroke-width:4; stroke-opacity:1; fill:none" points="2010.77,1734.12 2010.77,1715.22 "/>
<polyline clip-path="url(#clip760)" style="stroke:#000000; stroke-linecap:round; stroke-linejoin:round; stroke-width:4; stroke-opacity:1; fill:none" points="2573.26,1734.12 2573.26,1715.22 "/>
<path clip-path="url(#clip760)" d="M323.315 1767.34 Q319.704 1767.34 317.875 1770.9 Q316.069 1774.45 316.069 1781.58 Q316.069 1788.68 317.875 1792.25 Q319.704 1795.79 323.315 1795.79 Q326.949 1795.79 328.754 1792.25 Q330.583 1788.68 330.583 1781.58 Q330.583 1774.45 328.754 1770.9 Q326.949 1767.34 323.315 1767.34 M323.315 1763.64 Q329.125 1763.64 332.18 1768.24 Q335.259 1772.83 335.259 1781.58 Q335.259 1790.3 332.18 1794.91 Q329.125 1799.49 323.315 1799.49 Q317.504 1799.49 314.426 1794.91 Q311.37 1790.3 311.37 1781.58 Q311.37 1772.83 314.426 1768.24 Q317.504 1763.64 323.315 1763.64 Z" fill="#000000" fill-rule="nonzero" fill-opacity="1" /><path clip-path="url(#clip760)" d="M860.488 1794.89 L868.127 1794.89 L868.127 1768.52 L859.817 1770.19 L859.817 1765.93 L868.081 1764.26 L872.756 1764.26 L872.756 1794.89 L880.395 1794.89 L880.395 1798.82 L860.488 1798.82 L860.488 1794.89 Z" fill="#000000" fill-rule="nonzero" fill-opacity="1" /><path clip-path="url(#clip760)" d="M899.84 1767.34 Q896.229 1767.34 894.4 1770.9 Q892.594 1774.45 892.594 1781.58 Q892.594 1788.68 894.4 1792.25 Q896.229 1795.79 899.84 1795.79 Q903.474 1795.79 905.279 1792.25 Q907.108 1788.68 907.108 1781.58 Q907.108 1774.45 905.279 1770.9 Q903.474 1767.34 899.84 1767.34 M899.84 1763.64 Q905.65 1763.64 908.705 1768.24 Q911.784 1772.83 911.784 1781.58 Q911.784 1790.3 908.705 1794.91 Q905.65 1799.49 899.84 1799.49 Q894.029 1799.49 890.951 1794.91 Q887.895 1790.3 887.895 1781.58 Q887.895 1772.83 890.951 1768.24 Q894.029 1763.64 899.84 1763.64 Z" fill="#000000" fill-rule="nonzero" fill-opacity="1" /><path clip-path="url(#clip760)" d="M1427.06 1794.89 L1443.38 1794.89 L1443.38 1798.82 L1421.43 1798.82 L1421.43 1794.89 Q1424.1 1792.13 1428.68 1787.5 Q1433.29 1782.85 1434.47 1781.51 Q1436.71 1778.98 1437.59 1777.25 Q1438.49 1775.49 1438.49 1773.8 Q1438.49 1771.04 1436.55 1769.31 Q1434.63 1767.57 1431.53 1767.57 Q1429.33 1767.57 1426.87 1768.34 Q1424.44 1769.1 1421.67 1770.65 L1421.67 1765.93 Q1424.49 1764.79 1426.94 1764.21 Q1429.4 1763.64 1431.43 1763.64 Q1436.8 1763.64 1440 1766.32 Q1443.19 1769.01 1443.19 1773.5 Q1443.19 1775.63 1442.38 1777.55 Q1441.6 1779.45 1439.49 1782.04 Q1438.91 1782.71 1435.81 1785.93 Q1432.71 1789.12 1427.06 1794.89 Z" fill="#000000" fill-rule="nonzero" fill-opacity="1" /><path clip-path="url(#clip760)" d="M1463.19 1767.34 Q1459.58 1767.34 1457.75 1770.9 Q1455.95 1774.45 1455.95 1781.58 Q1455.95 1788.68 1457.75 1792.25 Q1459.58 1795.79 1463.19 1795.79 Q1466.83 1795.79 1468.63 1792.25 Q1470.46 1788.68 1470.46 1781.58 Q1470.46 1774.45 1468.63 1770.9 Q1466.83 1767.34 1463.19 1767.34 M1463.19 1763.64 Q1469 1763.64 1472.06 1768.24 Q1475.14 1772.83 1475.14 1781.58 Q1475.14 1790.3 1472.06 1794.91 Q1469 1799.49 1463.19 1799.49 Q1457.38 1799.49 1454.3 1794.91 Q1451.25 1790.3 1451.25 1781.58 Q1451.25 1772.83 1454.3 1768.24 Q1457.38 1763.64 1463.19 1763.64 Z" fill="#000000" fill-rule="nonzero" fill-opacity="1" /><path clip-path="url(#clip760)" d="M1999.61 1780.19 Q2002.97 1780.9 2004.85 1783.17 Q2006.74 1785.44 2006.74 1788.77 Q2006.74 1793.89 2003.23 1796.69 Q1999.71 1799.49 1993.23 1799.49 Q1991.05 1799.49 1988.73 1799.05 Q1986.44 1798.64 1983.99 1797.78 L1983.99 1793.27 Q1985.93 1794.4 1988.25 1794.98 Q1990.56 1795.56 1993.09 1795.56 Q1997.48 1795.56 1999.78 1793.82 Q2002.09 1792.08 2002.09 1788.77 Q2002.09 1785.72 1999.94 1784.01 Q1997.81 1782.27 1993.99 1782.27 L1989.96 1782.27 L1989.96 1778.43 L1994.17 1778.43 Q1997.62 1778.43 1999.45 1777.06 Q2001.28 1775.67 2001.28 1773.08 Q2001.28 1770.42 1999.38 1769.01 Q1997.51 1767.57 1993.99 1767.57 Q1992.07 1767.57 1989.87 1767.99 Q1987.67 1768.4 1985.03 1769.28 L1985.03 1765.12 Q1987.69 1764.38 1990.01 1764.01 Q1992.35 1763.64 1994.41 1763.64 Q1999.73 1763.64 2002.83 1766.07 Q2005.93 1768.47 2005.93 1772.59 Q2005.93 1775.46 2004.29 1777.46 Q2002.65 1779.42 1999.61 1780.19 Z" fill="#000000" fill-rule="nonzero" fill-opacity="1" /><path clip-path="url(#clip760)" d="M2025.61 1767.34 Q2022 1767.34 2020.17 1770.9 Q2018.36 1774.45 2018.36 1781.58 Q2018.36 1788.68 2020.17 1792.25 Q2022 1795.79 2025.61 1795.79 Q2029.24 1795.79 2031.05 1792.25 Q2032.88 1788.68 2032.88 1781.58 Q2032.88 1774.45 2031.05 1770.9 Q2029.24 1767.34 2025.61 1767.34 M2025.61 1763.64 Q2031.42 1763.64 2034.48 1768.24 Q2037.55 1772.83 2037.55 1781.58 Q2037.55 1790.3 2034.48 1794.91 Q2031.42 1799.49 2025.61 1799.49 Q2019.8 1799.49 2016.72 1794.91 Q2013.67 1790.3 2013.67 1781.58 Q2013.67 1772.83 2016.72 1768.24 Q2019.8 1763.64 2025.61 1763.64 Z" fill="#000000" fill-rule="nonzero" fill-opacity="1" /><path clip-path="url(#clip760)" d="M2561.43 1768.34 L2549.62 1786.78 L2561.43 1786.78 L2561.43 1768.34 M2560.2 1764.26 L2566.08 1764.26 L2566.08 1786.78 L2571.01 1786.78 L2571.01 1790.67 L2566.08 1790.67 L2566.08 1798.82 L2561.43 1798.82 L2561.43 1790.67 L2545.83 1790.67 L2545.83 1786.16 L2560.2 1764.26 Z" fill="#000000" fill-rule="nonzero" fill-opacity="1" /><path clip-path="url(#clip760)" d="M2588.74 1767.34 Q2585.13 1767.34 2583.3 1770.9 Q2581.5 1774.45 2581.5 1781.58 Q2581.5 1788.68 2583.3 1792.25 Q2585.13 1795.79 2588.74 1795.79 Q2592.38 1795.79 2594.18 1792.25 Q2596.01 1788.68 2596.01 1781.58 Q2596.01 1774.45 2594.18 1770.9 Q2592.38 1767.34 2588.74 1767.34 M2588.74 1763.64 Q2594.55 1763.64 2597.61 1768.24 Q2600.69 1772.83 2600.69 1781.58 Q2600.69 1790.3 2597.61 1794.91 Q2594.55 1799.49 2588.74 1799.49 Q2582.93 1799.49 2579.85 1794.91 Q2576.8 1790.3 2576.8 1781.58 Q2576.8 1772.83 2579.85 1768.24 Q2582.93 1763.64 2588.74 1763.64 Z" fill="#000000" fill-rule="nonzero" fill-opacity="1" /><path clip-path="url(#clip760)" d="M1394.53 1841.06 L1394.53 1878.02 L1402.29 1878.02 Q1412.13 1878.02 1416.68 1873.56 Q1421.26 1869.11 1421.26 1859.49 Q1421.26 1849.94 1416.68 1845.52 Q1412.13 1841.06 1402.29 1841.06 L1394.53 1841.06 M1388.1 1835.78 L1401.31 1835.78 Q1415.12 1835.78 1421.58 1841.54 Q1428.04 1847.27 1428.04 1859.49 Q1428.04 1871.78 1421.55 1877.54 Q1415.06 1883.3 1401.31 1883.3 L1388.1 1883.3 L1388.1 1835.78 Z" fill="#000000" fill-rule="nonzero" fill-opacity="1" /><path clip-path="url(#clip760)" d="M1454.24 1865.38 Q1447.14 1865.38 1444.4 1867 Q1441.67 1868.63 1441.67 1872.54 Q1441.67 1875.66 1443.7 1877.51 Q1445.77 1879.32 1449.3 1879.32 Q1454.17 1879.32 1457.1 1875.88 Q1460.06 1872.42 1460.06 1866.69 L1460.06 1865.38 L1454.24 1865.38 M1465.92 1862.96 L1465.92 1883.3 L1460.06 1883.3 L1460.06 1877.89 Q1458.06 1881.14 1455.07 1882.7 Q1452.07 1884.22 1447.75 1884.22 Q1442.27 1884.22 1439.02 1881.17 Q1435.81 1878.08 1435.81 1872.92 Q1435.81 1866.91 1439.82 1863.85 Q1443.86 1860.8 1451.85 1860.8 L1460.06 1860.8 L1460.06 1860.23 Q1460.06 1856.18 1457.39 1853.99 Q1454.75 1851.76 1449.94 1851.76 Q1446.89 1851.76 1443.99 1852.49 Q1441.09 1853.22 1438.42 1854.69 L1438.42 1849.28 Q1441.63 1848.03 1444.66 1847.43 Q1447.68 1846.79 1450.55 1846.79 Q1458.28 1846.79 1462.1 1850.8 Q1465.92 1854.81 1465.92 1862.96 Z" fill="#000000" fill-rule="nonzero" fill-opacity="1" /><path clip-path="url(#clip760)" d="M1492.81 1886.61 Q1490.33 1892.98 1487.98 1894.92 Q1485.62 1896.86 1481.67 1896.86 L1477 1896.86 L1477 1891.96 L1480.43 1891.96 Q1482.85 1891.96 1484.19 1890.81 Q1485.53 1889.67 1487.15 1885.4 L1488.2 1882.73 L1473.78 1847.65 L1479.99 1847.65 L1491.13 1875.53 L1502.27 1847.65 L1508.47 1847.65 L1492.81 1886.61 Z" fill="#000000" fill-rule="nonzero" fill-opacity="1" /><polyline clip-path="url(#clip760)" style="stroke:#000000; stroke-linecap:round; stroke-linejoin:round; stroke-width:4; stroke-opacity:1; fill:none" points="255.816,1734.12 255.816,127.792 "/>
<polyline clip-path="url(#clip760)" style="stroke:#000000; stroke-linecap:round; stroke-linejoin:round; stroke-width:4; stroke-opacity:1; fill:none" points="255.816,1711.73 274.714,1711.73 "/>
<polyline clip-path="url(#clip760)" style="stroke:#000000; stroke-linecap:round; stroke-linejoin:round; stroke-width:4; stroke-opacity:1; fill:none" points="255.816,1327.11 274.714,1327.11 "/>
<polyline clip-path="url(#clip760)" style="stroke:#000000; stroke-linecap:round; stroke-linejoin:round; stroke-width:4; stroke-opacity:1; fill:none" points="255.816,942.493 274.714,942.493 "/>
<polyline clip-path="url(#clip760)" style="stroke:#000000; stroke-linecap:round; stroke-linejoin:round; stroke-width:4; stroke-opacity:1; fill:none" points="255.816,557.874 274.714,557.874 "/>
<polyline clip-path="url(#clip760)" style="stroke:#000000; stroke-linecap:round; stroke-linejoin:round; stroke-width:4; stroke-opacity:1; fill:none" points="255.816,173.254 274.714,173.254 "/>
<path clip-path="url(#clip760)" d="M128.159 1697.53 Q124.548 1697.53 122.719 1701.1 Q120.913 1704.64 120.913 1711.77 Q120.913 1718.87 122.719 1722.44 Q124.548 1725.98 128.159 1725.98 Q131.793 1725.98 133.599 1722.44 Q135.427 1718.87 135.427 1711.77 Q135.427 1704.64 133.599 1701.1 Q131.793 1697.53 128.159 1697.53 M128.159 1693.83 Q133.969 1693.83 137.025 1698.43 Q140.103 1703.02 140.103 1711.77 Q140.103 1720.49 137.025 1725.1 Q133.969 1729.68 128.159 1729.68 Q122.349 1729.68 119.27 1725.1 Q116.214 1720.49 116.214 1711.77 Q116.214 1703.02 119.27 1698.43 Q122.349 1693.83 128.159 1693.83 Z" fill="#000000" fill-rule="nonzero" fill-opacity="1" /><path clip-path="url(#clip760)" d="M148.321 1723.13 L153.205 1723.13 L153.205 1729.01 L148.321 1729.01 L148.321 1723.13 Z" fill="#000000" fill-rule="nonzero" fill-opacity="1" /><path clip-path="url(#clip760)" d="M173.39 1697.53 Q169.779 1697.53 167.95 1701.1 Q166.145 1704.64 166.145 1711.77 Q166.145 1718.87 167.95 1722.44 Q169.779 1725.98 173.39 1725.98 Q177.024 1725.98 178.83 1722.44 Q180.659 1718.87 180.659 1711.77 Q180.659 1704.64 178.83 1701.1 Q177.024 1697.53 173.39 1697.53 M173.39 1693.83 Q179.2 1693.83 182.256 1698.43 Q185.334 1703.02 185.334 1711.77 Q185.334 1720.49 182.256 1725.1 Q179.2 1729.68 173.39 1729.68 Q167.58 1729.68 164.501 1725.1 Q161.446 1720.49 161.446 1711.77 Q161.446 1703.02 164.501 1698.43 Q167.58 1693.83 173.39 1693.83 Z" fill="#000000" fill-rule="nonzero" fill-opacity="1" /><path clip-path="url(#clip760)" d="M203.552 1697.53 Q199.941 1697.53 198.112 1701.1 Q196.307 1704.64 196.307 1711.77 Q196.307 1718.87 198.112 1722.44 Q199.941 1725.98 203.552 1725.98 Q207.186 1725.98 208.992 1722.44 Q210.82 1718.87 210.82 1711.77 Q210.82 1704.64 208.992 1701.1 Q207.186 1697.53 203.552 1697.53 M203.552 1693.83 Q209.362 1693.83 212.418 1698.43 Q215.496 1703.02 215.496 1711.77 Q215.496 1720.49 212.418 1725.1 Q209.362 1729.68 203.552 1729.68 Q197.742 1729.68 194.663 1725.1 Q191.608 1720.49 191.608 1711.77 Q191.608 1703.02 194.663 1698.43 Q197.742 1693.83 203.552 1693.83 Z" fill="#000000" fill-rule="nonzero" fill-opacity="1" /><path clip-path="url(#clip760)" d="M129.154 1312.91 Q125.543 1312.91 123.714 1316.48 Q121.909 1320.02 121.909 1327.15 Q121.909 1334.25 123.714 1337.82 Q125.543 1341.36 129.154 1341.36 Q132.788 1341.36 134.594 1337.82 Q136.423 1334.25 136.423 1327.15 Q136.423 1320.02 134.594 1316.48 Q132.788 1312.91 129.154 1312.91 M129.154 1309.21 Q134.964 1309.21 138.02 1313.81 Q141.099 1318.4 141.099 1327.15 Q141.099 1335.87 138.02 1340.48 Q134.964 1345.06 129.154 1345.06 Q123.344 1345.06 120.265 1340.48 Q117.21 1335.87 117.21 1327.15 Q117.21 1318.4 120.265 1313.81 Q123.344 1309.21 129.154 1309.21 Z" fill="#000000" fill-rule="nonzero" fill-opacity="1" /><path clip-path="url(#clip760)" d="M149.316 1338.51 L154.2 1338.51 L154.2 1344.39 L149.316 1344.39 L149.316 1338.51 Z" fill="#000000" fill-rule="nonzero" fill-opacity="1" /><path clip-path="url(#clip760)" d="M168.413 1340.46 L184.733 1340.46 L184.733 1344.39 L162.788 1344.39 L162.788 1340.46 Q165.45 1337.7 170.034 1333.07 Q174.64 1328.42 175.821 1327.08 Q178.066 1324.55 178.946 1322.82 Q179.848 1321.06 179.848 1319.37 Q179.848 1316.62 177.904 1314.88 Q175.983 1313.14 172.881 1313.14 Q170.682 1313.14 168.228 1313.91 Q165.798 1314.67 163.02 1316.22 L163.02 1311.5 Q165.844 1310.37 168.297 1309.79 Q170.751 1309.21 172.788 1309.21 Q178.159 1309.21 181.353 1311.89 Q184.547 1314.58 184.547 1319.07 Q184.547 1321.2 183.737 1323.12 Q182.95 1325.02 180.844 1327.61 Q180.265 1328.28 177.163 1331.5 Q174.061 1334.69 168.413 1340.46 Z" fill="#000000" fill-rule="nonzero" fill-opacity="1" /><path clip-path="url(#clip760)" d="M194.594 1309.83 L212.95 1309.83 L212.95 1313.77 L198.876 1313.77 L198.876 1322.24 Q199.895 1321.89 200.913 1321.73 Q201.932 1321.55 202.95 1321.55 Q208.737 1321.55 212.117 1324.72 Q215.496 1327.89 215.496 1333.3 Q215.496 1338.88 212.024 1341.99 Q208.552 1345.06 202.233 1345.06 Q200.057 1345.06 197.788 1344.69 Q195.543 1344.32 193.135 1343.58 L193.135 1338.88 Q195.219 1340.02 197.441 1340.57 Q199.663 1341.13 202.14 1341.13 Q206.145 1341.13 208.482 1339.02 Q210.82 1336.92 210.82 1333.3 Q210.82 1329.69 208.482 1327.59 Q206.145 1325.48 202.14 1325.48 Q200.265 1325.48 198.39 1325.9 Q196.538 1326.31 194.594 1327.19 L194.594 1309.83 Z" fill="#000000" fill-rule="nonzero" fill-opacity="1" /><path clip-path="url(#clip760)" d="M128.159 928.292 Q124.548 928.292 122.719 931.857 Q120.913 935.398 120.913 942.528 Q120.913 949.634 122.719 953.199 Q124.548 956.741 128.159 956.741 Q131.793 956.741 133.599 953.199 Q135.427 949.634 135.427 942.528 Q135.427 935.398 133.599 931.857 Q131.793 928.292 128.159 928.292 M128.159 924.588 Q133.969 924.588 137.025 929.195 Q140.103 933.778 140.103 942.528 Q140.103 951.255 137.025 955.861 Q133.969 960.444 128.159 960.444 Q122.349 960.444 119.27 955.861 Q116.214 951.255 116.214 942.528 Q116.214 933.778 119.27 929.195 Q122.349 924.588 128.159 924.588 Z" fill="#000000" fill-rule="nonzero" fill-opacity="1" /><path clip-path="url(#clip760)" d="M148.321 953.894 L153.205 953.894 L153.205 959.773 L148.321 959.773 L148.321 953.894 Z" fill="#000000" fill-rule="nonzero" fill-opacity="1" /><path clip-path="url(#clip760)" d="M163.436 925.213 L181.793 925.213 L181.793 929.148 L167.719 929.148 L167.719 937.62 Q168.737 937.273 169.756 937.111 Q170.774 936.926 171.793 936.926 Q177.58 936.926 180.959 940.097 Q184.339 943.269 184.339 948.685 Q184.339 954.264 180.867 957.366 Q177.395 960.444 171.075 960.444 Q168.899 960.444 166.631 960.074 Q164.385 959.704 161.978 958.963 L161.978 954.264 Q164.061 955.398 166.284 955.954 Q168.506 956.509 170.983 956.509 Q174.987 956.509 177.325 954.403 Q179.663 952.296 179.663 948.685 Q179.663 945.074 177.325 942.968 Q174.987 940.861 170.983 940.861 Q169.108 940.861 167.233 941.278 Q165.381 941.695 163.436 942.574 L163.436 925.213 Z" fill="#000000" fill-rule="nonzero" fill-opacity="1" /><path clip-path="url(#clip760)" d="M203.552 928.292 Q199.941 928.292 198.112 931.857 Q196.307 935.398 196.307 942.528 Q196.307 949.634 198.112 953.199 Q199.941 956.741 203.552 956.741 Q207.186 956.741 208.992 953.199 Q210.82 949.634 210.82 942.528 Q210.82 935.398 208.992 931.857 Q207.186 928.292 203.552 928.292 M203.552 924.588 Q209.362 924.588 212.418 929.195 Q215.496 933.778 215.496 942.528 Q215.496 951.255 212.418 955.861 Q209.362 960.444 203.552 960.444 Q197.742 960.444 194.663 955.861 Q191.608 951.255 191.608 942.528 Q191.608 933.778 194.663 929.195 Q197.742 924.588 203.552 924.588 Z" fill="#000000" fill-rule="nonzero" fill-opacity="1" /><path clip-path="url(#clip760)" d="M129.154 543.672 Q125.543 543.672 123.714 547.237 Q121.909 550.779 121.909 557.908 Q121.909 565.015 123.714 568.58 Q125.543 572.121 129.154 572.121 Q132.788 572.121 134.594 568.58 Q136.423 565.015 136.423 557.908 Q136.423 550.779 134.594 547.237 Q132.788 543.672 129.154 543.672 M129.154 539.969 Q134.964 539.969 138.02 544.575 Q141.099 549.158 141.099 557.908 Q141.099 566.635 138.02 571.242 Q134.964 575.825 129.154 575.825 Q123.344 575.825 120.265 571.242 Q117.21 566.635 117.21 557.908 Q117.21 549.158 120.265 544.575 Q123.344 539.969 129.154 539.969 Z" fill="#000000" fill-rule="nonzero" fill-opacity="1" /><path clip-path="url(#clip760)" d="M149.316 569.274 L154.2 569.274 L154.2 575.154 L149.316 575.154 L149.316 569.274 Z" fill="#000000" fill-rule="nonzero" fill-opacity="1" /><path clip-path="url(#clip760)" d="M163.205 540.594 L185.427 540.594 L185.427 542.584 L172.881 575.154 L167.997 575.154 L179.802 544.529 L163.205 544.529 L163.205 540.594 Z" fill="#000000" fill-rule="nonzero" fill-opacity="1" /><path clip-path="url(#clip760)" d="M194.594 540.594 L212.95 540.594 L212.95 544.529 L198.876 544.529 L198.876 553.001 Q199.895 552.654 200.913 552.492 Q201.932 552.307 202.95 552.307 Q208.737 552.307 212.117 555.478 Q215.496 558.649 215.496 564.066 Q215.496 569.644 212.024 572.746 Q208.552 575.825 202.233 575.825 Q200.057 575.825 197.788 575.455 Q195.543 575.084 193.135 574.343 L193.135 569.644 Q195.219 570.779 197.441 571.334 Q199.663 571.89 202.14 571.89 Q206.145 571.89 208.482 569.783 Q210.82 567.677 210.82 564.066 Q210.82 560.455 208.482 558.348 Q206.145 556.242 202.14 556.242 Q200.265 556.242 198.39 556.658 Q196.538 557.075 194.594 557.955 L194.594 540.594 Z" fill="#000000" fill-rule="nonzero" fill-opacity="1" /><path clip-path="url(#clip760)" d="M118.969 186.599 L126.608 186.599 L126.608 160.233 L118.298 161.9 L118.298 157.641 L126.562 155.974 L131.238 155.974 L131.238 186.599 L138.876 186.599 L138.876 190.534 L118.969 190.534 L118.969 186.599 Z" fill="#000000" fill-rule="nonzero" fill-opacity="1" /><path clip-path="url(#clip760)" d="M148.321 184.655 L153.205 184.655 L153.205 190.534 L148.321 190.534 L148.321 184.655 Z" fill="#000000" fill-rule="nonzero" fill-opacity="1" /><path clip-path="url(#clip760)" d="M173.39 159.053 Q169.779 159.053 167.95 162.618 Q166.145 166.159 166.145 173.289 Q166.145 180.395 167.95 183.96 Q169.779 187.502 173.39 187.502 Q177.024 187.502 178.83 183.96 Q180.659 180.395 180.659 173.289 Q180.659 166.159 178.83 162.618 Q177.024 159.053 173.39 159.053 M173.39 155.349 Q179.2 155.349 182.256 159.956 Q185.334 164.539 185.334 173.289 Q185.334 182.016 182.256 186.622 Q179.2 191.205 173.39 191.205 Q167.58 191.205 164.501 186.622 Q161.446 182.016 161.446 173.289 Q161.446 164.539 164.501 159.956 Q167.58 155.349 173.39 155.349 Z" fill="#000000" fill-rule="nonzero" fill-opacity="1" /><path clip-path="url(#clip760)" d="M203.552 159.053 Q199.941 159.053 198.112 162.618 Q196.307 166.159 196.307 173.289 Q196.307 180.395 198.112 183.96 Q199.941 187.502 203.552 187.502 Q207.186 187.502 208.992 183.96 Q210.82 180.395 210.82 173.289 Q210.82 166.159 208.992 162.618 Q207.186 159.053 203.552 159.053 M203.552 155.349 Q209.362 155.349 212.418 159.956 Q215.496 164.539 215.496 173.289 Q215.496 182.016 212.418 186.622 Q209.362 191.205 203.552 191.205 Q197.742 191.205 194.663 186.622 Q191.608 182.016 191.608 173.289 Q191.608 164.539 194.663 159.956 Q197.742 155.349 203.552 155.349 Z" fill="#000000" fill-rule="nonzero" fill-opacity="1" /><path clip-path="url(#clip760)" d="M19.402 1098.4 L37.2578 1098.4 L37.2578 1090.32 Q37.2578 1085.83 34.9343 1083.38 Q32.6108 1080.93 28.314 1080.93 Q24.0489 1080.93 21.7255 1083.38 Q19.402 1085.83 19.402 1090.32 L19.402 1098.4 M14.1184 1104.83 L14.1184 1090.32 Q14.1184 1082.33 17.7469 1078.26 Q21.3435 1074.15 28.314 1074.15 Q35.3481 1074.15 38.9447 1078.26 Q42.5413 1082.33 42.5413 1090.32 L42.5413 1098.4 L61.6384 1098.4 L61.6384 1104.83 L14.1184 1104.83 Z" fill="#000000" fill-rule="nonzero" fill-opacity="1" /><path clip-path="url(#clip760)" d="M31.465 1046.27 Q30.8921 1047.26 30.6375 1048.43 Q30.351 1049.58 30.351 1050.98 Q30.351 1055.95 33.5975 1058.62 Q36.8122 1061.26 42.8596 1061.26 L61.6384 1061.26 L61.6384 1067.15 L25.9905 1067.15 L25.9905 1061.26 L31.5287 1061.26 Q28.2821 1059.41 26.7225 1056.45 Q25.1311 1053.49 25.1311 1049.26 Q25.1311 1048.66 25.2266 1047.92 Q25.2903 1047.19 25.4494 1046.3 L31.465 1046.27 Z" fill="#000000" fill-rule="nonzero" fill-opacity="1" /><path clip-path="url(#clip760)" d="M42.3504 1011.07 L45.2149 1011.07 L45.2149 1037.99 Q51.2623 1037.61 54.4452 1034.37 Q57.5962 1031.09 57.5962 1025.26 Q57.5962 1021.89 56.7687 1018.74 Q55.9411 1015.55 54.2861 1012.44 L59.8242 1012.44 Q61.161 1015.59 61.8612 1018.9 Q62.5615 1022.21 62.5615 1025.61 Q62.5615 1034.14 57.5962 1039.14 Q52.631 1044.1 44.1646 1044.1 Q35.4117 1044.1 30.2873 1039.39 Q25.1311 1034.65 25.1311 1026.63 Q25.1311 1019.44 29.7781 1015.27 Q34.3932 1011.07 42.3504 1011.07 M40.6316 1016.92 Q35.8255 1016.99 32.9609 1019.63 Q30.0964 1022.24 30.0964 1026.57 Q30.0964 1031.47 32.8654 1034.43 Q35.6345 1037.36 40.6634 1037.8 L40.6316 1016.92 Z" fill="#000000" fill-rule="nonzero" fill-opacity="1" /><path clip-path="url(#clip760)" d="M25.9905 1005.66 L25.9905 999.45 L55.9093 988.31 L25.9905 977.17 L25.9905 970.963 L61.6384 984.331 L61.6384 992.288 L25.9905 1005.66 Z" fill="#000000" fill-rule="nonzero" fill-opacity="1" /><path clip-path="url(#clip760)" d="M43.719 946.678 Q43.719 953.776 45.3422 956.513 Q46.9655 959.25 50.8804 959.25 Q53.9996 959.25 55.8457 957.213 Q57.6599 955.144 57.6599 951.611 Q57.6599 946.742 54.2224 943.813 Q50.7531 940.853 45.0239 940.853 L43.719 940.853 L43.719 946.678 M41.3 934.997 L61.6384 934.997 L61.6384 940.853 L56.2276 940.853 Q59.4741 942.858 61.0337 945.85 Q62.5615 948.842 62.5615 953.171 Q62.5615 958.645 59.5059 961.892 Q56.4186 965.107 51.2623 965.107 Q45.2467 965.107 42.1912 961.096 Q39.1357 957.054 39.1357 949.065 L39.1357 940.853 L38.5628 940.853 Q34.5205 940.853 32.3244 943.527 Q30.0964 946.169 30.0964 950.975 Q30.0964 954.03 30.8284 956.927 Q31.5605 959.823 33.0246 962.497 L27.6137 962.497 Q26.3724 959.282 25.7677 956.258 Q25.1311 953.235 25.1311 950.37 Q25.1311 942.636 29.1415 938.816 Q33.1519 934.997 41.3 934.997 Z" fill="#000000" fill-rule="nonzero" fill-opacity="1" /><path clip-path="url(#clip760)" d="M12.1132 922.934 L12.1132 917.077 L61.6384 917.077 L61.6384 922.934 L12.1132 922.934 Z" fill="#000000" fill-rule="nonzero" fill-opacity="1" /><path clip-path="url(#clip760)" d="M42.3504 874.332 L45.2149 874.332 L45.2149 901.259 Q51.2623 900.877 54.4452 897.63 Q57.5962 894.352 57.5962 888.527 Q57.5962 885.153 56.7687 882.002 Q55.9411 878.819 54.2861 875.7 L59.8242 875.7 Q61.161 878.851 61.8612 882.161 Q62.5615 885.472 62.5615 888.877 Q62.5615 897.407 57.5962 902.404 Q52.631 907.37 44.1646 907.37 Q35.4117 907.37 30.2873 902.659 Q25.1311 897.917 25.1311 889.896 Q25.1311 882.702 29.7781 878.533 Q34.3932 874.332 42.3504 874.332 M40.6316 880.188 Q35.8255 880.252 32.9609 882.893 Q30.0964 885.503 30.0964 889.832 Q30.0964 894.734 32.8654 897.694 Q35.6345 900.622 40.6634 901.068 L40.6316 880.188 Z" fill="#000000" fill-rule="nonzero" fill-opacity="1" /><path clip-path="url(#clip760)" d="M40.1224 835.087 L61.6384 835.087 L61.6384 840.943 L40.3133 840.943 Q35.2526 840.943 32.7381 842.917 Q30.2237 844.89 30.2237 848.837 Q30.2237 853.579 33.2474 856.317 Q36.2711 859.054 41.491 859.054 L61.6384 859.054 L61.6384 864.942 L25.9905 864.942 L25.9905 859.054 L31.5287 859.054 Q28.314 856.953 26.7225 854.12 Q25.1311 851.256 25.1311 847.532 Q25.1311 841.389 28.9505 838.238 Q32.7381 835.087 40.1224 835.087 Z" fill="#000000" fill-rule="nonzero" fill-opacity="1" /><path clip-path="url(#clip760)" d="M27.3591 797.752 L32.8336 797.752 Q31.465 800.235 30.7966 802.749 Q30.0964 805.232 30.0964 807.778 Q30.0964 813.475 33.7248 816.626 Q37.3214 819.777 43.8463 819.777 Q50.3711 819.777 53.9996 816.626 Q57.5962 813.475 57.5962 807.778 Q57.5962 805.232 56.9278 802.749 Q56.2276 800.235 54.859 797.752 L60.2698 797.752 Q61.4156 800.203 61.9886 802.845 Q62.5615 805.455 62.5615 808.415 Q62.5615 816.467 57.5007 821.21 Q52.44 825.952 43.8463 825.952 Q35.1253 825.952 30.1282 821.178 Q25.1311 816.372 25.1311 808.033 Q25.1311 805.327 25.704 802.749 Q26.2451 800.171 27.3591 797.752 Z" fill="#000000" fill-rule="nonzero" fill-opacity="1" /><path clip-path="url(#clip760)" d="M42.3504 757.075 L45.2149 757.075 L45.2149 784.002 Q51.2623 783.62 54.4452 780.374 Q57.5962 777.095 57.5962 771.271 Q57.5962 767.897 56.7687 764.746 Q55.9411 761.563 54.2861 758.444 L59.8242 758.444 Q61.161 761.595 61.8612 764.905 Q62.5615 768.215 62.5615 771.621 Q62.5615 780.151 57.5962 785.148 Q52.631 790.113 44.1646 790.113 Q35.4117 790.113 30.2873 785.403 Q25.1311 780.66 25.1311 772.639 Q25.1311 765.446 29.7781 761.277 Q34.3932 757.075 42.3504 757.075 M40.6316 762.932 Q35.8255 762.995 32.9609 765.637 Q30.0964 768.247 30.0964 772.576 Q30.0964 777.477 32.8654 780.437 Q35.6345 783.366 40.6634 783.811 L40.6316 762.932 Z" fill="#000000" fill-rule="nonzero" fill-opacity="1" /><path clip-path="url(#clip760)" d="M646.308 14.0809 L646.308 22.0612 Q641.65 19.8332 637.518 18.7395 Q633.386 17.6457 629.538 17.6457 Q622.854 17.6457 619.208 20.2383 Q615.602 22.8309 615.602 27.611 Q615.602 31.6214 617.993 33.6873 Q620.423 35.7128 627.148 36.9686 L632.09 37.9813 Q641.245 39.7232 645.579 44.1387 Q649.954 48.5136 649.954 55.8863 Q649.954 64.6767 644.04 69.2137 Q638.166 73.7508 626.783 73.7508 Q622.489 73.7508 617.628 72.7785 Q612.807 71.8063 607.622 69.9024 L607.622 61.4765 Q612.605 64.2716 617.385 65.6895 Q622.165 67.1073 626.783 67.1073 Q633.791 67.1073 637.599 64.3527 Q641.407 61.598 641.407 56.4939 Q641.407 52.0379 638.652 49.5264 Q635.938 47.0148 629.7 45.759 L624.717 44.7868 Q615.562 42.9639 611.471 39.075 Q607.379 35.1862 607.379 28.2591 Q607.379 20.2383 613.01 15.6203 Q618.681 11.0023 628.606 11.0023 Q632.859 11.0023 637.275 11.7719 Q641.69 12.5416 646.308 14.0809 Z" fill="#000000" fill-rule="nonzero" fill-opacity="1" /><path clip-path="url(#clip760)" d="M662.715 12.096 L670.897 12.096 L670.897 72.576 L662.715 72.576 L662.715 12.096 Z" fill="#000000" fill-rule="nonzero" fill-opacity="1" /><path clip-path="url(#clip760)" d="M723.438 14.0809 L723.438 22.0612 Q718.779 19.8332 714.647 18.7395 Q710.515 17.6457 706.667 17.6457 Q699.983 17.6457 696.337 20.2383 Q692.732 22.8309 692.732 27.611 Q692.732 31.6214 695.122 33.6873 Q697.552 35.7128 704.277 36.9686 L709.219 37.9813 Q718.374 39.7232 722.708 44.1387 Q727.083 48.5136 727.083 55.8863 Q727.083 64.6767 721.169 69.2137 Q715.295 73.7508 703.912 73.7508 Q699.618 73.7508 694.757 72.7785 Q689.937 71.8063 684.751 69.9024 L684.751 61.4765 Q689.734 64.2716 694.514 65.6895 Q699.294 67.1073 703.912 67.1073 Q710.92 67.1073 714.728 64.3527 Q718.536 61.598 718.536 56.4939 Q718.536 52.0379 715.781 49.5264 Q713.067 47.0148 706.829 45.759 L701.846 44.7868 Q692.691 42.9639 688.6 39.075 Q684.508 35.1862 684.508 28.2591 Q684.508 20.2383 690.139 15.6203 Q695.81 11.0023 705.735 11.0023 Q709.989 11.0023 714.404 11.7719 Q718.82 12.5416 723.438 14.0809 Z" fill="#000000" fill-rule="nonzero" fill-opacity="1" /><path clip-path="url(#clip760)" d="M761.557 27.2059 L769.01 27.2059 L778.327 62.6108 L787.604 27.2059 L796.394 27.2059 L805.711 62.6108 L814.988 27.2059 L822.442 27.2059 L810.573 72.576 L801.782 72.576 L792.019 35.3887 L782.216 72.576 L773.426 72.576 L761.557 27.2059 Z" fill="#000000" fill-rule="nonzero" fill-opacity="1" /><path clip-path="url(#clip760)" d="M833.744 27.2059 L841.197 27.2059 L841.197 72.576 L833.744 72.576 L833.744 27.2059 M833.744 9.54393 L841.197 9.54393 L841.197 18.9825 L833.744 18.9825 L833.744 9.54393 Z" fill="#000000" fill-rule="nonzero" fill-opacity="1" /><path clip-path="url(#clip760)" d="M864.166 14.324 L864.166 27.2059 L879.519 27.2059 L879.519 32.9987 L864.166 32.9987 L864.166 57.6282 Q864.166 63.1779 865.665 64.7578 Q867.204 66.3376 871.863 66.3376 L879.519 66.3376 L879.519 72.576 L871.863 72.576 Q863.234 72.576 859.953 69.3758 Q856.672 66.1351 856.672 57.6282 L856.672 32.9987 L851.203 32.9987 L851.203 27.2059 L856.672 27.2059 L856.672 14.324 L864.166 14.324 Z" fill="#000000" fill-rule="nonzero" fill-opacity="1" /><path clip-path="url(#clip760)" d="M927.036 45.1919 L927.036 72.576 L919.582 72.576 L919.582 45.4349 Q919.582 38.994 917.071 35.7938 Q914.559 32.5936 909.536 32.5936 Q903.5 32.5936 900.016 36.4419 Q896.533 40.2903 896.533 46.9338 L896.533 72.576 L889.039 72.576 L889.039 9.54393 L896.533 9.54393 L896.533 34.2544 Q899.206 30.163 902.812 28.1376 Q906.457 26.1121 911.197 26.1121 Q919.015 26.1121 923.026 30.9732 Q927.036 35.7938 927.036 45.1919 Z" fill="#000000" fill-rule="nonzero" fill-opacity="1" /><path clip-path="url(#clip760)" d="M1004.85 14.0809 L1004.85 22.0612 Q1000.2 19.8332 996.063 18.7395 Q991.931 17.6457 988.083 17.6457 Q981.399 17.6457 977.753 20.2383 Q974.148 22.8309 974.148 27.611 Q974.148 31.6214 976.538 33.6873 Q978.969 35.7128 985.693 36.9686 L990.635 37.9813 Q999.79 39.7232 1004.12 44.1387 Q1008.5 48.5136 1008.5 55.8863 Q1008.5 64.6767 1002.59 69.2137 Q996.712 73.7508 985.329 73.7508 Q981.035 73.7508 976.173 72.7785 Q971.353 71.8063 966.168 69.9024 L966.168 61.4765 Q971.15 64.2716 975.93 65.6895 Q980.71 67.1073 985.329 67.1073 Q992.337 67.1073 996.144 64.3527 Q999.952 61.598 999.952 56.4939 Q999.952 52.0379 997.198 49.5264 Q994.484 47.0148 988.245 45.759 L983.263 44.7868 Q974.108 42.9639 970.016 39.075 Q965.925 35.1862 965.925 28.2591 Q965.925 20.2383 971.555 15.6203 Q977.227 11.0023 987.151 11.0023 Q991.405 11.0023 995.82 11.7719 Q1000.24 12.5416 1004.85 14.0809 Z" fill="#000000" fill-rule="nonzero" fill-opacity="1" /><path clip-path="url(#clip760)" d="M1059.74 48.0275 L1059.74 51.6733 L1025.47 51.6733 Q1025.96 59.3701 1030.09 63.421 Q1034.26 67.4314 1041.68 67.4314 Q1045.97 67.4314 1049.98 66.3781 Q1054.03 65.3249 1058 63.2184 L1058 70.267 Q1053.99 71.9684 1049.78 72.8596 Q1045.57 73.7508 1041.23 73.7508 Q1030.37 73.7508 1024.01 67.4314 Q1017.7 61.1119 1017.7 50.3365 Q1017.7 39.1965 1023.69 32.6746 Q1029.73 26.1121 1039.93 26.1121 Q1049.09 26.1121 1054.4 32.0264 Q1059.74 37.9003 1059.74 48.0275 M1052.29 45.84 Q1052.21 39.7232 1048.85 36.0774 Q1045.52 32.4315 1040.02 32.4315 Q1033.78 32.4315 1030.01 35.9558 Q1026.28 39.4801 1025.72 45.8805 L1052.29 45.84 Z" fill="#000000" fill-rule="nonzero" fill-opacity="1" /><path clip-path="url(#clip760)" d="M1092.6 49.7694 Q1083.56 49.7694 1080.08 51.8354 Q1076.6 53.9013 1076.6 58.8839 Q1076.6 62.8538 1079.19 65.2034 Q1081.82 67.5124 1086.32 67.5124 Q1092.52 67.5124 1096.24 63.1374 Q1100.01 58.7219 1100.01 51.4303 L1100.01 49.7694 L1092.6 49.7694 M1107.46 46.6907 L1107.46 72.576 L1100.01 72.576 L1100.01 65.6895 Q1097.46 69.8214 1093.65 71.8063 Q1089.84 73.7508 1084.33 73.7508 Q1077.37 73.7508 1073.23 69.8619 Q1069.14 65.9325 1069.14 59.3701 Q1069.14 51.7138 1074.25 47.825 Q1079.39 43.9361 1089.56 43.9361 L1100.01 43.9361 L1100.01 43.2069 Q1100.01 38.0623 1096.61 35.2672 Q1093.24 32.4315 1087.13 32.4315 Q1083.24 32.4315 1079.55 33.3632 Q1075.87 34.295 1072.46 36.1584 L1072.46 29.2718 Q1076.55 27.692 1080.4 26.9223 Q1084.25 26.1121 1087.9 26.1121 Q1097.74 26.1121 1102.6 31.2163 Q1107.46 36.3204 1107.46 46.6907 Z" fill="#000000" fill-rule="nonzero" fill-opacity="1" /><path clip-path="url(#clip760)" d="M1151.74 28.5427 L1151.74 35.5912 Q1148.58 33.9709 1145.18 33.1607 Q1141.77 32.3505 1138.13 32.3505 Q1132.58 32.3505 1129.78 34.0519 Q1127.03 35.7533 1127.03 39.156 Q1127.03 41.7486 1129.01 43.2475 Q1131 44.7058 1136.99 46.0426 L1139.55 46.6097 Q1147.49 48.3111 1150.81 51.4303 Q1154.17 54.509 1154.17 60.0587 Q1154.17 66.3781 1149.15 70.0644 Q1144.16 73.7508 1135.41 73.7508 Q1131.77 73.7508 1127.8 73.0216 Q1123.87 72.3329 1119.49 70.9151 L1119.49 63.2184 Q1123.63 65.3654 1127.64 66.4591 Q1131.65 67.5124 1135.58 67.5124 Q1140.84 67.5124 1143.68 65.73 Q1146.51 63.9071 1146.51 60.6258 Q1146.51 57.5877 1144.45 55.9673 Q1142.42 54.3469 1135.5 52.8481 L1132.9 52.2405 Q1125.98 50.7821 1122.9 47.7845 Q1119.82 44.7463 1119.82 39.4801 Q1119.82 33.0797 1124.36 29.5959 Q1128.89 26.1121 1137.24 26.1121 Q1141.37 26.1121 1145.02 26.7198 Q1148.66 27.3274 1151.74 28.5427 Z" fill="#000000" fill-rule="nonzero" fill-opacity="1" /><path clip-path="url(#clip760)" d="M1183.62 32.4315 Q1177.62 32.4315 1174.14 37.1306 Q1170.66 41.7891 1170.66 49.9314 Q1170.66 58.0738 1174.1 62.7728 Q1177.58 67.4314 1183.62 67.4314 Q1189.58 67.4314 1193.06 62.7323 Q1196.54 58.0333 1196.54 49.9314 Q1196.54 41.8701 1193.06 37.1711 Q1189.58 32.4315 1183.62 32.4315 M1183.62 26.1121 Q1193.34 26.1121 1198.89 32.4315 Q1204.44 38.7509 1204.44 49.9314 Q1204.44 61.0714 1198.89 67.4314 Q1193.34 73.7508 1183.62 73.7508 Q1173.86 73.7508 1168.31 67.4314 Q1162.8 61.0714 1162.8 49.9314 Q1162.8 38.7509 1168.31 32.4315 Q1173.86 26.1121 1183.62 26.1121 Z" fill="#000000" fill-rule="nonzero" fill-opacity="1" /><path clip-path="url(#clip760)" d="M1254.51 45.1919 L1254.51 72.576 L1247.06 72.576 L1247.06 45.4349 Q1247.06 38.994 1244.55 35.7938 Q1242.03 32.5936 1237.01 32.5936 Q1230.98 32.5936 1227.49 36.4419 Q1224.01 40.2903 1224.01 46.9338 L1224.01 72.576 L1216.51 72.576 L1216.51 27.2059 L1224.01 27.2059 L1224.01 34.2544 Q1226.68 30.163 1230.29 28.1376 Q1233.93 26.1121 1238.67 26.1121 Q1246.49 26.1121 1250.5 30.9732 Q1254.51 35.7938 1254.51 45.1919 Z" fill="#000000" fill-rule="nonzero" fill-opacity="1" /><path clip-path="url(#clip760)" d="M1290 49.7694 Q1280.96 49.7694 1277.48 51.8354 Q1274 53.9013 1274 58.8839 Q1274 62.8538 1276.59 65.2034 Q1279.22 67.5124 1283.72 67.5124 Q1289.92 67.5124 1293.64 63.1374 Q1297.41 58.7219 1297.41 51.4303 L1297.41 49.7694 L1290 49.7694 M1304.86 46.6907 L1304.86 72.576 L1297.41 72.576 L1297.41 65.6895 Q1294.86 69.8214 1291.05 71.8063 Q1287.24 73.7508 1281.73 73.7508 Q1274.77 73.7508 1270.63 69.8619 Q1266.54 65.9325 1266.54 59.3701 Q1266.54 51.7138 1271.65 47.825 Q1276.79 43.9361 1286.96 43.9361 L1297.41 43.9361 L1297.41 43.2069 Q1297.41 38.0623 1294.01 35.2672 Q1290.65 32.4315 1284.53 32.4315 Q1280.64 32.4315 1276.95 33.3632 Q1273.27 34.295 1269.86 36.1584 L1269.86 29.2718 Q1273.96 27.692 1277.8 26.9223 Q1281.65 26.1121 1285.3 26.1121 Q1295.14 26.1121 1300 31.2163 Q1304.86 36.3204 1304.86 46.6907 Z" fill="#000000" fill-rule="nonzero" fill-opacity="1" /><path clip-path="url(#clip760)" d="M1320.22 9.54393 L1327.67 9.54393 L1327.67 72.576 L1320.22 72.576 L1320.22 9.54393 Z" fill="#000000" fill-rule="nonzero" fill-opacity="1" /><path clip-path="url(#clip760)" d="M1361.58 12.096 L1412.74 12.096 L1412.74 18.9825 L1391.27 18.9825 L1391.27 72.576 L1383.05 72.576 L1383.05 18.9825 L1361.58 18.9825 L1361.58 12.096 Z" fill="#000000" fill-rule="nonzero" fill-opacity="1" /><path clip-path="url(#clip760)" d="M1434.41 34.1734 Q1433.16 33.4443 1431.66 33.1202 Q1430.2 32.7556 1428.42 32.7556 Q1422.1 32.7556 1418.69 36.8875 Q1415.33 40.9789 1415.33 48.6757 L1415.33 72.576 L1407.84 72.576 L1407.84 27.2059 L1415.33 27.2059 L1415.33 34.2544 Q1417.68 30.1225 1421.45 28.1376 Q1425.22 26.1121 1430.6 26.1121 Q1431.37 26.1121 1432.31 26.2337 Q1433.24 26.3147 1434.37 26.5172 L1434.41 34.1734 Z" fill="#000000" fill-rule="nonzero" fill-opacity="1" /><path clip-path="url(#clip760)" d="M1462.85 49.7694 Q1453.82 49.7694 1450.33 51.8354 Q1446.85 53.9013 1446.85 58.8839 Q1446.85 62.8538 1449.44 65.2034 Q1452.07 67.5124 1456.57 67.5124 Q1462.77 67.5124 1466.49 63.1374 Q1470.26 58.7219 1470.26 51.4303 L1470.26 49.7694 L1462.85 49.7694 M1477.72 46.6907 L1477.72 72.576 L1470.26 72.576 L1470.26 65.6895 Q1467.71 69.8214 1463.9 71.8063 Q1460.09 73.7508 1454.59 73.7508 Q1447.62 73.7508 1443.49 69.8619 Q1439.39 65.9325 1439.39 59.3701 Q1439.39 51.7138 1444.5 47.825 Q1449.64 43.9361 1459.81 43.9361 L1470.26 43.9361 L1470.26 43.2069 Q1470.26 38.0623 1466.86 35.2672 Q1463.5 32.4315 1457.38 32.4315 Q1453.49 32.4315 1449.81 33.3632 Q1446.12 34.295 1442.72 36.1584 L1442.72 29.2718 Q1446.81 27.692 1450.66 26.9223 Q1454.5 26.1121 1458.15 26.1121 Q1467.99 26.1121 1472.85 31.2163 Q1477.72 36.3204 1477.72 46.6907 Z" fill="#000000" fill-rule="nonzero" fill-opacity="1" /><path clip-path="url(#clip760)" d="M1530.78 45.1919 L1530.78 72.576 L1523.33 72.576 L1523.33 45.4349 Q1523.33 38.994 1520.82 35.7938 Q1518.31 32.5936 1513.28 32.5936 Q1507.25 32.5936 1503.76 36.4419 Q1500.28 40.2903 1500.28 46.9338 L1500.28 72.576 L1492.79 72.576 L1492.79 27.2059 L1500.28 27.2059 L1500.28 34.2544 Q1502.95 30.163 1506.56 28.1376 Q1510.2 26.1121 1514.94 26.1121 Q1522.76 26.1121 1526.77 30.9732 Q1530.78 35.7938 1530.78 45.1919 Z" fill="#000000" fill-rule="nonzero" fill-opacity="1" /><path clip-path="url(#clip760)" d="M1574.57 28.5427 L1574.57 35.5912 Q1571.41 33.9709 1568.01 33.1607 Q1564.61 32.3505 1560.96 32.3505 Q1555.41 32.3505 1552.62 34.0519 Q1549.86 35.7533 1549.86 39.156 Q1549.86 41.7486 1551.85 43.2475 Q1553.83 44.7058 1559.83 46.0426 L1562.38 46.6097 Q1570.32 48.3111 1573.64 51.4303 Q1577 54.509 1577 60.0587 Q1577 66.3781 1571.98 70.0644 Q1567 73.7508 1558.25 73.7508 Q1554.6 73.7508 1550.63 73.0216 Q1546.7 72.3329 1542.33 70.9151 L1542.33 63.2184 Q1546.46 65.3654 1550.47 66.4591 Q1554.48 67.5124 1558.41 67.5124 Q1563.68 67.5124 1566.51 65.73 Q1569.35 63.9071 1569.35 60.6258 Q1569.35 57.5877 1567.28 55.9673 Q1565.26 54.3469 1558.33 52.8481 L1555.74 52.2405 Q1548.81 50.7821 1545.73 47.7845 Q1542.65 44.7463 1542.65 39.4801 Q1542.65 33.0797 1547.19 29.5959 Q1551.73 26.1121 1560.07 26.1121 Q1564.2 26.1121 1567.85 26.7198 Q1571.49 27.3274 1574.57 28.5427 Z" fill="#000000" fill-rule="nonzero" fill-opacity="1" /><path clip-path="url(#clip760)" d="M1624.2 35.9153 Q1626.99 30.8922 1630.88 28.5022 Q1634.77 26.1121 1640.04 26.1121 Q1647.12 26.1121 1650.97 31.0947 Q1654.82 36.0368 1654.82 45.1919 L1654.82 72.576 L1647.33 72.576 L1647.33 45.4349 Q1647.33 38.913 1645.02 35.7533 Q1642.71 32.5936 1637.97 32.5936 Q1632.18 32.5936 1628.81 36.4419 Q1625.45 40.2903 1625.45 46.9338 L1625.45 72.576 L1617.96 72.576 L1617.96 45.4349 Q1617.96 38.8725 1615.65 35.7533 Q1613.34 32.5936 1608.52 32.5936 Q1602.81 32.5936 1599.45 36.4824 Q1596.08 40.3308 1596.08 46.9338 L1596.08 72.576 L1588.59 72.576 L1588.59 27.2059 L1596.08 27.2059 L1596.08 34.2544 Q1598.64 30.082 1602.2 28.0971 Q1605.77 26.1121 1610.67 26.1121 Q1615.61 26.1121 1619.05 28.6237 Q1622.54 31.1352 1624.2 35.9153 Z" fill="#000000" fill-rule="nonzero" fill-opacity="1" /><path clip-path="url(#clip760)" d="M1669.69 27.2059 L1677.14 27.2059 L1677.14 72.576 L1669.69 72.576 L1669.69 27.2059 M1669.69 9.54393 L1677.14 9.54393 L1677.14 18.9825 L1669.69 18.9825 L1669.69 9.54393 Z" fill="#000000" fill-rule="nonzero" fill-opacity="1" /><path clip-path="url(#clip760)" d="M1721.66 28.5427 L1721.66 35.5912 Q1718.5 33.9709 1715.1 33.1607 Q1711.7 32.3505 1708.05 32.3505 Q1702.5 32.3505 1699.71 34.0519 Q1696.95 35.7533 1696.95 39.156 Q1696.95 41.7486 1698.94 43.2475 Q1700.92 44.7058 1706.92 46.0426 L1709.47 46.6097 Q1717.41 48.3111 1720.73 51.4303 Q1724.09 54.509 1724.09 60.0587 Q1724.09 66.3781 1719.07 70.0644 Q1714.09 73.7508 1705.34 73.7508 Q1701.69 73.7508 1697.72 73.0216 Q1693.79 72.3329 1689.42 70.9151 L1689.42 63.2184 Q1693.55 65.3654 1697.56 66.4591 Q1701.57 67.5124 1705.5 67.5124 Q1710.76 67.5124 1713.6 65.73 Q1716.44 63.9071 1716.44 60.6258 Q1716.44 57.5877 1714.37 55.9673 Q1712.34 54.3469 1705.42 52.8481 L1702.82 52.2405 Q1695.9 50.7821 1692.82 47.7845 Q1689.74 44.7463 1689.74 39.4801 Q1689.74 33.0797 1694.28 29.5959 Q1698.81 26.1121 1707.16 26.1121 Q1711.29 26.1121 1714.94 26.7198 Q1718.58 27.3274 1721.66 28.5427 Z" fill="#000000" fill-rule="nonzero" fill-opacity="1" /><path clip-path="url(#clip760)" d="M1764.88 28.5427 L1764.88 35.5912 Q1761.72 33.9709 1758.32 33.1607 Q1754.92 32.3505 1751.27 32.3505 Q1745.72 32.3505 1742.93 34.0519 Q1740.17 35.7533 1740.17 39.156 Q1740.17 41.7486 1742.16 43.2475 Q1744.14 44.7058 1750.14 46.0426 L1752.69 46.6097 Q1760.63 48.3111 1763.95 51.4303 Q1767.32 54.509 1767.32 60.0587 Q1767.32 66.3781 1762.29 70.0644 Q1757.31 73.7508 1748.56 73.7508 Q1744.91 73.7508 1740.94 73.0216 Q1737.01 72.3329 1732.64 70.9151 L1732.64 63.2184 Q1736.77 65.3654 1740.78 66.4591 Q1744.79 67.5124 1748.72 67.5124 Q1753.99 67.5124 1756.82 65.73 Q1759.66 63.9071 1759.66 60.6258 Q1759.66 57.5877 1757.59 55.9673 Q1755.57 54.3469 1748.64 52.8481 L1746.05 52.2405 Q1739.12 50.7821 1736.04 47.7845 Q1732.96 44.7463 1732.96 39.4801 Q1732.96 33.0797 1737.5 29.5959 Q1742.04 26.1121 1750.38 26.1121 Q1754.51 26.1121 1758.16 26.7198 Q1761.81 27.3274 1764.88 28.5427 Z" fill="#000000" fill-rule="nonzero" fill-opacity="1" /><path clip-path="url(#clip760)" d="M1779.18 27.2059 L1786.64 27.2059 L1786.64 72.576 L1779.18 72.576 L1779.18 27.2059 M1779.18 9.54393 L1786.64 9.54393 L1786.64 18.9825 L1779.18 18.9825 L1779.18 9.54393 Z" fill="#000000" fill-rule="nonzero" fill-opacity="1" /><path clip-path="url(#clip760)" d="M1819.81 32.4315 Q1813.82 32.4315 1810.34 37.1306 Q1806.85 41.7891 1806.85 49.9314 Q1806.85 58.0738 1810.3 62.7728 Q1813.78 67.4314 1819.81 67.4314 Q1825.77 67.4314 1829.25 62.7323 Q1832.74 58.0333 1832.74 49.9314 Q1832.74 41.8701 1829.25 37.1711 Q1825.77 32.4315 1819.81 32.4315 M1819.81 26.1121 Q1829.54 26.1121 1835.09 32.4315 Q1840.64 38.7509 1840.64 49.9314 Q1840.64 61.0714 1835.09 67.4314 Q1829.54 73.7508 1819.81 73.7508 Q1810.05 73.7508 1804.5 67.4314 Q1798.99 61.0714 1798.99 49.9314 Q1798.99 38.7509 1804.5 32.4315 Q1810.05 26.1121 1819.81 26.1121 Z" fill="#000000" fill-rule="nonzero" fill-opacity="1" /><path clip-path="url(#clip760)" d="M1890.71 45.1919 L1890.71 72.576 L1883.25 72.576 L1883.25 45.4349 Q1883.25 38.994 1880.74 35.7938 Q1878.23 32.5936 1873.21 32.5936 Q1867.17 32.5936 1863.69 36.4419 Q1860.2 40.2903 1860.2 46.9338 L1860.2 72.576 L1852.71 72.576 L1852.71 27.2059 L1860.2 27.2059 L1860.2 34.2544 Q1862.88 30.163 1866.48 28.1376 Q1870.13 26.1121 1874.87 26.1121 Q1882.68 26.1121 1886.7 30.9732 Q1890.71 35.7938 1890.71 45.1919 Z" fill="#000000" fill-rule="nonzero" fill-opacity="1" /><path clip-path="url(#clip760)" d="M1949.85 9.62495 Q1944.42 18.942 1941.79 28.0566 Q1939.15 37.1711 1939.15 46.5287 Q1939.15 55.8863 1941.79 65.0818 Q1944.46 74.2369 1949.85 83.5134 L1943.37 83.5134 Q1937.29 73.9938 1934.25 64.7983 Q1931.26 55.6027 1931.26 46.5287 Q1931.26 37.4952 1934.25 28.3401 Q1937.25 19.1851 1943.37 9.62495 L1949.85 9.62495 Z" fill="#000000" fill-rule="nonzero" fill-opacity="1" /><path clip-path="url(#clip760)" d="M1990.16 39.9662 Q1996.03 41.222 1999.31 45.1919 Q2002.63 49.1618 2002.63 54.9951 Q2002.63 63.9476 1996.47 68.8492 Q1990.32 73.7508 1978.97 73.7508 Q1975.17 73.7508 1971.12 72.9811 Q1967.11 72.2519 1962.81 70.7531 L1962.81 62.8538 Q1966.21 64.8388 1970.27 65.8515 Q1974.32 66.8642 1978.73 66.8642 Q1986.43 66.8642 1990.44 63.826 Q1994.49 60.7879 1994.49 54.9951 Q1994.49 49.6479 1990.72 46.6502 Q1987 43.612 1980.31 43.612 L1973.26 43.612 L1973.26 36.8875 L1980.64 36.8875 Q1986.67 36.8875 1989.87 34.4975 Q1993.07 32.067 1993.07 27.5299 Q1993.07 22.8714 1989.75 20.4004 Q1986.47 17.8888 1980.31 17.8888 Q1976.95 17.8888 1973.1 18.618 Q1969.25 19.3471 1964.63 20.8865 L1964.63 13.5948 Q1969.29 12.2985 1973.34 11.6504 Q1977.44 11.0023 1981.04 11.0023 Q1990.36 11.0023 1995.79 15.2557 Q2001.21 19.4686 2001.21 26.6793 Q2001.21 31.7024 1998.34 35.1862 Q1995.46 38.6294 1990.16 39.9662 Z" fill="#000000" fill-rule="nonzero" fill-opacity="1" /><path clip-path="url(#clip760)" d="M2062.34 76.7889 Q2059.18 84.8907 2056.19 87.3618 Q2053.19 89.8329 2048.16 89.8329 L2042.21 89.8329 L2042.21 83.5945 L2046.58 83.5945 Q2049.66 83.5945 2051.36 82.1361 Q2053.07 80.6778 2055.13 75.2496 L2056.47 71.8468 L2038.12 27.2059 L2046.02 27.2059 L2060.2 62.6918 L2074.37 27.2059 L2082.27 27.2059 L2062.34 76.7889 Z" fill="#000000" fill-rule="nonzero" fill-opacity="1" /><path clip-path="url(#clip760)" d="M2131.37 48.0275 L2131.37 51.6733 L2097.1 51.6733 Q2097.59 59.3701 2101.72 63.421 Q2105.89 67.4314 2113.3 67.4314 Q2117.6 67.4314 2121.61 66.3781 Q2125.66 65.3249 2129.63 63.2184 L2129.63 70.267 Q2125.62 71.9684 2121.4 72.8596 Q2117.19 73.7508 2112.86 73.7508 Q2102 73.7508 2095.64 67.4314 Q2089.32 61.1119 2089.32 50.3365 Q2089.32 39.1965 2095.32 32.6746 Q2101.35 26.1121 2111.56 26.1121 Q2120.72 26.1121 2126.02 32.0264 Q2131.37 37.9003 2131.37 48.0275 M2123.92 45.84 Q2123.84 39.7232 2120.47 36.0774 Q2117.15 32.4315 2111.64 32.4315 Q2105.4 32.4315 2101.64 35.9558 Q2097.91 39.4801 2097.34 45.8805 L2123.92 45.84 Z" fill="#000000" fill-rule="nonzero" fill-opacity="1" /><path clip-path="url(#clip760)" d="M2164.22 49.7694 Q2155.19 49.7694 2151.71 51.8354 Q2148.22 53.9013 2148.22 58.8839 Q2148.22 62.8538 2150.81 65.2034 Q2153.45 67.5124 2157.94 67.5124 Q2164.14 67.5124 2167.87 63.1374 Q2171.64 58.7219 2171.64 51.4303 L2171.64 49.7694 L2164.22 49.7694 M2179.09 46.6907 L2179.09 72.576 L2171.64 72.576 L2171.64 65.6895 Q2169.08 69.8214 2165.28 71.8063 Q2161.47 73.7508 2155.96 73.7508 Q2148.99 73.7508 2144.86 69.8619 Q2140.77 65.9325 2140.77 59.3701 Q2140.77 51.7138 2145.87 47.825 Q2151.02 43.9361 2161.18 43.9361 L2171.64 43.9361 L2171.64 43.2069 Q2171.64 38.0623 2168.23 35.2672 Q2164.87 32.4315 2158.75 32.4315 Q2154.87 32.4315 2151.18 33.3632 Q2147.49 34.295 2144.09 36.1584 L2144.09 29.2718 Q2148.18 27.692 2152.03 26.9223 Q2155.88 26.1121 2159.52 26.1121 Q2169.37 26.1121 2174.23 31.2163 Q2179.09 36.3204 2179.09 46.6907 Z" fill="#000000" fill-rule="nonzero" fill-opacity="1" /><path clip-path="url(#clip760)" d="M2220.73 34.1734 Q2219.48 33.4443 2217.98 33.1202 Q2216.52 32.7556 2214.74 32.7556 Q2208.42 32.7556 2205.02 36.8875 Q2201.65 40.9789 2201.65 48.6757 L2201.65 72.576 L2194.16 72.576 L2194.16 27.2059 L2201.65 27.2059 L2201.65 34.2544 Q2204 30.1225 2207.77 28.1376 Q2211.54 26.1121 2216.92 26.1121 Q2217.69 26.1121 2218.63 26.2337 Q2219.56 26.3147 2220.69 26.5172 L2220.73 34.1734 Z" fill="#000000" fill-rule="nonzero" fill-opacity="1" /><path clip-path="url(#clip760)" d="M2257.47 28.5427 L2257.47 35.5912 Q2254.31 33.9709 2250.91 33.1607 Q2247.51 32.3505 2243.86 32.3505 Q2238.31 32.3505 2235.52 34.0519 Q2232.76 35.7533 2232.76 39.156 Q2232.76 41.7486 2234.75 43.2475 Q2236.73 44.7058 2242.73 46.0426 L2245.28 46.6097 Q2253.22 48.3111 2256.54 51.4303 Q2259.91 54.509 2259.91 60.0587 Q2259.91 66.3781 2254.88 70.0644 Q2249.9 73.7508 2241.15 73.7508 Q2237.5 73.7508 2233.53 73.0216 Q2229.6 72.3329 2225.23 70.9151 L2225.23 63.2184 Q2229.36 65.3654 2233.37 66.4591 Q2237.38 67.5124 2241.31 67.5124 Q2246.58 67.5124 2249.41 65.73 Q2252.25 63.9071 2252.25 60.6258 Q2252.25 57.5877 2250.18 55.9673 Q2248.16 54.3469 2241.23 52.8481 L2238.64 52.2405 Q2231.71 50.7821 2228.63 47.7845 Q2225.55 44.7463 2225.55 39.4801 Q2225.55 33.0797 2230.09 29.5959 Q2234.63 26.1121 2242.97 26.1121 Q2247.1 26.1121 2250.75 26.7198 Q2254.4 27.3274 2257.47 28.5427 Z" fill="#000000" fill-rule="nonzero" fill-opacity="1" /><path clip-path="url(#clip760)" d="M2270.6 9.62495 L2277.08 9.62495 Q2283.16 19.1851 2286.15 28.3401 Q2289.19 37.4952 2289.19 46.5287 Q2289.19 55.6027 2286.15 64.7983 Q2283.16 73.9938 2277.08 83.5134 L2270.6 83.5134 Q2275.99 74.2369 2278.62 65.0818 Q2281.29 55.8863 2281.29 46.5287 Q2281.29 37.1711 2278.62 28.0566 Q2275.99 18.942 2270.6 9.62495 Z" fill="#000000" fill-rule="nonzero" fill-opacity="1" /><polyline clip-path="url(#clip761)" style="stroke:#0000ff; stroke-linecap:round; stroke-linejoin:round; stroke-width:8; stroke-opacity:1; fill:none" stroke-dasharray="32, 20" points="323.315,1688.65 379.563,1680.96 435.812,1670.19 492.06,1642.5 548.309,1645.58 604.557,1625.58 660.806,1593.27 717.055,1582.5 773.303,1564.04 829.552,1545.58 885.8,1534.81 942.049,1514.81 998.298,1493.27 1054.55,1460.96 1110.79,1459.42 1167.04,1428.65 1223.29,1397.88 1279.54,1384.04 1335.79,1345.57 1392.04,1304.04 1448.29,1274.8 1504.53,1248.65 1560.78,1211.73 1617.03,1222.5 1673.28,1187.11 1729.53,1153.26 1785.78,1102.49 1842.03,1064.03 1898.27,1071.73 1954.52,1079.42 2010.77,1119.42 2067.02,1116.34 2123.27,1117.88 2179.52,1110.19 2235.77,1093.26 2292.01,1128.65 2348.26,1119.42 2404.51,1140.96 2460.76,1156.34 2517.01,1144.03 2573.26,1140.96 "/>
<polyline clip-path="url(#clip761)" style="stroke:#ff0000; stroke-linecap:round; stroke-linejoin:round; stroke-width:8; stroke-opacity:1; fill:none" points="323.315,1685.58 379.563,1665.58 435.812,1620.96 492.06,1531.73 548.309,1424.04 604.557,1256.34 660.806,1007.11 717.055,765.568 773.303,528.643 829.552,362.487 885.8,267.101 942.049,220.947 998.298,200.947 1054.55,179.408 1110.79,173.254 1167.04,173.254 1223.29,173.254 1279.54,173.254 1335.79,173.254 1392.04,173.254 1448.29,173.254 1504.53,173.254 1560.78,173.254 1617.03,173.254 1673.28,173.254 1729.53,173.254 1785.78,173.254 1842.03,173.254 1898.27,173.254 1954.52,173.254 2010.77,173.254 2067.02,173.254 2123.27,173.254 2179.52,173.254 2235.77,173.254 2292.01,173.254 2348.26,173.254 2404.51,173.254 2460.76,173.254 2517.01,173.254 2573.26,173.254 "/>
<path clip-path="url(#clip760)" d="M2069.69 1680.57 L2561.26 1680.57 L2561.26 1525.05 L2069.69 1525.05  Z" fill="#ffffff" fill-rule="evenodd" fill-opacity="1"/>
<polyline clip-path="url(#clip760)" style="stroke:#000000; stroke-linecap:round; stroke-linejoin:round; stroke-width:4; stroke-opacity:1; fill:none" points="2069.69,1680.57 2561.26,1680.57 2561.26,1525.05 2069.69,1525.05 2069.69,1680.57 "/>
<polyline clip-path="url(#clip760)" style="stroke:#0000ff; stroke-linecap:round; stroke-linejoin:round; stroke-width:8; stroke-opacity:1; fill:none" stroke-dasharray="32, 20" points="2096.19,1576.89 2255.18,1576.89 "/>
<path clip-path="url(#clip760)" d="M2309.55 1562.27 L2309.55 1567.21 Q2307.19 1565.01 2304.51 1563.92 Q2301.84 1562.83 2298.83 1562.83 Q2292.91 1562.83 2289.76 1566.46 Q2286.61 1570.08 2286.61 1576.93 Q2286.61 1583.76 2289.76 1587.39 Q2292.91 1591 2298.83 1591 Q2301.84 1591 2304.51 1589.91 Q2307.19 1588.83 2309.55 1586.63 L2309.55 1591.51 Q2307.1 1593.18 2304.34 1594.01 Q2301.61 1594.84 2298.56 1594.84 Q2290.71 1594.84 2286.2 1590.05 Q2281.68 1585.24 2281.68 1576.93 Q2281.68 1568.59 2286.2 1563.8 Q2290.71 1558.99 2298.56 1558.99 Q2301.66 1558.99 2304.39 1559.82 Q2307.14 1560.63 2309.55 1562.27 Z" fill="#000000" fill-rule="nonzero" fill-opacity="1" /><path clip-path="url(#clip760)" d="M2326.63 1571.23 Q2323.21 1571.23 2321.22 1573.92 Q2319.23 1576.58 2319.23 1581.23 Q2319.23 1585.89 2321.19 1588.57 Q2323.19 1591.23 2326.63 1591.23 Q2330.04 1591.23 2332.03 1588.55 Q2334.02 1585.86 2334.02 1581.23 Q2334.02 1576.63 2332.03 1573.94 Q2330.04 1571.23 2326.63 1571.23 M2326.63 1567.62 Q2332.19 1567.62 2335.36 1571.23 Q2338.53 1574.84 2338.53 1581.23 Q2338.53 1587.6 2335.36 1591.23 Q2332.19 1594.84 2326.63 1594.84 Q2321.06 1594.84 2317.88 1591.23 Q2314.74 1587.6 2314.74 1581.23 Q2314.74 1574.84 2317.88 1571.23 Q2321.06 1567.62 2326.63 1567.62 Z" fill="#000000" fill-rule="nonzero" fill-opacity="1" /><path clip-path="url(#clip760)" d="M2367.14 1578.52 L2367.14 1594.17 L2362.88 1594.17 L2362.88 1578.66 Q2362.88 1574.98 2361.45 1573.15 Q2360.01 1571.33 2357.14 1571.33 Q2353.69 1571.33 2351.7 1573.52 Q2349.71 1575.72 2349.71 1579.52 L2349.71 1594.17 L2345.43 1594.17 L2345.43 1568.25 L2349.71 1568.25 L2349.71 1572.27 Q2351.24 1569.94 2353.3 1568.78 Q2355.38 1567.62 2358.09 1567.62 Q2362.56 1567.62 2364.85 1570.4 Q2367.14 1573.15 2367.14 1578.52 Z" fill="#000000" fill-rule="nonzero" fill-opacity="1" /><path clip-path="url(#clip760)" d="M2392.17 1569.01 L2392.17 1573.04 Q2390.36 1572.11 2388.42 1571.65 Q2386.47 1571.19 2384.39 1571.19 Q2381.22 1571.19 2379.62 1572.16 Q2378.05 1573.13 2378.05 1575.08 Q2378.05 1576.56 2379.18 1577.41 Q2380.31 1578.25 2383.74 1579.01 L2385.2 1579.33 Q2389.74 1580.31 2391.63 1582.09 Q2393.56 1583.85 2393.56 1587.02 Q2393.56 1590.63 2390.69 1592.74 Q2387.84 1594.84 2382.84 1594.84 Q2380.75 1594.84 2378.49 1594.43 Q2376.24 1594.03 2373.74 1593.22 L2373.74 1588.83 Q2376.1 1590.05 2378.39 1590.68 Q2380.69 1591.28 2382.93 1591.28 Q2385.94 1591.28 2387.56 1590.26 Q2389.18 1589.22 2389.18 1587.34 Q2389.18 1585.61 2388 1584.68 Q2386.84 1583.76 2382.88 1582.9 L2381.4 1582.55 Q2377.44 1581.72 2375.69 1580.01 Q2373.93 1578.27 2373.93 1575.26 Q2373.93 1571.6 2376.52 1569.61 Q2379.11 1567.62 2383.88 1567.62 Q2386.24 1567.62 2388.32 1567.97 Q2390.41 1568.32 2392.17 1569.01 Z" fill="#000000" fill-rule="nonzero" fill-opacity="1" /><path clip-path="url(#clip760)" d="M2404.55 1560.89 L2404.55 1568.25 L2413.32 1568.25 L2413.32 1571.56 L2404.55 1571.56 L2404.55 1585.63 Q2404.55 1588.8 2405.41 1589.71 Q2406.29 1590.61 2408.95 1590.61 L2413.32 1590.61 L2413.32 1594.17 L2408.95 1594.17 Q2404.02 1594.17 2402.14 1592.34 Q2400.27 1590.49 2400.27 1585.63 L2400.27 1571.56 L2397.14 1571.56 L2397.14 1568.25 L2400.27 1568.25 L2400.27 1560.89 L2404.55 1560.89 Z" fill="#000000" fill-rule="nonzero" fill-opacity="1" /><path clip-path="url(#clip760)" d="M2430.71 1581.14 Q2425.55 1581.14 2423.56 1582.32 Q2421.56 1583.5 2421.56 1586.35 Q2421.56 1588.62 2423.05 1589.96 Q2424.55 1591.28 2427.12 1591.28 Q2430.66 1591.28 2432.79 1588.78 Q2434.94 1586.26 2434.94 1582.09 L2434.94 1581.14 L2430.71 1581.14 M2439.2 1579.38 L2439.2 1594.17 L2434.94 1594.17 L2434.94 1590.24 Q2433.49 1592.6 2431.31 1593.73 Q2429.13 1594.84 2425.99 1594.84 Q2422 1594.84 2419.64 1592.62 Q2417.31 1590.38 2417.31 1586.63 Q2417.31 1582.25 2420.22 1580.03 Q2423.16 1577.81 2428.97 1577.81 L2434.94 1577.81 L2434.94 1577.39 Q2434.94 1574.45 2433 1572.85 Q2431.08 1571.23 2427.58 1571.23 Q2425.36 1571.23 2423.25 1571.77 Q2421.15 1572.3 2419.2 1573.36 L2419.2 1569.43 Q2421.54 1568.52 2423.74 1568.09 Q2425.94 1567.62 2428.02 1567.62 Q2433.65 1567.62 2436.43 1570.54 Q2439.2 1573.46 2439.2 1579.38 Z" fill="#000000" fill-rule="nonzero" fill-opacity="1" /><path clip-path="url(#clip760)" d="M2469.53 1578.52 L2469.53 1594.17 L2465.27 1594.17 L2465.27 1578.66 Q2465.27 1574.98 2463.83 1573.15 Q2462.4 1571.33 2459.53 1571.33 Q2456.08 1571.33 2454.09 1573.52 Q2452.1 1575.72 2452.1 1579.52 L2452.1 1594.17 L2447.81 1594.17 L2447.81 1568.25 L2452.1 1568.25 L2452.1 1572.27 Q2453.62 1569.94 2455.68 1568.78 Q2457.77 1567.62 2460.48 1567.62 Q2464.94 1567.62 2467.24 1570.4 Q2469.53 1573.15 2469.53 1578.52 Z" fill="#000000" fill-rule="nonzero" fill-opacity="1" /><path clip-path="url(#clip760)" d="M2482.24 1560.89 L2482.24 1568.25 L2491.01 1568.25 L2491.01 1571.56 L2482.24 1571.56 L2482.24 1585.63 Q2482.24 1588.8 2483.09 1589.71 Q2483.97 1590.61 2486.63 1590.61 L2491.01 1590.61 L2491.01 1594.17 L2486.63 1594.17 Q2481.7 1594.17 2479.83 1592.34 Q2477.95 1590.49 2477.95 1585.63 L2477.95 1571.56 L2474.83 1571.56 L2474.83 1568.25 L2477.95 1568.25 L2477.95 1560.89 L2482.24 1560.89 Z" fill="#000000" fill-rule="nonzero" fill-opacity="1" /><path clip-path="url(#clip760)" d="M2515.94 1592.58 L2515.94 1604.03 L2511.66 1604.03 L2511.66 1568.41 Q2511.66 1557.85 2521.52 1557.85 Q2531.56 1557.85 2531.56 1566.77 Q2531.56 1573.11 2527.58 1575.42 Q2534.06 1577.51 2534.06 1583.69 Q2534.06 1594.66 2522.91 1594.66 Q2518 1594.66 2515.94 1592.58 M2515.94 1587.02 Q2518.51 1591.02 2523.07 1591.02 Q2529.74 1591.02 2529.74 1583.76 Q2529.74 1577.23 2518.99 1577.74 L2518.99 1573.8 Q2527.4 1573.8 2527.4 1566.4 Q2527.4 1561.33 2521.98 1561.33 Q2515.94 1561.33 2515.94 1568.55 L2515.94 1587.02 Z" fill="#000000" fill-rule="nonzero" fill-opacity="1" /><polyline clip-path="url(#clip760)" style="stroke:#ff0000; stroke-linecap:round; stroke-linejoin:round; stroke-width:8; stroke-opacity:1; fill:none" points="2096.19,1628.73 2255.18,1628.73 "/>
<path clip-path="url(#clip760)" d="M2303.93 1612.59 L2303.93 1617.15 Q2301.26 1615.87 2298.9 1615.25 Q2296.54 1614.62 2294.34 1614.62 Q2290.52 1614.62 2288.44 1616.11 Q2286.38 1617.59 2286.38 1620.32 Q2286.38 1622.61 2287.75 1623.79 Q2289.13 1624.95 2292.98 1625.67 L2295.8 1626.24 Q2301.03 1627.24 2303.51 1629.76 Q2306.01 1632.26 2306.01 1636.48 Q2306.01 1641.5 2302.63 1644.09 Q2299.27 1646.68 2292.77 1646.68 Q2290.32 1646.68 2287.54 1646.13 Q2284.78 1645.57 2281.82 1644.49 L2281.82 1639.67 Q2284.67 1641.27 2287.4 1642.08 Q2290.13 1642.89 2292.77 1642.89 Q2296.77 1642.89 2298.95 1641.31 Q2301.13 1639.74 2301.13 1636.82 Q2301.13 1634.28 2299.55 1632.84 Q2298 1631.41 2294.44 1630.69 L2291.59 1630.13 Q2286.36 1629.09 2284.02 1626.87 Q2281.68 1624.65 2281.68 1620.69 Q2281.68 1616.11 2284.9 1613.47 Q2288.14 1610.83 2293.81 1610.83 Q2296.24 1610.83 2298.76 1611.27 Q2301.29 1611.71 2303.93 1612.59 Z" fill="#000000" fill-rule="nonzero" fill-opacity="1" /><path clip-path="url(#clip760)" d="M2335.29 1631.99 L2335.29 1634.07 L2315.71 1634.07 Q2315.99 1638.47 2318.35 1640.78 Q2320.73 1643.07 2324.97 1643.07 Q2327.42 1643.07 2329.71 1642.47 Q2332.03 1641.87 2334.3 1640.67 L2334.3 1644.69 Q2332.01 1645.67 2329.6 1646.17 Q2327.19 1646.68 2324.71 1646.68 Q2318.51 1646.68 2314.88 1643.07 Q2311.26 1639.46 2311.26 1633.3 Q2311.26 1626.94 2314.69 1623.21 Q2318.14 1619.46 2323.97 1619.46 Q2329.2 1619.46 2332.24 1622.84 Q2335.29 1626.2 2335.29 1631.99 M2331.03 1630.74 Q2330.99 1627.24 2329.07 1625.16 Q2327.17 1623.07 2324.02 1623.07 Q2320.45 1623.07 2318.3 1625.09 Q2316.17 1627.1 2315.85 1630.76 L2331.03 1630.74 Z" fill="#000000" fill-rule="nonzero" fill-opacity="1" /><path clip-path="url(#clip760)" d="M2354.07 1632.98 Q2348.9 1632.98 2346.91 1634.16 Q2344.92 1635.34 2344.92 1638.19 Q2344.92 1640.46 2346.4 1641.8 Q2347.91 1643.12 2350.48 1643.12 Q2354.02 1643.12 2356.15 1640.62 Q2358.3 1638.1 2358.3 1633.93 L2358.3 1632.98 L2354.07 1632.98 M2362.56 1631.22 L2362.56 1646.01 L2358.3 1646.01 L2358.3 1642.08 Q2356.84 1644.44 2354.67 1645.57 Q2352.49 1646.68 2349.34 1646.68 Q2345.36 1646.68 2343 1644.46 Q2340.66 1642.22 2340.66 1638.47 Q2340.66 1634.09 2343.58 1631.87 Q2346.52 1629.65 2352.33 1629.65 L2358.3 1629.65 L2358.3 1629.23 Q2358.3 1626.29 2356.36 1624.69 Q2354.44 1623.07 2350.94 1623.07 Q2348.72 1623.07 2346.61 1623.61 Q2344.5 1624.14 2342.56 1625.2 L2342.56 1621.27 Q2344.9 1620.36 2347.1 1619.93 Q2349.3 1619.46 2351.38 1619.46 Q2357 1619.46 2359.78 1622.38 Q2362.56 1625.3 2362.56 1631.22 Z" fill="#000000" fill-rule="nonzero" fill-opacity="1" /><path clip-path="url(#clip760)" d="M2387.86 1620.85 L2387.86 1624.88 Q2386.06 1623.95 2384.11 1623.49 Q2382.17 1623.03 2380.08 1623.03 Q2376.91 1623.03 2375.32 1624 Q2373.74 1624.97 2373.74 1626.92 Q2373.74 1628.4 2374.88 1629.25 Q2376.01 1630.09 2379.44 1630.85 L2380.89 1631.17 Q2385.43 1632.15 2387.33 1633.93 Q2389.25 1635.69 2389.25 1638.86 Q2389.25 1642.47 2386.38 1644.58 Q2383.53 1646.68 2378.53 1646.68 Q2376.45 1646.68 2374.18 1646.27 Q2371.94 1645.87 2369.44 1645.06 L2369.44 1640.67 Q2371.8 1641.89 2374.09 1642.52 Q2376.38 1643.12 2378.63 1643.12 Q2381.63 1643.12 2383.25 1642.1 Q2384.88 1641.06 2384.88 1639.18 Q2384.88 1637.45 2383.69 1636.52 Q2382.54 1635.6 2378.58 1634.74 L2377.1 1634.39 Q2373.14 1633.56 2371.38 1631.85 Q2369.62 1630.11 2369.62 1627.1 Q2369.62 1623.44 2372.21 1621.45 Q2374.81 1619.46 2379.57 1619.46 Q2381.94 1619.46 2384.02 1619.81 Q2386.1 1620.16 2387.86 1620.85 Z" fill="#000000" fill-rule="nonzero" fill-opacity="1" /><path clip-path="url(#clip760)" d="M2406.08 1623.07 Q2402.65 1623.07 2400.66 1625.76 Q2398.67 1628.42 2398.67 1633.07 Q2398.67 1637.73 2400.64 1640.41 Q2402.63 1643.07 2406.08 1643.07 Q2409.48 1643.07 2411.47 1640.39 Q2413.46 1637.7 2413.46 1633.07 Q2413.46 1628.47 2411.47 1625.78 Q2409.48 1623.07 2406.08 1623.07 M2406.08 1619.46 Q2411.63 1619.46 2414.81 1623.07 Q2417.98 1626.68 2417.98 1633.07 Q2417.98 1639.44 2414.81 1643.07 Q2411.63 1646.68 2406.08 1646.68 Q2400.5 1646.68 2397.33 1643.07 Q2394.18 1639.44 2394.18 1633.07 Q2394.18 1626.68 2397.33 1623.07 Q2400.5 1619.46 2406.08 1619.46 Z" fill="#000000" fill-rule="nonzero" fill-opacity="1" /><path clip-path="url(#clip760)" d="M2446.59 1630.36 L2446.59 1646.01 L2442.33 1646.01 L2442.33 1630.5 Q2442.33 1626.82 2440.89 1624.99 Q2439.46 1623.17 2436.59 1623.17 Q2433.14 1623.17 2431.15 1625.36 Q2429.16 1627.56 2429.16 1631.36 L2429.16 1646.01 L2424.87 1646.01 L2424.87 1620.09 L2429.16 1620.09 L2429.16 1624.11 Q2430.69 1621.78 2432.75 1620.62 Q2434.83 1619.46 2437.54 1619.46 Q2442 1619.46 2444.3 1622.24 Q2446.59 1624.99 2446.59 1630.36 Z" fill="#000000" fill-rule="nonzero" fill-opacity="1" /><path clip-path="url(#clip760)" d="M2466.87 1632.98 Q2461.7 1632.98 2459.71 1634.16 Q2457.72 1635.34 2457.72 1638.19 Q2457.72 1640.46 2459.2 1641.8 Q2460.71 1643.12 2463.28 1643.12 Q2466.82 1643.12 2468.95 1640.62 Q2471.1 1638.1 2471.1 1633.93 L2471.1 1632.98 L2466.87 1632.98 M2475.36 1631.22 L2475.36 1646.01 L2471.1 1646.01 L2471.1 1642.08 Q2469.64 1644.44 2467.47 1645.57 Q2465.29 1646.68 2462.14 1646.68 Q2458.16 1646.68 2455.8 1644.46 Q2453.46 1642.22 2453.46 1638.47 Q2453.46 1634.09 2456.38 1631.87 Q2459.32 1629.65 2465.13 1629.65 L2471.1 1629.65 L2471.1 1629.23 Q2471.1 1626.29 2469.16 1624.69 Q2467.24 1623.07 2463.74 1623.07 Q2461.52 1623.07 2459.41 1623.61 Q2457.31 1624.14 2455.36 1625.2 L2455.36 1621.27 Q2457.7 1620.36 2459.9 1619.93 Q2462.1 1619.46 2464.18 1619.46 Q2469.81 1619.46 2472.58 1622.38 Q2475.36 1625.3 2475.36 1631.22 Z" fill="#000000" fill-rule="nonzero" fill-opacity="1" /><path clip-path="url(#clip760)" d="M2484.13 1609.99 L2488.39 1609.99 L2488.39 1646.01 L2484.13 1646.01 L2484.13 1609.99 Z" fill="#000000" fill-rule="nonzero" fill-opacity="1" /><path clip-path="url(#clip760)" d="M2516.63 1644.42 L2516.63 1655.87 L2512.35 1655.87 L2512.35 1620.25 Q2512.35 1609.69 2522.21 1609.69 Q2532.26 1609.69 2532.26 1618.61 Q2532.26 1624.95 2528.28 1627.26 Q2534.76 1629.35 2534.76 1635.53 Q2534.76 1646.5 2523.6 1646.5 Q2518.69 1646.5 2516.63 1644.42 M2516.63 1638.86 Q2519.2 1642.86 2523.76 1642.86 Q2530.43 1642.86 2530.43 1635.6 Q2530.43 1629.07 2519.69 1629.58 L2519.69 1625.64 Q2528.09 1625.64 2528.09 1618.24 Q2528.09 1613.17 2522.68 1613.17 Q2516.63 1613.17 2516.63 1620.39 L2516.63 1638.86 Z" fill="#000000" fill-rule="nonzero" fill-opacity="1" /></svg>
