<?xml version="1.0" encoding="utf-8"?>
<svg xmlns="http://www.w3.org/2000/svg" xmlns:xlink="http://www.w3.org/1999/xlink" width="672" height="480" viewBox="0 0 2688 1920">
<defs>
  <clipPath id="clip700">
    <rect x="0" y="0" width="2688" height="1920"/>
  </clipPath>
</defs>
<path clip-path="url(#clip700)" d="M0 1920 L2688 1920 L2688 -4.26326e-14 L0 -4.26326e-14  Z" fill="#ffffff" fill-rule="evenodd" fill-opacity="1"/>
<defs>
  <clipPath id="clip701">
    <rect x="226" y="127" width="2416" height="1607"/>
  </clipPath>
</defs>
<path clip-path="url(#clip700)" d="M226.141 1734.12 L2640.76 1734.12 L2640.76 127.792 L226.141 127.792  Z" fill="#ffffff" fill-rule="evenodd" fill-opacity="1"/>
<polyline clip-path="url(#clip701)" style="stroke:#000000; stroke-linecap:round; stroke-linejoin:round; stroke-width:2; stroke-opacity:0.1; fill:none" points="294.479,1734.12 294.479,127.792 "/>
<polyline clip-path="url(#clip701)" style="stroke:#000000; stroke-linecap:round; stroke-linejoin:round; stroke-width:2; stroke-opacity:0.1; fill:none" points="863.963,1734.12 863.963,127.792 "/>
<polyline clip-path="url(#clip701)" style="stroke:#000000; stroke-linecap:round; stroke-linejoin:round; stroke-width:2; stroke-opacity:0.1; fill:none" points="1433.45,1734.12 1433.45,127.792 "/>
<polyline clip-path="url(#clip701)" style="stroke:#000000; stroke-linecap:round; stroke-linejoin:round; stroke-width:2; stroke-opacity:0.1; fill:none" points="2002.93,1734.12 2002.93,127.792 "/>
<polyline clip-path="url(#clip701)" style="stroke:#000000; stroke-linecap:round; stroke-linejoin:round; stroke-width:2; stroke-opacity:0.1; fill:none" points="2572.42,1734.12 2572.42,127.792 "/>
<polyline clip-path="url(#clip701)" style="stroke:#000000; stroke-linecap:round; stroke-linejoin:round; stroke-width:2; stroke-opacity:0.1; fill:none" points="226.141,1688.65 2640.76,1688.65 "/>
<polyline clip-path="url(#clip701)" style="stroke:#000000; stroke-linecap:round; stroke-linejoin:round; stroke-width:2; stroke-opacity:0.1; fill:none" points="226.141,1430.49 2640.76,1430.49 "/>
<polyline clip-path="url(#clip701)" style="stroke:#000000; stroke-linecap:round; stroke-linejoin:round; stroke-width:2; stroke-opacity:0.1; fill:none" points="226.141,1172.33 2640.76,1172.33 "/>
<polyline clip-path="url(#clip701)" style="stroke:#000000; stroke-linecap:round; stroke-linejoin:round; stroke-width:2; stroke-opacity:0.1; fill:none" points="226.141,914.174 2640.76,914.174 "/>
<polyline clip-path="url(#clip701)" style="stroke:#000000; stroke-linecap:round; stroke-linejoin:round; stroke-width:2; stroke-opacity:0.1; fill:none" points="226.141,656.014 2640.76,656.014 "/>
<polyline clip-path="url(#clip701)" style="stroke:#000000; stroke-linecap:round; stroke-linejoin:round; stroke-width:2; stroke-opacity:0.1; fill:none" points="226.141,397.854 2640.76,397.854 "/>
<polyline clip-path="url(#clip701)" style="stroke:#000000; stroke-linecap:round; stroke-linejoin:round; stroke-width:2; stroke-opacity:0.1; fill:none" points="226.141,139.693 2640.76,139.693 "/>
<polyline clip-path="url(#clip700)" style="stroke:#000000; stroke-linecap:round; stroke-linejoin:round; stroke-width:4; stroke-opacity:1; fill:none" points="226.141,1734.12 2640.76,1734.12 "/>
<polyline clip-path="url(#clip700)" style="stroke:#000000; stroke-linecap:round; stroke-linejoin:round; stroke-width:4; stroke-opacity:1; fill:none" points="294.479,1734.12 294.479,1715.22 "/>
<polyline clip-path="url(#clip700)" style="stroke:#000000; stroke-linecap:round; stroke-linejoin:round; stroke-width:4; stroke-opacity:1; fill:none" points="863.963,1734.12 863.963,1715.22 "/>
<polyline clip-path="url(#clip700)" style="stroke:#000000; stroke-linecap:round; stroke-linejoin:round; stroke-width:4; stroke-opacity:1; fill:none" points="1433.45,1734.12 1433.45,1715.22 "/>
<polyline clip-path="url(#clip700)" style="stroke:#000000; stroke-linecap:round; stroke-linejoin:round; stroke-width:4; stroke-opacity:1; fill:none" points="2002.93,1734.12 2002.93,1715.22 "/>
<polyline clip-path="url(#clip700)" style="stroke:#000000; stroke-linecap:round; stroke-linejoin:round; stroke-width:4; stroke-opacity:1; fill:none" points="2572.42,1734.12 2572.42,1715.22 "/>
<path clip-path="url(#clip700)" d="M294.479 1767.34 Q290.868 1767.34 289.039 1770.9 Q287.233 1774.45 287.233 1781.58 Q287.233 1788.68 289.039 1792.25 Q290.868 1795.79 294.479 1795.79 Q298.113 1795.79 299.919 1792.25 Q301.747 1788.68 301.747 1781.58 Q301.747 1774.45 299.919 1770.9 Q298.113 1767.34 294.479 1767.34 M294.479 1763.64 Q300.289 1763.64 303.344 1768.24 Q306.423 1772.83 306.423 1781.58 Q306.423 1790.3 303.344 1794.91 Q300.289 1799.49 294.479 1799.49 Q288.669 1799.49 285.59 1794.91 Q282.534 1790.3 282.534 1781.58 Q282.534 1772.83 285.59 1768.24 Q288.669 1763.64 294.479 1763.64 Z" fill="#000000" fill-rule="nonzero" fill-opacity="1" /><path clip-path="url(#clip700)" d="M838.651 1794.89 L846.29 1794.89 L846.29 1768.52 L837.98 1770.19 L837.98 1765.93 L846.244 1764.26 L850.92 1764.26 L850.92 1794.89 L858.558 1794.89 L858.558 1798.82 L838.651 1798.82 L838.651 1794.89 Z" fill="#000000" fill-rule="nonzero" fill-opacity="1" /><path clip-path="url(#clip700)" d="M878.003 1767.34 Q874.392 1767.34 872.563 1770.9 Q870.757 1774.45 870.757 1781.58 Q870.757 1788.68 872.563 1792.25 Q874.392 1795.79 878.003 1795.79 Q881.637 1795.79 883.443 1792.25 Q885.271 1788.68 885.271 1781.58 Q885.271 1774.45 883.443 1770.9 Q881.637 1767.34 878.003 1767.34 M878.003 1763.64 Q883.813 1763.64 886.868 1768.24 Q889.947 1772.83 889.947 1781.58 Q889.947 1790.3 886.868 1794.91 Q883.813 1799.49 878.003 1799.49 Q872.193 1799.49 869.114 1794.91 Q866.058 1790.3 866.058 1781.58 Q866.058 1772.83 869.114 1768.24 Q872.193 1763.64 878.003 1763.64 Z" fill="#000000" fill-rule="nonzero" fill-opacity="1" /><path clip-path="url(#clip700)" d="M1412.22 1794.89 L1428.54 1794.89 L1428.54 1798.82 L1406.6 1798.82 L1406.6 1794.89 Q1409.26 1792.13 1413.84 1787.5 Q1418.45 1782.85 1419.63 1781.51 Q1421.87 1778.98 1422.75 1777.25 Q1423.66 1775.49 1423.66 1773.8 Q1423.66 1771.04 1421.71 1769.31 Q1419.79 1767.57 1416.69 1767.57 Q1414.49 1767.57 1412.04 1768.34 Q1409.61 1769.1 1406.83 1770.65 L1406.83 1765.93 Q1409.65 1764.79 1412.11 1764.21 Q1414.56 1763.64 1416.6 1763.64 Q1421.97 1763.64 1425.16 1766.32 Q1428.36 1769.01 1428.36 1773.5 Q1428.36 1775.63 1427.55 1777.55 Q1426.76 1779.45 1424.65 1782.04 Q1424.07 1782.71 1420.97 1785.93 Q1417.87 1789.12 1412.22 1794.89 Z" fill="#000000" fill-rule="nonzero" fill-opacity="1" /><path clip-path="url(#clip700)" d="M1448.36 1767.34 Q1444.74 1767.34 1442.92 1770.9 Q1441.11 1774.45 1441.11 1781.58 Q1441.11 1788.68 1442.92 1792.25 Q1444.74 1795.79 1448.36 1795.79 Q1451.99 1795.79 1453.8 1792.25 Q1455.62 1788.68 1455.62 1781.58 Q1455.62 1774.45 1453.8 1770.9 Q1451.99 1767.34 1448.36 1767.34 M1448.36 1763.64 Q1454.17 1763.64 1457.22 1768.24 Q1460.3 1772.83 1460.3 1781.58 Q1460.3 1790.3 1457.22 1794.91 Q1454.17 1799.49 1448.36 1799.49 Q1442.55 1799.49 1439.47 1794.91 Q1436.41 1790.3 1436.41 1781.58 Q1436.41 1772.83 1439.47 1768.24 Q1442.55 1763.64 1448.36 1763.64 Z" fill="#000000" fill-rule="nonzero" fill-opacity="1" /><path clip-path="url(#clip700)" d="M1991.78 1780.19 Q1995.13 1780.9 1997.01 1783.17 Q1998.91 1785.44 1998.91 1788.77 Q1998.91 1793.89 1995.39 1796.69 Q1991.87 1799.49 1985.39 1799.49 Q1983.21 1799.49 1980.9 1799.05 Q1978.6 1798.64 1976.15 1797.78 L1976.15 1793.27 Q1978.1 1794.4 1980.41 1794.98 Q1982.72 1795.56 1985.25 1795.56 Q1989.65 1795.56 1991.94 1793.82 Q1994.25 1792.08 1994.25 1788.77 Q1994.25 1785.72 1992.1 1784.01 Q1989.97 1782.27 1986.15 1782.27 L1982.12 1782.27 L1982.12 1778.43 L1986.34 1778.43 Q1989.78 1778.43 1991.61 1777.06 Q1993.44 1775.67 1993.44 1773.08 Q1993.44 1770.42 1991.54 1769.01 Q1989.67 1767.57 1986.15 1767.57 Q1984.23 1767.57 1982.03 1767.99 Q1979.83 1768.4 1977.19 1769.28 L1977.19 1765.12 Q1979.85 1764.38 1982.17 1764.01 Q1984.51 1763.64 1986.57 1763.64 Q1991.89 1763.64 1994.99 1766.07 Q1998.1 1768.47 1998.1 1772.59 Q1998.1 1775.46 1996.45 1777.46 Q1994.81 1779.42 1991.78 1780.19 Z" fill="#000000" fill-rule="nonzero" fill-opacity="1" /><path clip-path="url(#clip700)" d="M2017.77 1767.34 Q2014.16 1767.34 2012.33 1770.9 Q2010.53 1774.45 2010.53 1781.58 Q2010.53 1788.68 2012.33 1792.25 Q2014.16 1795.79 2017.77 1795.79 Q2021.41 1795.79 2023.21 1792.25 Q2025.04 1788.68 2025.04 1781.58 Q2025.04 1774.45 2023.21 1770.9 Q2021.41 1767.34 2017.77 1767.34 M2017.77 1763.64 Q2023.58 1763.64 2026.64 1768.24 Q2029.72 1772.83 2029.72 1781.58 Q2029.72 1790.3 2026.64 1794.91 Q2023.58 1799.49 2017.77 1799.49 Q2011.96 1799.49 2008.88 1794.91 Q2005.83 1790.3 2005.83 1781.58 Q2005.83 1772.83 2008.88 1768.24 Q2011.96 1763.64 2017.77 1763.64 Z" fill="#000000" fill-rule="nonzero" fill-opacity="1" /><path clip-path="url(#clip700)" d="M2560.59 1768.34 L2548.78 1786.78 L2560.59 1786.78 L2560.59 1768.34 M2559.36 1764.26 L2565.24 1764.26 L2565.24 1786.78 L2570.17 1786.78 L2570.17 1790.67 L2565.24 1790.67 L2565.24 1798.82 L2560.59 1798.82 L2560.59 1790.67 L2544.99 1790.67 L2544.99 1786.16 L2559.36 1764.26 Z" fill="#000000" fill-rule="nonzero" fill-opacity="1" /><path clip-path="url(#clip700)" d="M2587.9 1767.34 Q2584.29 1767.34 2582.46 1770.9 Q2580.66 1774.45 2580.66 1781.58 Q2580.66 1788.68 2582.46 1792.25 Q2584.29 1795.79 2587.9 1795.79 Q2591.54 1795.79 2593.34 1792.25 Q2595.17 1788.68 2595.17 1781.58 Q2595.17 1774.45 2593.34 1770.9 Q2591.54 1767.34 2587.9 1767.34 M2587.9 1763.64 Q2593.71 1763.64 2596.77 1768.24 Q2599.85 1772.83 2599.85 1781.58 Q2599.85 1790.3 2596.77 1794.91 Q2593.71 1799.49 2587.9 1799.49 Q2582.09 1799.49 2579.01 1794.91 Q2575.96 1790.3 2575.96 1781.58 Q2575.96 1772.83 2579.01 1768.24 Q2582.09 1763.64 2587.9 1763.64 Z" fill="#000000" fill-rule="nonzero" fill-opacity="1" /><path clip-path="url(#clip700)" d="M1379.69 1841.06 L1379.69 1878.02 L1387.46 1878.02 Q1397.29 1878.02 1401.84 1873.56 Q1406.43 1869.11 1406.43 1859.49 Q1406.43 1849.94 1401.84 1845.52 Q1397.29 1841.06 1387.46 1841.06 L1379.69 1841.06 M1373.26 1835.78 L1386.47 1835.78 Q1400.28 1835.78 1406.74 1841.54 Q1413.21 1847.27 1413.21 1859.49 Q1413.21 1871.78 1406.71 1877.54 Q1400.22 1883.3 1386.47 1883.3 L1373.26 1883.3 L1373.26 1835.78 Z" fill="#000000" fill-rule="nonzero" fill-opacity="1" /><path clip-path="url(#clip700)" d="M1439.4 1865.38 Q1432.3 1865.38 1429.57 1867 Q1426.83 1868.63 1426.83 1872.54 Q1426.83 1875.66 1428.86 1877.51 Q1430.93 1879.32 1434.47 1879.32 Q1439.34 1879.32 1442.26 1875.88 Q1445.22 1872.42 1445.22 1866.69 L1445.22 1865.38 L1439.4 1865.38 M1451.08 1862.96 L1451.08 1883.3 L1445.22 1883.3 L1445.22 1877.89 Q1443.22 1881.14 1440.23 1882.7 Q1437.24 1884.22 1432.91 1884.22 Q1427.43 1884.22 1424.19 1881.17 Q1420.97 1878.08 1420.97 1872.92 Q1420.97 1866.91 1424.98 1863.85 Q1429.02 1860.8 1437.01 1860.8 L1445.22 1860.8 L1445.22 1860.23 Q1445.22 1856.18 1442.55 1853.99 Q1439.91 1851.76 1435.1 1851.76 Q1432.05 1851.76 1429.15 1852.49 Q1426.25 1853.22 1423.58 1854.69 L1423.58 1849.28 Q1426.8 1848.03 1429.82 1847.43 Q1432.84 1846.79 1435.71 1846.79 Q1443.44 1846.79 1447.26 1850.8 Q1451.08 1854.81 1451.08 1862.96 Z" fill="#000000" fill-rule="nonzero" fill-opacity="1" /><path clip-path="url(#clip700)" d="M1477.98 1886.61 Q1475.49 1892.98 1473.14 1894.92 Q1470.78 1896.86 1466.84 1896.86 L1462.16 1896.86 L1462.16 1891.96 L1465.6 1891.96 Q1468.01 1891.96 1469.35 1890.81 Q1470.69 1889.67 1472.31 1885.4 L1473.36 1882.73 L1458.94 1847.65 L1465.15 1847.65 L1476.29 1875.53 L1487.43 1847.65 L1493.64 1847.65 L1477.98 1886.61 Z" fill="#000000" fill-rule="nonzero" fill-opacity="1" /><polyline clip-path="url(#clip700)" style="stroke:#000000; stroke-linecap:round; stroke-linejoin:round; stroke-width:4; stroke-opacity:1; fill:none" points="226.141,1734.12 226.141,127.792 "/>
<polyline clip-path="url(#clip700)" style="stroke:#000000; stroke-linecap:round; stroke-linejoin:round; stroke-width:4; stroke-opacity:1; fill:none" points="226.141,1688.65 245.038,1688.65 "/>
<polyline clip-path="url(#clip700)" style="stroke:#000000; stroke-linecap:round; stroke-linejoin:round; stroke-width:4; stroke-opacity:1; fill:none" points="226.141,1430.49 245.038,1430.49 "/>
<polyline clip-path="url(#clip700)" style="stroke:#000000; stroke-linecap:round; stroke-linejoin:round; stroke-width:4; stroke-opacity:1; fill:none" points="226.141,1172.33 245.038,1172.33 "/>
<polyline clip-path="url(#clip700)" style="stroke:#000000; stroke-linecap:round; stroke-linejoin:round; stroke-width:4; stroke-opacity:1; fill:none" points="226.141,914.174 245.038,914.174 "/>
<polyline clip-path="url(#clip700)" style="stroke:#000000; stroke-linecap:round; stroke-linejoin:round; stroke-width:4; stroke-opacity:1; fill:none" points="226.141,656.014 245.038,656.014 "/>
<polyline clip-path="url(#clip700)" style="stroke:#000000; stroke-linecap:round; stroke-linejoin:round; stroke-width:4; stroke-opacity:1; fill:none" points="226.141,397.854 245.038,397.854 "/>
<polyline clip-path="url(#clip700)" style="stroke:#000000; stroke-linecap:round; stroke-linejoin:round; stroke-width:4; stroke-opacity:1; fill:none" points="226.141,139.693 245.038,139.693 "/>
<path clip-path="url(#clip700)" d="M128.645 1674.45 Q125.034 1674.45 123.205 1678.02 Q121.4 1681.56 121.4 1688.69 Q121.4 1695.8 123.205 1699.36 Q125.034 1702.9 128.645 1702.9 Q132.279 1702.9 134.085 1699.36 Q135.913 1695.8 135.913 1688.69 Q135.913 1681.56 134.085 1678.02 Q132.279 1674.45 128.645 1674.45 M128.645 1670.75 Q134.455 1670.75 137.511 1675.36 Q140.589 1679.94 140.589 1688.69 Q140.589 1697.42 137.511 1702.02 Q134.455 1706.61 128.645 1706.61 Q122.835 1706.61 119.756 1702.02 Q116.701 1697.42 116.701 1688.69 Q116.701 1679.94 119.756 1675.36 Q122.835 1670.75 128.645 1670.75 Z" fill="#000000" fill-rule="nonzero" fill-opacity="1" /><path clip-path="url(#clip700)" d="M148.807 1700.06 L153.691 1700.06 L153.691 1705.93 L148.807 1705.93 L148.807 1700.06 Z" fill="#000000" fill-rule="nonzero" fill-opacity="1" /><path clip-path="url(#clip700)" d="M173.876 1674.45 Q170.265 1674.45 168.436 1678.02 Q166.631 1681.56 166.631 1688.69 Q166.631 1695.8 168.436 1699.36 Q170.265 1702.9 173.876 1702.9 Q177.51 1702.9 179.316 1699.36 Q181.145 1695.8 181.145 1688.69 Q181.145 1681.56 179.316 1678.02 Q177.51 1674.45 173.876 1674.45 M173.876 1670.75 Q179.686 1670.75 182.742 1675.36 Q185.821 1679.94 185.821 1688.69 Q185.821 1697.42 182.742 1702.02 Q179.686 1706.61 173.876 1706.61 Q168.066 1706.61 164.987 1702.02 Q161.932 1697.42 161.932 1688.69 Q161.932 1679.94 164.987 1675.36 Q168.066 1670.75 173.876 1670.75 Z" fill="#000000" fill-rule="nonzero" fill-opacity="1" /><path clip-path="url(#clip700)" d="M129.872 1416.29 Q126.261 1416.29 124.432 1419.86 Q122.626 1423.4 122.626 1430.53 Q122.626 1437.64 124.432 1441.2 Q126.261 1444.74 129.872 1444.74 Q133.506 1444.74 135.312 1441.2 Q137.14 1437.64 137.14 1430.53 Q137.14 1423.4 135.312 1419.86 Q133.506 1416.29 129.872 1416.29 M129.872 1412.59 Q135.682 1412.59 138.737 1417.2 Q141.816 1421.78 141.816 1430.53 Q141.816 1439.26 138.737 1443.86 Q135.682 1448.45 129.872 1448.45 Q124.062 1448.45 120.983 1443.86 Q117.927 1439.26 117.927 1430.53 Q117.927 1421.78 120.983 1417.2 Q124.062 1412.59 129.872 1412.59 Z" fill="#000000" fill-rule="nonzero" fill-opacity="1" /><path clip-path="url(#clip700)" d="M150.034 1441.9 L154.918 1441.9 L154.918 1447.77 L150.034 1447.77 L150.034 1441.9 Z" fill="#000000" fill-rule="nonzero" fill-opacity="1" /><path clip-path="url(#clip700)" d="M165.913 1443.84 L173.552 1443.84 L173.552 1417.47 L165.242 1419.14 L165.242 1414.88 L173.506 1413.21 L178.182 1413.21 L178.182 1443.84 L185.821 1443.84 L185.821 1447.77 L165.913 1447.77 L165.913 1443.84 Z" fill="#000000" fill-rule="nonzero" fill-opacity="1" /><path clip-path="url(#clip700)" d="M130.242 1158.13 Q126.631 1158.13 124.802 1161.7 Q122.997 1165.24 122.997 1172.37 Q122.997 1179.48 124.802 1183.04 Q126.631 1186.58 130.242 1186.58 Q133.876 1186.58 135.682 1183.04 Q137.511 1179.48 137.511 1172.37 Q137.511 1165.24 135.682 1161.7 Q133.876 1158.13 130.242 1158.13 M130.242 1154.43 Q136.052 1154.43 139.108 1159.04 Q142.187 1163.62 142.187 1172.37 Q142.187 1181.1 139.108 1185.7 Q136.052 1190.29 130.242 1190.29 Q124.432 1190.29 121.353 1185.7 Q118.298 1181.1 118.298 1172.37 Q118.298 1163.62 121.353 1159.04 Q124.432 1154.43 130.242 1154.43 Z" fill="#000000" fill-rule="nonzero" fill-opacity="1" /><path clip-path="url(#clip700)" d="M150.404 1183.73 L155.288 1183.73 L155.288 1189.61 L150.404 1189.61 L150.404 1183.73 Z" fill="#000000" fill-rule="nonzero" fill-opacity="1" /><path clip-path="url(#clip700)" d="M169.501 1185.68 L185.821 1185.68 L185.821 1189.61 L163.876 1189.61 L163.876 1185.68 Q166.538 1182.92 171.122 1178.3 Q175.728 1173.64 176.909 1172.3 Q179.154 1169.78 180.034 1168.04 Q180.936 1166.28 180.936 1164.59 Q180.936 1161.84 178.992 1160.1 Q177.071 1158.36 173.969 1158.36 Q171.77 1158.36 169.316 1159.13 Q166.885 1159.89 164.108 1161.44 L164.108 1156.72 Q166.932 1155.59 169.385 1155.01 Q171.839 1154.43 173.876 1154.43 Q179.247 1154.43 182.441 1157.11 Q185.635 1159.8 185.635 1164.29 Q185.635 1166.42 184.825 1168.34 Q184.038 1170.24 181.932 1172.83 Q181.353 1173.5 178.251 1176.72 Q175.149 1179.92 169.501 1185.68 Z" fill="#000000" fill-rule="nonzero" fill-opacity="1" /><path clip-path="url(#clip700)" d="M129.293 899.973 Q125.682 899.973 123.853 903.538 Q122.048 907.079 122.048 914.209 Q122.048 921.315 123.853 924.88 Q125.682 928.422 129.293 928.422 Q132.927 928.422 134.733 924.88 Q136.562 921.315 136.562 914.209 Q136.562 907.079 134.733 903.538 Q132.927 899.973 129.293 899.973 M129.293 896.269 Q135.103 896.269 138.159 900.876 Q141.237 905.459 141.237 914.209 Q141.237 922.936 138.159 927.542 Q135.103 932.125 129.293 932.125 Q123.483 932.125 120.404 927.542 Q117.349 922.936 117.349 914.209 Q117.349 905.459 120.404 900.876 Q123.483 896.269 129.293 896.269 Z" fill="#000000" fill-rule="nonzero" fill-opacity="1" /><path clip-path="url(#clip700)" d="M149.455 925.575 L154.339 925.575 L154.339 931.454 L149.455 931.454 L149.455 925.575 Z" fill="#000000" fill-rule="nonzero" fill-opacity="1" /><path clip-path="url(#clip700)" d="M178.691 912.82 Q182.047 913.538 183.922 915.806 Q185.821 918.075 185.821 921.408 Q185.821 926.524 182.302 929.325 Q178.784 932.125 172.302 932.125 Q170.126 932.125 167.811 931.686 Q165.52 931.269 163.066 930.412 L163.066 925.899 Q165.01 927.033 167.325 927.612 Q169.64 928.19 172.163 928.19 Q176.561 928.19 178.853 926.454 Q181.168 924.718 181.168 921.408 Q181.168 918.352 179.015 916.639 Q176.885 914.903 173.066 914.903 L169.038 914.903 L169.038 911.061 L173.251 911.061 Q176.7 911.061 178.529 909.695 Q180.358 908.306 180.358 905.714 Q180.358 903.052 178.459 901.639 Q176.584 900.204 173.066 900.204 Q171.145 900.204 168.946 900.621 Q166.747 901.038 164.108 901.917 L164.108 897.751 Q166.77 897.01 169.085 896.64 Q171.422 896.269 173.483 896.269 Q178.807 896.269 181.909 898.7 Q185.01 901.107 185.01 905.227 Q185.01 908.098 183.367 910.089 Q181.723 912.056 178.691 912.82 Z" fill="#000000" fill-rule="nonzero" fill-opacity="1" /><path clip-path="url(#clip700)" d="M128.159 641.813 Q124.548 641.813 122.719 645.377 Q120.913 648.919 120.913 656.049 Q120.913 663.155 122.719 666.72 Q124.548 670.261 128.159 670.261 Q131.793 670.261 133.599 666.72 Q135.427 663.155 135.427 656.049 Q135.427 648.919 133.599 645.377 Q131.793 641.813 128.159 641.813 M128.159 638.109 Q133.969 638.109 137.025 642.715 Q140.103 647.299 140.103 656.049 Q140.103 664.775 137.025 669.382 Q133.969 673.965 128.159 673.965 Q122.349 673.965 119.27 669.382 Q116.214 664.775 116.214 656.049 Q116.214 647.299 119.27 642.715 Q122.349 638.109 128.159 638.109 Z" fill="#000000" fill-rule="nonzero" fill-opacity="1" /><path clip-path="url(#clip700)" d="M148.321 667.414 L153.205 667.414 L153.205 673.294 L148.321 673.294 L148.321 667.414 Z" fill="#000000" fill-rule="nonzero" fill-opacity="1" /><path clip-path="url(#clip700)" d="M176.237 642.808 L164.432 661.257 L176.237 661.257 L176.237 642.808 M175.01 638.734 L180.89 638.734 L180.89 661.257 L185.821 661.257 L185.821 665.146 L180.89 665.146 L180.89 673.294 L176.237 673.294 L176.237 665.146 L160.636 665.146 L160.636 660.632 L175.01 638.734 Z" fill="#000000" fill-rule="nonzero" fill-opacity="1" /><path clip-path="url(#clip700)" d="M129.64 383.652 Q126.029 383.652 124.201 387.217 Q122.395 390.759 122.395 397.888 Q122.395 404.995 124.201 408.56 Q126.029 412.101 129.64 412.101 Q133.275 412.101 135.08 408.56 Q136.909 404.995 136.909 397.888 Q136.909 390.759 135.08 387.217 Q133.275 383.652 129.64 383.652 M129.64 379.949 Q135.45 379.949 138.506 384.555 Q141.585 389.138 141.585 397.888 Q141.585 406.615 138.506 411.222 Q135.45 415.805 129.64 415.805 Q123.83 415.805 120.751 411.222 Q117.696 406.615 117.696 397.888 Q117.696 389.138 120.751 384.555 Q123.83 379.949 129.64 379.949 Z" fill="#000000" fill-rule="nonzero" fill-opacity="1" /><path clip-path="url(#clip700)" d="M149.802 409.254 L154.686 409.254 L154.686 415.134 L149.802 415.134 L149.802 409.254 Z" fill="#000000" fill-rule="nonzero" fill-opacity="1" /><path clip-path="url(#clip700)" d="M164.918 380.574 L183.274 380.574 L183.274 384.509 L169.2 384.509 L169.2 392.981 Q170.219 392.634 171.237 392.472 Q172.256 392.286 173.274 392.286 Q179.061 392.286 182.441 395.458 Q185.821 398.629 185.821 404.046 Q185.821 409.624 182.348 412.726 Q178.876 415.805 172.557 415.805 Q170.381 415.805 168.112 415.435 Q165.867 415.064 163.46 414.323 L163.46 409.624 Q165.543 410.759 167.765 411.314 Q169.987 411.87 172.464 411.87 Q176.469 411.87 178.807 409.763 Q181.145 407.657 181.145 404.046 Q181.145 400.435 178.807 398.328 Q176.469 396.222 172.464 396.222 Q170.589 396.222 168.714 396.638 Q166.862 397.055 164.918 397.935 L164.918 380.574 Z" fill="#000000" fill-rule="nonzero" fill-opacity="1" /><path clip-path="url(#clip700)" d="M128.483 125.492 Q124.872 125.492 123.043 129.057 Q121.238 132.598 121.238 139.728 Q121.238 146.834 123.043 150.399 Q124.872 153.941 128.483 153.941 Q132.117 153.941 133.923 150.399 Q135.751 146.834 135.751 139.728 Q135.751 132.598 133.923 129.057 Q132.117 125.492 128.483 125.492 M128.483 121.788 Q134.293 121.788 137.349 126.395 Q140.427 130.978 140.427 139.728 Q140.427 148.455 137.349 153.061 Q134.293 157.645 128.483 157.645 Q122.673 157.645 119.594 153.061 Q116.539 148.455 116.539 139.728 Q116.539 130.978 119.594 126.395 Q122.673 121.788 128.483 121.788 Z" fill="#000000" fill-rule="nonzero" fill-opacity="1" /><path clip-path="url(#clip700)" d="M148.645 151.094 L153.529 151.094 L153.529 156.973 L148.645 156.973 L148.645 151.094 Z" fill="#000000" fill-rule="nonzero" fill-opacity="1" /><path clip-path="url(#clip700)" d="M174.293 137.83 Q171.145 137.83 169.293 139.983 Q167.464 142.135 167.464 145.885 Q167.464 149.612 169.293 151.788 Q171.145 153.941 174.293 153.941 Q177.441 153.941 179.27 151.788 Q181.122 149.612 181.122 145.885 Q181.122 142.135 179.27 139.983 Q177.441 137.83 174.293 137.83 M183.575 123.177 L183.575 127.436 Q181.816 126.603 180.01 126.163 Q178.228 125.723 176.469 125.723 Q171.839 125.723 169.385 128.848 Q166.955 131.973 166.608 138.293 Q167.973 136.279 170.034 135.214 Q172.094 134.126 174.571 134.126 Q179.779 134.126 182.788 137.297 Q185.821 140.446 185.821 145.885 Q185.821 151.209 182.672 154.427 Q179.524 157.645 174.293 157.645 Q168.297 157.645 165.126 153.061 Q161.955 148.455 161.955 139.728 Q161.955 131.534 165.844 126.673 Q169.733 121.788 176.284 121.788 Q178.043 121.788 179.825 122.136 Q181.631 122.483 183.575 123.177 Z" fill="#000000" fill-rule="nonzero" fill-opacity="1" /><path clip-path="url(#clip700)" d="M19.402 1098.4 L37.2578 1098.4 L37.2578 1090.32 Q37.2578 1085.83 34.9343 1083.38 Q32.6108 1080.93 28.314 1080.93 Q24.0489 1080.93 21.7255 1083.38 Q19.402 1085.83 19.402 1090.32 L19.402 1098.4 M14.1184 1104.83 L14.1184 1090.32 Q14.1184 1082.33 17.7469 1078.26 Q21.3435 1074.15 28.314 1074.15 Q35.3481 1074.15 38.9447 1078.26 Q42.5413 1082.33 42.5413 1090.32 L42.5413 1098.4 L61.6384 1098.4 L61.6384 1104.83 L14.1184 1104.83 Z" fill="#000000" fill-rule="nonzero" fill-opacity="1" /><path clip-path="url(#clip700)" d="M31.465 1046.27 Q30.8921 1047.26 30.6375 1048.43 Q30.351 1049.58 30.351 1050.98 Q30.351 1055.95 33.5975 1058.62 Q36.8122 1061.26 42.8596 1061.26 L61.6384 1061.26 L61.6384 1067.15 L25.9905 1067.15 L25.9905 1061.26 L31.5287 1061.26 Q28.2821 1059.41 26.7225 1056.45 Q25.1311 1053.49 25.1311 1049.26 Q25.1311 1048.66 25.2266 1047.92 Q25.2903 1047.19 25.4494 1046.3 L31.465 1046.27 Z" fill="#000000" fill-rule="nonzero" fill-opacity="1" /><path clip-path="url(#clip700)" d="M42.3504 1011.07 L45.2149 1011.07 L45.2149 1037.99 Q51.2623 1037.61 54.4452 1034.37 Q57.5962 1031.09 57.5962 1025.26 Q57.5962 1021.89 56.7687 1018.74 Q55.9411 1015.55 54.2861 1012.44 L59.8242 1012.44 Q61.161 1015.59 61.8612 1018.9 Q62.5615 1022.21 62.5615 1025.61 Q62.5615 1034.14 57.5962 1039.14 Q52.631 1044.1 44.1646 1044.1 Q35.4117 1044.1 30.2873 1039.39 Q25.1311 1034.65 25.1311 1026.63 Q25.1311 1019.44 29.7781 1015.27 Q34.3932 1011.07 42.3504 1011.07 M40.6316 1016.92 Q35.8255 1016.99 32.9609 1019.63 Q30.0964 1022.24 30.0964 1026.57 Q30.0964 1031.47 32.8654 1034.43 Q35.6345 1037.36 40.6634 1037.8 L40.6316 1016.92 Z" fill="#000000" fill-rule="nonzero" fill-opacity="1" /><path clip-path="url(#clip700)" d="M25.9905 1005.66 L25.9905 999.45 L55.9093 988.31 L25.9905 977.17 L25.9905 970.963 L61.6384 984.331 L61.6384 992.288 L25.9905 1005.66 Z" fill="#000000" fill-rule="nonzero" fill-opacity="1" /><path clip-path="url(#clip700)" d="M43.719 946.678 Q43.719 953.776 45.3422 956.513 Q46.9655 959.25 50.8804 959.25 Q53.9996 959.25 55.8457 957.213 Q57.6599 955.144 57.6599 951.611 Q57.6599 946.742 54.2224 943.813 Q50.7531 940.853 45.0239 940.853 L43.719 940.853 L43.719 946.678 M41.3 934.997 L61.6384 934.997 L61.6384 940.853 L56.2276 940.853 Q59.4741 942.858 61.0337 945.85 Q62.5615 948.842 62.5615 953.171 Q62.5615 958.645 59.5059 961.892 Q56.4186 965.107 51.2623 965.107 Q45.2467 965.107 42.1912 961.096 Q39.1357 957.054 39.1357 949.065 L39.1357 940.853 L38.5628 940.853 Q34.5205 940.853 32.3244 943.527 Q30.0964 946.169 30.0964 950.975 Q30.0964 954.03 30.8284 956.927 Q31.5605 959.823 33.0246 962.497 L27.6137 962.497 Q26.3724 959.282 25.7677 956.258 Q25.1311 953.235 25.1311 950.37 Q25.1311 942.636 29.1415 938.816 Q33.1519 934.997 41.3 934.997 Z" fill="#000000" fill-rule="nonzero" fill-opacity="1" /><path clip-path="url(#clip700)" d="M12.1132 922.934 L12.1132 917.077 L61.6384 917.077 L61.6384 922.934 L12.1132 922.934 Z" fill="#000000" fill-rule="nonzero" fill-opacity="1" /><path clip-path="url(#clip700)" d="M42.3504 874.332 L45.2149 874.332 L45.2149 901.259 Q51.2623 900.877 54.4452 897.63 Q57.5962 894.352 57.5962 888.527 Q57.5962 885.153 56.7687 882.002 Q55.9411 878.819 54.2861 875.7 L59.8242 875.7 Q61.161 878.851 61.8612 882.161 Q62.5615 885.472 62.5615 888.877 Q62.5615 897.407 57.5962 902.404 Q52.631 907.37 44.1646 907.37 Q35.4117 907.37 30.2873 902.659 Q25.1311 897.917 25.1311 889.896 Q25.1311 882.702 29.7781 878.533 Q34.3932 874.332 42.3504 874.332 M40.6316 880.188 Q35.8255 880.252 32.9609 882.893 Q30.0964 885.503 30.0964 889.832 Q30.0964 894.734 32.8654 897.694 Q35.6345 900.622 40.6634 901.068 L40.6316 880.188 Z" fill="#000000" fill-rule="nonzero" fill-opacity="1" /><path clip-path="url(#clip700)" d="M40.1224 835.087 L61.6384 835.087 L61.6384 840.943 L40.3133 840.943 Q35.2526 840.943 32.7381 842.917 Q30.2237 844.89 30.2237 848.837 Q30.2237 853.579 33.2474 856.317 Q36.2711 859.054 41.491 859.054 L61.6384 859.054 L61.6384 864.942 L25.9905 864.942 L25.9905 859.054 L31.5287 859.054 Q28.314 856.953 26.7225 854.12 Q25.1311 851.256 25.1311 847.532 Q25.1311 841.389 28.9505 838.238 Q32.7381 835.087 40.1224 835.087 Z" fill="#000000" fill-rule="nonzero" fill-opacity="1" /><path clip-path="url(#clip700)" d="M27.3591 797.752 L32.8336 797.752 Q31.465 800.235 30.7966 802.749 Q30.0964 805.232 30.0964 807.778 Q30.0964 813.475 33.7248 816.626 Q37.3214 819.777 43.8463 819.777 Q50.3711 819.777 53.9996 816.626 Q57.5962 813.475 57.5962 807.778 Q57.5962 805.232 56.9278 802.749 Q56.2276 800.235 54.859 797.752 L60.2698 797.752 Q61.4156 800.203 61.9886 802.845 Q62.5615 805.455 62.5615 808.415 Q62.5615 816.467 57.5007 821.21 Q52.44 825.952 43.8463 825.952 Q35.1253 825.952 30.1282 821.178 Q25.1311 816.372 25.1311 808.033 Q25.1311 805.327 25.704 802.749 Q26.2451 800.171 27.3591 797.752 Z" fill="#000000" fill-rule="nonzero" fill-opacity="1" /><path clip-path="url(#clip700)" d="M42.3504 757.075 L45.2149 757.075 L45.2149 784.002 Q51.2623 783.62 54.4452 780.374 Q57.5962 777.095 57.5962 771.271 Q57.5962 767.897 56.7687 764.746 Q55.9411 761.563 54.2861 758.444 L59.8242 758.444 Q61.161 761.595 61.8612 764.905 Q62.5615 768.215 62.5615 771.621 Q62.5615 780.151 57.5962 785.148 Q52.631 790.113 44.1646 790.113 Q35.4117 790.113 30.2873 785.403 Q25.1311 780.66 25.1311 772.639 Q25.1311 765.446 29.7781 761.277 Q34.3932 757.075 42.3504 757.075 M40.6316 762.932 Q35.8255 762.995 32.9609 765.637 Q30.0964 768.247 30.0964 772.576 Q30.0964 777.477 32.8654 780.437 Q35.6345 783.366 40.6634 783.811 L40.6316 762.932 Z" fill="#000000" fill-rule="nonzero" fill-opacity="1" /><path clip-path="url(#clip700)" d="M787.775 12.096 L826.015 12.096 L826.015 18.9825 L795.957 18.9825 L795.957 36.8875 L824.759 36.8875 L824.759 43.7741 L795.957 43.7741 L795.957 65.6895 L826.744 65.6895 L826.744 72.576 L787.775 72.576 L787.775 12.096 Z" fill="#000000" fill-rule="nonzero" fill-opacity="1" /><path clip-path="url(#clip700)" d="M862.838 9.54393 L862.838 15.7418 L855.708 15.7418 Q851.698 15.7418 850.118 17.3622 Q848.579 18.9825 848.579 23.1955 L848.579 27.2059 L860.853 27.2059 L860.853 32.9987 L848.579 32.9987 L848.579 72.576 L841.085 72.576 L841.085 32.9987 L833.955 32.9987 L833.955 27.2059 L841.085 27.2059 L841.085 24.0462 Q841.085 16.471 844.609 13.0277 Q848.133 9.54393 855.789 9.54393 L862.838 9.54393 Z" fill="#000000" fill-rule="nonzero" fill-opacity="1" /><path clip-path="url(#clip700)" d="M892.045 9.54393 L892.045 15.7418 L884.915 15.7418 Q880.905 15.7418 879.325 17.3622 Q877.786 18.9825 877.786 23.1955 L877.786 27.2059 L890.06 27.2059 L890.06 32.9987 L877.786 32.9987 L877.786 72.576 L870.292 72.576 L870.292 32.9987 L863.162 32.9987 L863.162 27.2059 L870.292 27.2059 L870.292 24.0462 Q870.292 16.471 873.816 13.0277 Q877.34 9.54393 884.996 9.54393 L892.045 9.54393 Z" fill="#000000" fill-rule="nonzero" fill-opacity="1" /><path clip-path="url(#clip700)" d="M937.091 48.0275 L937.091 51.6733 L902.82 51.6733 Q903.306 59.3701 907.438 63.421 Q911.611 67.4314 919.024 67.4314 Q923.318 67.4314 927.328 66.3781 Q931.379 65.3249 935.349 63.2184 L935.349 70.267 Q931.339 71.9684 927.126 72.8596 Q922.913 73.7508 918.578 73.7508 Q907.722 73.7508 901.362 67.4314 Q895.043 61.1119 895.043 50.3365 Q895.043 39.1965 901.038 32.6746 Q907.074 26.1121 917.282 26.1121 Q926.437 26.1121 931.744 32.0264 Q937.091 37.9003 937.091 48.0275 M929.637 45.84 Q929.556 39.7232 926.194 36.0774 Q922.872 32.4315 917.363 32.4315 Q911.125 32.4315 907.357 35.9558 Q903.63 39.4801 903.063 45.8805 L929.637 45.84 Z" fill="#000000" fill-rule="nonzero" fill-opacity="1" /><path clip-path="url(#clip700)" d="M981.975 28.9478 L981.975 35.9153 Q978.815 34.1734 975.615 33.3227 Q972.455 32.4315 969.215 32.4315 Q961.963 32.4315 957.953 37.0496 Q953.943 41.6271 953.943 49.9314 Q953.943 58.2358 957.953 62.8538 Q961.963 67.4314 969.215 67.4314 Q972.455 67.4314 975.615 66.5807 Q978.815 65.6895 981.975 63.9476 L981.975 70.8341 Q978.856 72.2924 975.494 73.0216 Q972.172 73.7508 968.404 73.7508 Q958.156 73.7508 952.12 67.3098 Q946.084 60.8689 946.084 49.9314 Q946.084 38.832 952.16 32.472 Q958.277 26.1121 968.891 26.1121 Q972.334 26.1121 975.615 26.8413 Q978.896 27.5299 981.975 28.9478 Z" fill="#000000" fill-rule="nonzero" fill-opacity="1" /><path clip-path="url(#clip700)" d="M1002.31 14.324 L1002.31 27.2059 L1017.66 27.2059 L1017.66 32.9987 L1002.31 32.9987 L1002.31 57.6282 Q1002.31 63.1779 1003.81 64.7578 Q1005.35 66.3376 1010.01 66.3376 L1017.66 66.3376 L1017.66 72.576 L1010.01 72.576 Q1001.38 72.576 998.098 69.3758 Q994.816 66.1351 994.816 57.6282 L994.816 32.9987 L989.348 32.9987 L989.348 27.2059 L994.816 27.2059 L994.816 14.324 L1002.31 14.324 Z" fill="#000000" fill-rule="nonzero" fill-opacity="1" /><path clip-path="url(#clip700)" d="M1071.42 32.4315 Q1065.42 32.4315 1061.94 37.1306 Q1058.46 41.7891 1058.46 49.9314 Q1058.46 58.0738 1061.9 62.7728 Q1065.38 67.4314 1071.42 67.4314 Q1077.37 67.4314 1080.86 62.7323 Q1084.34 58.0333 1084.34 49.9314 Q1084.34 41.8701 1080.86 37.1711 Q1077.37 32.4315 1071.42 32.4315 M1071.42 26.1121 Q1081.14 26.1121 1086.69 32.4315 Q1092.24 38.7509 1092.24 49.9314 Q1092.24 61.0714 1086.69 67.4314 Q1081.14 73.7508 1071.42 73.7508 Q1061.66 73.7508 1056.11 67.4314 Q1050.6 61.0714 1050.6 49.9314 Q1050.6 38.7509 1056.11 32.4315 Q1061.66 26.1121 1071.42 26.1121 Z" fill="#000000" fill-rule="nonzero" fill-opacity="1" /><path clip-path="url(#clip700)" d="M1127.56 9.54393 L1127.56 15.7418 L1120.43 15.7418 Q1116.42 15.7418 1114.84 17.3622 Q1113.31 18.9825 1113.31 23.1955 L1113.31 27.2059 L1125.58 27.2059 L1125.58 32.9987 L1113.31 32.9987 L1113.31 72.576 L1105.81 72.576 L1105.81 32.9987 L1098.68 32.9987 L1098.68 27.2059 L1105.81 27.2059 L1105.81 24.0462 Q1105.81 16.471 1109.34 13.0277 Q1112.86 9.54393 1120.52 9.54393 L1127.56 9.54393 Z" fill="#000000" fill-rule="nonzero" fill-opacity="1" /><path clip-path="url(#clip700)" d="M1196.75 14.0809 L1196.75 22.0612 Q1192.1 19.8332 1187.96 18.7395 Q1183.83 17.6457 1179.98 17.6457 Q1173.3 17.6457 1169.65 20.2383 Q1166.05 22.8309 1166.05 27.611 Q1166.05 31.6214 1168.44 33.6873 Q1170.87 35.7128 1177.59 36.9686 L1182.54 37.9813 Q1191.69 39.7232 1196.02 44.1387 Q1200.4 48.5136 1200.4 55.8863 Q1200.4 64.6767 1194.49 69.2137 Q1188.61 73.7508 1177.23 73.7508 Q1172.93 73.7508 1168.07 72.7785 Q1163.25 71.8063 1158.07 69.9024 L1158.07 61.4765 Q1163.05 64.2716 1167.83 65.6895 Q1172.61 67.1073 1177.23 67.1073 Q1184.24 67.1073 1188.04 64.3527 Q1191.85 61.598 1191.85 56.4939 Q1191.85 52.0379 1189.1 49.5264 Q1186.38 47.0148 1180.15 45.759 L1175.16 44.7868 Q1166.01 42.9639 1161.92 39.075 Q1157.82 35.1862 1157.82 28.2591 Q1157.82 20.2383 1163.46 15.6203 Q1169.13 11.0023 1179.05 11.0023 Q1183.3 11.0023 1187.72 11.7719 Q1192.14 12.5416 1196.75 14.0809 Z" fill="#000000" fill-rule="nonzero" fill-opacity="1" /><path clip-path="url(#clip700)" d="M1251.64 48.0275 L1251.64 51.6733 L1217.37 51.6733 Q1217.86 59.3701 1221.99 63.421 Q1226.16 67.4314 1233.58 67.4314 Q1237.87 67.4314 1241.88 66.3781 Q1245.93 65.3249 1249.9 63.2184 L1249.9 70.267 Q1245.89 71.9684 1241.68 72.8596 Q1237.47 73.7508 1233.13 73.7508 Q1222.27 73.7508 1215.91 67.4314 Q1209.6 61.1119 1209.6 50.3365 Q1209.6 39.1965 1215.59 32.6746 Q1221.63 26.1121 1231.83 26.1121 Q1240.99 26.1121 1246.3 32.0264 Q1251.64 37.9003 1251.64 48.0275 M1244.19 45.84 Q1244.11 39.7232 1240.75 36.0774 Q1237.42 32.4315 1231.92 32.4315 Q1225.68 32.4315 1221.91 35.9558 Q1218.18 39.4801 1217.62 45.8805 L1244.19 45.84 Z" fill="#000000" fill-rule="nonzero" fill-opacity="1" /><path clip-path="url(#clip700)" d="M1284.5 49.7694 Q1275.46 49.7694 1271.98 51.8354 Q1268.5 53.9013 1268.5 58.8839 Q1268.5 62.8538 1271.09 65.2034 Q1273.72 67.5124 1278.22 67.5124 Q1284.42 67.5124 1288.14 63.1374 Q1291.91 58.7219 1291.91 51.4303 L1291.91 49.7694 L1284.5 49.7694 M1299.36 46.6907 L1299.36 72.576 L1291.91 72.576 L1291.91 65.6895 Q1289.36 69.8214 1285.55 71.8063 Q1281.74 73.7508 1276.23 73.7508 Q1269.27 73.7508 1265.13 69.8619 Q1261.04 65.9325 1261.04 59.3701 Q1261.04 51.7138 1266.15 47.825 Q1271.29 43.9361 1281.46 43.9361 L1291.91 43.9361 L1291.91 43.2069 Q1291.91 38.0623 1288.51 35.2672 Q1285.14 32.4315 1279.03 32.4315 Q1275.14 32.4315 1271.45 33.3632 Q1267.77 34.295 1264.36 36.1584 L1264.36 29.2718 Q1268.45 27.692 1272.3 26.9223 Q1276.15 26.1121 1279.8 26.1121 Q1289.64 26.1121 1294.5 31.2163 Q1299.36 36.3204 1299.36 46.6907 Z" fill="#000000" fill-rule="nonzero" fill-opacity="1" /><path clip-path="url(#clip700)" d="M1343.64 28.5427 L1343.64 35.5912 Q1340.48 33.9709 1337.08 33.1607 Q1333.67 32.3505 1330.03 32.3505 Q1324.48 32.3505 1321.68 34.0519 Q1318.93 35.7533 1318.93 39.156 Q1318.93 41.7486 1320.91 43.2475 Q1322.9 44.7058 1328.89 46.0426 L1331.45 46.6097 Q1339.39 48.3111 1342.71 51.4303 Q1346.07 54.509 1346.07 60.0587 Q1346.07 66.3781 1341.05 70.0644 Q1336.06 73.7508 1327.31 73.7508 Q1323.67 73.7508 1319.7 73.0216 Q1315.77 72.3329 1311.39 70.9151 L1311.39 63.2184 Q1315.53 65.3654 1319.54 66.4591 Q1323.55 67.5124 1327.48 67.5124 Q1332.74 67.5124 1335.58 65.73 Q1338.41 63.9071 1338.41 60.6258 Q1338.41 57.5877 1336.35 55.9673 Q1334.32 54.3469 1327.4 52.8481 L1324.8 52.2405 Q1317.88 50.7821 1314.8 47.7845 Q1311.72 44.7463 1311.72 39.4801 Q1311.72 33.0797 1316.26 29.5959 Q1320.79 26.1121 1329.14 26.1121 Q1333.27 26.1121 1336.92 26.7198 Q1340.56 27.3274 1343.64 28.5427 Z" fill="#000000" fill-rule="nonzero" fill-opacity="1" /><path clip-path="url(#clip700)" d="M1375.52 32.4315 Q1369.52 32.4315 1366.04 37.1306 Q1362.56 41.7891 1362.56 49.9314 Q1362.56 58.0738 1366 62.7728 Q1369.48 67.4314 1375.52 67.4314 Q1381.48 67.4314 1384.96 62.7323 Q1388.44 58.0333 1388.44 49.9314 Q1388.44 41.8701 1384.96 37.1711 Q1381.48 32.4315 1375.52 32.4315 M1375.52 26.1121 Q1385.24 26.1121 1390.79 32.4315 Q1396.34 38.7509 1396.34 49.9314 Q1396.34 61.0714 1390.79 67.4314 Q1385.24 73.7508 1375.52 73.7508 Q1365.76 73.7508 1360.21 67.4314 Q1354.7 61.0714 1354.7 49.9314 Q1354.7 38.7509 1360.21 32.4315 Q1365.76 26.1121 1375.52 26.1121 Z" fill="#000000" fill-rule="nonzero" fill-opacity="1" /><path clip-path="url(#clip700)" d="M1446.41 45.1919 L1446.41 72.576 L1438.96 72.576 L1438.96 45.4349 Q1438.96 38.994 1436.45 35.7938 Q1433.93 32.5936 1428.91 32.5936 Q1422.88 32.5936 1419.39 36.4419 Q1415.91 40.2903 1415.91 46.9338 L1415.91 72.576 L1408.41 72.576 L1408.41 27.2059 L1415.91 27.2059 L1415.91 34.2544 Q1418.58 30.163 1422.19 28.1376 Q1425.83 26.1121 1430.57 26.1121 Q1438.39 26.1121 1442.4 30.9732 Q1446.41 35.7938 1446.41 45.1919 Z" fill="#000000" fill-rule="nonzero" fill-opacity="1" /><path clip-path="url(#clip700)" d="M1481.9 49.7694 Q1472.86 49.7694 1469.38 51.8354 Q1465.9 53.9013 1465.9 58.8839 Q1465.9 62.8538 1468.49 65.2034 Q1471.12 67.5124 1475.62 67.5124 Q1481.82 67.5124 1485.54 63.1374 Q1489.31 58.7219 1489.31 51.4303 L1489.31 49.7694 L1481.9 49.7694 M1496.76 46.6907 L1496.76 72.576 L1489.31 72.576 L1489.31 65.6895 Q1486.76 69.8214 1482.95 71.8063 Q1479.14 73.7508 1473.63 73.7508 Q1466.67 73.7508 1462.53 69.8619 Q1458.44 65.9325 1458.44 59.3701 Q1458.44 51.7138 1463.55 47.825 Q1468.69 43.9361 1478.86 43.9361 L1489.31 43.9361 L1489.31 43.2069 Q1489.31 38.0623 1485.91 35.2672 Q1482.55 32.4315 1476.43 32.4315 Q1472.54 32.4315 1468.85 33.3632 Q1465.17 34.295 1461.76 36.1584 L1461.76 29.2718 Q1465.86 27.692 1469.7 26.9223 Q1473.55 26.1121 1477.2 26.1121 Q1487.04 26.1121 1491.9 31.2163 Q1496.76 36.3204 1496.76 46.6907 Z" fill="#000000" fill-rule="nonzero" fill-opacity="1" /><path clip-path="url(#clip700)" d="M1512.12 9.54393 L1519.57 9.54393 L1519.57 72.576 L1512.12 72.576 L1512.12 9.54393 Z" fill="#000000" fill-rule="nonzero" fill-opacity="1" /><path clip-path="url(#clip700)" d="M1535.17 27.2059 L1542.62 27.2059 L1542.62 72.576 L1535.17 72.576 L1535.17 27.2059 M1535.17 9.54393 L1542.62 9.54393 L1542.62 18.9825 L1535.17 18.9825 L1535.17 9.54393 Z" fill="#000000" fill-rule="nonzero" fill-opacity="1" /><path clip-path="url(#clip700)" d="M1565.59 14.324 L1565.59 27.2059 L1580.94 27.2059 L1580.94 32.9987 L1565.59 32.9987 L1565.59 57.6282 Q1565.59 63.1779 1567.09 64.7578 Q1568.63 66.3376 1573.29 66.3376 L1580.94 66.3376 L1580.94 72.576 L1573.29 72.576 Q1564.66 72.576 1561.38 69.3758 Q1558.09 66.1351 1558.09 57.6282 L1558.09 32.9987 L1552.63 32.9987 L1552.63 27.2059 L1558.09 27.2059 L1558.09 14.324 L1565.59 14.324 Z" fill="#000000" fill-rule="nonzero" fill-opacity="1" /><path clip-path="url(#clip700)" d="M1609.62 76.7889 Q1606.46 84.8907 1603.46 87.3618 Q1600.47 89.8329 1595.44 89.8329 L1589.49 89.8329 L1589.49 83.5945 L1593.86 83.5945 Q1596.94 83.5945 1598.64 82.1361 Q1600.35 80.6778 1602.41 75.2496 L1603.75 71.8468 L1585.4 27.2059 L1593.3 27.2059 L1607.48 62.6918 L1621.65 27.2059 L1629.55 27.2059 L1609.62 76.7889 Z" fill="#000000" fill-rule="nonzero" fill-opacity="1" /><path clip-path="url(#clip700)" d="M1686.75 20.1573 L1675.65 50.2555 L1697.89 50.2555 L1686.75 20.1573 M1682.13 12.096 L1691.41 12.096 L1714.46 72.576 L1705.95 72.576 L1700.44 57.061 L1673.18 57.061 L1667.67 72.576 L1659.04 72.576 L1682.13 12.096 Z" fill="#000000" fill-rule="nonzero" fill-opacity="1" /><path clip-path="url(#clip700)" d="M1758.29 35.9153 Q1761.09 30.8922 1764.97 28.5022 Q1768.86 26.1121 1774.13 26.1121 Q1781.22 26.1121 1785.07 31.0947 Q1788.92 36.0368 1788.92 45.1919 L1788.92 72.576 L1781.42 72.576 L1781.42 45.4349 Q1781.42 38.913 1779.11 35.7533 Q1776.8 32.5936 1772.06 32.5936 Q1766.27 32.5936 1762.91 36.4419 Q1759.55 40.2903 1759.55 46.9338 L1759.55 72.576 L1752.05 72.576 L1752.05 45.4349 Q1752.05 38.8725 1749.74 35.7533 Q1747.43 32.5936 1742.61 32.5936 Q1736.9 32.5936 1733.54 36.4824 Q1730.18 40.3308 1730.18 46.9338 L1730.18 72.576 L1722.68 72.576 L1722.68 27.2059 L1730.18 27.2059 L1730.18 34.2544 Q1732.73 30.082 1736.29 28.0971 Q1739.86 26.1121 1744.76 26.1121 Q1749.7 26.1121 1753.15 28.6237 Q1756.63 31.1352 1758.29 35.9153 Z" fill="#000000" fill-rule="nonzero" fill-opacity="1" /><path clip-path="url(#clip700)" d="M1810.99 65.7705 L1810.99 89.8329 L1803.5 89.8329 L1803.5 27.2059 L1810.99 27.2059 L1810.99 34.0924 Q1813.34 30.0415 1816.91 28.0971 Q1820.51 26.1121 1825.49 26.1121 Q1833.76 26.1121 1838.9 32.6746 Q1844.09 39.2371 1844.09 49.9314 Q1844.09 60.6258 1838.9 67.1883 Q1833.76 73.7508 1825.49 73.7508 Q1820.51 73.7508 1816.91 71.8063 Q1813.34 69.8214 1810.99 65.7705 M1836.35 49.9314 Q1836.35 41.7081 1832.95 37.0496 Q1829.59 32.3505 1823.67 32.3505 Q1817.76 32.3505 1814.35 37.0496 Q1810.99 41.7081 1810.99 49.9314 Q1810.99 58.1548 1814.35 62.8538 Q1817.76 67.5124 1823.67 67.5124 Q1829.59 67.5124 1832.95 62.8538 Q1836.35 58.1548 1836.35 49.9314 Z" fill="#000000" fill-rule="nonzero" fill-opacity="1" /><path clip-path="url(#clip700)" d="M1856.44 9.54393 L1863.9 9.54393 L1863.9 72.576 L1856.44 72.576 L1856.44 9.54393 Z" fill="#000000" fill-rule="nonzero" fill-opacity="1" /><path clip-path="url(#clip700)" d="M1879.49 27.2059 L1886.95 27.2059 L1886.95 72.576 L1879.49 72.576 L1879.49 27.2059 M1879.49 9.54393 L1886.95 9.54393 L1886.95 18.9825 L1879.49 18.9825 L1879.49 9.54393 Z" fill="#000000" fill-rule="nonzero" fill-opacity="1" /><path clip-path="url(#clip700)" d="M1909.92 14.324 L1909.92 27.2059 L1925.27 27.2059 L1925.27 32.9987 L1909.92 32.9987 L1909.92 57.6282 Q1909.92 63.1779 1911.41 64.7578 Q1912.95 66.3376 1917.61 66.3376 L1925.27 66.3376 L1925.27 72.576 L1917.61 72.576 Q1908.98 72.576 1905.7 69.3758 Q1902.42 66.1351 1902.42 57.6282 L1902.42 32.9987 L1896.95 32.9987 L1896.95 27.2059 L1902.42 27.2059 L1902.42 14.324 L1909.92 14.324 Z" fill="#000000" fill-rule="nonzero" fill-opacity="1" /><path clip-path="url(#clip700)" d="M1934.3 54.671 L1934.3 27.2059 L1941.76 27.2059 L1941.76 54.3874 Q1941.76 60.8284 1944.27 64.0691 Q1946.78 67.2693 1951.8 67.2693 Q1957.84 67.2693 1961.32 63.421 Q1964.85 59.5726 1964.85 52.9291 L1964.85 27.2059 L1972.3 27.2059 L1972.3 72.576 L1964.85 72.576 L1964.85 65.6084 Q1962.13 69.7404 1958.53 71.7658 Q1954.96 73.7508 1950.22 73.7508 Q1942.4 73.7508 1938.35 68.8897 Q1934.3 64.0286 1934.3 54.671 M1953.06 26.1121 L1953.06 26.1121 Z" fill="#000000" fill-rule="nonzero" fill-opacity="1" /><path clip-path="url(#clip700)" d="M2017.51 34.0924 L2017.51 9.54393 L2024.96 9.54393 L2024.96 72.576 L2017.51 72.576 L2017.51 65.7705 Q2015.16 69.8214 2011.55 71.8063 Q2007.99 73.7508 2002.96 73.7508 Q1994.74 73.7508 1989.56 67.1883 Q1984.41 60.6258 1984.41 49.9314 Q1984.41 39.2371 1989.56 32.6746 Q1994.74 26.1121 2002.96 26.1121 Q2007.99 26.1121 2011.55 28.0971 Q2015.16 30.0415 2017.51 34.0924 M1992.11 49.9314 Q1992.11 58.1548 1995.47 62.8538 Q1998.87 67.5124 2004.79 67.5124 Q2010.7 67.5124 2014.1 62.8538 Q2017.51 58.1548 2017.51 49.9314 Q2017.51 41.7081 2014.1 37.0496 Q2010.7 32.3505 2004.79 32.3505 Q1998.87 32.3505 1995.47 37.0496 Q1992.11 41.7081 1992.11 49.9314 Z" fill="#000000" fill-rule="nonzero" fill-opacity="1" /><path clip-path="url(#clip700)" d="M2079.12 48.0275 L2079.12 51.6733 L2044.85 51.6733 Q2045.34 59.3701 2049.47 63.421 Q2053.64 67.4314 2061.05 67.4314 Q2065.35 67.4314 2069.36 66.3781 Q2073.41 65.3249 2077.38 63.2184 L2077.38 70.267 Q2073.37 71.9684 2069.16 72.8596 Q2064.94 73.7508 2060.61 73.7508 Q2049.75 73.7508 2043.39 67.4314 Q2037.07 61.1119 2037.07 50.3365 Q2037.07 39.1965 2043.07 32.6746 Q2049.1 26.1121 2059.31 26.1121 Q2068.47 26.1121 2073.77 32.0264 Q2079.12 37.9003 2079.12 48.0275 M2071.67 45.84 Q2071.59 39.7232 2068.22 36.0774 Q2064.9 32.4315 2059.39 32.4315 Q2053.16 32.4315 2049.39 35.9558 Q2045.66 39.4801 2045.09 45.8805 L2071.67 45.84 Z" fill="#000000" fill-rule="nonzero" fill-opacity="1" /><polyline clip-path="url(#clip701)" style="stroke:#009af9; stroke-linecap:round; stroke-linejoin:round; stroke-width:8; stroke-opacity:1; fill:none" points="294.479,1652.51 351.427,1655.09 408.376,1642.19 465.324,1626.7 522.273,1606.04 579.221,1587.97 636.17,1580.23 693.118,1595.72 750.067,1572.48 807.015,1567.32 863.963,1551.83 920.912,1549.25 977.86,1520.85 1034.81,1513.11 1091.76,1507.94 1148.71,1476.96 1205.65,1448.57 1262.6,1435.66 1319.55,1433.08 1376.5,1399.52 1433.45,1412.42 1490.4,1440.82 1547.35,1427.91 1604.29,1471.8 1661.24,1492.45 1718.19,1502.78 1775.14,1489.87 1832.09,1526.01 1889.04,1531.18 1945.98,1556.99 2002.93,1559.57 2059.88,1546.67 2116.83,1554.41 2173.78,1559.57 2230.73,1564.74 2287.68,1564.74 2344.62,1564.74 2401.57,1582.81 2458.52,1600.88 2515.47,1598.3 2572.42,1621.53 "/>
<polyline clip-path="url(#clip701)" style="stroke:#e26f46; stroke-linecap:round; stroke-linejoin:round; stroke-width:8; stroke-opacity:1; fill:none" points="294.479,1649.93 351.427,1647.35 408.376,1626.7 465.324,1587.97 522.273,1528.6 579.221,1425.33 636.17,1353.05 693.118,1265.27 750.067,1159.43 807.015,1030.35 863.963,893.521 920.912,761.86 977.86,694.738 1034.81,637.943 1091.76,723.136 1148.71,852.216 1205.65,945.153 1262.6,1105.21 1319.55,1211.06 1376.5,1291.09 1433.45,1384.03 1490.4,1451.15 1547.35,1487.29 1604.29,1510.52 1661.24,1551.83 1718.19,1585.39 1775.14,1616.37 1832.09,1629.28 1889.04,1642.19 1945.98,1655.09 2002.93,1662.84 2059.88,1665.42 2116.83,1673.17 2173.78,1673.17 2230.73,1678.33 2287.68,1680.91 2344.62,1686.07 2401.57,1688.65 2458.52,1688.65 2515.47,1688.65 2572.42,1688.65 "/>
<polyline clip-path="url(#clip701)" style="stroke:#3da44d; stroke-linecap:round; stroke-linejoin:round; stroke-width:8; stroke-opacity:1; fill:none" points="294.479,1647.35 351.427,1634.44 408.376,1595.72 465.324,1497.62 522.273,1345.3 579.221,1107.79 636.17,785.094 693.118,467.557 750.067,333.314 807.015,292.008 863.963,462.394 920.912,679.248 977.86,927.082 1034.81,1087.14 1091.76,1218.8 1148.71,1337.56 1205.65,1430.49 1262.6,1482.13 1319.55,1520.85 1376.5,1556.99 1433.45,1572.48 1490.4,1590.55 1547.35,1613.79 1604.29,1637.02 1661.24,1647.35 1718.19,1652.51 1775.14,1657.68 1832.09,1665.42 1889.04,1670.58 1945.98,1673.17 2002.93,1675.75 2059.88,1678.33 2116.83,1678.33 2173.78,1683.49 2230.73,1688.65 2287.68,1688.65 2344.62,1688.65 2401.57,1688.65 2458.52,1688.65 2515.47,1688.65 2572.42,1688.65 "/>
<polyline clip-path="url(#clip701)" style="stroke:#c271d2; stroke-linecap:round; stroke-linejoin:round; stroke-width:8; stroke-opacity:1; fill:none" points="294.479,1637.02 351.427,1606.04 408.376,1502.78 465.324,1244.62 522.273,862.542 579.221,341.058 636.17,178.417 693.118,173.254 750.067,413.343 807.015,707.646 863.963,932.245 920.912,1107.79 977.86,1239.46 1034.81,1345.3 1091.76,1433.08 1148.71,1495.03 1205.65,1544.09 1262.6,1577.65 1319.55,1595.72 1376.5,1618.95 1433.45,1634.44 1490.4,1649.93 1547.35,1662.84 1604.29,1675.75 1661.24,1675.75 1718.19,1675.75 1775.14,1675.75 1832.09,1675.75 1889.04,1678.33 1945.98,1680.91 2002.93,1683.49 2059.88,1683.49 2116.83,1686.07 2173.78,1688.65 2230.73,1688.65 2287.68,1688.65 2344.62,1688.65 2401.57,1688.65 2458.52,1688.65 2515.47,1688.65 2572.42,1688.65 "/>
<path clip-path="url(#clip700)" d="M2174.62 440.536 L2560.27 440.536 L2560.27 181.336 L2174.62 181.336  Z" fill="#ffffff" fill-rule="evenodd" fill-opacity="1"/>
<polyline clip-path="url(#clip700)" style="stroke:#000000; stroke-linecap:round; stroke-linejoin:round; stroke-width:4; stroke-opacity:1; fill:none" points="2174.62,440.536 2560.27,440.536 2560.27,181.336 2174.62,181.336 2174.62,440.536 "/>
<polyline clip-path="url(#clip700)" style="stroke:#009af9; stroke-linecap:round; stroke-linejoin:round; stroke-width:8; stroke-opacity:1; fill:none" points="2201.45,233.176 2362.42,233.176 "/>
<path clip-path="url(#clip700)" d="M2405.08 220.503 L2398.74 237.702 L2411.45 237.702 L2405.08 220.503 M2402.44 215.896 L2407.75 215.896 L2420.92 250.456 L2416.06 250.456 L2412.91 241.591 L2397.33 241.591 L2394.18 250.456 L2389.25 250.456 L2402.44 215.896 Z" fill="#000000" fill-rule="nonzero" fill-opacity="1" /><path clip-path="url(#clip700)" d="M2426.33 228.929 L2456.01 228.929 L2456.01 232.817 L2426.33 232.817 L2426.33 228.929 M2426.33 238.373 L2456.01 238.373 L2456.01 242.308 L2426.33 242.308 L2426.33 238.373 Z" fill="#000000" fill-rule="nonzero" fill-opacity="1" /><path clip-path="url(#clip700)" d="M2476.1 218.975 Q2472.49 218.975 2470.66 222.54 Q2468.86 226.081 2468.86 233.211 Q2468.86 240.317 2470.66 243.882 Q2472.49 247.424 2476.1 247.424 Q2479.74 247.424 2481.54 243.882 Q2483.37 240.317 2483.37 233.211 Q2483.37 226.081 2481.54 222.54 Q2479.74 218.975 2476.1 218.975 M2476.1 215.271 Q2481.91 215.271 2484.97 219.878 Q2488.05 224.461 2488.05 233.211 Q2488.05 241.938 2484.97 246.544 Q2481.91 251.128 2476.1 251.128 Q2470.29 251.128 2467.21 246.544 Q2464.16 241.938 2464.16 233.211 Q2464.16 224.461 2467.21 219.878 Q2470.29 215.271 2476.1 215.271 Z" fill="#000000" fill-rule="nonzero" fill-opacity="1" /><path clip-path="url(#clip700)" d="M2496.26 244.577 L2501.15 244.577 L2501.15 250.456 L2496.26 250.456 L2496.26 244.577 Z" fill="#000000" fill-rule="nonzero" fill-opacity="1" /><path clip-path="url(#clip700)" d="M2521.33 218.975 Q2517.72 218.975 2515.89 222.54 Q2514.09 226.081 2514.09 233.211 Q2514.09 240.317 2515.89 243.882 Q2517.72 247.424 2521.33 247.424 Q2524.97 247.424 2526.77 243.882 Q2528.6 240.317 2528.6 233.211 Q2528.6 226.081 2526.77 222.54 Q2524.97 218.975 2521.33 218.975 M2521.33 215.271 Q2527.14 215.271 2530.2 219.878 Q2533.28 224.461 2533.28 233.211 Q2533.28 241.938 2530.2 246.544 Q2527.14 251.128 2521.33 251.128 Q2515.52 251.128 2512.44 246.544 Q2509.39 241.938 2509.39 233.211 Q2509.39 224.461 2512.44 219.878 Q2515.52 215.271 2521.33 215.271 Z" fill="#000000" fill-rule="nonzero" fill-opacity="1" /><polyline clip-path="url(#clip700)" style="stroke:#e26f46; stroke-linecap:round; stroke-linejoin:round; stroke-width:8; stroke-opacity:1; fill:none" points="2201.45,285.016 2362.42,285.016 "/>
<path clip-path="url(#clip700)" d="M2405.08 272.343 L2398.74 289.542 L2411.45 289.542 L2405.08 272.343 M2402.44 267.736 L2407.75 267.736 L2420.92 302.296 L2416.06 302.296 L2412.91 293.431 L2397.33 293.431 L2394.18 302.296 L2389.25 302.296 L2402.44 267.736 Z" fill="#000000" fill-rule="nonzero" fill-opacity="1" /><path clip-path="url(#clip700)" d="M2426.33 280.769 L2456.01 280.769 L2456.01 284.657 L2426.33 284.657 L2426.33 280.769 M2426.33 290.213 L2456.01 290.213 L2456.01 294.148 L2426.33 294.148 L2426.33 290.213 Z" fill="#000000" fill-rule="nonzero" fill-opacity="1" /><path clip-path="url(#clip700)" d="M2476.1 270.815 Q2472.49 270.815 2470.66 274.38 Q2468.86 277.921 2468.86 285.051 Q2468.86 292.157 2470.66 295.722 Q2472.49 299.264 2476.1 299.264 Q2479.74 299.264 2481.54 295.722 Q2483.37 292.157 2483.37 285.051 Q2483.37 277.921 2481.54 274.38 Q2479.74 270.815 2476.1 270.815 M2476.1 267.111 Q2481.91 267.111 2484.97 271.718 Q2488.05 276.301 2488.05 285.051 Q2488.05 293.778 2484.97 298.384 Q2481.91 302.968 2476.1 302.968 Q2470.29 302.968 2467.21 298.384 Q2464.16 293.778 2464.16 285.051 Q2464.16 276.301 2467.21 271.718 Q2470.29 267.111 2476.1 267.111 Z" fill="#000000" fill-rule="nonzero" fill-opacity="1" /><path clip-path="url(#clip700)" d="M2496.26 296.417 L2501.15 296.417 L2501.15 302.296 L2496.26 302.296 L2496.26 296.417 Z" fill="#000000" fill-rule="nonzero" fill-opacity="1" /><path clip-path="url(#clip700)" d="M2525.5 283.662 Q2528.86 284.38 2530.73 286.648 Q2532.63 288.917 2532.63 292.25 Q2532.63 297.366 2529.11 300.167 Q2525.59 302.968 2519.11 302.968 Q2516.94 302.968 2514.62 302.528 Q2512.33 302.111 2509.87 301.255 L2509.87 296.741 Q2511.82 297.875 2514.13 298.454 Q2516.45 299.032 2518.97 299.032 Q2523.37 299.032 2525.66 297.296 Q2527.98 295.56 2527.98 292.25 Q2527.98 289.195 2525.82 287.482 Q2523.69 285.745 2519.87 285.745 L2515.85 285.745 L2515.85 281.903 L2520.06 281.903 Q2523.51 281.903 2525.34 280.537 Q2527.17 279.148 2527.17 276.556 Q2527.17 273.894 2525.27 272.482 Q2523.39 271.046 2519.87 271.046 Q2517.95 271.046 2515.75 271.463 Q2513.56 271.88 2510.92 272.759 L2510.92 268.593 Q2513.58 267.852 2515.89 267.482 Q2518.23 267.111 2520.29 267.111 Q2525.62 267.111 2528.72 269.542 Q2531.82 271.949 2531.82 276.07 Q2531.82 278.94 2530.18 280.931 Q2528.53 282.898 2525.5 283.662 Z" fill="#000000" fill-rule="nonzero" fill-opacity="1" /><polyline clip-path="url(#clip700)" style="stroke:#3da44d; stroke-linecap:round; stroke-linejoin:round; stroke-width:8; stroke-opacity:1; fill:none" points="2201.45,336.856 2362.42,336.856 "/>
<path clip-path="url(#clip700)" d="M2405.08 324.183 L2398.74 341.382 L2411.45 341.382 L2405.08 324.183 M2402.44 319.576 L2407.75 319.576 L2420.92 354.136 L2416.06 354.136 L2412.91 345.271 L2397.33 345.271 L2394.18 354.136 L2389.25 354.136 L2402.44 319.576 Z" fill="#000000" fill-rule="nonzero" fill-opacity="1" /><path clip-path="url(#clip700)" d="M2426.33 332.609 L2456.01 332.609 L2456.01 336.497 L2426.33 336.497 L2426.33 332.609 M2426.33 342.053 L2456.01 342.053 L2456.01 345.988 L2426.33 345.988 L2426.33 342.053 Z" fill="#000000" fill-rule="nonzero" fill-opacity="1" /><path clip-path="url(#clip700)" d="M2476.1 322.655 Q2472.49 322.655 2470.66 326.22 Q2468.86 329.761 2468.86 336.891 Q2468.86 343.997 2470.66 347.562 Q2472.49 351.104 2476.1 351.104 Q2479.74 351.104 2481.54 347.562 Q2483.37 343.997 2483.37 336.891 Q2483.37 329.761 2481.54 326.22 Q2479.74 322.655 2476.1 322.655 M2476.1 318.951 Q2481.91 318.951 2484.97 323.558 Q2488.05 328.141 2488.05 336.891 Q2488.05 345.618 2484.97 350.224 Q2481.91 354.808 2476.1 354.808 Q2470.29 354.808 2467.21 350.224 Q2464.16 345.618 2464.16 336.891 Q2464.16 328.141 2467.21 323.558 Q2470.29 318.951 2476.1 318.951 Z" fill="#000000" fill-rule="nonzero" fill-opacity="1" /><path clip-path="url(#clip700)" d="M2496.26 348.257 L2501.15 348.257 L2501.15 354.136 L2496.26 354.136 L2496.26 348.257 Z" fill="#000000" fill-rule="nonzero" fill-opacity="1" /><path clip-path="url(#clip700)" d="M2521.91 334.993 Q2518.76 334.993 2516.91 337.146 Q2515.08 339.298 2515.08 343.048 Q2515.08 346.775 2516.91 348.951 Q2518.76 351.104 2521.91 351.104 Q2525.06 351.104 2526.89 348.951 Q2528.74 346.775 2528.74 343.048 Q2528.74 339.298 2526.89 337.146 Q2525.06 334.993 2521.91 334.993 M2531.19 320.34 L2531.19 324.599 Q2529.44 323.766 2527.63 323.326 Q2525.85 322.886 2524.09 322.886 Q2519.46 322.886 2517 326.011 Q2514.57 329.136 2514.23 335.456 Q2515.59 333.442 2517.65 332.377 Q2519.71 331.289 2522.19 331.289 Q2527.4 331.289 2530.41 334.46 Q2533.44 337.609 2533.44 343.048 Q2533.44 348.372 2530.29 351.59 Q2527.14 354.808 2521.91 354.808 Q2515.92 354.808 2512.75 350.224 Q2509.57 345.618 2509.57 336.891 Q2509.57 328.697 2513.46 323.836 Q2517.35 318.951 2523.9 318.951 Q2525.66 318.951 2527.44 319.299 Q2529.25 319.646 2531.19 320.34 Z" fill="#000000" fill-rule="nonzero" fill-opacity="1" /><polyline clip-path="url(#clip700)" style="stroke:#c271d2; stroke-linecap:round; stroke-linejoin:round; stroke-width:8; stroke-opacity:1; fill:none" points="2201.45,388.696 2362.42,388.696 "/>
<path clip-path="url(#clip700)" d="M2405.08 376.023 L2398.74 393.222 L2411.45 393.222 L2405.08 376.023 M2402.44 371.416 L2407.75 371.416 L2420.92 405.976 L2416.06 405.976 L2412.91 397.111 L2397.33 397.111 L2394.18 405.976 L2389.25 405.976 L2402.44 371.416 Z" fill="#000000" fill-rule="nonzero" fill-opacity="1" /><path clip-path="url(#clip700)" d="M2426.33 384.449 L2456.01 384.449 L2456.01 388.337 L2426.33 388.337 L2426.33 384.449 M2426.33 393.893 L2456.01 393.893 L2456.01 397.828 L2426.33 397.828 L2426.33 393.893 Z" fill="#000000" fill-rule="nonzero" fill-opacity="1" /><path clip-path="url(#clip700)" d="M2476.1 374.495 Q2472.49 374.495 2470.66 378.06 Q2468.86 381.601 2468.86 388.731 Q2468.86 395.837 2470.66 399.402 Q2472.49 402.944 2476.1 402.944 Q2479.74 402.944 2481.54 399.402 Q2483.37 395.837 2483.37 388.731 Q2483.37 381.601 2481.54 378.06 Q2479.74 374.495 2476.1 374.495 M2476.1 370.791 Q2481.91 370.791 2484.97 375.398 Q2488.05 379.981 2488.05 388.731 Q2488.05 397.458 2484.97 402.064 Q2481.91 406.648 2476.1 406.648 Q2470.29 406.648 2467.21 402.064 Q2464.16 397.458 2464.16 388.731 Q2464.16 379.981 2467.21 375.398 Q2470.29 370.791 2476.1 370.791 Z" fill="#000000" fill-rule="nonzero" fill-opacity="1" /><path clip-path="url(#clip700)" d="M2496.26 400.097 L2501.15 400.097 L2501.15 405.976 L2496.26 405.976 L2496.26 400.097 Z" fill="#000000" fill-rule="nonzero" fill-opacity="1" /><path clip-path="url(#clip700)" d="M2511.47 405.259 L2511.47 400.999 Q2513.23 401.833 2515.04 402.273 Q2516.84 402.712 2518.58 402.712 Q2523.21 402.712 2525.64 399.611 Q2528.09 396.486 2528.44 390.143 Q2527.1 392.134 2525.04 393.199 Q2522.98 394.263 2520.48 394.263 Q2515.29 394.263 2512.26 391.138 Q2509.25 387.99 2509.25 382.55 Q2509.25 377.226 2512.4 374.009 Q2515.55 370.791 2520.78 370.791 Q2526.77 370.791 2529.92 375.398 Q2533.09 379.981 2533.09 388.731 Q2533.09 396.902 2529.2 401.786 Q2525.34 406.648 2518.79 406.648 Q2517.03 406.648 2515.22 406.3 Q2513.42 405.953 2511.47 405.259 M2520.78 390.606 Q2523.93 390.606 2525.75 388.453 Q2527.61 386.3 2527.61 382.55 Q2527.61 378.824 2525.75 376.671 Q2523.93 374.495 2520.78 374.495 Q2517.63 374.495 2515.78 376.671 Q2513.95 378.824 2513.95 382.55 Q2513.95 386.3 2515.78 388.453 Q2517.63 390.606 2520.78 390.606 Z" fill="#000000" fill-rule="nonzero" fill-opacity="1" /></svg>
