<?xml version="1.0" encoding="utf-8"?>
<svg xmlns="http://www.w3.org/2000/svg" xmlns:xlink="http://www.w3.org/1999/xlink" width="672" height="480" viewBox="0 0 2688 1920">
<defs>
  <clipPath id="clip730">
    <rect x="0" y="0" width="2688" height="1920"/>
  </clipPath>
</defs>
<path clip-path="url(#clip730)" d="M0 1920 L2688 1920 L2688 -4.26326e-14 L0 -4.26326e-14  Z" fill="#ffffff" fill-rule="evenodd" fill-opacity="1"/>
<defs>
  <clipPath id="clip731">
    <rect x="226" y="127" width="2416" height="1607"/>
  </clipPath>
</defs>
<path clip-path="url(#clip730)" d="M226.141 1734.12 L2640.76 1734.12 L2640.76 127.792 L226.141 127.792  Z" fill="#ffffff" fill-rule="evenodd" fill-opacity="1"/>
<polyline clip-path="url(#clip731)" style="stroke:#000000; stroke-linecap:round; stroke-linejoin:round; stroke-width:2; stroke-opacity:0.1; fill:none" points="294.479,1734.12 294.479,127.792 "/>
<polyline clip-path="url(#clip731)" style="stroke:#000000; stroke-linecap:round; stroke-linejoin:round; stroke-width:2; stroke-opacity:0.1; fill:none" points="863.963,1734.12 863.963,127.792 "/>
<polyline clip-path="url(#clip731)" style="stroke:#000000; stroke-linecap:round; stroke-linejoin:round; stroke-width:2; stroke-opacity:0.1; fill:none" points="1433.45,1734.12 1433.45,127.792 "/>
<polyline clip-path="url(#clip731)" style="stroke:#000000; stroke-linecap:round; stroke-linejoin:round; stroke-width:2; stroke-opacity:0.1; fill:none" points="2002.93,1734.12 2002.93,127.792 "/>
<polyline clip-path="url(#clip731)" style="stroke:#000000; stroke-linecap:round; stroke-linejoin:round; stroke-width:2; stroke-opacity:0.1; fill:none" points="2572.42,1734.12 2572.42,127.792 "/>
<polyline clip-path="url(#clip731)" style="stroke:#000000; stroke-linecap:round; stroke-linejoin:round; stroke-width:2; stroke-opacity:0.1; fill:none" points="226.141,1688.65 2640.76,1688.65 "/>
<polyline clip-path="url(#clip731)" style="stroke:#000000; stroke-linecap:round; stroke-linejoin:round; stroke-width:2; stroke-opacity:0.1; fill:none" points="226.141,1385.57 2640.76,1385.57 "/>
<polyline clip-path="url(#clip731)" style="stroke:#000000; stroke-linecap:round; stroke-linejoin:round; stroke-width:2; stroke-opacity:0.1; fill:none" points="226.141,1082.49 2640.76,1082.49 "/>
<polyline clip-path="url(#clip731)" style="stroke:#000000; stroke-linecap:round; stroke-linejoin:round; stroke-width:2; stroke-opacity:0.1; fill:none" points="226.141,779.414 2640.76,779.414 "/>
<polyline clip-path="url(#clip731)" style="stroke:#000000; stroke-linecap:round; stroke-linejoin:round; stroke-width:2; stroke-opacity:0.1; fill:none" points="226.141,476.334 2640.76,476.334 "/>
<polyline clip-path="url(#clip731)" style="stroke:#000000; stroke-linecap:round; stroke-linejoin:round; stroke-width:2; stroke-opacity:0.1; fill:none" points="226.141,173.254 2640.76,173.254 "/>
<polyline clip-path="url(#clip730)" style="stroke:#000000; stroke-linecap:round; stroke-linejoin:round; stroke-width:4; stroke-opacity:1; fill:none" points="226.141,1734.12 2640.76,1734.12 "/>
<polyline clip-path="url(#clip730)" style="stroke:#000000; stroke-linecap:round; stroke-linejoin:round; stroke-width:4; stroke-opacity:1; fill:none" points="294.479,1734.12 294.479,1715.22 "/>
<polyline clip-path="url(#clip730)" style="stroke:#000000; stroke-linecap:round; stroke-linejoin:round; stroke-width:4; stroke-opacity:1; fill:none" points="863.963,1734.12 863.963,1715.22 "/>
<polyline clip-path="url(#clip730)" style="stroke:#000000; stroke-linecap:round; stroke-linejoin:round; stroke-width:4; stroke-opacity:1; fill:none" points="1433.45,1734.12 1433.45,1715.22 "/>
<polyline clip-path="url(#clip730)" style="stroke:#000000; stroke-linecap:round; stroke-linejoin:round; stroke-width:4; stroke-opacity:1; fill:none" points="2002.93,1734.12 2002.93,1715.22 "/>
<polyline clip-path="url(#clip730)" style="stroke:#000000; stroke-linecap:round; stroke-linejoin:round; stroke-width:4; stroke-opacity:1; fill:none" points="2572.42,1734.12 2572.42,1715.22 "/>
<path clip-path="url(#clip730)" d="M294.479 1767.34 Q290.868 1767.34 289.039 1770.9 Q287.233 1774.45 287.233 1781.58 Q287.233 1788.68 289.039 1792.25 Q290.868 1795.79 294.479 1795.79 Q298.113 1795.79 299.919 1792.25 Q301.747 1788.68 301.747 1781.58 Q301.747 1774.45 299.919 1770.9 Q298.113 1767.34 294.479 1767.34 M294.479 1763.64 Q300.289 1763.64 303.344 1768.24 Q306.423 1772.83 306.423 1781.58 Q306.423 1790.3 303.344 1794.91 Q300.289 1799.49 294.479 1799.49 Q288.669 1799.49 285.59 1794.91 Q282.534 1790.3 282.534 1781.58 Q282.534 1772.83 285.59 1768.24 Q288.669 1763.64 294.479 1763.64 Z" fill="#000000" fill-rule="nonzero" fill-opacity="1" /><path clip-path="url(#clip730)" d="M838.651 1794.89 L846.29 1794.89 L846.29 1768.52 L837.98 1770.19 L837.98 1765.93 L846.244 1764.26 L850.92 1764.26 L850.92 1794.89 L858.558 1794.89 L858.558 1798.82 L838.651 1798.82 L838.651 1794.89 Z" fill="#000000" fill-rule="nonzero" fill-opacity="1" /><path clip-path="url(#clip730)" d="M878.003 1767.34 Q874.392 1767.34 872.563 1770.9 Q870.757 1774.45 870.757 1781.58 Q870.757 1788.68 872.563 1792.25 Q874.392 1795.79 878.003 1795.79 Q881.637 1795.79 883.443 1792.25 Q885.271 1788.68 885.271 1781.58 Q885.271 1774.45 883.443 1770.9 Q881.637 1767.34 878.003 1767.34 M878.003 1763.64 Q883.813 1763.64 886.868 1768.24 Q889.947 1772.83 889.947 1781.58 Q889.947 1790.3 886.868 1794.91 Q883.813 1799.49 878.003 1799.49 Q872.193 1799.49 869.114 1794.91 Q866.058 1790.3 866.058 1781.58 Q866.058 1772.83 869.114 1768.24 Q872.193 1763.64 878.003 1763.64 Z" fill="#000000" fill-rule="nonzero" fill-opacity="1" /><path clip-path="url(#clip730)" d="M1412.22 1794.89 L1428.54 1794.89 L1428.54 1798.82 L1406.6 1798.82 L1406.6 1794.89 Q1409.26 1792.13 1413.84 1787.5 Q1418.45 1782.85 1419.63 1781.51 Q1421.87 1778.98 1422.75 1777.25 Q1423.66 1775.49 1423.66 1773.8 Q1423.66 1771.04 1421.71 1769.31 Q1419.79 1767.57 1416.69 1767.57 Q1414.49 1767.57 1412.04 1768.34 Q1409.61 1769.1 1406.83 1770.65 L1406.83 1765.93 Q1409.65 1764.79 1412.11 1764.21 Q1414.56 1763.64 1416.6 1763.64 Q1421.97 1763.64 1425.16 1766.32 Q1428.36 1769.01 1428.36 1773.5 Q1428.36 1775.63 1427.55 1777.55 Q1426.76 1779.45 1424.65 1782.04 Q1424.07 1782.71 1420.97 1785.93 Q1417.87 1789.12 1412.22 1794.89 Z" fill="#000000" fill-rule="nonzero" fill-opacity="1" /><path clip-path="url(#clip730)" d="M1448.36 1767.34 Q1444.74 1767.34 1442.92 1770.9 Q1441.11 1774.45 1441.11 1781.58 Q1441.11 1788.68 1442.92 1792.25 Q1444.74 1795.79 1448.36 1795.79 Q1451.99 1795.79 1453.8 1792.25 Q1455.62 1788.68 1455.62 1781.58 Q1455.62 1774.45 1453.8 1770.9 Q1451.99 1767.34 1448.36 1767.34 M1448.36 1763.64 Q1454.17 1763.64 1457.22 1768.24 Q1460.3 1772.83 1460.3 1781.58 Q1460.3 1790.3 1457.22 1794.91 Q1454.17 1799.49 1448.36 1799.49 Q1442.55 1799.49 1439.47 1794.91 Q1436.41 1790.3 1436.41 1781.58 Q1436.41 1772.83 1439.47 1768.24 Q1442.55 1763.64 1448.36 1763.64 Z" fill="#000000" fill-rule="nonzero" fill-opacity="1" /><path clip-path="url(#clip730)" d="M1991.78 1780.19 Q1995.13 1780.9 1997.01 1783.17 Q1998.91 1785.44 1998.91 1788.77 Q1998.91 1793.89 1995.39 1796.69 Q1991.87 1799.49 1985.39 1799.49 Q1983.21 1799.49 1980.9 1799.05 Q1978.6 1798.64 1976.15 1797.78 L1976.15 1793.27 Q1978.1 1794.4 1980.41 1794.98 Q1982.72 1795.56 1985.25 1795.56 Q1989.65 1795.56 1991.94 1793.82 Q1994.25 1792.08 1994.25 1788.77 Q1994.25 1785.72 1992.1 1784.01 Q1989.97 1782.27 1986.15 1782.27 L1982.12 1782.27 L1982.12 1778.43 L1986.34 1778.43 Q1989.78 1778.43 1991.61 1777.06 Q1993.44 1775.67 1993.44 1773.08 Q1993.44 1770.42 1991.54 1769.01 Q1989.67 1767.57 1986.15 1767.57 Q1984.23 1767.57 1982.03 1767.99 Q1979.83 1768.4 1977.19 1769.28 L1977.19 1765.12 Q1979.85 1764.38 1982.17 1764.01 Q1984.51 1763.64 1986.57 1763.64 Q1991.89 1763.64 1994.99 1766.07 Q1998.1 1768.47 1998.1 1772.59 Q1998.1 1775.46 1996.45 1777.46 Q1994.81 1779.42 1991.78 1780.19 Z" fill="#000000" fill-rule="nonzero" fill-opacity="1" /><path clip-path="url(#clip730)" d="M2017.77 1767.34 Q2014.16 1767.34 2012.33 1770.9 Q2010.53 1774.45 2010.53 1781.58 Q2010.53 1788.68 2012.33 1792.25 Q2014.16 1795.79 2017.77 1795.79 Q2021.41 1795.79 2023.21 1792.25 Q2025.04 1788.68 2025.04 1781.58 Q2025.04 1774.45 2023.21 1770.9 Q2021.41 1767.34 2017.77 1767.34 M2017.77 1763.64 Q2023.58 1763.64 2026.64 1768.24 Q2029.72 1772.83 2029.72 1781.58 Q2029.72 1790.3 2026.64 1794.91 Q2023.58 1799.49 2017.77 1799.49 Q2011.96 1799.49 2008.88 1794.91 Q2005.83 1790.3 2005.83 1781.58 Q2005.83 1772.83 2008.88 1768.24 Q2011.96 1763.64 2017.77 1763.64 Z" fill="#000000" fill-rule="nonzero" fill-opacity="1" /><path clip-path="url(#clip730)" d="M2560.59 1768.34 L2548.78 1786.78 L2560.59 1786.78 L2560.59 1768.34 M2559.36 1764.26 L2565.24 1764.26 L2565.24 1786.78 L2570.17 1786.78 L2570.17 1790.67 L2565.24 1790.67 L2565.24 1798.82 L2560.59 1798.82 L2560.59 1790.67 L2544.99 1790.67 L2544.99 1786.16 L2559.36 1764.26 Z" fill="#000000" fill-rule="nonzero" fill-opacity="1" /><path clip-path="url(#clip730)" d="M2587.9 1767.34 Q2584.29 1767.34 2582.46 1770.9 Q2580.66 1774.45 2580.66 1781.58 Q2580.66 1788.68 2582.46 1792.25 Q2584.29 1795.79 2587.9 1795.79 Q2591.54 1795.79 2593.34 1792.25 Q2595.17 1788.68 2595.17 1781.58 Q2595.17 1774.45 2593.34 1770.9 Q2591.54 1767.34 2587.9 1767.34 M2587.9 1763.64 Q2593.71 1763.64 2596.77 1768.24 Q2599.85 1772.83 2599.85 1781.58 Q2599.85 1790.3 2596.77 1794.91 Q2593.71 1799.49 2587.9 1799.49 Q2582.09 1799.49 2579.01 1794.91 Q2575.96 1790.3 2575.96 1781.58 Q2575.96 1772.83 2579.01 1768.24 Q2582.09 1763.64 2587.9 1763.64 Z" fill="#000000" fill-rule="nonzero" fill-opacity="1" /><path clip-path="url(#clip730)" d="M1379.69 1841.06 L1379.69 1878.02 L1387.46 1878.02 Q1397.29 1878.02 1401.84 1873.56 Q1406.43 1869.11 1406.43 1859.49 Q1406.43 1849.94 1401.84 1845.52 Q1397.29 1841.06 1387.46 1841.06 L1379.69 1841.06 M1373.26 1835.78 L1386.47 1835.78 Q1400.28 1835.78 1406.74 1841.54 Q1413.21 1847.27 1413.21 1859.49 Q1413.21 1871.78 1406.71 1877.54 Q1400.22 1883.3 1386.47 1883.3 L1373.26 1883.3 L1373.26 1835.78 Z" fill="#000000" fill-rule="nonzero" fill-opacity="1" /><path clip-path="url(#clip730)" d="M1439.4 1865.38 Q1432.3 1865.38 1429.57 1867 Q1426.83 1868.63 1426.83 1872.54 Q1426.83 1875.66 1428.86 1877.51 Q1430.93 1879.32 1434.47 1879.32 Q1439.34 1879.32 1442.26 1875.88 Q1445.22 1872.42 1445.22 1866.69 L1445.22 1865.38 L1439.4 1865.38 M1451.08 1862.96 L1451.08 1883.3 L1445.22 1883.3 L1445.22 1877.89 Q1443.22 1881.14 1440.23 1882.7 Q1437.24 1884.22 1432.91 1884.22 Q1427.43 1884.22 1424.19 1881.17 Q1420.97 1878.08 1420.97 1872.92 Q1420.97 1866.91 1424.98 1863.85 Q1429.02 1860.8 1437.01 1860.8 L1445.22 1860.8 L1445.22 1860.23 Q1445.22 1856.18 1442.55 1853.99 Q1439.91 1851.76 1435.1 1851.76 Q1432.05 1851.76 1429.15 1852.49 Q1426.25 1853.22 1423.58 1854.69 L1423.58 1849.28 Q1426.8 1848.03 1429.82 1847.43 Q1432.84 1846.79 1435.71 1846.79 Q1443.44 1846.79 1447.26 1850.8 Q1451.08 1854.81 1451.08 1862.96 Z" fill="#000000" fill-rule="nonzero" fill-opacity="1" /><path clip-path="url(#clip730)" d="M1477.98 1886.61 Q1475.49 1892.98 1473.14 1894.92 Q1470.78 1896.86 1466.84 1896.86 L1462.16 1896.86 L1462.16 1891.96 L1465.6 1891.96 Q1468.01 1891.96 1469.35 1890.81 Q1470.69 1889.67 1472.31 1885.4 L1473.36 1882.73 L1458.94 1847.65 L1465.15 1847.65 L1476.29 1875.53 L1487.43 1847.65 L1493.64 1847.65 L1477.98 1886.61 Z" fill="#000000" fill-rule="nonzero" fill-opacity="1" /><polyline clip-path="url(#clip730)" style="stroke:#000000; stroke-linecap:round; stroke-linejoin:round; stroke-width:4; stroke-opacity:1; fill:none" points="226.141,1734.12 226.141,127.792 "/>
<polyline clip-path="url(#clip730)" style="stroke:#000000; stroke-linecap:round; stroke-linejoin:round; stroke-width:4; stroke-opacity:1; fill:none" points="226.141,1688.65 245.038,1688.65 "/>
<polyline clip-path="url(#clip730)" style="stroke:#000000; stroke-linecap:round; stroke-linejoin:round; stroke-width:4; stroke-opacity:1; fill:none" points="226.141,1385.57 245.038,1385.57 "/>
<polyline clip-path="url(#clip730)" style="stroke:#000000; stroke-linecap:round; stroke-linejoin:round; stroke-width:4; stroke-opacity:1; fill:none" points="226.141,1082.49 245.038,1082.49 "/>
<polyline clip-path="url(#clip730)" style="stroke:#000000; stroke-linecap:round; stroke-linejoin:round; stroke-width:4; stroke-opacity:1; fill:none" points="226.141,779.414 245.038,779.414 "/>
<polyline clip-path="url(#clip730)" style="stroke:#000000; stroke-linecap:round; stroke-linejoin:round; stroke-width:4; stroke-opacity:1; fill:none" points="226.141,476.334 245.038,476.334 "/>
<polyline clip-path="url(#clip730)" style="stroke:#000000; stroke-linecap:round; stroke-linejoin:round; stroke-width:4; stroke-opacity:1; fill:none" points="226.141,173.254 245.038,173.254 "/>
<path clip-path="url(#clip730)" d="M128.645 1674.45 Q125.034 1674.45 123.205 1678.02 Q121.4 1681.56 121.4 1688.69 Q121.4 1695.8 123.205 1699.36 Q125.034 1702.9 128.645 1702.9 Q132.279 1702.9 134.085 1699.36 Q135.913 1695.8 135.913 1688.69 Q135.913 1681.56 134.085 1678.02 Q132.279 1674.45 128.645 1674.45 M128.645 1670.75 Q134.455 1670.75 137.511 1675.36 Q140.589 1679.94 140.589 1688.69 Q140.589 1697.42 137.511 1702.02 Q134.455 1706.61 128.645 1706.61 Q122.835 1706.61 119.756 1702.02 Q116.701 1697.42 116.701 1688.69 Q116.701 1679.94 119.756 1675.36 Q122.835 1670.75 128.645 1670.75 Z" fill="#000000" fill-rule="nonzero" fill-opacity="1" /><path clip-path="url(#clip730)" d="M148.807 1700.06 L153.691 1700.06 L153.691 1705.93 L148.807 1705.93 L148.807 1700.06 Z" fill="#000000" fill-rule="nonzero" fill-opacity="1" /><path clip-path="url(#clip730)" d="M173.876 1674.45 Q170.265 1674.45 168.436 1678.02 Q166.631 1681.56 166.631 1688.69 Q166.631 1695.8 168.436 1699.36 Q170.265 1702.9 173.876 1702.9 Q177.51 1702.9 179.316 1699.36 Q181.145 1695.8 181.145 1688.69 Q181.145 1681.56 179.316 1678.02 Q177.51 1674.45 173.876 1674.45 M173.876 1670.75 Q179.686 1670.75 182.742 1675.36 Q185.821 1679.94 185.821 1688.69 Q185.821 1697.42 182.742 1702.02 Q179.686 1706.61 173.876 1706.61 Q168.066 1706.61 164.987 1702.02 Q161.932 1697.42 161.932 1688.69 Q161.932 1679.94 164.987 1675.36 Q168.066 1670.75 173.876 1670.75 Z" fill="#000000" fill-rule="nonzero" fill-opacity="1" /><path clip-path="url(#clip730)" d="M129.872 1371.37 Q126.261 1371.37 124.432 1374.94 Q122.626 1378.48 122.626 1385.61 Q122.626 1392.72 124.432 1396.28 Q126.261 1399.82 129.872 1399.82 Q133.506 1399.82 135.312 1396.28 Q137.14 1392.72 137.14 1385.61 Q137.14 1378.48 135.312 1374.94 Q133.506 1371.37 129.872 1371.37 M129.872 1367.67 Q135.682 1367.67 138.737 1372.28 Q141.816 1376.86 141.816 1385.61 Q141.816 1394.34 138.737 1398.94 Q135.682 1403.53 129.872 1403.53 Q124.062 1403.53 120.983 1398.94 Q117.927 1394.34 117.927 1385.61 Q117.927 1376.86 120.983 1372.28 Q124.062 1367.67 129.872 1367.67 Z" fill="#000000" fill-rule="nonzero" fill-opacity="1" /><path clip-path="url(#clip730)" d="M150.034 1396.98 L154.918 1396.98 L154.918 1402.85 L150.034 1402.85 L150.034 1396.98 Z" fill="#000000" fill-rule="nonzero" fill-opacity="1" /><path clip-path="url(#clip730)" d="M165.913 1398.92 L173.552 1398.92 L173.552 1372.55 L165.242 1374.22 L165.242 1369.96 L173.506 1368.29 L178.182 1368.29 L178.182 1398.92 L185.821 1398.92 L185.821 1402.85 L165.913 1402.85 L165.913 1398.92 Z" fill="#000000" fill-rule="nonzero" fill-opacity="1" /><path clip-path="url(#clip730)" d="M130.242 1068.29 Q126.631 1068.29 124.802 1071.86 Q122.997 1075.4 122.997 1082.53 Q122.997 1089.64 124.802 1093.2 Q126.631 1096.74 130.242 1096.74 Q133.876 1096.74 135.682 1093.2 Q137.511 1089.64 137.511 1082.53 Q137.511 1075.4 135.682 1071.86 Q133.876 1068.29 130.242 1068.29 M130.242 1064.59 Q136.052 1064.59 139.108 1069.2 Q142.187 1073.78 142.187 1082.53 Q142.187 1091.26 139.108 1095.86 Q136.052 1100.45 130.242 1100.45 Q124.432 1100.45 121.353 1095.86 Q118.298 1091.26 118.298 1082.53 Q118.298 1073.78 121.353 1069.2 Q124.432 1064.59 130.242 1064.59 Z" fill="#000000" fill-rule="nonzero" fill-opacity="1" /><path clip-path="url(#clip730)" d="M150.404 1093.9 L155.288 1093.9 L155.288 1099.77 L150.404 1099.77 L150.404 1093.9 Z" fill="#000000" fill-rule="nonzero" fill-opacity="1" /><path clip-path="url(#clip730)" d="M169.501 1095.84 L185.821 1095.84 L185.821 1099.77 L163.876 1099.77 L163.876 1095.84 Q166.538 1093.08 171.122 1088.46 Q175.728 1083.8 176.909 1082.46 Q179.154 1079.94 180.034 1078.2 Q180.936 1076.44 180.936 1074.75 Q180.936 1072 178.992 1070.26 Q177.071 1068.52 173.969 1068.52 Q171.77 1068.52 169.316 1069.29 Q166.885 1070.05 164.108 1071.6 L164.108 1066.88 Q166.932 1065.75 169.385 1065.17 Q171.839 1064.59 173.876 1064.59 Q179.247 1064.59 182.441 1067.27 Q185.635 1069.96 185.635 1074.45 Q185.635 1076.58 184.825 1078.5 Q184.038 1080.4 181.932 1082.99 Q181.353 1083.66 178.251 1086.88 Q175.149 1090.08 169.501 1095.84 Z" fill="#000000" fill-rule="nonzero" fill-opacity="1" /><path clip-path="url(#clip730)" d="M129.293 765.213 Q125.682 765.213 123.853 768.778 Q122.048 772.32 122.048 779.449 Q122.048 786.556 123.853 790.12 Q125.682 793.662 129.293 793.662 Q132.927 793.662 134.733 790.12 Q136.562 786.556 136.562 779.449 Q136.562 772.32 134.733 768.778 Q132.927 765.213 129.293 765.213 M129.293 761.509 Q135.103 761.509 138.159 766.116 Q141.237 770.699 141.237 779.449 Q141.237 788.176 138.159 792.782 Q135.103 797.366 129.293 797.366 Q123.483 797.366 120.404 792.782 Q117.349 788.176 117.349 779.449 Q117.349 770.699 120.404 766.116 Q123.483 761.509 129.293 761.509 Z" fill="#000000" fill-rule="nonzero" fill-opacity="1" /><path clip-path="url(#clip730)" d="M149.455 790.815 L154.339 790.815 L154.339 796.694 L149.455 796.694 L149.455 790.815 Z" fill="#000000" fill-rule="nonzero" fill-opacity="1" /><path clip-path="url(#clip730)" d="M178.691 778.06 Q182.047 778.778 183.922 781.046 Q185.821 783.315 185.821 786.648 Q185.821 791.764 182.302 794.565 Q178.784 797.366 172.302 797.366 Q170.126 797.366 167.811 796.926 Q165.52 796.509 163.066 795.653 L163.066 791.139 Q165.01 792.273 167.325 792.852 Q169.64 793.431 172.163 793.431 Q176.561 793.431 178.853 791.695 Q181.168 789.958 181.168 786.648 Q181.168 783.593 179.015 781.88 Q176.885 780.144 173.066 780.144 L169.038 780.144 L169.038 776.301 L173.251 776.301 Q176.7 776.301 178.529 774.935 Q180.358 773.546 180.358 770.954 Q180.358 768.292 178.459 766.88 Q176.584 765.445 173.066 765.445 Q171.145 765.445 168.946 765.861 Q166.747 766.278 164.108 767.158 L164.108 762.991 Q166.77 762.25 169.085 761.88 Q171.422 761.509 173.483 761.509 Q178.807 761.509 181.909 763.94 Q185.01 766.347 185.01 770.468 Q185.01 773.338 183.367 775.329 Q181.723 777.296 178.691 778.06 Z" fill="#000000" fill-rule="nonzero" fill-opacity="1" /><path clip-path="url(#clip730)" d="M128.159 462.133 Q124.548 462.133 122.719 465.698 Q120.913 469.239 120.913 476.369 Q120.913 483.475 122.719 487.04 Q124.548 490.582 128.159 490.582 Q131.793 490.582 133.599 487.04 Q135.427 483.475 135.427 476.369 Q135.427 469.239 133.599 465.698 Q131.793 462.133 128.159 462.133 M128.159 458.429 Q133.969 458.429 137.025 463.036 Q140.103 467.619 140.103 476.369 Q140.103 485.096 137.025 489.702 Q133.969 494.286 128.159 494.286 Q122.349 494.286 119.27 489.702 Q116.214 485.096 116.214 476.369 Q116.214 467.619 119.27 463.036 Q122.349 458.429 128.159 458.429 Z" fill="#000000" fill-rule="nonzero" fill-opacity="1" /><path clip-path="url(#clip730)" d="M148.321 487.735 L153.205 487.735 L153.205 493.614 L148.321 493.614 L148.321 487.735 Z" fill="#000000" fill-rule="nonzero" fill-opacity="1" /><path clip-path="url(#clip730)" d="M176.237 463.128 L164.432 481.577 L176.237 481.577 L176.237 463.128 M175.01 459.054 L180.89 459.054 L180.89 481.577 L185.821 481.577 L185.821 485.466 L180.89 485.466 L180.89 493.614 L176.237 493.614 L176.237 485.466 L160.636 485.466 L160.636 480.952 L175.01 459.054 Z" fill="#000000" fill-rule="nonzero" fill-opacity="1" /><path clip-path="url(#clip730)" d="M129.64 159.053 Q126.029 159.053 124.201 162.618 Q122.395 166.159 122.395 173.289 Q122.395 180.395 124.201 183.96 Q126.029 187.502 129.64 187.502 Q133.275 187.502 135.08 183.96 Q136.909 180.395 136.909 173.289 Q136.909 166.159 135.08 162.618 Q133.275 159.053 129.64 159.053 M129.64 155.349 Q135.45 155.349 138.506 159.956 Q141.585 164.539 141.585 173.289 Q141.585 182.016 138.506 186.622 Q135.45 191.205 129.64 191.205 Q123.83 191.205 120.751 186.622 Q117.696 182.016 117.696 173.289 Q117.696 164.539 120.751 159.956 Q123.83 155.349 129.64 155.349 Z" fill="#000000" fill-rule="nonzero" fill-opacity="1" /><path clip-path="url(#clip730)" d="M149.802 184.655 L154.686 184.655 L154.686 190.534 L149.802 190.534 L149.802 184.655 Z" fill="#000000" fill-rule="nonzero" fill-opacity="1" /><path clip-path="url(#clip730)" d="M164.918 155.974 L183.274 155.974 L183.274 159.909 L169.2 159.909 L169.2 168.381 Q170.219 168.034 171.237 167.872 Q172.256 167.687 173.274 167.687 Q179.061 167.687 182.441 170.858 Q185.821 174.03 185.821 179.446 Q185.821 185.025 182.348 188.127 Q178.876 191.205 172.557 191.205 Q170.381 191.205 168.112 190.835 Q165.867 190.465 163.46 189.724 L163.46 185.025 Q165.543 186.159 167.765 186.715 Q169.987 187.27 172.464 187.27 Q176.469 187.27 178.807 185.164 Q181.145 183.057 181.145 179.446 Q181.145 175.835 178.807 173.729 Q176.469 171.622 172.464 171.622 Q170.589 171.622 168.714 172.039 Q166.862 172.456 164.918 173.335 L164.918 155.974 Z" fill="#000000" fill-rule="nonzero" fill-opacity="1" /><path clip-path="url(#clip730)" d="M19.402 1098.4 L37.2578 1098.4 L37.2578 1090.32 Q37.2578 1085.83 34.9343 1083.38 Q32.6108 1080.93 28.314 1080.93 Q24.0489 1080.93 21.7255 1083.38 Q19.402 1085.83 19.402 1090.32 L19.402 1098.4 M14.1184 1104.83 L14.1184 1090.32 Q14.1184 1082.33 17.7469 1078.26 Q21.3435 1074.15 28.314 1074.15 Q35.3481 1074.15 38.9447 1078.26 Q42.5413 1082.33 42.5413 1090.32 L42.5413 1098.4 L61.6384 1098.4 L61.6384 1104.83 L14.1184 1104.83 Z" fill="#000000" fill-rule="nonzero" fill-opacity="1" /><path clip-path="url(#clip730)" d="M31.465 1046.27 Q30.8921 1047.26 30.6375 1048.43 Q30.351 1049.58 30.351 1050.98 Q30.351 1055.95 33.5975 1058.62 Q36.8122 1061.26 42.8596 1061.26 L61.6384 1061.26 L61.6384 1067.15 L25.9905 1067.15 L25.9905 1061.26 L31.5287 1061.26 Q28.2821 1059.41 26.7225 1056.45 Q25.1311 1053.49 25.1311 1049.26 Q25.1311 1048.66 25.2266 1047.92 Q25.2903 1047.19 25.4494 1046.3 L31.465 1046.27 Z" fill="#000000" fill-rule="nonzero" fill-opacity="1" /><path clip-path="url(#clip730)" d="M42.3504 1011.07 L45.2149 1011.07 L45.2149 1037.99 Q51.2623 1037.61 54.4452 1034.37 Q57.5962 1031.09 57.5962 1025.26 Q57.5962 1021.89 56.7687 1018.74 Q55.9411 1015.55 54.2861 1012.44 L59.8242 1012.44 Q61.161 1015.59 61.8612 1018.9 Q62.5615 1022.21 62.5615 1025.61 Q62.5615 1034.14 57.5962 1039.14 Q52.631 1044.1 44.1646 1044.1 Q35.4117 1044.1 30.2873 1039.39 Q25.1311 1034.65 25.1311 1026.63 Q25.1311 1019.44 29.7781 1015.27 Q34.3932 1011.07 42.3504 1011.07 M40.6316 1016.92 Q35.8255 1016.99 32.9609 1019.63 Q30.0964 1022.24 30.0964 1026.57 Q30.0964 1031.47 32.8654 1034.43 Q35.6345 1037.36 40.6634 1037.8 L40.6316 1016.92 Z" fill="#000000" fill-rule="nonzero" fill-opacity="1" /><path clip-path="url(#clip730)" d="M25.9905 1005.66 L25.9905 999.45 L55.9093 988.31 L25.9905 977.17 L25.9905 970.963 L61.6384 984.331 L61.6384 992.288 L25.9905 1005.66 Z" fill="#000000" fill-rule="nonzero" fill-opacity="1" /><path clip-path="url(#clip730)" d="M43.719 946.678 Q43.719 953.776 45.3422 956.513 Q46.9655 959.25 50.8804 959.25 Q53.9996 959.25 55.8457 957.213 Q57.6599 955.144 57.6599 951.611 Q57.6599 946.742 54.2224 943.813 Q50.7531 940.853 45.0239 940.853 L43.719 940.853 L43.719 946.678 M41.3 934.997 L61.6384 934.997 L61.6384 940.853 L56.2276 940.853 Q59.4741 942.858 61.0337 945.85 Q62.5615 948.842 62.5615 953.171 Q62.5615 958.645 59.5059 961.892 Q56.4186 965.107 51.2623 965.107 Q45.2467 965.107 42.1912 961.096 Q39.1357 957.054 39.1357 949.065 L39.1357 940.853 L38.5628 940.853 Q34.5205 940.853 32.3244 943.527 Q30.0964 946.169 30.0964 950.975 Q30.0964 954.03 30.8284 956.927 Q31.5605 959.823 33.0246 962.497 L27.6137 962.497 Q26.3724 959.282 25.7677 956.258 Q25.1311 953.235 25.1311 950.37 Q25.1311 942.636 29.1415 938.816 Q33.1519 934.997 41.3 934.997 Z" fill="#000000" fill-rule="nonzero" fill-opacity="1" /><path clip-path="url(#clip730)" d="M12.1132 922.934 L12.1132 917.077 L61.6384 917.077 L61.6384 922.934 L12.1132 922.934 Z" fill="#000000" fill-rule="nonzero" fill-opacity="1" /><path clip-path="url(#clip730)" d="M42.3504 874.332 L45.2149 874.332 L45.2149 901.259 Q51.2623 900.877 54.4452 897.63 Q57.5962 894.352 57.5962 888.527 Q57.5962 885.153 56.7687 882.002 Q55.9411 878.819 54.2861 875.7 L59.8242 875.7 Q61.161 878.851 61.8612 882.161 Q62.5615 885.472 62.5615 888.877 Q62.5615 897.407 57.5962 902.404 Q52.631 907.37 44.1646 907.37 Q35.4117 907.37 30.2873 902.659 Q25.1311 897.917 25.1311 889.896 Q25.1311 882.702 29.7781 878.533 Q34.3932 874.332 42.3504 874.332 M40.6316 880.188 Q35.8255 880.252 32.9609 882.893 Q30.0964 885.503 30.0964 889.832 Q30.0964 894.734 32.8654 897.694 Q35.6345 900.622 40.6634 901.068 L40.6316 880.188 Z" fill="#000000" fill-rule="nonzero" fill-opacity="1" /><path clip-path="url(#clip730)" d="M40.1224 835.087 L61.6384 835.087 L61.6384 840.943 L40.3133 840.943 Q35.2526 840.943 32.7381 842.917 Q30.2237 844.89 30.2237 848.837 Q30.2237 853.579 33.2474 856.317 Q36.2711 859.054 41.491 859.054 L61.6384 859.054 L61.6384 864.942 L25.9905 864.942 L25.9905 859.054 L31.5287 859.054 Q28.314 856.953 26.7225 854.12 Q25.1311 851.256 25.1311 847.532 Q25.1311 841.389 28.9505 838.238 Q32.7381 835.087 40.1224 835.087 Z" fill="#000000" fill-rule="nonzero" fill-opacity="1" /><path clip-path="url(#clip730)" d="M27.3591 797.752 L32.8336 797.752 Q31.465 800.235 30.7966 802.749 Q30.0964 805.232 30.0964 807.778 Q30.0964 813.475 33.7248 816.626 Q37.3214 819.777 43.8463 819.777 Q50.3711 819.777 53.9996 816.626 Q57.5962 813.475 57.5962 807.778 Q57.5962 805.232 56.9278 802.749 Q56.2276 800.235 54.859 797.752 L60.2698 797.752 Q61.4156 800.203 61.9886 802.845 Q62.5615 805.455 62.5615 808.415 Q62.5615 816.467 57.5007 821.21 Q52.44 825.952 43.8463 825.952 Q35.1253 825.952 30.1282 821.178 Q25.1311 816.372 25.1311 808.033 Q25.1311 805.327 25.704 802.749 Q26.2451 800.171 27.3591 797.752 Z" fill="#000000" fill-rule="nonzero" fill-opacity="1" /><path clip-path="url(#clip730)" d="M42.3504 757.075 L45.2149 757.075 L45.2149 784.002 Q51.2623 783.62 54.4452 780.374 Q57.5962 777.095 57.5962 771.271 Q57.5962 767.897 56.7687 764.746 Q55.9411 761.563 54.2861 758.444 L59.8242 758.444 Q61.161 761.595 61.8612 764.905 Q62.5615 768.215 62.5615 771.621 Q62.5615 780.151 57.5962 785.148 Q52.631 790.113 44.1646 790.113 Q35.4117 790.113 30.2873 785.403 Q25.1311 780.66 25.1311 772.639 Q25.1311 765.446 29.7781 761.277 Q34.3932 757.075 42.3504 757.075 M40.6316 762.932 Q35.8255 762.995 32.9609 765.637 Q30.0964 768.247 30.0964 772.576 Q30.0964 777.477 32.8654 780.437 Q35.6345 783.366 40.6634 783.811 L40.6316 762.932 Z" fill="#000000" fill-rule="nonzero" fill-opacity="1" /><path clip-path="url(#clip730)" d="M1058.8 12.096 L1097.04 12.096 L1097.04 18.9825 L1066.98 18.9825 L1066.98 36.8875 L1095.79 36.8875 L1095.79 43.7741 L1066.98 43.7741 L1066.98 65.6895 L1097.77 65.6895 L1097.77 72.576 L1058.8 72.576 L1058.8 12.096 Z" fill="#000000" fill-rule="nonzero" fill-opacity="1" /><path clip-path="url(#clip730)" d="M1133.86 9.54393 L1133.86 15.7418 L1126.73 15.7418 Q1122.72 15.7418 1121.14 17.3622 Q1119.6 18.9825 1119.6 23.1955 L1119.6 27.2059 L1131.88 27.2059 L1131.88 32.9987 L1119.6 32.9987 L1119.6 72.576 L1112.11 72.576 L1112.11 32.9987 L1104.98 32.9987 L1104.98 27.2059 L1112.11 27.2059 L1112.11 24.0462 Q1112.11 16.471 1115.63 13.0277 Q1119.16 9.54393 1126.82 9.54393 L1133.86 9.54393 Z" fill="#000000" fill-rule="nonzero" fill-opacity="1" /><path clip-path="url(#clip730)" d="M1163.07 9.54393 L1163.07 15.7418 L1155.94 15.7418 Q1151.93 15.7418 1150.35 17.3622 Q1148.81 18.9825 1148.81 23.1955 L1148.81 27.2059 L1161.09 27.2059 L1161.09 32.9987 L1148.81 32.9987 L1148.81 72.576 L1141.32 72.576 L1141.32 32.9987 L1134.19 32.9987 L1134.19 27.2059 L1141.32 27.2059 L1141.32 24.0462 Q1141.32 16.471 1144.84 13.0277 Q1148.37 9.54393 1156.02 9.54393 L1163.07 9.54393 Z" fill="#000000" fill-rule="nonzero" fill-opacity="1" /><path clip-path="url(#clip730)" d="M1208.12 48.0275 L1208.12 51.6733 L1173.85 51.6733 Q1174.33 59.3701 1178.46 63.421 Q1182.64 67.4314 1190.05 67.4314 Q1194.34 67.4314 1198.35 66.3781 Q1202.4 65.3249 1206.37 63.2184 L1206.37 70.267 Q1202.36 71.9684 1198.15 72.8596 Q1193.94 73.7508 1189.6 73.7508 Q1178.75 73.7508 1172.39 67.4314 Q1166.07 61.1119 1166.07 50.3365 Q1166.07 39.1965 1172.06 32.6746 Q1178.1 26.1121 1188.31 26.1121 Q1197.46 26.1121 1202.77 32.0264 Q1208.12 37.9003 1208.12 48.0275 M1200.66 45.84 Q1200.58 39.7232 1197.22 36.0774 Q1193.9 32.4315 1188.39 32.4315 Q1182.15 32.4315 1178.38 35.9558 Q1174.66 39.4801 1174.09 45.8805 L1200.66 45.84 Z" fill="#000000" fill-rule="nonzero" fill-opacity="1" /><path clip-path="url(#clip730)" d="M1253 28.9478 L1253 35.9153 Q1249.84 34.1734 1246.64 33.3227 Q1243.48 32.4315 1240.24 32.4315 Q1232.99 32.4315 1228.98 37.0496 Q1224.97 41.6271 1224.97 49.9314 Q1224.97 58.2358 1228.98 62.8538 Q1232.99 67.4314 1240.24 67.4314 Q1243.48 67.4314 1246.64 66.5807 Q1249.84 65.6895 1253 63.9476 L1253 70.8341 Q1249.88 72.2924 1246.52 73.0216 Q1243.2 73.7508 1239.43 73.7508 Q1229.18 73.7508 1223.15 67.3098 Q1217.11 60.8689 1217.11 49.9314 Q1217.11 38.832 1223.19 32.472 Q1229.3 26.1121 1239.92 26.1121 Q1243.36 26.1121 1246.64 26.8413 Q1249.92 27.5299 1253 28.9478 Z" fill="#000000" fill-rule="nonzero" fill-opacity="1" /><path clip-path="url(#clip730)" d="M1273.34 14.324 L1273.34 27.2059 L1288.69 27.2059 L1288.69 32.9987 L1273.34 32.9987 L1273.34 57.6282 Q1273.34 63.1779 1274.84 64.7578 Q1276.37 66.3376 1281.03 66.3376 L1288.69 66.3376 L1288.69 72.576 L1281.03 72.576 Q1272.4 72.576 1269.12 69.3758 Q1265.84 66.1351 1265.84 57.6282 L1265.84 32.9987 L1260.37 32.9987 L1260.37 27.2059 L1265.84 27.2059 L1265.84 14.324 L1273.34 14.324 Z" fill="#000000" fill-rule="nonzero" fill-opacity="1" /><path clip-path="url(#clip730)" d="M1342.44 32.4315 Q1336.45 32.4315 1332.97 37.1306 Q1329.48 41.7891 1329.48 49.9314 Q1329.48 58.0738 1332.93 62.7728 Q1336.41 67.4314 1342.44 67.4314 Q1348.4 67.4314 1351.88 62.7323 Q1355.37 58.0333 1355.37 49.9314 Q1355.37 41.8701 1351.88 37.1711 Q1348.4 32.4315 1342.44 32.4315 M1342.44 26.1121 Q1352.17 26.1121 1357.72 32.4315 Q1363.27 38.7509 1363.27 49.9314 Q1363.27 61.0714 1357.72 67.4314 Q1352.17 73.7508 1342.44 73.7508 Q1332.68 73.7508 1327.13 67.4314 Q1321.62 61.0714 1321.62 49.9314 Q1321.62 38.7509 1327.13 32.4315 Q1332.68 26.1121 1342.44 26.1121 Z" fill="#000000" fill-rule="nonzero" fill-opacity="1" /><path clip-path="url(#clip730)" d="M1398.59 9.54393 L1398.59 15.7418 L1391.46 15.7418 Q1387.45 15.7418 1385.87 17.3622 Q1384.33 18.9825 1384.33 23.1955 L1384.33 27.2059 L1396.61 27.2059 L1396.61 32.9987 L1384.33 32.9987 L1384.33 72.576 L1376.84 72.576 L1376.84 32.9987 L1369.71 32.9987 L1369.71 27.2059 L1376.84 27.2059 L1376.84 24.0462 Q1376.84 16.471 1380.36 13.0277 Q1383.89 9.54393 1391.54 9.54393 L1398.59 9.54393 Z" fill="#000000" fill-rule="nonzero" fill-opacity="1" /><path clip-path="url(#clip730)" d="M1439.71 18.8205 L1439.71 41.5461 L1450 41.5461 Q1455.71 41.5461 1458.83 38.5889 Q1461.95 35.6318 1461.95 30.163 Q1461.95 24.7348 1458.83 21.7777 Q1455.71 18.8205 1450 18.8205 L1439.71 18.8205 M1431.52 12.096 L1450 12.096 Q1460.16 12.096 1465.35 16.714 Q1470.57 21.2916 1470.57 30.163 Q1470.57 39.1155 1465.35 43.6931 Q1460.16 48.2706 1450 48.2706 L1439.71 48.2706 L1439.71 72.576 L1431.52 72.576 L1431.52 12.096 Z" fill="#000000" fill-rule="nonzero" fill-opacity="1" /><path clip-path="url(#clip730)" d="M1517.08 48.0275 L1517.08 51.6733 L1482.81 51.6733 Q1483.29 59.3701 1487.43 63.421 Q1491.6 67.4314 1499.01 67.4314 Q1503.31 67.4314 1507.32 66.3781 Q1511.37 65.3249 1515.34 63.2184 L1515.34 70.267 Q1511.33 71.9684 1507.11 72.8596 Q1502.9 73.7508 1498.57 73.7508 Q1487.71 73.7508 1481.35 67.4314 Q1475.03 61.1119 1475.03 50.3365 Q1475.03 39.1965 1481.03 32.6746 Q1487.06 26.1121 1497.27 26.1121 Q1506.43 26.1121 1511.73 32.0264 Q1517.08 37.9003 1517.08 48.0275 M1509.63 45.84 Q1509.54 39.7232 1506.18 36.0774 Q1502.86 32.4315 1497.35 32.4315 Q1491.11 32.4315 1487.35 35.9558 Q1483.62 39.4801 1483.05 45.8805 L1509.63 45.84 Z" fill="#000000" fill-rule="nonzero" fill-opacity="1" /><path clip-path="url(#clip730)" d="M1549.93 49.7694 Q1540.9 49.7694 1537.41 51.8354 Q1533.93 53.9013 1533.93 58.8839 Q1533.93 62.8538 1536.52 65.2034 Q1539.16 67.5124 1543.65 67.5124 Q1549.85 67.5124 1553.58 63.1374 Q1557.35 58.7219 1557.35 51.4303 L1557.35 49.7694 L1549.93 49.7694 M1564.8 46.6907 L1564.8 72.576 L1557.35 72.576 L1557.35 65.6895 Q1554.79 69.8214 1550.99 71.8063 Q1547.18 73.7508 1541.67 73.7508 Q1534.7 73.7508 1530.57 69.8619 Q1526.48 65.9325 1526.48 59.3701 Q1526.48 51.7138 1531.58 47.825 Q1536.73 43.9361 1546.89 43.9361 L1557.35 43.9361 L1557.35 43.2069 Q1557.35 38.0623 1553.94 35.2672 Q1550.58 32.4315 1544.46 32.4315 Q1540.57 32.4315 1536.89 33.3632 Q1533.2 34.295 1529.8 36.1584 L1529.8 29.2718 Q1533.89 27.692 1537.74 26.9223 Q1541.59 26.1121 1545.23 26.1121 Q1555.08 26.1121 1559.94 31.2163 Q1564.8 36.3204 1564.8 46.6907 Z" fill="#000000" fill-rule="nonzero" fill-opacity="1" /><path clip-path="url(#clip730)" d="M1579.87 9.54393 L1587.36 9.54393 L1587.36 46.7717 L1609.6 27.2059 L1619.12 27.2059 L1595.06 48.4326 L1620.13 72.576 L1610.41 72.576 L1587.36 50.4176 L1587.36 72.576 L1579.87 72.576 L1579.87 9.54393 Z" fill="#000000" fill-rule="nonzero" fill-opacity="1" /><path clip-path="url(#clip730)" d="M1663.07 18.8205 L1663.07 65.8515 L1672.96 65.8515 Q1685.48 65.8515 1691.27 60.1802 Q1697.1 54.509 1697.1 42.2752 Q1697.1 30.1225 1691.27 24.4918 Q1685.48 18.8205 1672.96 18.8205 L1663.07 18.8205 M1654.89 12.096 L1671.7 12.096 Q1689.28 12.096 1697.51 19.4281 Q1705.73 26.7198 1705.73 42.2752 Q1705.73 57.9117 1697.47 65.2439 Q1689.2 72.576 1671.7 72.576 L1654.89 72.576 L1654.89 12.096 Z" fill="#000000" fill-rule="nonzero" fill-opacity="1" /><path clip-path="url(#clip730)" d="M1739.07 49.7694 Q1730.04 49.7694 1726.55 51.8354 Q1723.07 53.9013 1723.07 58.8839 Q1723.07 62.8538 1725.66 65.2034 Q1728.29 67.5124 1732.79 67.5124 Q1738.99 67.5124 1742.71 63.1374 Q1746.48 58.7219 1746.48 51.4303 L1746.48 49.7694 L1739.07 49.7694 M1753.94 46.6907 L1753.94 72.576 L1746.48 72.576 L1746.48 65.6895 Q1743.93 69.8214 1740.12 71.8063 Q1736.31 73.7508 1730.8 73.7508 Q1723.84 73.7508 1719.71 69.8619 Q1715.61 65.9325 1715.61 59.3701 Q1715.61 51.7138 1720.72 47.825 Q1725.86 43.9361 1736.03 43.9361 L1746.48 43.9361 L1746.48 43.2069 Q1746.48 38.0623 1743.08 35.2672 Q1739.72 32.4315 1733.6 32.4315 Q1729.71 32.4315 1726.02 33.3632 Q1722.34 34.295 1718.94 36.1584 L1718.94 29.2718 Q1723.03 27.692 1726.88 26.9223 Q1730.72 26.1121 1734.37 26.1121 Q1744.21 26.1121 1749.07 31.2163 Q1753.94 36.3204 1753.94 46.6907 Z" fill="#000000" fill-rule="nonzero" fill-opacity="1" /><path clip-path="url(#clip730)" d="M1788.17 76.7889 Q1785.01 84.8907 1782.01 87.3618 Q1779.01 89.8329 1773.99 89.8329 L1768.03 89.8329 L1768.03 83.5945 L1772.41 83.5945 Q1775.49 83.5945 1777.19 82.1361 Q1778.89 80.6778 1780.96 75.2496 L1782.29 71.8468 L1763.94 27.2059 L1771.84 27.2059 L1786.02 62.6918 L1800.2 27.2059 L1808.1 27.2059 L1788.17 76.7889 Z" fill="#000000" fill-rule="nonzero" fill-opacity="1" /><polyline clip-path="url(#clip731)" style="stroke:#009af9; stroke-linecap:round; stroke-linejoin:round; stroke-width:8; stroke-opacity:1; fill:none" points="294.479,1643.19 351.427,1637.13 408.376,1591.67 465.324,1528.02 522.273,1385.57 579.221,1155.23 636.17,843.061 693.118,491.488 750.067,324.794 807.015,194.47 863.963,173.254 920.912,291.455 977.86,573.32 1034.81,794.568 1091.76,997.632 1148.71,1164.33 1205.65,1276.47 1262.6,1346.17 1319.55,1428.01 1376.5,1479.53 1433.45,1518.93 1490.4,1534.08 1547.35,1579.55 1604.29,1609.85 1661.24,1628.04 1718.19,1631.07 1775.14,1646.22 1832.09,1655.32 1889.04,1670.47 1945.98,1673.5 2002.93,1685.62 2059.88,1685.62 2116.83,1688.65 2173.78,1688.65 2230.73,1688.65 2287.68,1688.65 2344.62,1688.65 2401.57,1688.65 2458.52,1688.65 2515.47,1688.65 2572.42,1688.65 "/>
<polyline clip-path="url(#clip731)" style="stroke:#e26f46; stroke-linecap:round; stroke-linejoin:round; stroke-width:8; stroke-opacity:1; fill:none" points="294.479,1646.22 351.427,1649.25 408.376,1634.1 465.324,1615.92 522.273,1591.67 579.221,1567.42 636.17,1564.39 693.118,1567.42 750.067,1518.93 807.015,1521.96 863.963,1503.78 920.912,1491.65 977.86,1479.53 1034.81,1455.28 1091.76,1431.04 1148.71,1373.45 1205.65,1343.14 1262.6,1355.27 1319.55,1367.39 1376.5,1337.08 1433.45,1349.21 1490.4,1346.17 1547.35,1334.05 1604.29,1340.11 1661.24,1358.3 1718.19,1376.48 1775.14,1379.51 1832.09,1379.51 1889.04,1394.67 1945.98,1440.13 2002.93,1446.19 2059.88,1458.31 2116.83,1455.28 2173.78,1464.38 2230.73,1494.68 2287.68,1528.02 2344.62,1558.33 2401.57,1549.24 2458.52,1594.7 2515.47,1603.79 2572.42,1612.88 "/>
<polyline clip-path="url(#clip731)" style="stroke:#3da44d; stroke-linecap:round; stroke-linejoin:round; stroke-width:8; stroke-opacity:1; fill:none" points="294.479,1655.32 351.427,1667.44 408.376,1664.41 465.324,1664.41 522.273,1670.47 579.221,1673.5 636.17,1676.53 693.118,1679.56 750.067,1679.56 807.015,1682.59 863.963,1685.62 920.912,1685.62 977.86,1685.62 1034.81,1685.62 1091.76,1685.62 1148.71,1685.62 1205.65,1688.65 1262.6,1688.65 1319.55,1688.65 1376.5,1688.65 1433.45,1688.65 1490.4,1688.65 1547.35,1688.65 1604.29,1688.65 1661.24,1688.65 1718.19,1688.65 1775.14,1688.65 1832.09,1688.65 1889.04,1688.65 1945.98,1688.65 2002.93,1688.65 2059.88,1688.65 2116.83,1688.65 2173.78,1688.65 2230.73,1688.65 2287.68,1688.65 2344.62,1688.65 2401.57,1688.65 2458.52,1688.65 2515.47,1688.65 2572.42,1688.65 "/>
<path clip-path="url(#clip730)" d="M1924.16 388.696 L2560.27 388.696 L2560.27 181.336 L1924.16 181.336  Z" fill="#ffffff" fill-rule="evenodd" fill-opacity="1"/>
<polyline clip-path="url(#clip730)" style="stroke:#000000; stroke-linecap:round; stroke-linejoin:round; stroke-width:4; stroke-opacity:1; fill:none" points="1924.16,388.696 2560.27,388.696 2560.27,181.336 1924.16,181.336 1924.16,388.696 "/>
<polyline clip-path="url(#clip730)" style="stroke:#009af9; stroke-linecap:round; stroke-linejoin:round; stroke-width:8; stroke-opacity:1; fill:none" points="1950.99,233.176 2111.96,233.176 "/>
<path clip-path="url(#clip730)" d="M2143.07 246.567 L2143.07 260.317 L2138.79 260.317 L2138.79 224.531 L2143.07 224.531 L2143.07 228.466 Q2144.41 226.151 2146.45 225.04 Q2148.51 223.906 2151.36 223.906 Q2156.08 223.906 2159.02 227.655 Q2161.98 231.405 2161.98 237.517 Q2161.98 243.628 2159.02 247.378 Q2156.08 251.128 2151.36 251.128 Q2148.51 251.128 2146.45 250.016 Q2144.41 248.882 2143.07 246.567 M2157.56 237.517 Q2157.56 232.817 2155.62 230.155 Q2153.7 227.47 2150.32 227.47 Q2146.94 227.47 2144.99 230.155 Q2143.07 232.817 2143.07 237.517 Q2143.07 242.216 2144.99 244.901 Q2146.94 247.563 2150.32 247.563 Q2153.7 247.563 2155.62 244.901 Q2157.56 242.216 2157.56 237.517 Z" fill="#000000" fill-rule="nonzero" fill-opacity="1" /><path clip-path="url(#clip730)" d="M2191.22 236.429 L2191.22 238.512 L2171.64 238.512 Q2171.91 242.91 2174.27 245.225 Q2176.66 247.516 2180.9 247.516 Q2183.35 247.516 2185.64 246.915 Q2187.96 246.313 2190.22 245.109 L2190.22 249.137 Q2187.93 250.109 2185.52 250.618 Q2183.12 251.128 2180.64 251.128 Q2174.44 251.128 2170.8 247.516 Q2167.19 243.905 2167.19 237.748 Q2167.19 231.382 2170.62 227.655 Q2174.07 223.906 2179.9 223.906 Q2185.13 223.906 2188.16 227.285 Q2191.22 230.642 2191.22 236.429 M2186.96 235.179 Q2186.91 231.683 2184.99 229.6 Q2183.09 227.517 2179.95 227.517 Q2176.38 227.517 2174.23 229.53 Q2172.1 231.544 2171.77 235.202 L2186.96 235.179 Z" fill="#000000" fill-rule="nonzero" fill-opacity="1" /><path clip-path="url(#clip730)" d="M2209.99 237.424 Q2204.83 237.424 2202.84 238.604 Q2200.85 239.785 2200.85 242.632 Q2200.85 244.901 2202.33 246.243 Q2203.83 247.563 2206.4 247.563 Q2209.95 247.563 2212.08 245.063 Q2214.23 242.54 2214.23 238.373 L2214.23 237.424 L2209.99 237.424 M2218.49 235.665 L2218.49 250.456 L2214.23 250.456 L2214.23 246.521 Q2212.77 248.882 2210.59 250.016 Q2208.42 251.128 2205.27 251.128 Q2201.29 251.128 2198.93 248.905 Q2196.59 246.66 2196.59 242.91 Q2196.59 238.535 2199.51 236.313 Q2202.45 234.091 2208.26 234.091 L2214.23 234.091 L2214.23 233.674 Q2214.23 230.734 2212.28 229.137 Q2210.36 227.517 2206.87 227.517 Q2204.65 227.517 2202.54 228.049 Q2200.43 228.581 2198.49 229.646 L2198.49 225.711 Q2200.83 224.808 2203.02 224.368 Q2205.22 223.906 2207.31 223.906 Q2212.93 223.906 2215.71 226.822 Q2218.49 229.739 2218.49 235.665 Z" fill="#000000" fill-rule="nonzero" fill-opacity="1" /><path clip-path="url(#clip730)" d="M2227.1 214.438 L2231.38 214.438 L2231.38 235.711 L2244.09 224.531 L2249.53 224.531 L2235.78 236.66 L2250.11 250.456 L2244.55 250.456 L2231.38 237.794 L2231.38 250.456 L2227.1 250.456 L2227.1 214.438 Z" fill="#000000" fill-rule="nonzero" fill-opacity="1" /><path clip-path="url(#clip730)" d="M2274.41 258.327 L2274.41 261.637 L2249.78 261.637 L2249.78 258.327 L2274.41 258.327 Z" fill="#000000" fill-rule="nonzero" fill-opacity="1" /><path clip-path="url(#clip730)" d="M2295.48 228.466 L2295.48 214.438 L2299.74 214.438 L2299.74 250.456 L2295.48 250.456 L2295.48 246.567 Q2294.14 248.882 2292.08 250.016 Q2290.04 251.128 2287.17 251.128 Q2282.47 251.128 2279.51 247.378 Q2276.57 243.628 2276.57 237.517 Q2276.57 231.405 2279.51 227.655 Q2282.47 223.906 2287.17 223.906 Q2290.04 223.906 2292.08 225.04 Q2294.14 226.151 2295.48 228.466 M2280.96 237.517 Q2280.96 242.216 2282.89 244.901 Q2284.83 247.563 2288.21 247.563 Q2291.59 247.563 2293.53 244.901 Q2295.48 242.216 2295.48 237.517 Q2295.48 232.817 2293.53 230.155 Q2291.59 227.47 2288.21 227.47 Q2284.83 227.47 2282.89 230.155 Q2280.96 232.817 2280.96 237.517 Z" fill="#000000" fill-rule="nonzero" fill-opacity="1" /><path clip-path="url(#clip730)" d="M2320.29 237.424 Q2315.13 237.424 2313.14 238.604 Q2311.15 239.785 2311.15 242.632 Q2311.15 244.901 2312.63 246.243 Q2314.14 247.563 2316.7 247.563 Q2320.25 247.563 2322.38 245.063 Q2324.53 242.54 2324.53 238.373 L2324.53 237.424 L2320.29 237.424 M2328.79 235.665 L2328.79 250.456 L2324.53 250.456 L2324.53 246.521 Q2323.07 248.882 2320.89 250.016 Q2318.72 251.128 2315.57 251.128 Q2311.59 251.128 2309.23 248.905 Q2306.89 246.66 2306.89 242.91 Q2306.89 238.535 2309.81 236.313 Q2312.75 234.091 2318.56 234.091 L2324.53 234.091 L2324.53 233.674 Q2324.53 230.734 2322.58 229.137 Q2320.66 227.517 2317.17 227.517 Q2314.95 227.517 2312.84 228.049 Q2310.73 228.581 2308.79 229.646 L2308.79 225.711 Q2311.13 224.808 2313.33 224.368 Q2315.52 223.906 2317.61 223.906 Q2323.23 223.906 2326.01 226.822 Q2328.79 229.739 2328.79 235.665 Z" fill="#000000" fill-rule="nonzero" fill-opacity="1" /><path clip-path="url(#clip730)" d="M2348.35 252.864 Q2346.54 257.493 2344.83 258.905 Q2343.12 260.317 2340.25 260.317 L2336.84 260.317 L2336.84 256.753 L2339.34 256.753 Q2341.1 256.753 2342.07 255.919 Q2343.05 255.086 2344.23 251.984 L2344.99 250.04 L2334.51 224.531 L2339.02 224.531 L2347.12 244.808 L2355.22 224.531 L2359.74 224.531 L2348.35 252.864 Z" fill="#000000" fill-rule="nonzero" fill-opacity="1" /><path clip-path="url(#clip730)" d="M2366.17 228.929 L2395.85 228.929 L2395.85 232.817 L2366.17 232.817 L2366.17 228.929 M2366.17 238.373 L2395.85 238.373 L2395.85 242.308 L2366.17 242.308 L2366.17 238.373 Z" fill="#000000" fill-rule="nonzero" fill-opacity="1" /><path clip-path="url(#clip730)" d="M2415.94 218.975 Q2412.33 218.975 2410.5 222.54 Q2408.69 226.081 2408.69 233.211 Q2408.69 240.317 2410.5 243.882 Q2412.33 247.424 2415.94 247.424 Q2419.57 247.424 2421.38 243.882 Q2423.21 240.317 2423.21 233.211 Q2423.21 226.081 2421.38 222.54 Q2419.57 218.975 2415.94 218.975 M2415.94 215.271 Q2421.75 215.271 2424.81 219.878 Q2427.88 224.461 2427.88 233.211 Q2427.88 241.938 2424.81 246.544 Q2421.75 251.128 2415.94 251.128 Q2410.13 251.128 2407.05 246.544 Q2404 241.938 2404 233.211 Q2404 224.461 2407.05 219.878 Q2410.13 215.271 2415.94 215.271 Z" fill="#000000" fill-rule="nonzero" fill-opacity="1" /><path clip-path="url(#clip730)" d="M2436.1 244.577 L2440.99 244.577 L2440.99 250.456 L2436.1 250.456 L2436.1 244.577 Z" fill="#000000" fill-rule="nonzero" fill-opacity="1" /><path clip-path="url(#clip730)" d="M2461.17 218.975 Q2457.56 218.975 2455.73 222.54 Q2453.93 226.081 2453.93 233.211 Q2453.93 240.317 2455.73 243.882 Q2457.56 247.424 2461.17 247.424 Q2464.81 247.424 2466.61 243.882 Q2468.44 240.317 2468.44 233.211 Q2468.44 226.081 2466.61 222.54 Q2464.81 218.975 2461.17 218.975 M2461.17 215.271 Q2466.98 215.271 2470.04 219.878 Q2473.12 224.461 2473.12 233.211 Q2473.12 241.938 2470.04 246.544 Q2466.98 251.128 2461.17 251.128 Q2455.36 251.128 2452.28 246.544 Q2449.23 241.938 2449.23 233.211 Q2449.23 224.461 2452.28 219.878 Q2455.36 215.271 2461.17 215.271 Z" fill="#000000" fill-rule="nonzero" fill-opacity="1" /><polyline clip-path="url(#clip730)" style="stroke:#e26f46; stroke-linecap:round; stroke-linejoin:round; stroke-width:8; stroke-opacity:1; fill:none" points="1950.99,285.016 2111.96,285.016 "/>
<path clip-path="url(#clip730)" d="M2143.07 298.407 L2143.07 312.157 L2138.79 312.157 L2138.79 276.371 L2143.07 276.371 L2143.07 280.306 Q2144.41 277.991 2146.45 276.88 Q2148.51 275.746 2151.36 275.746 Q2156.08 275.746 2159.02 279.495 Q2161.98 283.245 2161.98 289.357 Q2161.98 295.468 2159.02 299.218 Q2156.08 302.968 2151.36 302.968 Q2148.51 302.968 2146.45 301.856 Q2144.41 300.722 2143.07 298.407 M2157.56 289.357 Q2157.56 284.657 2155.62 281.995 Q2153.7 279.31 2150.32 279.31 Q2146.94 279.31 2144.99 281.995 Q2143.07 284.657 2143.07 289.357 Q2143.07 294.056 2144.99 296.741 Q2146.94 299.403 2150.32 299.403 Q2153.7 299.403 2155.62 296.741 Q2157.56 294.056 2157.56 289.357 Z" fill="#000000" fill-rule="nonzero" fill-opacity="1" /><path clip-path="url(#clip730)" d="M2191.22 288.269 L2191.22 290.352 L2171.64 290.352 Q2171.91 294.75 2174.27 297.065 Q2176.66 299.356 2180.9 299.356 Q2183.35 299.356 2185.64 298.755 Q2187.96 298.153 2190.22 296.949 L2190.22 300.977 Q2187.93 301.949 2185.52 302.458 Q2183.12 302.968 2180.64 302.968 Q2174.44 302.968 2170.8 299.356 Q2167.19 295.745 2167.19 289.588 Q2167.19 283.222 2170.62 279.495 Q2174.07 275.746 2179.9 275.746 Q2185.13 275.746 2188.16 279.125 Q2191.22 282.482 2191.22 288.269 M2186.96 287.019 Q2186.91 283.523 2184.99 281.44 Q2183.09 279.357 2179.95 279.357 Q2176.38 279.357 2174.23 281.37 Q2172.1 283.384 2171.77 287.042 L2186.96 287.019 Z" fill="#000000" fill-rule="nonzero" fill-opacity="1" /><path clip-path="url(#clip730)" d="M2209.99 289.264 Q2204.83 289.264 2202.84 290.444 Q2200.85 291.625 2200.85 294.472 Q2200.85 296.741 2202.33 298.083 Q2203.83 299.403 2206.4 299.403 Q2209.95 299.403 2212.08 296.903 Q2214.23 294.38 2214.23 290.213 L2214.23 289.264 L2209.99 289.264 M2218.49 287.505 L2218.49 302.296 L2214.23 302.296 L2214.23 298.361 Q2212.77 300.722 2210.59 301.856 Q2208.42 302.968 2205.27 302.968 Q2201.29 302.968 2198.93 300.745 Q2196.59 298.5 2196.59 294.75 Q2196.59 290.375 2199.51 288.153 Q2202.45 285.931 2208.26 285.931 L2214.23 285.931 L2214.23 285.514 Q2214.23 282.574 2212.28 280.977 Q2210.36 279.357 2206.87 279.357 Q2204.65 279.357 2202.54 279.889 Q2200.43 280.421 2198.49 281.486 L2198.49 277.551 Q2200.83 276.648 2203.02 276.208 Q2205.22 275.746 2207.31 275.746 Q2212.93 275.746 2215.71 278.662 Q2218.49 281.579 2218.49 287.505 Z" fill="#000000" fill-rule="nonzero" fill-opacity="1" /><path clip-path="url(#clip730)" d="M2227.1 266.278 L2231.38 266.278 L2231.38 287.551 L2244.09 276.371 L2249.53 276.371 L2235.78 288.5 L2250.11 302.296 L2244.55 302.296 L2231.38 289.634 L2231.38 302.296 L2227.1 302.296 L2227.1 266.278 Z" fill="#000000" fill-rule="nonzero" fill-opacity="1" /><path clip-path="url(#clip730)" d="M2274.41 310.167 L2274.41 313.477 L2249.78 313.477 L2249.78 310.167 L2274.41 310.167 Z" fill="#000000" fill-rule="nonzero" fill-opacity="1" /><path clip-path="url(#clip730)" d="M2295.48 280.306 L2295.48 266.278 L2299.74 266.278 L2299.74 302.296 L2295.48 302.296 L2295.48 298.407 Q2294.14 300.722 2292.08 301.856 Q2290.04 302.968 2287.17 302.968 Q2282.47 302.968 2279.51 299.218 Q2276.57 295.468 2276.57 289.357 Q2276.57 283.245 2279.51 279.495 Q2282.47 275.746 2287.17 275.746 Q2290.04 275.746 2292.08 276.88 Q2294.14 277.991 2295.48 280.306 M2280.96 289.357 Q2280.96 294.056 2282.89 296.741 Q2284.83 299.403 2288.21 299.403 Q2291.59 299.403 2293.53 296.741 Q2295.48 294.056 2295.48 289.357 Q2295.48 284.657 2293.53 281.995 Q2291.59 279.31 2288.21 279.31 Q2284.83 279.31 2282.89 281.995 Q2280.96 284.657 2280.96 289.357 Z" fill="#000000" fill-rule="nonzero" fill-opacity="1" /><path clip-path="url(#clip730)" d="M2320.29 289.264 Q2315.13 289.264 2313.14 290.444 Q2311.15 291.625 2311.15 294.472 Q2311.15 296.741 2312.63 298.083 Q2314.14 299.403 2316.7 299.403 Q2320.25 299.403 2322.38 296.903 Q2324.53 294.38 2324.53 290.213 L2324.53 289.264 L2320.29 289.264 M2328.79 287.505 L2328.79 302.296 L2324.53 302.296 L2324.53 298.361 Q2323.07 300.722 2320.89 301.856 Q2318.72 302.968 2315.57 302.968 Q2311.59 302.968 2309.23 300.745 Q2306.89 298.5 2306.89 294.75 Q2306.89 290.375 2309.81 288.153 Q2312.75 285.931 2318.56 285.931 L2324.53 285.931 L2324.53 285.514 Q2324.53 282.574 2322.58 280.977 Q2320.66 279.357 2317.17 279.357 Q2314.95 279.357 2312.84 279.889 Q2310.73 280.421 2308.79 281.486 L2308.79 277.551 Q2311.13 276.648 2313.33 276.208 Q2315.52 275.746 2317.61 275.746 Q2323.23 275.746 2326.01 278.662 Q2328.79 281.579 2328.79 287.505 Z" fill="#000000" fill-rule="nonzero" fill-opacity="1" /><path clip-path="url(#clip730)" d="M2348.35 304.704 Q2346.54 309.333 2344.83 310.745 Q2343.12 312.157 2340.25 312.157 L2336.84 312.157 L2336.84 308.593 L2339.34 308.593 Q2341.1 308.593 2342.07 307.759 Q2343.05 306.926 2344.23 303.824 L2344.99 301.88 L2334.51 276.371 L2339.02 276.371 L2347.12 296.648 L2355.22 276.371 L2359.74 276.371 L2348.35 304.704 Z" fill="#000000" fill-rule="nonzero" fill-opacity="1" /><path clip-path="url(#clip730)" d="M2366.17 280.769 L2395.85 280.769 L2395.85 284.657 L2366.17 284.657 L2366.17 280.769 M2366.17 290.213 L2395.85 290.213 L2395.85 294.148 L2366.17 294.148 L2366.17 290.213 Z" fill="#000000" fill-rule="nonzero" fill-opacity="1" /><path clip-path="url(#clip730)" d="M2406.08 301.579 L2406.08 297.319 Q2407.84 298.153 2409.64 298.593 Q2411.45 299.032 2413.19 299.032 Q2417.82 299.032 2420.25 295.931 Q2422.7 292.806 2423.05 286.463 Q2421.7 288.454 2419.64 289.519 Q2417.58 290.583 2415.08 290.583 Q2409.9 290.583 2406.87 287.458 Q2403.86 284.31 2403.86 278.87 Q2403.86 273.546 2407.01 270.329 Q2410.15 267.111 2415.38 267.111 Q2421.38 267.111 2424.53 271.718 Q2427.7 276.301 2427.7 285.051 Q2427.7 293.222 2423.81 298.106 Q2419.94 302.968 2413.39 302.968 Q2411.63 302.968 2409.83 302.62 Q2408.02 302.273 2406.08 301.579 M2415.38 286.926 Q2418.53 286.926 2420.36 284.773 Q2422.21 282.62 2422.21 278.87 Q2422.21 275.144 2420.36 272.991 Q2418.53 270.815 2415.38 270.815 Q2412.24 270.815 2410.38 272.991 Q2408.56 275.144 2408.56 278.87 Q2408.56 282.62 2410.38 284.773 Q2412.24 286.926 2415.38 286.926 Z" fill="#000000" fill-rule="nonzero" fill-opacity="1" /><path clip-path="url(#clip730)" d="M2446.1 270.815 Q2442.49 270.815 2440.66 274.38 Q2438.86 277.921 2438.86 285.051 Q2438.86 292.157 2440.66 295.722 Q2442.49 299.264 2446.1 299.264 Q2449.74 299.264 2451.54 295.722 Q2453.37 292.157 2453.37 285.051 Q2453.37 277.921 2451.54 274.38 Q2449.74 270.815 2446.1 270.815 M2446.1 267.111 Q2451.91 267.111 2454.97 271.718 Q2458.05 276.301 2458.05 285.051 Q2458.05 293.778 2454.97 298.384 Q2451.91 302.968 2446.1 302.968 Q2440.29 302.968 2437.21 298.384 Q2434.16 293.778 2434.16 285.051 Q2434.16 276.301 2437.21 271.718 Q2440.29 267.111 2446.1 267.111 Z" fill="#000000" fill-rule="nonzero" fill-opacity="1" /><path clip-path="url(#clip730)" d="M2466.26 296.417 L2471.15 296.417 L2471.15 302.296 L2466.26 302.296 L2466.26 296.417 Z" fill="#000000" fill-rule="nonzero" fill-opacity="1" /><path clip-path="url(#clip730)" d="M2491.33 270.815 Q2487.72 270.815 2485.89 274.38 Q2484.09 277.921 2484.09 285.051 Q2484.09 292.157 2485.89 295.722 Q2487.72 299.264 2491.33 299.264 Q2494.97 299.264 2496.77 295.722 Q2498.6 292.157 2498.6 285.051 Q2498.6 277.921 2496.77 274.38 Q2494.97 270.815 2491.33 270.815 M2491.33 267.111 Q2497.14 267.111 2500.2 271.718 Q2503.28 276.301 2503.28 285.051 Q2503.28 293.778 2500.2 298.384 Q2497.14 302.968 2491.33 302.968 Q2485.52 302.968 2482.44 298.384 Q2479.39 293.778 2479.39 285.051 Q2479.39 276.301 2482.44 271.718 Q2485.52 267.111 2491.33 267.111 Z" fill="#000000" fill-rule="nonzero" fill-opacity="1" /><polyline clip-path="url(#clip730)" style="stroke:#3da44d; stroke-linecap:round; stroke-linejoin:round; stroke-width:8; stroke-opacity:1; fill:none" points="1950.99,336.856 2111.96,336.856 "/>
<path clip-path="url(#clip730)" d="M2143.07 350.247 L2143.07 363.997 L2138.79 363.997 L2138.79 328.211 L2143.07 328.211 L2143.07 332.146 Q2144.41 329.831 2146.45 328.72 Q2148.51 327.586 2151.36 327.586 Q2156.08 327.586 2159.02 331.335 Q2161.98 335.085 2161.98 341.197 Q2161.98 347.308 2159.02 351.058 Q2156.08 354.808 2151.36 354.808 Q2148.51 354.808 2146.45 353.696 Q2144.41 352.562 2143.07 350.247 M2157.56 341.197 Q2157.56 336.497 2155.62 333.835 Q2153.7 331.15 2150.32 331.15 Q2146.94 331.15 2144.99 333.835 Q2143.07 336.497 2143.07 341.197 Q2143.07 345.896 2144.99 348.581 Q2146.94 351.243 2150.32 351.243 Q2153.7 351.243 2155.62 348.581 Q2157.56 345.896 2157.56 341.197 Z" fill="#000000" fill-rule="nonzero" fill-opacity="1" /><path clip-path="url(#clip730)" d="M2191.22 340.109 L2191.22 342.192 L2171.64 342.192 Q2171.91 346.59 2174.27 348.905 Q2176.66 351.196 2180.9 351.196 Q2183.35 351.196 2185.64 350.595 Q2187.96 349.993 2190.22 348.789 L2190.22 352.817 Q2187.93 353.789 2185.52 354.298 Q2183.12 354.808 2180.64 354.808 Q2174.44 354.808 2170.8 351.196 Q2167.19 347.585 2167.19 341.428 Q2167.19 335.062 2170.62 331.335 Q2174.07 327.586 2179.9 327.586 Q2185.13 327.586 2188.16 330.965 Q2191.22 334.322 2191.22 340.109 M2186.96 338.859 Q2186.91 335.363 2184.99 333.28 Q2183.09 331.197 2179.95 331.197 Q2176.38 331.197 2174.23 333.21 Q2172.1 335.224 2171.77 338.882 L2186.96 338.859 Z" fill="#000000" fill-rule="nonzero" fill-opacity="1" /><path clip-path="url(#clip730)" d="M2209.99 341.104 Q2204.83 341.104 2202.84 342.284 Q2200.85 343.465 2200.85 346.312 Q2200.85 348.581 2202.33 349.923 Q2203.83 351.243 2206.4 351.243 Q2209.95 351.243 2212.08 348.743 Q2214.23 346.22 2214.23 342.053 L2214.23 341.104 L2209.99 341.104 M2218.49 339.345 L2218.49 354.136 L2214.23 354.136 L2214.23 350.201 Q2212.77 352.562 2210.59 353.696 Q2208.42 354.808 2205.27 354.808 Q2201.29 354.808 2198.93 352.585 Q2196.59 350.34 2196.59 346.59 Q2196.59 342.215 2199.51 339.993 Q2202.45 337.771 2208.26 337.771 L2214.23 337.771 L2214.23 337.354 Q2214.23 334.414 2212.28 332.817 Q2210.36 331.197 2206.87 331.197 Q2204.65 331.197 2202.54 331.729 Q2200.43 332.261 2198.49 333.326 L2198.49 329.391 Q2200.83 328.488 2203.02 328.048 Q2205.22 327.586 2207.31 327.586 Q2212.93 327.586 2215.71 330.502 Q2218.49 333.419 2218.49 339.345 Z" fill="#000000" fill-rule="nonzero" fill-opacity="1" /><path clip-path="url(#clip730)" d="M2227.1 318.118 L2231.38 318.118 L2231.38 339.391 L2244.09 328.211 L2249.53 328.211 L2235.78 340.34 L2250.11 354.136 L2244.55 354.136 L2231.38 341.474 L2231.38 354.136 L2227.1 354.136 L2227.1 318.118 Z" fill="#000000" fill-rule="nonzero" fill-opacity="1" /><path clip-path="url(#clip730)" d="M2274.41 362.007 L2274.41 365.317 L2249.78 365.317 L2249.78 362.007 L2274.41 362.007 Z" fill="#000000" fill-rule="nonzero" fill-opacity="1" /><path clip-path="url(#clip730)" d="M2295.48 332.146 L2295.48 318.118 L2299.74 318.118 L2299.74 354.136 L2295.48 354.136 L2295.48 350.247 Q2294.14 352.562 2292.08 353.696 Q2290.04 354.808 2287.17 354.808 Q2282.47 354.808 2279.51 351.058 Q2276.57 347.308 2276.57 341.197 Q2276.57 335.085 2279.51 331.335 Q2282.47 327.586 2287.17 327.586 Q2290.04 327.586 2292.08 328.72 Q2294.14 329.831 2295.48 332.146 M2280.96 341.197 Q2280.96 345.896 2282.89 348.581 Q2284.83 351.243 2288.21 351.243 Q2291.59 351.243 2293.53 348.581 Q2295.48 345.896 2295.48 341.197 Q2295.48 336.497 2293.53 333.835 Q2291.59 331.15 2288.21 331.15 Q2284.83 331.15 2282.89 333.835 Q2280.96 336.497 2280.96 341.197 Z" fill="#000000" fill-rule="nonzero" fill-opacity="1" /><path clip-path="url(#clip730)" d="M2320.29 341.104 Q2315.13 341.104 2313.14 342.284 Q2311.15 343.465 2311.15 346.312 Q2311.15 348.581 2312.63 349.923 Q2314.14 351.243 2316.7 351.243 Q2320.25 351.243 2322.38 348.743 Q2324.53 346.22 2324.53 342.053 L2324.53 341.104 L2320.29 341.104 M2328.79 339.345 L2328.79 354.136 L2324.53 354.136 L2324.53 350.201 Q2323.07 352.562 2320.89 353.696 Q2318.72 354.808 2315.57 354.808 Q2311.59 354.808 2309.23 352.585 Q2306.89 350.34 2306.89 346.59 Q2306.89 342.215 2309.81 339.993 Q2312.75 337.771 2318.56 337.771 L2324.53 337.771 L2324.53 337.354 Q2324.53 334.414 2322.58 332.817 Q2320.66 331.197 2317.17 331.197 Q2314.95 331.197 2312.84 331.729 Q2310.73 332.261 2308.79 333.326 L2308.79 329.391 Q2311.13 328.488 2313.33 328.048 Q2315.52 327.586 2317.61 327.586 Q2323.23 327.586 2326.01 330.502 Q2328.79 333.419 2328.79 339.345 Z" fill="#000000" fill-rule="nonzero" fill-opacity="1" /><path clip-path="url(#clip730)" d="M2348.35 356.544 Q2346.54 361.173 2344.83 362.585 Q2343.12 363.997 2340.25 363.997 L2336.84 363.997 L2336.84 360.433 L2339.34 360.433 Q2341.1 360.433 2342.07 359.599 Q2343.05 358.766 2344.23 355.664 L2344.99 353.72 L2334.51 328.211 L2339.02 328.211 L2347.12 348.488 L2355.22 328.211 L2359.74 328.211 L2348.35 356.544 Z" fill="#000000" fill-rule="nonzero" fill-opacity="1" /><path clip-path="url(#clip730)" d="M2366.17 332.609 L2395.85 332.609 L2395.85 336.497 L2366.17 336.497 L2366.17 332.609 M2366.17 342.053 L2395.85 342.053 L2395.85 345.988 L2366.17 345.988 L2366.17 342.053 Z" fill="#000000" fill-rule="nonzero" fill-opacity="1" /><path clip-path="url(#clip730)" d="M2406.75 350.201 L2414.39 350.201 L2414.39 323.836 L2406.08 325.502 L2406.08 321.243 L2414.34 319.576 L2419.02 319.576 L2419.02 350.201 L2426.66 350.201 L2426.66 354.136 L2406.75 354.136 L2406.75 350.201 Z" fill="#000000" fill-rule="nonzero" fill-opacity="1" /><path clip-path="url(#clip730)" d="M2446.1 337.724 Q2442.77 337.724 2440.85 339.507 Q2438.95 341.289 2438.95 344.414 Q2438.95 347.539 2440.85 349.321 Q2442.77 351.104 2446.1 351.104 Q2449.44 351.104 2451.36 349.321 Q2453.28 347.516 2453.28 344.414 Q2453.28 341.289 2451.36 339.507 Q2449.46 337.724 2446.1 337.724 M2441.43 335.734 Q2438.42 334.993 2436.73 332.933 Q2435.06 330.873 2435.06 327.91 Q2435.06 323.766 2438 321.359 Q2440.96 318.951 2446.1 318.951 Q2451.26 318.951 2454.2 321.359 Q2457.14 323.766 2457.14 327.91 Q2457.14 330.873 2455.45 332.933 Q2453.79 334.993 2450.8 335.734 Q2454.18 336.521 2456.06 338.812 Q2457.95 341.104 2457.95 344.414 Q2457.95 349.437 2454.88 352.122 Q2451.82 354.808 2446.1 354.808 Q2440.38 354.808 2437.31 352.122 Q2434.25 349.437 2434.25 344.414 Q2434.25 341.104 2436.15 338.812 Q2438.05 336.521 2441.43 335.734 M2439.71 328.349 Q2439.71 331.035 2441.38 332.539 Q2443.07 334.044 2446.1 334.044 Q2449.11 334.044 2450.8 332.539 Q2452.51 331.035 2452.51 328.349 Q2452.51 325.664 2450.8 324.16 Q2449.11 322.655 2446.1 322.655 Q2443.07 322.655 2441.38 324.16 Q2439.71 325.664 2439.71 328.349 Z" fill="#000000" fill-rule="nonzero" fill-opacity="1" /><path clip-path="url(#clip730)" d="M2476.26 322.655 Q2472.65 322.655 2470.82 326.22 Q2469.02 329.761 2469.02 336.891 Q2469.02 343.997 2470.82 347.562 Q2472.65 351.104 2476.26 351.104 Q2479.9 351.104 2481.7 347.562 Q2483.53 343.997 2483.53 336.891 Q2483.53 329.761 2481.7 326.22 Q2479.9 322.655 2476.26 322.655 M2476.26 318.951 Q2482.07 318.951 2485.13 323.558 Q2488.21 328.141 2488.21 336.891 Q2488.21 345.618 2485.13 350.224 Q2482.07 354.808 2476.26 354.808 Q2470.45 354.808 2467.38 350.224 Q2464.32 345.618 2464.32 336.891 Q2464.32 328.141 2467.38 323.558 Q2470.45 318.951 2476.26 318.951 Z" fill="#000000" fill-rule="nonzero" fill-opacity="1" /><path clip-path="url(#clip730)" d="M2496.43 348.257 L2501.31 348.257 L2501.31 354.136 L2496.43 354.136 L2496.43 348.257 Z" fill="#000000" fill-rule="nonzero" fill-opacity="1" /><path clip-path="url(#clip730)" d="M2521.5 322.655 Q2517.88 322.655 2516.06 326.22 Q2514.25 329.761 2514.25 336.891 Q2514.25 343.997 2516.06 347.562 Q2517.88 351.104 2521.5 351.104 Q2525.13 351.104 2526.94 347.562 Q2528.76 343.997 2528.76 336.891 Q2528.76 329.761 2526.94 326.22 Q2525.13 322.655 2521.5 322.655 M2521.5 318.951 Q2527.31 318.951 2530.36 323.558 Q2533.44 328.141 2533.44 336.891 Q2533.44 345.618 2530.36 350.224 Q2527.31 354.808 2521.5 354.808 Q2515.69 354.808 2512.61 350.224 Q2509.55 345.618 2509.55 336.891 Q2509.55 328.141 2512.61 323.558 Q2515.69 318.951 2521.5 318.951 Z" fill="#000000" fill-rule="nonzero" fill-opacity="1" /></svg>
