<?xml version="1.0" encoding="utf-8"?>
<svg xmlns="http://www.w3.org/2000/svg" xmlns:xlink="http://www.w3.org/1999/xlink" width="672" height="480" viewBox="0 0 2688 1920">
<defs>
  <clipPath id="clip790">
    <rect x="0" y="0" width="2688" height="1920"/>
  </clipPath>
</defs>
<path clip-path="url(#clip790)" d="M0 1920 L2688 1920 L2688 -4.26326e-14 L0 -4.26326e-14  Z" fill="#ffffff" fill-rule="evenodd" fill-opacity="1"/>
<defs>
  <clipPath id="clip791">
    <rect x="255" y="127" width="2386" height="1607"/>
  </clipPath>
</defs>
<path clip-path="url(#clip790)" d="M255.816 1734.12 L2640.76 1734.12 L2640.76 127.792 L255.816 127.792  Z" fill="#ffffff" fill-rule="evenodd" fill-opacity="1"/>
<polyline clip-path="url(#clip791)" style="stroke:#000000; stroke-linecap:round; stroke-linejoin:round; stroke-width:2; stroke-opacity:0.1; fill:none" points="323.315,1734.12 323.315,127.792 "/>
<polyline clip-path="url(#clip791)" style="stroke:#000000; stroke-linecap:round; stroke-linejoin:round; stroke-width:2; stroke-opacity:0.1; fill:none" points="885.8,1734.12 885.8,127.792 "/>
<polyline clip-path="url(#clip791)" style="stroke:#000000; stroke-linecap:round; stroke-linejoin:round; stroke-width:2; stroke-opacity:0.1; fill:none" points="1448.29,1734.12 1448.29,127.792 "/>
<polyline clip-path="url(#clip791)" style="stroke:#000000; stroke-linecap:round; stroke-linejoin:round; stroke-width:2; stroke-opacity:0.1; fill:none" points="2010.77,1734.12 2010.77,127.792 "/>
<polyline clip-path="url(#clip791)" style="stroke:#000000; stroke-linecap:round; stroke-linejoin:round; stroke-width:2; stroke-opacity:0.1; fill:none" points="2573.26,1734.12 2573.26,127.792 "/>
<polyline clip-path="url(#clip791)" style="stroke:#000000; stroke-linecap:round; stroke-linejoin:round; stroke-width:2; stroke-opacity:0.1; fill:none" points="255.816,1693.21 2640.76,1693.21 "/>
<polyline clip-path="url(#clip791)" style="stroke:#000000; stroke-linecap:round; stroke-linejoin:round; stroke-width:2; stroke-opacity:0.1; fill:none" points="255.816,1313.22 2640.76,1313.22 "/>
<polyline clip-path="url(#clip791)" style="stroke:#000000; stroke-linecap:round; stroke-linejoin:round; stroke-width:2; stroke-opacity:0.1; fill:none" points="255.816,933.234 2640.76,933.234 "/>
<polyline clip-path="url(#clip791)" style="stroke:#000000; stroke-linecap:round; stroke-linejoin:round; stroke-width:2; stroke-opacity:0.1; fill:none" points="255.816,553.244 2640.76,553.244 "/>
<polyline clip-path="url(#clip791)" style="stroke:#000000; stroke-linecap:round; stroke-linejoin:round; stroke-width:2; stroke-opacity:0.1; fill:none" points="255.816,173.254 2640.76,173.254 "/>
<polyline clip-path="url(#clip790)" style="stroke:#000000; stroke-linecap:round; stroke-linejoin:round; stroke-width:4; stroke-opacity:1; fill:none" points="255.816,1734.12 2640.76,1734.12 "/>
<polyline clip-path="url(#clip790)" style="stroke:#000000; stroke-linecap:round; stroke-linejoin:round; stroke-width:4; stroke-opacity:1; fill:none" points="323.315,1734.12 323.315,1715.22 "/>
<polyline clip-path="url(#clip790)" style="stroke:#000000; stroke-linecap:round; stroke-linejoin:round; stroke-width:4; stroke-opacity:1; fill:none" points="885.8,1734.12 885.8,1715.22 "/>
<polyline clip-path="url(#clip790)" style="stroke:#000000; stroke-linecap:round; stroke-linejoin:round; stroke-width:4; stroke-opacity:1; fill:none" points="1448.29,1734.12 1448.29,1715.22 "/>
<polyline clip-path="url(#clip790)" style="stroke:#000000; stroke-linecap:round; stroke-linejoin:round; stroke-width:4; stroke-opacity:1; fill:none" points="2010.77,1734.12 2010.77,1715.22 "/>
<polyline clip-path="url(#clip790)" style="stroke:#000000; stroke-linecap:round; stroke-linejoin:round; stroke-width:4; stroke-opacity:1; fill:none" points="2573.26,1734.12 2573.26,1715.22 "/>
<path clip-path="url(#clip790)" d="M323.315 1767.34 Q319.704 1767.34 317.875 1770.9 Q316.069 1774.45 316.069 1781.58 Q316.069 1788.68 317.875 1792.25 Q319.704 1795.79 323.315 1795.79 Q326.949 1795.79 328.754 1792.25 Q330.583 1788.68 330.583 1781.58 Q330.583 1774.45 328.754 1770.9 Q326.949 1767.34 323.315 1767.34 M323.315 1763.64 Q329.125 1763.64 332.18 1768.24 Q335.259 1772.83 335.259 1781.58 Q335.259 1790.3 332.18 1794.91 Q329.125 1799.49 323.315 1799.49 Q317.504 1799.49 314.426 1794.91 Q311.37 1790.3 311.37 1781.58 Q311.37 1772.83 314.426 1768.24 Q317.504 1763.64 323.315 1763.64 Z" fill="#000000" fill-rule="nonzero" fill-opacity="1" /><path clip-path="url(#clip790)" d="M860.488 1794.89 L868.127 1794.89 L868.127 1768.52 L859.817 1770.19 L859.817 1765.93 L868.081 1764.26 L872.756 1764.26 L872.756 1794.89 L880.395 1794.89 L880.395 1798.82 L860.488 1798.82 L860.488 1794.89 Z" fill="#000000" fill-rule="nonzero" fill-opacity="1" /><path clip-path="url(#clip790)" d="M899.84 1767.34 Q896.229 1767.34 894.4 1770.9 Q892.594 1774.45 892.594 1781.58 Q892.594 1788.68 894.4 1792.25 Q896.229 1795.79 899.84 1795.79 Q903.474 1795.79 905.279 1792.25 Q907.108 1788.68 907.108 1781.58 Q907.108 1774.45 905.279 1770.9 Q903.474 1767.34 899.84 1767.34 M899.84 1763.64 Q905.65 1763.64 908.705 1768.24 Q911.784 1772.83 911.784 1781.58 Q911.784 1790.3 908.705 1794.91 Q905.65 1799.49 899.84 1799.49 Q894.029 1799.49 890.951 1794.91 Q887.895 1790.3 887.895 1781.58 Q887.895 1772.83 890.951 1768.24 Q894.029 1763.64 899.84 1763.64 Z" fill="#000000" fill-rule="nonzero" fill-opacity="1" /><path clip-path="url(#clip790)" d="M1427.06 1794.89 L1443.38 1794.89 L1443.38 1798.82 L1421.43 1798.82 L1421.43 1794.89 Q1424.1 1792.13 1428.68 1787.5 Q1433.29 1782.85 1434.47 1781.51 Q1436.71 1778.98 1437.59 1777.25 Q1438.49 1775.49 1438.49 1773.8 Q1438.49 1771.04 1436.55 1769.31 Q1434.63 1767.57 1431.53 1767.57 Q1429.33 1767.57 1426.87 1768.34 Q1424.44 1769.1 1421.67 1770.65 L1421.67 1765.93 Q1424.49 1764.79 1426.94 1764.21 Q1429.4 1763.64 1431.43 1763.64 Q1436.8 1763.64 1440 1766.32 Q1443.19 1769.01 1443.19 1773.5 Q1443.19 1775.63 1442.38 1777.55 Q1441.6 1779.45 1439.49 1782.04 Q1438.91 1782.71 1435.81 1785.93 Q1432.71 1789.12 1427.06 1794.89 Z" fill="#000000" fill-rule="nonzero" fill-opacity="1" /><path clip-path="url(#clip790)" d="M1463.19 1767.34 Q1459.58 1767.34 1457.75 1770.9 Q1455.95 1774.45 1455.95 1781.58 Q1455.95 1788.68 1457.75 1792.25 Q1459.58 1795.79 1463.19 1795.79 Q1466.83 1795.79 1468.63 1792.25 Q1470.46 1788.68 1470.46 1781.58 Q1470.46 1774.45 1468.63 1770.9 Q1466.83 1767.34 1463.19 1767.34 M1463.19 1763.64 Q1469 1763.64 1472.06 1768.24 Q1475.14 1772.83 1475.14 1781.58 Q1475.14 1790.3 1472.06 1794.91 Q1469 1799.49 1463.19 1799.49 Q1457.38 1799.49 1454.3 1794.91 Q1451.25 1790.3 1451.25 1781.58 Q1451.25 1772.83 1454.3 1768.24 Q1457.38 1763.64 1463.19 1763.64 Z" fill="#000000" fill-rule="nonzero" fill-opacity="1" /><path clip-path="url(#clip790)" d="M1999.61 1780.19 Q2002.97 1780.9 2004.85 1783.17 Q2006.74 1785.44 2006.74 1788.77 Q2006.74 1793.89 2003.23 1796.69 Q1999.71 1799.49 1993.23 1799.49 Q1991.05 1799.49 1988.73 1799.05 Q1986.44 1798.64 1983.99 1797.78 L1983.99 1793.27 Q1985.93 1794.4 1988.25 1794.98 Q1990.56 1795.56 1993.09 1795.56 Q1997.48 1795.56 1999.78 1793.82 Q2002.09 1792.08 2002.09 1788.77 Q2002.09 1785.72 1999.94 1784.01 Q1997.81 1782.27 1993.99 1782.27 L1989.96 1782.27 L1989.96 1778.43 L1994.17 1778.43 Q1997.62 1778.43 1999.45 1777.06 Q2001.28 1775.67 2001.28 1773.08 Q2001.28 1770.42 1999.38 1769.01 Q1997.51 1767.57 1993.99 1767.57 Q1992.07 1767.57 1989.87 1767.99 Q1987.67 1768.4 1985.03 1769.28 L1985.03 1765.12 Q1987.69 1764.38 1990.01 1764.01 Q1992.35 1763.64 1994.41 1763.64 Q1999.73 1763.64 2002.83 1766.07 Q2005.93 1768.47 2005.93 1772.59 Q2005.93 1775.46 2004.29 1777.46 Q2002.65 1779.42 1999.61 1780.19 Z" fill="#000000" fill-rule="nonzero" fill-opacity="1" /><path clip-path="url(#clip790)" d="M2025.61 1767.34 Q2022 1767.34 2020.17 1770.9 Q2018.36 1774.45 2018.36 1781.58 Q2018.36 1788.68 2020.17 1792.25 Q2022 1795.79 2025.61 1795.79 Q2029.24 1795.79 2031.05 1792.25 Q2032.88 1788.68 2032.88 1781.58 Q2032.88 1774.45 2031.05 1770.9 Q2029.24 1767.34 2025.61 1767.34 M2025.61 1763.64 Q2031.42 1763.64 2034.48 1768.24 Q2037.55 1772.83 2037.55 1781.58 Q2037.55 1790.3 2034.48 1794.91 Q2031.42 1799.49 2025.61 1799.49 Q2019.8 1799.49 2016.72 1794.91 Q2013.67 1790.3 2013.67 1781.58 Q2013.67 1772.83 2016.72 1768.24 Q2019.8 1763.64 2025.61 1763.64 Z" fill="#000000" fill-rule="nonzero" fill-opacity="1" /><path clip-path="url(#clip790)" d="M2561.43 1768.34 L2549.62 1786.78 L2561.43 1786.78 L2561.43 1768.34 M2560.2 1764.26 L2566.08 1764.26 L2566.08 1786.78 L2571.01 1786.78 L2571.01 1790.67 L2566.08 1790.67 L2566.08 1798.82 L2561.43 1798.82 L2561.43 1790.67 L2545.83 1790.67 L2545.83 1786.16 L2560.2 1764.26 Z" fill="#000000" fill-rule="nonzero" fill-opacity="1" /><path clip-path="url(#clip790)" d="M2588.74 1767.34 Q2585.13 1767.34 2583.3 1770.9 Q2581.5 1774.45 2581.5 1781.58 Q2581.5 1788.68 2583.3 1792.25 Q2585.13 1795.79 2588.74 1795.79 Q2592.38 1795.79 2594.18 1792.25 Q2596.01 1788.68 2596.01 1781.58 Q2596.01 1774.45 2594.18 1770.9 Q2592.38 1767.34 2588.74 1767.34 M2588.74 1763.64 Q2594.55 1763.64 2597.61 1768.24 Q2600.69 1772.83 2600.69 1781.58 Q2600.69 1790.3 2597.61 1794.91 Q2594.55 1799.49 2588.74 1799.49 Q2582.93 1799.49 2579.85 1794.91 Q2576.8 1790.3 2576.8 1781.58 Q2576.8 1772.83 2579.85 1768.24 Q2582.93 1763.64 2588.74 1763.64 Z" fill="#000000" fill-rule="nonzero" fill-opacity="1" /><path clip-path="url(#clip790)" d="M1394.53 1841.06 L1394.53 1878.02 L1402.29 1878.02 Q1412.13 1878.02 1416.68 1873.56 Q1421.26 1869.11 1421.26 1859.49 Q1421.26 1849.94 1416.68 1845.52 Q1412.13 1841.06 1402.29 1841.06 L1394.53 1841.06 M1388.1 1835.78 L1401.31 1835.78 Q1415.12 1835.78 1421.58 1841.54 Q1428.04 1847.27 1428.04 1859.49 Q1428.04 1871.78 1421.55 1877.54 Q1415.06 1883.3 1401.31 1883.3 L1388.1 1883.3 L1388.1 1835.78 Z" fill="#000000" fill-rule="nonzero" fill-opacity="1" /><path clip-path="url(#clip790)" d="M1454.24 1865.38 Q1447.14 1865.38 1444.4 1867 Q1441.67 1868.63 1441.67 1872.54 Q1441.67 1875.66 1443.7 1877.51 Q1445.77 1879.32 1449.3 1879.32 Q1454.17 1879.32 1457.1 1875.88 Q1460.06 1872.42 1460.06 1866.69 L1460.06 1865.38 L1454.24 1865.38 M1465.92 1862.96 L1465.92 1883.3 L1460.06 1883.3 L1460.06 1877.89 Q1458.06 1881.14 1455.07 1882.7 Q1452.07 1884.22 1447.75 1884.22 Q1442.27 1884.22 1439.02 1881.17 Q1435.81 1878.08 1435.81 1872.92 Q1435.81 1866.91 1439.82 1863.85 Q1443.86 1860.8 1451.85 1860.8 L1460.06 1860.8 L1460.06 1860.23 Q1460.06 1856.18 1457.39 1853.99 Q1454.75 1851.76 1449.94 1851.76 Q1446.89 1851.76 1443.99 1852.49 Q1441.09 1853.22 1438.42 1854.69 L1438.42 1849.28 Q1441.63 1848.03 1444.66 1847.43 Q1447.68 1846.79 1450.55 1846.79 Q1458.28 1846.79 1462.1 1850.8 Q1465.92 1854.81 1465.92 1862.96 Z" fill="#000000" fill-rule="nonzero" fill-opacity="1" /><path clip-path="url(#clip790)" d="M1492.81 1886.61 Q1490.33 1892.98 1487.98 1894.92 Q1485.62 1896.86 1481.67 1896.86 L1477 1896.86 L1477 1891.96 L1480.43 1891.96 Q1482.85 1891.96 1484.19 1890.81 Q1485.53 1889.67 1487.15 1885.4 L1488.2 1882.73 L1473.78 1847.65 L1479.99 1847.65 L1491.13 1875.53 L1502.27 1847.65 L1508.47 1847.65 L1492.81 1886.61 Z" fill="#000000" fill-rule="nonzero" fill-opacity="1" /><polyline clip-path="url(#clip790)" style="stroke:#000000; stroke-linecap:round; stroke-linejoin:round; stroke-width:4; stroke-opacity:1; fill:none" points="255.816,1734.12 255.816,127.792 "/>
<polyline clip-path="url(#clip790)" style="stroke:#000000; stroke-linecap:round; stroke-linejoin:round; stroke-width:4; stroke-opacity:1; fill:none" points="255.816,1693.21 274.714,1693.21 "/>
<polyline clip-path="url(#clip790)" style="stroke:#000000; stroke-linecap:round; stroke-linejoin:round; stroke-width:4; stroke-opacity:1; fill:none" points="255.816,1313.22 274.714,1313.22 "/>
<polyline clip-path="url(#clip790)" style="stroke:#000000; stroke-linecap:round; stroke-linejoin:round; stroke-width:4; stroke-opacity:1; fill:none" points="255.816,933.234 274.714,933.234 "/>
<polyline clip-path="url(#clip790)" style="stroke:#000000; stroke-linecap:round; stroke-linejoin:round; stroke-width:4; stroke-opacity:1; fill:none" points="255.816,553.244 274.714,553.244 "/>
<polyline clip-path="url(#clip790)" style="stroke:#000000; stroke-linecap:round; stroke-linejoin:round; stroke-width:4; stroke-opacity:1; fill:none" points="255.816,173.254 274.714,173.254 "/>
<path clip-path="url(#clip790)" d="M128.159 1679.01 Q124.548 1679.01 122.719 1682.58 Q120.913 1686.12 120.913 1693.25 Q120.913 1700.36 122.719 1703.92 Q124.548 1707.46 128.159 1707.46 Q131.793 1707.46 133.599 1703.92 Q135.427 1700.36 135.427 1693.25 Q135.427 1686.12 133.599 1682.58 Q131.793 1679.01 128.159 1679.01 M128.159 1675.31 Q133.969 1675.31 137.025 1679.92 Q140.103 1684.5 140.103 1693.25 Q140.103 1701.98 137.025 1706.58 Q133.969 1711.17 128.159 1711.17 Q122.349 1711.17 119.27 1706.58 Q116.214 1701.98 116.214 1693.25 Q116.214 1684.5 119.27 1679.92 Q122.349 1675.31 128.159 1675.31 Z" fill="#000000" fill-rule="nonzero" fill-opacity="1" /><path clip-path="url(#clip790)" d="M148.321 1704.62 L153.205 1704.62 L153.205 1710.49 L148.321 1710.49 L148.321 1704.62 Z" fill="#000000" fill-rule="nonzero" fill-opacity="1" /><path clip-path="url(#clip790)" d="M173.39 1679.01 Q169.779 1679.01 167.95 1682.58 Q166.145 1686.12 166.145 1693.25 Q166.145 1700.36 167.95 1703.92 Q169.779 1707.46 173.39 1707.46 Q177.024 1707.46 178.83 1703.92 Q180.659 1700.36 180.659 1693.25 Q180.659 1686.12 178.83 1682.58 Q177.024 1679.01 173.39 1679.01 M173.39 1675.31 Q179.2 1675.31 182.256 1679.92 Q185.334 1684.5 185.334 1693.25 Q185.334 1701.98 182.256 1706.58 Q179.2 1711.17 173.39 1711.17 Q167.58 1711.17 164.501 1706.58 Q161.446 1701.98 161.446 1693.25 Q161.446 1684.5 164.501 1679.92 Q167.58 1675.31 173.39 1675.31 Z" fill="#000000" fill-rule="nonzero" fill-opacity="1" /><path clip-path="url(#clip790)" d="M203.552 1679.01 Q199.941 1679.01 198.112 1682.58 Q196.307 1686.12 196.307 1693.25 Q196.307 1700.36 198.112 1703.92 Q199.941 1707.46 203.552 1707.46 Q207.186 1707.46 208.992 1703.92 Q210.82 1700.36 210.82 1693.25 Q210.82 1686.12 208.992 1682.58 Q207.186 1679.01 203.552 1679.01 M203.552 1675.31 Q209.362 1675.31 212.418 1679.92 Q215.496 1684.5 215.496 1693.25 Q215.496 1701.98 212.418 1706.58 Q209.362 1711.17 203.552 1711.17 Q197.742 1711.17 194.663 1706.58 Q191.608 1701.98 191.608 1693.25 Q191.608 1684.5 194.663 1679.92 Q197.742 1675.31 203.552 1675.31 Z" fill="#000000" fill-rule="nonzero" fill-opacity="1" /><path clip-path="url(#clip790)" d="M129.154 1299.02 Q125.543 1299.02 123.714 1302.59 Q121.909 1306.13 121.909 1313.26 Q121.909 1320.37 123.714 1323.93 Q125.543 1327.47 129.154 1327.47 Q132.788 1327.47 134.594 1323.93 Q136.423 1320.37 136.423 1313.26 Q136.423 1306.13 134.594 1302.59 Q132.788 1299.02 129.154 1299.02 M129.154 1295.32 Q134.964 1295.32 138.02 1299.93 Q141.099 1304.51 141.099 1313.26 Q141.099 1321.99 138.02 1326.59 Q134.964 1331.18 129.154 1331.18 Q123.344 1331.18 120.265 1326.59 Q117.21 1321.99 117.21 1313.26 Q117.21 1304.51 120.265 1299.93 Q123.344 1295.32 129.154 1295.32 Z" fill="#000000" fill-rule="nonzero" fill-opacity="1" /><path clip-path="url(#clip790)" d="M149.316 1324.63 L154.2 1324.63 L154.2 1330.5 L149.316 1330.5 L149.316 1324.63 Z" fill="#000000" fill-rule="nonzero" fill-opacity="1" /><path clip-path="url(#clip790)" d="M168.413 1326.57 L184.733 1326.57 L184.733 1330.5 L162.788 1330.5 L162.788 1326.57 Q165.45 1323.81 170.034 1319.19 Q174.64 1314.53 175.821 1313.19 Q178.066 1310.67 178.946 1308.93 Q179.848 1307.17 179.848 1305.48 Q179.848 1302.73 177.904 1300.99 Q175.983 1299.25 172.881 1299.25 Q170.682 1299.25 168.228 1300.02 Q165.798 1300.78 163.02 1302.33 L163.02 1297.61 Q165.844 1296.48 168.297 1295.9 Q170.751 1295.32 172.788 1295.32 Q178.159 1295.32 181.353 1298 Q184.547 1300.69 184.547 1305.18 Q184.547 1307.31 183.737 1309.23 Q182.95 1311.13 180.844 1313.72 Q180.265 1314.39 177.163 1317.61 Q174.061 1320.81 168.413 1326.57 Z" fill="#000000" fill-rule="nonzero" fill-opacity="1" /><path clip-path="url(#clip790)" d="M194.594 1295.94 L212.95 1295.94 L212.95 1299.88 L198.876 1299.88 L198.876 1308.35 Q199.895 1308 200.913 1307.84 Q201.932 1307.66 202.95 1307.66 Q208.737 1307.66 212.117 1310.83 Q215.496 1314 215.496 1319.42 Q215.496 1325 212.024 1328.1 Q208.552 1331.18 202.233 1331.18 Q200.057 1331.18 197.788 1330.81 Q195.543 1330.44 193.135 1329.69 L193.135 1325 Q195.219 1326.13 197.441 1326.69 Q199.663 1327.24 202.14 1327.24 Q206.145 1327.24 208.482 1325.13 Q210.82 1323.03 210.82 1319.42 Q210.82 1315.81 208.482 1313.7 Q206.145 1311.59 202.14 1311.59 Q200.265 1311.59 198.39 1312.01 Q196.538 1312.43 194.594 1313.31 L194.594 1295.94 Z" fill="#000000" fill-rule="nonzero" fill-opacity="1" /><path clip-path="url(#clip790)" d="M128.159 919.033 Q124.548 919.033 122.719 922.598 Q120.913 926.14 120.913 933.269 Q120.913 940.376 122.719 943.94 Q124.548 947.482 128.159 947.482 Q131.793 947.482 133.599 943.94 Q135.427 940.376 135.427 933.269 Q135.427 926.14 133.599 922.598 Q131.793 919.033 128.159 919.033 M128.159 915.33 Q133.969 915.33 137.025 919.936 Q140.103 924.519 140.103 933.269 Q140.103 941.996 137.025 946.602 Q133.969 951.186 128.159 951.186 Q122.349 951.186 119.27 946.602 Q116.214 941.996 116.214 933.269 Q116.214 924.519 119.27 919.936 Q122.349 915.33 128.159 915.33 Z" fill="#000000" fill-rule="nonzero" fill-opacity="1" /><path clip-path="url(#clip790)" d="M148.321 944.635 L153.205 944.635 L153.205 950.514 L148.321 950.514 L148.321 944.635 Z" fill="#000000" fill-rule="nonzero" fill-opacity="1" /><path clip-path="url(#clip790)" d="M163.436 915.954 L181.793 915.954 L181.793 919.89 L167.719 919.89 L167.719 928.362 Q168.737 928.015 169.756 927.853 Q170.774 927.667 171.793 927.667 Q177.58 927.667 180.959 930.839 Q184.339 934.01 184.339 939.427 Q184.339 945.005 180.867 948.107 Q177.395 951.186 171.075 951.186 Q168.899 951.186 166.631 950.815 Q164.385 950.445 161.978 949.704 L161.978 945.005 Q164.061 946.14 166.284 946.695 Q168.506 947.251 170.983 947.251 Q174.987 947.251 177.325 945.144 Q179.663 943.038 179.663 939.427 Q179.663 935.816 177.325 933.709 Q174.987 931.603 170.983 931.603 Q169.108 931.603 167.233 932.019 Q165.381 932.436 163.436 933.316 L163.436 915.954 Z" fill="#000000" fill-rule="nonzero" fill-opacity="1" /><path clip-path="url(#clip790)" d="M203.552 919.033 Q199.941 919.033 198.112 922.598 Q196.307 926.14 196.307 933.269 Q196.307 940.376 198.112 943.94 Q199.941 947.482 203.552 947.482 Q207.186 947.482 208.992 943.94 Q210.82 940.376 210.82 933.269 Q210.82 926.14 208.992 922.598 Q207.186 919.033 203.552 919.033 M203.552 915.33 Q209.362 915.33 212.418 919.936 Q215.496 924.519 215.496 933.269 Q215.496 941.996 212.418 946.602 Q209.362 951.186 203.552 951.186 Q197.742 951.186 194.663 946.602 Q191.608 941.996 191.608 933.269 Q191.608 924.519 194.663 919.936 Q197.742 915.33 203.552 915.33 Z" fill="#000000" fill-rule="nonzero" fill-opacity="1" /><path clip-path="url(#clip790)" d="M129.154 539.043 Q125.543 539.043 123.714 542.608 Q121.909 546.149 121.909 553.279 Q121.909 560.385 123.714 563.95 Q125.543 567.492 129.154 567.492 Q132.788 567.492 134.594 563.95 Q136.423 560.385 136.423 553.279 Q136.423 546.149 134.594 542.608 Q132.788 539.043 129.154 539.043 M129.154 535.339 Q134.964 535.339 138.02 539.946 Q141.099 544.529 141.099 553.279 Q141.099 562.006 138.02 566.612 Q134.964 571.196 129.154 571.196 Q123.344 571.196 120.265 566.612 Q117.21 562.006 117.21 553.279 Q117.21 544.529 120.265 539.946 Q123.344 535.339 129.154 535.339 Z" fill="#000000" fill-rule="nonzero" fill-opacity="1" /><path clip-path="url(#clip790)" d="M149.316 564.645 L154.2 564.645 L154.2 570.524 L149.316 570.524 L149.316 564.645 Z" fill="#000000" fill-rule="nonzero" fill-opacity="1" /><path clip-path="url(#clip790)" d="M163.205 535.964 L185.427 535.964 L185.427 537.955 L172.881 570.524 L167.997 570.524 L179.802 539.899 L163.205 539.899 L163.205 535.964 Z" fill="#000000" fill-rule="nonzero" fill-opacity="1" /><path clip-path="url(#clip790)" d="M194.594 535.964 L212.95 535.964 L212.95 539.899 L198.876 539.899 L198.876 548.372 Q199.895 548.024 200.913 547.862 Q201.932 547.677 202.95 547.677 Q208.737 547.677 212.117 550.849 Q215.496 554.02 215.496 559.436 Q215.496 565.015 212.024 568.117 Q208.552 571.196 202.233 571.196 Q200.057 571.196 197.788 570.825 Q195.543 570.455 193.135 569.714 L193.135 565.015 Q195.219 566.149 197.441 566.705 Q199.663 567.26 202.14 567.26 Q206.145 567.26 208.482 565.154 Q210.82 563.048 210.82 559.436 Q210.82 555.825 208.482 553.719 Q206.145 551.612 202.14 551.612 Q200.265 551.612 198.39 552.029 Q196.538 552.446 194.594 553.325 L194.594 535.964 Z" fill="#000000" fill-rule="nonzero" fill-opacity="1" /><path clip-path="url(#clip790)" d="M118.969 186.599 L126.608 186.599 L126.608 160.233 L118.298 161.9 L118.298 157.641 L126.562 155.974 L131.238 155.974 L131.238 186.599 L138.876 186.599 L138.876 190.534 L118.969 190.534 L118.969 186.599 Z" fill="#000000" fill-rule="nonzero" fill-opacity="1" /><path clip-path="url(#clip790)" d="M148.321 184.655 L153.205 184.655 L153.205 190.534 L148.321 190.534 L148.321 184.655 Z" fill="#000000" fill-rule="nonzero" fill-opacity="1" /><path clip-path="url(#clip790)" d="M173.39 159.053 Q169.779 159.053 167.95 162.618 Q166.145 166.159 166.145 173.289 Q166.145 180.395 167.95 183.96 Q169.779 187.502 173.39 187.502 Q177.024 187.502 178.83 183.96 Q180.659 180.395 180.659 173.289 Q180.659 166.159 178.83 162.618 Q177.024 159.053 173.39 159.053 M173.39 155.349 Q179.2 155.349 182.256 159.956 Q185.334 164.539 185.334 173.289 Q185.334 182.016 182.256 186.622 Q179.2 191.205 173.39 191.205 Q167.58 191.205 164.501 186.622 Q161.446 182.016 161.446 173.289 Q161.446 164.539 164.501 159.956 Q167.58 155.349 173.39 155.349 Z" fill="#000000" fill-rule="nonzero" fill-opacity="1" /><path clip-path="url(#clip790)" d="M203.552 159.053 Q199.941 159.053 198.112 162.618 Q196.307 166.159 196.307 173.289 Q196.307 180.395 198.112 183.96 Q199.941 187.502 203.552 187.502 Q207.186 187.502 208.992 183.96 Q210.82 180.395 210.82 173.289 Q210.82 166.159 208.992 162.618 Q207.186 159.053 203.552 159.053 M203.552 155.349 Q209.362 155.349 212.418 159.956 Q215.496 164.539 215.496 173.289 Q215.496 182.016 212.418 186.622 Q209.362 191.205 203.552 191.205 Q197.742 191.205 194.663 186.622 Q191.608 182.016 191.608 173.289 Q191.608 164.539 194.663 159.956 Q197.742 155.349 203.552 155.349 Z" fill="#000000" fill-rule="nonzero" fill-opacity="1" /><path clip-path="url(#clip790)" d="M19.402 1098.4 L37.2578 1098.4 L37.2578 1090.32 Q37.2578 1085.83 34.9343 1083.38 Q32.6108 1080.93 28.314 1080.93 Q24.0489 1080.93 21.7255 1083.38 Q19.402 1085.83 19.402 1090.32 L19.402 1098.4 M14.1184 1104.83 L14.1184 1090.32 Q14.1184 1082.33 17.7469 1078.26 Q21.3435 1074.15 28.314 1074.15 Q35.3481 1074.15 38.9447 1078.26 Q42.5413 1082.33 42.5413 1090.32 L42.5413 1098.4 L61.6384 1098.4 L61.6384 1104.83 L14.1184 1104.83 Z" fill="#000000" fill-rule="nonzero" fill-opacity="1" /><path clip-path="url(#clip790)" d="M31.465 1046.27 Q30.8921 1047.26 30.6375 1048.43 Q30.351 1049.58 30.351 1050.98 Q30.351 1055.95 33.5975 1058.62 Q36.8122 1061.26 42.8596 1061.26 L61.6384 1061.26 L61.6384 1067.15 L25.9905 1067.15 L25.9905 1061.26 L31.5287 1061.26 Q28.2821 1059.41 26.7225 1056.45 Q25.1311 1053.49 25.1311 1049.26 Q25.1311 1048.66 25.2266 1047.92 Q25.2903 1047.19 25.4494 1046.3 L31.465 1046.27 Z" fill="#000000" fill-rule="nonzero" fill-opacity="1" /><path clip-path="url(#clip790)" d="M42.3504 1011.07 L45.2149 1011.07 L45.2149 1037.99 Q51.2623 1037.61 54.4452 1034.37 Q57.5962 1031.09 57.5962 1025.26 Q57.5962 1021.89 56.7687 1018.74 Q55.9411 1015.55 54.2861 1012.44 L59.8242 1012.44 Q61.161 1015.59 61.8612 1018.9 Q62.5615 1022.21 62.5615 1025.61 Q62.5615 1034.14 57.5962 1039.14 Q52.631 1044.1 44.1646 1044.1 Q35.4117 1044.1 30.2873 1039.39 Q25.1311 1034.65 25.1311 1026.63 Q25.1311 1019.44 29.7781 1015.27 Q34.3932 1011.07 42.3504 1011.07 M40.6316 1016.92 Q35.8255 1016.99 32.9609 1019.63 Q30.0964 1022.24 30.0964 1026.57 Q30.0964 1031.47 32.8654 1034.43 Q35.6345 1037.36 40.6634 1037.8 L40.6316 1016.92 Z" fill="#000000" fill-rule="nonzero" fill-opacity="1" /><path clip-path="url(#clip790)" d="M25.9905 1005.66 L25.9905 999.45 L55.9093 988.31 L25.9905 977.17 L25.9905 970.963 L61.6384 984.331 L61.6384 992.288 L25.9905 1005.66 Z" fill="#000000" fill-rule="nonzero" fill-opacity="1" /><path clip-path="url(#clip790)" d="M43.719 946.678 Q43.719 953.776 45.3422 956.513 Q46.9655 959.25 50.8804 959.25 Q53.9996 959.25 55.8457 957.213 Q57.6599 955.144 57.6599 951.611 Q57.6599 946.742 54.2224 943.813 Q50.7531 940.853 45.0239 940.853 L43.719 940.853 L43.719 946.678 M41.3 934.997 L61.6384 934.997 L61.6384 940.853 L56.2276 940.853 Q59.4741 942.858 61.0337 945.85 Q62.5615 948.842 62.5615 953.171 Q62.5615 958.645 59.5059 961.892 Q56.4186 965.107 51.2623 965.107 Q45.2467 965.107 42.1912 961.096 Q39.1357 957.054 39.1357 949.065 L39.1357 940.853 L38.5628 940.853 Q34.5205 940.853 32.3244 943.527 Q30.0964 946.169 30.0964 950.975 Q30.0964 954.03 30.8284 956.927 Q31.5605 959.823 33.0246 962.497 L27.6137 962.497 Q26.3724 959.282 25.7677 956.258 Q25.1311 953.235 25.1311 950.37 Q25.1311 942.636 29.1415 938.816 Q33.1519 934.997 41.3 934.997 Z" fill="#000000" fill-rule="nonzero" fill-opacity="1" /><path clip-path="url(#clip790)" d="M12.1132 922.934 L12.1132 917.077 L61.6384 917.077 L61.6384 922.934 L12.1132 922.934 Z" fill="#000000" fill-rule="nonzero" fill-opacity="1" /><path clip-path="url(#clip790)" d="M42.3504 874.332 L45.2149 874.332 L45.2149 901.259 Q51.2623 900.877 54.4452 897.63 Q57.5962 894.352 57.5962 888.527 Q57.5962 885.153 56.7687 882.002 Q55.9411 878.819 54.2861 875.7 L59.8242 875.7 Q61.161 878.851 61.8612 882.161 Q62.5615 885.472 62.5615 888.877 Q62.5615 897.407 57.5962 902.404 Q52.631 907.37 44.1646 907.37 Q35.4117 907.37 30.2873 902.659 Q25.1311 897.917 25.1311 889.896 Q25.1311 882.702 29.7781 878.533 Q34.3932 874.332 42.3504 874.332 M40.6316 880.188 Q35.8255 880.252 32.9609 882.893 Q30.0964 885.503 30.0964 889.832 Q30.0964 894.734 32.8654 897.694 Q35.6345 900.622 40.6634 901.068 L40.6316 880.188 Z" fill="#000000" fill-rule="nonzero" fill-opacity="1" /><path clip-path="url(#clip790)" d="M40.1224 835.087 L61.6384 835.087 L61.6384 840.943 L40.3133 840.943 Q35.2526 840.943 32.7381 842.917 Q30.2237 844.89 30.2237 848.837 Q30.2237 853.579 33.2474 856.317 Q36.2711 859.054 41.491 859.054 L61.6384 859.054 L61.6384 864.942 L25.9905 864.942 L25.9905 859.054 L31.5287 859.054 Q28.314 856.953 26.7225 854.12 Q25.1311 851.256 25.1311 847.532 Q25.1311 841.389 28.9505 838.238 Q32.7381 835.087 40.1224 835.087 Z" fill="#000000" fill-rule="nonzero" fill-opacity="1" /><path clip-path="url(#clip790)" d="M27.3591 797.752 L32.8336 797.752 Q31.465 800.235 30.7966 802.749 Q30.0964 805.232 30.0964 807.778 Q30.0964 813.475 33.7248 816.626 Q37.3214 819.777 43.8463 819.777 Q50.3711 819.777 53.9996 816.626 Q57.5962 813.475 57.5962 807.778 Q57.5962 805.232 56.9278 802.749 Q56.2276 800.235 54.859 797.752 L60.2698 797.752 Q61.4156 800.203 61.9886 802.845 Q62.5615 805.455 62.5615 808.415 Q62.5615 816.467 57.5007 821.21 Q52.44 825.952 43.8463 825.952 Q35.1253 825.952 30.1282 821.178 Q25.1311 816.372 25.1311 808.033 Q25.1311 805.327 25.704 802.749 Q26.2451 800.171 27.3591 797.752 Z" fill="#000000" fill-rule="nonzero" fill-opacity="1" /><path clip-path="url(#clip790)" d="M42.3504 757.075 L45.2149 757.075 L45.2149 784.002 Q51.2623 783.62 54.4452 780.374 Q57.5962 777.095 57.5962 771.271 Q57.5962 767.897 56.7687 764.746 Q55.9411 761.563 54.2861 758.444 L59.8242 758.444 Q61.161 761.595 61.8612 764.905 Q62.5615 768.215 62.5615 771.621 Q62.5615 780.151 57.5962 785.148 Q52.631 790.113 44.1646 790.113 Q35.4117 790.113 30.2873 785.403 Q25.1311 780.66 25.1311 772.639 Q25.1311 765.446 29.7781 761.277 Q34.3932 757.075 42.3504 757.075 M40.6316 762.932 Q35.8255 762.995 32.9609 765.637 Q30.0964 768.247 30.0964 772.576 Q30.0964 777.477 32.8654 780.437 Q35.6345 783.366 40.6634 783.811 L40.6316 762.932 Z" fill="#000000" fill-rule="nonzero" fill-opacity="1" /><path clip-path="url(#clip790)" d="M492.961 12.096 L544.124 12.096 L544.124 18.9825 L522.654 18.9825 L522.654 72.576 L514.431 72.576 L514.431 18.9825 L492.961 18.9825 L492.961 12.096 Z" fill="#000000" fill-rule="nonzero" fill-opacity="1" /><path clip-path="url(#clip790)" d="M533.632 27.2059 L541.086 27.2059 L550.403 62.6108 L559.68 27.2059 L568.47 27.2059 L577.787 62.6108 L587.064 27.2059 L594.518 27.2059 L582.648 72.576 L573.858 72.576 L564.095 35.3887 L554.292 72.576 L545.502 72.576 L533.632 27.2059 Z" fill="#000000" fill-rule="nonzero" fill-opacity="1" /><path clip-path="url(#clip790)" d="M623.4 32.4315 Q617.405 32.4315 613.921 37.1306 Q610.438 41.7891 610.438 49.9314 Q610.438 58.0738 613.881 62.7728 Q617.365 67.4314 623.4 67.4314 Q629.355 67.4314 632.839 62.7323 Q636.323 58.0333 636.323 49.9314 Q636.323 41.8701 632.839 37.1711 Q629.355 32.4315 623.4 32.4315 M623.4 26.1121 Q633.123 26.1121 638.672 32.4315 Q644.222 38.7509 644.222 49.9314 Q644.222 61.0714 638.672 67.4314 Q633.123 73.7508 623.4 73.7508 Q613.638 73.7508 608.088 67.4314 Q602.579 61.0714 602.579 49.9314 Q602.579 38.7509 608.088 32.4315 Q613.638 26.1121 623.4 26.1121 Z" fill="#000000" fill-rule="nonzero" fill-opacity="1" /><path clip-path="url(#clip790)" d="M691.456 18.8205 L691.456 65.8515 L701.34 65.8515 Q713.857 65.8515 719.65 60.1802 Q725.483 54.509 725.483 42.2752 Q725.483 30.1225 719.65 24.4918 Q713.857 18.8205 701.34 18.8205 L691.456 18.8205 M683.273 12.096 L700.084 12.096 Q717.665 12.096 725.888 19.4281 Q734.112 26.7198 734.112 42.2752 Q734.112 57.9117 725.848 65.2439 Q717.584 72.576 700.084 72.576 L683.273 72.576 L683.273 12.096 Z" fill="#000000" fill-rule="nonzero" fill-opacity="1" /><path clip-path="url(#clip790)" d="M746.832 27.2059 L754.285 27.2059 L754.285 72.576 L746.832 72.576 L746.832 27.2059 M746.832 9.54393 L754.285 9.54393 L754.285 18.9825 L746.832 18.9825 L746.832 9.54393 Z" fill="#000000" fill-rule="nonzero" fill-opacity="1" /><path clip-path="url(#clip790)" d="M798.805 28.5427 L798.805 35.5912 Q795.645 33.9709 792.242 33.1607 Q788.839 32.3505 785.194 32.3505 Q779.644 32.3505 776.849 34.0519 Q774.094 35.7533 774.094 39.156 Q774.094 41.7486 776.079 43.2475 Q778.064 44.7058 784.059 46.0426 L786.611 46.6097 Q794.551 48.3111 797.873 51.4303 Q801.235 54.509 801.235 60.0587 Q801.235 66.3781 796.212 70.0644 Q791.229 73.7508 782.479 73.7508 Q778.834 73.7508 774.864 73.0216 Q770.934 72.3329 766.559 70.9151 L766.559 63.2184 Q770.691 65.3654 774.702 66.4591 Q778.712 67.5124 782.642 67.5124 Q787.908 67.5124 790.743 65.73 Q793.579 63.9071 793.579 60.6258 Q793.579 57.5877 791.513 55.9673 Q789.488 54.3469 782.561 52.8481 L779.968 52.2405 Q773.041 50.7821 769.962 47.7845 Q766.884 44.7463 766.884 39.4801 Q766.884 33.0797 771.421 29.5959 Q775.958 26.1121 784.302 26.1121 Q788.434 26.1121 792.08 26.7198 Q795.726 27.3274 798.805 28.5427 Z" fill="#000000" fill-rule="nonzero" fill-opacity="1" /><path clip-path="url(#clip790)" d="M851.912 48.0275 L851.912 51.6733 L817.641 51.6733 Q818.127 59.3701 822.259 63.421 Q826.432 67.4314 833.845 67.4314 Q838.139 67.4314 842.149 66.3781 Q846.2 65.3249 850.17 63.2184 L850.17 70.267 Q846.16 71.9684 841.947 72.8596 Q837.734 73.7508 833.399 73.7508 Q822.543 73.7508 816.183 67.4314 Q809.864 61.1119 809.864 50.3365 Q809.864 39.1965 815.859 32.6746 Q821.895 26.1121 832.103 26.1121 Q841.258 26.1121 846.565 32.0264 Q851.912 37.9003 851.912 48.0275 M844.458 45.84 Q844.377 39.7232 841.015 36.0774 Q837.693 32.4315 832.184 32.4315 Q825.946 32.4315 822.178 35.9558 Q818.452 39.4801 817.884 45.8805 L844.458 45.84 Z" fill="#000000" fill-rule="nonzero" fill-opacity="1" /><path clip-path="url(#clip790)" d="M884.765 49.7694 Q875.731 49.7694 872.248 51.8354 Q868.764 53.9013 868.764 58.8839 Q868.764 62.8538 871.356 65.2034 Q873.989 67.5124 878.486 67.5124 Q884.684 67.5124 888.411 63.1374 Q892.178 58.7219 892.178 51.4303 L892.178 49.7694 L884.765 49.7694 M899.632 46.6907 L899.632 72.576 L892.178 72.576 L892.178 65.6895 Q889.626 69.8214 885.818 71.8063 Q882.01 73.7508 876.501 73.7508 Q869.533 73.7508 865.402 69.8619 Q861.31 65.9325 861.31 59.3701 Q861.31 51.7138 866.414 47.825 Q871.559 43.9361 881.727 43.9361 L892.178 43.9361 L892.178 43.2069 Q892.178 38.0623 888.775 35.2672 Q885.413 32.4315 879.296 32.4315 Q875.407 32.4315 871.721 33.3632 Q868.035 34.295 864.632 36.1584 L864.632 29.2718 Q868.723 27.692 872.572 26.9223 Q876.42 26.1121 880.066 26.1121 Q889.909 26.1121 894.771 31.2163 Q899.632 36.3204 899.632 46.6907 Z" fill="#000000" fill-rule="nonzero" fill-opacity="1" /><path clip-path="url(#clip790)" d="M943.908 28.5427 L943.908 35.5912 Q940.748 33.9709 937.346 33.1607 Q933.943 32.3505 930.297 32.3505 Q924.747 32.3505 921.952 34.0519 Q919.198 35.7533 919.198 39.156 Q919.198 41.7486 921.182 43.2475 Q923.167 44.7058 929.163 46.0426 L931.715 46.6097 Q939.655 48.3111 942.976 51.4303 Q946.339 54.509 946.339 60.0587 Q946.339 66.3781 941.315 70.0644 Q936.333 73.7508 927.583 73.7508 Q923.937 73.7508 919.967 73.0216 Q916.038 72.3329 911.663 70.9151 L911.663 63.2184 Q915.795 65.3654 919.805 66.4591 Q923.816 67.5124 927.745 67.5124 Q933.011 67.5124 935.847 65.73 Q938.682 63.9071 938.682 60.6258 Q938.682 57.5877 936.616 55.9673 Q934.591 54.3469 927.664 52.8481 L925.071 52.2405 Q918.144 50.7821 915.066 47.7845 Q911.987 44.7463 911.987 39.4801 Q911.987 33.0797 916.524 29.5959 Q921.061 26.1121 929.406 26.1121 Q933.538 26.1121 937.184 26.7198 Q940.829 27.3274 943.908 28.5427 Z" fill="#000000" fill-rule="nonzero" fill-opacity="1" /><path clip-path="url(#clip790)" d="M997.015 48.0275 L997.015 51.6733 L962.745 51.6733 Q963.231 59.3701 967.363 63.421 Q971.535 67.4314 978.948 67.4314 Q983.242 67.4314 987.253 66.3781 Q991.304 65.3249 995.273 63.2184 L995.273 70.267 Q991.263 71.9684 987.05 72.8596 Q982.837 73.7508 978.503 73.7508 Q967.646 73.7508 961.286 67.4314 Q954.967 61.1119 954.967 50.3365 Q954.967 39.1965 960.962 32.6746 Q966.998 26.1121 977.206 26.1121 Q986.362 26.1121 991.668 32.0264 Q997.015 37.9003 997.015 48.0275 M989.562 45.84 Q989.481 39.7232 986.118 36.0774 Q982.797 32.4315 977.287 32.4315 Q971.049 32.4315 967.282 35.9558 Q963.555 39.4801 962.988 45.8805 L989.562 45.84 Z" fill="#000000" fill-rule="nonzero" fill-opacity="1" /><path clip-path="url(#clip790)" d="M1038.17 28.5427 L1038.17 35.5912 Q1035.01 33.9709 1031.61 33.1607 Q1028.21 32.3505 1024.56 32.3505 Q1019.01 32.3505 1016.22 34.0519 Q1013.46 35.7533 1013.46 39.156 Q1013.46 41.7486 1015.45 43.2475 Q1017.43 44.7058 1023.43 46.0426 L1025.98 46.6097 Q1033.92 48.3111 1037.24 51.4303 Q1040.6 54.509 1040.6 60.0587 Q1040.6 66.3781 1035.58 70.0644 Q1030.6 73.7508 1021.85 73.7508 Q1018.2 73.7508 1014.23 73.0216 Q1010.3 72.3329 1005.93 70.9151 L1005.93 63.2184 Q1010.06 65.3654 1014.07 66.4591 Q1018.08 67.5124 1022.01 67.5124 Q1027.28 67.5124 1030.11 65.73 Q1032.95 63.9071 1032.95 60.6258 Q1032.95 57.5877 1030.88 55.9673 Q1028.86 54.3469 1021.93 52.8481 L1019.34 52.2405 Q1012.41 50.7821 1009.33 47.7845 Q1006.25 44.7463 1006.25 39.4801 Q1006.25 33.0797 1010.79 29.5959 Q1015.33 26.1121 1023.67 26.1121 Q1027.8 26.1121 1031.45 26.7198 Q1035.09 27.3274 1038.17 28.5427 Z" fill="#000000" fill-rule="nonzero" fill-opacity="1" /><path clip-path="url(#clip790)" d="M1074.51 27.2059 L1081.96 27.2059 L1091.28 62.6108 L1100.56 27.2059 L1109.35 27.2059 L1118.66 62.6108 L1127.94 27.2059 L1135.39 27.2059 L1123.53 72.576 L1114.73 72.576 L1104.97 35.3887 L1095.17 72.576 L1086.38 72.576 L1074.51 27.2059 Z" fill="#000000" fill-rule="nonzero" fill-opacity="1" /><path clip-path="url(#clip790)" d="M1146.7 27.2059 L1154.15 27.2059 L1154.15 72.576 L1146.7 72.576 L1146.7 27.2059 M1146.7 9.54393 L1154.15 9.54393 L1154.15 18.9825 L1146.7 18.9825 L1146.7 9.54393 Z" fill="#000000" fill-rule="nonzero" fill-opacity="1" /><path clip-path="url(#clip790)" d="M1177.12 14.324 L1177.12 27.2059 L1192.47 27.2059 L1192.47 32.9987 L1177.12 32.9987 L1177.12 57.6282 Q1177.12 63.1779 1178.62 64.7578 Q1180.16 66.3376 1184.82 66.3376 L1192.47 66.3376 L1192.47 72.576 L1184.82 72.576 Q1176.19 72.576 1172.91 69.3758 Q1169.62 66.1351 1169.62 57.6282 L1169.62 32.9987 L1164.16 32.9987 L1164.16 27.2059 L1169.62 27.2059 L1169.62 14.324 L1177.12 14.324 Z" fill="#000000" fill-rule="nonzero" fill-opacity="1" /><path clip-path="url(#clip790)" d="M1239.99 45.1919 L1239.99 72.576 L1232.53 72.576 L1232.53 45.4349 Q1232.53 38.994 1230.02 35.7938 Q1227.51 32.5936 1222.49 32.5936 Q1216.45 32.5936 1212.97 36.4419 Q1209.49 40.2903 1209.49 46.9338 L1209.49 72.576 L1201.99 72.576 L1201.99 9.54393 L1209.49 9.54393 L1209.49 34.2544 Q1212.16 30.163 1215.76 28.1376 Q1219.41 26.1121 1224.15 26.1121 Q1231.97 26.1121 1235.98 30.9732 Q1239.99 35.7938 1239.99 45.1919 Z" fill="#000000" fill-rule="nonzero" fill-opacity="1" /><path clip-path="url(#clip790)" d="M1289.73 18.8205 L1289.73 65.8515 L1299.62 65.8515 Q1312.14 65.8515 1317.93 60.1802 Q1323.76 54.509 1323.76 42.2752 Q1323.76 30.1225 1317.93 24.4918 Q1312.14 18.8205 1299.62 18.8205 L1289.73 18.8205 M1281.55 12.096 L1298.36 12.096 Q1315.94 12.096 1324.17 19.4281 Q1332.39 26.7198 1332.39 42.2752 Q1332.39 57.9117 1324.13 65.2439 Q1315.86 72.576 1298.36 72.576 L1281.55 72.576 L1281.55 12.096 Z" fill="#000000" fill-rule="nonzero" fill-opacity="1" /><path clip-path="url(#clip790)" d="M1345.11 27.2059 L1352.56 27.2059 L1352.56 72.576 L1345.11 72.576 L1345.11 27.2059 M1345.11 9.54393 L1352.56 9.54393 L1352.56 18.9825 L1345.11 18.9825 L1345.11 9.54393 Z" fill="#000000" fill-rule="nonzero" fill-opacity="1" /><path clip-path="url(#clip790)" d="M1391.13 9.54393 L1391.13 15.7418 L1384 15.7418 Q1379.99 15.7418 1378.41 17.3622 Q1376.87 18.9825 1376.87 23.1955 L1376.87 27.2059 L1389.14 27.2059 L1389.14 32.9987 L1376.87 32.9987 L1376.87 72.576 L1369.37 72.576 L1369.37 32.9987 L1362.24 32.9987 L1362.24 27.2059 L1369.37 27.2059 L1369.37 24.0462 Q1369.37 16.471 1372.9 13.0277 Q1376.42 9.54393 1384.08 9.54393 L1391.13 9.54393 Z" fill="#000000" fill-rule="nonzero" fill-opacity="1" /><path clip-path="url(#clip790)" d="M1420.33 9.54393 L1420.33 15.7418 L1413.21 15.7418 Q1409.19 15.7418 1407.62 17.3622 Q1406.08 18.9825 1406.08 23.1955 L1406.08 27.2059 L1418.35 27.2059 L1418.35 32.9987 L1406.08 32.9987 L1406.08 72.576 L1398.58 72.576 L1398.58 32.9987 L1391.45 32.9987 L1391.45 27.2059 L1398.58 27.2059 L1398.58 24.0462 Q1398.58 16.471 1402.11 13.0277 Q1405.63 9.54393 1413.29 9.54393 L1420.33 9.54393 Z" fill="#000000" fill-rule="nonzero" fill-opacity="1" /><path clip-path="url(#clip790)" d="M1465.38 48.0275 L1465.38 51.6733 L1431.11 51.6733 Q1431.6 59.3701 1435.73 63.421 Q1439.9 67.4314 1447.31 67.4314 Q1451.61 67.4314 1455.62 66.3781 Q1459.67 65.3249 1463.64 63.2184 L1463.64 70.267 Q1459.63 71.9684 1455.42 72.8596 Q1451.2 73.7508 1446.87 73.7508 Q1436.01 73.7508 1429.65 67.4314 Q1423.33 61.1119 1423.33 50.3365 Q1423.33 39.1965 1429.33 32.6746 Q1435.36 26.1121 1445.57 26.1121 Q1454.73 26.1121 1460.03 32.0264 Q1465.38 37.9003 1465.38 48.0275 M1457.93 45.84 Q1457.85 39.7232 1454.48 36.0774 Q1451.16 32.4315 1445.65 32.4315 Q1439.41 32.4315 1435.65 35.9558 Q1431.92 39.4801 1431.35 45.8805 L1457.93 45.84 Z" fill="#000000" fill-rule="nonzero" fill-opacity="1" /><path clip-path="url(#clip790)" d="M1503.91 34.1734 Q1502.65 33.4443 1501.15 33.1202 Q1499.69 32.7556 1497.91 32.7556 Q1491.59 32.7556 1488.19 36.8875 Q1484.83 40.9789 1484.83 48.6757 L1484.83 72.576 L1477.33 72.576 L1477.33 27.2059 L1484.83 27.2059 L1484.83 34.2544 Q1487.17 30.1225 1490.94 28.1376 Q1494.71 26.1121 1500.1 26.1121 Q1500.87 26.1121 1501.8 26.2337 Q1502.73 26.3147 1503.86 26.5172 L1503.91 34.1734 Z" fill="#000000" fill-rule="nonzero" fill-opacity="1" /><path clip-path="url(#clip790)" d="M1548.71 48.0275 L1548.71 51.6733 L1514.44 51.6733 Q1514.92 59.3701 1519.06 63.421 Q1523.23 67.4314 1530.64 67.4314 Q1534.93 67.4314 1538.95 66.3781 Q1543 65.3249 1546.97 63.2184 L1546.97 70.267 Q1542.96 71.9684 1538.74 72.8596 Q1534.53 73.7508 1530.2 73.7508 Q1519.34 73.7508 1512.98 67.4314 Q1506.66 61.1119 1506.66 50.3365 Q1506.66 39.1965 1512.65 32.6746 Q1518.69 26.1121 1528.9 26.1121 Q1538.05 26.1121 1543.36 32.0264 Q1548.71 37.9003 1548.71 48.0275 M1541.25 45.84 Q1541.17 39.7232 1537.81 36.0774 Q1534.49 32.4315 1528.98 32.4315 Q1522.74 32.4315 1518.97 35.9558 Q1515.25 39.4801 1514.68 45.8805 L1541.25 45.84 Z" fill="#000000" fill-rule="nonzero" fill-opacity="1" /><path clip-path="url(#clip790)" d="M1598.66 45.1919 L1598.66 72.576 L1591.2 72.576 L1591.2 45.4349 Q1591.2 38.994 1588.69 35.7938 Q1586.18 32.5936 1581.16 32.5936 Q1575.12 32.5936 1571.64 36.4419 Q1568.15 40.2903 1568.15 46.9338 L1568.15 72.576 L1560.66 72.576 L1560.66 27.2059 L1568.15 27.2059 L1568.15 34.2544 Q1570.83 30.163 1574.43 28.1376 Q1578.08 26.1121 1582.82 26.1121 Q1590.63 26.1121 1594.65 30.9732 Q1598.66 35.7938 1598.66 45.1919 Z" fill="#000000" fill-rule="nonzero" fill-opacity="1" /><path clip-path="url(#clip790)" d="M1620.9 14.324 L1620.9 27.2059 L1636.25 27.2059 L1636.25 32.9987 L1620.9 32.9987 L1620.9 57.6282 Q1620.9 63.1779 1622.39 64.7578 Q1623.93 66.3376 1628.59 66.3376 L1636.25 66.3376 L1636.25 72.576 L1628.59 72.576 Q1619.96 72.576 1616.68 69.3758 Q1613.4 66.1351 1613.4 57.6282 L1613.4 32.9987 L1607.93 32.9987 L1607.93 27.2059 L1613.4 27.2059 L1613.4 14.324 L1620.9 14.324 Z" fill="#000000" fill-rule="nonzero" fill-opacity="1" /><path clip-path="url(#clip790)" d="M1709 14.0809 L1709 22.0612 Q1704.34 19.8332 1700.21 18.7395 Q1696.08 17.6457 1692.23 17.6457 Q1685.55 17.6457 1681.9 20.2383 Q1678.3 22.8309 1678.3 27.611 Q1678.3 31.6214 1680.69 33.6873 Q1683.12 35.7128 1689.84 36.9686 L1694.78 37.9813 Q1703.94 39.7232 1708.27 44.1387 Q1712.65 48.5136 1712.65 55.8863 Q1712.65 64.6767 1706.73 69.2137 Q1700.86 73.7508 1689.48 73.7508 Q1685.18 73.7508 1680.32 72.7785 Q1675.5 71.8063 1670.32 69.9024 L1670.32 61.4765 Q1675.3 64.2716 1680.08 65.6895 Q1684.86 67.1073 1689.48 67.1073 Q1696.49 67.1073 1700.29 64.3527 Q1704.1 61.598 1704.1 56.4939 Q1704.1 52.0379 1701.35 49.5264 Q1698.63 47.0148 1692.39 45.759 L1687.41 44.7868 Q1678.26 42.9639 1674.16 39.075 Q1670.07 35.1862 1670.07 28.2591 Q1670.07 20.2383 1675.7 15.6203 Q1681.38 11.0023 1691.3 11.0023 Q1695.55 11.0023 1699.97 11.7719 Q1704.38 12.5416 1709 14.0809 Z" fill="#000000" fill-rule="nonzero" fill-opacity="1" /><path clip-path="url(#clip790)" d="M1763.89 48.0275 L1763.89 51.6733 L1729.62 51.6733 Q1730.11 59.3701 1734.24 63.421 Q1738.41 67.4314 1745.83 67.4314 Q1750.12 67.4314 1754.13 66.3781 Q1758.18 65.3249 1762.15 63.2184 L1762.15 70.267 Q1758.14 71.9684 1753.93 72.8596 Q1749.71 73.7508 1745.38 73.7508 Q1734.52 73.7508 1728.16 67.4314 Q1721.84 61.1119 1721.84 50.3365 Q1721.84 39.1965 1727.84 32.6746 Q1733.87 26.1121 1744.08 26.1121 Q1753.24 26.1121 1758.54 32.0264 Q1763.89 37.9003 1763.89 48.0275 M1756.44 45.84 Q1756.36 39.7232 1753 36.0774 Q1749.67 32.4315 1744.16 32.4315 Q1737.93 32.4315 1734.16 35.9558 Q1730.43 39.4801 1729.86 45.8805 L1756.44 45.84 Z" fill="#000000" fill-rule="nonzero" fill-opacity="1" /><path clip-path="url(#clip790)" d="M1796.74 49.7694 Q1787.71 49.7694 1784.23 51.8354 Q1780.74 53.9013 1780.74 58.8839 Q1780.74 62.8538 1783.34 65.2034 Q1785.97 67.5124 1790.47 67.5124 Q1796.66 67.5124 1800.39 63.1374 Q1804.16 58.7219 1804.16 51.4303 L1804.16 49.7694 L1796.74 49.7694 M1811.61 46.6907 L1811.61 72.576 L1804.16 72.576 L1804.16 65.6895 Q1801.61 69.8214 1797.8 71.8063 Q1793.99 73.7508 1788.48 73.7508 Q1781.51 73.7508 1777.38 69.8619 Q1773.29 65.9325 1773.29 59.3701 Q1773.29 51.7138 1778.39 47.825 Q1783.54 43.9361 1793.71 43.9361 L1804.16 43.9361 L1804.16 43.2069 Q1804.16 38.0623 1800.76 35.2672 Q1797.39 32.4315 1791.28 32.4315 Q1787.39 32.4315 1783.7 33.3632 Q1780.01 34.295 1776.61 36.1584 L1776.61 29.2718 Q1780.7 27.692 1784.55 26.9223 Q1788.4 26.1121 1792.05 26.1121 Q1801.89 26.1121 1806.75 31.2163 Q1811.61 36.3204 1811.61 46.6907 Z" fill="#000000" fill-rule="nonzero" fill-opacity="1" /><path clip-path="url(#clip790)" d="M1855.89 28.5427 L1855.89 35.5912 Q1852.73 33.9709 1849.33 33.1607 Q1845.92 32.3505 1842.28 32.3505 Q1836.73 32.3505 1833.93 34.0519 Q1831.18 35.7533 1831.18 39.156 Q1831.18 41.7486 1833.16 43.2475 Q1835.15 44.7058 1841.14 46.0426 L1843.69 46.6097 Q1851.63 48.3111 1854.96 51.4303 Q1858.32 54.509 1858.32 60.0587 Q1858.32 66.3781 1853.3 70.0644 Q1848.31 73.7508 1839.56 73.7508 Q1835.92 73.7508 1831.95 73.0216 Q1828.02 72.3329 1823.64 70.9151 L1823.64 63.2184 Q1827.77 65.3654 1831.79 66.4591 Q1835.8 67.5124 1839.72 67.5124 Q1844.99 67.5124 1847.83 65.73 Q1850.66 63.9071 1850.66 60.6258 Q1850.66 57.5877 1848.6 55.9673 Q1846.57 54.3469 1839.64 52.8481 L1837.05 52.2405 Q1830.12 50.7821 1827.05 47.7845 Q1823.97 44.7463 1823.97 39.4801 Q1823.97 33.0797 1828.5 29.5959 Q1833.04 26.1121 1841.39 26.1121 Q1845.52 26.1121 1849.16 26.7198 Q1852.81 27.3274 1855.89 28.5427 Z" fill="#000000" fill-rule="nonzero" fill-opacity="1" /><path clip-path="url(#clip790)" d="M1887.77 32.4315 Q1881.77 32.4315 1878.29 37.1306 Q1874.81 41.7891 1874.81 49.9314 Q1874.81 58.0738 1878.25 62.7728 Q1881.73 67.4314 1887.77 67.4314 Q1893.72 67.4314 1897.21 62.7323 Q1900.69 58.0333 1900.69 49.9314 Q1900.69 41.8701 1897.21 37.1711 Q1893.72 32.4315 1887.77 32.4315 M1887.77 26.1121 Q1897.49 26.1121 1903.04 32.4315 Q1908.59 38.7509 1908.59 49.9314 Q1908.59 61.0714 1903.04 67.4314 Q1897.49 73.7508 1887.77 73.7508 Q1878.01 73.7508 1872.46 67.4314 Q1866.95 61.0714 1866.95 49.9314 Q1866.95 38.7509 1872.46 32.4315 Q1878.01 26.1121 1887.77 26.1121 Z" fill="#000000" fill-rule="nonzero" fill-opacity="1" /><path clip-path="url(#clip790)" d="M1958.66 45.1919 L1958.66 72.576 L1951.21 72.576 L1951.21 45.4349 Q1951.21 38.994 1948.69 35.7938 Q1946.18 32.5936 1941.16 32.5936 Q1935.12 32.5936 1931.64 36.4419 Q1928.16 40.2903 1928.16 46.9338 L1928.16 72.576 L1920.66 72.576 L1920.66 27.2059 L1928.16 27.2059 L1928.16 34.2544 Q1930.83 30.163 1934.44 28.1376 Q1938.08 26.1121 1942.82 26.1121 Q1950.64 26.1121 1954.65 30.9732 Q1958.66 35.7938 1958.66 45.1919 Z" fill="#000000" fill-rule="nonzero" fill-opacity="1" /><path clip-path="url(#clip790)" d="M1994.15 49.7694 Q1985.11 49.7694 1981.63 51.8354 Q1978.14 53.9013 1978.14 58.8839 Q1978.14 62.8538 1980.74 65.2034 Q1983.37 67.5124 1987.87 67.5124 Q1994.06 67.5124 1997.79 63.1374 Q2001.56 58.7219 2001.56 51.4303 L2001.56 49.7694 L1994.15 49.7694 M2009.01 46.6907 L2009.01 72.576 L2001.56 72.576 L2001.56 65.6895 Q1999.01 69.8214 1995.2 71.8063 Q1991.39 73.7508 1985.88 73.7508 Q1978.91 73.7508 1974.78 69.8619 Q1970.69 65.9325 1970.69 59.3701 Q1970.69 51.7138 1975.79 47.825 Q1980.94 43.9361 1991.11 43.9361 L2001.56 43.9361 L2001.56 43.2069 Q2001.56 38.0623 1998.16 35.2672 Q1994.79 32.4315 1988.68 32.4315 Q1984.79 32.4315 1981.1 33.3632 Q1977.42 34.295 1974.01 36.1584 L1974.01 29.2718 Q1978.1 27.692 1981.95 26.9223 Q1985.8 26.1121 1989.45 26.1121 Q1999.29 26.1121 2004.15 31.2163 Q2009.01 36.3204 2009.01 46.6907 Z" fill="#000000" fill-rule="nonzero" fill-opacity="1" /><path clip-path="url(#clip790)" d="M2024.37 9.54393 L2031.82 9.54393 L2031.82 72.576 L2024.37 72.576 L2024.37 9.54393 Z" fill="#000000" fill-rule="nonzero" fill-opacity="1" /><path clip-path="url(#clip790)" d="M2082.29 18.8205 L2082.29 41.5461 L2092.58 41.5461 Q2098.29 41.5461 2101.41 38.5889 Q2104.53 35.6318 2104.53 30.163 Q2104.53 24.7348 2101.41 21.7777 Q2098.29 18.8205 2092.58 18.8205 L2082.29 18.8205 M2074.11 12.096 L2092.58 12.096 Q2102.75 12.096 2107.94 16.714 Q2113.16 21.2916 2113.16 30.163 Q2113.16 39.1155 2107.94 43.6931 Q2102.75 48.2706 2092.58 48.2706 L2082.29 48.2706 L2082.29 72.576 L2074.11 72.576 L2074.11 12.096 Z" fill="#000000" fill-rule="nonzero" fill-opacity="1" /><path clip-path="url(#clip790)" d="M2140.71 49.7694 Q2131.67 49.7694 2128.19 51.8354 Q2124.71 53.9013 2124.71 58.8839 Q2124.71 62.8538 2127.3 65.2034 Q2129.93 67.5124 2134.43 67.5124 Q2140.63 67.5124 2144.35 63.1374 Q2148.12 58.7219 2148.12 51.4303 L2148.12 49.7694 L2140.71 49.7694 M2155.57 46.6907 L2155.57 72.576 L2148.12 72.576 L2148.12 65.6895 Q2145.57 69.8214 2141.76 71.8063 Q2137.95 73.7508 2132.44 73.7508 Q2125.48 73.7508 2121.34 69.8619 Q2117.25 65.9325 2117.25 59.3701 Q2117.25 51.7138 2122.36 47.825 Q2127.5 43.9361 2137.67 43.9361 L2148.12 43.9361 L2148.12 43.2069 Q2148.12 38.0623 2144.72 35.2672 Q2141.36 32.4315 2135.24 32.4315 Q2131.35 32.4315 2127.66 33.3632 Q2123.98 34.295 2120.57 36.1584 L2120.57 29.2718 Q2124.67 27.692 2128.51 26.9223 Q2132.36 26.1121 2136.01 26.1121 Q2145.85 26.1121 2150.71 31.2163 Q2155.57 36.3204 2155.57 46.6907 Z" fill="#000000" fill-rule="nonzero" fill-opacity="1" /><path clip-path="url(#clip790)" d="M2178.3 14.324 L2178.3 27.2059 L2193.65 27.2059 L2193.65 32.9987 L2178.3 32.9987 L2178.3 57.6282 Q2178.3 63.1779 2179.8 64.7578 Q2181.34 66.3376 2186 66.3376 L2193.65 66.3376 L2193.65 72.576 L2186 72.576 Q2177.37 72.576 2174.09 69.3758 Q2170.81 66.1351 2170.81 57.6282 L2170.81 32.9987 L2165.34 32.9987 L2165.34 27.2059 L2170.81 27.2059 L2170.81 14.324 L2178.3 14.324 Z" fill="#000000" fill-rule="nonzero" fill-opacity="1" /><path clip-path="url(#clip790)" d="M2210.83 14.324 L2210.83 27.2059 L2226.18 27.2059 L2226.18 32.9987 L2210.83 32.9987 L2210.83 57.6282 Q2210.83 63.1779 2212.33 64.7578 Q2213.87 66.3376 2218.53 66.3376 L2226.18 66.3376 L2226.18 72.576 L2218.53 72.576 Q2209.9 72.576 2206.62 69.3758 Q2203.33 66.1351 2203.33 57.6282 L2203.33 32.9987 L2197.87 32.9987 L2197.87 27.2059 L2203.33 27.2059 L2203.33 14.324 L2210.83 14.324 Z" fill="#000000" fill-rule="nonzero" fill-opacity="1" /><path clip-path="url(#clip790)" d="M2274.79 48.0275 L2274.79 51.6733 L2240.52 51.6733 Q2241.01 59.3701 2245.14 63.421 Q2249.31 67.4314 2256.73 67.4314 Q2261.02 67.4314 2265.03 66.3781 Q2269.08 65.3249 2273.05 63.2184 L2273.05 70.267 Q2269.04 71.9684 2264.83 72.8596 Q2260.61 73.7508 2256.28 73.7508 Q2245.42 73.7508 2239.06 67.4314 Q2232.74 61.1119 2232.74 50.3365 Q2232.74 39.1965 2238.74 32.6746 Q2244.77 26.1121 2254.98 26.1121 Q2264.14 26.1121 2269.44 32.0264 Q2274.79 37.9003 2274.79 48.0275 M2267.34 45.84 Q2267.26 39.7232 2263.9 36.0774 Q2260.57 32.4315 2255.06 32.4315 Q2248.83 32.4315 2245.06 35.9558 Q2241.33 39.4801 2240.76 45.8805 L2267.34 45.84 Z" fill="#000000" fill-rule="nonzero" fill-opacity="1" /><path clip-path="url(#clip790)" d="M2313.32 34.1734 Q2312.06 33.4443 2310.56 33.1202 Q2309.1 32.7556 2307.32 32.7556 Q2301 32.7556 2297.6 36.8875 Q2294.24 40.9789 2294.24 48.6757 L2294.24 72.576 L2286.74 72.576 L2286.74 27.2059 L2294.24 27.2059 L2294.24 34.2544 Q2296.59 30.1225 2300.35 28.1376 Q2304.12 26.1121 2309.51 26.1121 Q2310.28 26.1121 2311.21 26.2337 Q2312.14 26.3147 2313.28 26.5172 L2313.32 34.1734 Z" fill="#000000" fill-rule="nonzero" fill-opacity="1" /><path clip-path="url(#clip790)" d="M2357.39 45.1919 L2357.39 72.576 L2349.94 72.576 L2349.94 45.4349 Q2349.94 38.994 2347.42 35.7938 Q2344.91 32.5936 2339.89 32.5936 Q2333.85 32.5936 2330.37 36.4419 Q2326.89 40.2903 2326.89 46.9338 L2326.89 72.576 L2319.39 72.576 L2319.39 27.2059 L2326.89 27.2059 L2326.89 34.2544 Q2329.56 30.163 2333.17 28.1376 Q2336.81 26.1121 2341.55 26.1121 Q2349.37 26.1121 2353.38 30.9732 Q2357.39 35.7938 2357.39 45.1919 Z" fill="#000000" fill-rule="nonzero" fill-opacity="1" /><path clip-path="url(#clip790)" d="M2401.18 28.5427 L2401.18 35.5912 Q2398.02 33.9709 2394.62 33.1607 Q2391.22 32.3505 2387.57 32.3505 Q2382.02 32.3505 2379.22 34.0519 Q2376.47 35.7533 2376.47 39.156 Q2376.47 41.7486 2378.45 43.2475 Q2380.44 44.7058 2386.44 46.0426 L2388.99 46.6097 Q2396.93 48.3111 2400.25 51.4303 Q2403.61 54.509 2403.61 60.0587 Q2403.61 66.3781 2398.59 70.0644 Q2393.61 73.7508 2384.86 73.7508 Q2381.21 73.7508 2377.24 73.0216 Q2373.31 72.3329 2368.94 70.9151 L2368.94 63.2184 Q2373.07 65.3654 2377.08 66.4591 Q2381.09 67.5124 2385.02 67.5124 Q2390.28 67.5124 2393.12 65.73 Q2395.95 63.9071 2395.95 60.6258 Q2395.95 57.5877 2393.89 55.9673 Q2391.86 54.3469 2384.94 52.8481 L2382.34 52.2405 Q2375.42 50.7821 2372.34 47.7845 Q2369.26 44.7463 2369.26 39.4801 Q2369.26 33.0797 2373.8 29.5959 Q2378.33 26.1121 2386.68 26.1121 Q2390.81 26.1121 2394.46 26.7198 Q2398.1 27.3274 2401.18 28.5427 Z" fill="#000000" fill-rule="nonzero" fill-opacity="1" /><polyline clip-path="url(#clip791)" style="stroke:#ff0000; stroke-linecap:round; stroke-linejoin:round; stroke-width:8; stroke-opacity:1; fill:none" points="323.315,1668.9 379.563,1655.22 435.812,1638.5 492.06,1643.06 548.309,1640.02 604.557,1636.98 660.806,1632.42 717.055,1630.9 773.303,1630.9 829.552,1635.46 885.8,1635.46 942.049,1641.54 998.298,1636.98 1054.55,1640.02 1110.79,1630.9 1167.04,1643.06 1223.29,1646.1 1279.54,1656.74 1335.79,1650.66 1392.04,1650.66 1448.29,1649.14 1504.53,1653.7 1560.78,1661.3 1617.03,1665.86 1673.28,1670.42 1729.53,1661.3 1785.78,1661.3 1842.03,1662.82 1898.27,1671.94 1954.52,1678.02 2010.77,1678.02 2067.02,1679.54 2123.27,1676.5 2179.52,1678.02 2235.77,1673.46 2292.01,1676.5 2348.26,1674.98 2404.51,1679.54 2460.76,1679.54 2517.01,1685.62 2573.26,1688.65 "/>
<polyline clip-path="url(#clip791)" style="stroke:#0000ff; stroke-linecap:round; stroke-linejoin:round; stroke-width:8; stroke-opacity:1; fill:none" points="323.315,1673.46 379.563,1659.78 435.812,1640.02 492.06,1617.22 548.309,1611.14 604.557,1597.46 660.806,1586.82 717.055,1565.54 773.303,1545.78 829.552,1512.34 885.8,1459.14 942.049,1422.66 998.298,1369.46 1054.55,1313.22 1110.79,1250.91 1167.04,1171.87 1223.29,1071.55 1279.54,983.393 1335.79,927.155 1392.04,828.357 1448.29,758.439 1504.53,676.361 1560.78,539.565 1617.03,495.486 1673.28,452.927 1729.53,413.408 1785.78,390.609 1842.03,317.65 1898.27,273.572 1954.52,250.772 2010.77,231.013 2067.02,202.133 2123.27,193.014 2179.52,185.414 2235.77,179.334 2292.01,176.294 2348.26,173.254 2404.51,173.254 2460.76,173.254 2517.01,173.254 2573.26,173.254 "/>
<path clip-path="url(#clip790)" d="M335.314 336.856 L1006.03 336.856 L1006.03 181.336 L335.314 181.336  Z" fill="#ffffff" fill-rule="evenodd" fill-opacity="1"/>
<polyline clip-path="url(#clip790)" style="stroke:#000000; stroke-linecap:round; stroke-linejoin:round; stroke-width:4; stroke-opacity:1; fill:none" points="335.314,336.856 1006.03,336.856 1006.03,181.336 335.314,181.336 335.314,336.856 "/>
<polyline clip-path="url(#clip790)" style="stroke:#ff0000; stroke-linecap:round; stroke-linejoin:round; stroke-width:8; stroke-opacity:1; fill:none" points="361.814,233.176 520.81,233.176 "/>
<path clip-path="url(#clip790)" d="M547.309 215.896 L567.17 215.896 L567.17 219.831 L551.985 219.831 L551.985 230.017 L565.688 230.017 L565.688 233.952 L551.985 233.952 L551.985 250.456 L547.309 250.456 L547.309 215.896 Z" fill="#000000" fill-rule="nonzero" fill-opacity="1" /><path clip-path="url(#clip790)" d="M574.392 214.438 L578.651 214.438 L578.651 250.456 L574.392 250.456 L574.392 214.438 Z" fill="#000000" fill-rule="nonzero" fill-opacity="1" /><path clip-path="url(#clip790)" d="M587.124 240.225 L587.124 224.531 L591.383 224.531 L591.383 240.063 Q591.383 243.743 592.818 245.595 Q594.253 247.424 597.123 247.424 Q600.573 247.424 602.563 245.225 Q604.577 243.026 604.577 239.229 L604.577 224.531 L608.836 224.531 L608.836 250.456 L604.577 250.456 L604.577 246.475 Q603.026 248.836 600.966 249.993 Q598.929 251.128 596.221 251.128 Q591.753 251.128 589.438 248.35 Q587.124 245.572 587.124 240.225 M597.841 223.906 L597.841 223.906 Z" fill="#000000" fill-rule="nonzero" fill-opacity="1" /><path clip-path="url(#clip790)" d="M642.91 214.484 Q639.808 219.808 638.304 225.017 Q636.799 230.225 636.799 235.572 Q636.799 240.919 638.304 246.174 Q639.832 251.405 642.91 256.706 L639.207 256.706 Q635.734 251.266 633.998 246.012 Q632.285 240.757 632.285 235.572 Q632.285 230.41 633.998 225.179 Q635.711 219.947 639.207 214.484 L642.91 214.484 Z" fill="#000000" fill-rule="nonzero" fill-opacity="1" /><path clip-path="url(#clip790)" d="M655.294 246.567 L655.294 260.317 L651.012 260.317 L651.012 224.531 L655.294 224.531 L655.294 228.466 Q656.637 226.151 658.674 225.04 Q660.734 223.906 663.581 223.906 Q668.304 223.906 671.243 227.655 Q674.206 231.405 674.206 237.517 Q674.206 243.628 671.243 247.378 Q668.304 251.128 663.581 251.128 Q660.734 251.128 658.674 250.016 Q656.637 248.882 655.294 246.567 M669.785 237.517 Q669.785 232.817 667.841 230.155 Q665.919 227.47 662.54 227.47 Q659.16 227.47 657.216 230.155 Q655.294 232.817 655.294 237.517 Q655.294 242.216 657.216 244.901 Q659.16 247.563 662.54 247.563 Q665.919 247.563 667.841 244.901 Q669.785 242.216 669.785 237.517 Z" fill="#000000" fill-rule="nonzero" fill-opacity="1" /><path clip-path="url(#clip790)" d="M703.442 236.429 L703.442 238.512 L683.859 238.512 Q684.137 242.91 686.498 245.225 Q688.882 247.516 693.118 247.516 Q695.572 247.516 697.864 246.915 Q700.178 246.313 702.447 245.109 L702.447 249.137 Q700.155 250.109 697.748 250.618 Q695.341 251.128 692.864 251.128 Q686.66 251.128 683.026 247.516 Q679.415 243.905 679.415 237.748 Q679.415 231.382 682.841 227.655 Q686.29 223.906 692.123 223.906 Q697.354 223.906 700.387 227.285 Q703.442 230.642 703.442 236.429 M699.183 235.179 Q699.137 231.683 697.216 229.6 Q695.317 227.517 692.169 227.517 Q688.604 227.517 686.452 229.53 Q684.322 231.544 683.998 235.202 L699.183 235.179 Z" fill="#000000" fill-rule="nonzero" fill-opacity="1" /><path clip-path="url(#clip790)" d="M722.215 237.424 Q717.053 237.424 715.063 238.604 Q713.072 239.785 713.072 242.632 Q713.072 244.901 714.553 246.243 Q716.058 247.563 718.627 247.563 Q722.169 247.563 724.299 245.063 Q726.451 242.54 726.451 238.373 L726.451 237.424 L722.215 237.424 M730.711 235.665 L730.711 250.456 L726.451 250.456 L726.451 246.521 Q724.993 248.882 722.817 250.016 Q720.641 251.128 717.493 251.128 Q713.512 251.128 711.151 248.905 Q708.813 246.66 708.813 242.91 Q708.813 238.535 711.729 236.313 Q714.669 234.091 720.479 234.091 L726.451 234.091 L726.451 233.674 Q726.451 230.734 724.507 229.137 Q722.586 227.517 719.09 227.517 Q716.868 227.517 714.762 228.049 Q712.655 228.581 710.711 229.646 L710.711 225.711 Q713.049 224.808 715.248 224.368 Q717.447 223.906 719.53 223.906 Q725.155 223.906 727.933 226.822 Q730.711 229.739 730.711 235.665 Z" fill="#000000" fill-rule="nonzero" fill-opacity="1" /><path clip-path="url(#clip790)" d="M739.322 214.438 L743.604 214.438 L743.604 235.711 L756.312 224.531 L761.752 224.531 L748.002 236.66 L762.331 250.456 L756.775 250.456 L743.604 237.794 L743.604 250.456 L739.322 250.456 L739.322 214.438 Z" fill="#000000" fill-rule="nonzero" fill-opacity="1" /><path clip-path="url(#clip790)" d="M799.067 228.466 L799.067 214.438 L803.326 214.438 L803.326 250.456 L799.067 250.456 L799.067 246.567 Q797.724 248.882 795.664 250.016 Q793.627 251.128 790.757 251.128 Q786.058 251.128 783.095 247.378 Q780.155 243.628 780.155 237.517 Q780.155 231.405 783.095 227.655 Q786.058 223.906 790.757 223.906 Q793.627 223.906 795.664 225.04 Q797.724 226.151 799.067 228.466 M784.553 237.517 Q784.553 242.216 786.474 244.901 Q788.419 247.563 791.798 247.563 Q795.178 247.563 797.122 244.901 Q799.067 242.216 799.067 237.517 Q799.067 232.817 797.122 230.155 Q795.178 227.47 791.798 227.47 Q788.419 227.47 786.474 230.155 Q784.553 232.817 784.553 237.517 Z" fill="#000000" fill-rule="nonzero" fill-opacity="1" /><path clip-path="url(#clip790)" d="M823.882 237.424 Q818.72 237.424 816.729 238.604 Q814.738 239.785 814.738 242.632 Q814.738 244.901 816.22 246.243 Q817.724 247.563 820.294 247.563 Q823.835 247.563 825.965 245.063 Q828.118 242.54 828.118 238.373 L828.118 237.424 L823.882 237.424 M832.377 235.665 L832.377 250.456 L828.118 250.456 L828.118 246.521 Q826.659 248.882 824.483 250.016 Q822.307 251.128 819.159 251.128 Q815.178 251.128 812.817 248.905 Q810.479 246.66 810.479 242.91 Q810.479 238.535 813.395 236.313 Q816.335 234.091 822.145 234.091 L828.118 234.091 L828.118 233.674 Q828.118 230.734 826.173 229.137 Q824.252 227.517 820.757 227.517 Q818.534 227.517 816.428 228.049 Q814.321 228.581 812.377 229.646 L812.377 225.711 Q814.715 224.808 816.914 224.368 Q819.113 223.906 821.196 223.906 Q826.821 223.906 829.599 226.822 Q832.377 229.739 832.377 235.665 Z" fill="#000000" fill-rule="nonzero" fill-opacity="1" /><path clip-path="url(#clip790)" d="M851.937 252.864 Q850.131 257.493 848.418 258.905 Q846.705 260.317 843.835 260.317 L840.432 260.317 L840.432 256.753 L842.932 256.753 Q844.692 256.753 845.664 255.919 Q846.636 255.086 847.817 251.984 L848.58 250.04 L838.094 224.531 L842.608 224.531 L850.71 244.808 L858.812 224.531 L863.326 224.531 L851.937 252.864 Z" fill="#000000" fill-rule="nonzero" fill-opacity="1" /><path clip-path="url(#clip790)" d="M894.877 218.975 Q891.265 218.975 889.437 222.54 Q887.631 226.081 887.631 233.211 Q887.631 240.317 889.437 243.882 Q891.265 247.424 894.877 247.424 Q898.511 247.424 900.316 243.882 Q902.145 240.317 902.145 233.211 Q902.145 226.081 900.316 222.54 Q898.511 218.975 894.877 218.975 M894.877 215.271 Q900.687 215.271 903.742 219.878 Q906.821 224.461 906.821 233.211 Q906.821 241.938 903.742 246.544 Q900.687 251.128 894.877 251.128 Q889.066 251.128 885.988 246.544 Q882.932 241.938 882.932 233.211 Q882.932 224.461 885.988 219.878 Q889.066 215.271 894.877 215.271 Z" fill="#000000" fill-rule="nonzero" fill-opacity="1" /><path clip-path="url(#clip790)" d="M913.765 214.484 L917.469 214.484 Q920.941 219.947 922.654 225.179 Q924.39 230.41 924.39 235.572 Q924.39 240.757 922.654 246.012 Q920.941 251.266 917.469 256.706 L913.765 256.706 Q916.844 251.405 918.349 246.174 Q919.876 240.919 919.876 235.572 Q919.876 230.225 918.349 225.017 Q916.844 219.808 913.765 214.484 Z" fill="#000000" fill-rule="nonzero" fill-opacity="1" /><polyline clip-path="url(#clip790)" style="stroke:#0000ff; stroke-linecap:round; stroke-linejoin:round; stroke-width:8; stroke-opacity:1; fill:none" points="361.814,285.016 520.81,285.016 "/>
<path clip-path="url(#clip790)" d="M563.698 286.093 Q565.202 286.602 566.614 288.269 Q568.05 289.935 569.485 292.852 L574.23 302.296 L569.207 302.296 L564.786 293.431 Q563.073 289.958 561.452 288.824 Q559.855 287.69 557.077 287.69 L551.985 287.69 L551.985 302.296 L547.309 302.296 L547.309 267.736 L557.864 267.736 Q563.79 267.736 566.707 270.213 Q569.624 272.69 569.624 277.69 Q569.624 280.954 568.096 283.107 Q566.591 285.259 563.698 286.093 M551.985 271.579 L551.985 283.847 L557.864 283.847 Q561.244 283.847 562.957 282.296 Q564.693 280.722 564.693 277.69 Q564.693 274.658 562.957 273.13 Q561.244 271.579 557.864 271.579 L551.985 271.579 Z" fill="#000000" fill-rule="nonzero" fill-opacity="1" /><path clip-path="url(#clip790)" d="M600.966 268.871 L600.966 273.431 Q598.304 272.158 595.943 271.533 Q593.582 270.908 591.383 270.908 Q587.563 270.908 585.48 272.389 Q583.42 273.871 583.42 276.602 Q583.42 278.894 584.786 280.074 Q586.174 281.232 590.017 281.949 L592.841 282.528 Q598.073 283.523 600.549 286.046 Q603.049 288.546 603.049 292.759 Q603.049 297.782 599.67 300.375 Q596.313 302.968 589.809 302.968 Q587.355 302.968 584.577 302.412 Q581.823 301.856 578.86 300.769 L578.86 295.954 Q581.707 297.551 584.438 298.361 Q587.17 299.171 589.809 299.171 Q593.813 299.171 595.989 297.597 Q598.165 296.023 598.165 293.107 Q598.165 290.56 596.591 289.125 Q595.04 287.69 591.475 286.972 L588.628 286.417 Q583.397 285.375 581.059 283.153 Q578.721 280.931 578.721 276.972 Q578.721 272.389 581.938 269.75 Q585.179 267.111 590.85 267.111 Q593.281 267.111 595.804 267.551 Q598.327 267.991 600.966 268.871 Z" fill="#000000" fill-rule="nonzero" fill-opacity="1" /><path clip-path="url(#clip790)" d="M619.253 302.296 L606.059 267.736 L610.943 267.736 L621.892 296.833 L632.864 267.736 L637.725 267.736 L624.554 302.296 L619.253 302.296 Z" fill="#000000" fill-rule="nonzero" fill-opacity="1" /><path clip-path="url(#clip790)" d="M667.887 266.324 Q664.785 271.648 663.281 276.857 Q661.776 282.065 661.776 287.412 Q661.776 292.759 663.281 298.014 Q664.808 303.245 667.887 308.546 L664.183 308.546 Q660.711 303.106 658.975 297.852 Q657.262 292.597 657.262 287.412 Q657.262 282.25 658.975 277.019 Q660.688 271.787 664.183 266.324 L667.887 266.324 Z" fill="#000000" fill-rule="nonzero" fill-opacity="1" /><path clip-path="url(#clip790)" d="M680.271 298.407 L680.271 312.157 L675.989 312.157 L675.989 276.371 L680.271 276.371 L680.271 280.306 Q681.614 277.991 683.651 276.88 Q685.711 275.746 688.558 275.746 Q693.28 275.746 696.22 279.495 Q699.183 283.245 699.183 289.357 Q699.183 295.468 696.22 299.218 Q693.28 302.968 688.558 302.968 Q685.711 302.968 683.651 301.856 Q681.614 300.722 680.271 298.407 M694.762 289.357 Q694.762 284.657 692.817 281.995 Q690.896 279.31 687.517 279.31 Q684.137 279.31 682.192 281.995 Q680.271 284.657 680.271 289.357 Q680.271 294.056 682.192 296.741 Q684.137 299.403 687.517 299.403 Q690.896 299.403 692.817 296.741 Q694.762 294.056 694.762 289.357 Z" fill="#000000" fill-rule="nonzero" fill-opacity="1" /><path clip-path="url(#clip790)" d="M728.419 288.269 L728.419 290.352 L708.836 290.352 Q709.114 294.75 711.475 297.065 Q713.859 299.356 718.095 299.356 Q720.549 299.356 722.84 298.755 Q725.155 298.153 727.424 296.949 L727.424 300.977 Q725.132 301.949 722.725 302.458 Q720.317 302.968 717.84 302.968 Q711.637 302.968 708.003 299.356 Q704.391 295.745 704.391 289.588 Q704.391 283.222 707.817 279.495 Q711.266 275.746 717.1 275.746 Q722.331 275.746 725.364 279.125 Q728.419 282.482 728.419 288.269 M724.16 287.019 Q724.114 283.523 722.192 281.44 Q720.294 279.357 717.146 279.357 Q713.581 279.357 711.428 281.37 Q709.299 283.384 708.975 287.042 L724.16 287.019 Z" fill="#000000" fill-rule="nonzero" fill-opacity="1" /><path clip-path="url(#clip790)" d="M747.192 289.264 Q742.03 289.264 740.039 290.444 Q738.049 291.625 738.049 294.472 Q738.049 296.741 739.53 298.083 Q741.035 299.403 743.604 299.403 Q747.146 299.403 749.275 296.903 Q751.428 294.38 751.428 290.213 L751.428 289.264 L747.192 289.264 M755.687 287.505 L755.687 302.296 L751.428 302.296 L751.428 298.361 Q749.97 300.722 747.794 301.856 Q745.618 302.968 742.47 302.968 Q738.488 302.968 736.127 300.745 Q733.789 298.5 733.789 294.75 Q733.789 290.375 736.706 288.153 Q739.646 285.931 745.456 285.931 L751.428 285.931 L751.428 285.514 Q751.428 282.574 749.484 280.977 Q747.562 279.357 744.067 279.357 Q741.845 279.357 739.738 279.889 Q737.632 280.421 735.688 281.486 L735.688 277.551 Q738.026 276.648 740.225 276.208 Q742.424 275.746 744.507 275.746 Q750.132 275.746 752.91 278.662 Q755.687 281.579 755.687 287.505 Z" fill="#000000" fill-rule="nonzero" fill-opacity="1" /><path clip-path="url(#clip790)" d="M764.299 266.278 L768.581 266.278 L768.581 287.551 L781.289 276.371 L786.729 276.371 L772.979 288.5 L787.308 302.296 L781.752 302.296 L768.581 289.634 L768.581 302.296 L764.299 302.296 L764.299 266.278 Z" fill="#000000" fill-rule="nonzero" fill-opacity="1" /><path clip-path="url(#clip790)" d="M824.044 280.306 L824.044 266.278 L828.303 266.278 L828.303 302.296 L824.044 302.296 L824.044 298.407 Q822.701 300.722 820.641 301.856 Q818.604 302.968 815.733 302.968 Q811.034 302.968 808.071 299.218 Q805.132 295.468 805.132 289.357 Q805.132 283.245 808.071 279.495 Q811.034 275.746 815.733 275.746 Q818.604 275.746 820.641 276.88 Q822.701 277.991 824.044 280.306 M809.53 289.357 Q809.53 294.056 811.451 296.741 Q813.395 299.403 816.775 299.403 Q820.155 299.403 822.099 296.741 Q824.044 294.056 824.044 289.357 Q824.044 284.657 822.099 281.995 Q820.155 279.31 816.775 279.31 Q813.395 279.31 811.451 281.995 Q809.53 284.657 809.53 289.357 Z" fill="#000000" fill-rule="nonzero" fill-opacity="1" /><path clip-path="url(#clip790)" d="M848.858 289.264 Q843.696 289.264 841.706 290.444 Q839.715 291.625 839.715 294.472 Q839.715 296.741 841.196 298.083 Q842.701 299.403 845.27 299.403 Q848.812 299.403 850.942 296.903 Q853.094 294.38 853.094 290.213 L853.094 289.264 L848.858 289.264 M857.354 287.505 L857.354 302.296 L853.094 302.296 L853.094 298.361 Q851.636 300.722 849.46 301.856 Q847.284 302.968 844.136 302.968 Q840.155 302.968 837.793 300.745 Q835.456 298.5 835.456 294.75 Q835.456 290.375 838.372 288.153 Q841.312 285.931 847.122 285.931 L853.094 285.931 L853.094 285.514 Q853.094 282.574 851.15 280.977 Q849.229 279.357 845.733 279.357 Q843.511 279.357 841.405 279.889 Q839.298 280.421 837.354 281.486 L837.354 277.551 Q839.692 276.648 841.891 276.208 Q844.09 275.746 846.173 275.746 Q851.798 275.746 854.576 278.662 Q857.354 281.579 857.354 287.505 Z" fill="#000000" fill-rule="nonzero" fill-opacity="1" /><path clip-path="url(#clip790)" d="M876.914 304.704 Q875.108 309.333 873.395 310.745 Q871.682 312.157 868.812 312.157 L865.409 312.157 L865.409 308.593 L867.909 308.593 Q869.668 308.593 870.641 307.759 Q871.613 306.926 872.793 303.824 L873.557 301.88 L863.071 276.371 L867.585 276.371 L875.687 296.648 L883.789 276.371 L888.302 276.371 L876.914 304.704 Z" fill="#000000" fill-rule="nonzero" fill-opacity="1" /><path clip-path="url(#clip790)" d="M920.432 283.153 Q917.284 283.153 915.432 285.306 Q913.603 287.458 913.603 291.208 Q913.603 294.935 915.432 297.111 Q917.284 299.264 920.432 299.264 Q923.58 299.264 925.409 297.111 Q927.261 294.935 927.261 291.208 Q927.261 287.458 925.409 285.306 Q923.58 283.153 920.432 283.153 M929.714 268.5 L929.714 272.759 Q927.955 271.926 926.149 271.486 Q924.367 271.046 922.608 271.046 Q917.978 271.046 915.525 274.171 Q913.094 277.296 912.747 283.616 Q914.113 281.602 916.173 280.537 Q918.233 279.449 920.71 279.449 Q925.918 279.449 928.927 282.62 Q931.96 285.769 931.96 291.208 Q931.96 296.532 928.812 299.75 Q925.663 302.968 920.432 302.968 Q914.437 302.968 911.265 298.384 Q908.094 293.778 908.094 285.051 Q908.094 276.857 911.983 271.996 Q915.872 267.111 922.423 267.111 Q924.182 267.111 925.964 267.459 Q927.77 267.806 929.714 268.5 Z" fill="#000000" fill-rule="nonzero" fill-opacity="1" /><path clip-path="url(#clip790)" d="M950.015 270.815 Q946.404 270.815 944.575 274.38 Q942.77 277.921 942.77 285.051 Q942.77 292.157 944.575 295.722 Q946.404 299.264 950.015 299.264 Q953.649 299.264 955.455 295.722 Q957.284 292.157 957.284 285.051 Q957.284 277.921 955.455 274.38 Q953.649 270.815 950.015 270.815 M950.015 267.111 Q955.825 267.111 958.881 271.718 Q961.959 276.301 961.959 285.051 Q961.959 293.778 958.881 298.384 Q955.825 302.968 950.015 302.968 Q944.205 302.968 941.126 298.384 Q938.071 293.778 938.071 285.051 Q938.071 276.301 941.126 271.718 Q944.205 267.111 950.015 267.111 Z" fill="#000000" fill-rule="nonzero" fill-opacity="1" /><path clip-path="url(#clip790)" d="M968.904 266.324 L972.608 266.324 Q976.08 271.787 977.793 277.019 Q979.529 282.25 979.529 287.412 Q979.529 292.597 977.793 297.852 Q976.08 303.106 972.608 308.546 L968.904 308.546 Q971.983 303.245 973.487 298.014 Q975.015 292.759 975.015 287.412 Q975.015 282.065 973.487 276.857 Q971.983 271.648 968.904 266.324 Z" fill="#000000" fill-rule="nonzero" fill-opacity="1" /></svg>
