<?xml version="1.0" encoding="utf-8"?>
<svg xmlns="http://www.w3.org/2000/svg" xmlns:xlink="http://www.w3.org/1999/xlink" width="672" height="480" viewBox="0 0 2688 1920">
<defs>
  <clipPath id="clip670">
    <rect x="0" y="0" width="2688" height="1920"/>
  </clipPath>
</defs>
<path clip-path="url(#clip670)" d="M0 1920 L2688 1920 L2688 -4.26326e-14 L0 -4.26326e-14  Z" fill="#ffffff" fill-rule="evenodd" fill-opacity="1"/>
<defs>
  <clipPath id="clip671">
    <rect x="268" y="127" width="2373" height="1607"/>
  </clipPath>
</defs>
<path clip-path="url(#clip670)" d="M268.826 1734.12 L2640.76 1734.12 L2640.76 127.792 L268.826 127.792  Z" fill="#ffffff" fill-rule="evenodd" fill-opacity="1"/>
<polyline clip-path="url(#clip671)" style="stroke:#000000; stroke-linecap:round; stroke-linejoin:round; stroke-width:2; stroke-opacity:0.1; fill:none" points="335.956,1734.12 335.956,127.792 "/>
<polyline clip-path="url(#clip671)" style="stroke:#000000; stroke-linecap:round; stroke-linejoin:round; stroke-width:2; stroke-opacity:0.1; fill:none" points="895.373,1734.12 895.373,127.792 "/>
<polyline clip-path="url(#clip671)" style="stroke:#000000; stroke-linecap:round; stroke-linejoin:round; stroke-width:2; stroke-opacity:0.1; fill:none" points="1454.79,1734.12 1454.79,127.792 "/>
<polyline clip-path="url(#clip671)" style="stroke:#000000; stroke-linecap:round; stroke-linejoin:round; stroke-width:2; stroke-opacity:0.1; fill:none" points="2014.21,1734.12 2014.21,127.792 "/>
<polyline clip-path="url(#clip671)" style="stroke:#000000; stroke-linecap:round; stroke-linejoin:round; stroke-width:2; stroke-opacity:0.1; fill:none" points="2573.63,1734.12 2573.63,127.792 "/>
<polyline clip-path="url(#clip671)" style="stroke:#000000; stroke-linecap:round; stroke-linejoin:round; stroke-width:2; stroke-opacity:0.1; fill:none" points="268.826,1688.65 2640.76,1688.65 "/>
<polyline clip-path="url(#clip671)" style="stroke:#000000; stroke-linecap:round; stroke-linejoin:round; stroke-width:2; stroke-opacity:0.1; fill:none" points="268.826,1303.64 2640.76,1303.64 "/>
<polyline clip-path="url(#clip671)" style="stroke:#000000; stroke-linecap:round; stroke-linejoin:round; stroke-width:2; stroke-opacity:0.1; fill:none" points="268.826,918.634 2640.76,918.634 "/>
<polyline clip-path="url(#clip671)" style="stroke:#000000; stroke-linecap:round; stroke-linejoin:round; stroke-width:2; stroke-opacity:0.1; fill:none" points="268.826,533.624 2640.76,533.624 "/>
<polyline clip-path="url(#clip671)" style="stroke:#000000; stroke-linecap:round; stroke-linejoin:round; stroke-width:2; stroke-opacity:0.1; fill:none" points="268.826,148.613 2640.76,148.613 "/>
<polyline clip-path="url(#clip670)" style="stroke:#000000; stroke-linecap:round; stroke-linejoin:round; stroke-width:4; stroke-opacity:1; fill:none" points="268.826,1734.12 2640.76,1734.12 "/>
<polyline clip-path="url(#clip670)" style="stroke:#000000; stroke-linecap:round; stroke-linejoin:round; stroke-width:4; stroke-opacity:1; fill:none" points="335.956,1734.12 335.956,1715.22 "/>
<polyline clip-path="url(#clip670)" style="stroke:#000000; stroke-linecap:round; stroke-linejoin:round; stroke-width:4; stroke-opacity:1; fill:none" points="895.373,1734.12 895.373,1715.22 "/>
<polyline clip-path="url(#clip670)" style="stroke:#000000; stroke-linecap:round; stroke-linejoin:round; stroke-width:4; stroke-opacity:1; fill:none" points="1454.79,1734.12 1454.79,1715.22 "/>
<polyline clip-path="url(#clip670)" style="stroke:#000000; stroke-linecap:round; stroke-linejoin:round; stroke-width:4; stroke-opacity:1; fill:none" points="2014.21,1734.12 2014.21,1715.22 "/>
<polyline clip-path="url(#clip670)" style="stroke:#000000; stroke-linecap:round; stroke-linejoin:round; stroke-width:4; stroke-opacity:1; fill:none" points="2573.63,1734.12 2573.63,1715.22 "/>
<path clip-path="url(#clip670)" d="M335.956 1767.34 Q332.345 1767.34 330.516 1770.9 Q328.71 1774.45 328.71 1781.58 Q328.71 1788.68 330.516 1792.25 Q332.345 1795.79 335.956 1795.79 Q339.59 1795.79 341.395 1792.25 Q343.224 1788.68 343.224 1781.58 Q343.224 1774.45 341.395 1770.9 Q339.59 1767.34 335.956 1767.34 M335.956 1763.64 Q341.766 1763.64 344.821 1768.24 Q347.9 1772.83 347.9 1781.58 Q347.9 1790.3 344.821 1794.91 Q341.766 1799.49 335.956 1799.49 Q330.145 1799.49 327.067 1794.91 Q324.011 1790.3 324.011 1781.58 Q324.011 1772.83 327.067 1768.24 Q330.145 1763.64 335.956 1763.64 Z" fill="#000000" fill-rule="nonzero" fill-opacity="1" /><path clip-path="url(#clip670)" d="M870.061 1794.89 L877.7 1794.89 L877.7 1768.52 L869.39 1770.19 L869.39 1765.93 L877.653 1764.26 L882.329 1764.26 L882.329 1794.89 L889.968 1794.89 L889.968 1798.82 L870.061 1798.82 L870.061 1794.89 Z" fill="#000000" fill-rule="nonzero" fill-opacity="1" /><path clip-path="url(#clip670)" d="M909.412 1767.34 Q905.801 1767.34 903.973 1770.9 Q902.167 1774.45 902.167 1781.58 Q902.167 1788.68 903.973 1792.25 Q905.801 1795.79 909.412 1795.79 Q913.047 1795.79 914.852 1792.25 Q916.681 1788.68 916.681 1781.58 Q916.681 1774.45 914.852 1770.9 Q913.047 1767.34 909.412 1767.34 M909.412 1763.64 Q915.223 1763.64 918.278 1768.24 Q921.357 1772.83 921.357 1781.58 Q921.357 1790.3 918.278 1794.91 Q915.223 1799.49 909.412 1799.49 Q903.602 1799.49 900.524 1794.91 Q897.468 1790.3 897.468 1781.58 Q897.468 1772.83 900.524 1768.24 Q903.602 1763.64 909.412 1763.64 Z" fill="#000000" fill-rule="nonzero" fill-opacity="1" /><path clip-path="url(#clip670)" d="M1433.56 1794.89 L1449.88 1794.89 L1449.88 1798.82 L1427.94 1798.82 L1427.94 1794.89 Q1430.6 1792.13 1435.18 1787.5 Q1439.79 1782.85 1440.97 1781.51 Q1443.22 1778.98 1444.1 1777.25 Q1445 1775.49 1445 1773.8 Q1445 1771.04 1443.05 1769.31 Q1441.13 1767.57 1438.03 1767.57 Q1435.83 1767.57 1433.38 1768.34 Q1430.95 1769.1 1428.17 1770.65 L1428.17 1765.93 Q1430.99 1764.79 1433.45 1764.21 Q1435.9 1763.64 1437.94 1763.64 Q1443.31 1763.64 1446.5 1766.32 Q1449.7 1769.01 1449.7 1773.5 Q1449.7 1775.63 1448.89 1777.55 Q1448.1 1779.45 1445.99 1782.04 Q1445.42 1782.71 1442.31 1785.93 Q1439.21 1789.12 1433.56 1794.89 Z" fill="#000000" fill-rule="nonzero" fill-opacity="1" /><path clip-path="url(#clip670)" d="M1469.7 1767.34 Q1466.09 1767.34 1464.26 1770.9 Q1462.45 1774.45 1462.45 1781.58 Q1462.45 1788.68 1464.26 1792.25 Q1466.09 1795.79 1469.7 1795.79 Q1473.33 1795.79 1475.14 1792.25 Q1476.97 1788.68 1476.97 1781.58 Q1476.97 1774.45 1475.14 1770.9 Q1473.33 1767.34 1469.7 1767.34 M1469.7 1763.64 Q1475.51 1763.64 1478.56 1768.24 Q1481.64 1772.83 1481.64 1781.58 Q1481.64 1790.3 1478.56 1794.91 Q1475.51 1799.49 1469.7 1799.49 Q1463.89 1799.49 1460.81 1794.91 Q1457.75 1790.3 1457.75 1781.58 Q1457.75 1772.83 1460.81 1768.24 Q1463.89 1763.64 1469.7 1763.64 Z" fill="#000000" fill-rule="nonzero" fill-opacity="1" /><path clip-path="url(#clip670)" d="M2003.05 1780.19 Q2006.41 1780.9 2008.28 1783.17 Q2010.18 1785.44 2010.18 1788.77 Q2010.18 1793.89 2006.66 1796.69 Q2003.14 1799.49 1996.66 1799.49 Q1994.49 1799.49 1992.17 1799.05 Q1989.88 1798.64 1987.43 1797.78 L1987.43 1793.27 Q1989.37 1794.4 1991.69 1794.98 Q1994 1795.56 1996.52 1795.56 Q2000.92 1795.56 2003.21 1793.82 Q2005.53 1792.08 2005.53 1788.77 Q2005.53 1785.72 2003.37 1784.01 Q2001.25 1782.27 1997.43 1782.27 L1993.4 1782.27 L1993.4 1778.43 L1997.61 1778.43 Q2001.06 1778.43 2002.89 1777.06 Q2004.72 1775.67 2004.72 1773.08 Q2004.72 1770.42 2002.82 1769.01 Q2000.94 1767.57 1997.43 1767.57 Q1995.5 1767.57 1993.31 1767.99 Q1991.11 1768.4 1988.47 1769.28 L1988.47 1765.12 Q1991.13 1764.38 1993.44 1764.01 Q1995.78 1763.64 1997.84 1763.64 Q2003.17 1763.64 2006.27 1766.07 Q2009.37 1768.47 2009.37 1772.59 Q2009.37 1775.46 2007.73 1777.46 Q2006.08 1779.42 2003.05 1780.19 Z" fill="#000000" fill-rule="nonzero" fill-opacity="1" /><path clip-path="url(#clip670)" d="M2029.05 1767.34 Q2025.44 1767.34 2023.61 1770.9 Q2021.8 1774.45 2021.8 1781.58 Q2021.8 1788.68 2023.61 1792.25 Q2025.44 1795.79 2029.05 1795.79 Q2032.68 1795.79 2034.49 1792.25 Q2036.31 1788.68 2036.31 1781.58 Q2036.31 1774.45 2034.49 1770.9 Q2032.68 1767.34 2029.05 1767.34 M2029.05 1763.64 Q2034.86 1763.64 2037.91 1768.24 Q2040.99 1772.83 2040.99 1781.58 Q2040.99 1790.3 2037.91 1794.91 Q2034.86 1799.49 2029.05 1799.49 Q2023.24 1799.49 2020.16 1794.91 Q2017.1 1790.3 2017.1 1781.58 Q2017.1 1772.83 2020.16 1768.24 Q2023.24 1763.64 2029.05 1763.64 Z" fill="#000000" fill-rule="nonzero" fill-opacity="1" /><path clip-path="url(#clip670)" d="M2561.8 1768.34 L2549.99 1786.78 L2561.8 1786.78 L2561.8 1768.34 M2560.57 1764.26 L2566.45 1764.26 L2566.45 1786.78 L2571.38 1786.78 L2571.38 1790.67 L2566.45 1790.67 L2566.45 1798.82 L2561.8 1798.82 L2561.8 1790.67 L2546.2 1790.67 L2546.2 1786.16 L2560.57 1764.26 Z" fill="#000000" fill-rule="nonzero" fill-opacity="1" /><path clip-path="url(#clip670)" d="M2589.11 1767.34 Q2585.5 1767.34 2583.67 1770.9 Q2581.87 1774.45 2581.87 1781.58 Q2581.87 1788.68 2583.67 1792.25 Q2585.5 1795.79 2589.11 1795.79 Q2592.75 1795.79 2594.55 1792.25 Q2596.38 1788.68 2596.38 1781.58 Q2596.38 1774.45 2594.55 1770.9 Q2592.75 1767.34 2589.11 1767.34 M2589.11 1763.64 Q2594.92 1763.64 2597.98 1768.24 Q2601.06 1772.83 2601.06 1781.58 Q2601.06 1790.3 2597.98 1794.91 Q2594.92 1799.49 2589.11 1799.49 Q2583.3 1799.49 2580.22 1794.91 Q2577.17 1790.3 2577.17 1781.58 Q2577.17 1772.83 2580.22 1768.24 Q2583.3 1763.64 2589.11 1763.64 Z" fill="#000000" fill-rule="nonzero" fill-opacity="1" /><path clip-path="url(#clip670)" d="M1401.03 1841.06 L1401.03 1878.02 L1408.8 1878.02 Q1418.63 1878.02 1423.18 1873.56 Q1427.77 1869.11 1427.77 1859.49 Q1427.77 1849.94 1423.18 1845.52 Q1418.63 1841.06 1408.8 1841.06 L1401.03 1841.06 M1394.6 1835.78 L1407.81 1835.78 Q1421.63 1835.78 1428.09 1841.54 Q1434.55 1847.27 1434.55 1859.49 Q1434.55 1871.78 1428.05 1877.54 Q1421.56 1883.3 1407.81 1883.3 L1394.6 1883.3 L1394.6 1835.78 Z" fill="#000000" fill-rule="nonzero" fill-opacity="1" /><path clip-path="url(#clip670)" d="M1460.74 1865.38 Q1453.64 1865.38 1450.91 1867 Q1448.17 1868.63 1448.17 1872.54 Q1448.17 1875.66 1450.21 1877.51 Q1452.28 1879.32 1455.81 1879.32 Q1460.68 1879.32 1463.61 1875.88 Q1466.57 1872.42 1466.57 1866.69 L1466.57 1865.38 L1460.74 1865.38 M1472.42 1862.96 L1472.42 1883.3 L1466.57 1883.3 L1466.57 1877.89 Q1464.56 1881.14 1461.57 1882.7 Q1458.58 1884.22 1454.25 1884.22 Q1448.78 1884.22 1445.53 1881.17 Q1442.31 1878.08 1442.31 1872.92 Q1442.31 1866.91 1446.32 1863.85 Q1450.37 1860.8 1458.36 1860.8 L1466.57 1860.8 L1466.57 1860.23 Q1466.57 1856.18 1463.89 1853.99 Q1461.25 1851.76 1456.45 1851.76 Q1453.39 1851.76 1450.49 1852.49 Q1447.6 1853.22 1444.92 1854.69 L1444.92 1849.28 Q1448.14 1848.03 1451.16 1847.43 Q1454.19 1846.79 1457.05 1846.79 Q1464.78 1846.79 1468.6 1850.8 Q1472.42 1854.81 1472.42 1862.96 Z" fill="#000000" fill-rule="nonzero" fill-opacity="1" /><path clip-path="url(#clip670)" d="M1499.32 1886.61 Q1496.84 1892.98 1494.48 1894.92 Q1492.13 1896.86 1488.18 1896.86 L1483.5 1896.86 L1483.5 1891.96 L1486.94 1891.96 Q1489.36 1891.96 1490.69 1890.81 Q1492.03 1889.67 1493.65 1885.4 L1494.7 1882.73 L1480.29 1847.65 L1486.49 1847.65 L1497.63 1875.53 L1508.77 1847.65 L1514.98 1847.65 L1499.32 1886.61 Z" fill="#000000" fill-rule="nonzero" fill-opacity="1" /><polyline clip-path="url(#clip670)" style="stroke:#000000; stroke-linecap:round; stroke-linejoin:round; stroke-width:4; stroke-opacity:1; fill:none" points="268.826,1734.12 268.826,127.792 "/>
<polyline clip-path="url(#clip670)" style="stroke:#000000; stroke-linecap:round; stroke-linejoin:round; stroke-width:4; stroke-opacity:1; fill:none" points="268.826,1688.65 287.723,1688.65 "/>
<polyline clip-path="url(#clip670)" style="stroke:#000000; stroke-linecap:round; stroke-linejoin:round; stroke-width:4; stroke-opacity:1; fill:none" points="268.826,1303.64 287.723,1303.64 "/>
<polyline clip-path="url(#clip670)" style="stroke:#000000; stroke-linecap:round; stroke-linejoin:round; stroke-width:4; stroke-opacity:1; fill:none" points="268.826,918.634 287.723,918.634 "/>
<polyline clip-path="url(#clip670)" style="stroke:#000000; stroke-linecap:round; stroke-linejoin:round; stroke-width:4; stroke-opacity:1; fill:none" points="268.826,533.624 287.723,533.624 "/>
<polyline clip-path="url(#clip670)" style="stroke:#000000; stroke-linecap:round; stroke-linejoin:round; stroke-width:4; stroke-opacity:1; fill:none" points="268.826,148.613 287.723,148.613 "/>
<path clip-path="url(#clip670)" d="M216.561 1674.45 Q212.95 1674.45 211.121 1678.02 Q209.316 1681.56 209.316 1688.69 Q209.316 1695.8 211.121 1699.36 Q212.95 1702.9 216.561 1702.9 Q220.195 1702.9 222.001 1699.36 Q223.83 1695.8 223.83 1688.69 Q223.83 1681.56 222.001 1678.02 Q220.195 1674.45 216.561 1674.45 M216.561 1670.75 Q222.371 1670.75 225.427 1675.36 Q228.506 1679.94 228.506 1688.69 Q228.506 1697.42 225.427 1702.02 Q222.371 1706.61 216.561 1706.61 Q210.751 1706.61 207.672 1702.02 Q204.617 1697.42 204.617 1688.69 Q204.617 1679.94 207.672 1675.36 Q210.751 1670.75 216.561 1670.75 Z" fill="#000000" fill-rule="nonzero" fill-opacity="1" /><path clip-path="url(#clip670)" d="M150.265 1316.99 L166.585 1316.99 L166.585 1320.92 L144.64 1320.92 L144.64 1316.99 Q147.302 1314.23 151.886 1309.61 Q156.492 1304.95 157.673 1303.61 Q159.918 1301.09 160.798 1299.35 Q161.7 1297.59 161.7 1295.9 Q161.7 1293.15 159.756 1291.41 Q157.835 1289.67 154.733 1289.67 Q152.534 1289.67 150.08 1290.44 Q147.649 1291.2 144.872 1292.75 L144.872 1288.03 Q147.696 1286.9 150.149 1286.32 Q152.603 1285.74 154.64 1285.74 Q160.011 1285.74 163.205 1288.42 Q166.399 1291.11 166.399 1295.6 Q166.399 1297.73 165.589 1299.65 Q164.802 1301.55 162.696 1304.14 Q162.117 1304.81 159.015 1308.03 Q155.913 1311.23 150.265 1316.99 Z" fill="#000000" fill-rule="nonzero" fill-opacity="1" /><path clip-path="url(#clip670)" d="M176.446 1286.36 L194.802 1286.36 L194.802 1290.3 L180.728 1290.3 L180.728 1298.77 Q181.746 1298.42 182.765 1298.26 Q183.784 1298.08 184.802 1298.08 Q190.589 1298.08 193.969 1301.25 Q197.348 1304.42 197.348 1309.84 Q197.348 1315.42 193.876 1318.52 Q190.404 1321.6 184.084 1321.6 Q181.909 1321.6 179.64 1321.23 Q177.395 1320.86 174.987 1320.11 L174.987 1315.42 Q177.071 1316.55 179.293 1317.11 Q181.515 1317.66 183.992 1317.66 Q187.996 1317.66 190.334 1315.55 Q192.672 1313.45 192.672 1309.84 Q192.672 1306.23 190.334 1304.12 Q187.996 1302.01 183.992 1302.01 Q182.117 1302.01 180.242 1302.43 Q178.39 1302.85 176.446 1303.73 L176.446 1286.36 Z" fill="#000000" fill-rule="nonzero" fill-opacity="1" /><path clip-path="url(#clip670)" d="M216.561 1289.44 Q212.95 1289.44 211.121 1293.01 Q209.316 1296.55 209.316 1303.68 Q209.316 1310.79 211.121 1314.35 Q212.95 1317.89 216.561 1317.89 Q220.195 1317.89 222.001 1314.35 Q223.83 1310.79 223.83 1303.68 Q223.83 1296.55 222.001 1293.01 Q220.195 1289.44 216.561 1289.44 M216.561 1285.74 Q222.371 1285.74 225.427 1290.35 Q228.506 1294.93 228.506 1303.68 Q228.506 1312.41 225.427 1317.01 Q222.371 1321.6 216.561 1321.6 Q210.751 1321.6 207.672 1317.01 Q204.617 1312.41 204.617 1303.68 Q204.617 1294.93 207.672 1290.35 Q210.751 1285.74 216.561 1285.74 Z" fill="#000000" fill-rule="nonzero" fill-opacity="1" /><path clip-path="url(#clip670)" d="M146.284 901.354 L164.64 901.354 L164.64 905.289 L150.566 905.289 L150.566 913.762 Q151.585 913.414 152.603 913.252 Q153.622 913.067 154.64 913.067 Q160.427 913.067 163.807 916.238 Q167.186 919.41 167.186 924.826 Q167.186 930.405 163.714 933.507 Q160.242 936.586 153.923 936.586 Q151.747 936.586 149.478 936.215 Q147.233 935.845 144.825 935.104 L144.825 930.405 Q146.909 931.539 149.131 932.095 Q151.353 932.65 153.83 932.65 Q157.835 932.65 160.173 930.544 Q162.51 928.437 162.51 924.826 Q162.51 921.215 160.173 919.109 Q157.835 917.002 153.83 917.002 Q151.955 917.002 150.08 917.419 Q148.228 917.836 146.284 918.715 L146.284 901.354 Z" fill="#000000" fill-rule="nonzero" fill-opacity="1" /><path clip-path="url(#clip670)" d="M186.399 904.433 Q182.788 904.433 180.959 907.998 Q179.154 911.539 179.154 918.669 Q179.154 925.775 180.959 929.34 Q182.788 932.882 186.399 932.882 Q190.033 932.882 191.839 929.34 Q193.668 925.775 193.668 918.669 Q193.668 911.539 191.839 907.998 Q190.033 904.433 186.399 904.433 M186.399 900.729 Q192.209 900.729 195.265 905.336 Q198.344 909.919 198.344 918.669 Q198.344 927.396 195.265 932.002 Q192.209 936.586 186.399 936.586 Q180.589 936.586 177.51 932.002 Q174.455 927.396 174.455 918.669 Q174.455 909.919 177.51 905.336 Q180.589 900.729 186.399 900.729 Z" fill="#000000" fill-rule="nonzero" fill-opacity="1" /><path clip-path="url(#clip670)" d="M216.561 904.433 Q212.95 904.433 211.121 907.998 Q209.316 911.539 209.316 918.669 Q209.316 925.775 211.121 929.34 Q212.95 932.882 216.561 932.882 Q220.195 932.882 222.001 929.34 Q223.83 925.775 223.83 918.669 Q223.83 911.539 222.001 907.998 Q220.195 904.433 216.561 904.433 M216.561 900.729 Q222.371 900.729 225.427 905.336 Q228.506 909.919 228.506 918.669 Q228.506 927.396 225.427 932.002 Q222.371 936.586 216.561 936.586 Q210.751 936.586 207.672 932.002 Q204.617 927.396 204.617 918.669 Q204.617 909.919 207.672 905.336 Q210.751 900.729 216.561 900.729 Z" fill="#000000" fill-rule="nonzero" fill-opacity="1" /><path clip-path="url(#clip670)" d="M145.057 516.344 L167.279 516.344 L167.279 518.335 L154.733 550.904 L149.849 550.904 L161.654 520.279 L145.057 520.279 L145.057 516.344 Z" fill="#000000" fill-rule="nonzero" fill-opacity="1" /><path clip-path="url(#clip670)" d="M176.446 516.344 L194.802 516.344 L194.802 520.279 L180.728 520.279 L180.728 528.751 Q181.746 528.404 182.765 528.242 Q183.784 528.057 184.802 528.057 Q190.589 528.057 193.969 531.228 Q197.348 534.399 197.348 539.816 Q197.348 545.395 193.876 548.496 Q190.404 551.575 184.084 551.575 Q181.909 551.575 179.64 551.205 Q177.395 550.834 174.987 550.094 L174.987 545.395 Q177.071 546.529 179.293 547.084 Q181.515 547.64 183.992 547.64 Q187.996 547.64 190.334 545.534 Q192.672 543.427 192.672 539.816 Q192.672 536.205 190.334 534.098 Q187.996 531.992 183.992 531.992 Q182.117 531.992 180.242 532.409 Q178.39 532.825 176.446 533.705 L176.446 516.344 Z" fill="#000000" fill-rule="nonzero" fill-opacity="1" /><path clip-path="url(#clip670)" d="M216.561 519.423 Q212.95 519.423 211.121 522.987 Q209.316 526.529 209.316 533.659 Q209.316 540.765 211.121 544.33 Q212.95 547.871 216.561 547.871 Q220.195 547.871 222.001 544.33 Q223.83 540.765 223.83 533.659 Q223.83 526.529 222.001 522.987 Q220.195 519.423 216.561 519.423 M216.561 515.719 Q222.371 515.719 225.427 520.325 Q228.506 524.909 228.506 533.659 Q228.506 542.385 225.427 546.992 Q222.371 551.575 216.561 551.575 Q210.751 551.575 207.672 546.992 Q204.617 542.385 204.617 533.659 Q204.617 524.909 207.672 520.325 Q210.751 515.719 216.561 515.719 Z" fill="#000000" fill-rule="nonzero" fill-opacity="1" /><path clip-path="url(#clip670)" d="M116.886 161.958 L124.525 161.958 L124.525 135.593 L116.214 137.259 L116.214 133 L124.478 131.333 L129.154 131.333 L129.154 161.958 L136.793 161.958 L136.793 165.893 L116.886 165.893 L116.886 161.958 Z" fill="#000000" fill-rule="nonzero" fill-opacity="1" /><path clip-path="url(#clip670)" d="M156.237 134.412 Q152.626 134.412 150.798 137.977 Q148.992 141.519 148.992 148.648 Q148.992 155.755 150.798 159.319 Q152.626 162.861 156.237 162.861 Q159.872 162.861 161.677 159.319 Q163.506 155.755 163.506 148.648 Q163.506 141.519 161.677 137.977 Q159.872 134.412 156.237 134.412 M156.237 130.708 Q162.048 130.708 165.103 135.315 Q168.182 139.898 168.182 148.648 Q168.182 157.375 165.103 161.981 Q162.048 166.565 156.237 166.565 Q150.427 166.565 147.349 161.981 Q144.293 157.375 144.293 148.648 Q144.293 139.898 147.349 135.315 Q150.427 130.708 156.237 130.708 Z" fill="#000000" fill-rule="nonzero" fill-opacity="1" /><path clip-path="url(#clip670)" d="M186.399 134.412 Q182.788 134.412 180.959 137.977 Q179.154 141.519 179.154 148.648 Q179.154 155.755 180.959 159.319 Q182.788 162.861 186.399 162.861 Q190.033 162.861 191.839 159.319 Q193.668 155.755 193.668 148.648 Q193.668 141.519 191.839 137.977 Q190.033 134.412 186.399 134.412 M186.399 130.708 Q192.209 130.708 195.265 135.315 Q198.344 139.898 198.344 148.648 Q198.344 157.375 195.265 161.981 Q192.209 166.565 186.399 166.565 Q180.589 166.565 177.51 161.981 Q174.455 157.375 174.455 148.648 Q174.455 139.898 177.51 135.315 Q180.589 130.708 186.399 130.708 Z" fill="#000000" fill-rule="nonzero" fill-opacity="1" /><path clip-path="url(#clip670)" d="M216.561 134.412 Q212.95 134.412 211.121 137.977 Q209.316 141.519 209.316 148.648 Q209.316 155.755 211.121 159.319 Q212.95 162.861 216.561 162.861 Q220.195 162.861 222.001 159.319 Q223.83 155.755 223.83 148.648 Q223.83 141.519 222.001 137.977 Q220.195 134.412 216.561 134.412 M216.561 130.708 Q222.371 130.708 225.427 135.315 Q228.506 139.898 228.506 148.648 Q228.506 157.375 225.427 161.981 Q222.371 166.565 216.561 166.565 Q210.751 166.565 207.672 161.981 Q204.617 157.375 204.617 148.648 Q204.617 139.898 207.672 135.315 Q210.751 130.708 216.561 130.708 Z" fill="#000000" fill-rule="nonzero" fill-opacity="1" /><path clip-path="url(#clip670)" d="M14.1184 1220.36 L14.1184 1211.7 L53.8723 1190.63 L14.1184 1190.63 L14.1184 1184.39 L61.6384 1184.39 L61.6384 1193.05 L21.8846 1214.12 L61.6384 1214.12 L61.6384 1220.36 L14.1184 1220.36 Z" fill="#000000" fill-rule="nonzero" fill-opacity="1" /><path clip-path="url(#clip670)" d="M47.5702 1172.45 L25.9905 1172.45 L25.9905 1166.6 L47.3474 1166.6 Q52.4082 1166.6 54.9545 1164.62 Q57.4689 1162.65 57.4689 1158.7 Q57.4689 1153.96 54.4452 1151.22 Q51.4215 1148.45 46.2016 1148.45 L25.9905 1148.45 L25.9905 1142.6 L61.6384 1142.6 L61.6384 1148.45 L56.1639 1148.45 Q59.4104 1150.59 61.0019 1153.42 Q62.5615 1156.22 62.5615 1159.94 Q62.5615 1166.09 58.742 1169.27 Q54.9226 1172.45 47.5702 1172.45 M25.1311 1157.72 L25.1311 1157.72 Z" fill="#000000" fill-rule="nonzero" fill-opacity="1" /><path clip-path="url(#clip670)" d="M32.8336 1102.78 Q28.8869 1100.58 27.009 1097.53 Q25.1311 1094.47 25.1311 1090.34 Q25.1311 1084.77 29.046 1081.74 Q32.9291 1078.72 40.1224 1078.72 L61.6384 1078.72 L61.6384 1084.61 L40.3133 1084.61 Q35.1889 1084.61 32.7063 1086.42 Q30.2237 1088.24 30.2237 1091.96 Q30.2237 1096.51 33.2474 1099.15 Q36.2711 1101.79 41.491 1101.79 L61.6384 1101.79 L61.6384 1107.68 L40.3133 1107.68 Q35.1571 1107.68 32.7063 1109.5 Q30.2237 1111.31 30.2237 1115.1 Q30.2237 1119.59 33.2792 1122.23 Q36.3029 1124.87 41.491 1124.87 L61.6384 1124.87 L61.6384 1130.76 L25.9905 1130.76 L25.9905 1124.87 L31.5287 1124.87 Q28.2503 1122.86 26.6907 1120.06 Q25.1311 1117.26 25.1311 1113.41 Q25.1311 1109.53 27.1045 1106.82 Q29.0779 1104.09 32.8336 1102.78 Z" fill="#000000" fill-rule="nonzero" fill-opacity="1" /><path clip-path="url(#clip670)" d="M43.8463 1041.45 Q37.3851 1041.45 33.7248 1044.12 Q30.0327 1046.76 30.0327 1051.41 Q30.0327 1056.06 33.7248 1058.73 Q37.3851 1061.37 43.8463 1061.37 Q50.3075 1061.37 53.9996 1058.73 Q57.6599 1056.06 57.6599 1051.41 Q57.6599 1046.76 53.9996 1044.12 Q50.3075 1041.45 43.8463 1041.45 M31.4013 1061.37 Q28.2185 1059.53 26.6907 1056.73 Q25.1311 1053.89 25.1311 1049.98 Q25.1311 1043.48 30.2873 1039.44 Q35.4436 1035.37 43.8463 1035.37 Q52.249 1035.37 57.4052 1039.44 Q62.5615 1043.48 62.5615 1049.98 Q62.5615 1053.89 61.0337 1056.73 Q59.4741 1059.53 56.2912 1061.37 L61.6384 1061.37 L61.6384 1067.26 L12.1132 1067.26 L12.1132 1061.37 L31.4013 1061.37 Z" fill="#000000" fill-rule="nonzero" fill-opacity="1" /><path clip-path="url(#clip670)" d="M42.3504 995.169 L45.2149 995.169 L45.2149 1022.1 Q51.2623 1021.71 54.4452 1018.47 Q57.5962 1015.19 57.5962 1009.36 Q57.5962 1005.99 56.7687 1002.84 Q55.9411 999.656 54.2861 996.537 L59.8242 996.537 Q61.161 999.688 61.8612 1003 Q62.5615 1006.31 62.5615 1009.71 Q62.5615 1018.24 57.5962 1023.24 Q52.631 1028.21 44.1646 1028.21 Q35.4117 1028.21 30.2873 1023.5 Q25.1311 1018.75 25.1311 1010.73 Q25.1311 1003.54 29.7781 999.37 Q34.3932 995.169 42.3504 995.169 M40.6316 1001.03 Q35.8255 1001.09 32.9609 1003.73 Q30.0964 1006.34 30.0964 1010.67 Q30.0964 1015.57 32.8654 1018.53 Q35.6345 1021.46 40.6634 1021.9 L40.6316 1001.03 Z" fill="#000000" fill-rule="nonzero" fill-opacity="1" /><path clip-path="url(#clip670)" d="M31.465 964.9 Q30.8921 965.886 30.6375 967.064 Q30.351 968.21 30.351 969.61 Q30.351 974.576 33.5975 977.249 Q36.8122 979.891 42.8596 979.891 L61.6384 979.891 L61.6384 985.779 L25.9905 985.779 L25.9905 979.891 L31.5287 979.891 Q28.2821 978.045 26.7225 975.085 Q25.1311 972.125 25.1311 967.892 Q25.1311 967.287 25.2266 966.555 Q25.2903 965.823 25.4494 964.932 L31.465 964.9 Z" fill="#000000" fill-rule="nonzero" fill-opacity="1" /><path clip-path="url(#clip670)" d="M30.0964 924.223 Q30.0964 928.933 33.7885 931.671 Q37.4488 934.408 43.8463 934.408 Q50.2438 934.408 53.9359 931.703 Q57.5962 928.965 57.5962 924.223 Q57.5962 919.544 53.9041 916.807 Q50.212 914.07 43.8463 914.07 Q37.5124 914.07 33.8203 916.807 Q30.0964 919.544 30.0964 924.223 M25.1311 924.223 Q25.1311 916.584 30.0964 912.223 Q35.0616 907.863 43.8463 907.863 Q52.5991 907.863 57.5962 912.223 Q62.5615 916.584 62.5615 924.223 Q62.5615 931.893 57.5962 936.254 Q52.5991 940.583 43.8463 940.583 Q35.0616 940.583 30.0964 936.254 Q25.1311 931.893 25.1311 924.223 Z" fill="#000000" fill-rule="nonzero" fill-opacity="1" /><path clip-path="url(#clip670)" d="M12.1132 880.108 L16.983 880.108 L16.983 885.71 Q16.983 888.861 18.2562 890.103 Q19.5293 891.312 22.8395 891.312 L25.9905 891.312 L25.9905 881.668 L30.542 881.668 L30.542 891.312 L61.6384 891.312 L61.6384 897.2 L30.542 897.2 L30.542 902.802 L25.9905 902.802 L25.9905 897.2 L23.5079 897.2 Q17.5559 897.2 14.8505 894.431 Q12.1132 891.662 12.1132 885.647 L12.1132 880.108 Z" fill="#000000" fill-rule="nonzero" fill-opacity="1" /><path clip-path="url(#clip670)" d="M43.719 838.286 Q43.719 845.384 45.3422 848.121 Q46.9655 850.858 50.8804 850.858 Q53.9996 850.858 55.8457 848.821 Q57.6599 846.752 57.6599 843.219 Q57.6599 838.349 54.2224 835.421 Q50.7531 832.461 45.0239 832.461 L43.719 832.461 L43.719 838.286 M41.3 826.605 L61.6384 826.605 L61.6384 832.461 L56.2276 832.461 Q59.4741 834.466 61.0337 837.458 Q62.5615 840.45 62.5615 844.779 Q62.5615 850.253 59.5059 853.5 Q56.4186 856.715 51.2623 856.715 Q45.2467 856.715 42.1912 852.704 Q39.1357 848.662 39.1357 840.673 L39.1357 832.461 L38.5628 832.461 Q34.5205 832.461 32.3244 835.135 Q30.0964 837.777 30.0964 842.583 Q30.0964 845.638 30.8284 848.535 Q31.5605 851.431 33.0246 854.105 L27.6137 854.105 Q26.3724 850.89 25.7677 847.866 Q25.1311 844.842 25.1311 841.978 Q25.1311 834.244 29.1415 830.424 Q33.1519 826.605 41.3 826.605 Z" fill="#000000" fill-rule="nonzero" fill-opacity="1" /><path clip-path="url(#clip670)" d="M43.4007 791.084 Q37.035 791.084 33.5338 793.726 Q30.0327 796.336 30.0327 801.078 Q30.0327 805.789 33.5338 808.431 Q37.035 811.041 43.4007 811.041 Q49.7346 811.041 53.2357 808.431 Q56.7368 805.789 56.7368 801.078 Q56.7368 796.336 53.2357 793.726 Q49.7346 791.084 43.4007 791.084 M57.2143 785.228 Q66.3172 785.228 70.7414 789.27 Q75.1974 793.312 75.1974 801.651 Q75.1974 804.739 74.72 807.476 Q74.2744 810.213 73.3195 812.791 L67.6222 812.791 Q69.0227 810.213 69.6911 807.699 Q70.3595 805.184 70.3595 802.574 Q70.3595 796.813 67.3358 793.949 Q64.3439 791.084 58.2646 791.084 L55.3682 791.084 Q58.5192 792.898 60.0788 795.731 Q61.6384 798.564 61.6384 802.511 Q61.6384 809.067 56.6414 813.078 Q51.6443 817.088 43.4007 817.088 Q35.1253 817.088 30.1282 813.078 Q25.1311 809.067 25.1311 802.511 Q25.1311 798.564 26.6907 795.731 Q28.2503 792.898 31.4013 791.084 L25.9905 791.084 L25.9905 785.228 L57.2143 785.228 Z" fill="#000000" fill-rule="nonzero" fill-opacity="1" /><path clip-path="url(#clip670)" d="M42.3504 742.673 L45.2149 742.673 L45.2149 769.6 Q51.2623 769.218 54.4452 765.971 Q57.5962 762.693 57.5962 756.868 Q57.5962 753.495 56.7687 750.344 Q55.9411 747.161 54.2861 744.041 L59.8242 744.041 Q61.161 747.193 61.8612 750.503 Q62.5615 753.813 62.5615 757.219 Q62.5615 765.749 57.5962 770.746 Q52.631 775.711 44.1646 775.711 Q35.4117 775.711 30.2873 771 Q25.1311 766.258 25.1311 758.237 Q25.1311 751.044 29.7781 746.874 Q34.3932 742.673 42.3504 742.673 M40.6316 748.529 Q35.8255 748.593 32.9609 751.235 Q30.0964 753.845 30.0964 758.173 Q30.0964 763.075 32.8654 766.035 Q35.6345 768.963 40.6634 769.409 L40.6316 748.529 Z" fill="#000000" fill-rule="nonzero" fill-opacity="1" /><path clip-path="url(#clip670)" d="M40.1224 703.428 L61.6384 703.428 L61.6384 709.285 L40.3133 709.285 Q35.2526 709.285 32.7381 711.258 Q30.2237 713.231 30.2237 717.178 Q30.2237 721.921 33.2474 724.658 Q36.2711 727.395 41.491 727.395 L61.6384 727.395 L61.6384 733.283 L25.9905 733.283 L25.9905 727.395 L31.5287 727.395 Q28.314 725.294 26.7225 722.462 Q25.1311 719.597 25.1311 715.873 Q25.1311 709.73 28.9505 706.579 Q32.7381 703.428 40.1224 703.428 Z" fill="#000000" fill-rule="nonzero" fill-opacity="1" /><path clip-path="url(#clip670)" d="M15.869 685.954 L25.9905 685.954 L25.9905 673.891 L30.542 673.891 L30.542 685.954 L49.8937 685.954 Q54.2542 685.954 55.4955 684.777 Q56.7368 683.567 56.7368 679.907 L56.7368 673.891 L61.6384 673.891 L61.6384 679.907 Q61.6384 686.686 59.124 689.265 Q56.5777 691.843 49.8937 691.843 L30.542 691.843 L30.542 696.14 L25.9905 696.14 L25.9905 691.843 L15.869 691.843 L15.869 685.954 Z" fill="#000000" fill-rule="nonzero" fill-opacity="1" /><path clip-path="url(#clip670)" d="M27.0408 643.463 L32.579 643.463 Q31.3059 645.946 30.6693 648.62 Q30.0327 651.293 30.0327 654.158 Q30.0327 658.518 31.3695 660.714 Q32.7063 662.879 35.3799 662.879 Q37.4169 662.879 38.5946 661.319 Q39.7404 659.76 40.7908 655.049 L41.2364 653.044 Q42.5732 646.805 45.0239 644.195 Q47.4429 641.554 51.8034 641.554 Q56.7687 641.554 59.6651 645.5 Q62.5615 649.415 62.5615 656.29 Q62.5615 659.155 61.9886 662.274 Q61.4475 665.361 60.3335 668.799 L54.2861 668.799 Q55.973 665.552 56.8323 662.401 Q57.6599 659.25 57.6599 656.163 Q57.6599 652.025 56.2594 649.797 Q54.8271 647.569 52.249 647.569 Q49.8619 647.569 48.5887 649.192 Q47.3156 650.784 46.1379 656.227 L45.6605 658.264 Q44.5147 663.706 42.1594 666.125 Q39.7722 668.544 35.6345 668.544 Q30.6056 668.544 27.8684 664.979 Q25.1311 661.415 25.1311 654.858 Q25.1311 651.611 25.6085 648.747 Q26.086 645.882 27.0408 643.463 Z" fill="#000000" fill-rule="nonzero" fill-opacity="1" /><path clip-path="url(#clip670)" d="M1187.15 14.0809 L1187.15 22.0612 Q1182.49 19.8332 1178.36 18.7395 Q1174.23 17.6457 1170.38 17.6457 Q1163.69 17.6457 1160.05 20.2383 Q1156.44 22.8309 1156.44 27.611 Q1156.44 31.6214 1158.83 33.6873 Q1161.26 35.7128 1167.99 36.9686 L1172.93 37.9813 Q1182.08 39.7232 1186.42 44.1387 Q1190.79 48.5136 1190.79 55.8863 Q1190.79 64.6767 1184.88 69.2137 Q1179.01 73.7508 1167.62 73.7508 Q1163.33 73.7508 1158.47 72.7785 Q1153.65 71.8063 1148.46 69.9024 L1148.46 61.4765 Q1153.44 64.2716 1158.22 65.6895 Q1163 67.1073 1167.62 67.1073 Q1174.63 67.1073 1178.44 64.3527 Q1182.25 61.598 1182.25 56.4939 Q1182.25 52.0379 1179.49 49.5264 Q1176.78 47.0148 1170.54 45.759 L1165.56 44.7868 Q1156.4 42.9639 1152.31 39.075 Q1148.22 35.1862 1148.22 28.2591 Q1148.22 20.2383 1153.85 15.6203 Q1159.52 11.0023 1169.45 11.0023 Q1173.7 11.0023 1178.11 11.7719 Q1182.53 12.5416 1187.15 14.0809 Z" fill="#000000" fill-rule="nonzero" fill-opacity="1" /><path clip-path="url(#clip670)" d="M1203.55 12.096 L1241.79 12.096 L1241.79 18.9825 L1211.74 18.9825 L1211.74 36.8875 L1240.54 36.8875 L1240.54 43.7741 L1211.74 43.7741 L1211.74 65.6895 L1242.52 65.6895 L1242.52 72.576 L1203.55 72.576 L1203.55 12.096 Z" fill="#000000" fill-rule="nonzero" fill-opacity="1" /><path clip-path="url(#clip670)" d="M1255.97 12.096 L1264.16 12.096 L1264.16 72.576 L1255.97 72.576 L1255.97 12.096 Z" fill="#000000" fill-rule="nonzero" fill-opacity="1" /><path clip-path="url(#clip670)" d="M1309.12 44.2197 Q1311.75 45.1109 1314.22 48.0275 Q1316.74 50.9442 1319.25 56.0483 L1327.55 72.576 L1318.76 72.576 L1311.02 57.061 Q1308.03 50.9847 1305.19 48.9997 Q1302.4 47.0148 1297.53 47.0148 L1288.62 47.0148 L1288.62 72.576 L1280.44 72.576 L1280.44 12.096 L1298.91 12.096 Q1309.28 12.096 1314.39 16.4305 Q1319.49 20.7649 1319.49 29.5149 Q1319.49 35.2267 1316.82 38.994 Q1314.18 42.7613 1309.12 44.2197 M1288.62 18.8205 L1288.62 40.2903 L1298.91 40.2903 Q1304.83 40.2903 1307.82 37.5762 Q1310.86 34.8216 1310.86 29.5149 Q1310.86 24.2082 1307.82 21.5346 Q1304.83 18.8205 1298.91 18.8205 L1288.62 18.8205 Z" fill="#000000" fill-rule="nonzero" fill-opacity="1" /><path clip-path="url(#clip670)" d="M1372.64 18.8205 L1372.64 65.8515 L1382.52 65.8515 Q1395.04 65.8515 1400.83 60.1802 Q1406.67 54.509 1406.67 42.2752 Q1406.67 30.1225 1400.83 24.4918 Q1395.04 18.8205 1382.52 18.8205 L1372.64 18.8205 M1364.46 12.096 L1381.27 12.096 Q1398.85 12.096 1407.07 19.4281 Q1415.29 26.7198 1415.29 42.2752 Q1415.29 57.9117 1407.03 65.2439 Q1398.77 72.576 1381.27 72.576 L1364.46 72.576 L1364.46 12.096 Z" fill="#000000" fill-rule="nonzero" fill-opacity="1" /><path clip-path="url(#clip670)" d="M1446.89 76.7889 Q1443.73 84.8907 1440.73 87.3618 Q1437.74 89.8329 1432.71 89.8329 L1426.76 89.8329 L1426.76 83.5945 L1431.13 83.5945 Q1434.21 83.5945 1435.91 82.1361 Q1437.61 80.6778 1439.68 75.2496 L1441.02 71.8468 L1422.67 27.2059 L1430.57 27.2059 L1444.74 62.6918 L1458.92 27.2059 L1466.82 27.2059 L1446.89 76.7889 Z" fill="#000000" fill-rule="nonzero" fill-opacity="1" /><path clip-path="url(#clip670)" d="M1514.83 45.1919 L1514.83 72.576 L1507.37 72.576 L1507.37 45.4349 Q1507.37 38.994 1504.86 35.7938 Q1502.35 32.5936 1497.33 32.5936 Q1491.29 32.5936 1487.81 36.4419 Q1484.32 40.2903 1484.32 46.9338 L1484.32 72.576 L1476.83 72.576 L1476.83 27.2059 L1484.32 27.2059 L1484.32 34.2544 Q1487 30.163 1490.6 28.1376 Q1494.25 26.1121 1498.99 26.1121 Q1506.8 26.1121 1510.81 30.9732 Q1514.83 35.7938 1514.83 45.1919 Z" fill="#000000" fill-rule="nonzero" fill-opacity="1" /><path clip-path="url(#clip670)" d="M1550.31 49.7694 Q1541.28 49.7694 1537.79 51.8354 Q1534.31 53.9013 1534.31 58.8839 Q1534.31 62.8538 1536.9 65.2034 Q1539.54 67.5124 1544.03 67.5124 Q1550.23 67.5124 1553.96 63.1374 Q1557.72 58.7219 1557.72 51.4303 L1557.72 49.7694 L1550.31 49.7694 M1565.18 46.6907 L1565.18 72.576 L1557.72 72.576 L1557.72 65.6895 Q1555.17 69.8214 1551.36 71.8063 Q1547.56 73.7508 1542.05 73.7508 Q1535.08 73.7508 1530.95 69.8619 Q1526.86 65.9325 1526.86 59.3701 Q1526.86 51.7138 1531.96 47.825 Q1537.11 43.9361 1547.27 43.9361 L1557.72 43.9361 L1557.72 43.2069 Q1557.72 38.0623 1554.32 35.2672 Q1550.96 32.4315 1544.84 32.4315 Q1540.95 32.4315 1537.27 33.3632 Q1533.58 34.295 1530.18 36.1584 L1530.18 29.2718 Q1534.27 27.692 1538.12 26.9223 Q1541.97 26.1121 1545.61 26.1121 Q1555.46 26.1121 1560.32 31.2163 Q1565.18 36.3204 1565.18 46.6907 Z" fill="#000000" fill-rule="nonzero" fill-opacity="1" /><path clip-path="url(#clip670)" d="M1615.85 35.9153 Q1618.65 30.8922 1622.54 28.5022 Q1626.43 26.1121 1631.69 26.1121 Q1638.78 26.1121 1642.63 31.0947 Q1646.48 36.0368 1646.48 45.1919 L1646.48 72.576 L1638.99 72.576 L1638.99 45.4349 Q1638.99 38.913 1636.68 35.7533 Q1634.37 32.5936 1629.63 32.5936 Q1623.83 32.5936 1620.47 36.4419 Q1617.11 40.2903 1617.11 46.9338 L1617.11 72.576 L1609.62 72.576 L1609.62 45.4349 Q1609.62 38.8725 1607.31 35.7533 Q1605 32.5936 1600.18 32.5936 Q1594.47 32.5936 1591.1 36.4824 Q1587.74 40.3308 1587.74 46.9338 L1587.74 72.576 L1580.25 72.576 L1580.25 27.2059 L1587.74 27.2059 L1587.74 34.2544 Q1590.29 30.082 1593.86 28.0971 Q1597.42 26.1121 1602.32 26.1121 Q1607.27 26.1121 1610.71 28.6237 Q1614.19 31.1352 1615.85 35.9153 Z" fill="#000000" fill-rule="nonzero" fill-opacity="1" /><path clip-path="url(#clip670)" d="M1661.35 27.2059 L1668.8 27.2059 L1668.8 72.576 L1661.35 72.576 L1661.35 27.2059 M1661.35 9.54393 L1668.8 9.54393 L1668.8 18.9825 L1661.35 18.9825 L1661.35 9.54393 Z" fill="#000000" fill-rule="nonzero" fill-opacity="1" /><path clip-path="url(#clip670)" d="M1717.05 28.9478 L1717.05 35.9153 Q1713.89 34.1734 1710.69 33.3227 Q1707.53 32.4315 1704.29 32.4315 Q1697.03 32.4315 1693.02 37.0496 Q1689.01 41.6271 1689.01 49.9314 Q1689.01 58.2358 1693.02 62.8538 Q1697.03 67.4314 1704.29 67.4314 Q1707.53 67.4314 1710.69 66.5807 Q1713.89 65.6895 1717.05 63.9476 L1717.05 70.8341 Q1713.93 72.2924 1710.56 73.0216 Q1707.24 73.7508 1703.48 73.7508 Q1693.23 73.7508 1687.19 67.3098 Q1681.16 60.8689 1681.16 49.9314 Q1681.16 38.832 1687.23 32.472 Q1693.35 26.1121 1703.96 26.1121 Q1707.41 26.1121 1710.69 26.8413 Q1713.97 27.5299 1717.05 28.9478 Z" fill="#000000" fill-rule="nonzero" fill-opacity="1" /><path clip-path="url(#clip670)" d="M1758.93 28.5427 L1758.93 35.5912 Q1755.77 33.9709 1752.37 33.1607 Q1748.97 32.3505 1745.32 32.3505 Q1739.77 32.3505 1736.98 34.0519 Q1734.22 35.7533 1734.22 39.156 Q1734.22 41.7486 1736.21 43.2475 Q1738.19 44.7058 1744.19 46.0426 L1746.74 46.6097 Q1754.68 48.3111 1758 51.4303 Q1761.36 54.509 1761.36 60.0587 Q1761.36 66.3781 1756.34 70.0644 Q1751.36 73.7508 1742.61 73.7508 Q1738.96 73.7508 1734.99 73.0216 Q1731.06 72.3329 1726.69 70.9151 L1726.69 63.2184 Q1730.82 65.3654 1734.83 66.4591 Q1738.84 67.5124 1742.77 67.5124 Q1748.04 67.5124 1750.87 65.73 Q1753.71 63.9071 1753.71 60.6258 Q1753.71 57.5877 1751.64 55.9673 Q1749.62 54.3469 1742.69 52.8481 L1740.1 52.2405 Q1733.17 50.7821 1730.09 47.7845 Q1727.01 44.7463 1727.01 39.4801 Q1727.01 33.0797 1731.55 29.5959 Q1736.09 26.1121 1744.43 26.1121 Q1748.56 26.1121 1752.21 26.7198 Q1755.85 27.3274 1758.93 28.5427 Z" fill="#000000" fill-rule="nonzero" fill-opacity="1" /><polyline clip-path="url(#clip671)" style="stroke:#0000ff; stroke-linecap:round; stroke-linejoin:round; stroke-width:8; stroke-opacity:1; fill:none" points="335.956,173.254 391.897,174.794 447.839,182.494 503.781,188.655 559.723,193.275 615.664,200.975 671.606,210.215 727.548,227.156 783.49,244.096 839.431,256.416 895.373,273.357 951.315,299.538 1007.26,336.499 1063.2,367.299 1119.14,415.041 1175.08,464.322 1231.02,501.283 1286.97,564.425 1342.91,607.546 1398.85,667.607 1454.79,735.369 1510.73,806.211 1566.67,872.433 1622.62,929.415 1678.56,1017.2 1734.5,1058.78 1790.44,1125 1846.38,1152.72 1902.32,1209.7 1958.27,1246.66 2014.21,1277.46 2070.15,1306.72 2126.09,1339.07 2182.03,1351.39 2237.98,1368.33 2293.92,1380.65 2349.86,1385.27 2405.8,1396.05 2461.74,1400.67 2517.68,1412.99 2573.63,1414.53 "/>
<polyline clip-path="url(#clip671)" style="stroke:#ffa500; stroke-linecap:round; stroke-linejoin:round; stroke-width:8; stroke-opacity:1; fill:none" points="335.956,1679.41 391.897,1677.87 447.839,1679.41 503.781,1674.79 559.723,1677.87 615.664,1676.33 671.606,1671.71 727.548,1662.47 783.49,1654.77 839.431,1659.39 895.373,1659.39 951.315,1645.53 1007.26,1625.51 1063.2,1620.89 1119.14,1610.11 1175.08,1591.63 1231.02,1602.41 1286.97,1588.55 1342.91,1582.39 1398.85,1585.47 1454.79,1560.83 1510.73,1550.05 1566.67,1551.59 1622.62,1565.45 1678.56,1543.89 1734.5,1559.29 1790.44,1580.85 1846.38,1594.71 1902.32,1603.95 1958.27,1594.71 2014.21,1620.89 2070.15,1628.59 2126.09,1627.05 2182.03,1643.99 2237.98,1659.39 2293.92,1659.39 2349.86,1671.71 2405.8,1673.25 2461.74,1673.25 2517.68,1671.71 2573.63,1674.79 "/>
<polyline clip-path="url(#clip671)" style="stroke:#ff0000; stroke-linecap:round; stroke-linejoin:round; stroke-width:8; stroke-opacity:1; fill:none" points="335.956,1673.25 391.897,1679.41 447.839,1671.71 503.781,1676.33 559.723,1671.71 615.664,1671.71 671.606,1670.17 727.548,1665.55 783.49,1659.39 839.431,1647.07 895.373,1634.75 951.315,1633.21 1007.26,1636.29 1063.2,1622.43 1119.14,1603.95 1175.08,1591.63 1231.02,1563.91 1286.97,1540.81 1342.91,1539.27 1398.85,1511.55 1454.79,1513.09 1510.73,1477.67 1566.67,1453.03 1622.62,1437.63 1678.56,1425.31 1734.5,1437.63 1790.44,1406.83 1846.38,1442.25 1902.32,1429.93 1958.27,1476.13 2014.21,1453.03 2070.15,1471.51 2126.09,1494.61 2182.03,1514.63 2237.98,1534.65 2293.92,1563.91 2349.86,1576.23 2405.8,1585.47 2461.74,1610.11 2517.68,1614.73 2573.63,1625.51 "/>
<polyline clip-path="url(#clip671)" style="stroke:#008000; stroke-linecap:round; stroke-linejoin:round; stroke-width:8; stroke-opacity:1; fill:none" points="335.956,1688.65 391.897,1682.49 447.839,1680.95 503.781,1674.79 559.723,1671.71 615.664,1665.55 671.606,1662.47 727.548,1659.39 783.49,1656.31 839.431,1651.69 895.373,1647.07 951.315,1636.29 1007.26,1616.27 1063.2,1603.95 1119.14,1585.47 1175.08,1566.99 1231.02,1546.97 1286.97,1520.79 1342.91,1485.37 1398.85,1449.95 1454.79,1405.29 1510.73,1380.65 1566.67,1337.53 1622.62,1282.08 1678.56,1228.18 1734.5,1158.88 1790.44,1101.9 1846.38,1024.9 1902.32,970.996 1958.27,897.074 2014.21,863.193 2070.15,807.751 2126.09,753.85 2182.03,704.568 2237.98,652.207 2293.92,610.626 2349.86,581.365 2405.8,559.805 2461.74,530.544 2517.68,515.143 2573.63,499.743 "/>
<path clip-path="url(#clip670)" d="M2055.8 440.536 L2561.69 440.536 L2561.69 181.336 L2055.8 181.336  Z" fill="#ffffff" fill-rule="evenodd" fill-opacity="1"/>
<polyline clip-path="url(#clip670)" style="stroke:#000000; stroke-linecap:round; stroke-linejoin:round; stroke-width:4; stroke-opacity:1; fill:none" points="2055.8,440.536 2561.69,440.536 2561.69,181.336 2055.8,181.336 2055.8,440.536 "/>
<polyline clip-path="url(#clip670)" style="stroke:#0000ff; stroke-linecap:round; stroke-linejoin:round; stroke-width:8; stroke-opacity:1; fill:none" points="2082.15,233.176 2240.28,233.176 "/>
<path clip-path="url(#clip670)" d="M2288.88 217.031 L2288.88 221.591 Q2286.22 220.318 2283.86 219.693 Q2281.5 219.068 2279.3 219.068 Q2275.48 219.068 2273.39 220.549 Q2271.33 222.031 2271.33 224.762 Q2271.33 227.054 2272.7 228.234 Q2274.09 229.392 2277.93 230.109 L2280.75 230.688 Q2285.99 231.683 2288.46 234.206 Q2290.96 236.706 2290.96 240.919 Q2290.96 245.942 2287.58 248.535 Q2284.23 251.128 2277.72 251.128 Q2275.27 251.128 2272.49 250.572 Q2269.74 250.016 2266.77 248.929 L2266.77 244.114 Q2269.62 245.711 2272.35 246.521 Q2275.08 247.331 2277.72 247.331 Q2281.73 247.331 2283.9 245.757 Q2286.08 244.183 2286.08 241.267 Q2286.08 238.72 2284.5 237.285 Q2282.95 235.85 2279.39 235.132 L2276.54 234.577 Q2271.31 233.535 2268.97 231.313 Q2266.63 229.091 2266.63 225.132 Q2266.63 220.549 2269.85 217.91 Q2273.09 215.271 2278.76 215.271 Q2281.19 215.271 2283.72 215.711 Q2286.24 216.151 2288.88 217.031 Z" fill="#000000" fill-rule="nonzero" fill-opacity="1" /><path clip-path="url(#clip670)" d="M2297.63 240.225 L2297.63 224.531 L2301.89 224.531 L2301.89 240.063 Q2301.89 243.743 2303.32 245.595 Q2304.76 247.424 2307.63 247.424 Q2311.08 247.424 2313.07 245.225 Q2315.08 243.026 2315.08 239.229 L2315.08 224.531 L2319.34 224.531 L2319.34 250.456 L2315.08 250.456 L2315.08 246.475 Q2313.53 248.836 2311.47 249.993 Q2309.44 251.128 2306.73 251.128 Q2302.26 251.128 2299.94 248.35 Q2297.63 245.572 2297.63 240.225 M2308.35 223.906 L2308.35 223.906 Z" fill="#000000" fill-rule="nonzero" fill-opacity="1" /><path clip-path="url(#clip670)" d="M2344.64 225.294 L2344.64 229.322 Q2342.84 228.396 2340.89 227.933 Q2338.95 227.47 2336.87 227.47 Q2333.69 227.47 2332.1 228.443 Q2330.52 229.415 2330.52 231.359 Q2330.52 232.841 2331.66 233.697 Q2332.79 234.53 2336.22 235.294 L2337.68 235.618 Q2342.21 236.591 2344.11 238.373 Q2346.03 240.132 2346.03 243.304 Q2346.03 246.915 2343.16 249.021 Q2340.31 251.128 2335.31 251.128 Q2333.23 251.128 2330.96 250.711 Q2328.72 250.317 2326.22 249.507 L2326.22 245.109 Q2328.58 246.336 2330.87 246.961 Q2333.16 247.563 2335.41 247.563 Q2338.42 247.563 2340.04 246.544 Q2341.66 245.503 2341.66 243.628 Q2341.66 241.892 2340.48 240.966 Q2339.32 240.04 2335.36 239.183 L2333.88 238.836 Q2329.92 238.003 2328.16 236.29 Q2326.4 234.554 2326.4 231.544 Q2326.4 227.887 2329 225.896 Q2331.59 223.906 2336.36 223.906 Q2338.72 223.906 2340.8 224.253 Q2342.88 224.6 2344.64 225.294 Z" fill="#000000" fill-rule="nonzero" fill-opacity="1" /><path clip-path="url(#clip670)" d="M2371.47 225.526 L2371.47 229.507 Q2369.67 228.512 2367.84 228.026 Q2366.03 227.517 2364.18 227.517 Q2360.04 227.517 2357.75 230.155 Q2355.45 232.771 2355.45 237.517 Q2355.45 242.262 2357.75 244.901 Q2360.04 247.516 2364.18 247.516 Q2366.03 247.516 2367.84 247.03 Q2369.67 246.521 2371.47 245.526 L2371.47 249.461 Q2369.69 250.294 2367.77 250.711 Q2365.87 251.128 2363.72 251.128 Q2357.86 251.128 2354.41 247.447 Q2350.96 243.767 2350.96 237.517 Q2350.96 231.174 2354.43 227.54 Q2357.93 223.906 2364 223.906 Q2365.96 223.906 2367.84 224.322 Q2369.71 224.716 2371.47 225.526 Z" fill="#000000" fill-rule="nonzero" fill-opacity="1" /><path clip-path="url(#clip670)" d="M2401.06 236.429 L2401.06 238.512 L2381.47 238.512 Q2381.75 242.91 2384.11 245.225 Q2386.49 247.516 2390.73 247.516 Q2393.18 247.516 2395.48 246.915 Q2397.79 246.313 2400.06 245.109 L2400.06 249.137 Q2397.77 250.109 2395.36 250.618 Q2392.95 251.128 2390.48 251.128 Q2384.27 251.128 2380.64 247.516 Q2377.03 243.905 2377.03 237.748 Q2377.03 231.382 2380.45 227.655 Q2383.9 223.906 2389.74 223.906 Q2394.97 223.906 2398 227.285 Q2401.06 230.642 2401.06 236.429 M2396.8 235.179 Q2396.75 231.683 2394.83 229.6 Q2392.93 227.517 2389.78 227.517 Q2386.22 227.517 2384.06 229.53 Q2381.93 231.544 2381.61 235.202 L2396.8 235.179 Z" fill="#000000" fill-rule="nonzero" fill-opacity="1" /><path clip-path="url(#clip670)" d="M2412.17 246.567 L2412.17 260.317 L2407.88 260.317 L2407.88 224.531 L2412.17 224.531 L2412.17 228.466 Q2413.51 226.151 2415.55 225.04 Q2417.61 223.906 2420.45 223.906 Q2425.18 223.906 2428.12 227.655 Q2431.08 231.405 2431.08 237.517 Q2431.08 243.628 2428.12 247.378 Q2425.18 251.128 2420.45 251.128 Q2417.61 251.128 2415.55 250.016 Q2413.51 248.882 2412.17 246.567 M2426.66 237.517 Q2426.66 232.817 2424.71 230.155 Q2422.79 227.47 2419.41 227.47 Q2416.03 227.47 2414.09 230.155 Q2412.17 232.817 2412.17 237.517 Q2412.17 242.216 2414.09 244.901 Q2416.03 247.563 2419.41 247.563 Q2422.79 247.563 2424.71 244.901 Q2426.66 242.216 2426.66 237.517 Z" fill="#000000" fill-rule="nonzero" fill-opacity="1" /><path clip-path="url(#clip670)" d="M2442.35 217.169 L2442.35 224.531 L2451.12 224.531 L2451.12 227.841 L2442.35 227.841 L2442.35 241.915 Q2442.35 245.086 2443.21 245.989 Q2444.09 246.891 2446.75 246.891 L2451.12 246.891 L2451.12 250.456 L2446.75 250.456 Q2441.82 250.456 2439.94 248.628 Q2438.07 246.776 2438.07 241.915 L2438.07 227.841 L2434.94 227.841 L2434.94 224.531 L2438.07 224.531 L2438.07 217.169 L2442.35 217.169 Z" fill="#000000" fill-rule="nonzero" fill-opacity="1" /><path clip-path="url(#clip670)" d="M2456.73 224.531 L2460.99 224.531 L2460.99 250.456 L2456.73 250.456 L2456.73 224.531 M2456.73 214.438 L2460.99 214.438 L2460.99 219.831 L2456.73 219.831 L2456.73 214.438 Z" fill="#000000" fill-rule="nonzero" fill-opacity="1" /><path clip-path="url(#clip670)" d="M2488.51 237.517 Q2488.51 232.817 2486.56 230.155 Q2484.64 227.47 2481.26 227.47 Q2477.88 227.47 2475.94 230.155 Q2474.02 232.817 2474.02 237.517 Q2474.02 242.216 2475.94 244.901 Q2477.88 247.563 2481.26 247.563 Q2484.64 247.563 2486.56 244.901 Q2488.51 242.216 2488.51 237.517 M2474.02 228.466 Q2475.36 226.151 2477.4 225.04 Q2479.46 223.906 2482.3 223.906 Q2487.03 223.906 2489.97 227.655 Q2492.93 231.405 2492.93 237.517 Q2492.93 243.628 2489.97 247.378 Q2487.03 251.128 2482.3 251.128 Q2479.46 251.128 2477.4 250.016 Q2475.36 248.882 2474.02 246.567 L2474.02 250.456 L2469.74 250.456 L2469.74 214.438 L2474.02 214.438 L2474.02 228.466 Z" fill="#000000" fill-rule="nonzero" fill-opacity="1" /><path clip-path="url(#clip670)" d="M2499.99 214.438 L2504.25 214.438 L2504.25 250.456 L2499.99 250.456 L2499.99 214.438 Z" fill="#000000" fill-rule="nonzero" fill-opacity="1" /><path clip-path="url(#clip670)" d="M2535.34 236.429 L2535.34 238.512 L2515.75 238.512 Q2516.03 242.91 2518.39 245.225 Q2520.78 247.516 2525.01 247.516 Q2527.47 247.516 2529.76 246.915 Q2532.07 246.313 2534.34 245.109 L2534.34 249.137 Q2532.05 250.109 2529.64 250.618 Q2527.23 251.128 2524.76 251.128 Q2518.55 251.128 2514.92 247.516 Q2511.31 243.905 2511.31 237.748 Q2511.31 231.382 2514.74 227.655 Q2518.18 223.906 2524.02 223.906 Q2529.25 223.906 2532.28 227.285 Q2535.34 230.642 2535.34 236.429 M2531.08 235.179 Q2531.03 231.683 2529.11 229.6 Q2527.21 227.517 2524.06 227.517 Q2520.5 227.517 2518.35 229.53 Q2516.22 231.544 2515.89 235.202 L2531.08 235.179 Z" fill="#000000" fill-rule="nonzero" fill-opacity="1" /><polyline clip-path="url(#clip670)" style="stroke:#ffa500; stroke-linecap:round; stroke-linejoin:round; stroke-width:8; stroke-opacity:1; fill:none" points="2082.15,285.016 2240.28,285.016 "/>
<path clip-path="url(#clip670)" d="M2266.63 267.736 L2288.49 267.736 L2288.49 271.671 L2271.31 271.671 L2271.31 281.903 L2287.77 281.903 L2287.77 285.838 L2271.31 285.838 L2271.31 298.361 L2288.9 298.361 L2288.9 302.296 L2266.63 302.296 L2266.63 267.736 Z" fill="#000000" fill-rule="nonzero" fill-opacity="1" /><path clip-path="url(#clip670)" d="M2317.95 276.371 L2308.58 288.986 L2318.44 302.296 L2313.42 302.296 L2305.87 292.111 L2298.32 302.296 L2293.3 302.296 L2303.37 288.732 L2294.16 276.371 L2299.18 276.371 L2306.06 285.607 L2312.93 276.371 L2317.95 276.371 Z" fill="#000000" fill-rule="nonzero" fill-opacity="1" /><path clip-path="url(#clip670)" d="M2328.58 298.407 L2328.58 312.157 L2324.3 312.157 L2324.3 276.371 L2328.58 276.371 L2328.58 280.306 Q2329.92 277.991 2331.96 276.88 Q2334.02 275.746 2336.87 275.746 Q2341.59 275.746 2344.53 279.495 Q2347.49 283.245 2347.49 289.357 Q2347.49 295.468 2344.53 299.218 Q2341.59 302.968 2336.87 302.968 Q2334.02 302.968 2331.96 301.856 Q2329.92 300.722 2328.58 298.407 M2343.07 289.357 Q2343.07 284.657 2341.12 281.995 Q2339.2 279.31 2335.82 279.31 Q2332.44 279.31 2330.5 281.995 Q2328.58 284.657 2328.58 289.357 Q2328.58 294.056 2330.5 296.741 Q2332.44 299.403 2335.82 299.403 Q2339.2 299.403 2341.12 296.741 Q2343.07 294.056 2343.07 289.357 Z" fill="#000000" fill-rule="nonzero" fill-opacity="1" /><path clip-path="url(#clip670)" d="M2364.6 279.357 Q2361.17 279.357 2359.18 282.042 Q2357.19 284.704 2357.19 289.357 Q2357.19 294.009 2359.16 296.694 Q2361.15 299.356 2364.6 299.356 Q2368 299.356 2369.99 296.671 Q2371.98 293.986 2371.98 289.357 Q2371.98 284.75 2369.99 282.065 Q2368 279.357 2364.6 279.357 M2364.6 275.746 Q2370.15 275.746 2373.32 279.357 Q2376.5 282.968 2376.5 289.357 Q2376.5 295.722 2373.32 299.356 Q2370.15 302.968 2364.6 302.968 Q2359.02 302.968 2355.85 299.356 Q2352.7 295.722 2352.7 289.357 Q2352.7 282.968 2355.85 279.357 Q2359.02 275.746 2364.6 275.746 Z" fill="#000000" fill-rule="nonzero" fill-opacity="1" /><path clip-path="url(#clip670)" d="M2400.08 277.134 L2400.08 281.162 Q2398.28 280.236 2396.33 279.773 Q2394.39 279.31 2392.31 279.31 Q2389.13 279.31 2387.54 280.283 Q2385.96 281.255 2385.96 283.199 Q2385.96 284.681 2387.1 285.537 Q2388.23 286.37 2391.66 287.134 L2393.12 287.458 Q2397.65 288.431 2399.55 290.213 Q2401.47 291.972 2401.47 295.144 Q2401.47 298.755 2398.6 300.861 Q2395.75 302.968 2390.75 302.968 Q2388.67 302.968 2386.4 302.551 Q2384.16 302.157 2381.66 301.347 L2381.66 296.949 Q2384.02 298.176 2386.31 298.801 Q2388.6 299.403 2390.85 299.403 Q2393.86 299.403 2395.48 298.384 Q2397.1 297.343 2397.1 295.468 Q2397.1 293.732 2395.92 292.806 Q2394.76 291.88 2390.8 291.023 L2389.32 290.676 Q2385.36 289.843 2383.6 288.13 Q2381.84 286.394 2381.84 283.384 Q2381.84 279.727 2384.43 277.736 Q2387.03 275.746 2391.8 275.746 Q2394.16 275.746 2396.24 276.093 Q2398.32 276.44 2400.08 277.134 Z" fill="#000000" fill-rule="nonzero" fill-opacity="1" /><path clip-path="url(#clip670)" d="M2430.43 288.269 L2430.43 290.352 L2410.85 290.352 Q2411.12 294.75 2413.49 297.065 Q2415.87 299.356 2420.11 299.356 Q2422.56 299.356 2424.85 298.755 Q2427.17 298.153 2429.43 296.949 L2429.43 300.977 Q2427.14 301.949 2424.74 302.458 Q2422.33 302.968 2419.85 302.968 Q2413.65 302.968 2410.01 299.356 Q2406.4 295.745 2406.4 289.588 Q2406.4 283.222 2409.83 279.495 Q2413.28 275.746 2419.11 275.746 Q2424.34 275.746 2427.37 279.125 Q2430.43 282.482 2430.43 288.269 M2426.17 287.019 Q2426.12 283.523 2424.2 281.44 Q2422.3 279.357 2419.16 279.357 Q2415.59 279.357 2413.44 281.37 Q2411.31 283.384 2410.99 287.042 L2426.17 287.019 Z" fill="#000000" fill-rule="nonzero" fill-opacity="1" /><path clip-path="url(#clip670)" d="M2454.48 280.306 L2454.48 266.278 L2458.74 266.278 L2458.74 302.296 L2454.48 302.296 L2454.48 298.407 Q2453.14 300.722 2451.08 301.856 Q2449.04 302.968 2446.17 302.968 Q2441.47 302.968 2438.51 299.218 Q2435.57 295.468 2435.57 289.357 Q2435.57 283.245 2438.51 279.495 Q2441.47 275.746 2446.17 275.746 Q2449.04 275.746 2451.08 276.88 Q2453.14 277.991 2454.48 280.306 M2439.97 289.357 Q2439.97 294.056 2441.89 296.741 Q2443.83 299.403 2447.21 299.403 Q2450.59 299.403 2452.54 296.741 Q2454.48 294.056 2454.48 289.357 Q2454.48 284.657 2452.54 281.995 Q2450.59 279.31 2447.21 279.31 Q2443.83 279.31 2441.89 281.995 Q2439.97 284.657 2439.97 289.357 Z" fill="#000000" fill-rule="nonzero" fill-opacity="1" /><polyline clip-path="url(#clip670)" style="stroke:#ff0000; stroke-linecap:round; stroke-linejoin:round; stroke-width:8; stroke-opacity:1; fill:none" points="2082.15,336.856 2240.28,336.856 "/>
<path clip-path="url(#clip670)" d="M2266.63 319.576 L2271.31 319.576 L2271.31 354.136 L2266.63 354.136 L2266.63 319.576 Z" fill="#000000" fill-rule="nonzero" fill-opacity="1" /><path clip-path="url(#clip670)" d="M2301.98 338.488 L2301.98 354.136 L2297.72 354.136 L2297.72 338.627 Q2297.72 334.947 2296.29 333.118 Q2294.85 331.289 2291.98 331.289 Q2288.53 331.289 2286.54 333.488 Q2284.55 335.687 2284.55 339.484 L2284.55 354.136 L2280.27 354.136 L2280.27 328.211 L2284.55 328.211 L2284.55 332.238 Q2286.08 329.9 2288.14 328.743 Q2290.22 327.586 2292.93 327.586 Q2297.4 327.586 2299.69 330.363 Q2301.98 333.118 2301.98 338.488 Z" fill="#000000" fill-rule="nonzero" fill-opacity="1" /><path clip-path="url(#clip670)" d="M2323.6 318.118 L2323.6 321.66 L2319.53 321.66 Q2317.24 321.66 2316.33 322.586 Q2315.45 323.511 2315.45 325.919 L2315.45 328.211 L2322.47 328.211 L2322.47 331.521 L2315.45 331.521 L2315.45 354.136 L2311.17 354.136 L2311.17 331.521 L2307.1 331.521 L2307.1 328.211 L2311.17 328.211 L2311.17 326.405 Q2311.17 322.076 2313.19 320.109 Q2315.2 318.118 2319.57 318.118 L2323.6 318.118 Z" fill="#000000" fill-rule="nonzero" fill-opacity="1" /><path clip-path="url(#clip670)" d="M2349.34 340.109 L2349.34 342.192 L2329.76 342.192 Q2330.04 346.59 2332.4 348.905 Q2334.78 351.196 2339.02 351.196 Q2341.47 351.196 2343.76 350.595 Q2346.08 349.993 2348.35 348.789 L2348.35 352.817 Q2346.06 353.789 2343.65 354.298 Q2341.24 354.808 2338.76 354.808 Q2332.56 354.808 2328.93 351.196 Q2325.31 347.585 2325.31 341.428 Q2325.31 335.062 2328.74 331.335 Q2332.19 327.586 2338.02 327.586 Q2343.25 327.586 2346.29 330.965 Q2349.34 334.322 2349.34 340.109 M2345.08 338.859 Q2345.04 335.363 2343.12 333.28 Q2341.22 331.197 2338.07 331.197 Q2334.5 331.197 2332.35 333.21 Q2330.22 335.224 2329.9 338.882 L2345.08 338.859 Z" fill="#000000" fill-rule="nonzero" fill-opacity="1" /><path clip-path="url(#clip670)" d="M2374.99 329.206 L2374.99 333.187 Q2373.18 332.192 2371.36 331.706 Q2369.55 331.197 2367.7 331.197 Q2363.56 331.197 2361.26 333.835 Q2358.97 336.451 2358.97 341.197 Q2358.97 345.942 2361.26 348.581 Q2363.56 351.196 2367.7 351.196 Q2369.55 351.196 2371.36 350.71 Q2373.18 350.201 2374.99 349.206 L2374.99 353.141 Q2373.21 353.974 2371.29 354.391 Q2369.39 354.808 2367.24 354.808 Q2361.38 354.808 2357.93 351.127 Q2354.48 347.447 2354.48 341.197 Q2354.48 334.854 2357.95 331.22 Q2361.45 327.586 2367.51 327.586 Q2369.48 327.586 2371.36 328.002 Q2373.23 328.396 2374.99 329.206 Z" fill="#000000" fill-rule="nonzero" fill-opacity="1" /><path clip-path="url(#clip670)" d="M2386.61 320.849 L2386.61 328.211 L2395.38 328.211 L2395.38 331.521 L2386.61 331.521 L2386.61 345.595 Q2386.61 348.766 2387.47 349.669 Q2388.35 350.571 2391.01 350.571 L2395.38 350.571 L2395.38 354.136 L2391.01 354.136 Q2386.08 354.136 2384.2 352.308 Q2382.33 350.456 2382.33 345.595 L2382.33 331.521 L2379.2 331.521 L2379.2 328.211 L2382.33 328.211 L2382.33 320.849 L2386.61 320.849 Z" fill="#000000" fill-rule="nonzero" fill-opacity="1" /><path clip-path="url(#clip670)" d="M2423.16 340.109 L2423.16 342.192 L2403.58 342.192 Q2403.86 346.59 2406.22 348.905 Q2408.6 351.196 2412.84 351.196 Q2415.29 351.196 2417.58 350.595 Q2419.9 349.993 2422.17 348.789 L2422.17 352.817 Q2419.87 353.789 2417.47 354.298 Q2415.06 354.808 2412.58 354.808 Q2406.38 354.808 2402.74 351.196 Q2399.13 347.585 2399.13 341.428 Q2399.13 335.062 2402.56 331.335 Q2406.01 327.586 2411.84 327.586 Q2417.07 327.586 2420.11 330.965 Q2423.16 334.322 2423.16 340.109 M2418.9 338.859 Q2418.86 335.363 2416.93 333.28 Q2415.04 331.197 2411.89 331.197 Q2408.32 331.197 2406.17 333.21 Q2404.04 335.224 2403.72 338.882 L2418.9 338.859 Z" fill="#000000" fill-rule="nonzero" fill-opacity="1" /><path clip-path="url(#clip670)" d="M2447.21 332.146 L2447.21 318.118 L2451.47 318.118 L2451.47 354.136 L2447.21 354.136 L2447.21 350.247 Q2445.87 352.562 2443.81 353.696 Q2441.77 354.808 2438.9 354.808 Q2434.2 354.808 2431.24 351.058 Q2428.3 347.308 2428.3 341.197 Q2428.3 335.085 2431.24 331.335 Q2434.2 327.586 2438.9 327.586 Q2441.77 327.586 2443.81 328.72 Q2445.87 329.831 2447.21 332.146 M2432.7 341.197 Q2432.7 345.896 2434.62 348.581 Q2436.56 351.243 2439.94 351.243 Q2443.32 351.243 2445.27 348.581 Q2447.21 345.896 2447.21 341.197 Q2447.21 336.497 2445.27 333.835 Q2443.32 331.15 2439.94 331.15 Q2436.56 331.15 2434.62 333.835 Q2432.7 336.497 2432.7 341.197 Z" fill="#000000" fill-rule="nonzero" fill-opacity="1" /><polyline clip-path="url(#clip670)" style="stroke:#008000; stroke-linecap:round; stroke-linejoin:round; stroke-width:8; stroke-opacity:1; fill:none" points="2082.15,388.696 2240.28,388.696 "/>
<path clip-path="url(#clip670)" d="M2283.02 389.773 Q2284.53 390.282 2285.94 391.949 Q2287.38 393.615 2288.81 396.532 L2293.56 405.976 L2288.53 405.976 L2284.11 397.111 Q2282.4 393.638 2280.78 392.504 Q2279.18 391.37 2276.4 391.37 L2271.31 391.37 L2271.31 405.976 L2266.63 405.976 L2266.63 371.416 L2277.19 371.416 Q2283.12 371.416 2286.03 373.893 Q2288.95 376.37 2288.95 381.37 Q2288.95 384.634 2287.42 386.787 Q2285.92 388.939 2283.02 389.773 M2271.31 375.259 L2271.31 387.527 L2277.19 387.527 Q2280.57 387.527 2282.28 385.976 Q2284.02 384.402 2284.02 381.37 Q2284.02 378.338 2282.28 376.81 Q2280.57 375.259 2277.19 375.259 L2271.31 375.259 Z" fill="#000000" fill-rule="nonzero" fill-opacity="1" /><path clip-path="url(#clip670)" d="M2319.44 391.949 L2319.44 394.032 L2299.85 394.032 Q2300.13 398.43 2302.49 400.745 Q2304.88 403.036 2309.11 403.036 Q2311.56 403.036 2313.86 402.435 Q2316.17 401.833 2318.44 400.629 L2318.44 404.657 Q2316.15 405.629 2313.74 406.138 Q2311.33 406.648 2308.86 406.648 Q2302.65 406.648 2299.02 403.036 Q2295.41 399.425 2295.41 393.268 Q2295.41 386.902 2298.83 383.175 Q2302.28 379.426 2308.12 379.426 Q2313.35 379.426 2316.38 382.805 Q2319.44 386.162 2319.44 391.949 M2315.18 390.699 Q2315.13 387.203 2313.21 385.12 Q2311.31 383.037 2308.16 383.037 Q2304.6 383.037 2302.44 385.05 Q2300.31 387.064 2299.99 390.722 L2315.18 390.699 Z" fill="#000000" fill-rule="nonzero" fill-opacity="1" /><path clip-path="url(#clip670)" d="M2345.08 381.046 L2345.08 385.027 Q2343.28 384.032 2341.45 383.546 Q2339.64 383.037 2337.79 383.037 Q2333.65 383.037 2331.36 385.675 Q2329.06 388.291 2329.06 393.037 Q2329.06 397.782 2331.36 400.421 Q2333.65 403.036 2337.79 403.036 Q2339.64 403.036 2341.45 402.55 Q2343.28 402.041 2345.08 401.046 L2345.08 404.981 Q2343.3 405.814 2341.38 406.231 Q2339.48 406.648 2337.33 406.648 Q2331.47 406.648 2328.02 402.967 Q2324.57 399.287 2324.57 393.037 Q2324.57 386.694 2328.05 383.06 Q2331.54 379.426 2337.61 379.426 Q2339.57 379.426 2341.45 379.842 Q2343.32 380.236 2345.08 381.046 Z" fill="#000000" fill-rule="nonzero" fill-opacity="1" /><path clip-path="url(#clip670)" d="M2362.54 383.037 Q2359.11 383.037 2357.12 385.722 Q2355.13 388.384 2355.13 393.037 Q2355.13 397.689 2357.1 400.374 Q2359.09 403.036 2362.54 403.036 Q2365.94 403.036 2367.93 400.351 Q2369.92 397.666 2369.92 393.037 Q2369.92 388.43 2367.93 385.745 Q2365.94 383.037 2362.54 383.037 M2362.54 379.426 Q2368.09 379.426 2371.26 383.037 Q2374.43 386.648 2374.43 393.037 Q2374.43 399.402 2371.26 403.036 Q2368.09 406.648 2362.54 406.648 Q2356.96 406.648 2353.79 403.036 Q2350.64 399.402 2350.64 393.037 Q2350.64 386.648 2353.79 383.037 Q2356.96 379.426 2362.54 379.426 Z" fill="#000000" fill-rule="nonzero" fill-opacity="1" /><path clip-path="url(#clip670)" d="M2378.44 380.051 L2382.95 380.051 L2391.06 401.81 L2399.16 380.051 L2403.67 380.051 L2393.95 405.976 L2388.16 405.976 L2378.44 380.051 Z" fill="#000000" fill-rule="nonzero" fill-opacity="1" /><path clip-path="url(#clip670)" d="M2431.73 391.949 L2431.73 394.032 L2412.14 394.032 Q2412.42 398.43 2414.78 400.745 Q2417.17 403.036 2421.4 403.036 Q2423.86 403.036 2426.15 402.435 Q2428.46 401.833 2430.73 400.629 L2430.73 404.657 Q2428.44 405.629 2426.03 406.138 Q2423.62 406.648 2421.15 406.648 Q2414.94 406.648 2411.31 403.036 Q2407.7 399.425 2407.7 393.268 Q2407.7 386.902 2411.12 383.175 Q2414.57 379.426 2420.41 379.426 Q2425.64 379.426 2428.67 382.805 Q2431.73 386.162 2431.73 391.949 M2427.47 390.699 Q2427.42 387.203 2425.5 385.12 Q2423.6 383.037 2420.45 383.037 Q2416.89 383.037 2414.74 385.05 Q2412.61 387.064 2412.28 390.722 L2427.47 390.699 Z" fill="#000000" fill-rule="nonzero" fill-opacity="1" /><path clip-path="url(#clip670)" d="M2453.74 384.032 Q2453.02 383.615 2452.17 383.43 Q2451.33 383.222 2450.31 383.222 Q2446.7 383.222 2444.76 385.583 Q2442.84 387.921 2442.84 392.319 L2442.84 405.976 L2438.55 405.976 L2438.55 380.051 L2442.84 380.051 L2442.84 384.078 Q2444.18 381.717 2446.33 380.583 Q2448.49 379.426 2451.56 379.426 Q2452 379.426 2452.54 379.495 Q2453.07 379.541 2453.72 379.657 L2453.74 384.032 Z" fill="#000000" fill-rule="nonzero" fill-opacity="1" /><path clip-path="url(#clip670)" d="M2479.34 391.949 L2479.34 394.032 L2459.76 394.032 Q2460.04 398.43 2462.4 400.745 Q2464.78 403.036 2469.02 403.036 Q2471.47 403.036 2473.76 402.435 Q2476.08 401.833 2478.35 400.629 L2478.35 404.657 Q2476.05 405.629 2473.65 406.138 Q2471.24 406.648 2468.76 406.648 Q2462.56 406.648 2458.93 403.036 Q2455.31 399.425 2455.31 393.268 Q2455.31 386.902 2458.74 383.175 Q2462.19 379.426 2468.02 379.426 Q2473.25 379.426 2476.29 382.805 Q2479.34 386.162 2479.34 391.949 M2475.08 390.699 Q2475.04 387.203 2473.11 385.12 Q2471.22 383.037 2468.07 383.037 Q2464.5 383.037 2462.35 385.05 Q2460.22 387.064 2459.9 390.722 L2475.08 390.699 Z" fill="#000000" fill-rule="nonzero" fill-opacity="1" /><path clip-path="url(#clip670)" d="M2503.39 383.986 L2503.39 369.958 L2507.65 369.958 L2507.65 405.976 L2503.39 405.976 L2503.39 402.087 Q2502.05 404.402 2499.99 405.536 Q2497.95 406.648 2495.08 406.648 Q2490.38 406.648 2487.42 402.898 Q2484.48 399.148 2484.48 393.037 Q2484.48 386.925 2487.42 383.175 Q2490.38 379.426 2495.08 379.426 Q2497.95 379.426 2499.99 380.56 Q2502.05 381.671 2503.39 383.986 M2488.88 393.037 Q2488.88 397.736 2490.8 400.421 Q2492.74 403.083 2496.12 403.083 Q2499.5 403.083 2501.45 400.421 Q2503.39 397.736 2503.39 393.037 Q2503.39 388.337 2501.45 385.675 Q2499.5 382.99 2496.12 382.99 Q2492.74 382.99 2490.8 385.675 Q2488.88 388.337 2488.88 393.037 Z" fill="#000000" fill-rule="nonzero" fill-opacity="1" /></svg>
