<?xml version="1.0" encoding="utf-8"?>
<svg xmlns="http://www.w3.org/2000/svg" xmlns:xlink="http://www.w3.org/1999/xlink" width="672" height="480" viewBox="0 0 2688 1920">
<defs>
  <clipPath id="clip790">
    <rect x="0" y="0" width="2688" height="1920"/>
  </clipPath>
</defs>
<path clip-path="url(#clip790)" d="M0 1920 L2688 1920 L2688 -4.26326e-14 L0 -4.26326e-14  Z" fill="#ffffff" fill-rule="evenodd" fill-opacity="1"/>
<defs>
  <clipPath id="clip791">
    <rect x="268" y="127" width="2373" height="1607"/>
  </clipPath>
</defs>
<path clip-path="url(#clip790)" d="M268.826 1734.12 L2640.76 1734.12 L2640.76 127.792 L268.826 127.792  Z" fill="#ffffff" fill-rule="evenodd" fill-opacity="1"/>
<polyline clip-path="url(#clip791)" style="stroke:#000000; stroke-linecap:round; stroke-linejoin:round; stroke-width:2; stroke-opacity:0.1; fill:none" points="335.956,1734.12 335.956,127.792 "/>
<polyline clip-path="url(#clip791)" style="stroke:#000000; stroke-linecap:round; stroke-linejoin:round; stroke-width:2; stroke-opacity:0.1; fill:none" points="895.373,1734.12 895.373,127.792 "/>
<polyline clip-path="url(#clip791)" style="stroke:#000000; stroke-linecap:round; stroke-linejoin:round; stroke-width:2; stroke-opacity:0.1; fill:none" points="1454.79,1734.12 1454.79,127.792 "/>
<polyline clip-path="url(#clip791)" style="stroke:#000000; stroke-linecap:round; stroke-linejoin:round; stroke-width:2; stroke-opacity:0.1; fill:none" points="2014.21,1734.12 2014.21,127.792 "/>
<polyline clip-path="url(#clip791)" style="stroke:#000000; stroke-linecap:round; stroke-linejoin:round; stroke-width:2; stroke-opacity:0.1; fill:none" points="2573.63,1734.12 2573.63,127.792 "/>
<polyline clip-path="url(#clip791)" style="stroke:#000000; stroke-linecap:round; stroke-linejoin:round; stroke-width:2; stroke-opacity:0.1; fill:none" points="268.826,1520.28 2640.76,1520.28 "/>
<polyline clip-path="url(#clip791)" style="stroke:#000000; stroke-linecap:round; stroke-linejoin:round; stroke-width:2; stroke-opacity:0.1; fill:none" points="268.826,1183.52 2640.76,1183.52 "/>
<polyline clip-path="url(#clip791)" style="stroke:#000000; stroke-linecap:round; stroke-linejoin:round; stroke-width:2; stroke-opacity:0.1; fill:none" points="268.826,846.766 2640.76,846.766 "/>
<polyline clip-path="url(#clip791)" style="stroke:#000000; stroke-linecap:round; stroke-linejoin:round; stroke-width:2; stroke-opacity:0.1; fill:none" points="268.826,510.01 2640.76,510.01 "/>
<polyline clip-path="url(#clip791)" style="stroke:#000000; stroke-linecap:round; stroke-linejoin:round; stroke-width:2; stroke-opacity:0.1; fill:none" points="268.826,173.254 2640.76,173.254 "/>
<polyline clip-path="url(#clip790)" style="stroke:#000000; stroke-linecap:round; stroke-linejoin:round; stroke-width:4; stroke-opacity:1; fill:none" points="268.826,1734.12 2640.76,1734.12 "/>
<polyline clip-path="url(#clip790)" style="stroke:#000000; stroke-linecap:round; stroke-linejoin:round; stroke-width:4; stroke-opacity:1; fill:none" points="335.956,1734.12 335.956,1715.22 "/>
<polyline clip-path="url(#clip790)" style="stroke:#000000; stroke-linecap:round; stroke-linejoin:round; stroke-width:4; stroke-opacity:1; fill:none" points="895.373,1734.12 895.373,1715.22 "/>
<polyline clip-path="url(#clip790)" style="stroke:#000000; stroke-linecap:round; stroke-linejoin:round; stroke-width:4; stroke-opacity:1; fill:none" points="1454.79,1734.12 1454.79,1715.22 "/>
<polyline clip-path="url(#clip790)" style="stroke:#000000; stroke-linecap:round; stroke-linejoin:round; stroke-width:4; stroke-opacity:1; fill:none" points="2014.21,1734.12 2014.21,1715.22 "/>
<polyline clip-path="url(#clip790)" style="stroke:#000000; stroke-linecap:round; stroke-linejoin:round; stroke-width:4; stroke-opacity:1; fill:none" points="2573.63,1734.12 2573.63,1715.22 "/>
<path clip-path="url(#clip790)" d="M335.956 1767.34 Q332.345 1767.34 330.516 1770.9 Q328.71 1774.45 328.71 1781.58 Q328.71 1788.68 330.516 1792.25 Q332.345 1795.79 335.956 1795.79 Q339.59 1795.79 341.395 1792.25 Q343.224 1788.68 343.224 1781.58 Q343.224 1774.45 341.395 1770.9 Q339.59 1767.34 335.956 1767.34 M335.956 1763.64 Q341.766 1763.64 344.821 1768.24 Q347.9 1772.83 347.9 1781.58 Q347.9 1790.3 344.821 1794.91 Q341.766 1799.49 335.956 1799.49 Q330.145 1799.49 327.067 1794.91 Q324.011 1790.3 324.011 1781.58 Q324.011 1772.83 327.067 1768.24 Q330.145 1763.64 335.956 1763.64 Z" fill="#000000" fill-rule="nonzero" fill-opacity="1" /><path clip-path="url(#clip790)" d="M870.061 1794.89 L877.7 1794.89 L877.7 1768.52 L869.39 1770.19 L869.39 1765.93 L877.653 1764.26 L882.329 1764.26 L882.329 1794.89 L889.968 1794.89 L889.968 1798.82 L870.061 1798.82 L870.061 1794.89 Z" fill="#000000" fill-rule="nonzero" fill-opacity="1" /><path clip-path="url(#clip790)" d="M909.412 1767.34 Q905.801 1767.34 903.973 1770.9 Q902.167 1774.45 902.167 1781.58 Q902.167 1788.68 903.973 1792.25 Q905.801 1795.79 909.412 1795.79 Q913.047 1795.79 914.852 1792.25 Q916.681 1788.68 916.681 1781.58 Q916.681 1774.45 914.852 1770.9 Q913.047 1767.34 909.412 1767.34 M909.412 1763.64 Q915.223 1763.64 918.278 1768.24 Q921.357 1772.83 921.357 1781.58 Q921.357 1790.3 918.278 1794.91 Q915.223 1799.49 909.412 1799.49 Q903.602 1799.49 900.524 1794.91 Q897.468 1790.3 897.468 1781.58 Q897.468 1772.83 900.524 1768.24 Q903.602 1763.64 909.412 1763.64 Z" fill="#000000" fill-rule="nonzero" fill-opacity="1" /><path clip-path="url(#clip790)" d="M1433.56 1794.89 L1449.88 1794.89 L1449.88 1798.82 L1427.94 1798.82 L1427.94 1794.89 Q1430.6 1792.13 1435.18 1787.5 Q1439.79 1782.85 1440.97 1781.51 Q1443.22 1778.98 1444.1 1777.25 Q1445 1775.49 1445 1773.8 Q1445 1771.04 1443.05 1769.31 Q1441.13 1767.57 1438.03 1767.57 Q1435.83 1767.57 1433.38 1768.34 Q1430.95 1769.1 1428.17 1770.65 L1428.17 1765.93 Q1430.99 1764.79 1433.45 1764.21 Q1435.9 1763.64 1437.94 1763.64 Q1443.31 1763.64 1446.5 1766.32 Q1449.7 1769.01 1449.7 1773.5 Q1449.7 1775.63 1448.89 1777.55 Q1448.1 1779.45 1445.99 1782.04 Q1445.42 1782.71 1442.31 1785.93 Q1439.21 1789.12 1433.56 1794.89 Z" fill="#000000" fill-rule="nonzero" fill-opacity="1" /><path clip-path="url(#clip790)" d="M1469.7 1767.34 Q1466.09 1767.34 1464.26 1770.9 Q1462.45 1774.45 1462.45 1781.58 Q1462.45 1788.68 1464.26 1792.25 Q1466.09 1795.79 1469.7 1795.79 Q1473.33 1795.79 1475.14 1792.25 Q1476.97 1788.68 1476.97 1781.58 Q1476.97 1774.45 1475.14 1770.9 Q1473.33 1767.34 1469.7 1767.34 M1469.7 1763.64 Q1475.51 1763.64 1478.56 1768.24 Q1481.64 1772.83 1481.64 1781.58 Q1481.64 1790.3 1478.56 1794.91 Q1475.51 1799.49 1469.7 1799.49 Q1463.89 1799.49 1460.81 1794.91 Q1457.75 1790.3 1457.75 1781.58 Q1457.75 1772.83 1460.81 1768.24 Q1463.89 1763.64 1469.7 1763.64 Z" fill="#000000" fill-rule="nonzero" fill-opacity="1" /><path clip-path="url(#clip790)" d="M2003.05 1780.19 Q2006.41 1780.9 2008.28 1783.17 Q2010.18 1785.44 2010.18 1788.77 Q2010.18 1793.89 2006.66 1796.69 Q2003.14 1799.49 1996.66 1799.49 Q1994.49 1799.49 1992.17 1799.05 Q1989.88 1798.64 1987.43 1797.78 L1987.43 1793.27 Q1989.37 1794.4 1991.69 1794.98 Q1994 1795.56 1996.52 1795.56 Q2000.92 1795.56 2003.21 1793.82 Q2005.53 1792.08 2005.53 1788.77 Q2005.53 1785.72 2003.37 1784.01 Q2001.25 1782.27 1997.43 1782.27 L1993.4 1782.27 L1993.4 1778.43 L1997.61 1778.43 Q2001.06 1778.43 2002.89 1777.06 Q2004.72 1775.67 2004.72 1773.08 Q2004.72 1770.42 2002.82 1769.01 Q2000.94 1767.57 1997.43 1767.57 Q1995.5 1767.57 1993.31 1767.99 Q1991.11 1768.4 1988.47 1769.28 L1988.47 1765.12 Q1991.13 1764.38 1993.44 1764.01 Q1995.78 1763.64 1997.84 1763.64 Q2003.17 1763.64 2006.27 1766.07 Q2009.37 1768.47 2009.37 1772.59 Q2009.37 1775.46 2007.73 1777.46 Q2006.08 1779.42 2003.05 1780.19 Z" fill="#000000" fill-rule="nonzero" fill-opacity="1" /><path clip-path="url(#clip790)" d="M2029.05 1767.34 Q2025.44 1767.34 2023.61 1770.9 Q2021.8 1774.45 2021.8 1781.58 Q2021.8 1788.68 2023.61 1792.25 Q2025.44 1795.79 2029.05 1795.79 Q2032.68 1795.79 2034.49 1792.25 Q2036.31 1788.68 2036.31 1781.58 Q2036.31 1774.45 2034.49 1770.9 Q2032.68 1767.34 2029.05 1767.34 M2029.05 1763.64 Q2034.86 1763.64 2037.91 1768.24 Q2040.99 1772.83 2040.99 1781.58 Q2040.99 1790.3 2037.91 1794.91 Q2034.86 1799.49 2029.05 1799.49 Q2023.24 1799.49 2020.16 1794.91 Q2017.1 1790.3 2017.1 1781.58 Q2017.1 1772.83 2020.16 1768.24 Q2023.24 1763.64 2029.05 1763.64 Z" fill="#000000" fill-rule="nonzero" fill-opacity="1" /><path clip-path="url(#clip790)" d="M2561.8 1768.34 L2549.99 1786.78 L2561.8 1786.78 L2561.8 1768.34 M2560.57 1764.26 L2566.45 1764.26 L2566.45 1786.78 L2571.38 1786.78 L2571.38 1790.67 L2566.45 1790.67 L2566.45 1798.82 L2561.8 1798.82 L2561.8 1790.67 L2546.2 1790.67 L2546.2 1786.16 L2560.57 1764.26 Z" fill="#000000" fill-rule="nonzero" fill-opacity="1" /><path clip-path="url(#clip790)" d="M2589.11 1767.34 Q2585.5 1767.34 2583.67 1770.9 Q2581.87 1774.45 2581.87 1781.58 Q2581.87 1788.68 2583.67 1792.25 Q2585.5 1795.79 2589.11 1795.79 Q2592.75 1795.79 2594.55 1792.25 Q2596.38 1788.68 2596.38 1781.58 Q2596.38 1774.45 2594.55 1770.9 Q2592.75 1767.34 2589.11 1767.34 M2589.11 1763.64 Q2594.92 1763.64 2597.98 1768.24 Q2601.06 1772.83 2601.06 1781.58 Q2601.06 1790.3 2597.98 1794.91 Q2594.92 1799.49 2589.11 1799.49 Q2583.3 1799.49 2580.22 1794.91 Q2577.17 1790.3 2577.17 1781.58 Q2577.17 1772.83 2580.22 1768.24 Q2583.3 1763.64 2589.11 1763.64 Z" fill="#000000" fill-rule="nonzero" fill-opacity="1" /><path clip-path="url(#clip790)" d="M1401.03 1841.06 L1401.03 1878.02 L1408.8 1878.02 Q1418.63 1878.02 1423.18 1873.56 Q1427.77 1869.11 1427.77 1859.49 Q1427.77 1849.94 1423.18 1845.52 Q1418.63 1841.06 1408.8 1841.06 L1401.03 1841.06 M1394.6 1835.78 L1407.81 1835.78 Q1421.63 1835.78 1428.09 1841.54 Q1434.55 1847.27 1434.55 1859.49 Q1434.55 1871.78 1428.05 1877.54 Q1421.56 1883.3 1407.81 1883.3 L1394.6 1883.3 L1394.6 1835.78 Z" fill="#000000" fill-rule="nonzero" fill-opacity="1" /><path clip-path="url(#clip790)" d="M1460.74 1865.38 Q1453.64 1865.38 1450.91 1867 Q1448.17 1868.63 1448.17 1872.54 Q1448.17 1875.66 1450.21 1877.51 Q1452.28 1879.32 1455.81 1879.32 Q1460.68 1879.32 1463.61 1875.88 Q1466.57 1872.42 1466.57 1866.69 L1466.57 1865.38 L1460.74 1865.38 M1472.42 1862.96 L1472.42 1883.3 L1466.57 1883.3 L1466.57 1877.89 Q1464.56 1881.14 1461.57 1882.7 Q1458.58 1884.22 1454.25 1884.22 Q1448.78 1884.22 1445.53 1881.17 Q1442.31 1878.08 1442.31 1872.92 Q1442.31 1866.91 1446.32 1863.85 Q1450.37 1860.8 1458.36 1860.8 L1466.57 1860.8 L1466.57 1860.23 Q1466.57 1856.18 1463.89 1853.99 Q1461.25 1851.76 1456.45 1851.76 Q1453.39 1851.76 1450.49 1852.49 Q1447.6 1853.22 1444.92 1854.69 L1444.92 1849.28 Q1448.14 1848.03 1451.16 1847.43 Q1454.19 1846.79 1457.05 1846.79 Q1464.78 1846.79 1468.6 1850.8 Q1472.42 1854.81 1472.42 1862.96 Z" fill="#000000" fill-rule="nonzero" fill-opacity="1" /><path clip-path="url(#clip790)" d="M1499.32 1886.61 Q1496.84 1892.98 1494.48 1894.92 Q1492.13 1896.86 1488.18 1896.86 L1483.5 1896.86 L1483.5 1891.96 L1486.94 1891.96 Q1489.36 1891.96 1490.69 1890.81 Q1492.03 1889.67 1493.65 1885.4 L1494.7 1882.73 L1480.29 1847.65 L1486.49 1847.65 L1497.63 1875.53 L1508.77 1847.65 L1514.98 1847.65 L1499.32 1886.61 Z" fill="#000000" fill-rule="nonzero" fill-opacity="1" /><polyline clip-path="url(#clip790)" style="stroke:#000000; stroke-linecap:round; stroke-linejoin:round; stroke-width:4; stroke-opacity:1; fill:none" points="268.826,1734.12 268.826,127.792 "/>
<polyline clip-path="url(#clip790)" style="stroke:#000000; stroke-linecap:round; stroke-linejoin:round; stroke-width:4; stroke-opacity:1; fill:none" points="268.826,1520.28 287.723,1520.28 "/>
<polyline clip-path="url(#clip790)" style="stroke:#000000; stroke-linecap:round; stroke-linejoin:round; stroke-width:4; stroke-opacity:1; fill:none" points="268.826,1183.52 287.723,1183.52 "/>
<polyline clip-path="url(#clip790)" style="stroke:#000000; stroke-linecap:round; stroke-linejoin:round; stroke-width:4; stroke-opacity:1; fill:none" points="268.826,846.766 287.723,846.766 "/>
<polyline clip-path="url(#clip790)" style="stroke:#000000; stroke-linecap:round; stroke-linejoin:round; stroke-width:4; stroke-opacity:1; fill:none" points="268.826,510.01 287.723,510.01 "/>
<polyline clip-path="url(#clip790)" style="stroke:#000000; stroke-linecap:round; stroke-linejoin:round; stroke-width:4; stroke-opacity:1; fill:none" points="268.826,173.254 287.723,173.254 "/>
<path clip-path="url(#clip790)" d="M147.974 1536.84 L147.974 1532.58 Q149.733 1533.41 151.538 1533.85 Q153.344 1534.29 155.08 1534.29 Q159.71 1534.29 162.14 1531.19 Q164.594 1528.07 164.941 1521.72 Q163.598 1523.71 161.538 1524.78 Q159.478 1525.84 156.978 1525.84 Q151.793 1525.84 148.761 1522.72 Q145.751 1519.57 145.751 1514.13 Q145.751 1508.81 148.899 1505.59 Q152.048 1502.37 157.279 1502.37 Q163.274 1502.37 166.423 1506.98 Q169.594 1511.56 169.594 1520.31 Q169.594 1528.48 165.705 1533.37 Q161.839 1538.23 155.288 1538.23 Q153.529 1538.23 151.724 1537.88 Q149.918 1537.53 147.974 1536.84 M157.279 1522.19 Q160.427 1522.19 162.256 1520.03 Q164.108 1517.88 164.108 1514.13 Q164.108 1510.4 162.256 1508.25 Q160.427 1506.08 157.279 1506.08 Q154.131 1506.08 152.279 1508.25 Q150.45 1510.4 150.45 1514.13 Q150.45 1517.88 152.279 1520.03 Q154.131 1522.19 157.279 1522.19 Z" fill="#000000" fill-rule="nonzero" fill-opacity="1" /><path clip-path="url(#clip790)" d="M178.135 1536.84 L178.135 1532.58 Q179.895 1533.41 181.7 1533.85 Q183.506 1534.29 185.242 1534.29 Q189.871 1534.29 192.302 1531.19 Q194.756 1528.07 195.103 1521.72 Q193.76 1523.71 191.7 1524.78 Q189.64 1525.84 187.14 1525.84 Q181.955 1525.84 178.922 1522.72 Q175.913 1519.57 175.913 1514.13 Q175.913 1508.81 179.061 1505.59 Q182.209 1502.37 187.441 1502.37 Q193.436 1502.37 196.584 1506.98 Q199.756 1511.56 199.756 1520.31 Q199.756 1528.48 195.867 1533.37 Q192.001 1538.23 185.45 1538.23 Q183.691 1538.23 181.885 1537.88 Q180.08 1537.53 178.135 1536.84 M187.441 1522.19 Q190.589 1522.19 192.418 1520.03 Q194.27 1517.88 194.27 1514.13 Q194.27 1510.4 192.418 1508.25 Q190.589 1506.08 187.441 1506.08 Q184.293 1506.08 182.441 1508.25 Q180.612 1510.4 180.612 1514.13 Q180.612 1517.88 182.441 1520.03 Q184.293 1522.19 187.441 1522.19 Z" fill="#000000" fill-rule="nonzero" fill-opacity="1" /><path clip-path="url(#clip790)" d="M212.186 1533.62 L228.506 1533.62 L228.506 1537.56 L206.561 1537.56 L206.561 1533.62 Q209.223 1530.87 213.807 1526.24 Q218.413 1521.58 219.594 1520.24 Q221.839 1517.72 222.719 1515.98 Q223.621 1514.22 223.621 1512.53 Q223.621 1509.78 221.677 1508.04 Q219.756 1506.31 216.654 1506.31 Q214.455 1506.31 212.001 1507.07 Q209.57 1507.84 206.793 1509.39 L206.793 1504.66 Q209.617 1503.53 212.07 1502.95 Q214.524 1502.37 216.561 1502.37 Q221.931 1502.37 225.126 1505.06 Q228.32 1507.74 228.32 1512.23 Q228.32 1514.36 227.51 1516.28 Q226.723 1518.18 224.617 1520.77 Q224.038 1521.45 220.936 1524.66 Q217.834 1527.86 212.186 1533.62 Z" fill="#000000" fill-rule="nonzero" fill-opacity="1" /><path clip-path="url(#clip790)" d="M145.89 1200.08 L145.89 1195.82 Q147.649 1196.66 149.455 1197.1 Q151.261 1197.54 152.997 1197.54 Q157.626 1197.54 160.057 1194.44 Q162.51 1191.31 162.858 1184.97 Q161.515 1186.96 159.455 1188.02 Q157.395 1189.09 154.895 1189.09 Q149.71 1189.09 146.677 1185.96 Q143.668 1182.82 143.668 1177.38 Q143.668 1172.05 146.816 1168.83 Q149.964 1165.62 155.196 1165.62 Q161.191 1165.62 164.339 1170.22 Q167.51 1174.81 167.51 1183.56 Q167.51 1191.73 163.622 1196.61 Q159.756 1201.47 153.205 1201.47 Q151.446 1201.47 149.64 1201.13 Q147.835 1200.78 145.89 1200.08 M155.196 1185.43 Q158.344 1185.43 160.173 1183.28 Q162.024 1181.13 162.024 1177.38 Q162.024 1173.65 160.173 1171.5 Q158.344 1169.32 155.196 1169.32 Q152.048 1169.32 150.196 1171.5 Q148.367 1173.65 148.367 1177.38 Q148.367 1181.13 150.196 1183.28 Q152.048 1185.43 155.196 1185.43 Z" fill="#000000" fill-rule="nonzero" fill-opacity="1" /><path clip-path="url(#clip790)" d="M176.052 1200.08 L176.052 1195.82 Q177.811 1196.66 179.617 1197.1 Q181.422 1197.54 183.159 1197.54 Q187.788 1197.54 190.219 1194.44 Q192.672 1191.31 193.02 1184.97 Q191.677 1186.96 189.617 1188.02 Q187.557 1189.09 185.057 1189.09 Q179.872 1189.09 176.839 1185.96 Q173.83 1182.82 173.83 1177.38 Q173.83 1172.05 176.978 1168.83 Q180.126 1165.62 185.358 1165.62 Q191.353 1165.62 194.501 1170.22 Q197.672 1174.81 197.672 1183.56 Q197.672 1191.73 193.783 1196.61 Q189.918 1201.47 183.367 1201.47 Q181.608 1201.47 179.802 1201.13 Q177.997 1200.78 176.052 1200.08 M185.358 1185.43 Q188.506 1185.43 190.334 1183.28 Q192.186 1181.13 192.186 1177.38 Q192.186 1173.65 190.334 1171.5 Q188.506 1169.32 185.358 1169.32 Q182.209 1169.32 180.358 1171.5 Q178.529 1173.65 178.529 1177.38 Q178.529 1181.13 180.358 1183.28 Q182.209 1185.43 185.358 1185.43 Z" fill="#000000" fill-rule="nonzero" fill-opacity="1" /><path clip-path="url(#clip790)" d="M218.922 1170.32 L207.117 1188.76 L218.922 1188.76 L218.922 1170.32 M217.695 1166.24 L223.575 1166.24 L223.575 1188.76 L228.506 1188.76 L228.506 1192.65 L223.575 1192.65 L223.575 1200.8 L218.922 1200.8 L218.922 1192.65 L203.32 1192.65 L203.32 1188.14 L217.695 1166.24 Z" fill="#000000" fill-rule="nonzero" fill-opacity="1" /><path clip-path="url(#clip790)" d="M146.214 863.328 L146.214 859.069 Q147.974 859.902 149.779 860.342 Q151.585 860.782 153.321 860.782 Q157.95 860.782 160.381 857.68 Q162.835 854.555 163.182 848.212 Q161.839 850.203 159.779 851.268 Q157.719 852.333 155.219 852.333 Q150.034 852.333 147.001 849.208 Q143.992 846.06 143.992 840.62 Q143.992 835.296 147.14 832.078 Q150.288 828.861 155.52 828.861 Q161.515 828.861 164.663 833.467 Q167.835 838.05 167.835 846.8 Q167.835 854.972 163.946 859.856 Q160.08 864.717 153.529 864.717 Q151.77 864.717 149.964 864.37 Q148.159 864.022 146.214 863.328 M155.52 848.675 Q158.668 848.675 160.497 846.523 Q162.348 844.37 162.348 840.62 Q162.348 836.893 160.497 834.74 Q158.668 832.564 155.52 832.564 Q152.372 832.564 150.52 834.74 Q148.691 836.893 148.691 840.62 Q148.691 844.37 150.52 846.523 Q152.372 848.675 155.52 848.675 Z" fill="#000000" fill-rule="nonzero" fill-opacity="1" /><path clip-path="url(#clip790)" d="M176.376 863.328 L176.376 859.069 Q178.135 859.902 179.941 860.342 Q181.746 860.782 183.483 860.782 Q188.112 860.782 190.543 857.68 Q192.996 854.555 193.344 848.212 Q192.001 850.203 189.941 851.268 Q187.881 852.333 185.381 852.333 Q180.196 852.333 177.163 849.208 Q174.154 846.06 174.154 840.62 Q174.154 835.296 177.302 832.078 Q180.45 828.861 185.682 828.861 Q191.677 828.861 194.825 833.467 Q197.996 838.05 197.996 846.8 Q197.996 854.972 194.108 859.856 Q190.242 864.717 183.691 864.717 Q181.932 864.717 180.126 864.37 Q178.321 864.022 176.376 863.328 M185.682 848.675 Q188.83 848.675 190.658 846.523 Q192.51 844.37 192.51 840.62 Q192.51 836.893 190.658 834.74 Q188.83 832.564 185.682 832.564 Q182.534 832.564 180.682 834.74 Q178.853 836.893 178.853 840.62 Q178.853 844.37 180.682 846.523 Q182.534 848.675 185.682 848.675 Z" fill="#000000" fill-rule="nonzero" fill-opacity="1" /><path clip-path="url(#clip790)" d="M216.978 844.902 Q213.83 844.902 211.978 847.055 Q210.149 849.208 210.149 852.958 Q210.149 856.685 211.978 858.86 Q213.83 861.013 216.978 861.013 Q220.126 861.013 221.955 858.86 Q223.806 856.685 223.806 852.958 Q223.806 849.208 221.955 847.055 Q220.126 844.902 216.978 844.902 M226.26 830.25 L226.26 834.509 Q224.501 833.675 222.695 833.236 Q220.913 832.796 219.154 832.796 Q214.524 832.796 212.07 835.921 Q209.64 839.046 209.293 845.365 Q210.658 843.351 212.719 842.286 Q214.779 841.199 217.256 841.199 Q222.464 841.199 225.473 844.37 Q228.506 847.518 228.506 852.958 Q228.506 858.282 225.357 861.499 Q222.209 864.717 216.978 864.717 Q210.982 864.717 207.811 860.134 Q204.64 855.527 204.64 846.8 Q204.64 838.606 208.529 833.745 Q212.418 828.861 218.969 828.861 Q220.728 828.861 222.51 829.208 Q224.316 829.555 226.26 830.25 Z" fill="#000000" fill-rule="nonzero" fill-opacity="1" /><path clip-path="url(#clip790)" d="M146.469 526.572 L146.469 522.313 Q148.228 523.146 150.034 523.586 Q151.839 524.026 153.575 524.026 Q158.205 524.026 160.636 520.924 Q163.089 517.799 163.436 511.457 Q162.094 513.447 160.034 514.512 Q157.973 515.577 155.473 515.577 Q150.288 515.577 147.256 512.452 Q144.247 509.304 144.247 503.864 Q144.247 498.54 147.395 495.322 Q150.543 492.105 155.774 492.105 Q161.77 492.105 164.918 496.711 Q168.089 501.295 168.089 510.045 Q168.089 518.216 164.2 523.1 Q160.335 527.961 153.784 527.961 Q152.024 527.961 150.219 527.614 Q148.413 527.267 146.469 526.572 M155.774 511.92 Q158.923 511.92 160.751 509.767 Q162.603 507.614 162.603 503.864 Q162.603 500.137 160.751 497.984 Q158.923 495.809 155.774 495.809 Q152.626 495.809 150.774 497.984 Q148.946 500.137 148.946 503.864 Q148.946 507.614 150.774 509.767 Q152.626 511.92 155.774 511.92 Z" fill="#000000" fill-rule="nonzero" fill-opacity="1" /><path clip-path="url(#clip790)" d="M176.631 526.572 L176.631 522.313 Q178.39 523.146 180.196 523.586 Q182.001 524.026 183.737 524.026 Q188.367 524.026 190.797 520.924 Q193.251 517.799 193.598 511.457 Q192.256 513.447 190.196 514.512 Q188.135 515.577 185.635 515.577 Q180.45 515.577 177.418 512.452 Q174.409 509.304 174.409 503.864 Q174.409 498.54 177.557 495.322 Q180.705 492.105 185.936 492.105 Q191.932 492.105 195.08 496.711 Q198.251 501.295 198.251 510.045 Q198.251 518.216 194.362 523.1 Q190.496 527.961 183.946 527.961 Q182.186 527.961 180.381 527.614 Q178.575 527.267 176.631 526.572 M185.936 511.92 Q189.084 511.92 190.913 509.767 Q192.765 507.614 192.765 503.864 Q192.765 500.137 190.913 497.984 Q189.084 495.809 185.936 495.809 Q182.788 495.809 180.936 497.984 Q179.108 500.137 179.108 503.864 Q179.108 507.614 180.936 509.767 Q182.788 511.92 185.936 511.92 Z" fill="#000000" fill-rule="nonzero" fill-opacity="1" /><path clip-path="url(#clip790)" d="M216.654 510.878 Q213.32 510.878 211.399 512.66 Q209.501 514.443 209.501 517.568 Q209.501 520.693 211.399 522.475 Q213.32 524.257 216.654 524.257 Q219.987 524.257 221.908 522.475 Q223.83 520.67 223.83 517.568 Q223.83 514.443 221.908 512.66 Q220.01 510.878 216.654 510.878 M211.978 508.887 Q208.969 508.146 207.279 506.086 Q205.612 504.026 205.612 501.063 Q205.612 496.92 208.552 494.512 Q211.515 492.105 216.654 492.105 Q221.816 492.105 224.756 494.512 Q227.695 496.92 227.695 501.063 Q227.695 504.026 226.006 506.086 Q224.339 508.146 221.353 508.887 Q224.732 509.674 226.607 511.966 Q228.506 514.258 228.506 517.568 Q228.506 522.591 225.427 525.276 Q222.371 527.961 216.654 527.961 Q210.936 527.961 207.857 525.276 Q204.802 522.591 204.802 517.568 Q204.802 514.258 206.7 511.966 Q208.598 509.674 211.978 508.887 M210.265 501.503 Q210.265 504.188 211.932 505.693 Q213.621 507.197 216.654 507.197 Q219.663 507.197 221.353 505.693 Q223.066 504.188 223.066 501.503 Q223.066 498.818 221.353 497.313 Q219.663 495.809 216.654 495.809 Q213.621 495.809 211.932 497.313 Q210.265 498.818 210.265 501.503 Z" fill="#000000" fill-rule="nonzero" fill-opacity="1" /><path clip-path="url(#clip790)" d="M116.886 186.599 L124.525 186.599 L124.525 160.233 L116.214 161.9 L116.214 157.641 L124.478 155.974 L129.154 155.974 L129.154 186.599 L136.793 186.599 L136.793 190.534 L116.886 190.534 L116.886 186.599 Z" fill="#000000" fill-rule="nonzero" fill-opacity="1" /><path clip-path="url(#clip790)" d="M156.237 159.053 Q152.626 159.053 150.798 162.618 Q148.992 166.159 148.992 173.289 Q148.992 180.395 150.798 183.96 Q152.626 187.502 156.237 187.502 Q159.872 187.502 161.677 183.96 Q163.506 180.395 163.506 173.289 Q163.506 166.159 161.677 162.618 Q159.872 159.053 156.237 159.053 M156.237 155.349 Q162.048 155.349 165.103 159.956 Q168.182 164.539 168.182 173.289 Q168.182 182.016 165.103 186.622 Q162.048 191.205 156.237 191.205 Q150.427 191.205 147.349 186.622 Q144.293 182.016 144.293 173.289 Q144.293 164.539 147.349 159.956 Q150.427 155.349 156.237 155.349 Z" fill="#000000" fill-rule="nonzero" fill-opacity="1" /><path clip-path="url(#clip790)" d="M186.399 159.053 Q182.788 159.053 180.959 162.618 Q179.154 166.159 179.154 173.289 Q179.154 180.395 180.959 183.96 Q182.788 187.502 186.399 187.502 Q190.033 187.502 191.839 183.96 Q193.668 180.395 193.668 173.289 Q193.668 166.159 191.839 162.618 Q190.033 159.053 186.399 159.053 M186.399 155.349 Q192.209 155.349 195.265 159.956 Q198.344 164.539 198.344 173.289 Q198.344 182.016 195.265 186.622 Q192.209 191.205 186.399 191.205 Q180.589 191.205 177.51 186.622 Q174.455 182.016 174.455 173.289 Q174.455 164.539 177.51 159.956 Q180.589 155.349 186.399 155.349 Z" fill="#000000" fill-rule="nonzero" fill-opacity="1" /><path clip-path="url(#clip790)" d="M216.561 159.053 Q212.95 159.053 211.121 162.618 Q209.316 166.159 209.316 173.289 Q209.316 180.395 211.121 183.96 Q212.95 187.502 216.561 187.502 Q220.195 187.502 222.001 183.96 Q223.83 180.395 223.83 173.289 Q223.83 166.159 222.001 162.618 Q220.195 159.053 216.561 159.053 M216.561 155.349 Q222.371 155.349 225.427 159.956 Q228.506 164.539 228.506 173.289 Q228.506 182.016 225.427 186.622 Q222.371 191.205 216.561 191.205 Q210.751 191.205 207.672 186.622 Q204.617 182.016 204.617 173.289 Q204.617 164.539 207.672 159.956 Q210.751 155.349 216.561 155.349 Z" fill="#000000" fill-rule="nonzero" fill-opacity="1" /><path clip-path="url(#clip790)" d="M19.402 1164.39 L37.2578 1164.39 L37.2578 1156.3 Q37.2578 1151.81 34.9343 1149.36 Q32.6108 1146.91 28.314 1146.91 Q24.0489 1146.91 21.7255 1149.36 Q19.402 1151.81 19.402 1156.3 L19.402 1164.39 M14.1184 1170.81 L14.1184 1156.3 Q14.1184 1148.31 17.7469 1144.24 Q21.3435 1140.13 28.314 1140.13 Q35.3481 1140.13 38.9447 1144.24 Q42.5413 1148.31 42.5413 1156.3 L42.5413 1164.39 L61.6384 1164.39 L61.6384 1170.81 L14.1184 1170.81 Z" fill="#000000" fill-rule="nonzero" fill-opacity="1" /><path clip-path="url(#clip790)" d="M30.0964 1120.27 Q30.0964 1124.98 33.7885 1127.72 Q37.4488 1130.46 43.8463 1130.46 Q50.2438 1130.46 53.9359 1127.75 Q57.5962 1125.01 57.5962 1120.27 Q57.5962 1115.59 53.9041 1112.85 Q50.212 1110.12 43.8463 1110.12 Q37.5124 1110.12 33.8203 1112.85 Q30.0964 1115.59 30.0964 1120.27 M25.1311 1120.27 Q25.1311 1112.63 30.0964 1108.27 Q35.0616 1103.91 43.8463 1103.91 Q52.5991 1103.91 57.5962 1108.27 Q62.5615 1112.63 62.5615 1120.27 Q62.5615 1127.94 57.5962 1132.3 Q52.5991 1136.63 43.8463 1136.63 Q35.0616 1136.63 30.0964 1132.3 Q25.1311 1127.94 25.1311 1120.27 Z" fill="#000000" fill-rule="nonzero" fill-opacity="1" /><path clip-path="url(#clip790)" d="M56.2912 1088.54 L75.1974 1088.54 L75.1974 1094.43 L25.9905 1094.43 L25.9905 1088.54 L31.4013 1088.54 Q28.2185 1086.69 26.6907 1083.89 Q25.1311 1081.06 25.1311 1077.14 Q25.1311 1070.65 30.2873 1066.61 Q35.4436 1062.53 43.8463 1062.53 Q52.249 1062.53 57.4052 1066.61 Q62.5615 1070.65 62.5615 1077.14 Q62.5615 1081.06 61.0337 1083.89 Q59.4741 1086.69 56.2912 1088.54 M43.8463 1068.61 Q37.3851 1068.61 33.7248 1071.29 Q30.0327 1073.93 30.0327 1078.58 Q30.0327 1083.22 33.7248 1085.9 Q37.3851 1088.54 43.8463 1088.54 Q50.3075 1088.54 53.9996 1085.9 Q57.6599 1083.22 57.6599 1078.58 Q57.6599 1073.93 53.9996 1071.29 Q50.3075 1068.61 43.8463 1068.61 Z" fill="#000000" fill-rule="nonzero" fill-opacity="1" /><path clip-path="url(#clip790)" d="M47.5702 1053.43 L25.9905 1053.43 L25.9905 1047.57 L47.3474 1047.57 Q52.4082 1047.57 54.9545 1045.6 Q57.4689 1043.63 57.4689 1039.68 Q57.4689 1034.94 54.4452 1032.2 Q51.4215 1029.43 46.2016 1029.43 L25.9905 1029.43 L25.9905 1023.58 L61.6384 1023.58 L61.6384 1029.43 L56.1639 1029.43 Q59.4104 1031.56 61.0019 1034.4 Q62.5615 1037.2 62.5615 1040.92 Q62.5615 1047.07 58.742 1050.25 Q54.9226 1053.43 47.5702 1053.43 M25.1311 1038.69 L25.1311 1038.69 Z" fill="#000000" fill-rule="nonzero" fill-opacity="1" /><path clip-path="url(#clip790)" d="M12.1132 1011.51 L12.1132 1005.66 L61.6384 1005.66 L61.6384 1011.51 L12.1132 1011.51 Z" fill="#000000" fill-rule="nonzero" fill-opacity="1" /><path clip-path="url(#clip790)" d="M43.719 977.201 Q43.719 984.299 45.3422 987.036 Q46.9655 989.774 50.8804 989.774 Q53.9996 989.774 55.8457 987.737 Q57.6599 985.668 57.6599 982.135 Q57.6599 977.265 54.2224 974.337 Q50.7531 971.377 45.0239 971.377 L43.719 971.377 L43.719 977.201 M41.3 965.52 L61.6384 965.52 L61.6384 971.377 L56.2276 971.377 Q59.4741 973.382 61.0337 976.374 Q62.5615 979.366 62.5615 983.694 Q62.5615 989.169 59.5059 992.415 Q56.4186 995.63 51.2623 995.63 Q45.2467 995.63 42.1912 991.62 Q39.1357 987.578 39.1357 979.589 L39.1357 971.377 L38.5628 971.377 Q34.5205 971.377 32.3244 974.05 Q30.0964 976.692 30.0964 981.498 Q30.0964 984.554 30.8284 987.45 Q31.5605 990.347 33.0246 993.02 L27.6137 993.02 Q26.3724 989.806 25.7677 986.782 Q25.1311 983.758 25.1311 980.894 Q25.1311 973.159 29.1415 969.34 Q33.1519 965.52 41.3 965.52 Z" fill="#000000" fill-rule="nonzero" fill-opacity="1" /><path clip-path="url(#clip790)" d="M15.869 947.665 L25.9905 947.665 L25.9905 935.602 L30.542 935.602 L30.542 947.665 L49.8937 947.665 Q54.2542 947.665 55.4955 946.487 Q56.7368 945.277 56.7368 941.617 L56.7368 935.602 L61.6384 935.602 L61.6384 941.617 Q61.6384 948.397 59.124 950.975 Q56.5777 953.553 49.8937 953.553 L30.542 953.553 L30.542 957.85 L25.9905 957.85 L25.9905 953.553 L15.869 953.553 L15.869 947.665 Z" fill="#000000" fill-rule="nonzero" fill-opacity="1" /><path clip-path="url(#clip790)" d="M25.9905 927.899 L25.9905 922.043 L61.6384 922.043 L61.6384 927.899 L25.9905 927.899 M12.1132 927.899 L12.1132 922.043 L19.5293 922.043 L19.5293 927.899 L12.1132 927.899 Z" fill="#000000" fill-rule="nonzero" fill-opacity="1" /><path clip-path="url(#clip790)" d="M30.0964 895.975 Q30.0964 900.686 33.7885 903.423 Q37.4488 906.16 43.8463 906.16 Q50.2438 906.16 53.9359 903.455 Q57.5962 900.717 57.5962 895.975 Q57.5962 891.296 53.9041 888.559 Q50.212 885.822 43.8463 885.822 Q37.5124 885.822 33.8203 888.559 Q30.0964 891.296 30.0964 895.975 M25.1311 895.975 Q25.1311 888.336 30.0964 883.976 Q35.0616 879.615 43.8463 879.615 Q52.5991 879.615 57.5962 883.976 Q62.5615 888.336 62.5615 895.975 Q62.5615 903.646 57.5962 908.006 Q52.5991 912.335 43.8463 912.335 Q35.0616 912.335 30.0964 908.006 Q25.1311 903.646 25.1311 895.975 Z" fill="#000000" fill-rule="nonzero" fill-opacity="1" /><path clip-path="url(#clip790)" d="M40.1224 840.275 L61.6384 840.275 L61.6384 846.132 L40.3133 846.132 Q35.2526 846.132 32.7381 848.105 Q30.2237 850.078 30.2237 854.025 Q30.2237 858.767 33.2474 861.505 Q36.2711 864.242 41.491 864.242 L61.6384 864.242 L61.6384 870.13 L25.9905 870.13 L25.9905 864.242 L31.5287 864.242 Q28.314 862.141 26.7225 859.309 Q25.1311 856.444 25.1311 852.72 Q25.1311 846.577 28.9505 843.426 Q32.7381 840.275 40.1224 840.275 Z" fill="#000000" fill-rule="nonzero" fill-opacity="1" /><path clip-path="url(#clip790)" d="M27.0408 785.148 L32.579 785.148 Q31.3059 787.631 30.6693 790.304 Q30.0327 792.978 30.0327 795.842 Q30.0327 800.203 31.3695 802.399 Q32.7063 804.563 35.3799 804.563 Q37.4169 804.563 38.5946 803.004 Q39.7404 801.444 40.7908 796.734 L41.2364 794.728 Q42.5732 788.49 45.0239 785.88 Q47.4429 783.238 51.8034 783.238 Q56.7687 783.238 59.6651 787.185 Q62.5615 791.1 62.5615 797.975 Q62.5615 800.84 61.9886 803.959 Q61.4475 807.046 60.3335 810.484 L54.2861 810.484 Q55.973 807.237 56.8323 804.086 Q57.6599 800.935 57.6599 797.848 Q57.6599 793.71 56.2594 791.482 Q54.8271 789.254 52.249 789.254 Q49.8619 789.254 48.5887 790.877 Q47.3156 792.469 46.1379 797.911 L45.6605 799.948 Q44.5147 805.391 42.1594 807.81 Q39.7722 810.229 35.6345 810.229 Q30.6056 810.229 27.8684 806.664 Q25.1311 803.099 25.1311 796.543 Q25.1311 793.296 25.6085 790.432 Q26.086 787.567 27.0408 785.148 Z" fill="#000000" fill-rule="nonzero" fill-opacity="1" /><path clip-path="url(#clip790)" d="M25.9905 773.913 L25.9905 768.056 L61.6384 768.056 L61.6384 773.913 L25.9905 773.913 M12.1132 773.913 L12.1132 768.056 L19.5293 768.056 L19.5293 773.913 L12.1132 773.913 Z" fill="#000000" fill-rule="nonzero" fill-opacity="1" /><path clip-path="url(#clip790)" d="M25.9905 758.348 L25.9905 730.53 L31.3377 730.53 L56.9596 752.556 L56.9596 730.53 L61.6384 730.53 L61.6384 759.144 L56.2912 759.144 L30.6693 737.119 L30.6693 758.348 L25.9905 758.348 Z" fill="#000000" fill-rule="nonzero" fill-opacity="1" /><path clip-path="url(#clip790)" d="M42.3504 691.095 L45.2149 691.095 L45.2149 718.022 Q51.2623 717.64 54.4452 714.393 Q57.5962 711.115 57.5962 705.29 Q57.5962 701.916 56.7687 698.765 Q55.9411 695.583 54.2861 692.463 L59.8242 692.463 Q61.161 695.614 61.8612 698.925 Q62.5615 702.235 62.5615 705.64 Q62.5615 714.17 57.5962 719.167 Q52.631 724.133 44.1646 724.133 Q35.4117 724.133 30.2873 719.422 Q25.1311 714.68 25.1311 706.659 Q25.1311 699.466 29.7781 695.296 Q34.3932 691.095 42.3504 691.095 M40.6316 696.951 Q35.8255 697.015 32.9609 699.657 Q30.0964 702.267 30.0964 706.595 Q30.0964 711.497 32.8654 714.457 Q35.6345 717.385 40.6634 717.831 L40.6316 696.951 Z" fill="#000000" fill-rule="nonzero" fill-opacity="1" /><path clip-path="url(#clip790)" d="M775.049 14.0809 L775.049 22.0612 Q770.39 19.8332 766.259 18.7395 Q762.127 17.6457 758.278 17.6457 Q751.594 17.6457 747.948 20.2383 Q744.343 22.8309 744.343 27.611 Q744.343 31.6214 746.733 33.6873 Q749.164 35.7128 755.888 36.9686 L760.83 37.9813 Q769.985 39.7232 774.32 44.1387 Q778.695 48.5136 778.695 55.8863 Q778.695 64.6767 772.78 69.2137 Q766.907 73.7508 755.524 73.7508 Q751.23 73.7508 746.369 72.7785 Q741.548 71.8063 736.363 69.9024 L736.363 61.4765 Q741.345 64.2716 746.126 65.6895 Q750.906 67.1073 755.524 67.1073 Q762.532 67.1073 766.34 64.3527 Q770.147 61.598 770.147 56.4939 Q770.147 52.0379 767.393 49.5264 Q764.679 47.0148 758.44 45.759 L753.458 44.7868 Q744.303 42.9639 740.211 39.075 Q736.12 35.1862 736.12 28.2591 Q736.12 20.2383 741.751 15.6203 Q747.422 11.0023 757.347 11.0023 Q761.6 11.0023 766.015 11.7719 Q770.431 12.5416 775.049 14.0809 Z" fill="#000000" fill-rule="nonzero" fill-opacity="1" /><path clip-path="url(#clip790)" d="M791.455 12.096 L799.638 12.096 L799.638 72.576 L791.455 72.576 L791.455 12.096 Z" fill="#000000" fill-rule="nonzero" fill-opacity="1" /><path clip-path="url(#clip790)" d="M844.603 44.2197 Q847.236 45.1109 849.707 48.0275 Q852.219 50.9442 854.73 56.0483 L863.035 72.576 L854.244 72.576 L846.507 57.061 Q843.509 50.9847 840.674 48.9997 Q837.879 47.0148 833.017 47.0148 L824.105 47.0148 L824.105 72.576 L815.923 72.576 L815.923 12.096 L834.395 12.096 Q844.765 12.096 849.869 16.4305 Q854.973 20.7649 854.973 29.5149 Q854.973 35.2267 852.3 38.994 Q849.667 42.7613 844.603 44.2197 M824.105 18.8205 L824.105 40.2903 L834.395 40.2903 Q840.309 40.2903 843.307 37.5762 Q846.345 34.8216 846.345 29.5149 Q846.345 24.2082 843.307 21.5346 Q840.309 18.8205 834.395 18.8205 L824.105 18.8205 Z" fill="#000000" fill-rule="nonzero" fill-opacity="1" /><path clip-path="url(#clip790)" d="M895.28 27.2059 L902.733 27.2059 L912.051 62.6108 L921.327 27.2059 L930.118 27.2059 L939.435 62.6108 L948.711 27.2059 L956.165 27.2059 L944.296 72.576 L935.505 72.576 L925.743 35.3887 L915.939 72.576 L907.149 72.576 L895.28 27.2059 Z" fill="#000000" fill-rule="nonzero" fill-opacity="1" /><path clip-path="url(#clip790)" d="M967.467 27.2059 L974.921 27.2059 L974.921 72.576 L967.467 72.576 L967.467 27.2059 M967.467 9.54393 L974.921 9.54393 L974.921 18.9825 L967.467 18.9825 L967.467 9.54393 Z" fill="#000000" fill-rule="nonzero" fill-opacity="1" /><path clip-path="url(#clip790)" d="M997.889 14.324 L997.889 27.2059 L1013.24 27.2059 L1013.24 32.9987 L997.889 32.9987 L997.889 57.6282 Q997.889 63.1779 999.388 64.7578 Q1000.93 66.3376 1005.59 66.3376 L1013.24 66.3376 L1013.24 72.576 L1005.59 72.576 Q996.958 72.576 993.676 69.3758 Q990.395 66.1351 990.395 57.6282 L990.395 32.9987 L984.926 32.9987 L984.926 27.2059 L990.395 27.2059 L990.395 14.324 L997.889 14.324 Z" fill="#000000" fill-rule="nonzero" fill-opacity="1" /><path clip-path="url(#clip790)" d="M1060.76 45.1919 L1060.76 72.576 L1053.31 72.576 L1053.31 45.4349 Q1053.31 38.994 1050.79 35.7938 Q1048.28 32.5936 1043.26 32.5936 Q1037.22 32.5936 1033.74 36.4419 Q1030.26 40.2903 1030.26 46.9338 L1030.26 72.576 L1022.76 72.576 L1022.76 9.54393 L1030.26 9.54393 L1030.26 34.2544 Q1032.93 30.163 1036.53 28.1376 Q1040.18 26.1121 1044.92 26.1121 Q1052.74 26.1121 1056.75 30.9732 Q1060.76 35.7938 1060.76 45.1919 Z" fill="#000000" fill-rule="nonzero" fill-opacity="1" /><path clip-path="url(#clip790)" d="M1110.5 18.8205 L1110.5 65.8515 L1120.39 65.8515 Q1132.91 65.8515 1138.7 60.1802 Q1144.53 54.509 1144.53 42.2752 Q1144.53 30.1225 1138.7 24.4918 Q1132.91 18.8205 1120.39 18.8205 L1110.5 18.8205 M1102.32 12.096 L1119.13 12.096 Q1136.71 12.096 1144.94 19.4281 Q1153.16 26.7198 1153.16 42.2752 Q1153.16 57.9117 1144.9 65.2439 Q1136.63 72.576 1119.13 72.576 L1102.32 72.576 L1102.32 12.096 Z" fill="#000000" fill-rule="nonzero" fill-opacity="1" /><path clip-path="url(#clip790)" d="M1165.88 27.2059 L1173.33 27.2059 L1173.33 72.576 L1165.88 72.576 L1165.88 27.2059 M1165.88 9.54393 L1173.33 9.54393 L1173.33 18.9825 L1165.88 18.9825 L1165.88 9.54393 Z" fill="#000000" fill-rule="nonzero" fill-opacity="1" /><path clip-path="url(#clip790)" d="M1217.85 28.5427 L1217.85 35.5912 Q1214.69 33.9709 1211.29 33.1607 Q1207.89 32.3505 1204.24 32.3505 Q1198.69 32.3505 1195.9 34.0519 Q1193.14 35.7533 1193.14 39.156 Q1193.14 41.7486 1195.13 43.2475 Q1197.11 44.7058 1203.11 46.0426 L1205.66 46.6097 Q1213.6 48.3111 1216.92 51.4303 Q1220.28 54.509 1220.28 60.0587 Q1220.28 66.3781 1215.26 70.0644 Q1210.28 73.7508 1201.53 73.7508 Q1197.88 73.7508 1193.91 73.0216 Q1189.98 72.3329 1185.61 70.9151 L1185.61 63.2184 Q1189.74 65.3654 1193.75 66.4591 Q1197.76 67.5124 1201.69 67.5124 Q1206.96 67.5124 1209.79 65.73 Q1212.63 63.9071 1212.63 60.6258 Q1212.63 57.5877 1210.56 55.9673 Q1208.54 54.3469 1201.61 52.8481 L1199.02 52.2405 Q1192.09 50.7821 1189.01 47.7845 Q1185.93 44.7463 1185.93 39.4801 Q1185.93 33.0797 1190.47 29.5959 Q1195.01 26.1121 1203.35 26.1121 Q1207.48 26.1121 1211.13 26.7198 Q1214.77 27.3274 1217.85 28.5427 Z" fill="#000000" fill-rule="nonzero" fill-opacity="1" /><path clip-path="url(#clip790)" d="M1270.96 48.0275 L1270.96 51.6733 L1236.69 51.6733 Q1237.18 59.3701 1241.31 63.421 Q1245.48 67.4314 1252.89 67.4314 Q1257.19 67.4314 1261.2 66.3781 Q1265.25 65.3249 1269.22 63.2184 L1269.22 70.267 Q1265.21 71.9684 1261 72.8596 Q1256.78 73.7508 1252.45 73.7508 Q1241.59 73.7508 1235.23 67.4314 Q1228.91 61.1119 1228.91 50.3365 Q1228.91 39.1965 1234.91 32.6746 Q1240.94 26.1121 1251.15 26.1121 Q1260.31 26.1121 1265.61 32.0264 Q1270.96 37.9003 1270.96 48.0275 M1263.51 45.84 Q1263.43 39.7232 1260.06 36.0774 Q1256.74 32.4315 1251.23 32.4315 Q1244.99 32.4315 1241.23 35.9558 Q1237.5 39.4801 1236.93 45.8805 L1263.51 45.84 Z" fill="#000000" fill-rule="nonzero" fill-opacity="1" /><path clip-path="url(#clip790)" d="M1303.81 49.7694 Q1294.78 49.7694 1291.3 51.8354 Q1287.81 53.9013 1287.81 58.8839 Q1287.81 62.8538 1290.41 65.2034 Q1293.04 67.5124 1297.53 67.5124 Q1303.73 67.5124 1307.46 63.1374 Q1311.23 58.7219 1311.23 51.4303 L1311.23 49.7694 L1303.81 49.7694 M1318.68 46.6907 L1318.68 72.576 L1311.23 72.576 L1311.23 65.6895 Q1308.67 69.8214 1304.87 71.8063 Q1301.06 73.7508 1295.55 73.7508 Q1288.58 73.7508 1284.45 69.8619 Q1280.36 65.9325 1280.36 59.3701 Q1280.36 51.7138 1285.46 47.825 Q1290.61 43.9361 1300.78 43.9361 L1311.23 43.9361 L1311.23 43.2069 Q1311.23 38.0623 1307.82 35.2672 Q1304.46 32.4315 1298.34 32.4315 Q1294.46 32.4315 1290.77 33.3632 Q1287.08 34.295 1283.68 36.1584 L1283.68 29.2718 Q1287.77 27.692 1291.62 26.9223 Q1295.47 26.1121 1299.11 26.1121 Q1308.96 26.1121 1313.82 31.2163 Q1318.68 36.3204 1318.68 46.6907 Z" fill="#000000" fill-rule="nonzero" fill-opacity="1" /><path clip-path="url(#clip790)" d="M1362.96 28.5427 L1362.96 35.5912 Q1359.8 33.9709 1356.39 33.1607 Q1352.99 32.3505 1349.35 32.3505 Q1343.8 32.3505 1341 34.0519 Q1338.25 35.7533 1338.25 39.156 Q1338.25 41.7486 1340.23 43.2475 Q1342.22 44.7058 1348.21 46.0426 L1350.76 46.6097 Q1358.7 48.3111 1362.03 51.4303 Q1365.39 54.509 1365.39 60.0587 Q1365.39 66.3781 1360.36 70.0644 Q1355.38 73.7508 1346.63 73.7508 Q1342.99 73.7508 1339.02 73.0216 Q1335.09 72.3329 1330.71 70.9151 L1330.71 63.2184 Q1334.84 65.3654 1338.85 66.4591 Q1342.86 67.5124 1346.79 67.5124 Q1352.06 67.5124 1354.9 65.73 Q1357.73 63.9071 1357.73 60.6258 Q1357.73 57.5877 1355.67 55.9673 Q1353.64 54.3469 1346.71 52.8481 L1344.12 52.2405 Q1337.19 50.7821 1334.11 47.7845 Q1331.04 44.7463 1331.04 39.4801 Q1331.04 33.0797 1335.57 29.5959 Q1340.11 26.1121 1348.45 26.1121 Q1352.59 26.1121 1356.23 26.7198 Q1359.88 27.3274 1362.96 28.5427 Z" fill="#000000" fill-rule="nonzero" fill-opacity="1" /><path clip-path="url(#clip790)" d="M1416.06 48.0275 L1416.06 51.6733 L1381.79 51.6733 Q1382.28 59.3701 1386.41 63.421 Q1390.58 67.4314 1398 67.4314 Q1402.29 67.4314 1406.3 66.3781 Q1410.35 65.3249 1414.32 63.2184 L1414.32 70.267 Q1410.31 71.9684 1406.1 72.8596 Q1401.89 73.7508 1397.55 73.7508 Q1386.7 73.7508 1380.34 67.4314 Q1374.02 61.1119 1374.02 50.3365 Q1374.02 39.1965 1380.01 32.6746 Q1386.05 26.1121 1396.26 26.1121 Q1405.41 26.1121 1410.72 32.0264 Q1416.06 37.9003 1416.06 48.0275 M1408.61 45.84 Q1408.53 39.7232 1405.17 36.0774 Q1401.85 32.4315 1396.34 32.4315 Q1390.1 32.4315 1386.33 35.9558 Q1382.6 39.4801 1382.04 45.8805 L1408.61 45.84 Z" fill="#000000" fill-rule="nonzero" fill-opacity="1" /><path clip-path="url(#clip790)" d="M1424.53 46.5287 L1446.36 46.5287 L1446.36 53.1722 L1424.53 53.1722 L1424.53 46.5287 Z" fill="#000000" fill-rule="nonzero" fill-opacity="1" /><path clip-path="url(#clip790)" d="M1458.56 12.096 L1466.74 12.096 L1466.74 72.576 L1458.56 72.576 L1458.56 12.096 Z" fill="#000000" fill-rule="nonzero" fill-opacity="1" /><path clip-path="url(#clip790)" d="M1520.42 45.1919 L1520.42 72.576 L1512.96 72.576 L1512.96 45.4349 Q1512.96 38.994 1510.45 35.7938 Q1507.94 32.5936 1502.92 32.5936 Q1496.88 32.5936 1493.4 36.4419 Q1489.91 40.2903 1489.91 46.9338 L1489.91 72.576 L1482.42 72.576 L1482.42 27.2059 L1489.91 27.2059 L1489.91 34.2544 Q1492.59 30.163 1496.19 28.1376 Q1499.84 26.1121 1504.58 26.1121 Q1512.39 26.1121 1516.4 30.9732 Q1520.42 35.7938 1520.42 45.1919 Z" fill="#000000" fill-rule="nonzero" fill-opacity="1" /><path clip-path="url(#clip790)" d="M1565.14 34.0924 L1565.14 9.54393 L1572.59 9.54393 L1572.59 72.576 L1565.14 72.576 L1565.14 65.7705 Q1562.79 69.8214 1559.18 71.8063 Q1555.62 73.7508 1550.59 73.7508 Q1542.37 73.7508 1537.19 67.1883 Q1532.04 60.6258 1532.04 49.9314 Q1532.04 39.2371 1537.19 32.6746 Q1542.37 26.1121 1550.59 26.1121 Q1555.62 26.1121 1559.18 28.0971 Q1562.79 30.0415 1565.14 34.0924 M1539.74 49.9314 Q1539.74 58.1548 1543.1 62.8538 Q1546.5 67.5124 1552.42 67.5124 Q1558.33 67.5124 1561.73 62.8538 Q1565.14 58.1548 1565.14 49.9314 Q1565.14 41.7081 1561.73 37.0496 Q1558.33 32.3505 1552.42 32.3505 Q1546.5 32.3505 1543.1 37.0496 Q1539.74 41.7081 1539.74 49.9314 Z" fill="#000000" fill-rule="nonzero" fill-opacity="1" /><path clip-path="url(#clip790)" d="M1587.17 54.671 L1587.17 27.2059 L1594.63 27.2059 L1594.63 54.3874 Q1594.63 60.8284 1597.14 64.0691 Q1599.65 67.2693 1604.67 67.2693 Q1610.71 67.2693 1614.19 63.421 Q1617.72 59.5726 1617.72 52.9291 L1617.72 27.2059 L1625.17 27.2059 L1625.17 72.576 L1617.72 72.576 L1617.72 65.6084 Q1615 69.7404 1611.4 71.7658 Q1607.83 73.7508 1603.09 73.7508 Q1595.28 73.7508 1591.23 68.8897 Q1587.17 64.0286 1587.17 54.671 M1605.93 26.1121 L1605.93 26.1121 Z" fill="#000000" fill-rule="nonzero" fill-opacity="1" /><path clip-path="url(#clip790)" d="M1673.17 28.9478 L1673.17 35.9153 Q1670.02 34.1734 1666.82 33.3227 Q1663.66 32.4315 1660.41 32.4315 Q1653.16 32.4315 1649.15 37.0496 Q1645.14 41.6271 1645.14 49.9314 Q1645.14 58.2358 1649.15 62.8538 Q1653.16 67.4314 1660.41 67.4314 Q1663.66 67.4314 1666.82 66.5807 Q1670.02 65.6895 1673.17 63.9476 L1673.17 70.8341 Q1670.06 72.2924 1666.69 73.0216 Q1663.37 73.7508 1659.6 73.7508 Q1649.36 73.7508 1643.32 67.3098 Q1637.28 60.8689 1637.28 49.9314 Q1637.28 38.832 1643.36 32.472 Q1649.48 26.1121 1660.09 26.1121 Q1663.53 26.1121 1666.82 26.8413 Q1670.1 27.5299 1673.17 28.9478 Z" fill="#000000" fill-rule="nonzero" fill-opacity="1" /><path clip-path="url(#clip790)" d="M1724.95 48.0275 L1724.95 51.6733 L1690.67 51.6733 Q1691.16 59.3701 1695.29 63.421 Q1699.47 67.4314 1706.88 67.4314 Q1711.17 67.4314 1715.18 66.3781 Q1719.23 65.3249 1723.2 63.2184 L1723.2 70.267 Q1719.19 71.9684 1714.98 72.8596 Q1710.77 73.7508 1706.43 73.7508 Q1695.58 73.7508 1689.22 67.4314 Q1682.9 61.1119 1682.9 50.3365 Q1682.9 39.1965 1688.89 32.6746 Q1694.93 26.1121 1705.14 26.1121 Q1714.29 26.1121 1719.6 32.0264 Q1724.95 37.9003 1724.95 48.0275 M1717.49 45.84 Q1717.41 39.7232 1714.05 36.0774 Q1710.73 32.4315 1705.22 32.4315 Q1698.98 32.4315 1695.21 35.9558 Q1691.49 39.4801 1690.92 45.8805 L1717.49 45.84 Z" fill="#000000" fill-rule="nonzero" fill-opacity="1" /><path clip-path="url(#clip790)" d="M1767.03 34.0924 L1767.03 9.54393 L1774.49 9.54393 L1774.49 72.576 L1767.03 72.576 L1767.03 65.7705 Q1764.68 69.8214 1761.08 71.8063 Q1757.51 73.7508 1752.49 73.7508 Q1744.27 73.7508 1739.08 67.1883 Q1733.94 60.6258 1733.94 49.9314 Q1733.94 39.2371 1739.08 32.6746 Q1744.27 26.1121 1752.49 26.1121 Q1757.51 26.1121 1761.08 28.0971 Q1764.68 30.0415 1767.03 34.0924 M1741.64 49.9314 Q1741.64 58.1548 1745 62.8538 Q1748.4 67.5124 1754.31 67.5124 Q1760.23 67.5124 1763.63 62.8538 Q1767.03 58.1548 1767.03 49.9314 Q1767.03 41.7081 1763.63 37.0496 Q1760.23 32.3505 1754.31 32.3505 Q1748.4 32.3505 1745 37.0496 Q1741.64 41.7081 1741.64 49.9314 Z" fill="#000000" fill-rule="nonzero" fill-opacity="1" /><path clip-path="url(#clip790)" d="M1816.54 12.096 L1828.73 12.096 L1844.16 53.2532 L1859.68 12.096 L1871.87 12.096 L1871.87 72.576 L1863.89 72.576 L1863.89 19.4686 L1848.3 60.9499 L1840.07 60.9499 L1824.48 19.4686 L1824.48 72.576 L1816.54 72.576 L1816.54 12.096 Z" fill="#000000" fill-rule="nonzero" fill-opacity="1" /><path clip-path="url(#clip790)" d="M1905.37 32.4315 Q1899.38 32.4315 1895.89 37.1306 Q1892.41 41.7891 1892.41 49.9314 Q1892.41 58.0738 1895.85 62.7728 Q1899.34 67.4314 1905.37 67.4314 Q1911.33 67.4314 1914.81 62.7323 Q1918.3 58.0333 1918.3 49.9314 Q1918.3 41.8701 1914.81 37.1711 Q1911.33 32.4315 1905.37 32.4315 M1905.37 26.1121 Q1915.09 26.1121 1920.64 32.4315 Q1926.19 38.7509 1926.19 49.9314 Q1926.19 61.0714 1920.64 67.4314 Q1915.09 73.7508 1905.37 73.7508 Q1895.61 73.7508 1890.06 67.4314 Q1884.55 61.0714 1884.55 49.9314 Q1884.55 38.7509 1890.06 32.4315 Q1895.61 26.1121 1905.37 26.1121 Z" fill="#000000" fill-rule="nonzero" fill-opacity="1" /><path clip-path="url(#clip790)" d="M1964.84 34.1734 Q1963.58 33.4443 1962.09 33.1202 Q1960.63 32.7556 1958.84 32.7556 Q1952.53 32.7556 1949.12 36.8875 Q1945.76 40.9789 1945.76 48.6757 L1945.76 72.576 L1938.27 72.576 L1938.27 27.2059 L1945.76 27.2059 L1945.76 34.2544 Q1948.11 30.1225 1951.88 28.1376 Q1955.64 26.1121 1961.03 26.1121 Q1961.8 26.1121 1962.73 26.2337 Q1963.67 26.3147 1964.8 26.5172 L1964.84 34.1734 Z" fill="#000000" fill-rule="nonzero" fill-opacity="1" /><path clip-path="url(#clip790)" d="M1980.03 14.324 L1980.03 27.2059 L1995.38 27.2059 L1995.38 32.9987 L1980.03 32.9987 L1980.03 57.6282 Q1980.03 63.1779 1981.53 64.7578 Q1983.07 66.3376 1987.73 66.3376 L1995.38 66.3376 L1995.38 72.576 L1987.73 72.576 Q1979.1 72.576 1975.82 69.3758 Q1972.54 66.1351 1972.54 57.6282 L1972.54 32.9987 L1967.07 32.9987 L1967.07 27.2059 L1972.54 27.2059 L1972.54 14.324 L1980.03 14.324 Z" fill="#000000" fill-rule="nonzero" fill-opacity="1" /><path clip-path="url(#clip790)" d="M2025.81 49.7694 Q2016.77 49.7694 2013.29 51.8354 Q2009.81 53.9013 2009.81 58.8839 Q2009.81 62.8538 2012.4 65.2034 Q2015.03 67.5124 2019.53 67.5124 Q2025.73 67.5124 2029.45 63.1374 Q2033.22 58.7219 2033.22 51.4303 L2033.22 49.7694 L2025.81 49.7694 M2040.67 46.6907 L2040.67 72.576 L2033.22 72.576 L2033.22 65.6895 Q2030.67 69.8214 2026.86 71.8063 Q2023.05 73.7508 2017.54 73.7508 Q2010.57 73.7508 2006.44 69.8619 Q2002.35 65.9325 2002.35 59.3701 Q2002.35 51.7138 2007.46 47.825 Q2012.6 43.9361 2022.77 43.9361 L2033.22 43.9361 L2033.22 43.2069 Q2033.22 38.0623 2029.82 35.2672 Q2026.45 32.4315 2020.34 32.4315 Q2016.45 32.4315 2012.76 33.3632 Q2009.08 34.295 2005.67 36.1584 L2005.67 29.2718 Q2009.76 27.692 2013.61 26.9223 Q2017.46 26.1121 2021.11 26.1121 Q2030.95 26.1121 2035.81 31.2163 Q2040.67 36.3204 2040.67 46.6907 Z" fill="#000000" fill-rule="nonzero" fill-opacity="1" /><path clip-path="url(#clip790)" d="M2056.03 9.54393 L2063.48 9.54393 L2063.48 72.576 L2056.03 72.576 L2056.03 9.54393 Z" fill="#000000" fill-rule="nonzero" fill-opacity="1" /><path clip-path="url(#clip790)" d="M2079.08 27.2059 L2086.53 27.2059 L2086.53 72.576 L2079.08 72.576 L2079.08 27.2059 M2079.08 9.54393 L2086.53 9.54393 L2086.53 18.9825 L2079.08 18.9825 L2079.08 9.54393 Z" fill="#000000" fill-rule="nonzero" fill-opacity="1" /><path clip-path="url(#clip790)" d="M2109.5 14.324 L2109.5 27.2059 L2124.85 27.2059 L2124.85 32.9987 L2109.5 32.9987 L2109.5 57.6282 Q2109.5 63.1779 2111 64.7578 Q2112.54 66.3376 2117.19 66.3376 L2124.85 66.3376 L2124.85 72.576 L2117.19 72.576 Q2108.57 72.576 2105.28 69.3758 Q2102 66.1351 2102 57.6282 L2102 32.9987 L2096.53 32.9987 L2096.53 27.2059 L2102 27.2059 L2102 14.324 L2109.5 14.324 Z" fill="#000000" fill-rule="nonzero" fill-opacity="1" /><path clip-path="url(#clip790)" d="M2153.53 76.7889 Q2150.37 84.8907 2147.37 87.3618 Q2144.38 89.8329 2139.35 89.8329 L2133.4 89.8329 L2133.4 83.5945 L2137.77 83.5945 Q2140.85 83.5945 2142.55 82.1361 Q2144.25 80.6778 2146.32 75.2496 L2147.66 71.8468 L2129.31 27.2059 L2137.21 27.2059 L2151.38 62.6918 L2165.56 27.2059 L2173.46 27.2059 L2153.53 76.7889 Z" fill="#000000" fill-rule="nonzero" fill-opacity="1" /><polyline clip-path="url(#clip791)" style="stroke:#800080; stroke-linecap:round; stroke-linejoin:round; stroke-width:8; stroke-opacity:1; fill:none" points="335.956,173.254 391.897,173.254 447.839,173.254 503.781,173.254 559.723,173.254 615.664,173.254 671.606,341.632 727.548,341.632 783.49,510.01 839.431,510.01 895.373,510.01 951.315,510.01 1007.26,510.01 1063.2,678.388 1119.14,678.388 1175.08,678.388 1231.02,678.388 1286.97,678.388 1342.91,678.388 1398.85,678.388 1454.79,678.388 1510.73,1015.14 1566.67,1015.14 1622.62,1015.14 1678.56,1015.14 1734.5,1015.14 1790.44,1015.14 1846.38,1015.14 1902.32,1183.52 1958.27,1183.52 2014.21,1183.52 2070.15,1183.52 2126.09,1183.52 2182.03,1183.52 2237.98,1183.52 2293.92,1351.9 2349.86,1351.9 2405.8,1351.9 2461.74,1520.28 2517.68,1520.28 2573.63,1688.65 "/>
<path clip-path="url(#clip790)" d="M1696.08 285.016 L2561.69 285.016 L2561.69 181.336 L1696.08 181.336  Z" fill="#ffffff" fill-rule="evenodd" fill-opacity="1"/>
<polyline clip-path="url(#clip790)" style="stroke:#000000; stroke-linecap:round; stroke-linejoin:round; stroke-width:4; stroke-opacity:1; fill:none" points="1696.08,285.016 2561.69,285.016 2561.69,181.336 1696.08,181.336 1696.08,285.016 "/>
<polyline clip-path="url(#clip790)" style="stroke:#800080; stroke-linecap:round; stroke-linejoin:round; stroke-width:8; stroke-opacity:1; fill:none" points="1722.43,233.176 1880.56,233.176 "/>
<path clip-path="url(#clip790)" d="M1911.59 219.739 L1911.59 232.725 L1917.47 232.725 Q1920.73 232.725 1922.52 231.035 Q1924.3 229.345 1924.3 226.22 Q1924.3 223.118 1922.52 221.429 Q1920.73 219.739 1917.47 219.739 L1911.59 219.739 M1906.91 215.896 L1917.47 215.896 Q1923.28 215.896 1926.24 218.535 Q1929.23 221.151 1929.23 226.22 Q1929.23 231.336 1926.24 233.952 Q1923.28 236.567 1917.47 236.567 L1911.59 236.567 L1911.59 250.456 L1906.91 250.456 L1906.91 215.896 Z" fill="#000000" fill-rule="nonzero" fill-opacity="1" /><path clip-path="url(#clip790)" d="M1943.67 227.517 Q1940.25 227.517 1938.26 230.202 Q1936.27 232.864 1936.27 237.517 Q1936.27 242.169 1938.23 244.854 Q1940.22 247.516 1943.67 247.516 Q1947.08 247.516 1949.07 244.831 Q1951.06 242.146 1951.06 237.517 Q1951.06 232.91 1949.07 230.225 Q1947.08 227.517 1943.67 227.517 M1943.67 223.906 Q1949.23 223.906 1952.4 227.517 Q1955.57 231.128 1955.57 237.517 Q1955.57 243.882 1952.4 247.516 Q1949.23 251.128 1943.67 251.128 Q1938.09 251.128 1934.92 247.516 Q1931.78 243.882 1931.78 237.517 Q1931.78 231.128 1934.92 227.517 Q1938.09 223.906 1943.67 223.906 Z" fill="#000000" fill-rule="nonzero" fill-opacity="1" /><path clip-path="url(#clip790)" d="M1966.75 246.567 L1966.75 260.317 L1962.47 260.317 L1962.47 224.531 L1966.75 224.531 L1966.75 228.466 Q1968.09 226.151 1970.13 225.04 Q1972.19 223.906 1975.04 223.906 Q1979.76 223.906 1982.7 227.655 Q1985.66 231.405 1985.66 237.517 Q1985.66 243.628 1982.7 247.378 Q1979.76 251.128 1975.04 251.128 Q1972.19 251.128 1970.13 250.016 Q1968.09 248.882 1966.75 246.567 M1981.24 237.517 Q1981.24 232.817 1979.3 230.155 Q1977.38 227.47 1974 227.47 Q1970.62 227.47 1968.67 230.155 Q1966.75 232.817 1966.75 237.517 Q1966.75 242.216 1968.67 244.901 Q1970.62 247.563 1974 247.563 Q1977.38 247.563 1979.3 244.901 Q1981.24 242.216 1981.24 237.517 Z" fill="#000000" fill-rule="nonzero" fill-opacity="1" /><path clip-path="url(#clip790)" d="M1992.28 240.225 L1992.28 224.531 L1996.54 224.531 L1996.54 240.063 Q1996.54 243.743 1997.98 245.595 Q1999.41 247.424 2002.28 247.424 Q2005.73 247.424 2007.72 245.225 Q2009.74 243.026 2009.74 239.229 L2009.74 224.531 L2014 224.531 L2014 250.456 L2009.74 250.456 L2009.74 246.475 Q2008.19 248.836 2006.13 249.993 Q2004.09 251.128 2001.38 251.128 Q1996.91 251.128 1994.6 248.35 Q1992.28 245.572 1992.28 240.225 M2003 223.906 L2003 223.906 Z" fill="#000000" fill-rule="nonzero" fill-opacity="1" /><path clip-path="url(#clip790)" d="M2022.77 214.438 L2027.03 214.438 L2027.03 250.456 L2022.77 250.456 L2022.77 214.438 Z" fill="#000000" fill-rule="nonzero" fill-opacity="1" /><path clip-path="url(#clip790)" d="M2047.72 237.424 Q2042.56 237.424 2040.57 238.604 Q2038.58 239.785 2038.58 242.632 Q2038.58 244.901 2040.06 246.243 Q2041.57 247.563 2044.14 247.563 Q2047.68 247.563 2049.81 245.063 Q2051.96 242.54 2051.96 238.373 L2051.96 237.424 L2047.72 237.424 M2056.22 235.665 L2056.22 250.456 L2051.96 250.456 L2051.96 246.521 Q2050.5 248.882 2048.33 250.016 Q2046.15 251.128 2043 251.128 Q2039.02 251.128 2036.66 248.905 Q2034.32 246.66 2034.32 242.91 Q2034.32 238.535 2037.24 236.313 Q2040.18 234.091 2045.99 234.091 L2051.96 234.091 L2051.96 233.674 Q2051.96 230.734 2050.02 229.137 Q2048.09 227.517 2044.6 227.517 Q2042.38 227.517 2040.27 228.049 Q2038.16 228.581 2036.22 229.646 L2036.22 225.711 Q2038.56 224.808 2040.76 224.368 Q2042.96 223.906 2045.04 223.906 Q2050.66 223.906 2053.44 226.822 Q2056.22 229.739 2056.22 235.665 Z" fill="#000000" fill-rule="nonzero" fill-opacity="1" /><path clip-path="url(#clip790)" d="M2069.21 217.169 L2069.21 224.531 L2077.98 224.531 L2077.98 227.841 L2069.21 227.841 L2069.21 241.915 Q2069.21 245.086 2070.06 245.989 Q2070.94 246.891 2073.6 246.891 L2077.98 246.891 L2077.98 250.456 L2073.6 250.456 Q2068.67 250.456 2066.8 248.628 Q2064.92 246.776 2064.92 241.915 L2064.92 227.841 L2061.8 227.841 L2061.8 224.531 L2064.92 224.531 L2064.92 217.169 L2069.21 217.169 Z" fill="#000000" fill-rule="nonzero" fill-opacity="1" /><path clip-path="url(#clip790)" d="M2083.58 224.531 L2087.84 224.531 L2087.84 250.456 L2083.58 250.456 L2083.58 224.531 M2083.58 214.438 L2087.84 214.438 L2087.84 219.831 L2083.58 219.831 L2083.58 214.438 Z" fill="#000000" fill-rule="nonzero" fill-opacity="1" /><path clip-path="url(#clip790)" d="M2106.8 227.517 Q2103.37 227.517 2101.38 230.202 Q2099.39 232.864 2099.39 237.517 Q2099.39 242.169 2101.36 244.854 Q2103.35 247.516 2106.8 247.516 Q2110.2 247.516 2112.19 244.831 Q2114.18 242.146 2114.18 237.517 Q2114.18 232.91 2112.19 230.225 Q2110.2 227.517 2106.8 227.517 M2106.8 223.906 Q2112.35 223.906 2115.52 227.517 Q2118.7 231.128 2118.7 237.517 Q2118.7 243.882 2115.52 247.516 Q2112.35 251.128 2106.8 251.128 Q2101.22 251.128 2098.05 247.516 Q2094.9 243.882 2094.9 237.517 Q2094.9 231.128 2098.05 227.517 Q2101.22 223.906 2106.8 223.906 Z" fill="#000000" fill-rule="nonzero" fill-opacity="1" /><path clip-path="url(#clip790)" d="M2147.31 234.808 L2147.31 250.456 L2143.05 250.456 L2143.05 234.947 Q2143.05 231.267 2141.61 229.438 Q2140.18 227.609 2137.31 227.609 Q2133.86 227.609 2131.87 229.808 Q2129.88 232.007 2129.88 235.804 L2129.88 250.456 L2125.59 250.456 L2125.59 224.531 L2129.88 224.531 L2129.88 228.558 Q2131.4 226.22 2133.46 225.063 Q2135.55 223.906 2138.26 223.906 Q2142.72 223.906 2145.01 226.683 Q2147.31 229.438 2147.31 234.808 Z" fill="#000000" fill-rule="nonzero" fill-opacity="1" /><path clip-path="url(#clip790)" d="M2181.1 214.484 Q2178 219.808 2176.5 225.017 Q2174.99 230.225 2174.99 235.572 Q2174.99 240.919 2176.5 246.174 Q2178.02 251.405 2181.1 256.706 L2177.4 256.706 Q2173.93 251.266 2172.19 246.012 Q2170.48 240.757 2170.48 235.572 Q2170.48 230.41 2172.19 225.179 Q2173.9 219.947 2177.4 214.484 L2181.1 214.484 Z" fill="#000000" fill-rule="nonzero" fill-opacity="1" /><path clip-path="url(#clip790)" d="M2193.49 246.567 L2193.49 260.317 L2189.2 260.317 L2189.2 224.531 L2193.49 224.531 L2193.49 228.466 Q2194.83 226.151 2196.87 225.04 Q2198.93 223.906 2201.77 223.906 Q2206.5 223.906 2209.44 227.655 Q2212.4 231.405 2212.4 237.517 Q2212.4 243.628 2209.44 247.378 Q2206.5 251.128 2201.77 251.128 Q2198.93 251.128 2196.87 250.016 Q2194.83 248.882 2193.49 246.567 M2207.98 237.517 Q2207.98 232.817 2206.03 230.155 Q2204.11 227.47 2200.73 227.47 Q2197.35 227.47 2195.41 230.155 Q2193.49 232.817 2193.49 237.517 Q2193.49 242.216 2195.41 244.901 Q2197.35 247.563 2200.73 247.563 Q2204.11 247.563 2206.03 244.901 Q2207.98 242.216 2207.98 237.517 Z" fill="#000000" fill-rule="nonzero" fill-opacity="1" /><path clip-path="url(#clip790)" d="M2239.16 258.327 L2239.16 261.637 L2214.53 261.637 L2214.53 258.327 L2239.16 258.327 Z" fill="#000000" fill-rule="nonzero" fill-opacity="1" /><path clip-path="url(#clip790)" d="M2260.22 228.466 L2260.22 214.438 L2264.48 214.438 L2264.48 250.456 L2260.22 250.456 L2260.22 246.567 Q2258.88 248.882 2256.82 250.016 Q2254.78 251.128 2251.91 251.128 Q2247.21 251.128 2244.25 247.378 Q2241.31 243.628 2241.31 237.517 Q2241.31 231.405 2244.25 227.655 Q2247.21 223.906 2251.91 223.906 Q2254.78 223.906 2256.82 225.04 Q2258.88 226.151 2260.22 228.466 M2245.71 237.517 Q2245.71 242.216 2247.63 244.901 Q2249.57 247.563 2252.95 247.563 Q2256.33 247.563 2258.28 244.901 Q2260.22 242.216 2260.22 237.517 Q2260.22 232.817 2258.28 230.155 Q2256.33 227.47 2252.95 227.47 Q2249.57 227.47 2247.63 230.155 Q2245.71 232.817 2245.71 237.517 Z" fill="#000000" fill-rule="nonzero" fill-opacity="1" /><path clip-path="url(#clip790)" d="M2295.43 236.429 L2295.43 238.512 L2275.85 238.512 Q2276.13 242.91 2278.49 245.225 Q2280.87 247.516 2285.11 247.516 Q2287.56 247.516 2289.85 246.915 Q2292.17 246.313 2294.44 245.109 L2294.44 249.137 Q2292.14 250.109 2289.74 250.618 Q2287.33 251.128 2284.85 251.128 Q2278.65 251.128 2275.01 247.516 Q2271.4 243.905 2271.4 237.748 Q2271.4 231.382 2274.83 227.655 Q2278.28 223.906 2284.11 223.906 Q2289.34 223.906 2292.38 227.285 Q2295.43 230.642 2295.43 236.429 M2291.17 235.179 Q2291.13 231.683 2289.2 229.6 Q2287.31 227.517 2284.16 227.517 Q2280.59 227.517 2278.44 229.53 Q2276.31 231.544 2275.99 235.202 L2291.17 235.179 Z" fill="#000000" fill-rule="nonzero" fill-opacity="1" /><path clip-path="url(#clip790)" d="M2314.2 237.424 Q2309.04 237.424 2307.05 238.604 Q2305.06 239.785 2305.06 242.632 Q2305.06 244.901 2306.54 246.243 Q2308.05 247.563 2310.62 247.563 Q2314.16 247.563 2316.29 245.063 Q2318.44 242.54 2318.44 238.373 L2318.44 237.424 L2314.2 237.424 M2322.7 235.665 L2322.7 250.456 L2318.44 250.456 L2318.44 246.521 Q2316.98 248.882 2314.81 250.016 Q2312.63 251.128 2309.48 251.128 Q2305.5 251.128 2303.14 248.905 Q2300.8 246.66 2300.8 242.91 Q2300.8 238.535 2303.72 236.313 Q2306.66 234.091 2312.47 234.091 L2318.44 234.091 L2318.44 233.674 Q2318.44 230.734 2316.5 229.137 Q2314.57 227.517 2311.08 227.517 Q2308.86 227.517 2306.75 228.049 Q2304.64 228.581 2302.7 229.646 L2302.7 225.711 Q2305.04 224.808 2307.24 224.368 Q2309.44 223.906 2311.52 223.906 Q2317.14 223.906 2319.92 226.822 Q2322.7 229.739 2322.7 235.665 Z" fill="#000000" fill-rule="nonzero" fill-opacity="1" /><path clip-path="url(#clip790)" d="M2335.69 217.169 L2335.69 224.531 L2344.46 224.531 L2344.46 227.841 L2335.69 227.841 L2335.69 241.915 Q2335.69 245.086 2336.54 245.989 Q2337.42 246.891 2340.08 246.891 L2344.46 246.891 L2344.46 250.456 L2340.08 250.456 Q2335.15 250.456 2333.28 248.628 Q2331.4 246.776 2331.4 241.915 L2331.4 227.841 L2328.28 227.841 L2328.28 224.531 L2331.4 224.531 L2331.4 217.169 L2335.69 217.169 Z" fill="#000000" fill-rule="nonzero" fill-opacity="1" /><path clip-path="url(#clip790)" d="M2371.61 234.808 L2371.61 250.456 L2367.35 250.456 L2367.35 234.947 Q2367.35 231.267 2365.92 229.438 Q2364.48 227.609 2361.61 227.609 Q2358.16 227.609 2356.17 229.808 Q2354.18 232.007 2354.18 235.804 L2354.18 250.456 L2349.9 250.456 L2349.9 214.438 L2354.18 214.438 L2354.18 228.558 Q2355.71 226.22 2357.77 225.063 Q2359.85 223.906 2362.56 223.906 Q2367.03 223.906 2369.32 226.683 Q2371.61 229.438 2371.61 234.808 Z" fill="#000000" fill-rule="nonzero" fill-opacity="1" /><path clip-path="url(#clip790)" d="M2380.66 228.929 L2410.34 228.929 L2410.34 232.817 L2380.66 232.817 L2380.66 228.929 M2380.66 238.373 L2410.34 238.373 L2410.34 242.308 L2380.66 242.308 L2380.66 238.373 Z" fill="#000000" fill-rule="nonzero" fill-opacity="1" /><path clip-path="url(#clip790)" d="M2430.43 218.975 Q2426.82 218.975 2424.99 222.54 Q2423.18 226.081 2423.18 233.211 Q2423.18 240.317 2424.99 243.882 Q2426.82 247.424 2430.43 247.424 Q2434.06 247.424 2435.87 243.882 Q2437.7 240.317 2437.7 233.211 Q2437.7 226.081 2435.87 222.54 Q2434.06 218.975 2430.43 218.975 M2430.43 215.271 Q2436.24 215.271 2439.3 219.878 Q2442.37 224.461 2442.37 233.211 Q2442.37 241.938 2439.3 246.544 Q2436.24 251.128 2430.43 251.128 Q2424.62 251.128 2421.54 246.544 Q2418.49 241.938 2418.49 233.211 Q2418.49 224.461 2421.54 219.878 Q2424.62 215.271 2430.43 215.271 Z" fill="#000000" fill-rule="nonzero" fill-opacity="1" /><path clip-path="url(#clip790)" d="M2450.59 244.577 L2455.48 244.577 L2455.48 250.456 L2450.59 250.456 L2450.59 244.577 Z" fill="#000000" fill-rule="nonzero" fill-opacity="1" /><path clip-path="url(#clip790)" d="M2475.66 218.975 Q2472.05 218.975 2470.22 222.54 Q2468.42 226.081 2468.42 233.211 Q2468.42 240.317 2470.22 243.882 Q2472.05 247.424 2475.66 247.424 Q2479.3 247.424 2481.1 243.882 Q2482.93 240.317 2482.93 233.211 Q2482.93 226.081 2481.1 222.54 Q2479.3 218.975 2475.66 218.975 M2475.66 215.271 Q2481.47 215.271 2484.53 219.878 Q2487.61 224.461 2487.61 233.211 Q2487.61 241.938 2484.53 246.544 Q2481.47 251.128 2475.66 251.128 Q2469.85 251.128 2466.77 246.544 Q2463.72 241.938 2463.72 233.211 Q2463.72 224.461 2466.77 219.878 Q2469.85 215.271 2475.66 215.271 Z" fill="#000000" fill-rule="nonzero" fill-opacity="1" /><path clip-path="url(#clip790)" d="M2499.85 246.521 L2516.17 246.521 L2516.17 250.456 L2494.23 250.456 L2494.23 246.521 Q2496.89 243.767 2501.47 239.137 Q2506.08 234.484 2507.26 233.142 Q2509.5 230.618 2510.38 228.882 Q2511.29 227.123 2511.29 225.433 Q2511.29 222.679 2509.34 220.943 Q2507.42 219.206 2504.32 219.206 Q2502.12 219.206 2499.67 219.97 Q2497.24 220.734 2494.46 222.285 L2494.46 217.563 Q2497.28 216.429 2499.74 215.85 Q2502.19 215.271 2504.23 215.271 Q2509.6 215.271 2512.79 217.956 Q2515.99 220.642 2515.99 225.132 Q2515.99 227.262 2515.17 229.183 Q2514.39 231.081 2512.28 233.674 Q2511.7 234.345 2508.6 237.563 Q2505.5 240.757 2499.85 246.521 Z" fill="#000000" fill-rule="nonzero" fill-opacity="1" /><path clip-path="url(#clip790)" d="M2524.71 214.484 L2528.42 214.484 Q2531.89 219.947 2533.6 225.179 Q2535.34 230.41 2535.34 235.572 Q2535.34 240.757 2533.6 246.012 Q2531.89 251.266 2528.42 256.706 L2524.71 256.706 Q2527.79 251.405 2529.3 246.174 Q2530.82 240.919 2530.82 235.572 Q2530.82 230.225 2529.3 225.017 Q2527.79 219.808 2524.71 214.484 Z" fill="#000000" fill-rule="nonzero" fill-opacity="1" /></svg>
