<?xml version="1.0" encoding="utf-8"?>
<svg xmlns="http://www.w3.org/2000/svg" xmlns:xlink="http://www.w3.org/1999/xlink" width="672" height="480" viewBox="0 0 2688 1920">
<defs>
  <clipPath id="clip700">
    <rect x="0" y="0" width="2688" height="1920"/>
  </clipPath>
</defs>
<path clip-path="url(#clip700)" d="M0 1920 L2688 1920 L2688 -4.26326e-14 L0 -4.26326e-14  Z" fill="#ffffff" fill-rule="evenodd" fill-opacity="1"/>
<defs>
  <clipPath id="clip701">
    <rect x="226" y="127" width="2416" height="1607"/>
  </clipPath>
</defs>
<path clip-path="url(#clip700)" d="M226.141 1734.12 L2640.76 1734.12 L2640.76 127.792 L226.141 127.792  Z" fill="#ffffff" fill-rule="evenodd" fill-opacity="1"/>
<polyline clip-path="url(#clip701)" style="stroke:#000000; stroke-linecap:round; stroke-linejoin:round; stroke-width:2; stroke-opacity:0.1; fill:none" points="294.479,1734.12 294.479,127.792 "/>
<polyline clip-path="url(#clip701)" style="stroke:#000000; stroke-linecap:round; stroke-linejoin:round; stroke-width:2; stroke-opacity:0.1; fill:none" points="863.963,1734.12 863.963,127.792 "/>
<polyline clip-path="url(#clip701)" style="stroke:#000000; stroke-linecap:round; stroke-linejoin:round; stroke-width:2; stroke-opacity:0.1; fill:none" points="1433.45,1734.12 1433.45,127.792 "/>
<polyline clip-path="url(#clip701)" style="stroke:#000000; stroke-linecap:round; stroke-linejoin:round; stroke-width:2; stroke-opacity:0.1; fill:none" points="2002.93,1734.12 2002.93,127.792 "/>
<polyline clip-path="url(#clip701)" style="stroke:#000000; stroke-linecap:round; stroke-linejoin:round; stroke-width:2; stroke-opacity:0.1; fill:none" points="2572.42,1734.12 2572.42,127.792 "/>
<polyline clip-path="url(#clip701)" style="stroke:#000000; stroke-linecap:round; stroke-linejoin:round; stroke-width:2; stroke-opacity:0.1; fill:none" points="226.141,1365.52 2640.76,1365.52 "/>
<polyline clip-path="url(#clip701)" style="stroke:#000000; stroke-linecap:round; stroke-linejoin:round; stroke-width:2; stroke-opacity:0.1; fill:none" points="226.141,994.096 2640.76,994.096 "/>
<polyline clip-path="url(#clip701)" style="stroke:#000000; stroke-linecap:round; stroke-linejoin:round; stroke-width:2; stroke-opacity:0.1; fill:none" points="226.141,622.674 2640.76,622.674 "/>
<polyline clip-path="url(#clip701)" style="stroke:#000000; stroke-linecap:round; stroke-linejoin:round; stroke-width:2; stroke-opacity:0.1; fill:none" points="226.141,251.253 2640.76,251.253 "/>
<polyline clip-path="url(#clip700)" style="stroke:#000000; stroke-linecap:round; stroke-linejoin:round; stroke-width:4; stroke-opacity:1; fill:none" points="226.141,1734.12 2640.76,1734.12 "/>
<polyline clip-path="url(#clip700)" style="stroke:#000000; stroke-linecap:round; stroke-linejoin:round; stroke-width:4; stroke-opacity:1; fill:none" points="294.479,1734.12 294.479,1715.22 "/>
<polyline clip-path="url(#clip700)" style="stroke:#000000; stroke-linecap:round; stroke-linejoin:round; stroke-width:4; stroke-opacity:1; fill:none" points="863.963,1734.12 863.963,1715.22 "/>
<polyline clip-path="url(#clip700)" style="stroke:#000000; stroke-linecap:round; stroke-linejoin:round; stroke-width:4; stroke-opacity:1; fill:none" points="1433.45,1734.12 1433.45,1715.22 "/>
<polyline clip-path="url(#clip700)" style="stroke:#000000; stroke-linecap:round; stroke-linejoin:round; stroke-width:4; stroke-opacity:1; fill:none" points="2002.93,1734.12 2002.93,1715.22 "/>
<polyline clip-path="url(#clip700)" style="stroke:#000000; stroke-linecap:round; stroke-linejoin:round; stroke-width:4; stroke-opacity:1; fill:none" points="2572.42,1734.12 2572.42,1715.22 "/>
<path clip-path="url(#clip700)" d="M294.479 1767.34 Q290.868 1767.34 289.039 1770.9 Q287.233 1774.45 287.233 1781.58 Q287.233 1788.68 289.039 1792.25 Q290.868 1795.79 294.479 1795.79 Q298.113 1795.79 299.919 1792.25 Q301.747 1788.68 301.747 1781.58 Q301.747 1774.45 299.919 1770.9 Q298.113 1767.34 294.479 1767.34 M294.479 1763.64 Q300.289 1763.64 303.344 1768.24 Q306.423 1772.83 306.423 1781.58 Q306.423 1790.3 303.344 1794.91 Q300.289 1799.49 294.479 1799.49 Q288.669 1799.49 285.59 1794.91 Q282.534 1790.3 282.534 1781.58 Q282.534 1772.83 285.59 1768.24 Q288.669 1763.64 294.479 1763.64 Z" fill="#000000" fill-rule="nonzero" fill-opacity="1" /><path clip-path="url(#clip700)" d="M838.651 1794.89 L846.29 1794.89 L846.29 1768.52 L837.98 1770.19 L837.98 1765.93 L846.244 1764.26 L850.92 1764.26 L850.92 1794.89 L858.558 1794.89 L858.558 1798.82 L838.651 1798.82 L838.651 1794.89 Z" fill="#000000" fill-rule="nonzero" fill-opacity="1" /><path clip-path="url(#clip700)" d="M878.003 1767.34 Q874.392 1767.34 872.563 1770.9 Q870.757 1774.45 870.757 1781.58 Q870.757 1788.68 872.563 1792.25 Q874.392 1795.79 878.003 1795.79 Q881.637 1795.79 883.443 1792.25 Q885.271 1788.68 885.271 1781.58 Q885.271 1774.45 883.443 1770.9 Q881.637 1767.34 878.003 1767.34 M878.003 1763.64 Q883.813 1763.64 886.868 1768.24 Q889.947 1772.83 889.947 1781.58 Q889.947 1790.3 886.868 1794.91 Q883.813 1799.49 878.003 1799.49 Q872.193 1799.49 869.114 1794.91 Q866.058 1790.3 866.058 1781.58 Q866.058 1772.83 869.114 1768.24 Q872.193 1763.64 878.003 1763.64 Z" fill="#000000" fill-rule="nonzero" fill-opacity="1" /><path clip-path="url(#clip700)" d="M1412.22 1794.89 L1428.54 1794.89 L1428.54 1798.82 L1406.6 1798.82 L1406.6 1794.89 Q1409.26 1792.13 1413.84 1787.5 Q1418.45 1782.85 1419.63 1781.51 Q1421.87 1778.98 1422.75 1777.25 Q1423.66 1775.49 1423.66 1773.8 Q1423.66 1771.04 1421.71 1769.31 Q1419.79 1767.57 1416.69 1767.57 Q1414.49 1767.57 1412.04 1768.34 Q1409.61 1769.1 1406.83 1770.65 L1406.83 1765.93 Q1409.65 1764.79 1412.11 1764.21 Q1414.56 1763.64 1416.6 1763.64 Q1421.97 1763.64 1425.16 1766.32 Q1428.36 1769.01 1428.36 1773.5 Q1428.36 1775.63 1427.55 1777.55 Q1426.76 1779.45 1424.65 1782.04 Q1424.07 1782.71 1420.97 1785.93 Q1417.87 1789.12 1412.22 1794.89 Z" fill="#000000" fill-rule="nonzero" fill-opacity="1" /><path clip-path="url(#clip700)" d="M1448.36 1767.34 Q1444.74 1767.34 1442.92 1770.9 Q1441.11 1774.45 1441.11 1781.58 Q1441.11 1788.68 1442.92 1792.25 Q1444.74 1795.79 1448.36 1795.79 Q1451.99 1795.79 1453.8 1792.25 Q1455.62 1788.68 1455.62 1781.58 Q1455.62 1774.45 1453.8 1770.9 Q1451.99 1767.34 1448.36 1767.34 M1448.36 1763.64 Q1454.17 1763.64 1457.22 1768.24 Q1460.3 1772.83 1460.3 1781.58 Q1460.3 1790.3 1457.22 1794.91 Q1454.17 1799.49 1448.36 1799.49 Q1442.55 1799.49 1439.47 1794.91 Q1436.41 1790.3 1436.41 1781.58 Q1436.41 1772.83 1439.47 1768.24 Q1442.55 1763.64 1448.36 1763.64 Z" fill="#000000" fill-rule="nonzero" fill-opacity="1" /><path clip-path="url(#clip700)" d="M1991.78 1780.19 Q1995.13 1780.9 1997.01 1783.17 Q1998.91 1785.44 1998.91 1788.77 Q1998.91 1793.89 1995.39 1796.69 Q1991.87 1799.49 1985.39 1799.49 Q1983.21 1799.49 1980.9 1799.05 Q1978.6 1798.64 1976.15 1797.78 L1976.15 1793.27 Q1978.1 1794.4 1980.41 1794.98 Q1982.72 1795.56 1985.25 1795.56 Q1989.65 1795.56 1991.94 1793.82 Q1994.25 1792.08 1994.25 1788.77 Q1994.25 1785.72 1992.1 1784.01 Q1989.97 1782.27 1986.15 1782.27 L1982.12 1782.27 L1982.12 1778.43 L1986.34 1778.43 Q1989.78 1778.43 1991.61 1777.06 Q1993.44 1775.67 1993.44 1773.08 Q1993.44 1770.42 1991.54 1769.01 Q1989.67 1767.57 1986.15 1767.57 Q1984.23 1767.57 1982.03 1767.99 Q1979.83 1768.4 1977.19 1769.28 L1977.19 1765.12 Q1979.85 1764.38 1982.17 1764.01 Q1984.51 1763.64 1986.57 1763.64 Q1991.89 1763.64 1994.99 1766.07 Q1998.1 1768.47 1998.1 1772.59 Q1998.1 1775.46 1996.45 1777.46 Q1994.81 1779.42 1991.78 1780.19 Z" fill="#000000" fill-rule="nonzero" fill-opacity="1" /><path clip-path="url(#clip700)" d="M2017.77 1767.34 Q2014.16 1767.34 2012.33 1770.9 Q2010.53 1774.45 2010.53 1781.58 Q2010.53 1788.68 2012.33 1792.25 Q2014.16 1795.79 2017.77 1795.79 Q2021.41 1795.79 2023.21 1792.25 Q2025.04 1788.68 2025.04 1781.58 Q2025.04 1774.45 2023.21 1770.9 Q2021.41 1767.34 2017.77 1767.34 M2017.77 1763.64 Q2023.58 1763.64 2026.64 1768.24 Q2029.72 1772.83 2029.72 1781.58 Q2029.72 1790.3 2026.64 1794.91 Q2023.58 1799.49 2017.77 1799.49 Q2011.96 1799.49 2008.88 1794.91 Q2005.83 1790.3 2005.83 1781.58 Q2005.83 1772.83 2008.88 1768.24 Q2011.96 1763.64 2017.77 1763.64 Z" fill="#000000" fill-rule="nonzero" fill-opacity="1" /><path clip-path="url(#clip700)" d="M2560.59 1768.34 L2548.78 1786.78 L2560.59 1786.78 L2560.59 1768.34 M2559.36 1764.26 L2565.24 1764.26 L2565.24 1786.78 L2570.17 1786.78 L2570.17 1790.67 L2565.24 1790.67 L2565.24 1798.82 L2560.59 1798.82 L2560.59 1790.67 L2544.99 1790.67 L2544.99 1786.16 L2559.36 1764.26 Z" fill="#000000" fill-rule="nonzero" fill-opacity="1" /><path clip-path="url(#clip700)" d="M2587.9 1767.34 Q2584.29 1767.34 2582.46 1770.9 Q2580.66 1774.45 2580.66 1781.58 Q2580.66 1788.68 2582.46 1792.25 Q2584.29 1795.79 2587.9 1795.79 Q2591.54 1795.79 2593.34 1792.25 Q2595.17 1788.68 2595.17 1781.58 Q2595.17 1774.45 2593.34 1770.9 Q2591.54 1767.34 2587.9 1767.34 M2587.9 1763.64 Q2593.71 1763.64 2596.77 1768.24 Q2599.85 1772.83 2599.85 1781.58 Q2599.85 1790.3 2596.77 1794.91 Q2593.71 1799.49 2587.9 1799.49 Q2582.09 1799.49 2579.01 1794.91 Q2575.96 1790.3 2575.96 1781.58 Q2575.96 1772.83 2579.01 1768.24 Q2582.09 1763.64 2587.9 1763.64 Z" fill="#000000" fill-rule="nonzero" fill-opacity="1" /><path clip-path="url(#clip700)" d="M1379.69 1841.06 L1379.69 1878.02 L1387.46 1878.02 Q1397.29 1878.02 1401.84 1873.56 Q1406.43 1869.11 1406.43 1859.49 Q1406.43 1849.94 1401.84 1845.52 Q1397.29 1841.06 1387.46 1841.06 L1379.69 1841.06 M1373.26 1835.78 L1386.47 1835.78 Q1400.28 1835.78 1406.74 1841.54 Q1413.21 1847.27 1413.21 1859.49 Q1413.21 1871.78 1406.71 1877.54 Q1400.22 1883.3 1386.47 1883.3 L1373.26 1883.3 L1373.26 1835.78 Z" fill="#000000" fill-rule="nonzero" fill-opacity="1" /><path clip-path="url(#clip700)" d="M1439.4 1865.38 Q1432.3 1865.38 1429.57 1867 Q1426.83 1868.63 1426.83 1872.54 Q1426.83 1875.66 1428.86 1877.51 Q1430.93 1879.32 1434.47 1879.32 Q1439.34 1879.32 1442.26 1875.88 Q1445.22 1872.42 1445.22 1866.69 L1445.22 1865.38 L1439.4 1865.38 M1451.08 1862.96 L1451.08 1883.3 L1445.22 1883.3 L1445.22 1877.89 Q1443.22 1881.14 1440.23 1882.7 Q1437.24 1884.22 1432.91 1884.22 Q1427.43 1884.22 1424.19 1881.17 Q1420.97 1878.08 1420.97 1872.92 Q1420.97 1866.91 1424.98 1863.85 Q1429.02 1860.8 1437.01 1860.8 L1445.22 1860.8 L1445.22 1860.23 Q1445.22 1856.18 1442.55 1853.99 Q1439.91 1851.76 1435.1 1851.76 Q1432.05 1851.76 1429.15 1852.49 Q1426.25 1853.22 1423.58 1854.69 L1423.58 1849.28 Q1426.8 1848.03 1429.82 1847.43 Q1432.84 1846.79 1435.71 1846.79 Q1443.44 1846.79 1447.26 1850.8 Q1451.08 1854.81 1451.08 1862.96 Z" fill="#000000" fill-rule="nonzero" fill-opacity="1" /><path clip-path="url(#clip700)" d="M1477.98 1886.61 Q1475.49 1892.98 1473.14 1894.92 Q1470.78 1896.86 1466.84 1896.86 L1462.16 1896.86 L1462.16 1891.96 L1465.6 1891.96 Q1468.01 1891.96 1469.35 1890.81 Q1470.69 1889.67 1472.31 1885.4 L1473.36 1882.73 L1458.94 1847.65 L1465.15 1847.65 L1476.29 1875.53 L1487.43 1847.65 L1493.64 1847.65 L1477.98 1886.61 Z" fill="#000000" fill-rule="nonzero" fill-opacity="1" /><polyline clip-path="url(#clip700)" style="stroke:#000000; stroke-linecap:round; stroke-linejoin:round; stroke-width:4; stroke-opacity:1; fill:none" points="226.141,1734.12 226.141,127.792 "/>
<polyline clip-path="url(#clip700)" style="stroke:#000000; stroke-linecap:round; stroke-linejoin:round; stroke-width:4; stroke-opacity:1; fill:none" points="226.141,1365.52 245.038,1365.52 "/>
<polyline clip-path="url(#clip700)" style="stroke:#000000; stroke-linecap:round; stroke-linejoin:round; stroke-width:4; stroke-opacity:1; fill:none" points="226.141,994.096 245.038,994.096 "/>
<polyline clip-path="url(#clip700)" style="stroke:#000000; stroke-linecap:round; stroke-linejoin:round; stroke-width:4; stroke-opacity:1; fill:none" points="226.141,622.674 245.038,622.674 "/>
<polyline clip-path="url(#clip700)" style="stroke:#000000; stroke-linecap:round; stroke-linejoin:round; stroke-width:4; stroke-opacity:1; fill:none" points="226.141,251.253 245.038,251.253 "/>
<path clip-path="url(#clip700)" d="M129.872 1351.32 Q126.261 1351.32 124.432 1354.88 Q122.626 1358.42 122.626 1365.55 Q122.626 1372.66 124.432 1376.22 Q126.261 1379.77 129.872 1379.77 Q133.506 1379.77 135.312 1376.22 Q137.14 1372.66 137.14 1365.55 Q137.14 1358.42 135.312 1354.88 Q133.506 1351.32 129.872 1351.32 M129.872 1347.61 Q135.682 1347.61 138.737 1352.22 Q141.816 1356.8 141.816 1365.55 Q141.816 1374.28 138.737 1378.89 Q135.682 1383.47 129.872 1383.47 Q124.062 1383.47 120.983 1378.89 Q117.927 1374.28 117.927 1365.55 Q117.927 1356.8 120.983 1352.22 Q124.062 1347.61 129.872 1347.61 Z" fill="#000000" fill-rule="nonzero" fill-opacity="1" /><path clip-path="url(#clip700)" d="M150.034 1376.92 L154.918 1376.92 L154.918 1382.8 L150.034 1382.8 L150.034 1376.92 Z" fill="#000000" fill-rule="nonzero" fill-opacity="1" /><path clip-path="url(#clip700)" d="M165.913 1378.86 L173.552 1378.86 L173.552 1352.5 L165.242 1354.16 L165.242 1349.9 L173.506 1348.24 L178.182 1348.24 L178.182 1378.86 L185.821 1378.86 L185.821 1382.8 L165.913 1382.8 L165.913 1378.86 Z" fill="#000000" fill-rule="nonzero" fill-opacity="1" /><path clip-path="url(#clip700)" d="M130.242 979.895 Q126.631 979.895 124.802 983.46 Q122.997 987.001 122.997 994.131 Q122.997 1001.24 124.802 1004.8 Q126.631 1008.34 130.242 1008.34 Q133.876 1008.34 135.682 1004.8 Q137.511 1001.24 137.511 994.131 Q137.511 987.001 135.682 983.46 Q133.876 979.895 130.242 979.895 M130.242 976.191 Q136.052 976.191 139.108 980.798 Q142.187 985.381 142.187 994.131 Q142.187 1002.86 139.108 1007.46 Q136.052 1012.05 130.242 1012.05 Q124.432 1012.05 121.353 1007.46 Q118.298 1002.86 118.298 994.131 Q118.298 985.381 121.353 980.798 Q124.432 976.191 130.242 976.191 Z" fill="#000000" fill-rule="nonzero" fill-opacity="1" /><path clip-path="url(#clip700)" d="M150.404 1005.5 L155.288 1005.5 L155.288 1011.38 L150.404 1011.38 L150.404 1005.5 Z" fill="#000000" fill-rule="nonzero" fill-opacity="1" /><path clip-path="url(#clip700)" d="M169.501 1007.44 L185.821 1007.44 L185.821 1011.38 L163.876 1011.38 L163.876 1007.44 Q166.538 1004.69 171.122 1000.06 Q175.728 995.404 176.909 994.062 Q179.154 991.538 180.034 989.802 Q180.936 988.043 180.936 986.353 Q180.936 983.599 178.992 981.863 Q177.071 980.126 173.969 980.126 Q171.77 980.126 169.316 980.89 Q166.885 981.654 164.108 983.205 L164.108 978.483 Q166.932 977.349 169.385 976.77 Q171.839 976.191 173.876 976.191 Q179.247 976.191 182.441 978.876 Q185.635 981.562 185.635 986.052 Q185.635 988.182 184.825 990.103 Q184.038 992.001 181.932 994.594 Q181.353 995.265 178.251 998.483 Q175.149 1001.68 169.501 1007.44 Z" fill="#000000" fill-rule="nonzero" fill-opacity="1" /><path clip-path="url(#clip700)" d="M129.293 608.473 Q125.682 608.473 123.853 612.038 Q122.048 615.58 122.048 622.709 Q122.048 629.816 123.853 633.38 Q125.682 636.922 129.293 636.922 Q132.927 636.922 134.733 633.38 Q136.562 629.816 136.562 622.709 Q136.562 615.58 134.733 612.038 Q132.927 608.473 129.293 608.473 M129.293 604.769 Q135.103 604.769 138.159 609.376 Q141.237 613.959 141.237 622.709 Q141.237 631.436 138.159 636.042 Q135.103 640.626 129.293 640.626 Q123.483 640.626 120.404 636.042 Q117.349 631.436 117.349 622.709 Q117.349 613.959 120.404 609.376 Q123.483 604.769 129.293 604.769 Z" fill="#000000" fill-rule="nonzero" fill-opacity="1" /><path clip-path="url(#clip700)" d="M149.455 634.075 L154.339 634.075 L154.339 639.954 L149.455 639.954 L149.455 634.075 Z" fill="#000000" fill-rule="nonzero" fill-opacity="1" /><path clip-path="url(#clip700)" d="M178.691 621.32 Q182.047 622.038 183.922 624.306 Q185.821 626.575 185.821 629.908 Q185.821 635.024 182.302 637.825 Q178.784 640.626 172.302 640.626 Q170.126 640.626 167.811 640.186 Q165.52 639.769 163.066 638.913 L163.066 634.399 Q165.01 635.533 167.325 636.112 Q169.64 636.691 172.163 636.691 Q176.561 636.691 178.853 634.955 Q181.168 633.218 181.168 629.908 Q181.168 626.853 179.015 625.14 Q176.885 623.404 173.066 623.404 L169.038 623.404 L169.038 619.561 L173.251 619.561 Q176.7 619.561 178.529 618.195 Q180.358 616.806 180.358 614.214 Q180.358 611.552 178.459 610.14 Q176.584 608.705 173.066 608.705 Q171.145 608.705 168.946 609.121 Q166.747 609.538 164.108 610.418 L164.108 606.251 Q166.77 605.51 169.085 605.14 Q171.422 604.769 173.483 604.769 Q178.807 604.769 181.909 607.2 Q185.01 609.607 185.01 613.728 Q185.01 616.598 183.367 618.589 Q181.723 620.556 178.691 621.32 Z" fill="#000000" fill-rule="nonzero" fill-opacity="1" /><path clip-path="url(#clip700)" d="M128.159 237.051 Q124.548 237.051 122.719 240.616 Q120.913 244.158 120.913 251.287 Q120.913 258.394 122.719 261.959 Q124.548 265.5 128.159 265.5 Q131.793 265.5 133.599 261.959 Q135.427 258.394 135.427 251.287 Q135.427 244.158 133.599 240.616 Q131.793 237.051 128.159 237.051 M128.159 233.348 Q133.969 233.348 137.025 237.954 Q140.103 242.537 140.103 251.287 Q140.103 260.014 137.025 264.621 Q133.969 269.204 128.159 269.204 Q122.349 269.204 119.27 264.621 Q116.214 260.014 116.214 251.287 Q116.214 242.537 119.27 237.954 Q122.349 233.348 128.159 233.348 Z" fill="#000000" fill-rule="nonzero" fill-opacity="1" /><path clip-path="url(#clip700)" d="M148.321 262.653 L153.205 262.653 L153.205 268.533 L148.321 268.533 L148.321 262.653 Z" fill="#000000" fill-rule="nonzero" fill-opacity="1" /><path clip-path="url(#clip700)" d="M176.237 238.047 L164.432 256.496 L176.237 256.496 L176.237 238.047 M175.01 233.973 L180.89 233.973 L180.89 256.496 L185.821 256.496 L185.821 260.385 L180.89 260.385 L180.89 268.533 L176.237 268.533 L176.237 260.385 L160.636 260.385 L160.636 255.871 L175.01 233.973 Z" fill="#000000" fill-rule="nonzero" fill-opacity="1" /><path clip-path="url(#clip700)" d="M19.402 1098.4 L37.2578 1098.4 L37.2578 1090.32 Q37.2578 1085.83 34.9343 1083.38 Q32.6108 1080.93 28.314 1080.93 Q24.0489 1080.93 21.7255 1083.38 Q19.402 1085.83 19.402 1090.32 L19.402 1098.4 M14.1184 1104.83 L14.1184 1090.32 Q14.1184 1082.33 17.7469 1078.26 Q21.3435 1074.15 28.314 1074.15 Q35.3481 1074.15 38.9447 1078.26 Q42.5413 1082.33 42.5413 1090.32 L42.5413 1098.4 L61.6384 1098.4 L61.6384 1104.83 L14.1184 1104.83 Z" fill="#000000" fill-rule="nonzero" fill-opacity="1" /><path clip-path="url(#clip700)" d="M31.465 1046.27 Q30.8921 1047.26 30.6375 1048.43 Q30.351 1049.58 30.351 1050.98 Q30.351 1055.95 33.5975 1058.62 Q36.8122 1061.26 42.8596 1061.26 L61.6384 1061.26 L61.6384 1067.15 L25.9905 1067.15 L25.9905 1061.26 L31.5287 1061.26 Q28.2821 1059.41 26.7225 1056.45 Q25.1311 1053.49 25.1311 1049.26 Q25.1311 1048.66 25.2266 1047.92 Q25.2903 1047.19 25.4494 1046.3 L31.465 1046.27 Z" fill="#000000" fill-rule="nonzero" fill-opacity="1" /><path clip-path="url(#clip700)" d="M42.3504 1011.07 L45.2149 1011.07 L45.2149 1037.99 Q51.2623 1037.61 54.4452 1034.37 Q57.5962 1031.09 57.5962 1025.26 Q57.5962 1021.89 56.7687 1018.74 Q55.9411 1015.55 54.2861 1012.44 L59.8242 1012.44 Q61.161 1015.59 61.8612 1018.9 Q62.5615 1022.21 62.5615 1025.61 Q62.5615 1034.14 57.5962 1039.14 Q52.631 1044.1 44.1646 1044.1 Q35.4117 1044.1 30.2873 1039.39 Q25.1311 1034.65 25.1311 1026.63 Q25.1311 1019.44 29.7781 1015.27 Q34.3932 1011.07 42.3504 1011.07 M40.6316 1016.92 Q35.8255 1016.99 32.9609 1019.63 Q30.0964 1022.24 30.0964 1026.57 Q30.0964 1031.47 32.8654 1034.43 Q35.6345 1037.36 40.6634 1037.8 L40.6316 1016.92 Z" fill="#000000" fill-rule="nonzero" fill-opacity="1" /><path clip-path="url(#clip700)" d="M25.9905 1005.66 L25.9905 999.45 L55.9093 988.31 L25.9905 977.17 L25.9905 970.963 L61.6384 984.331 L61.6384 992.288 L25.9905 1005.66 Z" fill="#000000" fill-rule="nonzero" fill-opacity="1" /><path clip-path="url(#clip700)" d="M43.719 946.678 Q43.719 953.776 45.3422 956.513 Q46.9655 959.25 50.8804 959.25 Q53.9996 959.25 55.8457 957.213 Q57.6599 955.144 57.6599 951.611 Q57.6599 946.742 54.2224 943.813 Q50.7531 940.853 45.0239 940.853 L43.719 940.853 L43.719 946.678 M41.3 934.997 L61.6384 934.997 L61.6384 940.853 L56.2276 940.853 Q59.4741 942.858 61.0337 945.85 Q62.5615 948.842 62.5615 953.171 Q62.5615 958.645 59.5059 961.892 Q56.4186 965.107 51.2623 965.107 Q45.2467 965.107 42.1912 961.096 Q39.1357 957.054 39.1357 949.065 L39.1357 940.853 L38.5628 940.853 Q34.5205 940.853 32.3244 943.527 Q30.0964 946.169 30.0964 950.975 Q30.0964 954.03 30.8284 956.927 Q31.5605 959.823 33.0246 962.497 L27.6137 962.497 Q26.3724 959.282 25.7677 956.258 Q25.1311 953.235 25.1311 950.37 Q25.1311 942.636 29.1415 938.816 Q33.1519 934.997 41.3 934.997 Z" fill="#000000" fill-rule="nonzero" fill-opacity="1" /><path clip-path="url(#clip700)" d="M12.1132 922.934 L12.1132 917.077 L61.6384 917.077 L61.6384 922.934 L12.1132 922.934 Z" fill="#000000" fill-rule="nonzero" fill-opacity="1" /><path clip-path="url(#clip700)" d="M42.3504 874.332 L45.2149 874.332 L45.2149 901.259 Q51.2623 900.877 54.4452 897.63 Q57.5962 894.352 57.5962 888.527 Q57.5962 885.153 56.7687 882.002 Q55.9411 878.819 54.2861 875.7 L59.8242 875.7 Q61.161 878.851 61.8612 882.161 Q62.5615 885.472 62.5615 888.877 Q62.5615 897.407 57.5962 902.404 Q52.631 907.37 44.1646 907.37 Q35.4117 907.37 30.2873 902.659 Q25.1311 897.917 25.1311 889.896 Q25.1311 882.702 29.7781 878.533 Q34.3932 874.332 42.3504 874.332 M40.6316 880.188 Q35.8255 880.252 32.9609 882.893 Q30.0964 885.503 30.0964 889.832 Q30.0964 894.734 32.8654 897.694 Q35.6345 900.622 40.6634 901.068 L40.6316 880.188 Z" fill="#000000" fill-rule="nonzero" fill-opacity="1" /><path clip-path="url(#clip700)" d="M40.1224 835.087 L61.6384 835.087 L61.6384 840.943 L40.3133 840.943 Q35.2526 840.943 32.7381 842.917 Q30.2237 844.89 30.2237 848.837 Q30.2237 853.579 33.2474 856.317 Q36.2711 859.054 41.491 859.054 L61.6384 859.054 L61.6384 864.942 L25.9905 864.942 L25.9905 859.054 L31.5287 859.054 Q28.314 856.953 26.7225 854.12 Q25.1311 851.256 25.1311 847.532 Q25.1311 841.389 28.9505 838.238 Q32.7381 835.087 40.1224 835.087 Z" fill="#000000" fill-rule="nonzero" fill-opacity="1" /><path clip-path="url(#clip700)" d="M27.3591 797.752 L32.8336 797.752 Q31.465 800.235 30.7966 802.749 Q30.0964 805.232 30.0964 807.778 Q30.0964 813.475 33.7248 816.626 Q37.3214 819.777 43.8463 819.777 Q50.3711 819.777 53.9996 816.626 Q57.5962 813.475 57.5962 807.778 Q57.5962 805.232 56.9278 802.749 Q56.2276 800.235 54.859 797.752 L60.2698 797.752 Q61.4156 800.203 61.9886 802.845 Q62.5615 805.455 62.5615 808.415 Q62.5615 816.467 57.5007 821.21 Q52.44 825.952 43.8463 825.952 Q35.1253 825.952 30.1282 821.178 Q25.1311 816.372 25.1311 808.033 Q25.1311 805.327 25.704 802.749 Q26.2451 800.171 27.3591 797.752 Z" fill="#000000" fill-rule="nonzero" fill-opacity="1" /><path clip-path="url(#clip700)" d="M42.3504 757.075 L45.2149 757.075 L45.2149 784.002 Q51.2623 783.62 54.4452 780.374 Q57.5962 777.095 57.5962 771.271 Q57.5962 767.897 56.7687 764.746 Q55.9411 761.563 54.2861 758.444 L59.8242 758.444 Q61.161 761.595 61.8612 764.905 Q62.5615 768.215 62.5615 771.621 Q62.5615 780.151 57.5962 785.148 Q52.631 790.113 44.1646 790.113 Q35.4117 790.113 30.2873 785.403 Q25.1311 780.66 25.1311 772.639 Q25.1311 765.446 29.7781 761.277 Q34.3932 757.075 42.3504 757.075 M40.6316 762.932 Q35.8255 762.995 32.9609 765.637 Q30.0964 768.247 30.0964 772.576 Q30.0964 777.477 32.8654 780.437 Q35.6345 783.366 40.6634 783.811 L40.6316 762.932 Z" fill="#000000" fill-rule="nonzero" fill-opacity="1" /><path clip-path="url(#clip700)" d="M559.668 18.8205 L559.668 41.5461 L569.957 41.5461 Q575.669 41.5461 578.788 38.5889 Q581.908 35.6318 581.908 30.163 Q581.908 24.7348 578.788 21.7777 Q575.669 18.8205 569.957 18.8205 L559.668 18.8205 M551.485 12.096 L569.957 12.096 Q580.125 12.096 585.31 16.714 Q590.536 21.2916 590.536 30.163 Q590.536 39.1155 585.31 43.6931 Q580.125 48.2706 569.957 48.2706 L559.668 48.2706 L559.668 72.576 L551.485 72.576 L551.485 12.096 Z" fill="#000000" fill-rule="nonzero" fill-opacity="1" /><path clip-path="url(#clip700)" d="M626.022 34.1734 Q624.766 33.4443 623.267 33.1202 Q621.809 32.7556 620.027 32.7556 Q613.707 32.7556 610.304 36.8875 Q606.942 40.9789 606.942 48.6757 L606.942 72.576 L599.448 72.576 L599.448 27.2059 L606.942 27.2059 L606.942 34.2544 Q609.292 30.1225 613.059 28.1376 Q616.826 26.1121 622.214 26.1121 Q622.984 26.1121 623.916 26.2337 Q624.847 26.3147 625.981 26.5172 L626.022 34.1734 Z" fill="#000000" fill-rule="nonzero" fill-opacity="1" /><path clip-path="url(#clip700)" d="M670.825 48.0275 L670.825 51.6733 L636.554 51.6733 Q637.04 59.3701 641.172 63.421 Q645.345 67.4314 652.758 67.4314 Q657.052 67.4314 661.062 66.3781 Q665.113 65.3249 669.083 63.2184 L669.083 70.267 Q665.073 71.9684 660.86 72.8596 Q656.647 73.7508 652.312 73.7508 Q641.456 73.7508 635.096 67.4314 Q628.777 61.1119 628.777 50.3365 Q628.777 39.1965 634.772 32.6746 Q640.808 26.1121 651.016 26.1121 Q660.171 26.1121 665.478 32.0264 Q670.825 37.9003 670.825 48.0275 M663.371 45.84 Q663.29 39.7232 659.928 36.0774 Q656.606 32.4315 651.097 32.4315 Q644.859 32.4315 641.091 35.9558 Q637.365 39.4801 636.797 45.8805 L663.371 45.84 Z" fill="#000000" fill-rule="nonzero" fill-opacity="1" /><path clip-path="url(#clip700)" d="M677.712 27.2059 L685.611 27.2059 L699.789 65.2844 L713.967 27.2059 L721.866 27.2059 L704.853 72.576 L694.725 72.576 L677.712 27.2059 Z" fill="#000000" fill-rule="nonzero" fill-opacity="1" /><path clip-path="url(#clip700)" d="M752.775 49.7694 Q743.741 49.7694 740.257 51.8354 Q736.774 53.9013 736.774 58.8839 Q736.774 62.8538 739.366 65.2034 Q741.999 67.5124 746.496 67.5124 Q752.694 67.5124 756.421 63.1374 Q760.188 58.7219 760.188 51.4303 L760.188 49.7694 L752.775 49.7694 M767.642 46.6907 L767.642 72.576 L760.188 72.576 L760.188 65.6895 Q757.636 69.8214 753.828 71.8063 Q750.02 73.7508 744.511 73.7508 Q737.543 73.7508 733.411 69.8619 Q729.32 65.9325 729.32 59.3701 Q729.32 51.7138 734.424 47.825 Q739.569 43.9361 749.737 43.9361 L760.188 43.9361 L760.188 43.2069 Q760.188 38.0623 756.785 35.2672 Q753.423 32.4315 747.306 32.4315 Q743.417 32.4315 739.731 33.3632 Q736.045 34.295 732.642 36.1584 L732.642 29.2718 Q736.733 27.692 740.582 26.9223 Q744.43 26.1121 748.076 26.1121 Q757.919 26.1121 762.781 31.2163 Q767.642 36.3204 767.642 46.6907 Z" fill="#000000" fill-rule="nonzero" fill-opacity="1" /><path clip-path="url(#clip700)" d="M782.995 9.54393 L790.448 9.54393 L790.448 72.576 L782.995 72.576 L782.995 9.54393 Z" fill="#000000" fill-rule="nonzero" fill-opacity="1" /><path clip-path="url(#clip700)" d="M844.852 48.0275 L844.852 51.6733 L810.581 51.6733 Q811.067 59.3701 815.199 63.421 Q819.372 67.4314 826.785 67.4314 Q831.079 67.4314 835.089 66.3781 Q839.14 65.3249 843.11 63.2184 L843.11 70.267 Q839.1 71.9684 834.887 72.8596 Q830.674 73.7508 826.339 73.7508 Q815.483 73.7508 809.123 67.4314 Q802.803 61.1119 802.803 50.3365 Q802.803 39.1965 808.799 32.6746 Q814.835 26.1121 825.043 26.1121 Q834.198 26.1121 839.505 32.0264 Q844.852 37.9003 844.852 48.0275 M837.398 45.84 Q837.317 39.7232 833.955 36.0774 Q830.633 32.4315 825.124 32.4315 Q818.886 32.4315 815.118 35.9558 Q811.391 39.4801 810.824 45.8805 L837.398 45.84 Z" fill="#000000" fill-rule="nonzero" fill-opacity="1" /><path clip-path="url(#clip700)" d="M894.799 45.1919 L894.799 72.576 L887.346 72.576 L887.346 45.4349 Q887.346 38.994 884.834 35.7938 Q882.323 32.5936 877.3 32.5936 Q871.264 32.5936 867.78 36.4419 Q864.296 40.2903 864.296 46.9338 L864.296 72.576 L856.802 72.576 L856.802 27.2059 L864.296 27.2059 L864.296 34.2544 Q866.97 30.163 870.575 28.1376 Q874.221 26.1121 878.96 26.1121 Q886.779 26.1121 890.789 30.9732 Q894.799 35.7938 894.799 45.1919 Z" fill="#000000" fill-rule="nonzero" fill-opacity="1" /><path clip-path="url(#clip700)" d="M942.317 28.9478 L942.317 35.9153 Q939.157 34.1734 935.957 33.3227 Q932.797 32.4315 929.556 32.4315 Q922.305 32.4315 918.295 37.0496 Q914.284 41.6271 914.284 49.9314 Q914.284 58.2358 918.295 62.8538 Q922.305 67.4314 929.556 67.4314 Q932.797 67.4314 935.957 66.5807 Q939.157 65.6895 942.317 63.9476 L942.317 70.8341 Q939.197 72.2924 935.835 73.0216 Q932.513 73.7508 928.746 73.7508 Q918.497 73.7508 912.461 67.3098 Q906.426 60.8689 906.426 49.9314 Q906.426 38.832 912.502 32.472 Q918.619 26.1121 929.232 26.1121 Q932.675 26.1121 935.957 26.8413 Q939.238 27.5299 942.317 28.9478 Z" fill="#000000" fill-rule="nonzero" fill-opacity="1" /><path clip-path="url(#clip700)" d="M994.087 48.0275 L994.087 51.6733 L959.817 51.6733 Q960.303 59.3701 964.435 63.421 Q968.607 67.4314 976.02 67.4314 Q980.314 67.4314 984.324 66.3781 Q988.375 65.3249 992.345 63.2184 L992.345 70.267 Q988.335 71.9684 984.122 72.8596 Q979.909 73.7508 975.575 73.7508 Q964.718 73.7508 958.358 67.4314 Q952.039 61.1119 952.039 50.3365 Q952.039 39.1965 958.034 32.6746 Q964.07 26.1121 974.278 26.1121 Q983.433 26.1121 988.74 32.0264 Q994.087 37.9003 994.087 48.0275 M986.633 45.84 Q986.552 39.7232 983.19 36.0774 Q979.868 32.4315 974.359 32.4315 Q968.121 32.4315 964.354 35.9558 Q960.627 39.4801 960.06 45.8805 L986.633 45.84 Z" fill="#000000" fill-rule="nonzero" fill-opacity="1" /><path clip-path="url(#clip700)" d="M1078.31 16.7545 L1078.31 25.383 Q1074.17 21.5346 1069.47 19.6307 Q1064.82 17.7268 1059.55 17.7268 Q1049.18 17.7268 1043.67 24.0867 Q1038.16 30.4061 1038.16 42.3968 Q1038.16 54.3469 1043.67 60.7069 Q1049.18 67.0263 1059.55 67.0263 Q1064.82 67.0263 1069.47 65.1223 Q1074.17 63.2184 1078.31 59.3701 L1078.31 67.9175 Q1074.01 70.8341 1069.19 72.2924 Q1064.41 73.7508 1059.06 73.7508 Q1045.33 73.7508 1037.43 65.3654 Q1029.53 56.9395 1029.53 42.3968 Q1029.53 27.8135 1037.43 19.4281 Q1045.33 11.0023 1059.06 11.0023 Q1064.49 11.0023 1069.27 12.4606 Q1074.09 13.8784 1078.31 16.7545 Z" fill="#000000" fill-rule="nonzero" fill-opacity="1" /><path clip-path="url(#clip700)" d="M1108.2 32.4315 Q1102.21 32.4315 1098.72 37.1306 Q1095.24 41.7891 1095.24 49.9314 Q1095.24 58.0738 1098.68 62.7728 Q1102.17 67.4314 1108.2 67.4314 Q1114.16 67.4314 1117.64 62.7323 Q1121.12 58.0333 1121.12 49.9314 Q1121.12 41.8701 1117.64 37.1711 Q1114.16 32.4315 1108.2 32.4315 M1108.2 26.1121 Q1117.92 26.1121 1123.47 32.4315 Q1129.02 38.7509 1129.02 49.9314 Q1129.02 61.0714 1123.47 67.4314 Q1117.92 73.7508 1108.2 73.7508 Q1098.44 73.7508 1092.89 67.4314 Q1087.38 61.0714 1087.38 49.9314 Q1087.38 38.7509 1092.89 32.4315 Q1098.44 26.1121 1108.2 26.1121 Z" fill="#000000" fill-rule="nonzero" fill-opacity="1" /><path clip-path="url(#clip700)" d="M1176.7 35.9153 Q1179.5 30.8922 1183.39 28.5022 Q1187.27 26.1121 1192.54 26.1121 Q1199.63 26.1121 1203.48 31.0947 Q1207.33 36.0368 1207.33 45.1919 L1207.33 72.576 L1199.83 72.576 L1199.83 45.4349 Q1199.83 38.913 1197.52 35.7533 Q1195.21 32.5936 1190.47 32.5936 Q1184.68 32.5936 1181.32 36.4419 Q1177.96 40.2903 1177.96 46.9338 L1177.96 72.576 L1170.46 72.576 L1170.46 45.4349 Q1170.46 38.8725 1168.15 35.7533 Q1165.85 32.5936 1161.02 32.5936 Q1155.31 32.5936 1151.95 36.4824 Q1148.59 40.3308 1148.59 46.9338 L1148.59 72.576 L1141.09 72.576 L1141.09 27.2059 L1148.59 27.2059 L1148.59 34.2544 Q1151.14 30.082 1154.71 28.0971 Q1158.27 26.1121 1163.17 26.1121 Q1168.11 26.1121 1171.56 28.6237 Q1175.04 31.1352 1176.7 35.9153 Z" fill="#000000" fill-rule="nonzero" fill-opacity="1" /><path clip-path="url(#clip700)" d="M1229.4 65.7705 L1229.4 89.8329 L1221.91 89.8329 L1221.91 27.2059 L1229.4 27.2059 L1229.4 34.0924 Q1231.75 30.0415 1235.32 28.0971 Q1238.92 26.1121 1243.91 26.1121 Q1252.17 26.1121 1257.31 32.6746 Q1262.5 39.2371 1262.5 49.9314 Q1262.5 60.6258 1257.31 67.1883 Q1252.17 73.7508 1243.91 73.7508 Q1238.92 73.7508 1235.32 71.8063 Q1231.75 69.8214 1229.4 65.7705 M1254.76 49.9314 Q1254.76 41.7081 1251.36 37.0496 Q1248 32.3505 1242.08 32.3505 Q1236.17 32.3505 1232.77 37.0496 Q1229.4 41.7081 1229.4 49.9314 Q1229.4 58.1548 1232.77 62.8538 Q1236.17 67.5124 1242.08 67.5124 Q1248 67.5124 1251.36 62.8538 Q1254.76 58.1548 1254.76 49.9314 Z" fill="#000000" fill-rule="nonzero" fill-opacity="1" /><path clip-path="url(#clip700)" d="M1295.47 49.7694 Q1286.44 49.7694 1282.96 51.8354 Q1279.47 53.9013 1279.47 58.8839 Q1279.47 62.8538 1282.07 65.2034 Q1284.7 67.5124 1289.2 67.5124 Q1295.39 67.5124 1299.12 63.1374 Q1302.89 58.7219 1302.89 51.4303 L1302.89 49.7694 L1295.47 49.7694 M1310.34 46.6907 L1310.34 72.576 L1302.89 72.576 L1302.89 65.6895 Q1300.34 69.8214 1296.53 71.8063 Q1292.72 73.7508 1287.21 73.7508 Q1280.24 73.7508 1276.11 69.8619 Q1272.02 65.9325 1272.02 59.3701 Q1272.02 51.7138 1277.12 47.825 Q1282.27 43.9361 1292.44 43.9361 L1302.89 43.9361 L1302.89 43.2069 Q1302.89 38.0623 1299.48 35.2672 Q1296.12 32.4315 1290.01 32.4315 Q1286.12 32.4315 1282.43 33.3632 Q1278.74 34.295 1275.34 36.1584 L1275.34 29.2718 Q1279.43 27.692 1283.28 26.9223 Q1287.13 26.1121 1290.78 26.1121 Q1300.62 26.1121 1305.48 31.2163 Q1310.34 36.3204 1310.34 46.6907 Z" fill="#000000" fill-rule="nonzero" fill-opacity="1" /><path clip-path="url(#clip700)" d="M1351.98 34.1734 Q1350.73 33.4443 1349.23 33.1202 Q1347.77 32.7556 1345.99 32.7556 Q1339.67 32.7556 1336.27 36.8875 Q1332.9 40.9789 1332.9 48.6757 L1332.9 72.576 L1325.41 72.576 L1325.41 27.2059 L1332.9 27.2059 L1332.9 34.2544 Q1335.25 30.1225 1339.02 28.1376 Q1342.79 26.1121 1348.18 26.1121 Q1348.95 26.1121 1349.88 26.2337 Q1350.81 26.3147 1351.94 26.5172 L1351.98 34.1734 Z" fill="#000000" fill-rule="nonzero" fill-opacity="1" /><path clip-path="url(#clip700)" d="M1359.8 27.2059 L1367.26 27.2059 L1367.26 72.576 L1359.8 72.576 L1359.8 27.2059 M1359.8 9.54393 L1367.26 9.54393 L1367.26 18.9825 L1359.8 18.9825 L1359.8 9.54393 Z" fill="#000000" fill-rule="nonzero" fill-opacity="1" /><path clip-path="url(#clip700)" d="M1411.78 28.5427 L1411.78 35.5912 Q1408.62 33.9709 1405.21 33.1607 Q1401.81 32.3505 1398.16 32.3505 Q1392.62 32.3505 1389.82 34.0519 Q1387.07 35.7533 1387.07 39.156 Q1387.07 41.7486 1389.05 43.2475 Q1391.04 44.7058 1397.03 46.0426 L1399.58 46.6097 Q1407.52 48.3111 1410.84 51.4303 Q1414.21 54.509 1414.21 60.0587 Q1414.21 66.3781 1409.18 70.0644 Q1404.2 73.7508 1395.45 73.7508 Q1391.8 73.7508 1387.84 73.0216 Q1383.91 72.3329 1379.53 70.9151 L1379.53 63.2184 Q1383.66 65.3654 1387.67 66.4591 Q1391.68 67.5124 1395.61 67.5124 Q1400.88 67.5124 1403.71 65.73 Q1406.55 63.9071 1406.55 60.6258 Q1406.55 57.5877 1404.48 55.9673 Q1402.46 54.3469 1395.53 52.8481 L1392.94 52.2405 Q1386.01 50.7821 1382.93 47.7845 Q1379.85 44.7463 1379.85 39.4801 Q1379.85 33.0797 1384.39 29.5959 Q1388.93 26.1121 1397.27 26.1121 Q1401.41 26.1121 1405.05 26.7198 Q1408.7 27.3274 1411.78 28.5427 Z" fill="#000000" fill-rule="nonzero" fill-opacity="1" /><path clip-path="url(#clip700)" d="M1443.66 32.4315 Q1437.66 32.4315 1434.18 37.1306 Q1430.69 41.7891 1430.69 49.9314 Q1430.69 58.0738 1434.14 62.7728 Q1437.62 67.4314 1443.66 67.4314 Q1449.61 67.4314 1453.1 62.7323 Q1456.58 58.0333 1456.58 49.9314 Q1456.58 41.8701 1453.1 37.1711 Q1449.61 32.4315 1443.66 32.4315 M1443.66 26.1121 Q1453.38 26.1121 1458.93 32.4315 Q1464.48 38.7509 1464.48 49.9314 Q1464.48 61.0714 1458.93 67.4314 Q1453.38 73.7508 1443.66 73.7508 Q1433.89 73.7508 1428.34 67.4314 Q1422.83 61.0714 1422.83 49.9314 Q1422.83 38.7509 1428.34 32.4315 Q1433.89 26.1121 1443.66 26.1121 Z" fill="#000000" fill-rule="nonzero" fill-opacity="1" /><path clip-path="url(#clip700)" d="M1514.55 45.1919 L1514.55 72.576 L1507.09 72.576 L1507.09 45.4349 Q1507.09 38.994 1504.58 35.7938 Q1502.07 32.5936 1497.05 32.5936 Q1491.01 32.5936 1487.53 36.4419 Q1484.04 40.2903 1484.04 46.9338 L1484.04 72.576 L1476.55 72.576 L1476.55 27.2059 L1484.04 27.2059 L1484.04 34.2544 Q1486.72 30.163 1490.32 28.1376 Q1493.97 26.1121 1498.71 26.1121 Q1506.53 26.1121 1510.54 30.9732 Q1514.55 35.7938 1514.55 45.1919 Z" fill="#000000" fill-rule="nonzero" fill-opacity="1" /><path clip-path="url(#clip700)" d="M1531.32 62.2867 L1539.87 62.2867 L1539.87 72.576 L1531.32 72.576 L1531.32 62.2867 M1531.32 29.6769 L1539.87 29.6769 L1539.87 39.9662 L1531.32 39.9662 L1531.32 29.6769 Z" fill="#000000" fill-rule="nonzero" fill-opacity="1" /><path clip-path="url(#clip700)" d="M1620.32 14.0809 L1620.32 22.0612 Q1615.66 19.8332 1611.53 18.7395 Q1607.39 17.6457 1603.55 17.6457 Q1596.86 17.6457 1593.22 20.2383 Q1589.61 22.8309 1589.61 27.611 Q1589.61 31.6214 1592 33.6873 Q1594.43 35.7128 1601.16 36.9686 L1606.1 37.9813 Q1615.25 39.7232 1619.59 44.1387 Q1623.96 48.5136 1623.96 55.8863 Q1623.96 64.6767 1618.05 69.2137 Q1612.17 73.7508 1600.79 73.7508 Q1596.5 73.7508 1591.64 72.7785 Q1586.82 71.8063 1581.63 69.9024 L1581.63 61.4765 Q1586.61 64.2716 1591.39 65.6895 Q1596.17 67.1073 1600.79 67.1073 Q1607.8 67.1073 1611.61 64.3527 Q1615.41 61.598 1615.41 56.4939 Q1615.41 52.0379 1612.66 49.5264 Q1609.95 47.0148 1603.71 45.759 L1598.73 44.7868 Q1589.57 42.9639 1585.48 39.075 Q1581.39 35.1862 1581.39 28.2591 Q1581.39 20.2383 1587.02 15.6203 Q1592.69 11.0023 1602.61 11.0023 Q1606.87 11.0023 1611.28 11.7719 Q1615.7 12.5416 1620.32 14.0809 Z" fill="#000000" fill-rule="nonzero" fill-opacity="1" /><path clip-path="url(#clip700)" d="M1636.72 12.096 L1644.91 12.096 L1644.91 72.576 L1636.72 72.576 L1636.72 12.096 Z" fill="#000000" fill-rule="nonzero" fill-opacity="1" /><path clip-path="url(#clip700)" d="M1689.87 44.2197 Q1692.5 45.1109 1694.97 48.0275 Q1697.49 50.9442 1700 56.0483 L1708.3 72.576 L1699.51 72.576 L1691.77 57.061 Q1688.78 50.9847 1685.94 48.9997 Q1683.15 47.0148 1678.28 47.0148 L1669.37 47.0148 L1669.37 72.576 L1661.19 72.576 L1661.19 12.096 L1679.66 12.096 Q1690.03 12.096 1695.14 16.4305 Q1700.24 20.7649 1700.24 29.5149 Q1700.24 35.2267 1697.57 38.994 Q1694.93 42.7613 1689.87 44.2197 M1669.37 18.8205 L1669.37 40.2903 L1679.66 40.2903 Q1685.58 40.2903 1688.57 37.5762 Q1691.61 34.8216 1691.61 29.5149 Q1691.61 24.2082 1688.57 21.5346 Q1685.58 18.8205 1679.66 18.8205 L1669.37 18.8205 Z" fill="#000000" fill-rule="nonzero" fill-opacity="1" /><path clip-path="url(#clip700)" d="M1739.53 27.2059 L1747.43 27.2059 L1761.61 65.2844 L1775.79 27.2059 L1783.69 27.2059 L1766.68 72.576 L1756.55 72.576 L1739.53 27.2059 Z" fill="#000000" fill-rule="nonzero" fill-opacity="1" /><path clip-path="url(#clip700)" d="M1822.9 28.5427 L1822.9 35.5912 Q1819.74 33.9709 1816.34 33.1607 Q1812.94 32.3505 1809.29 32.3505 Q1803.74 32.3505 1800.95 34.0519 Q1798.19 35.7533 1798.19 39.156 Q1798.19 41.7486 1800.18 43.2475 Q1802.16 44.7058 1808.16 46.0426 L1810.71 46.6097 Q1818.65 48.3111 1821.97 51.4303 Q1825.33 54.509 1825.33 60.0587 Q1825.33 66.3781 1820.31 70.0644 Q1815.33 73.7508 1806.58 73.7508 Q1802.93 73.7508 1798.96 73.0216 Q1795.03 72.3329 1790.66 70.9151 L1790.66 63.2184 Q1794.79 65.3654 1798.8 66.4591 Q1802.81 67.5124 1806.74 67.5124 Q1812.01 67.5124 1814.84 65.73 Q1817.68 63.9071 1817.68 60.6258 Q1817.68 57.5877 1815.61 55.9673 Q1813.59 54.3469 1806.66 52.8481 L1804.07 52.2405 Q1797.14 50.7821 1794.06 47.7845 Q1790.98 44.7463 1790.98 39.4801 Q1790.98 33.0797 1795.52 29.5959 Q1800.06 26.1121 1808.4 26.1121 Q1812.53 26.1121 1816.18 26.7198 Q1819.82 27.3274 1822.9 28.5427 Z" fill="#000000" fill-rule="nonzero" fill-opacity="1" /><path clip-path="url(#clip700)" d="M1900.15 14.0809 L1900.15 22.0612 Q1895.49 19.8332 1891.36 18.7395 Q1887.23 17.6457 1883.38 17.6457 Q1876.7 17.6457 1873.05 20.2383 Q1869.45 22.8309 1869.45 27.611 Q1869.45 31.6214 1871.84 33.6873 Q1874.27 35.7128 1880.99 36.9686 L1885.93 37.9813 Q1895.09 39.7232 1899.42 44.1387 Q1903.8 48.5136 1903.8 55.8863 Q1903.8 64.6767 1897.88 69.2137 Q1892.01 73.7508 1880.63 73.7508 Q1876.33 73.7508 1871.47 72.7785 Q1866.65 71.8063 1861.47 69.9024 L1861.47 61.4765 Q1866.45 64.2716 1871.23 65.6895 Q1876.01 67.1073 1880.63 67.1073 Q1887.64 67.1073 1891.44 64.3527 Q1895.25 61.598 1895.25 56.4939 Q1895.25 52.0379 1892.5 49.5264 Q1889.78 47.0148 1883.54 45.759 L1878.56 44.7868 Q1869.41 42.9639 1865.32 39.075 Q1861.22 35.1862 1861.22 28.2591 Q1861.22 20.2383 1866.85 15.6203 Q1872.53 11.0023 1882.45 11.0023 Q1886.7 11.0023 1891.12 11.7719 Q1895.53 12.5416 1900.15 14.0809 Z" fill="#000000" fill-rule="nonzero" fill-opacity="1" /><path clip-path="url(#clip700)" d="M1916.56 12.096 L1924.74 12.096 L1924.74 72.576 L1916.56 72.576 L1916.56 12.096 Z" fill="#000000" fill-rule="nonzero" fill-opacity="1" /><path clip-path="url(#clip700)" d="M1977.28 14.0809 L1977.28 22.0612 Q1972.62 19.8332 1968.49 18.7395 Q1964.36 17.6457 1960.51 17.6457 Q1953.83 17.6457 1950.18 20.2383 Q1946.58 22.8309 1946.58 27.611 Q1946.58 31.6214 1948.97 33.6873 Q1951.4 35.7128 1958.12 36.9686 L1963.06 37.9813 Q1972.22 39.7232 1976.55 44.1387 Q1980.93 48.5136 1980.93 55.8863 Q1980.93 64.6767 1975.01 69.2137 Q1969.14 73.7508 1957.76 73.7508 Q1953.46 73.7508 1948.6 72.7785 Q1943.78 71.8063 1938.6 69.9024 L1938.6 61.4765 Q1943.58 64.2716 1948.36 65.6895 Q1953.14 67.1073 1957.76 67.1073 Q1964.76 67.1073 1968.57 64.3527 Q1972.38 61.598 1972.38 56.4939 Q1972.38 52.0379 1969.63 49.5264 Q1966.91 47.0148 1960.67 45.759 L1955.69 44.7868 Q1946.54 42.9639 1942.44 39.075 Q1938.35 35.1862 1938.35 28.2591 Q1938.35 20.2383 1943.98 15.6203 Q1949.65 11.0023 1959.58 11.0023 Q1963.83 11.0023 1968.25 11.7719 Q1972.66 12.5416 1977.28 14.0809 Z" fill="#000000" fill-rule="nonzero" fill-opacity="1" /><path clip-path="url(#clip700)" d="M2014.39 27.2059 L2022.29 27.2059 L2036.47 65.2844 L2050.64 27.2059 L2058.54 27.2059 L2041.53 72.576 L2031.4 72.576 L2014.39 27.2059 Z" fill="#000000" fill-rule="nonzero" fill-opacity="1" /><path clip-path="url(#clip700)" d="M2097.76 28.5427 L2097.76 35.5912 Q2094.6 33.9709 2091.19 33.1607 Q2087.79 32.3505 2084.14 32.3505 Q2078.6 32.3505 2075.8 34.0519 Q2073.05 35.7533 2073.05 39.156 Q2073.05 41.7486 2075.03 43.2475 Q2077.02 44.7058 2083.01 46.0426 L2085.56 46.6097 Q2093.5 48.3111 2096.82 51.4303 Q2100.19 54.509 2100.19 60.0587 Q2100.19 66.3781 2095.16 70.0644 Q2090.18 73.7508 2081.43 73.7508 Q2077.79 73.7508 2073.82 73.0216 Q2069.89 72.3329 2065.51 70.9151 L2065.51 63.2184 Q2069.64 65.3654 2073.65 66.4591 Q2077.66 67.5124 2081.59 67.5124 Q2086.86 67.5124 2089.69 65.73 Q2092.53 63.9071 2092.53 60.6258 Q2092.53 57.5877 2090.46 55.9673 Q2088.44 54.3469 2081.51 52.8481 L2078.92 52.2405 Q2071.99 50.7821 2068.91 47.7845 Q2065.83 44.7463 2065.83 39.4801 Q2065.83 33.0797 2070.37 29.5959 Q2074.91 26.1121 2083.25 26.1121 Q2087.39 26.1121 2091.03 26.7198 Q2094.68 27.3274 2097.76 28.5427 Z" fill="#000000" fill-rule="nonzero" fill-opacity="1" /><path clip-path="url(#clip700)" d="M2175.01 14.0809 L2175.01 22.0612 Q2170.35 19.8332 2166.22 18.7395 Q2162.08 17.6457 2158.24 17.6457 Q2151.55 17.6457 2147.91 20.2383 Q2144.3 22.8309 2144.3 27.611 Q2144.3 31.6214 2146.69 33.6873 Q2149.12 35.7128 2155.85 36.9686 L2160.79 37.9813 Q2169.94 39.7232 2174.28 44.1387 Q2178.65 48.5136 2178.65 55.8863 Q2178.65 64.6767 2172.74 69.2137 Q2166.86 73.7508 2155.48 73.7508 Q2151.19 73.7508 2146.33 72.7785 Q2141.51 71.8063 2136.32 69.9024 L2136.32 61.4765 Q2141.3 64.2716 2146.08 65.6895 Q2150.86 67.1073 2155.48 67.1073 Q2162.49 67.1073 2166.3 64.3527 Q2170.11 61.598 2170.11 56.4939 Q2170.11 52.0379 2167.35 49.5264 Q2164.64 47.0148 2158.4 45.759 L2153.42 44.7868 Q2144.26 42.9639 2140.17 39.075 Q2136.08 35.1862 2136.08 28.2591 Q2136.08 20.2383 2141.71 15.6203 Q2147.38 11.0023 2157.3 11.0023 Q2161.56 11.0023 2165.97 11.7719 Q2170.39 12.5416 2175.01 14.0809 Z" fill="#000000" fill-rule="nonzero" fill-opacity="1" /><path clip-path="url(#clip700)" d="M2191.41 12.096 L2229.65 12.096 L2229.65 18.9825 L2199.6 18.9825 L2199.6 36.8875 L2228.4 36.8875 L2228.4 43.7741 L2199.6 43.7741 L2199.6 65.6895 L2230.38 65.6895 L2230.38 72.576 L2191.41 72.576 L2191.41 12.096 Z" fill="#000000" fill-rule="nonzero" fill-opacity="1" /><path clip-path="url(#clip700)" d="M2243.83 12.096 L2252.01 12.096 L2252.01 72.576 L2243.83 72.576 L2243.83 12.096 Z" fill="#000000" fill-rule="nonzero" fill-opacity="1" /><path clip-path="url(#clip700)" d="M2296.98 44.2197 Q2299.61 45.1109 2302.08 48.0275 Q2304.6 50.9442 2307.11 56.0483 L2315.41 72.576 L2306.62 72.576 L2298.88 57.061 Q2295.89 50.9847 2293.05 48.9997 Q2290.25 47.0148 2285.39 47.0148 L2276.48 47.0148 L2276.48 72.576 L2268.3 72.576 L2268.3 12.096 L2286.77 12.096 Q2297.14 12.096 2302.25 16.4305 Q2307.35 20.7649 2307.35 29.5149 Q2307.35 35.2267 2304.68 38.994 Q2302.04 42.7613 2296.98 44.2197 M2276.48 18.8205 L2276.48 40.2903 L2286.77 40.2903 Q2292.69 40.2903 2295.68 37.5762 Q2298.72 34.8216 2298.72 29.5149 Q2298.72 24.2082 2295.68 21.5346 Q2292.69 18.8205 2286.77 18.8205 L2276.48 18.8205 Z" fill="#000000" fill-rule="nonzero" fill-opacity="1" /><polyline clip-path="url(#clip701)" style="stroke:#0000ff; stroke-linecap:round; stroke-linejoin:round; stroke-width:8; stroke-opacity:1; fill:none" points="294.479,1684.94 351.427,1688.65 408.376,1670.08 465.324,1647.8 522.273,1618.08 579.221,1592.09 636.17,1580.94 693.118,1603.23 750.067,1569.8 807.015,1562.37 863.963,1540.09 920.912,1536.37 977.86,1495.52 1034.81,1484.37 1091.76,1476.94 1148.71,1432.37 1205.65,1391.52 1262.6,1372.95 1319.55,1369.23 1376.5,1320.95 1433.45,1339.52 1490.4,1380.37 1547.35,1361.8 1604.29,1424.95 1661.24,1454.66 1718.19,1469.52 1775.14,1450.95 1832.09,1502.94 1889.04,1510.37 1945.98,1547.51 2002.93,1551.23 2059.88,1532.66 2116.83,1543.8 2173.78,1551.23 2230.73,1558.66 2287.68,1558.66 2344.62,1558.66 2401.57,1584.66 2458.52,1610.66 2515.47,1606.94 2572.42,1640.37 "/>
<polyline clip-path="url(#clip701)" style="stroke:#ff0000; stroke-linecap:round; stroke-linejoin:round; stroke-width:8; stroke-opacity:1; fill:none" points="294.479,1681.23 351.427,1662.66 408.376,1636.66 465.324,1569.8 522.273,1577.23 579.221,1528.94 636.17,1450.95 693.118,1424.95 750.067,1380.37 807.015,1335.8 863.963,1309.8 920.912,1261.52 977.86,1209.52 1034.81,1131.52 1091.76,1127.81 1148.71,1053.52 1205.65,979.239 1262.6,945.811 1319.55,852.956 1376.5,752.672 1433.45,682.102 1490.4,618.96 1547.35,529.819 1604.29,555.819 1661.24,470.392 1718.19,388.679 1775.14,266.11 1832.09,173.254 1889.04,191.825 1945.98,210.396 2002.93,306.966 2059.88,299.538 2116.83,303.252 2173.78,284.681 2230.73,243.824 2287.68,329.251 2344.62,306.966 2401.57,358.965 2458.52,396.107 2515.47,366.393 2572.42,358.965 "/>
<polyline clip-path="url(#clip701)" style="stroke:#008000; stroke-linecap:round; stroke-linejoin:round; stroke-width:8; stroke-opacity:1; fill:none" points="294.479,1677.51 351.427,1688.65 408.376,1673.8 465.324,1673.8 522.273,1670.08 579.221,1666.37 636.17,1651.51 693.118,1618.08 750.067,1584.66 807.015,1566.09 863.963,1536.37 920.912,1499.23 977.86,1458.37 1034.81,1413.8 1091.76,1343.23 1148.71,1268.95 1205.65,1228.09 1262.6,1138.95 1319.55,1120.38 1376.5,1060.95 1433.45,1005.24 1490.4,893.812 1547.35,838.099 1604.29,834.385 1661.24,752.672 1718.19,819.528 1775.14,797.243 1832.09,916.098 1889.04,908.669 1945.98,997.81 2002.93,1005.24 2059.88,1068.38 2116.83,1120.38 2173.78,1209.52 2230.73,1294.95 2287.68,1365.52 2344.62,1424.95 2401.57,1450.95 2458.52,1510.37 2515.47,1517.8 2572.42,1551.23 "/>
<path clip-path="url(#clip700)" d="M306.628 388.696 L650.566 388.696 L650.566 181.336 L306.628 181.336  Z" fill="#ffffff" fill-rule="evenodd" fill-opacity="1"/>
<polyline clip-path="url(#clip700)" style="stroke:#000000; stroke-linecap:round; stroke-linejoin:round; stroke-width:4; stroke-opacity:1; fill:none" points="306.628,388.696 650.566,388.696 650.566,181.336 306.628,181.336 306.628,388.696 "/>
<polyline clip-path="url(#clip700)" style="stroke:#0000ff; stroke-linecap:round; stroke-linejoin:round; stroke-width:8; stroke-opacity:1; fill:none" points="333.457,233.176 494.431,233.176 "/>
<path clip-path="url(#clip700)" d="M543.505 217.031 L543.505 221.591 Q540.843 220.318 538.482 219.693 Q536.121 219.068 533.922 219.068 Q530.103 219.068 528.019 220.549 Q525.959 222.031 525.959 224.762 Q525.959 227.054 527.325 228.234 Q528.714 229.392 532.556 230.109 L535.381 230.688 Q540.612 231.683 543.089 234.206 Q545.589 236.706 545.589 240.919 Q545.589 245.942 542.209 248.535 Q538.853 251.128 532.348 251.128 Q529.894 251.128 527.117 250.572 Q524.362 250.016 521.399 248.929 L521.399 244.114 Q524.246 245.711 526.978 246.521 Q529.709 247.331 532.348 247.331 Q536.353 247.331 538.529 245.757 Q540.705 244.183 540.705 241.267 Q540.705 238.72 539.13 237.285 Q537.58 235.85 534.015 235.132 L531.168 234.577 Q525.936 233.535 523.598 231.313 Q521.26 229.091 521.26 225.132 Q521.26 220.549 524.478 217.91 Q527.719 215.271 533.39 215.271 Q535.82 215.271 538.343 215.711 Q540.867 216.151 543.505 217.031 Z" fill="#000000" fill-rule="nonzero" fill-opacity="1" /><path clip-path="url(#clip700)" d="M552.88 215.896 L557.556 215.896 L557.556 250.456 L552.88 250.456 L552.88 215.896 Z" fill="#000000" fill-rule="nonzero" fill-opacity="1" /><path clip-path="url(#clip700)" d="M583.251 234.253 Q584.755 234.762 586.167 236.429 Q587.602 238.095 589.038 241.012 L593.783 250.456 L588.76 250.456 L584.339 241.591 Q582.626 238.118 581.005 236.984 Q579.408 235.85 576.63 235.85 L571.538 235.85 L571.538 250.456 L566.862 250.456 L566.862 215.896 L577.417 215.896 Q583.343 215.896 586.26 218.373 Q589.177 220.85 589.177 225.85 Q589.177 229.114 587.649 231.267 Q586.144 233.419 583.251 234.253 M571.538 219.739 L571.538 232.007 L577.417 232.007 Q580.797 232.007 582.51 230.456 Q584.246 228.882 584.246 225.85 Q584.246 222.818 582.51 221.29 Q580.797 219.739 577.417 219.739 L571.538 219.739 Z" fill="#000000" fill-rule="nonzero" fill-opacity="1" /><polyline clip-path="url(#clip700)" style="stroke:#ff0000; stroke-linecap:round; stroke-linejoin:round; stroke-width:8; stroke-opacity:1; fill:none" points="333.457,285.016 494.431,285.016 "/>
<path clip-path="url(#clip700)" d="M543.505 268.871 L543.505 273.431 Q540.843 272.158 538.482 271.533 Q536.121 270.908 533.922 270.908 Q530.103 270.908 528.019 272.389 Q525.959 273.871 525.959 276.602 Q525.959 278.894 527.325 280.074 Q528.714 281.232 532.556 281.949 L535.381 282.528 Q540.612 283.523 543.089 286.046 Q545.589 288.546 545.589 292.759 Q545.589 297.782 542.209 300.375 Q538.853 302.968 532.348 302.968 Q529.894 302.968 527.117 302.412 Q524.362 301.856 521.399 300.769 L521.399 295.954 Q524.246 297.551 526.978 298.361 Q529.709 299.171 532.348 299.171 Q536.353 299.171 538.529 297.597 Q540.705 296.023 540.705 293.107 Q540.705 290.56 539.13 289.125 Q537.58 287.69 534.015 286.972 L531.168 286.417 Q525.936 285.375 523.598 283.153 Q521.26 280.931 521.26 276.972 Q521.26 272.389 524.478 269.75 Q527.719 267.111 533.39 267.111 Q535.82 267.111 538.343 267.551 Q540.867 267.991 543.505 268.871 Z" fill="#000000" fill-rule="nonzero" fill-opacity="1" /><path clip-path="url(#clip700)" d="M552.88 267.736 L557.556 267.736 L557.556 302.296 L552.88 302.296 L552.88 267.736 Z" fill="#000000" fill-rule="nonzero" fill-opacity="1" /><path clip-path="url(#clip700)" d="M587.579 268.871 L587.579 273.431 Q584.917 272.158 582.556 271.533 Q580.195 270.908 577.996 270.908 Q574.177 270.908 572.093 272.389 Q570.033 273.871 570.033 276.602 Q570.033 278.894 571.399 280.074 Q572.788 281.232 576.63 281.949 L579.454 282.528 Q584.686 283.523 587.163 286.046 Q589.663 288.546 589.663 292.759 Q589.663 297.782 586.283 300.375 Q582.927 302.968 576.422 302.968 Q573.968 302.968 571.19 302.412 Q568.436 301.856 565.473 300.769 L565.473 295.954 Q568.32 297.551 571.052 298.361 Q573.783 299.171 576.422 299.171 Q580.427 299.171 582.602 297.597 Q584.778 296.023 584.778 293.107 Q584.778 290.56 583.204 289.125 Q581.653 287.69 578.089 286.972 L575.241 286.417 Q570.01 285.375 567.672 283.153 Q565.334 280.931 565.334 276.972 Q565.334 272.389 568.552 269.75 Q571.792 267.111 577.464 267.111 Q579.894 267.111 582.417 267.551 Q584.94 267.991 587.579 268.871 Z" fill="#000000" fill-rule="nonzero" fill-opacity="1" /><polyline clip-path="url(#clip700)" style="stroke:#008000; stroke-linecap:round; stroke-linejoin:round; stroke-width:8; stroke-opacity:1; fill:none" points="333.457,336.856 494.431,336.856 "/>
<path clip-path="url(#clip700)" d="M543.505 320.711 L543.505 325.271 Q540.843 323.998 538.482 323.373 Q536.121 322.748 533.922 322.748 Q530.103 322.748 528.019 324.229 Q525.959 325.711 525.959 328.442 Q525.959 330.734 527.325 331.914 Q528.714 333.072 532.556 333.789 L535.381 334.368 Q540.612 335.363 543.089 337.886 Q545.589 340.386 545.589 344.599 Q545.589 349.622 542.209 352.215 Q538.853 354.808 532.348 354.808 Q529.894 354.808 527.117 354.252 Q524.362 353.696 521.399 352.609 L521.399 347.794 Q524.246 349.391 526.978 350.201 Q529.709 351.011 532.348 351.011 Q536.353 351.011 538.529 349.437 Q540.705 347.863 540.705 344.947 Q540.705 342.4 539.13 340.965 Q537.58 339.53 534.015 338.812 L531.168 338.257 Q525.936 337.215 523.598 334.993 Q521.26 332.771 521.26 328.812 Q521.26 324.229 524.478 321.59 Q527.719 318.951 533.39 318.951 Q535.82 318.951 538.343 319.391 Q540.867 319.831 543.505 320.711 Z" fill="#000000" fill-rule="nonzero" fill-opacity="1" /><path clip-path="url(#clip700)" d="M552.88 319.576 L574.732 319.576 L574.732 323.511 L557.556 323.511 L557.556 333.743 L574.015 333.743 L574.015 337.678 L557.556 337.678 L557.556 350.201 L575.149 350.201 L575.149 354.136 L552.88 354.136 L552.88 319.576 Z" fill="#000000" fill-rule="nonzero" fill-opacity="1" /><path clip-path="url(#clip700)" d="M582.834 319.576 L587.51 319.576 L587.51 354.136 L582.834 354.136 L582.834 319.576 Z" fill="#000000" fill-rule="nonzero" fill-opacity="1" /><path clip-path="url(#clip700)" d="M613.204 337.933 Q614.709 338.442 616.121 340.109 Q617.556 341.775 618.991 344.692 L623.737 354.136 L618.713 354.136 L614.292 345.271 Q612.579 341.798 610.959 340.664 Q609.362 339.53 606.584 339.53 L601.491 339.53 L601.491 354.136 L596.815 354.136 L596.815 319.576 L607.371 319.576 Q613.297 319.576 616.213 322.053 Q619.13 324.53 619.13 329.53 Q619.13 332.794 617.602 334.947 Q616.098 337.099 613.204 337.933 M601.491 323.419 L601.491 335.687 L607.371 335.687 Q610.75 335.687 612.463 334.136 Q614.2 332.562 614.2 329.53 Q614.2 326.498 612.463 324.97 Q610.75 323.419 607.371 323.419 L601.491 323.419 Z" fill="#000000" fill-rule="nonzero" fill-opacity="1" /></svg>
