<?xml version="1.0" encoding="utf-8"?>
<svg xmlns="http://www.w3.org/2000/svg" xmlns:xlink="http://www.w3.org/1999/xlink" width="672" height="480" viewBox="0 0 2688 1920">
<defs>
  <clipPath id="clip730">
    <rect x="0" y="0" width="2688" height="1920"/>
  </clipPath>
</defs>
<path clip-path="url(#clip730)" d="M0 1920 L2688 1920 L2688 -4.26326e-14 L0 -4.26326e-14  Z" fill="#ffffff" fill-rule="evenodd" fill-opacity="1"/>
<defs>
  <clipPath id="clip731">
    <rect x="225" y="127" width="2416" height="1607"/>
  </clipPath>
</defs>
<path clip-path="url(#clip730)" d="M225.654 1734.12 L2640.76 1734.12 L2640.76 127.792 L225.654 127.792  Z" fill="#ffffff" fill-rule="evenodd" fill-opacity="1"/>
<polyline clip-path="url(#clip731)" style="stroke:#000000; stroke-linecap:round; stroke-linejoin:round; stroke-width:2; stroke-opacity:0.1; fill:none" points="294.006,1734.12 294.006,127.792 "/>
<polyline clip-path="url(#clip731)" style="stroke:#000000; stroke-linecap:round; stroke-linejoin:round; stroke-width:2; stroke-opacity:0.1; fill:none" points="863.606,1734.12 863.606,127.792 "/>
<polyline clip-path="url(#clip731)" style="stroke:#000000; stroke-linecap:round; stroke-linejoin:round; stroke-width:2; stroke-opacity:0.1; fill:none" points="1433.21,1734.12 1433.21,127.792 "/>
<polyline clip-path="url(#clip731)" style="stroke:#000000; stroke-linecap:round; stroke-linejoin:round; stroke-width:2; stroke-opacity:0.1; fill:none" points="2002.8,1734.12 2002.8,127.792 "/>
<polyline clip-path="url(#clip731)" style="stroke:#000000; stroke-linecap:round; stroke-linejoin:round; stroke-width:2; stroke-opacity:0.1; fill:none" points="2572.4,1734.12 2572.4,127.792 "/>
<polyline clip-path="url(#clip731)" style="stroke:#000000; stroke-linecap:round; stroke-linejoin:round; stroke-width:2; stroke-opacity:0.1; fill:none" points="225.654,1688.65 2640.76,1688.65 "/>
<polyline clip-path="url(#clip731)" style="stroke:#000000; stroke-linecap:round; stroke-linejoin:round; stroke-width:2; stroke-opacity:0.1; fill:none" points="225.654,1258.14 2640.76,1258.14 "/>
<polyline clip-path="url(#clip731)" style="stroke:#000000; stroke-linecap:round; stroke-linejoin:round; stroke-width:2; stroke-opacity:0.1; fill:none" points="225.654,827.632 2640.76,827.632 "/>
<polyline clip-path="url(#clip731)" style="stroke:#000000; stroke-linecap:round; stroke-linejoin:round; stroke-width:2; stroke-opacity:0.1; fill:none" points="225.654,397.12 2640.76,397.12 "/>
<polyline clip-path="url(#clip730)" style="stroke:#000000; stroke-linecap:round; stroke-linejoin:round; stroke-width:4; stroke-opacity:1; fill:none" points="225.654,1734.12 2640.76,1734.12 "/>
<polyline clip-path="url(#clip730)" style="stroke:#000000; stroke-linecap:round; stroke-linejoin:round; stroke-width:4; stroke-opacity:1; fill:none" points="294.006,1734.12 294.006,1715.22 "/>
<polyline clip-path="url(#clip730)" style="stroke:#000000; stroke-linecap:round; stroke-linejoin:round; stroke-width:4; stroke-opacity:1; fill:none" points="863.606,1734.12 863.606,1715.22 "/>
<polyline clip-path="url(#clip730)" style="stroke:#000000; stroke-linecap:round; stroke-linejoin:round; stroke-width:4; stroke-opacity:1; fill:none" points="1433.21,1734.12 1433.21,1715.22 "/>
<polyline clip-path="url(#clip730)" style="stroke:#000000; stroke-linecap:round; stroke-linejoin:round; stroke-width:4; stroke-opacity:1; fill:none" points="2002.8,1734.12 2002.8,1715.22 "/>
<polyline clip-path="url(#clip730)" style="stroke:#000000; stroke-linecap:round; stroke-linejoin:round; stroke-width:4; stroke-opacity:1; fill:none" points="2572.4,1734.12 2572.4,1715.22 "/>
<path clip-path="url(#clip730)" d="M294.006 1767.34 Q290.395 1767.34 288.567 1770.9 Q286.761 1774.45 286.761 1781.58 Q286.761 1788.68 288.567 1792.25 Q290.395 1795.79 294.006 1795.79 Q297.641 1795.79 299.446 1792.25 Q301.275 1788.68 301.275 1781.58 Q301.275 1774.45 299.446 1770.9 Q297.641 1767.34 294.006 1767.34 M294.006 1763.64 Q299.817 1763.64 302.872 1768.24 Q305.951 1772.83 305.951 1781.58 Q305.951 1790.3 302.872 1794.91 Q299.817 1799.49 294.006 1799.49 Q288.196 1799.49 285.118 1794.91 Q282.062 1790.3 282.062 1781.58 Q282.062 1772.83 285.118 1768.24 Q288.196 1763.64 294.006 1763.64 Z" fill="#000000" fill-rule="nonzero" fill-opacity="1" /><path clip-path="url(#clip730)" d="M838.293 1794.89 L845.932 1794.89 L845.932 1768.52 L837.622 1770.19 L837.622 1765.93 L845.886 1764.26 L850.562 1764.26 L850.562 1794.89 L858.201 1794.89 L858.201 1798.82 L838.293 1798.82 L838.293 1794.89 Z" fill="#000000" fill-rule="nonzero" fill-opacity="1" /><path clip-path="url(#clip730)" d="M877.645 1767.34 Q874.034 1767.34 872.205 1770.9 Q870.4 1774.45 870.4 1781.58 Q870.4 1788.68 872.205 1792.25 Q874.034 1795.79 877.645 1795.79 Q881.279 1795.79 883.085 1792.25 Q884.914 1788.68 884.914 1781.58 Q884.914 1774.45 883.085 1770.9 Q881.279 1767.34 877.645 1767.34 M877.645 1763.64 Q883.455 1763.64 886.511 1768.24 Q889.589 1772.83 889.589 1781.58 Q889.589 1790.3 886.511 1794.91 Q883.455 1799.49 877.645 1799.49 Q871.835 1799.49 868.756 1794.91 Q865.701 1790.3 865.701 1781.58 Q865.701 1772.83 868.756 1768.24 Q871.835 1763.64 877.645 1763.64 Z" fill="#000000" fill-rule="nonzero" fill-opacity="1" /><path clip-path="url(#clip730)" d="M1411.98 1794.89 L1428.3 1794.89 L1428.3 1798.82 L1406.35 1798.82 L1406.35 1794.89 Q1409.02 1792.13 1413.6 1787.5 Q1418.21 1782.85 1419.39 1781.51 Q1421.63 1778.98 1422.51 1777.25 Q1423.41 1775.49 1423.41 1773.8 Q1423.41 1771.04 1421.47 1769.31 Q1419.55 1767.57 1416.45 1767.57 Q1414.25 1767.57 1411.79 1768.34 Q1409.36 1769.1 1406.58 1770.65 L1406.58 1765.93 Q1409.41 1764.79 1411.86 1764.21 Q1414.32 1763.64 1416.35 1763.64 Q1421.72 1763.64 1424.92 1766.32 Q1428.11 1769.01 1428.11 1773.5 Q1428.11 1775.63 1427.3 1777.55 Q1426.52 1779.45 1424.41 1782.04 Q1423.83 1782.71 1420.73 1785.93 Q1417.63 1789.12 1411.98 1794.89 Z" fill="#000000" fill-rule="nonzero" fill-opacity="1" /><path clip-path="url(#clip730)" d="M1448.11 1767.34 Q1444.5 1767.34 1442.67 1770.9 Q1440.87 1774.45 1440.87 1781.58 Q1440.87 1788.68 1442.67 1792.25 Q1444.5 1795.79 1448.11 1795.79 Q1451.75 1795.79 1453.55 1792.25 Q1455.38 1788.68 1455.38 1781.58 Q1455.38 1774.45 1453.55 1770.9 Q1451.75 1767.34 1448.11 1767.34 M1448.11 1763.64 Q1453.92 1763.64 1456.98 1768.24 Q1460.06 1772.83 1460.06 1781.58 Q1460.06 1790.3 1456.98 1794.91 Q1453.92 1799.49 1448.11 1799.49 Q1442.3 1799.49 1439.22 1794.91 Q1436.17 1790.3 1436.17 1781.58 Q1436.17 1772.83 1439.22 1768.24 Q1442.3 1763.64 1448.11 1763.64 Z" fill="#000000" fill-rule="nonzero" fill-opacity="1" /><path clip-path="url(#clip730)" d="M1991.65 1780.19 Q1995 1780.9 1996.88 1783.17 Q1998.78 1785.44 1998.78 1788.77 Q1998.78 1793.89 1995.26 1796.69 Q1991.74 1799.49 1985.26 1799.49 Q1983.08 1799.49 1980.77 1799.05 Q1978.48 1798.64 1976.02 1797.78 L1976.02 1793.27 Q1977.97 1794.4 1980.28 1794.98 Q1982.6 1795.56 1985.12 1795.56 Q1989.52 1795.56 1991.81 1793.82 Q1994.12 1792.08 1994.12 1788.77 Q1994.12 1785.72 1991.97 1784.01 Q1989.84 1782.27 1986.02 1782.27 L1981.99 1782.27 L1981.99 1778.43 L1986.21 1778.43 Q1989.66 1778.43 1991.49 1777.06 Q1993.31 1775.67 1993.31 1773.08 Q1993.31 1770.42 1991.42 1769.01 Q1989.54 1767.57 1986.02 1767.57 Q1984.1 1767.57 1981.9 1767.99 Q1979.7 1768.4 1977.06 1769.28 L1977.06 1765.12 Q1979.73 1764.38 1982.04 1764.01 Q1984.38 1763.64 1986.44 1763.64 Q1991.76 1763.64 1994.86 1766.07 Q1997.97 1768.47 1997.97 1772.59 Q1997.97 1775.46 1996.32 1777.46 Q1994.68 1779.42 1991.65 1780.19 Z" fill="#000000" fill-rule="nonzero" fill-opacity="1" /><path clip-path="url(#clip730)" d="M2017.64 1767.34 Q2014.03 1767.34 2012.2 1770.9 Q2010.4 1774.45 2010.4 1781.58 Q2010.4 1788.68 2012.2 1792.25 Q2014.03 1795.79 2017.64 1795.79 Q2021.28 1795.79 2023.08 1792.25 Q2024.91 1788.68 2024.91 1781.58 Q2024.91 1774.45 2023.08 1770.9 Q2021.28 1767.34 2017.64 1767.34 M2017.64 1763.64 Q2023.45 1763.64 2026.51 1768.24 Q2029.59 1772.83 2029.59 1781.58 Q2029.59 1790.3 2026.51 1794.91 Q2023.45 1799.49 2017.64 1799.49 Q2011.83 1799.49 2008.75 1794.91 Q2005.7 1790.3 2005.7 1781.58 Q2005.7 1772.83 2008.75 1768.24 Q2011.83 1763.64 2017.64 1763.64 Z" fill="#000000" fill-rule="nonzero" fill-opacity="1" /><path clip-path="url(#clip730)" d="M2560.58 1768.34 L2548.77 1786.78 L2560.58 1786.78 L2560.58 1768.34 M2559.35 1764.26 L2565.23 1764.26 L2565.23 1786.78 L2570.16 1786.78 L2570.16 1790.67 L2565.23 1790.67 L2565.23 1798.82 L2560.58 1798.82 L2560.58 1790.67 L2544.97 1790.67 L2544.97 1786.16 L2559.35 1764.26 Z" fill="#000000" fill-rule="nonzero" fill-opacity="1" /><path clip-path="url(#clip730)" d="M2587.89 1767.34 Q2584.28 1767.34 2582.45 1770.9 Q2580.64 1774.45 2580.64 1781.58 Q2580.64 1788.68 2582.45 1792.25 Q2584.28 1795.79 2587.89 1795.79 Q2591.52 1795.79 2593.33 1792.25 Q2595.16 1788.68 2595.16 1781.58 Q2595.16 1774.45 2593.33 1770.9 Q2591.52 1767.34 2587.89 1767.34 M2587.89 1763.64 Q2593.7 1763.64 2596.76 1768.24 Q2599.83 1772.83 2599.83 1781.58 Q2599.83 1790.3 2596.76 1794.91 Q2593.7 1799.49 2587.89 1799.49 Q2582.08 1799.49 2579 1794.91 Q2575.95 1790.3 2575.95 1781.58 Q2575.95 1772.83 2579 1768.24 Q2582.08 1763.64 2587.89 1763.64 Z" fill="#000000" fill-rule="nonzero" fill-opacity="1" /><path clip-path="url(#clip730)" d="M1379.45 1841.06 L1379.45 1878.02 L1387.21 1878.02 Q1397.05 1878.02 1401.6 1873.56 Q1406.18 1869.11 1406.18 1859.49 Q1406.18 1849.94 1401.6 1845.52 Q1397.05 1841.06 1387.21 1841.06 L1379.45 1841.06 M1373.02 1835.78 L1386.23 1835.78 Q1400.04 1835.78 1406.5 1841.54 Q1412.96 1847.27 1412.96 1859.49 Q1412.96 1871.78 1406.47 1877.54 Q1399.98 1883.3 1386.23 1883.3 L1373.02 1883.3 L1373.02 1835.78 Z" fill="#000000" fill-rule="nonzero" fill-opacity="1" /><path clip-path="url(#clip730)" d="M1439.16 1865.38 Q1432.06 1865.38 1429.32 1867 Q1426.58 1868.63 1426.58 1872.54 Q1426.58 1875.66 1428.62 1877.51 Q1430.69 1879.32 1434.22 1879.32 Q1439.09 1879.32 1442.02 1875.88 Q1444.98 1872.42 1444.98 1866.69 L1444.98 1865.38 L1439.16 1865.38 M1450.84 1862.96 L1450.84 1883.3 L1444.98 1883.3 L1444.98 1877.89 Q1442.98 1881.14 1439.98 1882.7 Q1436.99 1884.22 1432.66 1884.22 Q1427.19 1884.22 1423.94 1881.17 Q1420.73 1878.08 1420.73 1872.92 Q1420.73 1866.91 1424.74 1863.85 Q1428.78 1860.8 1436.77 1860.8 L1444.98 1860.8 L1444.98 1860.23 Q1444.98 1856.18 1442.31 1853.99 Q1439.67 1851.76 1434.86 1851.76 Q1431.8 1851.76 1428.91 1852.49 Q1426.01 1853.22 1423.34 1854.69 L1423.34 1849.28 Q1426.55 1848.03 1429.58 1847.43 Q1432.6 1846.79 1435.47 1846.79 Q1443.2 1846.79 1447.02 1850.8 Q1450.84 1854.81 1450.84 1862.96 Z" fill="#000000" fill-rule="nonzero" fill-opacity="1" /><path clip-path="url(#clip730)" d="M1477.73 1886.61 Q1475.25 1892.98 1472.9 1894.92 Q1470.54 1896.86 1466.59 1896.86 L1461.91 1896.86 L1461.91 1891.96 L1465.35 1891.96 Q1467.77 1891.96 1469.11 1890.81 Q1470.44 1889.67 1472.07 1885.4 L1473.12 1882.73 L1458.7 1847.65 L1464.91 1847.65 L1476.05 1875.53 L1487.19 1847.65 L1493.39 1847.65 L1477.73 1886.61 Z" fill="#000000" fill-rule="nonzero" fill-opacity="1" /><polyline clip-path="url(#clip730)" style="stroke:#000000; stroke-linecap:round; stroke-linejoin:round; stroke-width:4; stroke-opacity:1; fill:none" points="225.654,1734.12 225.654,127.792 "/>
<polyline clip-path="url(#clip730)" style="stroke:#000000; stroke-linecap:round; stroke-linejoin:round; stroke-width:4; stroke-opacity:1; fill:none" points="225.654,1688.65 244.552,1688.65 "/>
<polyline clip-path="url(#clip730)" style="stroke:#000000; stroke-linecap:round; stroke-linejoin:round; stroke-width:4; stroke-opacity:1; fill:none" points="225.654,1258.14 244.552,1258.14 "/>
<polyline clip-path="url(#clip730)" style="stroke:#000000; stroke-linecap:round; stroke-linejoin:round; stroke-width:4; stroke-opacity:1; fill:none" points="225.654,827.632 244.552,827.632 "/>
<polyline clip-path="url(#clip730)" style="stroke:#000000; stroke-linecap:round; stroke-linejoin:round; stroke-width:4; stroke-opacity:1; fill:none" points="225.654,397.12 244.552,397.12 "/>
<path clip-path="url(#clip730)" d="M128.159 1674.45 Q124.548 1674.45 122.719 1678.02 Q120.913 1681.56 120.913 1688.69 Q120.913 1695.8 122.719 1699.36 Q124.548 1702.9 128.159 1702.9 Q131.793 1702.9 133.599 1699.36 Q135.427 1695.8 135.427 1688.69 Q135.427 1681.56 133.599 1678.02 Q131.793 1674.45 128.159 1674.45 M128.159 1670.75 Q133.969 1670.75 137.025 1675.36 Q140.103 1679.94 140.103 1688.69 Q140.103 1697.42 137.025 1702.02 Q133.969 1706.61 128.159 1706.61 Q122.349 1706.61 119.27 1702.02 Q116.214 1697.42 116.214 1688.69 Q116.214 1679.94 119.27 1675.36 Q122.349 1670.75 128.159 1670.75 Z" fill="#000000" fill-rule="nonzero" fill-opacity="1" /><path clip-path="url(#clip730)" d="M148.321 1700.06 L153.205 1700.06 L153.205 1705.93 L148.321 1705.93 L148.321 1700.06 Z" fill="#000000" fill-rule="nonzero" fill-opacity="1" /><path clip-path="url(#clip730)" d="M173.39 1674.45 Q169.779 1674.45 167.95 1678.02 Q166.145 1681.56 166.145 1688.69 Q166.145 1695.8 167.95 1699.36 Q169.779 1702.9 173.39 1702.9 Q177.024 1702.9 178.83 1699.36 Q180.659 1695.8 180.659 1688.69 Q180.659 1681.56 178.83 1678.02 Q177.024 1674.45 173.39 1674.45 M173.39 1670.75 Q179.2 1670.75 182.256 1675.36 Q185.334 1679.94 185.334 1688.69 Q185.334 1697.42 182.256 1702.02 Q179.2 1706.61 173.39 1706.61 Q167.58 1706.61 164.501 1702.02 Q161.446 1697.42 161.446 1688.69 Q161.446 1679.94 164.501 1675.36 Q167.58 1670.75 173.39 1670.75 Z" fill="#000000" fill-rule="nonzero" fill-opacity="1" /><path clip-path="url(#clip730)" d="M129.386 1243.94 Q125.775 1243.94 123.946 1247.51 Q122.14 1251.05 122.14 1258.18 Q122.14 1265.28 123.946 1268.85 Q125.775 1272.39 129.386 1272.39 Q133.02 1272.39 134.825 1268.85 Q136.654 1265.28 136.654 1258.18 Q136.654 1251.05 134.825 1247.51 Q133.02 1243.94 129.386 1243.94 M129.386 1240.24 Q135.196 1240.24 138.251 1244.84 Q141.33 1249.43 141.33 1258.18 Q141.33 1266.9 138.251 1271.51 Q135.196 1276.09 129.386 1276.09 Q123.576 1276.09 120.497 1271.51 Q117.441 1266.9 117.441 1258.18 Q117.441 1249.43 120.497 1244.84 Q123.576 1240.24 129.386 1240.24 Z" fill="#000000" fill-rule="nonzero" fill-opacity="1" /><path clip-path="url(#clip730)" d="M149.548 1269.54 L154.432 1269.54 L154.432 1275.42 L149.548 1275.42 L149.548 1269.54 Z" fill="#000000" fill-rule="nonzero" fill-opacity="1" /><path clip-path="url(#clip730)" d="M165.427 1271.49 L173.066 1271.49 L173.066 1245.12 L164.756 1246.79 L164.756 1242.53 L173.02 1240.86 L177.696 1240.86 L177.696 1271.49 L185.334 1271.49 L185.334 1275.42 L165.427 1275.42 L165.427 1271.49 Z" fill="#000000" fill-rule="nonzero" fill-opacity="1" /><path clip-path="url(#clip730)" d="M129.756 813.43 Q126.145 813.43 124.316 816.995 Q122.511 820.537 122.511 827.666 Q122.511 834.773 124.316 838.338 Q126.145 841.879 129.756 841.879 Q133.39 841.879 135.196 838.338 Q137.025 834.773 137.025 827.666 Q137.025 820.537 135.196 816.995 Q133.39 813.43 129.756 813.43 M129.756 809.727 Q135.566 809.727 138.622 814.333 Q141.7 818.917 141.7 827.666 Q141.7 836.393 138.622 841 Q135.566 845.583 129.756 845.583 Q123.946 845.583 120.867 841 Q117.812 836.393 117.812 827.666 Q117.812 818.917 120.867 814.333 Q123.946 809.727 129.756 809.727 Z" fill="#000000" fill-rule="nonzero" fill-opacity="1" /><path clip-path="url(#clip730)" d="M149.918 839.032 L154.802 839.032 L154.802 844.912 L149.918 844.912 L149.918 839.032 Z" fill="#000000" fill-rule="nonzero" fill-opacity="1" /><path clip-path="url(#clip730)" d="M169.015 840.977 L185.334 840.977 L185.334 844.912 L163.39 844.912 L163.39 840.977 Q166.052 838.222 170.635 833.592 Q175.242 828.94 176.422 827.597 Q178.668 825.074 179.547 823.338 Q180.45 821.579 180.45 819.889 Q180.45 817.134 178.506 815.398 Q176.584 813.662 173.483 813.662 Q171.284 813.662 168.83 814.426 Q166.399 815.19 163.622 816.741 L163.622 812.018 Q166.446 810.884 168.899 810.305 Q171.353 809.727 173.39 809.727 Q178.76 809.727 181.955 812.412 Q185.149 815.097 185.149 819.588 Q185.149 821.717 184.339 823.639 Q183.552 825.537 181.446 828.129 Q180.867 828.801 177.765 832.018 Q174.663 835.213 169.015 840.977 Z" fill="#000000" fill-rule="nonzero" fill-opacity="1" /><path clip-path="url(#clip730)" d="M128.807 382.919 Q125.196 382.919 123.367 386.484 Q121.562 390.025 121.562 397.155 Q121.562 404.261 123.367 407.826 Q125.196 411.368 128.807 411.368 Q132.441 411.368 134.247 407.826 Q136.075 404.261 136.075 397.155 Q136.075 390.025 134.247 386.484 Q132.441 382.919 128.807 382.919 M128.807 379.215 Q134.617 379.215 137.673 383.822 Q140.751 388.405 140.751 397.155 Q140.751 405.882 137.673 410.488 Q134.617 415.071 128.807 415.071 Q122.997 415.071 119.918 410.488 Q116.863 405.882 116.863 397.155 Q116.863 388.405 119.918 383.822 Q122.997 379.215 128.807 379.215 Z" fill="#000000" fill-rule="nonzero" fill-opacity="1" /><path clip-path="url(#clip730)" d="M148.969 408.521 L153.853 408.521 L153.853 414.4 L148.969 414.4 L148.969 408.521 Z" fill="#000000" fill-rule="nonzero" fill-opacity="1" /><path clip-path="url(#clip730)" d="M178.205 395.766 Q181.561 396.484 183.436 398.752 Q185.334 401.021 185.334 404.354 Q185.334 409.47 181.816 412.271 Q178.297 415.071 171.816 415.071 Q169.64 415.071 167.325 414.632 Q165.034 414.215 162.58 413.359 L162.58 408.845 Q164.524 409.979 166.839 410.558 Q169.154 411.136 171.677 411.136 Q176.075 411.136 178.367 409.4 Q180.682 407.664 180.682 404.354 Q180.682 401.298 178.529 399.585 Q176.399 397.849 172.58 397.849 L168.552 397.849 L168.552 394.007 L172.765 394.007 Q176.214 394.007 178.043 392.641 Q179.872 391.252 179.872 388.66 Q179.872 385.998 177.973 384.586 Q176.098 383.15 172.58 383.15 Q170.659 383.15 168.46 383.567 Q166.26 383.984 163.622 384.863 L163.622 380.697 Q166.284 379.956 168.598 379.586 Q170.936 379.215 172.997 379.215 Q178.321 379.215 181.422 381.646 Q184.524 384.053 184.524 388.173 Q184.524 391.044 182.881 393.035 Q181.237 395.002 178.205 395.766 Z" fill="#000000" fill-rule="nonzero" fill-opacity="1" /><path clip-path="url(#clip730)" d="M19.402 1098.4 L37.2578 1098.4 L37.2578 1090.32 Q37.2578 1085.83 34.9343 1083.38 Q32.6108 1080.93 28.314 1080.93 Q24.0489 1080.93 21.7255 1083.38 Q19.402 1085.83 19.402 1090.32 L19.402 1098.4 M14.1184 1104.83 L14.1184 1090.32 Q14.1184 1082.33 17.7469 1078.26 Q21.3435 1074.15 28.314 1074.15 Q35.3481 1074.15 38.9447 1078.26 Q42.5413 1082.33 42.5413 1090.32 L42.5413 1098.4 L61.6384 1098.4 L61.6384 1104.83 L14.1184 1104.83 Z" fill="#000000" fill-rule="nonzero" fill-opacity="1" /><path clip-path="url(#clip730)" d="M31.465 1046.27 Q30.8921 1047.26 30.6375 1048.43 Q30.351 1049.58 30.351 1050.98 Q30.351 1055.95 33.5975 1058.62 Q36.8122 1061.26 42.8596 1061.26 L61.6384 1061.26 L61.6384 1067.15 L25.9905 1067.15 L25.9905 1061.26 L31.5287 1061.26 Q28.2821 1059.41 26.7225 1056.45 Q25.1311 1053.49 25.1311 1049.26 Q25.1311 1048.66 25.2266 1047.92 Q25.2903 1047.19 25.4494 1046.3 L31.465 1046.27 Z" fill="#000000" fill-rule="nonzero" fill-opacity="1" /><path clip-path="url(#clip730)" d="M42.3504 1011.07 L45.2149 1011.07 L45.2149 1037.99 Q51.2623 1037.61 54.4452 1034.37 Q57.5962 1031.09 57.5962 1025.26 Q57.5962 1021.89 56.7687 1018.74 Q55.9411 1015.55 54.2861 1012.44 L59.8242 1012.44 Q61.161 1015.59 61.8612 1018.9 Q62.5615 1022.21 62.5615 1025.61 Q62.5615 1034.14 57.5962 1039.14 Q52.631 1044.1 44.1646 1044.1 Q35.4117 1044.1 30.2873 1039.39 Q25.1311 1034.65 25.1311 1026.63 Q25.1311 1019.44 29.7781 1015.27 Q34.3932 1011.07 42.3504 1011.07 M40.6316 1016.92 Q35.8255 1016.99 32.9609 1019.63 Q30.0964 1022.24 30.0964 1026.57 Q30.0964 1031.47 32.8654 1034.43 Q35.6345 1037.36 40.6634 1037.8 L40.6316 1016.92 Z" fill="#000000" fill-rule="nonzero" fill-opacity="1" /><path clip-path="url(#clip730)" d="M25.9905 1005.66 L25.9905 999.45 L55.9093 988.31 L25.9905 977.17 L25.9905 970.963 L61.6384 984.331 L61.6384 992.288 L25.9905 1005.66 Z" fill="#000000" fill-rule="nonzero" fill-opacity="1" /><path clip-path="url(#clip730)" d="M43.719 946.678 Q43.719 953.776 45.3422 956.513 Q46.9655 959.25 50.8804 959.25 Q53.9996 959.25 55.8457 957.213 Q57.6599 955.144 57.6599 951.611 Q57.6599 946.742 54.2224 943.813 Q50.7531 940.853 45.0239 940.853 L43.719 940.853 L43.719 946.678 M41.3 934.997 L61.6384 934.997 L61.6384 940.853 L56.2276 940.853 Q59.4741 942.858 61.0337 945.85 Q62.5615 948.842 62.5615 953.171 Q62.5615 958.645 59.5059 961.892 Q56.4186 965.107 51.2623 965.107 Q45.2467 965.107 42.1912 961.096 Q39.1357 957.054 39.1357 949.065 L39.1357 940.853 L38.5628 940.853 Q34.5205 940.853 32.3244 943.527 Q30.0964 946.169 30.0964 950.975 Q30.0964 954.03 30.8284 956.927 Q31.5605 959.823 33.0246 962.497 L27.6137 962.497 Q26.3724 959.282 25.7677 956.258 Q25.1311 953.235 25.1311 950.37 Q25.1311 942.636 29.1415 938.816 Q33.1519 934.997 41.3 934.997 Z" fill="#000000" fill-rule="nonzero" fill-opacity="1" /><path clip-path="url(#clip730)" d="M12.1132 922.934 L12.1132 917.077 L61.6384 917.077 L61.6384 922.934 L12.1132 922.934 Z" fill="#000000" fill-rule="nonzero" fill-opacity="1" /><path clip-path="url(#clip730)" d="M42.3504 874.332 L45.2149 874.332 L45.2149 901.259 Q51.2623 900.877 54.4452 897.63 Q57.5962 894.352 57.5962 888.527 Q57.5962 885.153 56.7687 882.002 Q55.9411 878.819 54.2861 875.7 L59.8242 875.7 Q61.161 878.851 61.8612 882.161 Q62.5615 885.472 62.5615 888.877 Q62.5615 897.407 57.5962 902.404 Q52.631 907.37 44.1646 907.37 Q35.4117 907.37 30.2873 902.659 Q25.1311 897.917 25.1311 889.896 Q25.1311 882.702 29.7781 878.533 Q34.3932 874.332 42.3504 874.332 M40.6316 880.188 Q35.8255 880.252 32.9609 882.893 Q30.0964 885.503 30.0964 889.832 Q30.0964 894.734 32.8654 897.694 Q35.6345 900.622 40.6634 901.068 L40.6316 880.188 Z" fill="#000000" fill-rule="nonzero" fill-opacity="1" /><path clip-path="url(#clip730)" d="M40.1224 835.087 L61.6384 835.087 L61.6384 840.943 L40.3133 840.943 Q35.2526 840.943 32.7381 842.917 Q30.2237 844.89 30.2237 848.837 Q30.2237 853.579 33.2474 856.317 Q36.2711 859.054 41.491 859.054 L61.6384 859.054 L61.6384 864.942 L25.9905 864.942 L25.9905 859.054 L31.5287 859.054 Q28.314 856.953 26.7225 854.12 Q25.1311 851.256 25.1311 847.532 Q25.1311 841.389 28.9505 838.238 Q32.7381 835.087 40.1224 835.087 Z" fill="#000000" fill-rule="nonzero" fill-opacity="1" /><path clip-path="url(#clip730)" d="M27.3591 797.752 L32.8336 797.752 Q31.465 800.235 30.7966 802.749 Q30.0964 805.232 30.0964 807.778 Q30.0964 813.475 33.7248 816.626 Q37.3214 819.777 43.8463 819.777 Q50.3711 819.777 53.9996 816.626 Q57.5962 813.475 57.5962 807.778 Q57.5962 805.232 56.9278 802.749 Q56.2276 800.235 54.859 797.752 L60.2698 797.752 Q61.4156 800.203 61.9886 802.845 Q62.5615 805.455 62.5615 808.415 Q62.5615 816.467 57.5007 821.21 Q52.44 825.952 43.8463 825.952 Q35.1253 825.952 30.1282 821.178 Q25.1311 816.372 25.1311 808.033 Q25.1311 805.327 25.704 802.749 Q26.2451 800.171 27.3591 797.752 Z" fill="#000000" fill-rule="nonzero" fill-opacity="1" /><path clip-path="url(#clip730)" d="M42.3504 757.075 L45.2149 757.075 L45.2149 784.002 Q51.2623 783.62 54.4452 780.374 Q57.5962 777.095 57.5962 771.271 Q57.5962 767.897 56.7687 764.746 Q55.9411 761.563 54.2861 758.444 L59.8242 758.444 Q61.161 761.595 61.8612 764.905 Q62.5615 768.215 62.5615 771.621 Q62.5615 780.151 57.5962 785.148 Q52.631 790.113 44.1646 790.113 Q35.4117 790.113 30.2873 785.403 Q25.1311 780.66 25.1311 772.639 Q25.1311 765.446 29.7781 761.277 Q34.3932 757.075 42.3504 757.075 M40.6316 762.932 Q35.8255 762.995 32.9609 765.637 Q30.0964 768.247 30.0964 772.576 Q30.0964 777.477 32.8654 780.437 Q35.6345 783.366 40.6634 783.811 L40.6316 762.932 Z" fill="#000000" fill-rule="nonzero" fill-opacity="1" /><path clip-path="url(#clip730)" d="M1011.02 12.096 L1049.26 12.096 L1049.26 18.9825 L1019.2 18.9825 L1019.2 36.8875 L1048 36.8875 L1048 43.7741 L1019.2 43.7741 L1019.2 65.6895 L1049.99 65.6895 L1049.99 72.576 L1011.02 72.576 L1011.02 12.096 Z" fill="#000000" fill-rule="nonzero" fill-opacity="1" /><path clip-path="url(#clip730)" d="M1086.08 9.54393 L1086.08 15.7418 L1078.95 15.7418 Q1074.94 15.7418 1073.36 17.3622 Q1071.82 18.9825 1071.82 23.1955 L1071.82 27.2059 L1084.1 27.2059 L1084.1 32.9987 L1071.82 32.9987 L1071.82 72.576 L1064.33 72.576 L1064.33 32.9987 L1057.2 32.9987 L1057.2 27.2059 L1064.33 27.2059 L1064.33 24.0462 Q1064.33 16.471 1067.85 13.0277 Q1071.38 9.54393 1079.03 9.54393 L1086.08 9.54393 Z" fill="#000000" fill-rule="nonzero" fill-opacity="1" /><path clip-path="url(#clip730)" d="M1115.29 9.54393 L1115.29 15.7418 L1108.16 15.7418 Q1104.15 15.7418 1102.57 17.3622 Q1101.03 18.9825 1101.03 23.1955 L1101.03 27.2059 L1113.31 27.2059 L1113.31 32.9987 L1101.03 32.9987 L1101.03 72.576 L1093.54 72.576 L1093.54 32.9987 L1086.41 32.9987 L1086.41 27.2059 L1093.54 27.2059 L1093.54 24.0462 Q1093.54 16.471 1097.06 13.0277 Q1100.59 9.54393 1108.24 9.54393 L1115.29 9.54393 Z" fill="#000000" fill-rule="nonzero" fill-opacity="1" /><path clip-path="url(#clip730)" d="M1160.34 48.0275 L1160.34 51.6733 L1126.07 51.6733 Q1126.55 59.3701 1130.68 63.421 Q1134.86 67.4314 1142.27 67.4314 Q1146.56 67.4314 1150.57 66.3781 Q1154.62 65.3249 1158.59 63.2184 L1158.59 70.267 Q1154.58 71.9684 1150.37 72.8596 Q1146.16 73.7508 1141.82 73.7508 Q1130.97 73.7508 1124.61 67.4314 Q1118.29 61.1119 1118.29 50.3365 Q1118.29 39.1965 1124.28 32.6746 Q1130.32 26.1121 1140.53 26.1121 Q1149.68 26.1121 1154.99 32.0264 Q1160.34 37.9003 1160.34 48.0275 M1152.88 45.84 Q1152.8 39.7232 1149.44 36.0774 Q1146.12 32.4315 1140.61 32.4315 Q1134.37 32.4315 1130.6 35.9558 Q1126.88 39.4801 1126.31 45.8805 L1152.88 45.84 Z" fill="#000000" fill-rule="nonzero" fill-opacity="1" /><path clip-path="url(#clip730)" d="M1205.22 28.9478 L1205.22 35.9153 Q1202.06 34.1734 1198.86 33.3227 Q1195.7 32.4315 1192.46 32.4315 Q1185.21 32.4315 1181.2 37.0496 Q1177.19 41.6271 1177.19 49.9314 Q1177.19 58.2358 1181.2 62.8538 Q1185.21 67.4314 1192.46 67.4314 Q1195.7 67.4314 1198.86 66.5807 Q1202.06 65.6895 1205.22 63.9476 L1205.22 70.8341 Q1202.1 72.2924 1198.74 73.0216 Q1195.42 73.7508 1191.65 73.7508 Q1181.4 73.7508 1175.37 67.3098 Q1169.33 60.8689 1169.33 49.9314 Q1169.33 38.832 1175.41 32.472 Q1181.52 26.1121 1192.14 26.1121 Q1195.58 26.1121 1198.86 26.8413 Q1202.14 27.5299 1205.22 28.9478 Z" fill="#000000" fill-rule="nonzero" fill-opacity="1" /><path clip-path="url(#clip730)" d="M1225.56 14.324 L1225.56 27.2059 L1240.91 27.2059 L1240.91 32.9987 L1225.56 32.9987 L1225.56 57.6282 Q1225.56 63.1779 1227.05 64.7578 Q1228.59 66.3376 1233.25 66.3376 L1240.91 66.3376 L1240.91 72.576 L1233.25 72.576 Q1224.62 72.576 1221.34 69.3758 Q1218.06 66.1351 1218.06 57.6282 L1218.06 32.9987 L1212.59 32.9987 L1212.59 27.2059 L1218.06 27.2059 L1218.06 14.324 L1225.56 14.324 Z" fill="#000000" fill-rule="nonzero" fill-opacity="1" /><path clip-path="url(#clip730)" d="M1294.66 32.4315 Q1288.67 32.4315 1285.19 37.1306 Q1281.7 41.7891 1281.7 49.9314 Q1281.7 58.0738 1285.14 62.7728 Q1288.63 67.4314 1294.66 67.4314 Q1300.62 67.4314 1304.1 62.7323 Q1307.59 58.0333 1307.59 49.9314 Q1307.59 41.8701 1304.1 37.1711 Q1300.62 32.4315 1294.66 32.4315 M1294.66 26.1121 Q1304.39 26.1121 1309.94 32.4315 Q1315.49 38.7509 1315.49 49.9314 Q1315.49 61.0714 1309.94 67.4314 Q1304.39 73.7508 1294.66 73.7508 Q1284.9 73.7508 1279.35 67.4314 Q1273.84 61.0714 1273.84 49.9314 Q1273.84 38.7509 1279.35 32.4315 Q1284.9 26.1121 1294.66 26.1121 Z" fill="#000000" fill-rule="nonzero" fill-opacity="1" /><path clip-path="url(#clip730)" d="M1350.81 9.54393 L1350.81 15.7418 L1343.68 15.7418 Q1339.67 15.7418 1338.09 17.3622 Q1336.55 18.9825 1336.55 23.1955 L1336.55 27.2059 L1348.82 27.2059 L1348.82 32.9987 L1336.55 32.9987 L1336.55 72.576 L1329.06 72.576 L1329.06 32.9987 L1321.93 32.9987 L1321.93 27.2059 L1329.06 27.2059 L1329.06 24.0462 Q1329.06 16.471 1332.58 13.0277 Q1336.11 9.54393 1343.76 9.54393 L1350.81 9.54393 Z" fill="#000000" fill-rule="nonzero" fill-opacity="1" /><path clip-path="url(#clip730)" d="M1391.93 43.6931 L1391.93 65.8515 L1405.05 65.8515 Q1411.65 65.8515 1414.81 63.1374 Q1418.01 60.3828 1418.01 54.752 Q1418.01 49.0808 1414.81 46.4072 Q1411.65 43.6931 1405.05 43.6931 L1391.93 43.6931 M1391.93 18.8205 L1391.93 37.0496 L1404.04 37.0496 Q1410.03 37.0496 1412.95 34.8216 Q1415.91 32.5531 1415.91 27.935 Q1415.91 23.3575 1412.95 21.089 Q1410.03 18.8205 1404.04 18.8205 L1391.93 18.8205 M1383.74 12.096 L1404.65 12.096 Q1414 12.096 1419.07 15.9849 Q1424.13 19.8737 1424.13 27.0438 Q1424.13 32.5936 1421.54 35.8748 Q1418.95 39.156 1413.92 39.9662 Q1419.96 41.2625 1423.28 45.3944 Q1426.64 49.4858 1426.64 55.6432 Q1426.64 63.745 1421.13 68.1605 Q1415.62 72.576 1405.46 72.576 L1383.74 72.576 L1383.74 12.096 Z" fill="#000000" fill-rule="nonzero" fill-opacity="1" /><path clip-path="url(#clip730)" d="M1479.14 48.0275 L1479.14 51.6733 L1444.87 51.6733 Q1445.36 59.3701 1449.49 63.421 Q1453.66 67.4314 1461.08 67.4314 Q1465.37 67.4314 1469.38 66.3781 Q1473.43 65.3249 1477.4 63.2184 L1477.4 70.267 Q1473.39 71.9684 1469.18 72.8596 Q1464.96 73.7508 1460.63 73.7508 Q1449.77 73.7508 1443.41 67.4314 Q1437.09 61.1119 1437.09 50.3365 Q1437.09 39.1965 1443.09 32.6746 Q1449.13 26.1121 1459.33 26.1121 Q1468.49 26.1121 1473.8 32.0264 Q1479.14 37.9003 1479.14 48.0275 M1471.69 45.84 Q1471.61 39.7232 1468.25 36.0774 Q1464.92 32.4315 1459.41 32.4315 Q1453.18 32.4315 1449.41 35.9558 Q1445.68 39.4801 1445.11 45.8805 L1471.69 45.84 Z" fill="#000000" fill-rule="nonzero" fill-opacity="1" /><path clip-path="url(#clip730)" d="M1498.75 14.324 L1498.75 27.2059 L1514.1 27.2059 L1514.1 32.9987 L1498.75 32.9987 L1498.75 57.6282 Q1498.75 63.1779 1500.25 64.7578 Q1501.79 66.3376 1506.45 66.3376 L1514.1 66.3376 L1514.1 72.576 L1506.45 72.576 Q1497.82 72.576 1494.54 69.3758 Q1491.25 66.1351 1491.25 57.6282 L1491.25 32.9987 L1485.79 32.9987 L1485.79 27.2059 L1491.25 27.2059 L1491.25 14.324 L1498.75 14.324 Z" fill="#000000" fill-rule="nonzero" fill-opacity="1" /><path clip-path="url(#clip730)" d="M1544.52 49.7694 Q1535.49 49.7694 1532.01 51.8354 Q1528.52 53.9013 1528.52 58.8839 Q1528.52 62.8538 1531.12 65.2034 Q1533.75 67.5124 1538.25 67.5124 Q1544.44 67.5124 1548.17 63.1374 Q1551.94 58.7219 1551.94 51.4303 L1551.94 49.7694 L1544.52 49.7694 M1559.39 46.6907 L1559.39 72.576 L1551.94 72.576 L1551.94 65.6895 Q1549.39 69.8214 1545.58 71.8063 Q1541.77 73.7508 1536.26 73.7508 Q1529.29 73.7508 1525.16 69.8619 Q1521.07 65.9325 1521.07 59.3701 Q1521.07 51.7138 1526.17 47.825 Q1531.32 43.9361 1541.49 43.9361 L1551.94 43.9361 L1551.94 43.2069 Q1551.94 38.0623 1548.53 35.2672 Q1545.17 32.4315 1539.06 32.4315 Q1535.17 32.4315 1531.48 33.3632 Q1527.79 34.295 1524.39 36.1584 L1524.39 29.2718 Q1528.48 27.692 1532.33 26.9223 Q1536.18 26.1121 1539.82 26.1121 Q1549.67 26.1121 1554.53 31.2163 Q1559.39 36.3204 1559.39 46.6907 Z" fill="#000000" fill-rule="nonzero" fill-opacity="1" /><path clip-path="url(#clip730)" d="M1618.7 32.4315 Q1612.7 32.4315 1609.22 37.1306 Q1605.73 41.7891 1605.73 49.9314 Q1605.73 58.0738 1609.18 62.7728 Q1612.66 67.4314 1618.7 67.4314 Q1624.65 67.4314 1628.13 62.7323 Q1631.62 58.0333 1631.62 49.9314 Q1631.62 41.8701 1628.13 37.1711 Q1624.65 32.4315 1618.7 32.4315 M1618.7 26.1121 Q1628.42 26.1121 1633.97 32.4315 Q1639.52 38.7509 1639.52 49.9314 Q1639.52 61.0714 1633.97 67.4314 Q1628.42 73.7508 1618.7 73.7508 Q1608.93 73.7508 1603.38 67.4314 Q1597.87 61.0714 1597.87 49.9314 Q1597.87 38.7509 1603.38 32.4315 Q1608.93 26.1121 1618.7 26.1121 Z" fill="#000000" fill-rule="nonzero" fill-opacity="1" /><path clip-path="url(#clip730)" d="M1689.59 45.1919 L1689.59 72.576 L1682.13 72.576 L1682.13 45.4349 Q1682.13 38.994 1679.62 35.7938 Q1677.11 32.5936 1672.09 32.5936 Q1666.05 32.5936 1662.57 36.4419 Q1659.08 40.2903 1659.08 46.9338 L1659.08 72.576 L1651.59 72.576 L1651.59 27.2059 L1659.08 27.2059 L1659.08 34.2544 Q1661.76 30.163 1665.36 28.1376 Q1669.01 26.1121 1673.75 26.1121 Q1681.57 26.1121 1685.58 30.9732 Q1689.59 35.7938 1689.59 45.1919 Z" fill="#000000" fill-rule="nonzero" fill-opacity="1" /><path clip-path="url(#clip730)" d="M1767.4 14.0809 L1767.4 22.0612 Q1762.75 19.8332 1758.61 18.7395 Q1754.48 17.6457 1750.63 17.6457 Q1743.95 17.6457 1740.3 20.2383 Q1736.7 22.8309 1736.7 27.611 Q1736.7 31.6214 1739.09 33.6873 Q1741.52 35.7128 1748.24 36.9686 L1753.19 37.9813 Q1762.34 39.7232 1766.68 44.1387 Q1771.05 48.5136 1771.05 55.8863 Q1771.05 64.6767 1765.14 69.2137 Q1759.26 73.7508 1747.88 73.7508 Q1743.59 73.7508 1738.72 72.7785 Q1733.9 71.8063 1728.72 69.9024 L1728.72 61.4765 Q1733.7 64.2716 1738.48 65.6895 Q1743.26 67.1073 1747.88 67.1073 Q1754.89 67.1073 1758.7 64.3527 Q1762.5 61.598 1762.5 56.4939 Q1762.5 52.0379 1759.75 49.5264 Q1757.03 47.0148 1750.8 45.759 L1745.81 44.7868 Q1736.66 42.9639 1732.57 39.075 Q1728.48 35.1862 1728.48 28.2591 Q1728.48 20.2383 1734.11 15.6203 Q1739.78 11.0023 1749.7 11.0023 Q1753.96 11.0023 1758.37 11.7719 Q1762.79 12.5416 1767.4 14.0809 Z" fill="#000000" fill-rule="nonzero" fill-opacity="1" /><path clip-path="url(#clip730)" d="M1783.81 12.096 L1791.99 12.096 L1791.99 72.576 L1783.81 72.576 L1783.81 12.096 Z" fill="#000000" fill-rule="nonzero" fill-opacity="1" /><path clip-path="url(#clip730)" d="M1836.96 44.2197 Q1839.59 45.1109 1842.06 48.0275 Q1844.57 50.9442 1847.09 56.0483 L1855.39 72.576 L1846.6 72.576 L1838.86 57.061 Q1835.87 50.9847 1833.03 48.9997 Q1830.23 47.0148 1825.37 47.0148 L1816.46 47.0148 L1816.46 72.576 L1808.28 72.576 L1808.28 12.096 L1826.75 12.096 Q1837.12 12.096 1842.22 16.4305 Q1847.33 20.7649 1847.33 29.5149 Q1847.33 35.2267 1844.66 38.994 Q1842.02 42.7613 1836.96 44.2197 M1816.46 18.8205 L1816.46 40.2903 L1826.75 40.2903 Q1832.66 40.2903 1835.66 37.5762 Q1838.7 34.8216 1838.7 29.5149 Q1838.7 24.2082 1835.66 21.5346 Q1832.66 18.8205 1826.75 18.8205 L1816.46 18.8205 Z" fill="#000000" fill-rule="nonzero" fill-opacity="1" /><polyline clip-path="url(#clip731)" style="stroke:#009af9; stroke-linecap:round; stroke-linejoin:round; stroke-width:8; stroke-opacity:1; fill:none" points="294.006,1645.6 350.966,1658.52 407.926,1654.21 464.886,1649.91 521.846,1658.52 578.806,1667.13 635.766,1671.43 692.726,1671.43 749.686,1671.43 806.646,1675.74 863.606,1680.04 920.566,1680.04 977.526,1680.04 1034.49,1680.04 1091.45,1680.04 1148.41,1684.35 1205.37,1688.65 1262.33,1688.65 1319.29,1688.65 1376.25,1688.65 1433.21,1688.65 1490.17,1688.65 1547.13,1688.65 1604.08,1688.65 1661.04,1688.65 1718,1688.65 1774.96,1688.65 1831.92,1688.65 1888.88,1688.65 1945.84,1688.65 2002.8,1688.65 2059.76,1688.65 2116.72,1688.65 2173.68,1688.65 2230.64,1688.65 2287.6,1688.65 2344.56,1688.65 2401.52,1688.65 2458.48,1688.65 2515.44,1688.65 2572.4,1688.65 "/>
<polyline clip-path="url(#clip731)" style="stroke:#e26f46; stroke-linecap:round; stroke-linejoin:round; stroke-width:8; stroke-opacity:1; fill:none" points="294.006,1628.38 350.966,1632.69 407.926,1611.16 464.886,1585.33 521.846,1550.89 578.806,1520.76 635.766,1507.84 692.726,1533.67 749.686,1494.92 806.646,1486.31 863.606,1460.48 920.566,1456.18 977.526,1408.82 1034.49,1395.91 1091.45,1387.3 1148.41,1335.64 1205.37,1288.28 1262.33,1266.75 1319.29,1262.45 1376.25,1206.48 1433.21,1228.01 1490.17,1275.36 1547.13,1253.84 1604.08,1327.03 1661.04,1361.47 1718,1378.69 1774.96,1357.16 1831.92,1417.43 1888.88,1426.04 1945.84,1469.09 2002.8,1473.4 2059.76,1451.87 2116.72,1464.79 2173.68,1473.4 2230.64,1482.01 2287.6,1482.01 2344.56,1482.01 2401.52,1512.15 2458.48,1542.28 2515.44,1537.98 2572.4,1576.72 "/>
<polyline clip-path="url(#clip731)" style="stroke:#3da44d; stroke-linecap:round; stroke-linejoin:round; stroke-width:8; stroke-opacity:1; fill:none" points="294.006,1598.25 350.966,1555.2 407.926,1494.92 464.886,1344.25 521.846,1223.7 578.806,1060.11 635.766,853.462 692.726,560.715 749.686,401.425 806.646,203.39 863.606,173.254 920.566,203.39 977.526,259.356 1034.49,440.171 1091.45,672.648 1148.41,784.581 1205.37,939.565 1262.33,995.531 1319.29,1146.21 1376.25,1232.31 1433.21,1318.41 1490.17,1404.52 1547.13,1451.87 1604.08,1482.01 1661.04,1542.28 1718,1572.42 1774.96,1606.86 1831.92,1619.77 1888.88,1624.08 1945.84,1632.69 2002.8,1649.91 2059.76,1658.52 2116.72,1662.82 2173.68,1671.43 2230.64,1680.04 2287.6,1680.04 2344.56,1684.35 2401.52,1688.65 2458.48,1688.65 2515.44,1688.65 2572.4,1688.65 "/>
<path clip-path="url(#clip730)" d="M2151.8 388.696 L2560.25 388.696 L2560.25 181.336 L2151.8 181.336  Z" fill="#ffffff" fill-rule="evenodd" fill-opacity="1"/>
<polyline clip-path="url(#clip730)" style="stroke:#000000; stroke-linecap:round; stroke-linejoin:round; stroke-width:4; stroke-opacity:1; fill:none" points="2151.8,388.696 2560.25,388.696 2560.25,181.336 2151.8,181.336 2151.8,388.696 "/>
<polyline clip-path="url(#clip730)" style="stroke:#009af9; stroke-linecap:round; stroke-linejoin:round; stroke-width:8; stroke-opacity:1; fill:none" points="2178.63,233.176 2339.64,233.176 "/>
<path clip-path="url(#clip730)" d="M2370.76 248.859 L2370.76 260.317 L2366.47 260.317 L2366.47 224.693 Q2366.47 214.137 2376.34 214.137 Q2386.38 214.137 2386.38 223.049 Q2386.38 229.392 2382.4 231.706 Q2388.88 233.79 2388.88 239.97 Q2388.88 250.942 2377.72 250.942 Q2372.82 250.942 2370.76 248.859 M2370.76 243.304 Q2373.33 247.308 2377.89 247.308 Q2384.55 247.308 2384.55 240.04 Q2384.55 233.512 2373.81 234.021 L2373.81 230.086 Q2382.22 230.086 2382.22 222.679 Q2382.22 217.609 2376.8 217.609 Q2370.76 217.609 2370.76 224.831 L2370.76 243.304 Z" fill="#000000" fill-rule="nonzero" fill-opacity="1" /><path clip-path="url(#clip730)" d="M2397.31 228.929 L2426.98 228.929 L2426.98 232.817 L2397.31 232.817 L2397.31 228.929 M2397.31 238.373 L2426.98 238.373 L2426.98 242.308 L2397.31 242.308 L2397.31 238.373 Z" fill="#000000" fill-rule="nonzero" fill-opacity="1" /><path clip-path="url(#clip730)" d="M2447.08 218.975 Q2443.46 218.975 2441.64 222.54 Q2439.83 226.081 2439.83 233.211 Q2439.83 240.317 2441.64 243.882 Q2443.46 247.424 2447.08 247.424 Q2450.71 247.424 2452.52 243.882 Q2454.34 240.317 2454.34 233.211 Q2454.34 226.081 2452.52 222.54 Q2450.71 218.975 2447.08 218.975 M2447.08 215.271 Q2452.89 215.271 2455.94 219.878 Q2459.02 224.461 2459.02 233.211 Q2459.02 241.938 2455.94 246.544 Q2452.89 251.128 2447.08 251.128 Q2441.27 251.128 2438.19 246.544 Q2435.13 241.938 2435.13 233.211 Q2435.13 224.461 2438.19 219.878 Q2441.27 215.271 2447.08 215.271 Z" fill="#000000" fill-rule="nonzero" fill-opacity="1" /><path clip-path="url(#clip730)" d="M2467.24 244.577 L2472.12 244.577 L2472.12 250.456 L2467.24 250.456 L2467.24 244.577 Z" fill="#000000" fill-rule="nonzero" fill-opacity="1" /><path clip-path="url(#clip730)" d="M2492.31 218.975 Q2488.7 218.975 2486.87 222.54 Q2485.06 226.081 2485.06 233.211 Q2485.06 240.317 2486.87 243.882 Q2488.7 247.424 2492.31 247.424 Q2495.94 247.424 2497.75 243.882 Q2499.58 240.317 2499.58 233.211 Q2499.58 226.081 2497.75 222.54 Q2495.94 218.975 2492.31 218.975 M2492.31 215.271 Q2498.12 215.271 2501.17 219.878 Q2504.25 224.461 2504.25 233.211 Q2504.25 241.938 2501.17 246.544 Q2498.12 251.128 2492.31 251.128 Q2486.5 251.128 2483.42 246.544 Q2480.36 241.938 2480.36 233.211 Q2480.36 224.461 2483.42 219.878 Q2486.5 215.271 2492.31 215.271 Z" fill="#000000" fill-rule="nonzero" fill-opacity="1" /><path clip-path="url(#clip730)" d="M2513.28 246.521 L2520.92 246.521 L2520.92 220.156 L2512.61 221.822 L2512.61 217.563 L2520.87 215.896 L2525.55 215.896 L2525.55 246.521 L2533.19 246.521 L2533.19 250.456 L2513.28 250.456 L2513.28 246.521 Z" fill="#000000" fill-rule="nonzero" fill-opacity="1" /><polyline clip-path="url(#clip730)" style="stroke:#e26f46; stroke-linecap:round; stroke-linejoin:round; stroke-width:8; stroke-opacity:1; fill:none" points="2178.63,285.016 2339.64,285.016 "/>
<path clip-path="url(#clip730)" d="M2370.76 300.699 L2370.76 312.157 L2366.47 312.157 L2366.47 276.533 Q2366.47 265.977 2376.34 265.977 Q2386.38 265.977 2386.38 274.889 Q2386.38 281.232 2382.4 283.546 Q2388.88 285.63 2388.88 291.81 Q2388.88 302.782 2377.72 302.782 Q2372.82 302.782 2370.76 300.699 M2370.76 295.144 Q2373.33 299.148 2377.89 299.148 Q2384.55 299.148 2384.55 291.88 Q2384.55 285.352 2373.81 285.861 L2373.81 281.926 Q2382.22 281.926 2382.22 274.519 Q2382.22 269.449 2376.8 269.449 Q2370.76 269.449 2370.76 276.671 L2370.76 295.144 Z" fill="#000000" fill-rule="nonzero" fill-opacity="1" /><path clip-path="url(#clip730)" d="M2397.31 280.769 L2426.98 280.769 L2426.98 284.657 L2397.31 284.657 L2397.31 280.769 M2397.31 290.213 L2426.98 290.213 L2426.98 294.148 L2397.31 294.148 L2397.31 290.213 Z" fill="#000000" fill-rule="nonzero" fill-opacity="1" /><path clip-path="url(#clip730)" d="M2447.08 270.815 Q2443.46 270.815 2441.64 274.38 Q2439.83 277.921 2439.83 285.051 Q2439.83 292.157 2441.64 295.722 Q2443.46 299.264 2447.08 299.264 Q2450.71 299.264 2452.52 295.722 Q2454.34 292.157 2454.34 285.051 Q2454.34 277.921 2452.52 274.38 Q2450.71 270.815 2447.08 270.815 M2447.08 267.111 Q2452.89 267.111 2455.94 271.718 Q2459.02 276.301 2459.02 285.051 Q2459.02 293.778 2455.94 298.384 Q2452.89 302.968 2447.08 302.968 Q2441.27 302.968 2438.19 298.384 Q2435.13 293.778 2435.13 285.051 Q2435.13 276.301 2438.19 271.718 Q2441.27 267.111 2447.08 267.111 Z" fill="#000000" fill-rule="nonzero" fill-opacity="1" /><path clip-path="url(#clip730)" d="M2467.24 296.417 L2472.12 296.417 L2472.12 302.296 L2467.24 302.296 L2467.24 296.417 Z" fill="#000000" fill-rule="nonzero" fill-opacity="1" /><path clip-path="url(#clip730)" d="M2492.31 270.815 Q2488.7 270.815 2486.87 274.38 Q2485.06 277.921 2485.06 285.051 Q2485.06 292.157 2486.87 295.722 Q2488.7 299.264 2492.31 299.264 Q2495.94 299.264 2497.75 295.722 Q2499.58 292.157 2499.58 285.051 Q2499.58 277.921 2497.75 274.38 Q2495.94 270.815 2492.31 270.815 M2492.31 267.111 Q2498.12 267.111 2501.17 271.718 Q2504.25 276.301 2504.25 285.051 Q2504.25 293.778 2501.17 298.384 Q2498.12 302.968 2492.31 302.968 Q2486.5 302.968 2483.42 298.384 Q2480.36 293.778 2480.36 285.051 Q2480.36 276.301 2483.42 271.718 Q2486.5 267.111 2492.31 267.111 Z" fill="#000000" fill-rule="nonzero" fill-opacity="1" /><path clip-path="url(#clip730)" d="M2512.52 267.736 L2530.87 267.736 L2530.87 271.671 L2516.8 271.671 L2516.8 280.144 Q2517.82 279.796 2518.83 279.634 Q2519.85 279.449 2520.87 279.449 Q2526.66 279.449 2530.04 282.62 Q2533.42 285.792 2533.42 291.208 Q2533.42 296.787 2529.95 299.889 Q2526.47 302.968 2520.15 302.968 Q2517.98 302.968 2515.71 302.597 Q2513.46 302.227 2511.06 301.486 L2511.06 296.787 Q2513.14 297.921 2515.36 298.477 Q2517.58 299.032 2520.06 299.032 Q2524.07 299.032 2526.4 296.926 Q2528.74 294.819 2528.74 291.208 Q2528.74 287.597 2526.4 285.491 Q2524.07 283.384 2520.06 283.384 Q2518.19 283.384 2516.31 283.801 Q2514.46 284.218 2512.52 285.097 L2512.52 267.736 Z" fill="#000000" fill-rule="nonzero" fill-opacity="1" /><polyline clip-path="url(#clip730)" style="stroke:#3da44d; stroke-linecap:round; stroke-linejoin:round; stroke-width:8; stroke-opacity:1; fill:none" points="2178.63,336.856 2339.64,336.856 "/>
<path clip-path="url(#clip730)" d="M2370.76 352.539 L2370.76 363.997 L2366.47 363.997 L2366.47 328.373 Q2366.47 317.817 2376.34 317.817 Q2386.38 317.817 2386.38 326.729 Q2386.38 333.072 2382.4 335.386 Q2388.88 337.47 2388.88 343.65 Q2388.88 354.622 2377.72 354.622 Q2372.82 354.622 2370.76 352.539 M2370.76 346.984 Q2373.33 350.988 2377.89 350.988 Q2384.55 350.988 2384.55 343.72 Q2384.55 337.192 2373.81 337.701 L2373.81 333.766 Q2382.22 333.766 2382.22 326.359 Q2382.22 321.289 2376.8 321.289 Q2370.76 321.289 2370.76 328.511 L2370.76 346.984 Z" fill="#000000" fill-rule="nonzero" fill-opacity="1" /><path clip-path="url(#clip730)" d="M2397.31 332.609 L2426.98 332.609 L2426.98 336.497 L2397.31 336.497 L2397.31 332.609 M2397.31 342.053 L2426.98 342.053 L2426.98 345.988 L2397.31 345.988 L2397.31 342.053 Z" fill="#000000" fill-rule="nonzero" fill-opacity="1" /><path clip-path="url(#clip730)" d="M2447.08 322.655 Q2443.46 322.655 2441.64 326.22 Q2439.83 329.761 2439.83 336.891 Q2439.83 343.997 2441.64 347.562 Q2443.46 351.104 2447.08 351.104 Q2450.71 351.104 2452.52 347.562 Q2454.34 343.997 2454.34 336.891 Q2454.34 329.761 2452.52 326.22 Q2450.71 322.655 2447.08 322.655 M2447.08 318.951 Q2452.89 318.951 2455.94 323.558 Q2459.02 328.141 2459.02 336.891 Q2459.02 345.618 2455.94 350.224 Q2452.89 354.808 2447.08 354.808 Q2441.27 354.808 2438.19 350.224 Q2435.13 345.618 2435.13 336.891 Q2435.13 328.141 2438.19 323.558 Q2441.27 318.951 2447.08 318.951 Z" fill="#000000" fill-rule="nonzero" fill-opacity="1" /><path clip-path="url(#clip730)" d="M2467.24 348.257 L2472.12 348.257 L2472.12 354.136 L2467.24 354.136 L2467.24 348.257 Z" fill="#000000" fill-rule="nonzero" fill-opacity="1" /><path clip-path="url(#clip730)" d="M2483.12 350.201 L2490.76 350.201 L2490.76 323.836 L2482.45 325.502 L2482.45 321.243 L2490.71 319.576 L2495.39 319.576 L2495.39 350.201 L2503.02 350.201 L2503.02 354.136 L2483.12 354.136 L2483.12 350.201 Z" fill="#000000" fill-rule="nonzero" fill-opacity="1" /></svg>
