<?xml version="1.0" encoding="utf-8"?>
<svg xmlns="http://www.w3.org/2000/svg" xmlns:xlink="http://www.w3.org/1999/xlink" width="672" height="480" viewBox="0 0 2688 1920">
<defs>
  <clipPath id="clip000">
    <rect x="0" y="0" width="2688" height="1920"/>
  </clipPath>
</defs>
<path clip-path="url(#clip000)" d="M0 1920 L2688 1920 L2688 -4.26326e-14 L0 -4.26326e-14  Z" fill="#ffffff" fill-rule="evenodd" fill-opacity="1"/>
<defs>
  <clipPath id="clip001">
    <rect x="270" y="127" width="2371" height="1607"/>
  </clipPath>
</defs>
<path clip-path="url(#clip000)" d="M270.562 1734.12 L2640.76 1734.12 L2640.76 127.792 L270.562 127.792  Z" fill="#ffffff" fill-rule="evenodd" fill-opacity="1"/>
<polyline clip-path="url(#clip001)" style="stroke:#000000; stroke-linecap:round; stroke-linejoin:round; stroke-width:2; stroke-opacity:0.1; fill:none" points="337.643,1734.12 337.643,127.792 "/>
<polyline clip-path="url(#clip001)" style="stroke:#000000; stroke-linecap:round; stroke-linejoin:round; stroke-width:2; stroke-opacity:0.1; fill:none" points="896.651,1734.12 896.651,127.792 "/>
<polyline clip-path="url(#clip001)" style="stroke:#000000; stroke-linecap:round; stroke-linejoin:round; stroke-width:2; stroke-opacity:0.1; fill:none" points="1455.66,1734.12 1455.66,127.792 "/>
<polyline clip-path="url(#clip001)" style="stroke:#000000; stroke-linecap:round; stroke-linejoin:round; stroke-width:2; stroke-opacity:0.1; fill:none" points="2014.67,1734.12 2014.67,127.792 "/>
<polyline clip-path="url(#clip001)" style="stroke:#000000; stroke-linecap:round; stroke-linejoin:round; stroke-width:2; stroke-opacity:0.1; fill:none" points="2573.67,1734.12 2573.67,127.792 "/>
<polyline clip-path="url(#clip001)" style="stroke:#000000; stroke-linecap:round; stroke-linejoin:round; stroke-width:2; stroke-opacity:0.1; fill:none" points="270.562,1643.43 2640.76,1643.43 "/>
<polyline clip-path="url(#clip001)" style="stroke:#000000; stroke-linecap:round; stroke-linejoin:round; stroke-width:2; stroke-opacity:0.1; fill:none" points="270.562,1216.8 2640.76,1216.8 "/>
<polyline clip-path="url(#clip001)" style="stroke:#000000; stroke-linecap:round; stroke-linejoin:round; stroke-width:2; stroke-opacity:0.1; fill:none" points="270.562,790.166 2640.76,790.166 "/>
<polyline clip-path="url(#clip001)" style="stroke:#000000; stroke-linecap:round; stroke-linejoin:round; stroke-width:2; stroke-opacity:0.1; fill:none" points="270.562,363.533 2640.76,363.533 "/>
<polyline clip-path="url(#clip000)" style="stroke:#000000; stroke-linecap:round; stroke-linejoin:round; stroke-width:4; stroke-opacity:1; fill:none" points="270.562,1734.12 2640.76,1734.12 "/>
<polyline clip-path="url(#clip000)" style="stroke:#000000; stroke-linecap:round; stroke-linejoin:round; stroke-width:4; stroke-opacity:1; fill:none" points="337.643,1734.12 337.643,1715.22 "/>
<polyline clip-path="url(#clip000)" style="stroke:#000000; stroke-linecap:round; stroke-linejoin:round; stroke-width:4; stroke-opacity:1; fill:none" points="896.651,1734.12 896.651,1715.22 "/>
<polyline clip-path="url(#clip000)" style="stroke:#000000; stroke-linecap:round; stroke-linejoin:round; stroke-width:4; stroke-opacity:1; fill:none" points="1455.66,1734.12 1455.66,1715.22 "/>
<polyline clip-path="url(#clip000)" style="stroke:#000000; stroke-linecap:round; stroke-linejoin:round; stroke-width:4; stroke-opacity:1; fill:none" points="2014.67,1734.12 2014.67,1715.22 "/>
<polyline clip-path="url(#clip000)" style="stroke:#000000; stroke-linecap:round; stroke-linejoin:round; stroke-width:4; stroke-opacity:1; fill:none" points="2573.67,1734.12 2573.67,1715.22 "/>
<path clip-path="url(#clip000)" d="M337.643 1767.34 Q334.031 1767.34 332.203 1770.9 Q330.397 1774.45 330.397 1781.58 Q330.397 1788.68 332.203 1792.25 Q334.031 1795.79 337.643 1795.79 Q341.277 1795.79 343.082 1792.25 Q344.911 1788.68 344.911 1781.58 Q344.911 1774.45 343.082 1770.9 Q341.277 1767.34 337.643 1767.34 M337.643 1763.64 Q343.453 1763.64 346.508 1768.24 Q349.587 1772.83 349.587 1781.58 Q349.587 1790.3 346.508 1794.91 Q343.453 1799.49 337.643 1799.49 Q331.832 1799.49 328.754 1794.91 Q325.698 1790.3 325.698 1781.58 Q325.698 1772.83 328.754 1768.24 Q331.832 1763.64 337.643 1763.64 Z" fill="#000000" fill-rule="nonzero" fill-opacity="1" /><path clip-path="url(#clip000)" d="M871.338 1794.89 L878.977 1794.89 L878.977 1768.52 L870.667 1770.19 L870.667 1765.93 L878.931 1764.26 L883.607 1764.26 L883.607 1794.89 L891.246 1794.89 L891.246 1798.82 L871.338 1798.82 L871.338 1794.89 Z" fill="#000000" fill-rule="nonzero" fill-opacity="1" /><path clip-path="url(#clip000)" d="M910.69 1767.34 Q907.079 1767.34 905.25 1770.9 Q903.445 1774.45 903.445 1781.58 Q903.445 1788.68 905.25 1792.25 Q907.079 1795.79 910.69 1795.79 Q914.324 1795.79 916.13 1792.25 Q917.958 1788.68 917.958 1781.58 Q917.958 1774.45 916.13 1770.9 Q914.324 1767.34 910.69 1767.34 M910.69 1763.64 Q916.5 1763.64 919.556 1768.24 Q922.634 1772.83 922.634 1781.58 Q922.634 1790.3 919.556 1794.91 Q916.5 1799.49 910.69 1799.49 Q904.88 1799.49 901.801 1794.91 Q898.746 1790.3 898.746 1781.58 Q898.746 1772.83 901.801 1768.24 Q904.88 1763.64 910.69 1763.64 Z" fill="#000000" fill-rule="nonzero" fill-opacity="1" /><path clip-path="url(#clip000)" d="M1434.43 1794.89 L1450.75 1794.89 L1450.75 1798.82 L1428.81 1798.82 L1428.81 1794.89 Q1431.47 1792.13 1436.05 1787.5 Q1440.66 1782.85 1441.84 1781.51 Q1444.08 1778.98 1444.96 1777.25 Q1445.87 1775.49 1445.87 1773.8 Q1445.87 1771.04 1443.92 1769.31 Q1442 1767.57 1438.9 1767.57 Q1436.7 1767.57 1434.25 1768.34 Q1431.82 1769.1 1429.04 1770.65 L1429.04 1765.93 Q1431.86 1764.79 1434.32 1764.21 Q1436.77 1763.64 1438.81 1763.64 Q1444.18 1763.64 1447.37 1766.32 Q1450.57 1769.01 1450.57 1773.5 Q1450.57 1775.63 1449.76 1777.55 Q1448.97 1779.45 1446.86 1782.04 Q1446.28 1782.71 1443.18 1785.93 Q1440.08 1789.12 1434.43 1794.89 Z" fill="#000000" fill-rule="nonzero" fill-opacity="1" /><path clip-path="url(#clip000)" d="M1470.57 1767.34 Q1466.95 1767.34 1465.13 1770.9 Q1463.32 1774.45 1463.32 1781.58 Q1463.32 1788.68 1465.13 1792.25 Q1466.95 1795.79 1470.57 1795.79 Q1474.2 1795.79 1476.01 1792.25 Q1477.83 1788.68 1477.83 1781.58 Q1477.83 1774.45 1476.01 1770.9 Q1474.2 1767.34 1470.57 1767.34 M1470.57 1763.64 Q1476.38 1763.64 1479.43 1768.24 Q1482.51 1772.83 1482.51 1781.58 Q1482.51 1790.3 1479.43 1794.91 Q1476.38 1799.49 1470.57 1799.49 Q1464.76 1799.49 1461.68 1794.91 Q1458.62 1790.3 1458.62 1781.58 Q1458.62 1772.83 1461.68 1768.24 Q1464.76 1763.64 1470.57 1763.64 Z" fill="#000000" fill-rule="nonzero" fill-opacity="1" /><path clip-path="url(#clip000)" d="M2003.51 1780.19 Q2006.87 1780.9 2008.74 1783.17 Q2010.64 1785.44 2010.64 1788.77 Q2010.64 1793.89 2007.12 1796.69 Q2003.6 1799.49 1997.12 1799.49 Q1994.94 1799.49 1992.63 1799.05 Q1990.34 1798.64 1987.88 1797.78 L1987.88 1793.27 Q1989.83 1794.4 1992.14 1794.98 Q1994.46 1795.56 1996.98 1795.56 Q2001.38 1795.56 2003.67 1793.82 Q2005.99 1792.08 2005.99 1788.77 Q2005.99 1785.72 2003.83 1784.01 Q2001.7 1782.27 1997.88 1782.27 L1993.86 1782.27 L1993.86 1778.43 L1998.07 1778.43 Q2001.52 1778.43 2003.35 1777.06 Q2005.18 1775.67 2005.18 1773.08 Q2005.18 1770.42 2003.28 1769.01 Q2001.4 1767.57 1997.88 1767.57 Q1995.96 1767.57 1993.76 1767.99 Q1991.57 1768.4 1988.93 1769.28 L1988.93 1765.12 Q1991.59 1764.38 1993.9 1764.01 Q1996.24 1763.64 1998.3 1763.64 Q2003.63 1763.64 2006.73 1766.07 Q2009.83 1768.47 2009.83 1772.59 Q2009.83 1775.46 2008.19 1777.46 Q2006.54 1779.42 2003.51 1780.19 Z" fill="#000000" fill-rule="nonzero" fill-opacity="1" /><path clip-path="url(#clip000)" d="M2029.5 1767.34 Q2025.89 1767.34 2024.06 1770.9 Q2022.26 1774.45 2022.26 1781.58 Q2022.26 1788.68 2024.06 1792.25 Q2025.89 1795.79 2029.5 1795.79 Q2033.14 1795.79 2034.94 1792.25 Q2036.77 1788.68 2036.77 1781.58 Q2036.77 1774.45 2034.94 1770.9 Q2033.14 1767.34 2029.5 1767.34 M2029.5 1763.64 Q2035.31 1763.64 2038.37 1768.24 Q2041.45 1772.83 2041.45 1781.58 Q2041.45 1790.3 2038.37 1794.91 Q2035.31 1799.49 2029.5 1799.49 Q2023.69 1799.49 2020.62 1794.91 Q2017.56 1790.3 2017.56 1781.58 Q2017.56 1772.83 2020.62 1768.24 Q2023.69 1763.64 2029.5 1763.64 Z" fill="#000000" fill-rule="nonzero" fill-opacity="1" /><path clip-path="url(#clip000)" d="M2561.85 1768.34 L2550.04 1786.78 L2561.85 1786.78 L2561.85 1768.34 M2560.62 1764.26 L2566.5 1764.26 L2566.5 1786.78 L2571.43 1786.78 L2571.43 1790.67 L2566.5 1790.67 L2566.5 1798.82 L2561.85 1798.82 L2561.85 1790.67 L2546.24 1790.67 L2546.24 1786.16 L2560.62 1764.26 Z" fill="#000000" fill-rule="nonzero" fill-opacity="1" /><path clip-path="url(#clip000)" d="M2589.16 1767.34 Q2585.55 1767.34 2583.72 1770.9 Q2581.92 1774.45 2581.92 1781.58 Q2581.92 1788.68 2583.72 1792.25 Q2585.55 1795.79 2589.16 1795.79 Q2592.8 1795.79 2594.6 1792.25 Q2596.43 1788.68 2596.43 1781.58 Q2596.43 1774.45 2594.6 1770.9 Q2592.8 1767.34 2589.16 1767.34 M2589.16 1763.64 Q2594.97 1763.64 2598.03 1768.24 Q2601.11 1772.83 2601.11 1781.58 Q2601.11 1790.3 2598.03 1794.91 Q2594.97 1799.49 2589.16 1799.49 Q2583.35 1799.49 2580.27 1794.91 Q2577.22 1790.3 2577.22 1781.58 Q2577.22 1772.83 2580.27 1768.24 Q2583.35 1763.64 2589.16 1763.64 Z" fill="#000000" fill-rule="nonzero" fill-opacity="1" /><path clip-path="url(#clip000)" d="M1401.9 1841.06 L1401.9 1878.02 L1409.67 1878.02 Q1419.5 1878.02 1424.05 1873.56 Q1428.64 1869.11 1428.64 1859.49 Q1428.64 1849.94 1424.05 1845.52 Q1419.5 1841.06 1409.67 1841.06 L1401.9 1841.06 M1395.47 1835.78 L1408.68 1835.78 Q1422.49 1835.78 1428.95 1841.54 Q1435.42 1847.27 1435.42 1859.49 Q1435.42 1871.78 1428.92 1877.54 Q1422.43 1883.3 1408.68 1883.3 L1395.47 1883.3 L1395.47 1835.78 Z" fill="#000000" fill-rule="nonzero" fill-opacity="1" /><path clip-path="url(#clip000)" d="M1461.61 1865.38 Q1454.51 1865.38 1451.78 1867 Q1449.04 1868.63 1449.04 1872.54 Q1449.04 1875.66 1451.08 1877.51 Q1453.14 1879.32 1456.68 1879.32 Q1461.55 1879.32 1464.48 1875.88 Q1467.44 1872.42 1467.44 1866.69 L1467.44 1865.38 L1461.61 1865.38 M1473.29 1862.96 L1473.29 1883.3 L1467.44 1883.3 L1467.44 1877.89 Q1465.43 1881.14 1462.44 1882.7 Q1459.45 1884.22 1455.12 1884.22 Q1449.64 1884.22 1446.4 1881.17 Q1443.18 1878.08 1443.18 1872.92 Q1443.18 1866.91 1447.19 1863.85 Q1451.23 1860.8 1459.22 1860.8 L1467.44 1860.8 L1467.44 1860.23 Q1467.44 1856.18 1464.76 1853.99 Q1462.12 1851.76 1457.31 1851.76 Q1454.26 1851.76 1451.36 1852.49 Q1448.47 1853.22 1445.79 1854.69 L1445.79 1849.28 Q1449.01 1848.03 1452.03 1847.43 Q1455.05 1846.79 1457.92 1846.79 Q1465.65 1846.79 1469.47 1850.8 Q1473.29 1854.81 1473.29 1862.96 Z" fill="#000000" fill-rule="nonzero" fill-opacity="1" /><path clip-path="url(#clip000)" d="M1500.19 1886.61 Q1497.7 1892.98 1495.35 1894.92 Q1492.99 1896.86 1489.05 1896.86 L1484.37 1896.86 L1484.37 1891.96 L1487.81 1891.96 Q1490.22 1891.96 1491.56 1890.81 Q1492.9 1889.67 1494.52 1885.4 L1495.57 1882.73 L1481.15 1847.65 L1487.36 1847.65 L1498.5 1875.53 L1509.64 1847.65 L1515.85 1847.65 L1500.19 1886.61 Z" fill="#000000" fill-rule="nonzero" fill-opacity="1" /><polyline clip-path="url(#clip000)" style="stroke:#000000; stroke-linecap:round; stroke-linejoin:round; stroke-width:4; stroke-opacity:1; fill:none" points="270.562,1734.12 270.562,127.792 "/>
<polyline clip-path="url(#clip000)" style="stroke:#000000; stroke-linecap:round; stroke-linejoin:round; stroke-width:4; stroke-opacity:1; fill:none" points="270.562,1643.43 289.459,1643.43 "/>
<polyline clip-path="url(#clip000)" style="stroke:#000000; stroke-linecap:round; stroke-linejoin:round; stroke-width:4; stroke-opacity:1; fill:none" points="270.562,1216.8 289.459,1216.8 "/>
<polyline clip-path="url(#clip000)" style="stroke:#000000; stroke-linecap:round; stroke-linejoin:round; stroke-width:4; stroke-opacity:1; fill:none" points="270.562,790.166 289.459,790.166 "/>
<polyline clip-path="url(#clip000)" style="stroke:#000000; stroke-linecap:round; stroke-linejoin:round; stroke-width:4; stroke-opacity:1; fill:none" points="270.562,363.533 289.459,363.533 "/>
<path clip-path="url(#clip000)" d="M148.02 1626.15 L166.376 1626.15 L166.376 1630.09 L152.302 1630.09 L152.302 1638.56 Q153.321 1638.21 154.339 1638.05 Q155.358 1637.86 156.376 1637.86 Q162.163 1637.86 165.543 1641.04 Q168.922 1644.21 168.922 1649.62 Q168.922 1655.2 165.45 1658.3 Q161.978 1661.38 155.659 1661.38 Q153.483 1661.38 151.214 1661.01 Q148.969 1660.64 146.562 1659.9 L146.562 1655.2 Q148.645 1656.34 150.867 1656.89 Q153.089 1657.45 155.566 1657.45 Q159.571 1657.45 161.909 1655.34 Q164.247 1653.24 164.247 1649.62 Q164.247 1646.01 161.909 1643.91 Q159.571 1641.8 155.566 1641.8 Q153.691 1641.8 151.816 1642.22 Q149.964 1642.63 148.02 1643.51 L148.02 1626.15 Z" fill="#000000" fill-rule="nonzero" fill-opacity="1" /><path clip-path="url(#clip000)" d="M188.135 1629.23 Q184.524 1629.23 182.696 1632.8 Q180.89 1636.34 180.89 1643.47 Q180.89 1650.57 182.696 1654.14 Q184.524 1657.68 188.135 1657.68 Q191.77 1657.68 193.575 1654.14 Q195.404 1650.57 195.404 1643.47 Q195.404 1636.34 193.575 1632.8 Q191.77 1629.23 188.135 1629.23 M188.135 1625.53 Q193.946 1625.53 197.001 1630.13 Q200.08 1634.72 200.08 1643.47 Q200.08 1652.19 197.001 1656.8 Q193.946 1661.38 188.135 1661.38 Q182.325 1661.38 179.247 1656.8 Q176.191 1652.19 176.191 1643.47 Q176.191 1634.72 179.247 1630.13 Q182.325 1625.53 188.135 1625.53 Z" fill="#000000" fill-rule="nonzero" fill-opacity="1" /><path clip-path="url(#clip000)" d="M218.297 1629.23 Q214.686 1629.23 212.857 1632.8 Q211.052 1636.34 211.052 1643.47 Q211.052 1650.57 212.857 1654.14 Q214.686 1657.68 218.297 1657.68 Q221.931 1657.68 223.737 1654.14 Q225.566 1650.57 225.566 1643.47 Q225.566 1636.34 223.737 1632.8 Q221.931 1629.23 218.297 1629.23 M218.297 1625.53 Q224.107 1625.53 227.163 1630.13 Q230.242 1634.72 230.242 1643.47 Q230.242 1652.19 227.163 1656.8 Q224.107 1661.38 218.297 1661.38 Q212.487 1661.38 209.408 1656.8 Q206.353 1652.19 206.353 1643.47 Q206.353 1634.72 209.408 1630.13 Q212.487 1625.53 218.297 1625.53 Z" fill="#000000" fill-rule="nonzero" fill-opacity="1" /><path clip-path="url(#clip000)" d="M118.622 1230.14 L126.261 1230.14 L126.261 1203.78 L117.951 1205.44 L117.951 1201.19 L126.214 1199.52 L130.89 1199.52 L130.89 1230.14 L138.529 1230.14 L138.529 1234.08 L118.622 1234.08 L118.622 1230.14 Z" fill="#000000" fill-rule="nonzero" fill-opacity="1" /><path clip-path="url(#clip000)" d="M157.973 1202.6 Q154.362 1202.6 152.534 1206.16 Q150.728 1209.7 150.728 1216.83 Q150.728 1223.94 152.534 1227.5 Q154.362 1231.05 157.973 1231.05 Q161.608 1231.05 163.413 1227.5 Q165.242 1223.94 165.242 1216.83 Q165.242 1209.7 163.413 1206.16 Q161.608 1202.6 157.973 1202.6 M157.973 1198.89 Q163.784 1198.89 166.839 1203.5 Q169.918 1208.08 169.918 1216.83 Q169.918 1225.56 166.839 1230.17 Q163.784 1234.75 157.973 1234.75 Q152.163 1234.75 149.085 1230.17 Q146.029 1225.56 146.029 1216.83 Q146.029 1208.08 149.085 1203.5 Q152.163 1198.89 157.973 1198.89 Z" fill="#000000" fill-rule="nonzero" fill-opacity="1" /><path clip-path="url(#clip000)" d="M188.135 1202.6 Q184.524 1202.6 182.696 1206.16 Q180.89 1209.7 180.89 1216.83 Q180.89 1223.94 182.696 1227.5 Q184.524 1231.05 188.135 1231.05 Q191.77 1231.05 193.575 1227.5 Q195.404 1223.94 195.404 1216.83 Q195.404 1209.7 193.575 1206.16 Q191.77 1202.6 188.135 1202.6 M188.135 1198.89 Q193.946 1198.89 197.001 1203.5 Q200.08 1208.08 200.08 1216.83 Q200.08 1225.56 197.001 1230.17 Q193.946 1234.75 188.135 1234.75 Q182.325 1234.75 179.247 1230.17 Q176.191 1225.56 176.191 1216.83 Q176.191 1208.08 179.247 1203.5 Q182.325 1198.89 188.135 1198.89 Z" fill="#000000" fill-rule="nonzero" fill-opacity="1" /><path clip-path="url(#clip000)" d="M218.297 1202.6 Q214.686 1202.6 212.857 1206.16 Q211.052 1209.7 211.052 1216.83 Q211.052 1223.94 212.857 1227.5 Q214.686 1231.05 218.297 1231.05 Q221.931 1231.05 223.737 1227.5 Q225.566 1223.94 225.566 1216.83 Q225.566 1209.7 223.737 1206.16 Q221.931 1202.6 218.297 1202.6 M218.297 1198.89 Q224.107 1198.89 227.163 1203.5 Q230.242 1208.08 230.242 1216.83 Q230.242 1225.56 227.163 1230.17 Q224.107 1234.75 218.297 1234.75 Q212.487 1234.75 209.408 1230.17 Q206.353 1225.56 206.353 1216.83 Q206.353 1208.08 209.408 1203.5 Q212.487 1198.89 218.297 1198.89 Z" fill="#000000" fill-rule="nonzero" fill-opacity="1" /><path clip-path="url(#clip000)" d="M118.622 803.51 L126.261 803.51 L126.261 777.145 L117.951 778.812 L117.951 774.552 L126.214 772.886 L130.89 772.886 L130.89 803.51 L138.529 803.51 L138.529 807.446 L118.622 807.446 L118.622 803.51 Z" fill="#000000" fill-rule="nonzero" fill-opacity="1" /><path clip-path="url(#clip000)" d="M148.02 772.886 L166.376 772.886 L166.376 776.821 L152.302 776.821 L152.302 785.293 Q153.321 784.946 154.339 784.784 Q155.358 784.599 156.376 784.599 Q162.163 784.599 165.543 787.77 Q168.922 790.941 168.922 796.358 Q168.922 801.936 165.45 805.038 Q161.978 808.117 155.659 808.117 Q153.483 808.117 151.214 807.747 Q148.969 807.376 146.562 806.635 L146.562 801.936 Q148.645 803.071 150.867 803.626 Q153.089 804.182 155.566 804.182 Q159.571 804.182 161.909 802.075 Q164.247 799.969 164.247 796.358 Q164.247 792.747 161.909 790.64 Q159.571 788.534 155.566 788.534 Q153.691 788.534 151.816 788.95 Q149.964 789.367 148.02 790.247 L148.02 772.886 Z" fill="#000000" fill-rule="nonzero" fill-opacity="1" /><path clip-path="url(#clip000)" d="M188.135 775.964 Q184.524 775.964 182.696 779.529 Q180.89 783.071 180.89 790.2 Q180.89 797.307 182.696 800.872 Q184.524 804.413 188.135 804.413 Q191.77 804.413 193.575 800.872 Q195.404 797.307 195.404 790.2 Q195.404 783.071 193.575 779.529 Q191.77 775.964 188.135 775.964 M188.135 772.261 Q193.946 772.261 197.001 776.867 Q200.08 781.45 200.08 790.2 Q200.08 798.927 197.001 803.534 Q193.946 808.117 188.135 808.117 Q182.325 808.117 179.247 803.534 Q176.191 798.927 176.191 790.2 Q176.191 781.45 179.247 776.867 Q182.325 772.261 188.135 772.261 Z" fill="#000000" fill-rule="nonzero" fill-opacity="1" /><path clip-path="url(#clip000)" d="M218.297 775.964 Q214.686 775.964 212.857 779.529 Q211.052 783.071 211.052 790.2 Q211.052 797.307 212.857 800.872 Q214.686 804.413 218.297 804.413 Q221.931 804.413 223.737 800.872 Q225.566 797.307 225.566 790.2 Q225.566 783.071 223.737 779.529 Q221.931 775.964 218.297 775.964 M218.297 772.261 Q224.107 772.261 227.163 776.867 Q230.242 781.45 230.242 790.2 Q230.242 798.927 227.163 803.534 Q224.107 808.117 218.297 808.117 Q212.487 808.117 209.408 803.534 Q206.353 798.927 206.353 790.2 Q206.353 781.45 209.408 776.867 Q212.487 772.261 218.297 772.261 Z" fill="#000000" fill-rule="nonzero" fill-opacity="1" /><path clip-path="url(#clip000)" d="M121.839 376.877 L138.159 376.877 L138.159 380.813 L116.214 380.813 L116.214 376.877 Q118.876 374.123 123.46 369.493 Q128.066 364.84 129.247 363.498 Q131.492 360.975 132.372 359.239 Q133.275 357.479 133.275 355.79 Q133.275 353.035 131.33 351.299 Q129.409 349.563 126.307 349.563 Q124.108 349.563 121.654 350.327 Q119.224 351.09 116.446 352.641 L116.446 347.919 Q119.27 346.785 121.724 346.206 Q124.177 345.628 126.214 345.628 Q131.585 345.628 134.779 348.313 Q137.974 350.998 137.974 355.489 Q137.974 357.618 137.163 359.539 Q136.376 361.438 134.27 364.03 Q133.691 364.701 130.589 367.919 Q127.488 371.113 121.839 376.877 Z" fill="#000000" fill-rule="nonzero" fill-opacity="1" /><path clip-path="url(#clip000)" d="M157.973 349.331 Q154.362 349.331 152.534 352.896 Q150.728 356.438 150.728 363.567 Q150.728 370.674 152.534 374.238 Q154.362 377.78 157.973 377.78 Q161.608 377.78 163.413 374.238 Q165.242 370.674 165.242 363.567 Q165.242 356.438 163.413 352.896 Q161.608 349.331 157.973 349.331 M157.973 345.628 Q163.784 345.628 166.839 350.234 Q169.918 354.817 169.918 363.567 Q169.918 372.294 166.839 376.901 Q163.784 381.484 157.973 381.484 Q152.163 381.484 149.085 376.901 Q146.029 372.294 146.029 363.567 Q146.029 354.817 149.085 350.234 Q152.163 345.628 157.973 345.628 Z" fill="#000000" fill-rule="nonzero" fill-opacity="1" /><path clip-path="url(#clip000)" d="M188.135 349.331 Q184.524 349.331 182.696 352.896 Q180.89 356.438 180.89 363.567 Q180.89 370.674 182.696 374.238 Q184.524 377.78 188.135 377.78 Q191.77 377.78 193.575 374.238 Q195.404 370.674 195.404 363.567 Q195.404 356.438 193.575 352.896 Q191.77 349.331 188.135 349.331 M188.135 345.628 Q193.946 345.628 197.001 350.234 Q200.08 354.817 200.08 363.567 Q200.08 372.294 197.001 376.901 Q193.946 381.484 188.135 381.484 Q182.325 381.484 179.247 376.901 Q176.191 372.294 176.191 363.567 Q176.191 354.817 179.247 350.234 Q182.325 345.628 188.135 345.628 Z" fill="#000000" fill-rule="nonzero" fill-opacity="1" /><path clip-path="url(#clip000)" d="M218.297 349.331 Q214.686 349.331 212.857 352.896 Q211.052 356.438 211.052 363.567 Q211.052 370.674 212.857 374.238 Q214.686 377.78 218.297 377.78 Q221.931 377.78 223.737 374.238 Q225.566 370.674 225.566 363.567 Q225.566 356.438 223.737 352.896 Q221.931 349.331 218.297 349.331 M218.297 345.628 Q224.107 345.628 227.163 350.234 Q230.242 354.817 230.242 363.567 Q230.242 372.294 227.163 376.901 Q224.107 381.484 218.297 381.484 Q212.487 381.484 209.408 376.901 Q206.353 372.294 206.353 363.567 Q206.353 354.817 209.408 350.234 Q212.487 345.628 218.297 345.628 Z" fill="#000000" fill-rule="nonzero" fill-opacity="1" /><path clip-path="url(#clip000)" d="M19.402 1164.39 L37.2578 1164.39 L37.2578 1156.3 Q37.2578 1151.81 34.9343 1149.36 Q32.6108 1146.91 28.314 1146.91 Q24.0489 1146.91 21.7255 1149.36 Q19.402 1151.81 19.402 1156.3 L19.402 1164.39 M14.1184 1170.81 L14.1184 1156.3 Q14.1184 1148.31 17.7469 1144.24 Q21.3435 1140.13 28.314 1140.13 Q35.3481 1140.13 38.9447 1144.24 Q42.5413 1148.31 42.5413 1156.3 L42.5413 1164.39 L61.6384 1164.39 L61.6384 1170.81 L14.1184 1170.81 Z" fill="#000000" fill-rule="nonzero" fill-opacity="1" /><path clip-path="url(#clip000)" d="M30.0964 1120.27 Q30.0964 1124.98 33.7885 1127.72 Q37.4488 1130.46 43.8463 1130.46 Q50.2438 1130.46 53.9359 1127.75 Q57.5962 1125.01 57.5962 1120.27 Q57.5962 1115.59 53.9041 1112.85 Q50.212 1110.12 43.8463 1110.12 Q37.5124 1110.12 33.8203 1112.85 Q30.0964 1115.59 30.0964 1120.27 M25.1311 1120.27 Q25.1311 1112.63 30.0964 1108.27 Q35.0616 1103.91 43.8463 1103.91 Q52.5991 1103.91 57.5962 1108.27 Q62.5615 1112.63 62.5615 1120.27 Q62.5615 1127.94 57.5962 1132.3 Q52.5991 1136.63 43.8463 1136.63 Q35.0616 1136.63 30.0964 1132.3 Q25.1311 1127.94 25.1311 1120.27 Z" fill="#000000" fill-rule="nonzero" fill-opacity="1" /><path clip-path="url(#clip000)" d="M56.2912 1088.54 L75.1974 1088.54 L75.1974 1094.43 L25.9905 1094.43 L25.9905 1088.54 L31.4013 1088.54 Q28.2185 1086.69 26.6907 1083.89 Q25.1311 1081.06 25.1311 1077.14 Q25.1311 1070.65 30.2873 1066.61 Q35.4436 1062.53 43.8463 1062.53 Q52.249 1062.53 57.4052 1066.61 Q62.5615 1070.65 62.5615 1077.14 Q62.5615 1081.06 61.0337 1083.89 Q59.4741 1086.69 56.2912 1088.54 M43.8463 1068.61 Q37.3851 1068.61 33.7248 1071.29 Q30.0327 1073.93 30.0327 1078.58 Q30.0327 1083.22 33.7248 1085.9 Q37.3851 1088.54 43.8463 1088.54 Q50.3075 1088.54 53.9996 1085.9 Q57.6599 1083.22 57.6599 1078.58 Q57.6599 1073.93 53.9996 1071.29 Q50.3075 1068.61 43.8463 1068.61 Z" fill="#000000" fill-rule="nonzero" fill-opacity="1" /><path clip-path="url(#clip000)" d="M47.5702 1053.43 L25.9905 1053.43 L25.9905 1047.57 L47.3474 1047.57 Q52.4082 1047.57 54.9545 1045.6 Q57.4689 1043.63 57.4689 1039.68 Q57.4689 1034.94 54.4452 1032.2 Q51.4215 1029.43 46.2016 1029.43 L25.9905 1029.43 L25.9905 1023.58 L61.6384 1023.58 L61.6384 1029.43 L56.1639 1029.43 Q59.4104 1031.56 61.0019 1034.4 Q62.5615 1037.2 62.5615 1040.92 Q62.5615 1047.07 58.742 1050.25 Q54.9226 1053.43 47.5702 1053.43 M25.1311 1038.69 L25.1311 1038.69 Z" fill="#000000" fill-rule="nonzero" fill-opacity="1" /><path clip-path="url(#clip000)" d="M12.1132 1011.51 L12.1132 1005.66 L61.6384 1005.66 L61.6384 1011.51 L12.1132 1011.51 Z" fill="#000000" fill-rule="nonzero" fill-opacity="1" /><path clip-path="url(#clip000)" d="M43.719 977.201 Q43.719 984.299 45.3422 987.036 Q46.9655 989.774 50.8804 989.774 Q53.9996 989.774 55.8457 987.737 Q57.6599 985.668 57.6599 982.135 Q57.6599 977.265 54.2224 974.337 Q50.7531 971.377 45.0239 971.377 L43.719 971.377 L43.719 977.201 M41.3 965.52 L61.6384 965.52 L61.6384 971.377 L56.2276 971.377 Q59.4741 973.382 61.0337 976.374 Q62.5615 979.366 62.5615 983.694 Q62.5615 989.169 59.5059 992.415 Q56.4186 995.63 51.2623 995.63 Q45.2467 995.63 42.1912 991.62 Q39.1357 987.578 39.1357 979.589 L39.1357 971.377 L38.5628 971.377 Q34.5205 971.377 32.3244 974.05 Q30.0964 976.692 30.0964 981.498 Q30.0964 984.554 30.8284 987.45 Q31.5605 990.347 33.0246 993.02 L27.6137 993.02 Q26.3724 989.806 25.7677 986.782 Q25.1311 983.758 25.1311 980.894 Q25.1311 973.159 29.1415 969.34 Q33.1519 965.52 41.3 965.52 Z" fill="#000000" fill-rule="nonzero" fill-opacity="1" /><path clip-path="url(#clip000)" d="M15.869 947.665 L25.9905 947.665 L25.9905 935.602 L30.542 935.602 L30.542 947.665 L49.8937 947.665 Q54.2542 947.665 55.4955 946.487 Q56.7368 945.277 56.7368 941.617 L56.7368 935.602 L61.6384 935.602 L61.6384 941.617 Q61.6384 948.397 59.124 950.975 Q56.5777 953.553 49.8937 953.553 L30.542 953.553 L30.542 957.85 L25.9905 957.85 L25.9905 953.553 L15.869 953.553 L15.869 947.665 Z" fill="#000000" fill-rule="nonzero" fill-opacity="1" /><path clip-path="url(#clip000)" d="M25.9905 927.899 L25.9905 922.043 L61.6384 922.043 L61.6384 927.899 L25.9905 927.899 M12.1132 927.899 L12.1132 922.043 L19.5293 922.043 L19.5293 927.899 L12.1132 927.899 Z" fill="#000000" fill-rule="nonzero" fill-opacity="1" /><path clip-path="url(#clip000)" d="M30.0964 895.975 Q30.0964 900.686 33.7885 903.423 Q37.4488 906.16 43.8463 906.16 Q50.2438 906.16 53.9359 903.455 Q57.5962 900.717 57.5962 895.975 Q57.5962 891.296 53.9041 888.559 Q50.212 885.822 43.8463 885.822 Q37.5124 885.822 33.8203 888.559 Q30.0964 891.296 30.0964 895.975 M25.1311 895.975 Q25.1311 888.336 30.0964 883.976 Q35.0616 879.615 43.8463 879.615 Q52.5991 879.615 57.5962 883.976 Q62.5615 888.336 62.5615 895.975 Q62.5615 903.646 57.5962 908.006 Q52.5991 912.335 43.8463 912.335 Q35.0616 912.335 30.0964 908.006 Q25.1311 903.646 25.1311 895.975 Z" fill="#000000" fill-rule="nonzero" fill-opacity="1" /><path clip-path="url(#clip000)" d="M40.1224 840.275 L61.6384 840.275 L61.6384 846.132 L40.3133 846.132 Q35.2526 846.132 32.7381 848.105 Q30.2237 850.078 30.2237 854.025 Q30.2237 858.767 33.2474 861.505 Q36.2711 864.242 41.491 864.242 L61.6384 864.242 L61.6384 870.13 L25.9905 870.13 L25.9905 864.242 L31.5287 864.242 Q28.314 862.141 26.7225 859.309 Q25.1311 856.444 25.1311 852.72 Q25.1311 846.577 28.9505 843.426 Q32.7381 840.275 40.1224 840.275 Z" fill="#000000" fill-rule="nonzero" fill-opacity="1" /><path clip-path="url(#clip000)" d="M27.0408 785.148 L32.579 785.148 Q31.3059 787.631 30.6693 790.304 Q30.0327 792.978 30.0327 795.842 Q30.0327 800.203 31.3695 802.399 Q32.7063 804.563 35.3799 804.563 Q37.4169 804.563 38.5946 803.004 Q39.7404 801.444 40.7908 796.734 L41.2364 794.728 Q42.5732 788.49 45.0239 785.88 Q47.4429 783.238 51.8034 783.238 Q56.7687 783.238 59.6651 787.185 Q62.5615 791.1 62.5615 797.975 Q62.5615 800.84 61.9886 803.959 Q61.4475 807.046 60.3335 810.484 L54.2861 810.484 Q55.973 807.237 56.8323 804.086 Q57.6599 800.935 57.6599 797.848 Q57.6599 793.71 56.2594 791.482 Q54.8271 789.254 52.249 789.254 Q49.8619 789.254 48.5887 790.877 Q47.3156 792.469 46.1379 797.911 L45.6605 799.948 Q44.5147 805.391 42.1594 807.81 Q39.7722 810.229 35.6345 810.229 Q30.6056 810.229 27.8684 806.664 Q25.1311 803.099 25.1311 796.543 Q25.1311 793.296 25.6085 790.432 Q26.086 787.567 27.0408 785.148 Z" fill="#000000" fill-rule="nonzero" fill-opacity="1" /><path clip-path="url(#clip000)" d="M25.9905 773.913 L25.9905 768.056 L61.6384 768.056 L61.6384 773.913 L25.9905 773.913 M12.1132 773.913 L12.1132 768.056 L19.5293 768.056 L19.5293 773.913 L12.1132 773.913 Z" fill="#000000" fill-rule="nonzero" fill-opacity="1" /><path clip-path="url(#clip000)" d="M25.9905 758.348 L25.9905 730.53 L31.3377 730.53 L56.9596 752.556 L56.9596 730.53 L61.6384 730.53 L61.6384 759.144 L56.2912 759.144 L30.6693 737.119 L30.6693 758.348 L25.9905 758.348 Z" fill="#000000" fill-rule="nonzero" fill-opacity="1" /><path clip-path="url(#clip000)" d="M42.3504 691.095 L45.2149 691.095 L45.2149 718.022 Q51.2623 717.64 54.4452 714.393 Q57.5962 711.115 57.5962 705.29 Q57.5962 701.916 56.7687 698.765 Q55.9411 695.583 54.2861 692.463 L59.8242 692.463 Q61.161 695.614 61.8612 698.925 Q62.5615 702.235 62.5615 705.64 Q62.5615 714.17 57.5962 719.167 Q52.631 724.133 44.1646 724.133 Q35.4117 724.133 30.2873 719.422 Q25.1311 714.68 25.1311 706.659 Q25.1311 699.466 29.7781 695.296 Q34.3932 691.095 42.3504 691.095 M40.6316 696.951 Q35.8255 697.015 32.9609 699.657 Q30.0964 702.267 30.0964 706.595 Q30.0964 711.497 32.8654 714.457 Q35.6345 717.385 40.6634 717.831 L40.6316 696.951 Z" fill="#000000" fill-rule="nonzero" fill-opacity="1" /><path clip-path="url(#clip000)" d="M861.189 18.8205 L861.189 41.5461 L871.478 41.5461 Q877.19 41.5461 880.309 38.5889 Q883.428 35.6318 883.428 30.163 Q883.428 24.7348 880.309 21.7777 Q877.19 18.8205 871.478 18.8205 L861.189 18.8205 M853.006 12.096 L871.478 12.096 Q881.646 12.096 886.831 16.714 Q892.056 21.2916 892.056 30.163 Q892.056 39.1155 886.831 43.6931 Q881.646 48.2706 871.478 48.2706 L861.189 48.2706 L861.189 72.576 L853.006 72.576 L853.006 12.096 Z" fill="#000000" fill-rule="nonzero" fill-opacity="1" /><path clip-path="url(#clip000)" d="M917.334 32.4315 Q911.339 32.4315 907.855 37.1306 Q904.371 41.7891 904.371 49.9314 Q904.371 58.0738 907.814 62.7728 Q911.298 67.4314 917.334 67.4314 Q923.289 67.4314 926.773 62.7323 Q930.256 58.0333 930.256 49.9314 Q930.256 41.8701 926.773 37.1711 Q923.289 32.4315 917.334 32.4315 M917.334 26.1121 Q927.056 26.1121 932.606 32.4315 Q938.156 38.7509 938.156 49.9314 Q938.156 61.0714 932.606 67.4314 Q927.056 73.7508 917.334 73.7508 Q907.571 73.7508 902.022 67.4314 Q896.512 61.0714 896.512 49.9314 Q896.512 38.7509 902.022 32.4315 Q907.571 26.1121 917.334 26.1121 Z" fill="#000000" fill-rule="nonzero" fill-opacity="1" /><path clip-path="url(#clip000)" d="M957.722 65.7705 L957.722 89.8329 L950.227 89.8329 L950.227 27.2059 L957.722 27.2059 L957.722 34.0924 Q960.071 30.0415 963.636 28.0971 Q967.241 26.1121 972.224 26.1121 Q980.488 26.1121 985.632 32.6746 Q990.817 39.2371 990.817 49.9314 Q990.817 60.6258 985.632 67.1883 Q980.488 73.7508 972.224 73.7508 Q967.241 73.7508 963.636 71.8063 Q960.071 69.8214 957.722 65.7705 M983.08 49.9314 Q983.08 41.7081 979.678 37.0496 Q976.315 32.3505 970.401 32.3505 Q964.487 32.3505 961.084 37.0496 Q957.722 41.7081 957.722 49.9314 Q957.722 58.1548 961.084 62.8538 Q964.487 67.5124 970.401 67.5124 Q976.315 67.5124 979.678 62.8538 Q983.08 58.1548 983.08 49.9314 Z" fill="#000000" fill-rule="nonzero" fill-opacity="1" /><path clip-path="url(#clip000)" d="M1002.4 54.671 L1002.4 27.2059 L1009.86 27.2059 L1009.86 54.3874 Q1009.86 60.8284 1012.37 64.0691 Q1014.88 67.2693 1019.9 67.2693 Q1025.94 67.2693 1029.42 63.421 Q1032.95 59.5726 1032.95 52.9291 L1032.95 27.2059 L1040.4 27.2059 L1040.4 72.576 L1032.95 72.576 L1032.95 65.6084 Q1030.23 69.7404 1026.63 71.7658 Q1023.06 73.7508 1018.32 73.7508 Q1010.5 73.7508 1006.45 68.8897 Q1002.4 64.0286 1002.4 54.671 M1021.16 26.1121 L1021.16 26.1121 Z" fill="#000000" fill-rule="nonzero" fill-opacity="1" /><path clip-path="url(#clip000)" d="M1055.75 9.54393 L1063.21 9.54393 L1063.21 72.576 L1055.75 72.576 L1055.75 9.54393 Z" fill="#000000" fill-rule="nonzero" fill-opacity="1" /><path clip-path="url(#clip000)" d="M1099.42 49.7694 Q1090.39 49.7694 1086.9 51.8354 Q1083.42 53.9013 1083.42 58.8839 Q1083.42 62.8538 1086.01 65.2034 Q1088.65 67.5124 1093.14 67.5124 Q1099.34 67.5124 1103.07 63.1374 Q1106.84 58.7219 1106.84 51.4303 L1106.84 49.7694 L1099.42 49.7694 M1114.29 46.6907 L1114.29 72.576 L1106.84 72.576 L1106.84 65.6895 Q1104.28 69.8214 1100.48 71.8063 Q1096.67 73.7508 1091.16 73.7508 Q1084.19 73.7508 1080.06 69.8619 Q1075.97 65.9325 1075.97 59.3701 Q1075.97 51.7138 1081.07 47.825 Q1086.22 43.9361 1096.38 43.9361 L1106.84 43.9361 L1106.84 43.2069 Q1106.84 38.0623 1103.43 35.2672 Q1100.07 32.4315 1093.95 32.4315 Q1090.06 32.4315 1086.38 33.3632 Q1082.69 34.295 1079.29 36.1584 L1079.29 29.2718 Q1083.38 27.692 1087.23 26.9223 Q1091.08 26.1121 1094.72 26.1121 Q1104.57 26.1121 1109.43 31.2163 Q1114.29 36.3204 1114.29 46.6907 Z" fill="#000000" fill-rule="nonzero" fill-opacity="1" /><path clip-path="url(#clip000)" d="M1137.01 14.324 L1137.01 27.2059 L1152.37 27.2059 L1152.37 32.9987 L1137.01 32.9987 L1137.01 57.6282 Q1137.01 63.1779 1138.51 64.7578 Q1140.05 66.3376 1144.71 66.3376 L1152.37 66.3376 L1152.37 72.576 L1144.71 72.576 Q1136.08 72.576 1132.8 69.3758 Q1129.52 66.1351 1129.52 57.6282 L1129.52 32.9987 L1124.05 32.9987 L1124.05 27.2059 L1129.52 27.2059 L1129.52 14.324 L1137.01 14.324 Z" fill="#000000" fill-rule="nonzero" fill-opacity="1" /><path clip-path="url(#clip000)" d="M1162.17 27.2059 L1169.62 27.2059 L1169.62 72.576 L1162.17 72.576 L1162.17 27.2059 M1162.17 9.54393 L1169.62 9.54393 L1169.62 18.9825 L1162.17 18.9825 L1162.17 9.54393 Z" fill="#000000" fill-rule="nonzero" fill-opacity="1" /><path clip-path="url(#clip000)" d="M1202.8 32.4315 Q1196.81 32.4315 1193.32 37.1306 Q1189.84 41.7891 1189.84 49.9314 Q1189.84 58.0738 1193.28 62.7728 Q1196.77 67.4314 1202.8 67.4314 Q1208.76 67.4314 1212.24 62.7323 Q1215.72 58.0333 1215.72 49.9314 Q1215.72 41.8701 1212.24 37.1711 Q1208.76 32.4315 1202.8 32.4315 M1202.8 26.1121 Q1212.52 26.1121 1218.07 32.4315 Q1223.62 38.7509 1223.62 49.9314 Q1223.62 61.0714 1218.07 67.4314 Q1212.52 73.7508 1202.8 73.7508 Q1193.04 73.7508 1187.49 67.4314 Q1181.98 61.0714 1181.98 49.9314 Q1181.98 38.7509 1187.49 32.4315 Q1193.04 26.1121 1202.8 26.1121 Z" fill="#000000" fill-rule="nonzero" fill-opacity="1" /><path clip-path="url(#clip000)" d="M1273.69 45.1919 L1273.69 72.576 L1266.24 72.576 L1266.24 45.4349 Q1266.24 38.994 1263.73 35.7938 Q1261.22 32.5936 1256.19 32.5936 Q1250.16 32.5936 1246.67 36.4419 Q1243.19 40.2903 1243.19 46.9338 L1243.19 72.576 L1235.69 72.576 L1235.69 27.2059 L1243.19 27.2059 L1243.19 34.2544 Q1245.86 30.163 1249.47 28.1376 Q1253.11 26.1121 1257.85 26.1121 Q1265.67 26.1121 1269.68 30.9732 Q1273.69 35.7938 1273.69 45.1919 Z" fill="#000000" fill-rule="nonzero" fill-opacity="1" /><path clip-path="url(#clip000)" d="M1356.49 63.9476 L1356.49 47.7034 L1343.12 47.7034 L1343.12 40.9789 L1364.59 40.9789 L1364.59 66.9452 Q1359.85 70.3075 1354.14 72.0494 Q1348.43 73.7508 1341.95 73.7508 Q1327.77 73.7508 1319.75 65.4869 Q1311.77 57.1826 1311.77 42.3968 Q1311.77 27.5705 1319.75 19.3066 Q1327.77 11.0023 1341.95 11.0023 Q1347.86 11.0023 1353.17 12.4606 Q1358.52 13.9189 1363.01 16.7545 L1363.01 25.464 Q1358.48 21.6156 1353.37 19.6712 Q1348.27 17.7268 1342.64 17.7268 Q1331.54 17.7268 1325.95 23.9246 Q1320.4 30.1225 1320.4 42.3968 Q1320.4 54.6305 1325.95 60.8284 Q1331.54 67.0263 1342.64 67.0263 Q1346.97 67.0263 1350.38 66.2971 Q1353.78 65.5274 1356.49 63.9476 Z" fill="#000000" fill-rule="nonzero" fill-opacity="1" /><path clip-path="url(#clip000)" d="M1405.51 34.1734 Q1404.25 33.4443 1402.75 33.1202 Q1401.3 32.7556 1399.51 32.7556 Q1393.19 32.7556 1389.79 36.8875 Q1386.43 40.9789 1386.43 48.6757 L1386.43 72.576 L1378.93 72.576 L1378.93 27.2059 L1386.43 27.2059 L1386.43 34.2544 Q1388.78 30.1225 1392.55 28.1376 Q1396.31 26.1121 1401.7 26.1121 Q1402.47 26.1121 1403.4 26.2337 Q1404.33 26.3147 1405.47 26.5172 L1405.51 34.1734 Z" fill="#000000" fill-rule="nonzero" fill-opacity="1" /><path clip-path="url(#clip000)" d="M1429.08 32.4315 Q1423.09 32.4315 1419.61 37.1306 Q1416.12 41.7891 1416.12 49.9314 Q1416.12 58.0738 1419.57 62.7728 Q1423.05 67.4314 1429.08 67.4314 Q1435.04 67.4314 1438.52 62.7323 Q1442.01 58.0333 1442.01 49.9314 Q1442.01 41.8701 1438.52 37.1711 Q1435.04 32.4315 1429.08 32.4315 M1429.08 26.1121 Q1438.81 26.1121 1444.36 32.4315 Q1449.91 38.7509 1449.91 49.9314 Q1449.91 61.0714 1444.36 67.4314 Q1438.81 73.7508 1429.08 73.7508 Q1419.32 73.7508 1413.77 67.4314 Q1408.26 61.0714 1408.26 49.9314 Q1408.26 38.7509 1413.77 32.4315 Q1419.32 26.1121 1429.08 26.1121 Z" fill="#000000" fill-rule="nonzero" fill-opacity="1" /><path clip-path="url(#clip000)" d="M1457.93 27.2059 L1465.38 27.2059 L1474.7 62.6108 L1483.97 27.2059 L1492.77 27.2059 L1502.08 62.6108 L1511.36 27.2059 L1518.81 27.2059 L1506.94 72.576 L1498.15 72.576 L1488.39 35.3887 L1478.59 72.576 L1469.8 72.576 L1457.93 27.2059 Z" fill="#000000" fill-rule="nonzero" fill-opacity="1" /><path clip-path="url(#clip000)" d="M1537.49 14.324 L1537.49 27.2059 L1552.84 27.2059 L1552.84 32.9987 L1537.49 32.9987 L1537.49 57.6282 Q1537.49 63.1779 1538.99 64.7578 Q1540.53 66.3376 1545.18 66.3376 L1552.84 66.3376 L1552.84 72.576 L1545.18 72.576 Q1536.56 72.576 1533.27 69.3758 Q1529.99 66.1351 1529.99 57.6282 L1529.99 32.9987 L1524.52 32.9987 L1524.52 27.2059 L1529.99 27.2059 L1529.99 14.324 L1537.49 14.324 Z" fill="#000000" fill-rule="nonzero" fill-opacity="1" /><path clip-path="url(#clip000)" d="M1600.36 45.1919 L1600.36 72.576 L1592.9 72.576 L1592.9 45.4349 Q1592.9 38.994 1590.39 35.7938 Q1587.88 32.5936 1582.86 32.5936 Q1576.82 32.5936 1573.34 36.4419 Q1569.85 40.2903 1569.85 46.9338 L1569.85 72.576 L1562.36 72.576 L1562.36 9.54393 L1569.85 9.54393 L1569.85 34.2544 Q1572.53 30.163 1576.13 28.1376 Q1579.78 26.1121 1584.52 26.1121 Q1592.34 26.1121 1596.35 30.9732 Q1600.36 35.7938 1600.36 45.1919 Z" fill="#000000" fill-rule="nonzero" fill-opacity="1" /><path clip-path="url(#clip000)" d="M1636.25 27.2059 L1644.15 27.2059 L1658.33 65.2844 L1672.5 27.2059 L1680.4 27.2059 L1663.39 72.576 L1653.26 72.576 L1636.25 27.2059 Z" fill="#000000" fill-rule="nonzero" fill-opacity="1" /><path clip-path="url(#clip000)" d="M1719.62 28.5427 L1719.62 35.5912 Q1716.46 33.9709 1713.05 33.1607 Q1709.65 32.3505 1706 32.3505 Q1700.45 32.3505 1697.66 34.0519 Q1694.91 35.7533 1694.91 39.156 Q1694.91 41.7486 1696.89 43.2475 Q1698.88 44.7058 1704.87 46.0426 L1707.42 46.6097 Q1715.36 48.3111 1718.68 51.4303 Q1722.05 54.509 1722.05 60.0587 Q1722.05 66.3781 1717.02 70.0644 Q1712.04 73.7508 1703.29 73.7508 Q1699.64 73.7508 1695.67 73.0216 Q1691.75 72.3329 1687.37 70.9151 L1687.37 63.2184 Q1691.5 65.3654 1695.51 66.4591 Q1699.52 67.5124 1703.45 67.5124 Q1708.72 67.5124 1711.55 65.73 Q1714.39 63.9071 1714.39 60.6258 Q1714.39 57.5877 1712.32 55.9673 Q1710.3 54.3469 1703.37 52.8481 L1700.78 52.2405 Q1693.85 50.7821 1690.77 47.7845 Q1687.69 44.7463 1687.69 39.4801 Q1687.69 33.0797 1692.23 29.5959 Q1696.77 26.1121 1705.11 26.1121 Q1709.25 26.1121 1712.89 26.7198 Q1716.54 27.3274 1719.62 28.5427 Z" fill="#000000" fill-rule="nonzero" fill-opacity="1" /><path clip-path="url(#clip000)" d="M1768.79 18.8205 L1768.79 65.8515 L1778.68 65.8515 Q1791.2 65.8515 1796.99 60.1802 Q1802.82 54.509 1802.82 42.2752 Q1802.82 30.1225 1796.99 24.4918 Q1791.2 18.8205 1778.68 18.8205 L1768.79 18.8205 M1760.61 12.096 L1777.42 12.096 Q1795 12.096 1803.23 19.4281 Q1811.45 26.7198 1811.45 42.2752 Q1811.45 57.9117 1803.19 65.2439 Q1794.92 72.576 1777.42 72.576 L1760.61 72.576 L1760.61 12.096 Z" fill="#000000" fill-rule="nonzero" fill-opacity="1" /><path clip-path="url(#clip000)" d="M1862.98 48.0275 L1862.98 51.6733 L1828.71 51.6733 Q1829.19 59.3701 1833.32 63.421 Q1837.5 67.4314 1844.91 67.4314 Q1849.2 67.4314 1853.21 66.3781 Q1857.27 65.3249 1861.24 63.2184 L1861.24 70.267 Q1857.22 71.9684 1853.01 72.8596 Q1848.8 73.7508 1844.46 73.7508 Q1833.61 73.7508 1827.25 67.4314 Q1820.93 61.1119 1820.93 50.3365 Q1820.93 39.1965 1826.92 32.6746 Q1832.96 26.1121 1843.17 26.1121 Q1852.32 26.1121 1857.63 32.0264 Q1862.98 37.9003 1862.98 48.0275 M1855.52 45.84 Q1855.44 39.7232 1852.08 36.0774 Q1848.76 32.4315 1843.25 32.4315 Q1837.01 32.4315 1833.24 35.9558 Q1829.52 39.4801 1828.95 45.8805 L1855.52 45.84 Z" fill="#000000" fill-rule="nonzero" fill-opacity="1" /><path clip-path="url(#clip000)" d="M1907.86 28.9478 L1907.86 35.9153 Q1904.7 34.1734 1901.5 33.3227 Q1898.34 32.4315 1895.1 32.4315 Q1887.85 32.4315 1883.84 37.0496 Q1879.83 41.6271 1879.83 49.9314 Q1879.83 58.2358 1883.84 62.8538 Q1887.85 67.4314 1895.1 67.4314 Q1898.34 67.4314 1901.5 66.5807 Q1904.7 65.6895 1907.86 63.9476 L1907.86 70.8341 Q1904.74 72.2924 1901.38 73.0216 Q1898.06 73.7508 1894.29 73.7508 Q1884.04 73.7508 1878.01 67.3098 Q1871.97 60.8689 1871.97 49.9314 Q1871.97 38.832 1878.05 32.472 Q1884.16 26.1121 1894.78 26.1121 Q1898.22 26.1121 1901.5 26.8413 Q1904.78 27.5299 1907.86 28.9478 Z" fill="#000000" fill-rule="nonzero" fill-opacity="1" /><path clip-path="url(#clip000)" d="M1920.82 9.54393 L1928.28 9.54393 L1928.28 72.576 L1920.82 72.576 L1920.82 9.54393 Z" fill="#000000" fill-rule="nonzero" fill-opacity="1" /><path clip-path="url(#clip000)" d="M1943.87 27.2059 L1951.33 27.2059 L1951.33 72.576 L1943.87 72.576 L1943.87 27.2059 M1943.87 9.54393 L1951.33 9.54393 L1951.33 18.9825 L1943.87 18.9825 L1943.87 9.54393 Z" fill="#000000" fill-rule="nonzero" fill-opacity="1" /><path clip-path="url(#clip000)" d="M2004.64 45.1919 L2004.64 72.576 L1997.18 72.576 L1997.18 45.4349 Q1997.18 38.994 1994.67 35.7938 Q1992.16 32.5936 1987.14 32.5936 Q1981.1 32.5936 1977.62 36.4419 Q1974.13 40.2903 1974.13 46.9338 L1974.13 72.576 L1966.64 72.576 L1966.64 27.2059 L1974.13 27.2059 L1974.13 34.2544 Q1976.81 30.163 1980.41 28.1376 Q1984.06 26.1121 1988.8 26.1121 Q1996.62 26.1121 2000.63 30.9732 Q2004.64 35.7938 2004.64 45.1919 Z" fill="#000000" fill-rule="nonzero" fill-opacity="1" /><path clip-path="url(#clip000)" d="M2058.31 48.0275 L2058.31 51.6733 L2024.04 51.6733 Q2024.53 59.3701 2028.66 63.421 Q2032.83 67.4314 2040.24 67.4314 Q2044.54 67.4314 2048.55 66.3781 Q2052.6 65.3249 2056.57 63.2184 L2056.57 70.267 Q2052.56 71.9684 2048.35 72.8596 Q2044.13 73.7508 2039.8 73.7508 Q2028.94 73.7508 2022.58 67.4314 Q2016.26 61.1119 2016.26 50.3365 Q2016.26 39.1965 2022.26 32.6746 Q2028.29 26.1121 2038.5 26.1121 Q2047.66 26.1121 2052.96 32.0264 Q2058.31 37.9003 2058.31 48.0275 M2050.86 45.84 Q2050.78 39.7232 2047.41 36.0774 Q2044.09 32.4315 2038.58 32.4315 Q2032.35 32.4315 2028.58 35.9558 Q2024.85 39.4801 2024.28 45.8805 L2050.86 45.84 Z" fill="#000000" fill-rule="nonzero" fill-opacity="1" /><polyline clip-path="url(#clip001)" style="stroke:#008000; stroke-linecap:round; stroke-linejoin:round; stroke-width:8; stroke-opacity:1; fill:none" points="337.643,1191.2 393.543,1174.99 449.444,1157.92 505.345,1139.15 561.246,1118.67 617.147,1099.05 673.047,1081.13 728.948,1063.21 784.849,1048.71 840.75,1029.08 896.651,1009.46 952.551,988.977 1008.45,971.058 1064.35,948.873 1120.25,926.688 1176.15,903.65 1232.06,880.612 1287.96,853.307 1343.86,826.003 1399.76,809.791 1455.66,785.899 1511.56,762.861 1567.46,733.85 1623.36,704.839 1679.26,676.681 1735.16,650.23 1791.06,621.219 1846.96,594.768 1902.87,566.61 1958.77,534.186 2014.67,506.881 2070.57,476.164 2126.47,443.74 2182.37,409.609 2238.27,375.478 2294.17,347.32 2350.07,310.63 2405.97,273.94 2461.87,243.222 2517.77,204.825 2573.67,173.254 "/>
<polyline clip-path="url(#clip001)" style="stroke:#ffa500; stroke-linecap:round; stroke-linejoin:round; stroke-width:8; stroke-opacity:1; fill:none" points="337.643,1208.27 393.543,1222.77 449.444,1238.13 505.345,1252.64 561.246,1266.29 617.147,1274.82 673.047,1286.77 728.948,1303.83 784.849,1323.46 840.75,1345.64 896.651,1361 952.551,1375.51 1008.45,1391.72 1064.35,1402.81 1120.25,1416.46 1176.15,1431.82 1232.06,1446.33 1287.96,1459.13 1343.86,1476.19 1399.76,1493.26 1455.66,1500.94 1511.56,1513.74 1567.46,1528.24 1623.36,1541.04 1679.26,1547.01 1735.16,1558.96 1791.06,1565.78 1846.96,1574.32 1902.87,1583.7 1958.77,1599.06 2014.67,1613.57 2070.57,1621.25 2126.47,1628.07 2182.37,1633.19 2238.27,1644.29 2294.17,1653.67 2350.07,1666.47 2405.97,1669.88 2461.87,1675.86 2517.77,1685.24 2573.67,1688.65 "/>
<polyline clip-path="url(#clip001)" style="stroke:#808080; stroke-linecap:round; stroke-linejoin:round; stroke-width:4; stroke-opacity:1; fill:none" stroke-dasharray="2, 4" points="-2099.63,1216.8 5010.95,1216.8 "/>
<path clip-path="url(#clip000)" d="M349.568 388.696 L1172.35 388.696 L1172.35 181.336 L349.568 181.336  Z" fill="#ffffff" fill-rule="evenodd" fill-opacity="1"/>
<polyline clip-path="url(#clip000)" style="stroke:#000000; stroke-linecap:round; stroke-linejoin:round; stroke-width:4; stroke-opacity:1; fill:none" points="349.568,388.696 1172.35,388.696 1172.35,181.336 349.568,181.336 349.568,388.696 "/>
<polyline clip-path="url(#clip000)" style="stroke:#008000; stroke-linecap:round; stroke-linejoin:round; stroke-width:8; stroke-opacity:1; fill:none" points="375.904,233.176 533.917,233.176 "/>
<path clip-path="url(#clip000)" d="M585.807 245.526 L585.807 236.243 L578.169 236.243 L578.169 232.401 L590.437 232.401 L590.437 247.239 Q587.729 249.16 584.465 250.155 Q581.201 251.128 577.497 251.128 Q569.395 251.128 564.812 246.405 Q560.252 241.66 560.252 233.211 Q560.252 224.739 564.812 220.017 Q569.395 215.271 577.497 215.271 Q580.877 215.271 583.909 216.105 Q586.965 216.938 589.534 218.558 L589.534 223.535 Q586.942 221.336 584.025 220.225 Q581.108 219.114 577.891 219.114 Q571.548 219.114 568.354 222.656 Q565.183 226.197 565.183 233.211 Q565.183 240.202 568.354 243.743 Q571.548 247.285 577.891 247.285 Q580.368 247.285 582.312 246.868 Q584.257 246.429 585.807 245.526 Z" fill="#000000" fill-rule="nonzero" fill-opacity="1" /><path clip-path="url(#clip000)" d="M613.817 228.512 Q613.099 228.095 612.242 227.91 Q611.409 227.702 610.391 227.702 Q606.78 227.702 604.835 230.063 Q602.914 232.401 602.914 236.799 L602.914 250.456 L598.631 250.456 L598.631 224.531 L602.914 224.531 L602.914 228.558 Q604.256 226.197 606.409 225.063 Q608.562 223.906 611.641 223.906 Q612.08 223.906 612.613 223.975 Q613.145 224.021 613.793 224.137 L613.817 228.512 Z" fill="#000000" fill-rule="nonzero" fill-opacity="1" /><path clip-path="url(#clip000)" d="M627.289 227.517 Q623.863 227.517 621.872 230.202 Q619.881 232.864 619.881 237.517 Q619.881 242.169 621.849 244.854 Q623.84 247.516 627.289 247.516 Q630.691 247.516 632.682 244.831 Q634.673 242.146 634.673 237.517 Q634.673 232.91 632.682 230.225 Q630.691 227.517 627.289 227.517 M627.289 223.906 Q632.844 223.906 636.016 227.517 Q639.187 231.128 639.187 237.517 Q639.187 243.882 636.016 247.516 Q632.844 251.128 627.289 251.128 Q621.71 251.128 618.539 247.516 Q615.391 243.882 615.391 237.517 Q615.391 231.128 618.539 227.517 Q621.71 223.906 627.289 223.906 Z" fill="#000000" fill-rule="nonzero" fill-opacity="1" /><path clip-path="url(#clip000)" d="M643.77 224.531 L648.029 224.531 L653.353 244.762 L658.654 224.531 L663.677 224.531 L669.001 244.762 L674.302 224.531 L678.562 224.531 L671.779 250.456 L666.756 250.456 L661.177 229.206 L655.576 250.456 L650.552 250.456 L643.77 224.531 Z" fill="#000000" fill-rule="nonzero" fill-opacity="1" /><path clip-path="url(#clip000)" d="M689.233 217.169 L689.233 224.531 L698.006 224.531 L698.006 227.841 L689.233 227.841 L689.233 241.915 Q689.233 245.086 690.089 245.989 Q690.969 246.891 693.631 246.891 L698.006 246.891 L698.006 250.456 L693.631 250.456 Q688.7 250.456 686.825 248.628 Q684.95 246.776 684.95 241.915 L684.95 227.841 L681.825 227.841 L681.825 224.531 L684.95 224.531 L684.95 217.169 L689.233 217.169 Z" fill="#000000" fill-rule="nonzero" fill-opacity="1" /><path clip-path="url(#clip000)" d="M725.159 234.808 L725.159 250.456 L720.899 250.456 L720.899 234.947 Q720.899 231.267 719.464 229.438 Q718.029 227.609 715.159 227.609 Q711.71 227.609 709.719 229.808 Q707.728 232.007 707.728 235.804 L707.728 250.456 L703.446 250.456 L703.446 214.438 L707.728 214.438 L707.728 228.558 Q709.256 226.22 711.316 225.063 Q713.399 223.906 716.108 223.906 Q720.575 223.906 722.867 226.683 Q725.159 229.438 725.159 234.808 Z" fill="#000000" fill-rule="nonzero" fill-opacity="1" /><path clip-path="url(#clip000)" d="M758.955 214.484 Q755.853 219.808 754.348 225.017 Q752.844 230.225 752.844 235.572 Q752.844 240.919 754.348 246.174 Q755.876 251.405 758.955 256.706 L755.251 256.706 Q751.779 251.266 750.043 246.012 Q748.33 240.757 748.33 235.572 Q748.33 230.41 750.043 225.179 Q751.756 219.947 755.251 214.484 L758.955 214.484 Z" fill="#000000" fill-rule="nonzero" fill-opacity="1" /><path clip-path="url(#clip000)" d="M772.08 233.952 L772.08 246.614 L779.58 246.614 Q783.353 246.614 785.158 245.063 Q786.987 243.489 786.987 240.271 Q786.987 237.03 785.158 235.503 Q783.353 233.952 779.58 233.952 L772.08 233.952 M772.08 219.739 L772.08 230.155 L779.001 230.155 Q782.427 230.155 784.093 228.882 Q785.783 227.586 785.783 224.947 Q785.783 222.331 784.093 221.035 Q782.427 219.739 779.001 219.739 L772.08 219.739 M767.404 215.896 L779.348 215.896 Q784.695 215.896 787.589 218.118 Q790.482 220.341 790.482 224.438 Q790.482 227.609 789.001 229.484 Q787.519 231.359 784.649 231.822 Q788.098 232.563 789.996 234.924 Q791.917 237.262 791.917 240.78 Q791.917 245.41 788.769 247.933 Q785.621 250.456 779.811 250.456 L767.404 250.456 L767.404 215.896 Z" fill="#000000" fill-rule="nonzero" fill-opacity="1" /><path clip-path="url(#clip000)" d="M816.315 234.253 Q817.82 234.762 819.232 236.429 Q820.667 238.095 822.102 241.012 L826.848 250.456 L821.825 250.456 L817.403 241.591 Q815.69 238.118 814.07 236.984 Q812.473 235.85 809.695 235.85 L804.603 235.85 L804.603 250.456 L799.927 250.456 L799.927 215.896 L810.482 215.896 Q816.408 215.896 819.325 218.373 Q822.241 220.85 822.241 225.85 Q822.241 229.114 820.714 231.267 Q819.209 233.419 816.315 234.253 M804.603 219.739 L804.603 232.007 L810.482 232.007 Q813.862 232.007 815.575 230.456 Q817.311 228.882 817.311 225.85 Q817.311 222.818 815.575 221.29 Q813.862 219.739 810.482 219.739 L804.603 219.739 Z" fill="#000000" fill-rule="nonzero" fill-opacity="1" /><path clip-path="url(#clip000)" d="M833.237 228.929 L862.912 228.929 L862.912 232.817 L833.237 232.817 L833.237 228.929 M833.237 238.373 L862.912 238.373 L862.912 242.308 L833.237 242.308 L833.237 238.373 Z" fill="#000000" fill-rule="nonzero" fill-opacity="1" /><path clip-path="url(#clip000)" d="M887.172 231.822 Q890.528 232.54 892.403 234.808 Q894.301 237.077 894.301 240.41 Q894.301 245.526 890.783 248.327 Q887.264 251.128 880.783 251.128 Q878.607 251.128 876.292 250.688 Q874 250.271 871.547 249.415 L871.547 244.901 Q873.491 246.035 875.806 246.614 Q878.121 247.192 880.644 247.192 Q885.042 247.192 887.334 245.456 Q889.648 243.72 889.648 240.41 Q889.648 237.355 887.496 235.642 Q885.366 233.905 881.547 233.905 L877.519 233.905 L877.519 230.063 L881.732 230.063 Q885.181 230.063 887.01 228.697 Q888.838 227.308 888.838 224.716 Q888.838 222.054 886.94 220.642 Q885.065 219.206 881.547 219.206 Q879.625 219.206 877.426 219.623 Q875.227 220.04 872.588 220.919 L872.588 216.753 Q875.25 216.012 877.565 215.642 Q879.903 215.271 881.963 215.271 Q887.287 215.271 890.389 217.702 Q893.491 220.109 893.491 224.23 Q893.491 227.1 891.847 229.091 Q890.204 231.058 887.172 231.822 Z" fill="#000000" fill-rule="nonzero" fill-opacity="1" /><path clip-path="url(#clip000)" d="M913.167 218.975 Q909.556 218.975 907.727 222.54 Q905.921 226.081 905.921 233.211 Q905.921 240.317 907.727 243.882 Q909.556 247.424 913.167 247.424 Q916.801 247.424 918.607 243.882 Q920.435 240.317 920.435 233.211 Q920.435 226.081 918.607 222.54 Q916.801 218.975 913.167 218.975 M913.167 215.271 Q918.977 215.271 922.032 219.878 Q925.111 224.461 925.111 233.211 Q925.111 241.938 922.032 246.544 Q918.977 251.128 913.167 251.128 Q907.357 251.128 904.278 246.544 Q901.222 241.938 901.222 233.211 Q901.222 224.461 904.278 219.878 Q907.357 215.271 913.167 215.271 Z" fill="#000000" fill-rule="nonzero" fill-opacity="1" /><path clip-path="url(#clip000)" d="M933.815 244.577 L938.699 244.577 L938.699 248.558 L934.903 255.966 L931.917 255.966 L933.815 248.558 L933.815 244.577 Z" fill="#000000" fill-rule="nonzero" fill-opacity="1" /><path clip-path="url(#clip000)" d="M967.727 219.739 L967.727 246.614 L973.375 246.614 Q980.528 246.614 983.838 243.373 Q987.171 240.132 987.171 233.142 Q987.171 226.197 983.838 222.98 Q980.528 219.739 973.375 219.739 L967.727 219.739 M963.051 215.896 L972.657 215.896 Q982.703 215.896 987.403 220.086 Q992.102 224.253 992.102 233.142 Q992.102 242.077 987.379 246.266 Q982.657 250.456 972.657 250.456 L963.051 250.456 L963.051 215.896 Z" fill="#000000" fill-rule="nonzero" fill-opacity="1" /><path clip-path="url(#clip000)" d="M1015.94 234.253 Q1017.45 234.762 1018.86 236.429 Q1020.3 238.095 1021.73 241.012 L1026.48 250.456 L1021.45 250.456 L1017.03 241.591 Q1015.32 238.118 1013.7 236.984 Q1012.1 235.85 1009.32 235.85 L1004.23 235.85 L1004.23 250.456 L999.555 250.456 L999.555 215.896 L1010.11 215.896 Q1016.04 215.896 1018.95 218.373 Q1021.87 220.85 1021.87 225.85 Q1021.87 229.114 1020.34 231.267 Q1018.84 233.419 1015.94 234.253 M1004.23 219.739 L1004.23 232.007 L1010.11 232.007 Q1013.49 232.007 1015.2 230.456 Q1016.94 228.882 1016.94 225.85 Q1016.94 222.818 1015.2 221.29 Q1013.49 219.739 1010.11 219.739 L1004.23 219.739 Z" fill="#000000" fill-rule="nonzero" fill-opacity="1" /><path clip-path="url(#clip000)" d="M1032.87 228.929 L1062.54 228.929 L1062.54 232.817 L1032.87 232.817 L1032.87 228.929 M1032.87 238.373 L1062.54 238.373 L1062.54 242.308 L1032.87 242.308 L1032.87 238.373 Z" fill="#000000" fill-rule="nonzero" fill-opacity="1" /><path clip-path="url(#clip000)" d="M1073.44 246.521 L1081.08 246.521 L1081.08 220.156 L1072.77 221.822 L1072.77 217.563 L1081.04 215.896 L1085.71 215.896 L1085.71 246.521 L1093.35 246.521 L1093.35 250.456 L1073.44 250.456 L1073.44 246.521 Z" fill="#000000" fill-rule="nonzero" fill-opacity="1" /><path clip-path="url(#clip000)" d="M1112.8 218.975 Q1109.18 218.975 1107.36 222.54 Q1105.55 226.081 1105.55 233.211 Q1105.55 240.317 1107.36 243.882 Q1109.18 247.424 1112.8 247.424 Q1116.43 247.424 1118.24 243.882 Q1120.06 240.317 1120.06 233.211 Q1120.06 226.081 1118.24 222.54 Q1116.43 218.975 1112.8 218.975 M1112.8 215.271 Q1118.61 215.271 1121.66 219.878 Q1124.74 224.461 1124.74 233.211 Q1124.74 241.938 1121.66 246.544 Q1118.61 251.128 1112.8 251.128 Q1106.99 251.128 1103.91 246.544 Q1100.85 241.938 1100.85 233.211 Q1100.85 224.461 1103.91 219.878 Q1106.99 215.271 1112.8 215.271 Z" fill="#000000" fill-rule="nonzero" fill-opacity="1" /><path clip-path="url(#clip000)" d="M1131.68 214.484 L1135.39 214.484 Q1138.86 219.947 1140.57 225.179 Q1142.31 230.41 1142.31 235.572 Q1142.31 240.757 1140.57 246.012 Q1138.86 251.266 1135.39 256.706 L1131.68 256.706 Q1134.76 251.405 1136.27 246.174 Q1137.8 240.919 1137.8 235.572 Q1137.8 230.225 1136.27 225.017 Q1134.76 219.808 1131.68 214.484 Z" fill="#000000" fill-rule="nonzero" fill-opacity="1" /><polyline clip-path="url(#clip000)" style="stroke:#ffa500; stroke-linecap:round; stroke-linejoin:round; stroke-width:8; stroke-opacity:1; fill:none" points="375.904,285.016 533.917,285.016 "/>
<path clip-path="url(#clip000)" d="M564.928 271.579 L564.928 298.454 L570.576 298.454 Q577.729 298.454 581.039 295.213 Q584.372 291.972 584.372 284.982 Q584.372 278.037 581.039 274.82 Q577.729 271.579 570.576 271.579 L564.928 271.579 M560.252 267.736 L569.858 267.736 Q579.905 267.736 584.604 271.926 Q589.303 276.093 589.303 284.982 Q589.303 293.917 584.581 298.106 Q579.858 302.296 569.858 302.296 L560.252 302.296 L560.252 267.736 Z" fill="#000000" fill-rule="nonzero" fill-opacity="1" /><path clip-path="url(#clip000)" d="M618.747 288.269 L618.747 290.352 L599.164 290.352 Q599.442 294.75 601.803 297.065 Q604.187 299.356 608.423 299.356 Q610.877 299.356 613.168 298.755 Q615.483 298.153 617.752 296.949 L617.752 300.977 Q615.46 301.949 613.053 302.458 Q610.645 302.968 608.168 302.968 Q601.965 302.968 598.331 299.356 Q594.719 295.745 594.719 289.588 Q594.719 283.222 598.145 279.495 Q601.594 275.746 607.428 275.746 Q612.659 275.746 615.692 279.125 Q618.747 282.482 618.747 288.269 M614.488 287.019 Q614.442 283.523 612.52 281.44 Q610.622 279.357 607.474 279.357 Q603.909 279.357 601.756 281.37 Q599.627 283.384 599.303 287.042 L614.488 287.019 Z" fill="#000000" fill-rule="nonzero" fill-opacity="1" /><path clip-path="url(#clip000)" d="M644.395 277.366 L644.395 281.347 Q642.59 280.352 640.761 279.866 Q638.955 279.357 637.103 279.357 Q632.96 279.357 630.668 281.995 Q628.377 284.611 628.377 289.357 Q628.377 294.102 630.668 296.741 Q632.96 299.356 637.103 299.356 Q638.955 299.356 640.761 298.87 Q642.59 298.361 644.395 297.366 L644.395 301.301 Q642.613 302.134 640.691 302.551 Q638.793 302.968 636.641 302.968 Q630.784 302.968 627.335 299.287 Q623.886 295.607 623.886 289.357 Q623.886 283.014 627.358 279.38 Q630.853 275.746 636.918 275.746 Q638.886 275.746 640.761 276.162 Q642.636 276.556 644.395 277.366 Z" fill="#000000" fill-rule="nonzero" fill-opacity="1" /><path clip-path="url(#clip000)" d="M651.802 266.278 L656.062 266.278 L656.062 302.296 L651.802 302.296 L651.802 266.278 Z" fill="#000000" fill-rule="nonzero" fill-opacity="1" /><path clip-path="url(#clip000)" d="M664.974 276.371 L669.233 276.371 L669.233 302.296 L664.974 302.296 L664.974 276.371 M664.974 266.278 L669.233 266.278 L669.233 271.671 L664.974 271.671 L664.974 266.278 Z" fill="#000000" fill-rule="nonzero" fill-opacity="1" /><path clip-path="url(#clip000)" d="M699.696 286.648 L699.696 302.296 L695.436 302.296 L695.436 286.787 Q695.436 283.107 694.001 281.278 Q692.566 279.449 689.696 279.449 Q686.247 279.449 684.256 281.648 Q682.265 283.847 682.265 287.644 L682.265 302.296 L677.983 302.296 L677.983 276.371 L682.265 276.371 L682.265 280.398 Q683.793 278.06 685.853 276.903 Q687.937 275.746 690.645 275.746 Q695.112 275.746 697.404 278.523 Q699.696 281.278 699.696 286.648 Z" fill="#000000" fill-rule="nonzero" fill-opacity="1" /><path clip-path="url(#clip000)" d="M730.367 288.269 L730.367 290.352 L710.784 290.352 Q711.061 294.75 713.422 297.065 Q715.807 299.356 720.043 299.356 Q722.497 299.356 724.788 298.755 Q727.103 298.153 729.371 296.949 L729.371 300.977 Q727.08 301.949 724.672 302.458 Q722.265 302.968 719.788 302.968 Q713.585 302.968 709.95 299.356 Q706.339 295.745 706.339 289.588 Q706.339 283.222 709.765 279.495 Q713.214 275.746 719.047 275.746 Q724.279 275.746 727.311 279.125 Q730.367 282.482 730.367 288.269 M726.108 287.019 Q726.061 283.523 724.14 281.44 Q722.242 279.357 719.094 279.357 Q715.529 279.357 713.376 281.37 Q711.247 283.384 710.923 287.042 L726.108 287.019 Z" fill="#000000" fill-rule="nonzero" fill-opacity="1" /><path clip-path="url(#clip000)" d="M762.658 266.324 Q759.557 271.648 758.052 276.857 Q756.547 282.065 756.547 287.412 Q756.547 292.759 758.052 298.014 Q759.58 303.245 762.658 308.546 L758.955 308.546 Q755.482 303.106 753.746 297.852 Q752.033 292.597 752.033 287.412 Q752.033 282.25 753.746 277.019 Q755.459 271.787 758.955 266.324 L762.658 266.324 Z" fill="#000000" fill-rule="nonzero" fill-opacity="1" /><path clip-path="url(#clip000)" d="M775.783 285.792 L775.783 298.454 L783.283 298.454 Q787.056 298.454 788.862 296.903 Q790.691 295.329 790.691 292.111 Q790.691 288.87 788.862 287.343 Q787.056 285.792 783.283 285.792 L775.783 285.792 M775.783 271.579 L775.783 281.995 L782.705 281.995 Q786.13 281.995 787.797 280.722 Q789.487 279.426 789.487 276.787 Q789.487 274.171 787.797 272.875 Q786.13 271.579 782.705 271.579 L775.783 271.579 M771.107 267.736 L783.052 267.736 Q788.399 267.736 791.292 269.958 Q794.186 272.181 794.186 276.278 Q794.186 279.449 792.704 281.324 Q791.223 283.199 788.353 283.662 Q791.802 284.403 793.7 286.764 Q795.621 289.102 795.621 292.62 Q795.621 297.25 792.473 299.773 Q789.325 302.296 783.515 302.296 L771.107 302.296 L771.107 267.736 Z" fill="#000000" fill-rule="nonzero" fill-opacity="1" /><path clip-path="url(#clip000)" d="M820.019 286.093 Q821.524 286.602 822.936 288.269 Q824.371 289.935 825.806 292.852 L830.552 302.296 L825.528 302.296 L821.107 293.431 Q819.394 289.958 817.774 288.824 Q816.177 287.69 813.399 287.69 L808.306 287.69 L808.306 302.296 L803.63 302.296 L803.63 267.736 L814.186 267.736 Q820.112 267.736 823.028 270.213 Q825.945 272.69 825.945 277.69 Q825.945 280.954 824.417 283.107 Q822.913 285.259 820.019 286.093 M808.306 271.579 L808.306 283.847 L814.186 283.847 Q817.565 283.847 819.278 282.296 Q821.015 280.722 821.015 277.69 Q821.015 274.658 819.278 273.13 Q817.565 271.579 814.186 271.579 L808.306 271.579 Z" fill="#000000" fill-rule="nonzero" fill-opacity="1" /><path clip-path="url(#clip000)" d="M836.94 280.769 L866.616 280.769 L866.616 284.657 L836.94 284.657 L836.94 280.769 M836.94 290.213 L866.616 290.213 L866.616 294.148 L836.94 294.148 L836.94 290.213 Z" fill="#000000" fill-rule="nonzero" fill-opacity="1" /><path clip-path="url(#clip000)" d="M877.519 298.361 L885.158 298.361 L885.158 271.996 L876.848 273.662 L876.848 269.403 L885.111 267.736 L889.787 267.736 L889.787 298.361 L897.426 298.361 L897.426 302.296 L877.519 302.296 L877.519 298.361 Z" fill="#000000" fill-rule="nonzero" fill-opacity="1" /><path clip-path="url(#clip000)" d="M916.87 270.815 Q913.259 270.815 911.431 274.38 Q909.625 277.921 909.625 285.051 Q909.625 292.157 911.431 295.722 Q913.259 299.264 916.87 299.264 Q920.505 299.264 922.31 295.722 Q924.139 292.157 924.139 285.051 Q924.139 277.921 922.31 274.38 Q920.505 270.815 916.87 270.815 M916.87 267.111 Q922.681 267.111 925.736 271.718 Q928.815 276.301 928.815 285.051 Q928.815 293.778 925.736 298.384 Q922.681 302.968 916.87 302.968 Q911.06 302.968 907.982 298.384 Q904.926 293.778 904.926 285.051 Q904.926 276.301 907.982 271.718 Q911.06 267.111 916.87 267.111 Z" fill="#000000" fill-rule="nonzero" fill-opacity="1" /><path clip-path="url(#clip000)" d="M937.519 296.417 L942.403 296.417 L942.403 300.398 L938.606 307.806 L935.62 307.806 L937.519 300.398 L937.519 296.417 Z" fill="#000000" fill-rule="nonzero" fill-opacity="1" /><path clip-path="url(#clip000)" d="M971.43 271.579 L971.43 298.454 L977.078 298.454 Q984.231 298.454 987.541 295.213 Q990.875 291.972 990.875 284.982 Q990.875 278.037 987.541 274.82 Q984.231 271.579 977.078 271.579 L971.43 271.579 M966.754 267.736 L976.361 267.736 Q986.407 267.736 991.106 271.926 Q995.805 276.093 995.805 284.982 Q995.805 293.917 991.083 298.106 Q986.361 302.296 976.361 302.296 L966.754 302.296 L966.754 267.736 Z" fill="#000000" fill-rule="nonzero" fill-opacity="1" /><path clip-path="url(#clip000)" d="M1019.65 286.093 Q1021.15 286.602 1022.56 288.269 Q1024 289.935 1025.43 292.852 L1030.18 302.296 L1025.16 302.296 L1020.74 293.431 Q1019.02 289.958 1017.4 288.824 Q1015.81 287.69 1013.03 287.69 L1007.93 287.69 L1007.93 302.296 L1003.26 302.296 L1003.26 267.736 L1013.81 267.736 Q1019.74 267.736 1022.66 270.213 Q1025.57 272.69 1025.57 277.69 Q1025.57 280.954 1024.05 283.107 Q1022.54 285.259 1019.65 286.093 M1007.93 271.579 L1007.93 283.847 L1013.81 283.847 Q1017.19 283.847 1018.91 282.296 Q1020.64 280.722 1020.64 277.69 Q1020.64 274.658 1018.91 273.13 Q1017.19 271.579 1013.81 271.579 L1007.93 271.579 Z" fill="#000000" fill-rule="nonzero" fill-opacity="1" /><path clip-path="url(#clip000)" d="M1036.57 280.769 L1066.24 280.769 L1066.24 284.657 L1036.57 284.657 L1036.57 280.769 M1036.57 290.213 L1066.24 290.213 L1066.24 294.148 L1036.57 294.148 L1036.57 290.213 Z" fill="#000000" fill-rule="nonzero" fill-opacity="1" /><path clip-path="url(#clip000)" d="M1090.5 283.662 Q1093.86 284.38 1095.74 286.648 Q1097.63 288.917 1097.63 292.25 Q1097.63 297.366 1094.11 300.167 Q1090.6 302.968 1084.11 302.968 Q1081.94 302.968 1079.62 302.528 Q1077.33 302.111 1074.88 301.255 L1074.88 296.741 Q1076.82 297.875 1079.14 298.454 Q1081.45 299.032 1083.98 299.032 Q1088.37 299.032 1090.67 297.296 Q1092.98 295.56 1092.98 292.25 Q1092.98 289.195 1090.83 287.482 Q1088.7 285.745 1084.88 285.745 L1080.85 285.745 L1080.85 281.903 L1085.06 281.903 Q1088.51 281.903 1090.34 280.537 Q1092.17 279.148 1092.17 276.556 Q1092.17 273.894 1090.27 272.482 Q1088.4 271.046 1084.88 271.046 Q1082.96 271.046 1080.76 271.463 Q1078.56 271.88 1075.92 272.759 L1075.92 268.593 Q1078.58 267.852 1080.9 267.482 Q1083.24 267.111 1085.3 267.111 Q1090.62 267.111 1093.72 269.542 Q1096.82 271.949 1096.82 276.07 Q1096.82 278.94 1095.18 280.931 Q1093.54 282.898 1090.5 283.662 Z" fill="#000000" fill-rule="nonzero" fill-opacity="1" /><path clip-path="url(#clip000)" d="M1116.5 270.815 Q1112.89 270.815 1111.06 274.38 Q1109.25 277.921 1109.25 285.051 Q1109.25 292.157 1111.06 295.722 Q1112.89 299.264 1116.5 299.264 Q1120.13 299.264 1121.94 295.722 Q1123.77 292.157 1123.77 285.051 Q1123.77 277.921 1121.94 274.38 Q1120.13 270.815 1116.5 270.815 M1116.5 267.111 Q1122.31 267.111 1125.36 271.718 Q1128.44 276.301 1128.44 285.051 Q1128.44 293.778 1125.36 298.384 Q1122.31 302.968 1116.5 302.968 Q1110.69 302.968 1107.61 298.384 Q1104.55 293.778 1104.55 285.051 Q1104.55 276.301 1107.61 271.718 Q1110.69 267.111 1116.5 267.111 Z" fill="#000000" fill-rule="nonzero" fill-opacity="1" /><path clip-path="url(#clip000)" d="M1135.39 266.324 L1139.09 266.324 Q1142.56 271.787 1144.28 277.019 Q1146.01 282.25 1146.01 287.412 Q1146.01 292.597 1144.28 297.852 Q1142.56 303.106 1139.09 308.546 L1135.39 308.546 Q1138.47 303.245 1139.97 298.014 Q1141.5 292.759 1141.5 287.412 Q1141.5 282.065 1139.97 276.857 Q1138.47 271.648 1135.39 266.324 Z" fill="#000000" fill-rule="nonzero" fill-opacity="1" /><polyline clip-path="url(#clip000)" style="stroke:#808080; stroke-linecap:round; stroke-linejoin:round; stroke-width:4; stroke-opacity:1; fill:none" stroke-dasharray="2, 4" points="375.904,336.856 533.917,336.856 "/>
<path clip-path="url(#clip000)" d="M560.252 319.576 L564.928 319.576 L564.928 354.136 L560.252 354.136 L560.252 319.576 Z" fill="#000000" fill-rule="nonzero" fill-opacity="1" /><path clip-path="url(#clip000)" d="M595.599 338.488 L595.599 354.136 L591.34 354.136 L591.34 338.627 Q591.34 334.947 589.905 333.118 Q588.469 331.289 585.599 331.289 Q582.15 331.289 580.159 333.488 Q578.169 335.687 578.169 339.484 L578.169 354.136 L573.886 354.136 L573.886 328.211 L578.169 328.211 L578.169 332.238 Q579.696 329.9 581.757 328.743 Q583.84 327.586 586.548 327.586 Q591.016 327.586 593.307 330.363 Q595.599 333.118 595.599 338.488 Z" fill="#000000" fill-rule="nonzero" fill-opacity="1" /><path clip-path="url(#clip000)" d="M604.094 328.211 L608.354 328.211 L608.354 354.136 L604.094 354.136 L604.094 328.211 M604.094 318.118 L608.354 318.118 L608.354 323.511 L604.094 323.511 L604.094 318.118 Z" fill="#000000" fill-rule="nonzero" fill-opacity="1" /><path clip-path="url(#clip000)" d="M621.479 320.849 L621.479 328.211 L630.252 328.211 L630.252 331.521 L621.479 331.521 L621.479 345.595 Q621.479 348.766 622.335 349.669 Q623.215 350.571 625.877 350.571 L630.252 350.571 L630.252 354.136 L625.877 354.136 Q620.946 354.136 619.071 352.308 Q617.196 350.456 617.196 345.595 L617.196 331.521 L614.071 331.521 L614.071 328.211 L617.196 328.211 L617.196 320.849 L621.479 320.849 Z" fill="#000000" fill-rule="nonzero" fill-opacity="1" /><path clip-path="url(#clip000)" d="M635.853 328.211 L640.113 328.211 L640.113 354.136 L635.853 354.136 L635.853 328.211 M635.853 318.118 L640.113 318.118 L640.113 323.511 L635.853 323.511 L635.853 318.118 Z" fill="#000000" fill-rule="nonzero" fill-opacity="1" /><path clip-path="url(#clip000)" d="M660.807 341.104 Q655.645 341.104 653.654 342.284 Q651.664 343.465 651.664 346.312 Q651.664 348.581 653.145 349.923 Q654.65 351.243 657.219 351.243 Q660.761 351.243 662.89 348.743 Q665.043 346.22 665.043 342.053 L665.043 341.104 L660.807 341.104 M669.302 339.345 L669.302 354.136 L665.043 354.136 L665.043 350.201 Q663.585 352.562 661.409 353.696 Q659.233 354.808 656.085 354.808 Q652.103 354.808 649.742 352.585 Q647.404 350.34 647.404 346.59 Q647.404 342.215 650.321 339.993 Q653.261 337.771 659.071 337.771 L665.043 337.771 L665.043 337.354 Q665.043 334.414 663.099 332.817 Q661.177 331.197 657.682 331.197 Q655.46 331.197 653.353 331.729 Q651.247 332.261 649.302 333.326 L649.302 329.391 Q651.64 328.488 653.839 328.048 Q656.039 327.586 658.122 327.586 Q663.747 327.586 666.525 330.502 Q669.302 333.419 669.302 339.345 Z" fill="#000000" fill-rule="nonzero" fill-opacity="1" /><path clip-path="url(#clip000)" d="M678.075 318.118 L682.335 318.118 L682.335 354.136 L678.075 354.136 L678.075 318.118 Z" fill="#000000" fill-rule="nonzero" fill-opacity="1" /></svg>
