<?xml version="1.0" encoding="utf-8"?>
<svg xmlns="http://www.w3.org/2000/svg" xmlns:xlink="http://www.w3.org/1999/xlink" width="672" height="480" viewBox="0 0 2688 1920">
<defs>
  <clipPath id="clip910">
    <rect x="0" y="0" width="2688" height="1920"/>
  </clipPath>
</defs>
<path clip-path="url(#clip910)" d="M0 1920 L2688 1920 L2688 -4.26326e-14 L0 -4.26326e-14  Z" fill="#ffffff" fill-rule="evenodd" fill-opacity="1"/>
<defs>
  <clipPath id="clip911">
    <rect x="285" y="127" width="2356" height="1607"/>
  </clipPath>
</defs>
<path clip-path="url(#clip910)" d="M285.978 1734.12 L2640.76 1734.12 L2640.76 127.792 L285.978 127.792  Z" fill="#ffffff" fill-rule="evenodd" fill-opacity="1"/>
<polyline clip-path="url(#clip911)" style="stroke:#000000; stroke-linecap:round; stroke-linejoin:round; stroke-width:2; stroke-opacity:0.1; fill:none" points="599.455,1734.12 599.455,127.792 "/>
<polyline clip-path="url(#clip911)" style="stroke:#000000; stroke-linecap:round; stroke-linejoin:round; stroke-width:2; stroke-opacity:0.1; fill:none" points="1093.12,1734.12 1093.12,127.792 "/>
<polyline clip-path="url(#clip911)" style="stroke:#000000; stroke-linecap:round; stroke-linejoin:round; stroke-width:2; stroke-opacity:0.1; fill:none" points="1586.78,1734.12 1586.78,127.792 "/>
<polyline clip-path="url(#clip911)" style="stroke:#000000; stroke-linecap:round; stroke-linejoin:round; stroke-width:2; stroke-opacity:0.1; fill:none" points="2080.45,1734.12 2080.45,127.792 "/>
<polyline clip-path="url(#clip911)" style="stroke:#000000; stroke-linecap:round; stroke-linejoin:round; stroke-width:2; stroke-opacity:0.1; fill:none" points="2574.11,1734.12 2574.11,127.792 "/>
<polyline clip-path="url(#clip911)" style="stroke:#000000; stroke-linecap:round; stroke-linejoin:round; stroke-width:2; stroke-opacity:0.1; fill:none" points="285.978,1688.65 2640.76,1688.65 "/>
<polyline clip-path="url(#clip911)" style="stroke:#000000; stroke-linecap:round; stroke-linejoin:round; stroke-width:2; stroke-opacity:0.1; fill:none" points="285.978,1200.14 2640.76,1200.14 "/>
<polyline clip-path="url(#clip911)" style="stroke:#000000; stroke-linecap:round; stroke-linejoin:round; stroke-width:2; stroke-opacity:0.1; fill:none" points="285.978,711.629 2640.76,711.629 "/>
<polyline clip-path="url(#clip911)" style="stroke:#000000; stroke-linecap:round; stroke-linejoin:round; stroke-width:2; stroke-opacity:0.1; fill:none" points="285.978,223.116 2640.76,223.116 "/>
<polyline clip-path="url(#clip910)" style="stroke:#000000; stroke-linecap:round; stroke-linejoin:round; stroke-width:4; stroke-opacity:1; fill:none" points="285.978,1734.12 2640.76,1734.12 "/>
<polyline clip-path="url(#clip910)" style="stroke:#000000; stroke-linecap:round; stroke-linejoin:round; stroke-width:4; stroke-opacity:1; fill:none" points="599.455,1734.12 599.455,1715.22 "/>
<polyline clip-path="url(#clip910)" style="stroke:#000000; stroke-linecap:round; stroke-linejoin:round; stroke-width:4; stroke-opacity:1; fill:none" points="1093.12,1734.12 1093.12,1715.22 "/>
<polyline clip-path="url(#clip910)" style="stroke:#000000; stroke-linecap:round; stroke-linejoin:round; stroke-width:4; stroke-opacity:1; fill:none" points="1586.78,1734.12 1586.78,1715.22 "/>
<polyline clip-path="url(#clip910)" style="stroke:#000000; stroke-linecap:round; stroke-linejoin:round; stroke-width:4; stroke-opacity:1; fill:none" points="2080.45,1734.12 2080.45,1715.22 "/>
<polyline clip-path="url(#clip910)" style="stroke:#000000; stroke-linecap:round; stroke-linejoin:round; stroke-width:4; stroke-opacity:1; fill:none" points="2574.11,1734.12 2574.11,1715.22 "/>
<path clip-path="url(#clip910)" d="M562.557 1767.34 Q558.946 1767.34 557.117 1770.9 Q555.312 1774.45 555.312 1781.58 Q555.312 1788.68 557.117 1792.25 Q558.946 1795.79 562.557 1795.79 Q566.191 1795.79 567.997 1792.25 Q569.825 1788.68 569.825 1781.58 Q569.825 1774.45 567.997 1770.9 Q566.191 1767.34 562.557 1767.34 M562.557 1763.64 Q568.367 1763.64 571.423 1768.24 Q574.501 1772.83 574.501 1781.58 Q574.501 1790.3 571.423 1794.91 Q568.367 1799.49 562.557 1799.49 Q556.747 1799.49 553.668 1794.91 Q550.613 1790.3 550.613 1781.58 Q550.613 1772.83 553.668 1768.24 Q556.747 1763.64 562.557 1763.64 Z" fill="#000000" fill-rule="nonzero" fill-opacity="1" /><path clip-path="url(#clip910)" d="M582.719 1792.94 L587.603 1792.94 L587.603 1798.82 L582.719 1798.82 L582.719 1792.94 Z" fill="#000000" fill-rule="nonzero" fill-opacity="1" /><path clip-path="url(#clip910)" d="M607.788 1767.34 Q604.177 1767.34 602.348 1770.9 Q600.543 1774.45 600.543 1781.58 Q600.543 1788.68 602.348 1792.25 Q604.177 1795.79 607.788 1795.79 Q611.422 1795.79 613.228 1792.25 Q615.057 1788.68 615.057 1781.58 Q615.057 1774.45 613.228 1770.9 Q611.422 1767.34 607.788 1767.34 M607.788 1763.64 Q613.598 1763.64 616.654 1768.24 Q619.733 1772.83 619.733 1781.58 Q619.733 1790.3 616.654 1794.91 Q613.598 1799.49 607.788 1799.49 Q601.978 1799.49 598.899 1794.91 Q595.844 1790.3 595.844 1781.58 Q595.844 1772.83 598.899 1768.24 Q601.978 1763.64 607.788 1763.64 Z" fill="#000000" fill-rule="nonzero" fill-opacity="1" /><path clip-path="url(#clip910)" d="M631.978 1794.89 L648.297 1794.89 L648.297 1798.82 L626.353 1798.82 L626.353 1794.89 Q629.015 1792.13 633.598 1787.5 Q638.205 1782.85 639.385 1781.51 Q641.631 1778.98 642.51 1777.25 Q643.413 1775.49 643.413 1773.8 Q643.413 1771.04 641.469 1769.31 Q639.547 1767.57 636.445 1767.57 Q634.246 1767.57 631.793 1768.34 Q629.362 1769.1 626.584 1770.65 L626.584 1765.93 Q629.408 1764.79 631.862 1764.21 Q634.316 1763.64 636.353 1763.64 Q641.723 1763.64 644.918 1766.32 Q648.112 1769.01 648.112 1773.5 Q648.112 1775.63 647.302 1777.55 Q646.515 1779.45 644.408 1782.04 Q643.83 1782.71 640.728 1785.93 Q637.626 1789.12 631.978 1794.89 Z" fill="#000000" fill-rule="nonzero" fill-opacity="1" /><path clip-path="url(#clip910)" d="M1055.18 1767.34 Q1051.57 1767.34 1049.74 1770.9 Q1047.93 1774.45 1047.93 1781.58 Q1047.93 1788.68 1049.74 1792.25 Q1051.57 1795.79 1055.18 1795.79 Q1058.81 1795.79 1060.62 1792.25 Q1062.45 1788.68 1062.45 1781.58 Q1062.45 1774.45 1060.62 1770.9 Q1058.81 1767.34 1055.18 1767.34 M1055.18 1763.64 Q1060.99 1763.64 1064.05 1768.24 Q1067.12 1772.83 1067.12 1781.58 Q1067.12 1790.3 1064.05 1794.91 Q1060.99 1799.49 1055.18 1799.49 Q1049.37 1799.49 1046.29 1794.91 Q1043.23 1790.3 1043.23 1781.58 Q1043.23 1772.83 1046.29 1768.24 Q1049.37 1763.64 1055.18 1763.64 Z" fill="#000000" fill-rule="nonzero" fill-opacity="1" /><path clip-path="url(#clip910)" d="M1075.34 1792.94 L1080.23 1792.94 L1080.23 1798.82 L1075.34 1798.82 L1075.34 1792.94 Z" fill="#000000" fill-rule="nonzero" fill-opacity="1" /><path clip-path="url(#clip910)" d="M1100.41 1767.34 Q1096.8 1767.34 1094.97 1770.9 Q1093.17 1774.45 1093.17 1781.58 Q1093.17 1788.68 1094.97 1792.25 Q1096.8 1795.79 1100.41 1795.79 Q1104.04 1795.79 1105.85 1792.25 Q1107.68 1788.68 1107.68 1781.58 Q1107.68 1774.45 1105.85 1770.9 Q1104.04 1767.34 1100.41 1767.34 M1100.41 1763.64 Q1106.22 1763.64 1109.28 1768.24 Q1112.35 1772.83 1112.35 1781.58 Q1112.35 1790.3 1109.28 1794.91 Q1106.22 1799.49 1100.41 1799.49 Q1094.6 1799.49 1091.52 1794.91 Q1088.47 1790.3 1088.47 1781.58 Q1088.47 1772.83 1091.52 1768.24 Q1094.6 1763.64 1100.41 1763.64 Z" fill="#000000" fill-rule="nonzero" fill-opacity="1" /><path clip-path="url(#clip910)" d="M1133.42 1768.34 L1121.61 1786.78 L1133.42 1786.78 L1133.42 1768.34 M1132.19 1764.26 L1138.07 1764.26 L1138.07 1786.78 L1143 1786.78 L1143 1790.67 L1138.07 1790.67 L1138.07 1798.82 L1133.42 1798.82 L1133.42 1790.67 L1117.82 1790.67 L1117.82 1786.16 L1132.19 1764.26 Z" fill="#000000" fill-rule="nonzero" fill-opacity="1" /><path clip-path="url(#clip910)" d="M1549.01 1767.34 Q1545.39 1767.34 1543.57 1770.9 Q1541.76 1774.45 1541.76 1781.58 Q1541.76 1788.68 1543.57 1792.25 Q1545.39 1795.79 1549.01 1795.79 Q1552.64 1795.79 1554.45 1792.25 Q1556.27 1788.68 1556.27 1781.58 Q1556.27 1774.45 1554.45 1770.9 Q1552.64 1767.34 1549.01 1767.34 M1549.01 1763.64 Q1554.82 1763.64 1557.87 1768.24 Q1560.95 1772.83 1560.95 1781.58 Q1560.95 1790.3 1557.87 1794.91 Q1554.82 1799.49 1549.01 1799.49 Q1543.2 1799.49 1540.12 1794.91 Q1537.06 1790.3 1537.06 1781.58 Q1537.06 1772.83 1540.12 1768.24 Q1543.2 1763.64 1549.01 1763.64 Z" fill="#000000" fill-rule="nonzero" fill-opacity="1" /><path clip-path="url(#clip910)" d="M1569.17 1792.94 L1574.05 1792.94 L1574.05 1798.82 L1569.17 1798.82 L1569.17 1792.94 Z" fill="#000000" fill-rule="nonzero" fill-opacity="1" /><path clip-path="url(#clip910)" d="M1594.24 1767.34 Q1590.63 1767.34 1588.8 1770.9 Q1586.99 1774.45 1586.99 1781.58 Q1586.99 1788.68 1588.8 1792.25 Q1590.63 1795.79 1594.24 1795.79 Q1597.87 1795.79 1599.68 1792.25 Q1601.51 1788.68 1601.51 1781.58 Q1601.51 1774.45 1599.68 1770.9 Q1597.87 1767.34 1594.24 1767.34 M1594.24 1763.64 Q1600.05 1763.64 1603.1 1768.24 Q1606.18 1772.83 1606.18 1781.58 Q1606.18 1790.3 1603.1 1794.91 Q1600.05 1799.49 1594.24 1799.49 Q1588.43 1799.49 1585.35 1794.91 Q1582.29 1790.3 1582.29 1781.58 Q1582.29 1772.83 1585.35 1768.24 Q1588.43 1763.64 1594.24 1763.64 Z" fill="#000000" fill-rule="nonzero" fill-opacity="1" /><path clip-path="url(#clip910)" d="M1624.98 1779.68 Q1621.83 1779.68 1619.98 1781.83 Q1618.15 1783.98 1618.15 1787.73 Q1618.15 1791.46 1619.98 1793.64 Q1621.83 1795.79 1624.98 1795.79 Q1628.13 1795.79 1629.95 1793.64 Q1631.81 1791.46 1631.81 1787.73 Q1631.81 1783.98 1629.95 1781.83 Q1628.13 1779.68 1624.98 1779.68 M1634.26 1765.02 L1634.26 1769.28 Q1632.5 1768.45 1630.69 1768.01 Q1628.91 1767.57 1627.15 1767.57 Q1622.52 1767.57 1620.07 1770.7 Q1617.64 1773.82 1617.29 1780.14 Q1618.66 1778.13 1620.72 1777.06 Q1622.78 1775.97 1625.26 1775.97 Q1630.46 1775.97 1633.47 1779.15 Q1636.51 1782.29 1636.51 1787.73 Q1636.51 1793.06 1633.36 1796.27 Q1630.21 1799.49 1624.98 1799.49 Q1618.98 1799.49 1615.81 1794.91 Q1612.64 1790.3 1612.64 1781.58 Q1612.64 1773.38 1616.53 1768.52 Q1620.42 1763.64 1626.97 1763.64 Q1628.73 1763.64 1630.51 1763.98 Q1632.32 1764.33 1634.26 1765.02 Z" fill="#000000" fill-rule="nonzero" fill-opacity="1" /><path clip-path="url(#clip910)" d="M2042.8 1767.34 Q2039.19 1767.34 2037.36 1770.9 Q2035.55 1774.45 2035.55 1781.58 Q2035.55 1788.68 2037.36 1792.25 Q2039.19 1795.79 2042.8 1795.79 Q2046.43 1795.79 2048.24 1792.25 Q2050.07 1788.68 2050.07 1781.58 Q2050.07 1774.45 2048.24 1770.9 Q2046.43 1767.34 2042.8 1767.34 M2042.8 1763.64 Q2048.61 1763.64 2051.66 1768.24 Q2054.74 1772.83 2054.74 1781.58 Q2054.74 1790.3 2051.66 1794.91 Q2048.61 1799.49 2042.8 1799.49 Q2036.99 1799.49 2033.91 1794.91 Q2030.85 1790.3 2030.85 1781.58 Q2030.85 1772.83 2033.91 1768.24 Q2036.99 1763.64 2042.8 1763.64 Z" fill="#000000" fill-rule="nonzero" fill-opacity="1" /><path clip-path="url(#clip910)" d="M2062.96 1792.94 L2067.84 1792.94 L2067.84 1798.82 L2062.96 1798.82 L2062.96 1792.94 Z" fill="#000000" fill-rule="nonzero" fill-opacity="1" /><path clip-path="url(#clip910)" d="M2088.03 1767.34 Q2084.42 1767.34 2082.59 1770.9 Q2080.78 1774.45 2080.78 1781.58 Q2080.78 1788.68 2082.59 1792.25 Q2084.42 1795.79 2088.03 1795.79 Q2091.66 1795.79 2093.47 1792.25 Q2095.3 1788.68 2095.3 1781.58 Q2095.3 1774.45 2093.47 1770.9 Q2091.66 1767.34 2088.03 1767.34 M2088.03 1763.64 Q2093.84 1763.64 2096.89 1768.24 Q2099.97 1772.83 2099.97 1781.58 Q2099.97 1790.3 2096.89 1794.91 Q2093.84 1799.49 2088.03 1799.49 Q2082.22 1799.49 2079.14 1794.91 Q2076.08 1790.3 2076.08 1781.58 Q2076.08 1772.83 2079.14 1768.24 Q2082.22 1763.64 2088.03 1763.64 Z" fill="#000000" fill-rule="nonzero" fill-opacity="1" /><path clip-path="url(#clip910)" d="M2118.19 1782.41 Q2114.86 1782.41 2112.94 1784.19 Q2111.04 1785.97 2111.04 1789.1 Q2111.04 1792.22 2112.94 1794.01 Q2114.86 1795.79 2118.19 1795.79 Q2121.52 1795.79 2123.44 1794.01 Q2125.37 1792.2 2125.37 1789.1 Q2125.37 1785.97 2123.44 1784.19 Q2121.55 1782.41 2118.19 1782.41 M2113.51 1780.42 Q2110.5 1779.68 2108.82 1777.62 Q2107.15 1775.56 2107.15 1772.59 Q2107.15 1768.45 2110.09 1766.04 Q2113.05 1763.64 2118.19 1763.64 Q2123.35 1763.64 2126.29 1766.04 Q2129.23 1768.45 2129.23 1772.59 Q2129.23 1775.56 2127.54 1777.62 Q2125.88 1779.68 2122.89 1780.42 Q2126.27 1781.21 2128.14 1783.5 Q2130.04 1785.79 2130.04 1789.1 Q2130.04 1794.12 2126.96 1796.81 Q2123.91 1799.49 2118.19 1799.49 Q2112.47 1799.49 2109.39 1796.81 Q2106.34 1794.12 2106.34 1789.1 Q2106.34 1785.79 2108.24 1783.5 Q2110.13 1781.21 2113.51 1780.42 M2111.8 1773.03 Q2111.8 1775.72 2113.47 1777.22 Q2115.16 1778.73 2118.19 1778.73 Q2121.2 1778.73 2122.89 1777.22 Q2124.6 1775.72 2124.6 1773.03 Q2124.6 1770.35 2122.89 1768.84 Q2121.2 1767.34 2118.19 1767.34 Q2115.16 1767.34 2113.47 1768.84 Q2111.8 1770.35 2111.8 1773.03 Z" fill="#000000" fill-rule="nonzero" fill-opacity="1" /><path clip-path="url(#clip910)" d="M2536.41 1767.34 Q2532.8 1767.34 2530.97 1770.9 Q2529.17 1774.45 2529.17 1781.58 Q2529.17 1788.68 2530.97 1792.25 Q2532.8 1795.79 2536.41 1795.79 Q2540.05 1795.79 2541.85 1792.25 Q2543.68 1788.68 2543.68 1781.58 Q2543.68 1774.45 2541.85 1770.9 Q2540.05 1767.34 2536.41 1767.34 M2536.41 1763.64 Q2542.22 1763.64 2545.28 1768.24 Q2548.36 1772.83 2548.36 1781.58 Q2548.36 1790.3 2545.28 1794.91 Q2542.22 1799.49 2536.41 1799.49 Q2530.6 1799.49 2527.53 1794.91 Q2524.47 1790.3 2524.47 1781.58 Q2524.47 1772.83 2527.53 1768.24 Q2530.6 1763.64 2536.41 1763.64 Z" fill="#000000" fill-rule="nonzero" fill-opacity="1" /><path clip-path="url(#clip910)" d="M2556.58 1792.94 L2561.46 1792.94 L2561.46 1798.82 L2556.58 1798.82 L2556.58 1792.94 Z" fill="#000000" fill-rule="nonzero" fill-opacity="1" /><path clip-path="url(#clip910)" d="M2572.46 1794.89 L2580.1 1794.89 L2580.1 1768.52 L2571.78 1770.19 L2571.78 1765.93 L2580.05 1764.26 L2584.72 1764.26 L2584.72 1794.89 L2592.36 1794.89 L2592.36 1798.82 L2572.46 1798.82 L2572.46 1794.89 Z" fill="#000000" fill-rule="nonzero" fill-opacity="1" /><path clip-path="url(#clip910)" d="M2611.81 1767.34 Q2608.2 1767.34 2606.37 1770.9 Q2604.56 1774.45 2604.56 1781.58 Q2604.56 1788.68 2606.37 1792.25 Q2608.2 1795.79 2611.81 1795.79 Q2615.44 1795.79 2617.25 1792.25 Q2619.08 1788.68 2619.08 1781.58 Q2619.08 1774.45 2617.25 1770.9 Q2615.44 1767.34 2611.81 1767.34 M2611.81 1763.64 Q2617.62 1763.64 2620.67 1768.24 Q2623.75 1772.83 2623.75 1781.58 Q2623.75 1790.3 2620.67 1794.91 Q2617.62 1799.49 2611.81 1799.49 Q2606 1799.49 2602.92 1794.91 Q2599.86 1790.3 2599.86 1781.58 Q2599.86 1772.83 2602.92 1768.24 Q2606 1763.64 2611.81 1763.64 Z" fill="#000000" fill-rule="nonzero" fill-opacity="1" /><path clip-path="url(#clip910)" d="M1400.79 1860.61 L1400.79 1878.02 L1411.1 1878.02 Q1416.29 1878.02 1418.78 1875.88 Q1421.29 1873.72 1421.29 1869.3 Q1421.29 1864.84 1418.78 1862.74 Q1416.29 1860.61 1411.1 1860.61 L1400.79 1860.61 M1400.79 1841.06 L1400.79 1855.39 L1410.31 1855.39 Q1415.02 1855.39 1417.31 1853.64 Q1419.63 1851.85 1419.63 1848.23 Q1419.63 1844.63 1417.31 1842.85 Q1415.02 1841.06 1410.31 1841.06 L1400.79 1841.06 M1394.36 1835.78 L1410.79 1835.78 Q1418.14 1835.78 1422.12 1838.84 Q1426.1 1841.89 1426.1 1847.53 Q1426.1 1851.89 1424.06 1854.46 Q1422.02 1857.04 1418.08 1857.68 Q1422.82 1858.7 1425.43 1861.94 Q1428.07 1865.16 1428.07 1870 Q1428.07 1876.36 1423.74 1879.83 Q1419.41 1883.3 1411.42 1883.3 L1394.36 1883.3 L1394.36 1835.78 Z" fill="#000000" fill-rule="nonzero" fill-opacity="1" /><path clip-path="url(#clip910)" d="M1469.32 1864.01 L1469.32 1866.88 L1442.39 1866.88 Q1442.77 1872.92 1446.02 1876.11 Q1449.3 1879.26 1455.12 1879.26 Q1458.5 1879.26 1461.65 1878.43 Q1464.83 1877.6 1467.95 1875.95 L1467.95 1881.49 Q1464.8 1882.82 1461.49 1883.52 Q1458.18 1884.22 1454.77 1884.22 Q1446.24 1884.22 1441.25 1879.26 Q1436.28 1874.29 1436.28 1865.83 Q1436.28 1857.07 1440.99 1851.95 Q1445.73 1846.79 1453.75 1846.79 Q1460.95 1846.79 1465.12 1851.44 Q1469.32 1856.06 1469.32 1864.01 M1463.46 1862.29 Q1463.4 1857.49 1460.76 1854.62 Q1458.15 1851.76 1453.82 1851.76 Q1448.92 1851.76 1445.96 1854.53 Q1443.03 1857.3 1442.58 1862.33 L1463.46 1862.29 Z" fill="#000000" fill-rule="nonzero" fill-opacity="1" /><path clip-path="url(#clip910)" d="M1484.72 1837.53 L1484.72 1847.65 L1496.79 1847.65 L1496.79 1852.2 L1484.72 1852.2 L1484.72 1871.56 Q1484.72 1875.92 1485.9 1877.16 Q1487.11 1878.4 1490.77 1878.4 L1496.79 1878.4 L1496.79 1883.3 L1490.77 1883.3 Q1483.99 1883.3 1481.41 1880.79 Q1478.84 1878.24 1478.84 1871.56 L1478.84 1852.2 L1474.54 1852.2 L1474.54 1847.65 L1478.84 1847.65 L1478.84 1837.53 L1484.72 1837.53 Z" fill="#000000" fill-rule="nonzero" fill-opacity="1" /><path clip-path="url(#clip910)" d="M1520.69 1865.38 Q1513.59 1865.38 1510.86 1867 Q1508.12 1868.63 1508.12 1872.54 Q1508.12 1875.66 1510.15 1877.51 Q1512.22 1879.32 1515.76 1879.32 Q1520.63 1879.32 1523.55 1875.88 Q1526.51 1872.42 1526.51 1866.69 L1526.51 1865.38 L1520.69 1865.38 M1532.37 1862.96 L1532.37 1883.3 L1526.51 1883.3 L1526.51 1877.89 Q1524.51 1881.14 1521.52 1882.7 Q1518.53 1884.22 1514.2 1884.22 Q1508.72 1884.22 1505.48 1881.17 Q1502.26 1878.08 1502.26 1872.92 Q1502.26 1866.91 1506.27 1863.85 Q1510.31 1860.8 1518.3 1860.8 L1526.51 1860.8 L1526.51 1860.23 Q1526.51 1856.18 1523.84 1853.99 Q1521.2 1851.76 1516.39 1851.76 Q1513.34 1851.76 1510.44 1852.49 Q1507.55 1853.22 1504.87 1854.69 L1504.87 1849.28 Q1508.09 1848.03 1511.11 1847.43 Q1514.13 1846.79 1517 1846.79 Q1524.73 1846.79 1528.55 1850.8 Q1532.37 1854.81 1532.37 1862.96 Z" fill="#000000" fill-rule="nonzero" fill-opacity="1" /><polyline clip-path="url(#clip910)" style="stroke:#000000; stroke-linecap:round; stroke-linejoin:round; stroke-width:4; stroke-opacity:1; fill:none" points="285.978,1734.12 285.978,127.792 "/>
<polyline clip-path="url(#clip910)" style="stroke:#000000; stroke-linecap:round; stroke-linejoin:round; stroke-width:4; stroke-opacity:1; fill:none" points="285.978,1688.65 304.876,1688.65 "/>
<polyline clip-path="url(#clip910)" style="stroke:#000000; stroke-linecap:round; stroke-linejoin:round; stroke-width:4; stroke-opacity:1; fill:none" points="285.978,1200.14 304.876,1200.14 "/>
<polyline clip-path="url(#clip910)" style="stroke:#000000; stroke-linecap:round; stroke-linejoin:round; stroke-width:4; stroke-opacity:1; fill:none" points="285.978,711.629 304.876,711.629 "/>
<polyline clip-path="url(#clip910)" style="stroke:#000000; stroke-linecap:round; stroke-linejoin:round; stroke-width:4; stroke-opacity:1; fill:none" points="285.978,223.116 304.876,223.116 "/>
<path clip-path="url(#clip910)" d="M128.159 1674.45 Q124.548 1674.45 122.719 1678.02 Q120.913 1681.56 120.913 1688.69 Q120.913 1695.8 122.719 1699.36 Q124.548 1702.9 128.159 1702.9 Q131.793 1702.9 133.599 1699.36 Q135.427 1695.8 135.427 1688.69 Q135.427 1681.56 133.599 1678.02 Q131.793 1674.45 128.159 1674.45 M128.159 1670.75 Q133.969 1670.75 137.025 1675.36 Q140.103 1679.94 140.103 1688.69 Q140.103 1697.42 137.025 1702.02 Q133.969 1706.61 128.159 1706.61 Q122.349 1706.61 119.27 1702.02 Q116.214 1697.42 116.214 1688.69 Q116.214 1679.94 119.27 1675.36 Q122.349 1670.75 128.159 1670.75 Z" fill="#000000" fill-rule="nonzero" fill-opacity="1" /><path clip-path="url(#clip910)" d="M148.321 1700.06 L153.205 1700.06 L153.205 1705.93 L148.321 1705.93 L148.321 1700.06 Z" fill="#000000" fill-rule="nonzero" fill-opacity="1" /><path clip-path="url(#clip910)" d="M173.39 1674.45 Q169.779 1674.45 167.95 1678.02 Q166.145 1681.56 166.145 1688.69 Q166.145 1695.8 167.95 1699.36 Q169.779 1702.9 173.39 1702.9 Q177.024 1702.9 178.83 1699.36 Q180.659 1695.8 180.659 1688.69 Q180.659 1681.56 178.83 1678.02 Q177.024 1674.45 173.39 1674.45 M173.39 1670.75 Q179.2 1670.75 182.256 1675.36 Q185.334 1679.94 185.334 1688.69 Q185.334 1697.42 182.256 1702.02 Q179.2 1706.61 173.39 1706.61 Q167.58 1706.61 164.501 1702.02 Q161.446 1697.42 161.446 1688.69 Q161.446 1679.94 164.501 1675.36 Q167.58 1670.75 173.39 1670.75 Z" fill="#000000" fill-rule="nonzero" fill-opacity="1" /><path clip-path="url(#clip910)" d="M203.552 1674.45 Q199.941 1674.45 198.112 1678.02 Q196.307 1681.56 196.307 1688.69 Q196.307 1695.8 198.112 1699.36 Q199.941 1702.9 203.552 1702.9 Q207.186 1702.9 208.992 1699.36 Q210.82 1695.8 210.82 1688.69 Q210.82 1681.56 208.992 1678.02 Q207.186 1674.45 203.552 1674.45 M203.552 1670.75 Q209.362 1670.75 212.418 1675.36 Q215.496 1679.94 215.496 1688.69 Q215.496 1697.42 212.418 1702.02 Q209.362 1706.61 203.552 1706.61 Q197.742 1706.61 194.663 1702.02 Q191.608 1697.42 191.608 1688.69 Q191.608 1679.94 194.663 1675.36 Q197.742 1670.75 203.552 1670.75 Z" fill="#000000" fill-rule="nonzero" fill-opacity="1" /><path clip-path="url(#clip910)" d="M233.714 1674.45 Q230.103 1674.45 228.274 1678.02 Q226.468 1681.56 226.468 1688.69 Q226.468 1695.8 228.274 1699.36 Q230.103 1702.9 233.714 1702.9 Q237.348 1702.9 239.154 1699.36 Q240.982 1695.8 240.982 1688.69 Q240.982 1681.56 239.154 1678.02 Q237.348 1674.45 233.714 1674.45 M233.714 1670.75 Q239.524 1670.75 242.58 1675.36 Q245.658 1679.94 245.658 1688.69 Q245.658 1697.42 242.58 1702.02 Q239.524 1706.61 233.714 1706.61 Q227.904 1706.61 224.825 1702.02 Q221.769 1697.42 221.769 1688.69 Q221.769 1679.94 224.825 1675.36 Q227.904 1670.75 233.714 1670.75 Z" fill="#000000" fill-rule="nonzero" fill-opacity="1" /><path clip-path="url(#clip910)" d="M129.154 1185.94 Q125.543 1185.94 123.714 1189.51 Q121.909 1193.05 121.909 1200.18 Q121.909 1207.28 123.714 1210.85 Q125.543 1214.39 129.154 1214.39 Q132.788 1214.39 134.594 1210.85 Q136.423 1207.28 136.423 1200.18 Q136.423 1193.05 134.594 1189.51 Q132.788 1185.94 129.154 1185.94 M129.154 1182.24 Q134.964 1182.24 138.02 1186.84 Q141.099 1191.43 141.099 1200.18 Q141.099 1208.9 138.02 1213.51 Q134.964 1218.09 129.154 1218.09 Q123.344 1218.09 120.265 1213.51 Q117.21 1208.9 117.21 1200.18 Q117.21 1191.43 120.265 1186.84 Q123.344 1182.24 129.154 1182.24 Z" fill="#000000" fill-rule="nonzero" fill-opacity="1" /><path clip-path="url(#clip910)" d="M149.316 1211.54 L154.2 1211.54 L154.2 1217.42 L149.316 1217.42 L149.316 1211.54 Z" fill="#000000" fill-rule="nonzero" fill-opacity="1" /><path clip-path="url(#clip910)" d="M174.385 1185.94 Q170.774 1185.94 168.946 1189.51 Q167.14 1193.05 167.14 1200.18 Q167.14 1207.28 168.946 1210.85 Q170.774 1214.39 174.385 1214.39 Q178.02 1214.39 179.825 1210.85 Q181.654 1207.28 181.654 1200.18 Q181.654 1193.05 179.825 1189.51 Q178.02 1185.94 174.385 1185.94 M174.385 1182.24 Q180.196 1182.24 183.251 1186.84 Q186.33 1191.43 186.33 1200.18 Q186.33 1208.9 183.251 1213.51 Q180.196 1218.09 174.385 1218.09 Q168.575 1218.09 165.497 1213.51 Q162.441 1208.9 162.441 1200.18 Q162.441 1191.43 165.497 1186.84 Q168.575 1182.24 174.385 1182.24 Z" fill="#000000" fill-rule="nonzero" fill-opacity="1" /><path clip-path="url(#clip910)" d="M204.547 1185.94 Q200.936 1185.94 199.108 1189.51 Q197.302 1193.05 197.302 1200.18 Q197.302 1207.28 199.108 1210.85 Q200.936 1214.39 204.547 1214.39 Q208.182 1214.39 209.987 1210.85 Q211.816 1207.28 211.816 1200.18 Q211.816 1193.05 209.987 1189.51 Q208.182 1185.94 204.547 1185.94 M204.547 1182.24 Q210.357 1182.24 213.413 1186.84 Q216.492 1191.43 216.492 1200.18 Q216.492 1208.9 213.413 1213.51 Q210.357 1218.09 204.547 1218.09 Q198.737 1218.09 195.658 1213.51 Q192.603 1208.9 192.603 1200.18 Q192.603 1191.43 195.658 1186.84 Q198.737 1182.24 204.547 1182.24 Z" fill="#000000" fill-rule="nonzero" fill-opacity="1" /><path clip-path="url(#clip910)" d="M224.756 1182.86 L243.112 1182.86 L243.112 1186.8 L229.038 1186.8 L229.038 1195.27 Q230.056 1194.92 231.075 1194.76 Q232.093 1194.57 233.112 1194.57 Q238.899 1194.57 242.279 1197.75 Q245.658 1200.92 245.658 1206.33 Q245.658 1211.91 242.186 1215.01 Q238.714 1218.09 232.394 1218.09 Q230.218 1218.09 227.95 1217.72 Q225.705 1217.35 223.297 1216.61 L223.297 1211.91 Q225.381 1213.05 227.603 1213.6 Q229.825 1214.16 232.302 1214.16 Q236.306 1214.16 238.644 1212.05 Q240.982 1209.95 240.982 1206.33 Q240.982 1202.72 238.644 1200.62 Q236.306 1198.51 232.302 1198.51 Q230.427 1198.51 228.552 1198.93 Q226.7 1199.34 224.756 1200.22 L224.756 1182.86 Z" fill="#000000" fill-rule="nonzero" fill-opacity="1" /><path clip-path="url(#clip910)" d="M128.159 697.428 Q124.548 697.428 122.719 700.992 Q120.913 704.534 120.913 711.664 Q120.913 718.77 122.719 722.335 Q124.548 725.876 128.159 725.876 Q131.793 725.876 133.599 722.335 Q135.427 718.77 135.427 711.664 Q135.427 704.534 133.599 700.992 Q131.793 697.428 128.159 697.428 M128.159 693.724 Q133.969 693.724 137.025 698.33 Q140.103 702.914 140.103 711.664 Q140.103 720.39 137.025 724.997 Q133.969 729.58 128.159 729.58 Q122.349 729.58 119.27 724.997 Q116.214 720.39 116.214 711.664 Q116.214 702.914 119.27 698.33 Q122.349 693.724 128.159 693.724 Z" fill="#000000" fill-rule="nonzero" fill-opacity="1" /><path clip-path="url(#clip910)" d="M148.321 723.029 L153.205 723.029 L153.205 728.909 L148.321 728.909 L148.321 723.029 Z" fill="#000000" fill-rule="nonzero" fill-opacity="1" /><path clip-path="url(#clip910)" d="M173.39 697.428 Q169.779 697.428 167.95 700.992 Q166.145 704.534 166.145 711.664 Q166.145 718.77 167.95 722.335 Q169.779 725.876 173.39 725.876 Q177.024 725.876 178.83 722.335 Q180.659 718.77 180.659 711.664 Q180.659 704.534 178.83 700.992 Q177.024 697.428 173.39 697.428 M173.39 693.724 Q179.2 693.724 182.256 698.33 Q185.334 702.914 185.334 711.664 Q185.334 720.39 182.256 724.997 Q179.2 729.58 173.39 729.58 Q167.58 729.58 164.501 724.997 Q161.446 720.39 161.446 711.664 Q161.446 702.914 164.501 698.33 Q167.58 693.724 173.39 693.724 Z" fill="#000000" fill-rule="nonzero" fill-opacity="1" /><path clip-path="url(#clip910)" d="M194.362 724.974 L202.001 724.974 L202.001 698.608 L193.691 700.275 L193.691 696.016 L201.955 694.349 L206.631 694.349 L206.631 724.974 L214.269 724.974 L214.269 728.909 L194.362 728.909 L194.362 724.974 Z" fill="#000000" fill-rule="nonzero" fill-opacity="1" /><path clip-path="url(#clip910)" d="M233.714 697.428 Q230.103 697.428 228.274 700.992 Q226.468 704.534 226.468 711.664 Q226.468 718.77 228.274 722.335 Q230.103 725.876 233.714 725.876 Q237.348 725.876 239.154 722.335 Q240.982 718.77 240.982 711.664 Q240.982 704.534 239.154 700.992 Q237.348 697.428 233.714 697.428 M233.714 693.724 Q239.524 693.724 242.58 698.33 Q245.658 702.914 245.658 711.664 Q245.658 720.39 242.58 724.997 Q239.524 729.58 233.714 729.58 Q227.904 729.58 224.825 724.997 Q221.769 720.39 221.769 711.664 Q221.769 702.914 224.825 698.33 Q227.904 693.724 233.714 693.724 Z" fill="#000000" fill-rule="nonzero" fill-opacity="1" /><path clip-path="url(#clip910)" d="M129.154 208.915 Q125.543 208.915 123.714 212.479 Q121.909 216.021 121.909 223.151 Q121.909 230.257 123.714 233.822 Q125.543 237.363 129.154 237.363 Q132.788 237.363 134.594 233.822 Q136.423 230.257 136.423 223.151 Q136.423 216.021 134.594 212.479 Q132.788 208.915 129.154 208.915 M129.154 205.211 Q134.964 205.211 138.02 209.817 Q141.099 214.401 141.099 223.151 Q141.099 231.877 138.02 236.484 Q134.964 241.067 129.154 241.067 Q123.344 241.067 120.265 236.484 Q117.21 231.877 117.21 223.151 Q117.21 214.401 120.265 209.817 Q123.344 205.211 129.154 205.211 Z" fill="#000000" fill-rule="nonzero" fill-opacity="1" /><path clip-path="url(#clip910)" d="M149.316 234.516 L154.2 234.516 L154.2 240.396 L149.316 240.396 L149.316 234.516 Z" fill="#000000" fill-rule="nonzero" fill-opacity="1" /><path clip-path="url(#clip910)" d="M174.385 208.915 Q170.774 208.915 168.946 212.479 Q167.14 216.021 167.14 223.151 Q167.14 230.257 168.946 233.822 Q170.774 237.363 174.385 237.363 Q178.02 237.363 179.825 233.822 Q181.654 230.257 181.654 223.151 Q181.654 216.021 179.825 212.479 Q178.02 208.915 174.385 208.915 M174.385 205.211 Q180.196 205.211 183.251 209.817 Q186.33 214.401 186.33 223.151 Q186.33 231.877 183.251 236.484 Q180.196 241.067 174.385 241.067 Q168.575 241.067 165.497 236.484 Q162.441 231.877 162.441 223.151 Q162.441 214.401 165.497 209.817 Q168.575 205.211 174.385 205.211 Z" fill="#000000" fill-rule="nonzero" fill-opacity="1" /><path clip-path="url(#clip910)" d="M195.358 236.461 L202.996 236.461 L202.996 210.095 L194.686 211.762 L194.686 207.502 L202.95 205.836 L207.626 205.836 L207.626 236.461 L215.265 236.461 L215.265 240.396 L195.358 240.396 L195.358 236.461 Z" fill="#000000" fill-rule="nonzero" fill-opacity="1" /><path clip-path="url(#clip910)" d="M224.756 205.836 L243.112 205.836 L243.112 209.771 L229.038 209.771 L229.038 218.243 Q230.056 217.896 231.075 217.734 Q232.093 217.549 233.112 217.549 Q238.899 217.549 242.279 220.72 Q245.658 223.891 245.658 229.308 Q245.658 234.887 242.186 237.988 Q238.714 241.067 232.394 241.067 Q230.218 241.067 227.95 240.697 Q225.705 240.326 223.297 239.586 L223.297 234.887 Q225.381 236.021 227.603 236.576 Q229.825 237.132 232.302 237.132 Q236.306 237.132 238.644 235.026 Q240.982 232.919 240.982 229.308 Q240.982 225.697 238.644 223.59 Q236.306 221.484 232.302 221.484 Q230.427 221.484 228.552 221.901 Q226.7 222.317 224.756 223.197 L224.756 205.836 Z" fill="#000000" fill-rule="nonzero" fill-opacity="1" /><path clip-path="url(#clip910)" d="M14.1184 1077.41 L14.1184 1067.83 L46.4562 1055.71 L14.1184 1043.52 L14.1184 1033.94 L61.6384 1033.94 L61.6384 1040.21 L19.9112 1040.21 L52.5037 1052.46 L52.5037 1058.92 L19.9112 1071.18 L61.6384 1071.18 L61.6384 1077.41 L14.1184 1077.41 Z" fill="#000000" fill-rule="nonzero" fill-opacity="1" /><path clip-path="url(#clip910)" d="M15.678 992.686 L21.9483 992.686 Q20.1977 996.346 19.3383 999.593 Q18.479 1002.84 18.479 1005.86 Q18.479 1011.11 20.516 1013.98 Q22.553 1016.81 26.3088 1016.81 Q29.4598 1016.81 31.0831 1014.93 Q32.6745 1013.02 33.6612 1007.74 L34.4569 1003.86 Q35.8255 996.665 39.2948 993.259 Q42.7323 989.821 48.5251 989.821 Q55.4319 989.821 58.9967 994.468 Q62.5615 999.084 62.5615 1008.03 Q62.5615 1011.4 61.7976 1015.22 Q61.0337 1019.01 59.5378 1023.08 L52.9174 1023.08 Q55.1136 1019.17 56.2276 1015.41 Q57.3416 1011.66 57.3416 1008.03 Q57.3416 1002.52 55.1773 999.529 Q53.0129 996.537 49.0025 996.537 Q45.5014 996.537 43.528 998.702 Q41.5546 1000.83 40.568 1005.74 L39.8041 1009.65 Q38.3718 1016.84 35.3162 1020.06 Q32.2607 1023.27 26.818 1023.27 Q20.516 1023.27 16.8875 1018.85 Q13.2591 1014.39 13.2591 1006.6 Q13.2591 1003.25 13.8638 999.784 Q14.4686 996.314 15.678 992.686 Z" fill="#000000" fill-rule="nonzero" fill-opacity="1" /><path clip-path="url(#clip910)" d="M14.1184 979.795 L14.1184 949.749 L19.5293 949.749 L19.5293 973.366 L33.5975 973.366 L33.5975 950.736 L39.0084 950.736 L39.0084 973.366 L56.2276 973.366 L56.2276 949.176 L61.6384 949.176 L61.6384 979.795 L14.1184 979.795 Z" fill="#000000" fill-rule="nonzero" fill-opacity="1" /><path clip-path="url(#clip910)" d="M14.1184 917.889 L14.1184 911.46 L56.2276 911.46 L56.2276 888.32 L61.6384 888.32 L61.6384 917.889 L14.1184 917.889 Z" fill="#000000" fill-rule="nonzero" fill-opacity="1" /><path clip-path="url(#clip910)" d="M30.0964 869.159 Q30.0964 873.87 33.7885 876.607 Q37.4488 879.345 43.8463 879.345 Q50.2438 879.345 53.9359 876.639 Q57.5962 873.902 57.5962 869.159 Q57.5962 864.481 53.9041 861.743 Q50.212 859.006 43.8463 859.006 Q37.5124 859.006 33.8203 861.743 Q30.0964 864.481 30.0964 869.159 M25.1311 869.159 Q25.1311 861.521 30.0964 857.16 Q35.0616 852.8 43.8463 852.8 Q52.5991 852.8 57.5962 857.16 Q62.5615 861.521 62.5615 869.159 Q62.5615 876.83 57.5962 881.191 Q52.5991 885.519 43.8463 885.519 Q35.0616 885.519 30.0964 881.191 Q25.1311 876.83 25.1311 869.159 Z" fill="#000000" fill-rule="nonzero" fill-opacity="1" /><path clip-path="url(#clip910)" d="M27.0408 820.366 L32.579 820.366 Q31.3059 822.849 30.6693 825.523 Q30.0327 828.196 30.0327 831.061 Q30.0327 835.421 31.3695 837.617 Q32.7063 839.782 35.3799 839.782 Q37.4169 839.782 38.5946 838.222 Q39.7404 836.663 40.7908 831.952 L41.2364 829.947 Q42.5732 823.708 45.0239 821.098 Q47.4429 818.457 51.8034 818.457 Q56.7687 818.457 59.6651 822.403 Q62.5615 826.318 62.5615 833.193 Q62.5615 836.058 61.9886 839.177 Q61.4475 842.264 60.3335 845.702 L54.2861 845.702 Q55.973 842.455 56.8323 839.304 Q57.6599 836.153 57.6599 833.066 Q57.6599 828.928 56.2594 826.7 Q54.8271 824.472 52.249 824.472 Q49.8619 824.472 48.5887 826.095 Q47.3156 827.687 46.1379 833.13 L45.6605 835.167 Q44.5147 840.609 42.1594 843.028 Q39.7722 845.447 35.6345 845.447 Q30.6056 845.447 27.8684 841.882 Q25.1311 838.318 25.1311 831.761 Q25.1311 828.514 25.6085 825.65 Q26.086 822.785 27.0408 820.366 Z" fill="#000000" fill-rule="nonzero" fill-opacity="1" /><path clip-path="url(#clip910)" d="M27.0408 786.405 L32.579 786.405 Q31.3059 788.888 30.6693 791.561 Q30.0327 794.235 30.0327 797.1 Q30.0327 801.46 31.3695 803.656 Q32.7063 805.821 35.3799 805.821 Q37.4169 805.821 38.5946 804.261 Q39.7404 802.701 40.7908 797.991 L41.2364 795.986 Q42.5732 789.747 45.0239 787.137 Q47.4429 784.496 51.8034 784.496 Q56.7687 784.496 59.6651 788.442 Q62.5615 792.357 62.5615 799.232 Q62.5615 802.097 61.9886 805.216 Q61.4475 808.303 60.3335 811.741 L54.2861 811.741 Q55.973 808.494 56.8323 805.343 Q57.6599 802.192 57.6599 799.105 Q57.6599 794.967 56.2594 792.739 Q54.8271 790.511 52.249 790.511 Q49.8619 790.511 48.5887 792.134 Q47.3156 793.726 46.1379 799.169 L45.6605 801.206 Q44.5147 806.648 42.1594 809.067 Q39.7722 811.486 35.6345 811.486 Q30.6056 811.486 27.8684 807.921 Q25.1311 804.357 25.1311 797.8 Q25.1311 794.553 25.6085 791.689 Q26.086 788.824 27.0408 786.405 Z" fill="#000000" fill-rule="nonzero" fill-opacity="1" /><path clip-path="url(#clip910)" d="M1212.03 12.096 L1220.21 12.096 L1220.21 65.6895 L1249.66 65.6895 L1249.66 72.576 L1212.03 72.576 L1212.03 12.096 Z" fill="#000000" fill-rule="nonzero" fill-opacity="1" /><path clip-path="url(#clip910)" d="M1274.05 32.4315 Q1268.05 32.4315 1264.57 37.1306 Q1261.09 41.7891 1261.09 49.9314 Q1261.09 58.0738 1264.53 62.7728 Q1268.01 67.4314 1274.05 67.4314 Q1280 67.4314 1283.49 62.7323 Q1286.97 58.0333 1286.97 49.9314 Q1286.97 41.8701 1283.49 37.1711 Q1280 32.4315 1274.05 32.4315 M1274.05 26.1121 Q1283.77 26.1121 1289.32 32.4315 Q1294.87 38.7509 1294.87 49.9314 Q1294.87 61.0714 1289.32 67.4314 Q1283.77 73.7508 1274.05 73.7508 Q1264.29 73.7508 1258.74 67.4314 Q1253.23 61.0714 1253.23 49.9314 Q1253.23 38.7509 1258.74 32.4315 Q1264.29 26.1121 1274.05 26.1121 Z" fill="#000000" fill-rule="nonzero" fill-opacity="1" /><path clip-path="url(#clip910)" d="M1336.15 28.5427 L1336.15 35.5912 Q1332.99 33.9709 1329.59 33.1607 Q1326.18 32.3505 1322.54 32.3505 Q1316.99 32.3505 1314.19 34.0519 Q1311.44 35.7533 1311.44 39.156 Q1311.44 41.7486 1313.42 43.2475 Q1315.41 44.7058 1321.4 46.0426 L1323.96 46.6097 Q1331.89 48.3111 1335.22 51.4303 Q1338.58 54.509 1338.58 60.0587 Q1338.58 66.3781 1333.56 70.0644 Q1328.57 73.7508 1319.82 73.7508 Q1316.18 73.7508 1312.21 73.0216 Q1308.28 72.3329 1303.9 70.9151 L1303.9 63.2184 Q1308.04 65.3654 1312.05 66.4591 Q1316.06 67.5124 1319.99 67.5124 Q1325.25 67.5124 1328.09 65.73 Q1330.92 63.9071 1330.92 60.6258 Q1330.92 57.5877 1328.86 55.9673 Q1326.83 54.3469 1319.9 52.8481 L1317.31 52.2405 Q1310.38 50.7821 1307.31 47.7845 Q1304.23 44.7463 1304.23 39.4801 Q1304.23 33.0797 1308.76 29.5959 Q1313.3 26.1121 1321.65 26.1121 Q1325.78 26.1121 1329.42 26.7198 Q1333.07 27.3274 1336.15 28.5427 Z" fill="#000000" fill-rule="nonzero" fill-opacity="1" /><path clip-path="url(#clip910)" d="M1379.37 28.5427 L1379.37 35.5912 Q1376.21 33.9709 1372.81 33.1607 Q1369.41 32.3505 1365.76 32.3505 Q1360.21 32.3505 1357.42 34.0519 Q1354.66 35.7533 1354.66 39.156 Q1354.66 41.7486 1356.65 43.2475 Q1358.63 44.7058 1364.63 46.0426 L1367.18 46.6097 Q1375.12 48.3111 1378.44 51.4303 Q1381.8 54.509 1381.8 60.0587 Q1381.8 66.3781 1376.78 70.0644 Q1371.8 73.7508 1363.05 73.7508 Q1359.4 73.7508 1355.43 73.0216 Q1351.5 72.3329 1347.13 70.9151 L1347.13 63.2184 Q1351.26 65.3654 1355.27 66.4591 Q1359.28 67.5124 1363.21 67.5124 Q1368.47 67.5124 1371.31 65.73 Q1374.15 63.9071 1374.15 60.6258 Q1374.15 57.5877 1372.08 55.9673 Q1370.05 54.3469 1363.13 52.8481 L1360.53 52.2405 Q1353.61 50.7821 1350.53 47.7845 Q1347.45 44.7463 1347.45 39.4801 Q1347.45 33.0797 1351.99 29.5959 Q1356.52 26.1121 1364.87 26.1121 Q1369 26.1121 1372.65 26.7198 Q1376.29 27.3274 1379.37 28.5427 Z" fill="#000000" fill-rule="nonzero" fill-opacity="1" /><path clip-path="url(#clip910)" d="M1414.7 27.2059 L1422.59 27.2059 L1436.77 65.2844 L1450.95 27.2059 L1458.85 27.2059 L1441.84 72.576 L1431.71 72.576 L1414.7 27.2059 Z" fill="#000000" fill-rule="nonzero" fill-opacity="1" /><path clip-path="url(#clip910)" d="M1498.06 28.5427 L1498.06 35.5912 Q1494.9 33.9709 1491.5 33.1607 Q1488.1 32.3505 1484.45 32.3505 Q1478.9 32.3505 1476.11 34.0519 Q1473.35 35.7533 1473.35 39.156 Q1473.35 41.7486 1475.34 43.2475 Q1477.32 44.7058 1483.32 46.0426 L1485.87 46.6097 Q1493.81 48.3111 1497.13 51.4303 Q1500.49 54.509 1500.49 60.0587 Q1500.49 66.3781 1495.47 70.0644 Q1490.49 73.7508 1481.74 73.7508 Q1478.09 73.7508 1474.12 73.0216 Q1470.19 72.3329 1465.82 70.9151 L1465.82 63.2184 Q1469.95 65.3654 1473.96 66.4591 Q1477.97 67.5124 1481.9 67.5124 Q1487.17 67.5124 1490 65.73 Q1492.84 63.9071 1492.84 60.6258 Q1492.84 57.5877 1490.77 55.9673 Q1488.75 54.3469 1481.82 52.8481 L1479.23 52.2405 Q1472.3 50.7821 1469.22 47.7845 Q1466.14 44.7463 1466.14 39.4801 Q1466.14 33.0797 1470.68 29.5959 Q1475.22 26.1121 1483.56 26.1121 Q1487.69 26.1121 1491.34 26.7198 Q1494.98 27.3274 1498.06 28.5427 Z" fill="#000000" fill-rule="nonzero" fill-opacity="1" /><path clip-path="url(#clip910)" d="M1547.24 43.6931 L1547.24 65.8515 L1560.37 65.8515 Q1566.97 65.8515 1570.13 63.1374 Q1573.33 60.3828 1573.33 54.752 Q1573.33 49.0808 1570.13 46.4072 Q1566.97 43.6931 1560.37 43.6931 L1547.24 43.6931 M1547.24 18.8205 L1547.24 37.0496 L1559.35 37.0496 Q1565.35 37.0496 1568.27 34.8216 Q1571.22 32.5531 1571.22 27.935 Q1571.22 23.3575 1568.27 21.089 Q1565.35 18.8205 1559.35 18.8205 L1547.24 18.8205 M1539.06 12.096 L1559.96 12.096 Q1569.32 12.096 1574.38 15.9849 Q1579.45 19.8737 1579.45 27.0438 Q1579.45 32.5936 1576.85 35.8748 Q1574.26 39.156 1569.24 39.9662 Q1575.27 41.2625 1578.6 45.3944 Q1581.96 49.4858 1581.96 55.6432 Q1581.96 63.745 1576.45 68.1605 Q1570.94 72.576 1560.77 72.576 L1539.06 72.576 L1539.06 12.096 Z" fill="#000000" fill-rule="nonzero" fill-opacity="1" /><path clip-path="url(#clip910)" d="M1634.46 48.0275 L1634.46 51.6733 L1600.19 51.6733 Q1600.67 59.3701 1604.8 63.421 Q1608.98 67.4314 1616.39 67.4314 Q1620.68 67.4314 1624.69 66.3781 Q1628.75 65.3249 1632.72 63.2184 L1632.72 70.267 Q1628.7 71.9684 1624.49 72.8596 Q1620.28 73.7508 1615.94 73.7508 Q1605.09 73.7508 1598.73 67.4314 Q1592.41 61.1119 1592.41 50.3365 Q1592.41 39.1965 1598.4 32.6746 Q1604.44 26.1121 1614.65 26.1121 Q1623.8 26.1121 1629.11 32.0264 Q1634.46 37.9003 1634.46 48.0275 M1627 45.84 Q1626.92 39.7232 1623.56 36.0774 Q1620.24 32.4315 1614.73 32.4315 Q1608.49 32.4315 1604.72 35.9558 Q1601 39.4801 1600.43 45.8805 L1627 45.84 Z" fill="#000000" fill-rule="nonzero" fill-opacity="1" /><path clip-path="url(#clip910)" d="M1654.06 14.324 L1654.06 27.2059 L1669.42 27.2059 L1669.42 32.9987 L1654.06 32.9987 L1654.06 57.6282 Q1654.06 63.1779 1655.56 64.7578 Q1657.1 66.3376 1661.76 66.3376 L1669.42 66.3376 L1669.42 72.576 L1661.76 72.576 Q1653.13 72.576 1649.85 69.3758 Q1646.57 66.1351 1646.57 57.6282 L1646.57 32.9987 L1641.1 32.9987 L1641.1 27.2059 L1646.57 27.2059 L1646.57 14.324 L1654.06 14.324 Z" fill="#000000" fill-rule="nonzero" fill-opacity="1" /><path clip-path="url(#clip910)" d="M1699.84 49.7694 Q1690.81 49.7694 1687.32 51.8354 Q1683.84 53.9013 1683.84 58.8839 Q1683.84 62.8538 1686.43 65.2034 Q1689.06 67.5124 1693.56 67.5124 Q1699.76 67.5124 1703.48 63.1374 Q1707.25 58.7219 1707.25 51.4303 L1707.25 49.7694 L1699.84 49.7694 M1714.71 46.6907 L1714.71 72.576 L1707.25 72.576 L1707.25 65.6895 Q1704.7 69.8214 1700.89 71.8063 Q1697.08 73.7508 1691.57 73.7508 Q1684.61 73.7508 1680.48 69.8619 Q1676.38 65.9325 1676.38 59.3701 Q1676.38 51.7138 1681.49 47.825 Q1686.63 43.9361 1696.8 43.9361 L1707.25 43.9361 L1707.25 43.2069 Q1707.25 38.0623 1703.85 35.2672 Q1700.49 32.4315 1694.37 32.4315 Q1690.48 32.4315 1686.79 33.3632 Q1683.11 34.295 1679.71 36.1584 L1679.71 29.2718 Q1683.8 27.692 1687.65 26.9223 Q1691.49 26.1121 1695.14 26.1121 Q1704.98 26.1121 1709.84 31.2163 Q1714.71 36.3204 1714.71 46.6907 Z" fill="#000000" fill-rule="nonzero" fill-opacity="1" /><polyline clip-path="url(#clip911)" style="stroke:#4682b4; stroke-linecap:round; stroke-linejoin:round; stroke-width:8; stroke-opacity:1; fill:none" points="352.623,1304.67 599.455,1309.36 846.287,1307.03 1339.95,1688.65 1833.62,1347.04 2080.45,1023.34 2574.11,173.254 "/>
<circle clip-path="url(#clip911)" cx="352.623" cy="1304.67" r="28.8" fill="#4682b4" fill-rule="evenodd" fill-opacity="1" stroke="#000000" stroke-opacity="1" stroke-width="3.84"/>
<circle clip-path="url(#clip911)" cx="599.455" cy="1309.36" r="28.8" fill="#4682b4" fill-rule="evenodd" fill-opacity="1" stroke="#000000" stroke-opacity="1" stroke-width="3.84"/>
<circle clip-path="url(#clip911)" cx="846.287" cy="1307.03" r="28.8" fill="#4682b4" fill-rule="evenodd" fill-opacity="1" stroke="#000000" stroke-opacity="1" stroke-width="3.84"/>
<circle clip-path="url(#clip911)" cx="1339.95" cy="1688.65" r="28.8" fill="#4682b4" fill-rule="evenodd" fill-opacity="1" stroke="#000000" stroke-opacity="1" stroke-width="3.84"/>
<circle clip-path="url(#clip911)" cx="1833.62" cy="1347.04" r="28.8" fill="#4682b4" fill-rule="evenodd" fill-opacity="1" stroke="#000000" stroke-opacity="1" stroke-width="3.84"/>
<circle clip-path="url(#clip911)" cx="2080.45" cy="1023.34" r="28.8" fill="#4682b4" fill-rule="evenodd" fill-opacity="1" stroke="#000000" stroke-opacity="1" stroke-width="3.84"/>
<circle clip-path="url(#clip911)" cx="2574.11" cy="173.254" r="28.8" fill="#4682b4" fill-rule="evenodd" fill-opacity="1" stroke="#000000" stroke-opacity="1" stroke-width="3.84"/>
<polyline clip-path="url(#clip911)" style="stroke:#ff0000; stroke-linecap:round; stroke-linejoin:round; stroke-width:4; stroke-opacity:1; fill:none" stroke-dasharray="16, 10" points="1339.95,3340.44 1339.95,-1478.53 "/>
<path clip-path="url(#clip910)" d="M364.471 336.856 L818.443 336.856 L818.443 181.336 L364.471 181.336  Z" fill="#ffffff" fill-rule="evenodd" fill-opacity="1"/>
<polyline clip-path="url(#clip910)" style="stroke:#000000; stroke-linecap:round; stroke-linejoin:round; stroke-width:4; stroke-opacity:1; fill:none" points="364.471,336.856 818.443,336.856 818.443,181.336 364.471,181.336 364.471,336.856 "/>
<polyline clip-path="url(#clip910)" style="stroke:#4682b4; stroke-linecap:round; stroke-linejoin:round; stroke-width:8; stroke-opacity:1; fill:none" points="390.635,233.176 547.62,233.176 "/>
<circle clip-path="url(#clip910)" cx="469.128" cy="233.176" r="21.6847" fill="#4682b4" fill-rule="evenodd" fill-opacity="1" stroke="#000000" stroke-opacity="1" stroke-width="2.89129"/>
<path clip-path="url(#clip910)" d="M587.627 252.864 Q585.821 257.493 584.108 258.905 Q582.395 260.317 579.525 260.317 L576.122 260.317 L576.122 256.753 L578.622 256.753 Q580.382 256.753 581.354 255.919 Q582.326 255.086 583.507 251.984 L584.27 250.04 L573.784 224.531 L578.298 224.531 L586.4 244.808 L594.502 224.531 L599.016 224.531 L587.627 252.864 Z" fill="#000000" fill-rule="nonzero" fill-opacity="1" /><path clip-path="url(#clip910)" d="M606.307 246.521 L613.946 246.521 L613.946 220.156 L605.636 221.822 L605.636 217.563 L613.9 215.896 L618.576 215.896 L618.576 246.521 L626.215 246.521 L626.215 250.456 L606.307 250.456 L606.307 246.521 Z" fill="#000000" fill-rule="nonzero" fill-opacity="1" /><polyline clip-path="url(#clip910)" style="stroke:#ff0000; stroke-linecap:round; stroke-linejoin:round; stroke-width:4; stroke-opacity:1; fill:none" stroke-dasharray="16, 10" points="390.635,285.016 547.62,285.016 "/>
<path clip-path="url(#clip910)" d="M573.784 267.736 L603.02 267.736 L603.02 271.671 L590.752 271.671 L590.752 302.296 L586.053 302.296 L586.053 271.671 L573.784 271.671 L573.784 267.736 Z" fill="#000000" fill-rule="nonzero" fill-opacity="1" /><path clip-path="url(#clip910)" d="M615.405 280.352 Q614.687 279.935 613.83 279.75 Q612.997 279.542 611.979 279.542 Q608.368 279.542 606.423 281.903 Q604.502 284.241 604.502 288.639 L604.502 302.296 L600.219 302.296 L600.219 276.371 L604.502 276.371 L604.502 280.398 Q605.844 278.037 607.997 276.903 Q610.15 275.746 613.229 275.746 Q613.668 275.746 614.201 275.815 Q614.733 275.861 615.381 275.977 L615.405 280.352 Z" fill="#000000" fill-rule="nonzero" fill-opacity="1" /><path clip-path="url(#clip910)" d="M619.432 292.065 L619.432 276.371 L623.691 276.371 L623.691 291.903 Q623.691 295.583 625.127 297.435 Q626.562 299.264 629.432 299.264 Q632.881 299.264 634.872 297.065 Q636.886 294.866 636.886 291.069 L636.886 276.371 L641.145 276.371 L641.145 302.296 L636.886 302.296 L636.886 298.315 Q635.335 300.676 633.275 301.833 Q631.238 302.968 628.529 302.968 Q624.062 302.968 621.747 300.19 Q619.432 297.412 619.432 292.065 M630.15 275.746 L630.15 275.746 Z" fill="#000000" fill-rule="nonzero" fill-opacity="1" /><path clip-path="url(#clip910)" d="M672.094 288.269 L672.094 290.352 L652.511 290.352 Q652.789 294.75 655.15 297.065 Q657.534 299.356 661.77 299.356 Q664.224 299.356 666.515 298.755 Q668.83 298.153 671.099 296.949 L671.099 300.977 Q668.807 301.949 666.4 302.458 Q663.992 302.968 661.515 302.968 Q655.312 302.968 651.677 299.356 Q648.066 295.745 648.066 289.588 Q648.066 283.222 651.492 279.495 Q654.941 275.746 660.775 275.746 Q666.006 275.746 669.038 279.125 Q672.094 282.482 672.094 288.269 M667.835 287.019 Q667.788 283.523 665.867 281.44 Q663.969 279.357 660.821 279.357 Q657.256 279.357 655.103 281.37 Q652.974 283.384 652.65 287.042 L667.835 287.019 Z" fill="#000000" fill-rule="nonzero" fill-opacity="1" /><path clip-path="url(#clip910)" d="M712.765 289.357 Q712.765 284.657 710.821 281.995 Q708.899 279.31 705.52 279.31 Q702.14 279.31 700.196 281.995 Q698.274 284.657 698.274 289.357 Q698.274 294.056 700.196 296.741 Q702.14 299.403 705.52 299.403 Q708.899 299.403 710.821 296.741 Q712.765 294.056 712.765 289.357 M698.274 280.306 Q699.617 277.991 701.654 276.88 Q703.714 275.746 706.561 275.746 Q711.284 275.746 714.223 279.495 Q717.186 283.245 717.186 289.357 Q717.186 295.468 714.223 299.218 Q711.284 302.968 706.561 302.968 Q703.714 302.968 701.654 301.856 Q699.617 300.722 698.274 298.407 L698.274 302.296 L693.992 302.296 L693.992 266.278 L698.274 266.278 L698.274 280.306 Z" fill="#000000" fill-rule="nonzero" fill-opacity="1" /><path clip-path="url(#clip910)" d="M746.422 288.269 L746.422 290.352 L726.839 290.352 Q727.117 294.75 729.478 297.065 Q731.862 299.356 736.098 299.356 Q738.552 299.356 740.844 298.755 Q743.158 298.153 745.427 296.949 L745.427 300.977 Q743.135 301.949 740.728 302.458 Q738.321 302.968 735.844 302.968 Q729.64 302.968 726.006 299.356 Q722.395 295.745 722.395 289.588 Q722.395 283.222 725.821 279.495 Q729.27 275.746 735.103 275.746 Q740.334 275.746 743.367 279.125 Q746.422 282.482 746.422 288.269 M742.163 287.019 Q742.117 283.523 740.196 281.44 Q738.297 279.357 735.149 279.357 Q731.584 279.357 729.432 281.37 Q727.302 283.384 726.978 287.042 L742.163 287.019 Z" fill="#000000" fill-rule="nonzero" fill-opacity="1" /><path clip-path="url(#clip910)" d="M757.626 269.009 L757.626 276.371 L766.399 276.371 L766.399 279.681 L757.626 279.681 L757.626 293.755 Q757.626 296.926 758.482 297.829 Q759.362 298.731 762.024 298.731 L766.399 298.731 L766.399 302.296 L762.024 302.296 Q757.094 302.296 755.219 300.468 Q753.344 298.616 753.344 293.755 L753.344 279.681 L750.219 279.681 L750.219 276.371 L753.344 276.371 L753.344 269.009 L757.626 269.009 Z" fill="#000000" fill-rule="nonzero" fill-opacity="1" /><path clip-path="url(#clip910)" d="M783.783 289.264 Q778.621 289.264 776.63 290.444 Q774.64 291.625 774.64 294.472 Q774.64 296.741 776.121 298.083 Q777.626 299.403 780.195 299.403 Q783.737 299.403 785.867 296.903 Q788.019 294.38 788.019 290.213 L788.019 289.264 L783.783 289.264 M792.279 287.505 L792.279 302.296 L788.019 302.296 L788.019 298.361 Q786.561 300.722 784.385 301.856 Q782.209 302.968 779.061 302.968 Q775.08 302.968 772.718 300.745 Q770.381 298.5 770.381 294.75 Q770.381 290.375 773.297 288.153 Q776.237 285.931 782.047 285.931 L788.019 285.931 L788.019 285.514 Q788.019 282.574 786.075 280.977 Q784.154 279.357 780.658 279.357 Q778.436 279.357 776.33 279.889 Q774.223 280.421 772.279 281.486 L772.279 277.551 Q774.617 276.648 776.816 276.208 Q779.015 275.746 781.098 275.746 Q786.723 275.746 789.501 278.662 Q792.279 281.579 792.279 287.505 Z" fill="#000000" fill-rule="nonzero" fill-opacity="1" /></svg>
