<?xml version="1.0" encoding="utf-8"?>
<svg xmlns="http://www.w3.org/2000/svg" xmlns:xlink="http://www.w3.org/1999/xlink" width="672" height="480" viewBox="0 0 2688 1920">
<defs>
  <clipPath id="clip420">
    <rect x="0" y="0" width="2688" height="1920"/>
  </clipPath>
</defs>
<path clip-path="url(#clip420)" d="M0 1920 L2688 1920 L2688 -4.26326e-14 L0 -4.26326e-14  Z" fill="#ffffff" fill-rule="evenodd" fill-opacity="1"/>
<defs>
  <clipPath id="clip421">
    <rect x="256" y="127" width="2385" height="1607"/>
  </clipPath>
</defs>
<path clip-path="url(#clip420)" d="M256.302 1734.12 L2640.76 1734.12 L2640.76 127.792 L256.302 127.792  Z" fill="#ffffff" fill-rule="evenodd" fill-opacity="1"/>
<polyline clip-path="url(#clip421)" style="stroke:#000000; stroke-linecap:round; stroke-linejoin:round; stroke-width:2; stroke-opacity:0.1; fill:none" points="323.787,1734.12 323.787,127.792 "/>
<polyline clip-path="url(#clip421)" style="stroke:#000000; stroke-linecap:round; stroke-linejoin:round; stroke-width:2; stroke-opacity:0.1; fill:none" points="886.158,1734.12 886.158,127.792 "/>
<polyline clip-path="url(#clip421)" style="stroke:#000000; stroke-linecap:round; stroke-linejoin:round; stroke-width:2; stroke-opacity:0.1; fill:none" points="1448.53,1734.12 1448.53,127.792 "/>
<polyline clip-path="url(#clip421)" style="stroke:#000000; stroke-linecap:round; stroke-linejoin:round; stroke-width:2; stroke-opacity:0.1; fill:none" points="2010.9,1734.12 2010.9,127.792 "/>
<polyline clip-path="url(#clip421)" style="stroke:#000000; stroke-linecap:round; stroke-linejoin:round; stroke-width:2; stroke-opacity:0.1; fill:none" points="2573.27,1734.12 2573.27,127.792 "/>
<polyline clip-path="url(#clip421)" style="stroke:#000000; stroke-linecap:round; stroke-linejoin:round; stroke-width:2; stroke-opacity:0.1; fill:none" points="256.302,1464.15 2640.76,1464.15 "/>
<polyline clip-path="url(#clip421)" style="stroke:#000000; stroke-linecap:round; stroke-linejoin:round; stroke-width:2; stroke-opacity:0.1; fill:none" points="256.302,1183.52 2640.76,1183.52 "/>
<polyline clip-path="url(#clip421)" style="stroke:#000000; stroke-linecap:round; stroke-linejoin:round; stroke-width:2; stroke-opacity:0.1; fill:none" points="256.302,902.892 2640.76,902.892 "/>
<polyline clip-path="url(#clip421)" style="stroke:#000000; stroke-linecap:round; stroke-linejoin:round; stroke-width:2; stroke-opacity:0.1; fill:none" points="256.302,622.262 2640.76,622.262 "/>
<polyline clip-path="url(#clip421)" style="stroke:#000000; stroke-linecap:round; stroke-linejoin:round; stroke-width:2; stroke-opacity:0.1; fill:none" points="256.302,341.632 2640.76,341.632 "/>
<polyline clip-path="url(#clip420)" style="stroke:#000000; stroke-linecap:round; stroke-linejoin:round; stroke-width:4; stroke-opacity:1; fill:none" points="256.302,1734.12 2640.76,1734.12 "/>
<polyline clip-path="url(#clip420)" style="stroke:#000000; stroke-linecap:round; stroke-linejoin:round; stroke-width:4; stroke-opacity:1; fill:none" points="323.787,1734.12 323.787,1715.22 "/>
<polyline clip-path="url(#clip420)" style="stroke:#000000; stroke-linecap:round; stroke-linejoin:round; stroke-width:4; stroke-opacity:1; fill:none" points="886.158,1734.12 886.158,1715.22 "/>
<polyline clip-path="url(#clip420)" style="stroke:#000000; stroke-linecap:round; stroke-linejoin:round; stroke-width:4; stroke-opacity:1; fill:none" points="1448.53,1734.12 1448.53,1715.22 "/>
<polyline clip-path="url(#clip420)" style="stroke:#000000; stroke-linecap:round; stroke-linejoin:round; stroke-width:4; stroke-opacity:1; fill:none" points="2010.9,1734.12 2010.9,1715.22 "/>
<polyline clip-path="url(#clip420)" style="stroke:#000000; stroke-linecap:round; stroke-linejoin:round; stroke-width:4; stroke-opacity:1; fill:none" points="2573.27,1734.12 2573.27,1715.22 "/>
<path clip-path="url(#clip420)" d="M323.787 1767.34 Q320.176 1767.34 318.347 1770.9 Q316.542 1774.45 316.542 1781.58 Q316.542 1788.68 318.347 1792.25 Q320.176 1795.79 323.787 1795.79 Q327.421 1795.79 329.227 1792.25 Q331.055 1788.68 331.055 1781.58 Q331.055 1774.45 329.227 1770.9 Q327.421 1767.34 323.787 1767.34 M323.787 1763.64 Q329.597 1763.64 332.653 1768.24 Q335.731 1772.83 335.731 1781.58 Q335.731 1790.3 332.653 1794.91 Q329.597 1799.49 323.787 1799.49 Q317.977 1799.49 314.898 1794.91 Q311.843 1790.3 311.843 1781.58 Q311.843 1772.83 314.898 1768.24 Q317.977 1763.64 323.787 1763.64 Z" fill="#000000" fill-rule="nonzero" fill-opacity="1" /><path clip-path="url(#clip420)" d="M860.846 1794.89 L868.485 1794.89 L868.485 1768.52 L860.174 1770.19 L860.174 1765.93 L868.438 1764.26 L873.114 1764.26 L873.114 1794.89 L880.753 1794.89 L880.753 1798.82 L860.846 1798.82 L860.846 1794.89 Z" fill="#000000" fill-rule="nonzero" fill-opacity="1" /><path clip-path="url(#clip420)" d="M900.197 1767.34 Q896.586 1767.34 894.758 1770.9 Q892.952 1774.45 892.952 1781.58 Q892.952 1788.68 894.758 1792.25 Q896.586 1795.79 900.197 1795.79 Q903.832 1795.79 905.637 1792.25 Q907.466 1788.68 907.466 1781.58 Q907.466 1774.45 905.637 1770.9 Q903.832 1767.34 900.197 1767.34 M900.197 1763.64 Q906.007 1763.64 909.063 1768.24 Q912.142 1772.83 912.142 1781.58 Q912.142 1790.3 909.063 1794.91 Q906.007 1799.49 900.197 1799.49 Q894.387 1799.49 891.308 1794.91 Q888.253 1790.3 888.253 1781.58 Q888.253 1772.83 891.308 1768.24 Q894.387 1763.64 900.197 1763.64 Z" fill="#000000" fill-rule="nonzero" fill-opacity="1" /><path clip-path="url(#clip420)" d="M1427.3 1794.89 L1443.62 1794.89 L1443.62 1798.82 L1421.68 1798.82 L1421.68 1794.89 Q1424.34 1792.13 1428.92 1787.5 Q1433.53 1782.85 1434.71 1781.51 Q1436.96 1778.98 1437.83 1777.25 Q1438.74 1775.49 1438.74 1773.8 Q1438.74 1771.04 1436.79 1769.31 Q1434.87 1767.57 1431.77 1767.57 Q1429.57 1767.57 1427.12 1768.34 Q1424.69 1769.1 1421.91 1770.65 L1421.91 1765.93 Q1424.73 1764.79 1427.19 1764.21 Q1429.64 1763.64 1431.68 1763.64 Q1437.05 1763.64 1440.24 1766.32 Q1443.44 1769.01 1443.44 1773.5 Q1443.44 1775.63 1442.63 1777.55 Q1441.84 1779.45 1439.73 1782.04 Q1439.15 1782.71 1436.05 1785.93 Q1432.95 1789.12 1427.3 1794.89 Z" fill="#000000" fill-rule="nonzero" fill-opacity="1" /><path clip-path="url(#clip420)" d="M1463.44 1767.34 Q1459.83 1767.34 1458 1770.9 Q1456.19 1774.45 1456.19 1781.58 Q1456.19 1788.68 1458 1792.25 Q1459.83 1795.79 1463.44 1795.79 Q1467.07 1795.79 1468.88 1792.25 Q1470.7 1788.68 1470.7 1781.58 Q1470.7 1774.45 1468.88 1770.9 Q1467.07 1767.34 1463.44 1767.34 M1463.44 1763.64 Q1469.25 1763.64 1472.3 1768.24 Q1475.38 1772.83 1475.38 1781.58 Q1475.38 1790.3 1472.3 1794.91 Q1469.25 1799.49 1463.44 1799.49 Q1457.63 1799.49 1454.55 1794.91 Q1451.49 1790.3 1451.49 1781.58 Q1451.49 1772.83 1454.55 1768.24 Q1457.63 1763.64 1463.44 1763.64 Z" fill="#000000" fill-rule="nonzero" fill-opacity="1" /><path clip-path="url(#clip420)" d="M1999.74 1780.19 Q2003.1 1780.9 2004.97 1783.17 Q2006.87 1785.44 2006.87 1788.77 Q2006.87 1793.89 2003.35 1796.69 Q1999.84 1799.49 1993.35 1799.49 Q1991.18 1799.49 1988.86 1799.05 Q1986.57 1798.64 1984.12 1797.78 L1984.12 1793.27 Q1986.06 1794.4 1988.38 1794.98 Q1990.69 1795.56 1993.22 1795.56 Q1997.61 1795.56 1999.9 1793.82 Q2002.22 1792.08 2002.22 1788.77 Q2002.22 1785.72 2000.07 1784.01 Q1997.94 1782.27 1994.12 1782.27 L1990.09 1782.27 L1990.09 1778.43 L1994.3 1778.43 Q1997.75 1778.43 1999.58 1777.06 Q2001.41 1775.67 2001.41 1773.08 Q2001.41 1770.42 1999.51 1769.01 Q1997.64 1767.57 1994.12 1767.57 Q1992.2 1767.57 1990 1767.99 Q1987.8 1768.4 1985.16 1769.28 L1985.16 1765.12 Q1987.82 1764.38 1990.14 1764.01 Q1992.47 1763.64 1994.53 1763.64 Q1999.86 1763.64 2002.96 1766.07 Q2006.06 1768.47 2006.06 1772.59 Q2006.06 1775.46 2004.42 1777.46 Q2002.78 1779.42 1999.74 1780.19 Z" fill="#000000" fill-rule="nonzero" fill-opacity="1" /><path clip-path="url(#clip420)" d="M2025.74 1767.34 Q2022.13 1767.34 2020.3 1770.9 Q2018.49 1774.45 2018.49 1781.58 Q2018.49 1788.68 2020.3 1792.25 Q2022.13 1795.79 2025.74 1795.79 Q2029.37 1795.79 2031.18 1792.25 Q2033.01 1788.68 2033.01 1781.58 Q2033.01 1774.45 2031.18 1770.9 Q2029.37 1767.34 2025.74 1767.34 M2025.74 1763.64 Q2031.55 1763.64 2034.6 1768.24 Q2037.68 1772.83 2037.68 1781.58 Q2037.68 1790.3 2034.6 1794.91 Q2031.55 1799.49 2025.74 1799.49 Q2019.93 1799.49 2016.85 1794.91 Q2013.79 1790.3 2013.79 1781.58 Q2013.79 1772.83 2016.85 1768.24 Q2019.93 1763.64 2025.74 1763.64 Z" fill="#000000" fill-rule="nonzero" fill-opacity="1" /><path clip-path="url(#clip420)" d="M2561.44 1768.34 L2549.64 1786.78 L2561.44 1786.78 L2561.44 1768.34 M2560.22 1764.26 L2566.1 1764.26 L2566.1 1786.78 L2571.03 1786.78 L2571.03 1790.67 L2566.1 1790.67 L2566.1 1798.82 L2561.44 1798.82 L2561.44 1790.67 L2545.84 1790.67 L2545.84 1786.16 L2560.22 1764.26 Z" fill="#000000" fill-rule="nonzero" fill-opacity="1" /><path clip-path="url(#clip420)" d="M2588.76 1767.34 Q2585.15 1767.34 2583.32 1770.9 Q2581.51 1774.45 2581.51 1781.58 Q2581.51 1788.68 2583.32 1792.25 Q2585.15 1795.79 2588.76 1795.79 Q2592.39 1795.79 2594.2 1792.25 Q2596.03 1788.68 2596.03 1781.58 Q2596.03 1774.45 2594.2 1770.9 Q2592.39 1767.34 2588.76 1767.34 M2588.76 1763.64 Q2594.57 1763.64 2597.62 1768.24 Q2600.7 1772.83 2600.7 1781.58 Q2600.7 1790.3 2597.62 1794.91 Q2594.57 1799.49 2588.76 1799.49 Q2582.95 1799.49 2579.87 1794.91 Q2576.81 1790.3 2576.81 1781.58 Q2576.81 1772.83 2579.87 1768.24 Q2582.95 1763.64 2588.76 1763.64 Z" fill="#000000" fill-rule="nonzero" fill-opacity="1" /><path clip-path="url(#clip420)" d="M1394.77 1841.06 L1394.77 1878.02 L1402.54 1878.02 Q1412.37 1878.02 1416.92 1873.56 Q1421.51 1869.11 1421.51 1859.49 Q1421.51 1849.94 1416.92 1845.52 Q1412.37 1841.06 1402.54 1841.06 L1394.77 1841.06 M1388.34 1835.78 L1401.55 1835.78 Q1415.36 1835.78 1421.83 1841.54 Q1428.29 1847.27 1428.29 1859.49 Q1428.29 1871.78 1421.79 1877.54 Q1415.3 1883.3 1401.55 1883.3 L1388.34 1883.3 L1388.34 1835.78 Z" fill="#000000" fill-rule="nonzero" fill-opacity="1" /><path clip-path="url(#clip420)" d="M1454.48 1865.38 Q1447.38 1865.38 1444.65 1867 Q1441.91 1868.63 1441.91 1872.54 Q1441.91 1875.66 1443.95 1877.51 Q1446.01 1879.32 1449.55 1879.32 Q1454.42 1879.32 1457.35 1875.88 Q1460.31 1872.42 1460.31 1866.69 L1460.31 1865.38 L1454.48 1865.38 M1466.16 1862.96 L1466.16 1883.3 L1460.31 1883.3 L1460.31 1877.89 Q1458.3 1881.14 1455.31 1882.7 Q1452.32 1884.22 1447.99 1884.22 Q1442.51 1884.22 1439.27 1881.17 Q1436.05 1878.08 1436.05 1872.92 Q1436.05 1866.91 1440.06 1863.85 Q1444.11 1860.8 1452.09 1860.8 L1460.31 1860.8 L1460.31 1860.23 Q1460.31 1856.18 1457.63 1853.99 Q1454.99 1851.76 1450.18 1851.76 Q1447.13 1851.76 1444.23 1852.49 Q1441.34 1853.22 1438.66 1854.69 L1438.66 1849.28 Q1441.88 1848.03 1444.9 1847.43 Q1447.92 1846.79 1450.79 1846.79 Q1458.52 1846.79 1462.34 1850.8 Q1466.16 1854.81 1466.16 1862.96 Z" fill="#000000" fill-rule="nonzero" fill-opacity="1" /><path clip-path="url(#clip420)" d="M1493.06 1886.61 Q1490.57 1892.98 1488.22 1894.92 Q1485.86 1896.86 1481.92 1896.86 L1477.24 1896.86 L1477.24 1891.96 L1480.68 1891.96 Q1483.09 1891.96 1484.43 1890.81 Q1485.77 1889.67 1487.39 1885.4 L1488.44 1882.73 L1474.02 1847.65 L1480.23 1847.65 L1491.37 1875.53 L1502.51 1847.65 L1508.72 1847.65 L1493.06 1886.61 Z" fill="#000000" fill-rule="nonzero" fill-opacity="1" /><polyline clip-path="url(#clip420)" style="stroke:#000000; stroke-linecap:round; stroke-linejoin:round; stroke-width:4; stroke-opacity:1; fill:none" points="256.302,1734.12 256.302,127.792 "/>
<polyline clip-path="url(#clip420)" style="stroke:#000000; stroke-linecap:round; stroke-linejoin:round; stroke-width:4; stroke-opacity:1; fill:none" points="256.302,1464.15 275.2,1464.15 "/>
<polyline clip-path="url(#clip420)" style="stroke:#000000; stroke-linecap:round; stroke-linejoin:round; stroke-width:4; stroke-opacity:1; fill:none" points="256.302,1183.52 275.2,1183.52 "/>
<polyline clip-path="url(#clip420)" style="stroke:#000000; stroke-linecap:round; stroke-linejoin:round; stroke-width:4; stroke-opacity:1; fill:none" points="256.302,902.892 275.2,902.892 "/>
<polyline clip-path="url(#clip420)" style="stroke:#000000; stroke-linecap:round; stroke-linejoin:round; stroke-width:4; stroke-opacity:1; fill:none" points="256.302,622.262 275.2,622.262 "/>
<polyline clip-path="url(#clip420)" style="stroke:#000000; stroke-linecap:round; stroke-linejoin:round; stroke-width:4; stroke-opacity:1; fill:none" points="256.302,341.632 275.2,341.632 "/>
<path clip-path="url(#clip420)" d="M130.242 1449.95 Q126.631 1449.95 124.802 1453.51 Q122.997 1457.06 122.997 1464.19 Q122.997 1471.29 124.802 1474.86 Q126.631 1478.4 130.242 1478.4 Q133.876 1478.4 135.682 1474.86 Q137.511 1471.29 137.511 1464.19 Q137.511 1457.06 135.682 1453.51 Q133.876 1449.95 130.242 1449.95 M130.242 1446.25 Q136.052 1446.25 139.108 1450.85 Q142.187 1455.44 142.187 1464.19 Q142.187 1472.91 139.108 1477.52 Q136.052 1482.1 130.242 1482.1 Q124.432 1482.1 121.353 1477.52 Q118.298 1472.91 118.298 1464.19 Q118.298 1455.44 121.353 1450.85 Q124.432 1446.25 130.242 1446.25 Z" fill="#000000" fill-rule="nonzero" fill-opacity="1" /><path clip-path="url(#clip420)" d="M150.404 1475.55 L155.288 1475.55 L155.288 1481.43 L150.404 1481.43 L150.404 1475.55 Z" fill="#000000" fill-rule="nonzero" fill-opacity="1" /><path clip-path="url(#clip420)" d="M175.473 1449.95 Q171.862 1449.95 170.034 1453.51 Q168.228 1457.06 168.228 1464.19 Q168.228 1471.29 170.034 1474.86 Q171.862 1478.4 175.473 1478.4 Q179.108 1478.4 180.913 1474.86 Q182.742 1471.29 182.742 1464.19 Q182.742 1457.06 180.913 1453.51 Q179.108 1449.95 175.473 1449.95 M175.473 1446.25 Q181.284 1446.25 184.339 1450.85 Q187.418 1455.44 187.418 1464.19 Q187.418 1472.91 184.339 1477.52 Q181.284 1482.1 175.473 1482.1 Q169.663 1482.1 166.585 1477.52 Q163.529 1472.91 163.529 1464.19 Q163.529 1455.44 166.585 1450.85 Q169.663 1446.25 175.473 1446.25 Z" fill="#000000" fill-rule="nonzero" fill-opacity="1" /><path clip-path="url(#clip420)" d="M199.663 1477.5 L215.982 1477.5 L215.982 1481.43 L194.038 1481.43 L194.038 1477.5 Q196.7 1474.74 201.283 1470.11 Q205.89 1465.46 207.07 1464.12 Q209.316 1461.59 210.195 1459.86 Q211.098 1458.1 211.098 1456.41 Q211.098 1453.65 209.154 1451.92 Q207.232 1450.18 204.131 1450.18 Q201.932 1450.18 199.478 1450.95 Q197.047 1451.71 194.27 1453.26 L194.27 1448.54 Q197.094 1447.4 199.547 1446.82 Q202.001 1446.25 204.038 1446.25 Q209.408 1446.25 212.603 1448.93 Q215.797 1451.62 215.797 1456.11 Q215.797 1458.24 214.987 1460.16 Q214.2 1462.06 212.094 1464.65 Q211.515 1465.32 208.413 1468.54 Q205.311 1471.73 199.663 1477.5 Z" fill="#000000" fill-rule="nonzero" fill-opacity="1" /><path clip-path="url(#clip420)" d="M128.159 1169.32 Q124.548 1169.32 122.719 1172.88 Q120.913 1176.43 120.913 1183.56 Q120.913 1190.66 122.719 1194.23 Q124.548 1197.77 128.159 1197.77 Q131.793 1197.77 133.599 1194.23 Q135.427 1190.66 135.427 1183.56 Q135.427 1176.43 133.599 1172.88 Q131.793 1169.32 128.159 1169.32 M128.159 1165.62 Q133.969 1165.62 137.025 1170.22 Q140.103 1174.81 140.103 1183.56 Q140.103 1192.28 137.025 1196.89 Q133.969 1201.47 128.159 1201.47 Q122.349 1201.47 119.27 1196.89 Q116.214 1192.28 116.214 1183.56 Q116.214 1174.81 119.27 1170.22 Q122.349 1165.62 128.159 1165.62 Z" fill="#000000" fill-rule="nonzero" fill-opacity="1" /><path clip-path="url(#clip420)" d="M148.321 1194.92 L153.205 1194.92 L153.205 1200.8 L148.321 1200.8 L148.321 1194.92 Z" fill="#000000" fill-rule="nonzero" fill-opacity="1" /><path clip-path="url(#clip420)" d="M173.39 1169.32 Q169.779 1169.32 167.95 1172.88 Q166.145 1176.43 166.145 1183.56 Q166.145 1190.66 167.95 1194.23 Q169.779 1197.77 173.39 1197.77 Q177.024 1197.77 178.83 1194.23 Q180.659 1190.66 180.659 1183.56 Q180.659 1176.43 178.83 1172.88 Q177.024 1169.32 173.39 1169.32 M173.39 1165.62 Q179.2 1165.62 182.256 1170.22 Q185.334 1174.81 185.334 1183.56 Q185.334 1192.28 182.256 1196.89 Q179.2 1201.47 173.39 1201.47 Q167.58 1201.47 164.501 1196.89 Q161.446 1192.28 161.446 1183.56 Q161.446 1174.81 164.501 1170.22 Q167.58 1165.62 173.39 1165.62 Z" fill="#000000" fill-rule="nonzero" fill-opacity="1" /><path clip-path="url(#clip420)" d="M206.399 1170.32 L194.594 1188.76 L206.399 1188.76 L206.399 1170.32 M205.172 1166.24 L211.052 1166.24 L211.052 1188.76 L215.982 1188.76 L215.982 1192.65 L211.052 1192.65 L211.052 1200.8 L206.399 1200.8 L206.399 1192.65 L190.797 1192.65 L190.797 1188.14 L205.172 1166.24 Z" fill="#000000" fill-rule="nonzero" fill-opacity="1" /><path clip-path="url(#clip420)" d="M128.483 888.69 Q124.872 888.69 123.043 892.255 Q121.238 895.797 121.238 902.926 Q121.238 910.033 123.043 913.598 Q124.872 917.139 128.483 917.139 Q132.117 917.139 133.923 913.598 Q135.751 910.033 135.751 902.926 Q135.751 895.797 133.923 892.255 Q132.117 888.69 128.483 888.69 M128.483 884.987 Q134.293 884.987 137.349 889.593 Q140.427 894.176 140.427 902.926 Q140.427 911.653 137.349 916.26 Q134.293 920.843 128.483 920.843 Q122.673 920.843 119.594 916.26 Q116.539 911.653 116.539 902.926 Q116.539 894.176 119.594 889.593 Q122.673 884.987 128.483 884.987 Z" fill="#000000" fill-rule="nonzero" fill-opacity="1" /><path clip-path="url(#clip420)" d="M148.645 914.292 L153.529 914.292 L153.529 920.172 L148.645 920.172 L148.645 914.292 Z" fill="#000000" fill-rule="nonzero" fill-opacity="1" /><path clip-path="url(#clip420)" d="M173.714 888.69 Q170.103 888.69 168.274 892.255 Q166.469 895.797 166.469 902.926 Q166.469 910.033 168.274 913.598 Q170.103 917.139 173.714 917.139 Q177.348 917.139 179.154 913.598 Q180.983 910.033 180.983 902.926 Q180.983 895.797 179.154 892.255 Q177.348 888.69 173.714 888.69 M173.714 884.987 Q179.524 884.987 182.58 889.593 Q185.659 894.176 185.659 902.926 Q185.659 911.653 182.58 916.26 Q179.524 920.843 173.714 920.843 Q167.904 920.843 164.825 916.26 Q161.77 911.653 161.77 902.926 Q161.77 894.176 164.825 889.593 Q167.904 884.987 173.714 884.987 Z" fill="#000000" fill-rule="nonzero" fill-opacity="1" /><path clip-path="url(#clip420)" d="M204.455 901.028 Q201.307 901.028 199.455 903.181 Q197.626 905.334 197.626 909.084 Q197.626 912.811 199.455 914.986 Q201.307 917.139 204.455 917.139 Q207.603 917.139 209.432 914.986 Q211.283 912.811 211.283 909.084 Q211.283 905.334 209.432 903.181 Q207.603 901.028 204.455 901.028 M213.737 886.375 L213.737 890.635 Q211.978 889.801 210.172 889.362 Q208.39 888.922 206.631 888.922 Q202.001 888.922 199.547 892.047 Q197.117 895.172 196.77 901.491 Q198.135 899.477 200.195 898.412 Q202.256 897.324 204.732 897.324 Q209.941 897.324 212.95 900.496 Q215.982 903.644 215.982 909.084 Q215.982 914.408 212.834 917.625 Q209.686 920.843 204.455 920.843 Q198.459 920.843 195.288 916.26 Q192.117 911.653 192.117 902.926 Q192.117 894.732 196.006 889.871 Q199.895 884.987 206.445 884.987 Q208.205 884.987 209.987 885.334 Q211.793 885.681 213.737 886.375 Z" fill="#000000" fill-rule="nonzero" fill-opacity="1" /><path clip-path="url(#clip420)" d="M128.738 608.06 Q125.126 608.06 123.298 611.625 Q121.492 615.167 121.492 622.297 Q121.492 629.403 123.298 632.968 Q125.126 636.509 128.738 636.509 Q132.372 636.509 134.177 632.968 Q136.006 629.403 136.006 622.297 Q136.006 615.167 134.177 611.625 Q132.372 608.06 128.738 608.06 M128.738 604.357 Q134.548 604.357 137.603 608.963 Q140.682 613.547 140.682 622.297 Q140.682 631.023 137.603 635.63 Q134.548 640.213 128.738 640.213 Q122.927 640.213 119.849 635.63 Q116.793 631.023 116.793 622.297 Q116.793 613.547 119.849 608.963 Q122.927 604.357 128.738 604.357 Z" fill="#000000" fill-rule="nonzero" fill-opacity="1" /><path clip-path="url(#clip420)" d="M148.899 633.662 L153.784 633.662 L153.784 639.542 L148.899 639.542 L148.899 633.662 Z" fill="#000000" fill-rule="nonzero" fill-opacity="1" /><path clip-path="url(#clip420)" d="M173.969 608.06 Q170.358 608.06 168.529 611.625 Q166.723 615.167 166.723 622.297 Q166.723 629.403 168.529 632.968 Q170.358 636.509 173.969 636.509 Q177.603 636.509 179.409 632.968 Q181.237 629.403 181.237 622.297 Q181.237 615.167 179.409 611.625 Q177.603 608.06 173.969 608.06 M173.969 604.357 Q179.779 604.357 182.834 608.963 Q185.913 613.547 185.913 622.297 Q185.913 631.023 182.834 635.63 Q179.779 640.213 173.969 640.213 Q168.159 640.213 165.08 635.63 Q162.024 631.023 162.024 622.297 Q162.024 613.547 165.08 608.963 Q168.159 604.357 173.969 604.357 Z" fill="#000000" fill-rule="nonzero" fill-opacity="1" /><path clip-path="url(#clip420)" d="M204.131 623.13 Q200.797 623.13 198.876 624.912 Q196.978 626.695 196.978 629.82 Q196.978 632.945 198.876 634.727 Q200.797 636.509 204.131 636.509 Q207.464 636.509 209.385 634.727 Q211.307 632.921 211.307 629.82 Q211.307 626.695 209.385 624.912 Q207.487 623.13 204.131 623.13 M199.455 621.139 Q196.445 620.398 194.756 618.338 Q193.089 616.278 193.089 613.315 Q193.089 609.172 196.029 606.764 Q198.992 604.357 204.131 604.357 Q209.293 604.357 212.232 606.764 Q215.172 609.172 215.172 613.315 Q215.172 616.278 213.482 618.338 Q211.816 620.398 208.83 621.139 Q212.209 621.926 214.084 624.218 Q215.982 626.509 215.982 629.82 Q215.982 634.843 212.904 637.528 Q209.848 640.213 204.131 640.213 Q198.413 640.213 195.334 637.528 Q192.279 634.843 192.279 629.82 Q192.279 626.509 194.177 624.218 Q196.075 621.926 199.455 621.139 M197.742 613.755 Q197.742 616.44 199.408 617.945 Q201.098 619.449 204.131 619.449 Q207.14 619.449 208.83 617.945 Q210.543 616.44 210.543 613.755 Q210.543 611.07 208.83 609.565 Q207.14 608.06 204.131 608.06 Q201.098 608.06 199.408 609.565 Q197.742 611.07 197.742 613.755 Z" fill="#000000" fill-rule="nonzero" fill-opacity="1" /><path clip-path="url(#clip420)" d="M128.645 327.431 Q125.034 327.431 123.205 330.996 Q121.4 334.537 121.4 341.667 Q121.4 348.773 123.205 352.338 Q125.034 355.88 128.645 355.88 Q132.279 355.88 134.085 352.338 Q135.913 348.773 135.913 341.667 Q135.913 334.537 134.085 330.996 Q132.279 327.431 128.645 327.431 M128.645 323.727 Q134.455 323.727 137.511 328.333 Q140.589 332.917 140.589 341.667 Q140.589 350.394 137.511 355 Q134.455 359.583 128.645 359.583 Q122.835 359.583 119.756 355 Q116.701 350.394 116.701 341.667 Q116.701 332.917 119.756 328.333 Q122.835 323.727 128.645 323.727 Z" fill="#000000" fill-rule="nonzero" fill-opacity="1" /><path clip-path="url(#clip420)" d="M148.807 353.032 L153.691 353.032 L153.691 358.912 L148.807 358.912 L148.807 353.032 Z" fill="#000000" fill-rule="nonzero" fill-opacity="1" /><path clip-path="url(#clip420)" d="M164.686 354.977 L172.325 354.977 L172.325 328.611 L164.015 330.278 L164.015 326.019 L172.279 324.352 L176.955 324.352 L176.955 354.977 L184.594 354.977 L184.594 358.912 L164.686 358.912 L164.686 354.977 Z" fill="#000000" fill-rule="nonzero" fill-opacity="1" /><path clip-path="url(#clip420)" d="M204.038 327.431 Q200.427 327.431 198.598 330.996 Q196.793 334.537 196.793 341.667 Q196.793 348.773 198.598 352.338 Q200.427 355.88 204.038 355.88 Q207.672 355.88 209.478 352.338 Q211.307 348.773 211.307 341.667 Q211.307 334.537 209.478 330.996 Q207.672 327.431 204.038 327.431 M204.038 323.727 Q209.848 323.727 212.904 328.333 Q215.982 332.917 215.982 341.667 Q215.982 350.394 212.904 355 Q209.848 359.583 204.038 359.583 Q198.228 359.583 195.149 355 Q192.094 350.394 192.094 341.667 Q192.094 332.917 195.149 328.333 Q198.228 323.727 204.038 323.727 Z" fill="#000000" fill-rule="nonzero" fill-opacity="1" /><path clip-path="url(#clip420)" d="M19.402 1098.4 L37.2578 1098.4 L37.2578 1090.32 Q37.2578 1085.83 34.9343 1083.38 Q32.6108 1080.93 28.314 1080.93 Q24.0489 1080.93 21.7255 1083.38 Q19.402 1085.83 19.402 1090.32 L19.402 1098.4 M14.1184 1104.83 L14.1184 1090.32 Q14.1184 1082.33 17.7469 1078.26 Q21.3435 1074.15 28.314 1074.15 Q35.3481 1074.15 38.9447 1078.26 Q42.5413 1082.33 42.5413 1090.32 L42.5413 1098.4 L61.6384 1098.4 L61.6384 1104.83 L14.1184 1104.83 Z" fill="#000000" fill-rule="nonzero" fill-opacity="1" /><path clip-path="url(#clip420)" d="M31.465 1046.27 Q30.8921 1047.26 30.6375 1048.43 Q30.351 1049.58 30.351 1050.98 Q30.351 1055.95 33.5975 1058.62 Q36.8122 1061.26 42.8596 1061.26 L61.6384 1061.26 L61.6384 1067.15 L25.9905 1067.15 L25.9905 1061.26 L31.5287 1061.26 Q28.2821 1059.41 26.7225 1056.45 Q25.1311 1053.49 25.1311 1049.26 Q25.1311 1048.66 25.2266 1047.92 Q25.2903 1047.19 25.4494 1046.3 L31.465 1046.27 Z" fill="#000000" fill-rule="nonzero" fill-opacity="1" /><path clip-path="url(#clip420)" d="M42.3504 1011.07 L45.2149 1011.07 L45.2149 1037.99 Q51.2623 1037.61 54.4452 1034.37 Q57.5962 1031.09 57.5962 1025.26 Q57.5962 1021.89 56.7687 1018.74 Q55.9411 1015.55 54.2861 1012.44 L59.8242 1012.44 Q61.161 1015.59 61.8612 1018.9 Q62.5615 1022.21 62.5615 1025.61 Q62.5615 1034.14 57.5962 1039.14 Q52.631 1044.1 44.1646 1044.1 Q35.4117 1044.1 30.2873 1039.39 Q25.1311 1034.65 25.1311 1026.63 Q25.1311 1019.44 29.7781 1015.27 Q34.3932 1011.07 42.3504 1011.07 M40.6316 1016.92 Q35.8255 1016.99 32.9609 1019.63 Q30.0964 1022.24 30.0964 1026.57 Q30.0964 1031.47 32.8654 1034.43 Q35.6345 1037.36 40.6634 1037.8 L40.6316 1016.92 Z" fill="#000000" fill-rule="nonzero" fill-opacity="1" /><path clip-path="url(#clip420)" d="M25.9905 1005.66 L25.9905 999.45 L55.9093 988.31 L25.9905 977.17 L25.9905 970.963 L61.6384 984.331 L61.6384 992.288 L25.9905 1005.66 Z" fill="#000000" fill-rule="nonzero" fill-opacity="1" /><path clip-path="url(#clip420)" d="M43.719 946.678 Q43.719 953.776 45.3422 956.513 Q46.9655 959.25 50.8804 959.25 Q53.9996 959.25 55.8457 957.213 Q57.6599 955.144 57.6599 951.611 Q57.6599 946.742 54.2224 943.813 Q50.7531 940.853 45.0239 940.853 L43.719 940.853 L43.719 946.678 M41.3 934.997 L61.6384 934.997 L61.6384 940.853 L56.2276 940.853 Q59.4741 942.858 61.0337 945.85 Q62.5615 948.842 62.5615 953.171 Q62.5615 958.645 59.5059 961.892 Q56.4186 965.107 51.2623 965.107 Q45.2467 965.107 42.1912 961.096 Q39.1357 957.054 39.1357 949.065 L39.1357 940.853 L38.5628 940.853 Q34.5205 940.853 32.3244 943.527 Q30.0964 946.169 30.0964 950.975 Q30.0964 954.03 30.8284 956.927 Q31.5605 959.823 33.0246 962.497 L27.6137 962.497 Q26.3724 959.282 25.7677 956.258 Q25.1311 953.235 25.1311 950.37 Q25.1311 942.636 29.1415 938.816 Q33.1519 934.997 41.3 934.997 Z" fill="#000000" fill-rule="nonzero" fill-opacity="1" /><path clip-path="url(#clip420)" d="M12.1132 922.934 L12.1132 917.077 L61.6384 917.077 L61.6384 922.934 L12.1132 922.934 Z" fill="#000000" fill-rule="nonzero" fill-opacity="1" /><path clip-path="url(#clip420)" d="M42.3504 874.332 L45.2149 874.332 L45.2149 901.259 Q51.2623 900.877 54.4452 897.63 Q57.5962 894.352 57.5962 888.527 Q57.5962 885.153 56.7687 882.002 Q55.9411 878.819 54.2861 875.7 L59.8242 875.7 Q61.161 878.851 61.8612 882.161 Q62.5615 885.472 62.5615 888.877 Q62.5615 897.407 57.5962 902.404 Q52.631 907.37 44.1646 907.37 Q35.4117 907.37 30.2873 902.659 Q25.1311 897.917 25.1311 889.896 Q25.1311 882.702 29.7781 878.533 Q34.3932 874.332 42.3504 874.332 M40.6316 880.188 Q35.8255 880.252 32.9609 882.893 Q30.0964 885.503 30.0964 889.832 Q30.0964 894.734 32.8654 897.694 Q35.6345 900.622 40.6634 901.068 L40.6316 880.188 Z" fill="#000000" fill-rule="nonzero" fill-opacity="1" /><path clip-path="url(#clip420)" d="M40.1224 835.087 L61.6384 835.087 L61.6384 840.943 L40.3133 840.943 Q35.2526 840.943 32.7381 842.917 Q30.2237 844.89 30.2237 848.837 Q30.2237 853.579 33.2474 856.317 Q36.2711 859.054 41.491 859.054 L61.6384 859.054 L61.6384 864.942 L25.9905 864.942 L25.9905 859.054 L31.5287 859.054 Q28.314 856.953 26.7225 854.12 Q25.1311 851.256 25.1311 847.532 Q25.1311 841.389 28.9505 838.238 Q32.7381 835.087 40.1224 835.087 Z" fill="#000000" fill-rule="nonzero" fill-opacity="1" /><path clip-path="url(#clip420)" d="M27.3591 797.752 L32.8336 797.752 Q31.465 800.235 30.7966 802.749 Q30.0964 805.232 30.0964 807.778 Q30.0964 813.475 33.7248 816.626 Q37.3214 819.777 43.8463 819.777 Q50.3711 819.777 53.9996 816.626 Q57.5962 813.475 57.5962 807.778 Q57.5962 805.232 56.9278 802.749 Q56.2276 800.235 54.859 797.752 L60.2698 797.752 Q61.4156 800.203 61.9886 802.845 Q62.5615 805.455 62.5615 808.415 Q62.5615 816.467 57.5007 821.21 Q52.44 825.952 43.8463 825.952 Q35.1253 825.952 30.1282 821.178 Q25.1311 816.372 25.1311 808.033 Q25.1311 805.327 25.704 802.749 Q26.2451 800.171 27.3591 797.752 Z" fill="#000000" fill-rule="nonzero" fill-opacity="1" /><path clip-path="url(#clip420)" d="M42.3504 757.075 L45.2149 757.075 L45.2149 784.002 Q51.2623 783.62 54.4452 780.374 Q57.5962 777.095 57.5962 771.271 Q57.5962 767.897 56.7687 764.746 Q55.9411 761.563 54.2861 758.444 L59.8242 758.444 Q61.161 761.595 61.8612 764.905 Q62.5615 768.215 62.5615 771.621 Q62.5615 780.151 57.5962 785.148 Q52.631 790.113 44.1646 790.113 Q35.4117 790.113 30.2873 785.403 Q25.1311 780.66 25.1311 772.639 Q25.1311 765.446 29.7781 761.277 Q34.3932 757.075 42.3504 757.075 M40.6316 762.932 Q35.8255 762.995 32.9609 765.637 Q30.0964 768.247 30.0964 772.576 Q30.0964 777.477 32.8654 780.437 Q35.6345 783.366 40.6634 783.811 L40.6316 762.932 Z" fill="#000000" fill-rule="nonzero" fill-opacity="1" /><path clip-path="url(#clip420)" d="M677.986 12.096 L716.227 12.096 L716.227 18.9825 L686.169 18.9825 L686.169 36.8875 L714.971 36.8875 L714.971 43.7741 L686.169 43.7741 L686.169 65.6895 L716.956 65.6895 L716.956 72.576 L677.986 72.576 L677.986 12.096 Z" fill="#000000" fill-rule="nonzero" fill-opacity="1" /><path clip-path="url(#clip420)" d="M753.05 9.54393 L753.05 15.7418 L745.92 15.7418 Q741.91 15.7418 740.33 17.3622 Q738.79 18.9825 738.79 23.1955 L738.79 27.2059 L751.065 27.2059 L751.065 32.9987 L738.79 32.9987 L738.79 72.576 L731.296 72.576 L731.296 32.9987 L724.167 32.9987 L724.167 27.2059 L731.296 27.2059 L731.296 24.0462 Q731.296 16.471 734.821 13.0277 Q738.345 9.54393 746.001 9.54393 L753.05 9.54393 Z" fill="#000000" fill-rule="nonzero" fill-opacity="1" /><path clip-path="url(#clip420)" d="M782.257 9.54393 L782.257 15.7418 L775.127 15.7418 Q771.117 15.7418 769.537 17.3622 Q767.998 18.9825 767.998 23.1955 L767.998 27.2059 L780.272 27.2059 L780.272 32.9987 L767.998 32.9987 L767.998 72.576 L760.503 72.576 L760.503 32.9987 L753.374 32.9987 L753.374 27.2059 L760.503 27.2059 L760.503 24.0462 Q760.503 16.471 764.028 13.0277 Q767.552 9.54393 775.208 9.54393 L782.257 9.54393 Z" fill="#000000" fill-rule="nonzero" fill-opacity="1" /><path clip-path="url(#clip420)" d="M827.303 48.0275 L827.303 51.6733 L793.032 51.6733 Q793.518 59.3701 797.65 63.421 Q801.823 67.4314 809.236 67.4314 Q813.53 67.4314 817.54 66.3781 Q821.591 65.3249 825.561 63.2184 L825.561 70.267 Q821.55 71.9684 817.338 72.8596 Q813.125 73.7508 808.79 73.7508 Q797.934 73.7508 791.574 67.4314 Q785.254 61.1119 785.254 50.3365 Q785.254 39.1965 791.25 32.6746 Q797.286 26.1121 807.494 26.1121 Q816.649 26.1121 821.956 32.0264 Q827.303 37.9003 827.303 48.0275 M819.849 45.84 Q819.768 39.7232 816.406 36.0774 Q813.084 32.4315 807.575 32.4315 Q801.336 32.4315 797.569 35.9558 Q793.842 39.4801 793.275 45.8805 L819.849 45.84 Z" fill="#000000" fill-rule="nonzero" fill-opacity="1" /><path clip-path="url(#clip420)" d="M872.187 28.9478 L872.187 35.9153 Q869.027 34.1734 865.827 33.3227 Q862.667 32.4315 859.426 32.4315 Q852.175 32.4315 848.165 37.0496 Q844.155 41.6271 844.155 49.9314 Q844.155 58.2358 848.165 62.8538 Q852.175 67.4314 859.426 67.4314 Q862.667 67.4314 865.827 66.5807 Q869.027 65.6895 872.187 63.9476 L872.187 70.8341 Q869.068 72.2924 865.705 73.0216 Q862.384 73.7508 858.616 73.7508 Q848.367 73.7508 842.332 67.3098 Q836.296 60.8689 836.296 49.9314 Q836.296 38.832 842.372 32.472 Q848.489 26.1121 859.102 26.1121 Q862.546 26.1121 865.827 26.8413 Q869.108 27.5299 872.187 28.9478 Z" fill="#000000" fill-rule="nonzero" fill-opacity="1" /><path clip-path="url(#clip420)" d="M892.522 14.324 L892.522 27.2059 L907.875 27.2059 L907.875 32.9987 L892.522 32.9987 L892.522 57.6282 Q892.522 63.1779 894.021 64.7578 Q895.56 66.3376 900.219 66.3376 L907.875 66.3376 L907.875 72.576 L900.219 72.576 Q891.591 72.576 888.309 69.3758 Q885.028 66.1351 885.028 57.6282 L885.028 32.9987 L879.559 32.9987 L879.559 27.2059 L885.028 27.2059 L885.028 14.324 L892.522 14.324 Z" fill="#000000" fill-rule="nonzero" fill-opacity="1" /><path clip-path="url(#clip420)" d="M961.631 32.4315 Q955.635 32.4315 952.152 37.1306 Q948.668 41.7891 948.668 49.9314 Q948.668 58.0738 952.111 62.7728 Q955.595 67.4314 961.631 67.4314 Q967.586 67.4314 971.069 62.7323 Q974.553 58.0333 974.553 49.9314 Q974.553 41.8701 971.069 37.1711 Q967.586 32.4315 961.631 32.4315 M961.631 26.1121 Q971.353 26.1121 976.903 32.4315 Q982.452 38.7509 982.452 49.9314 Q982.452 61.0714 976.903 67.4314 Q971.353 73.7508 961.631 73.7508 Q951.868 73.7508 946.318 67.4314 Q940.809 61.0714 940.809 49.9314 Q940.809 38.7509 946.318 32.4315 Q951.868 26.1121 961.631 26.1121 Z" fill="#000000" fill-rule="nonzero" fill-opacity="1" /><path clip-path="url(#clip420)" d="M1017.78 9.54393 L1017.78 15.7418 L1010.65 15.7418 Q1006.64 15.7418 1005.06 17.3622 Q1003.52 18.9825 1003.52 23.1955 L1003.52 27.2059 L1015.79 27.2059 L1015.79 32.9987 L1003.52 32.9987 L1003.52 72.576 L996.023 72.576 L996.023 32.9987 L988.893 32.9987 L988.893 27.2059 L996.023 27.2059 L996.023 24.0462 Q996.023 16.471 999.547 13.0277 Q1003.07 9.54393 1010.73 9.54393 L1017.78 9.54393 Z" fill="#000000" fill-rule="nonzero" fill-opacity="1" /><path clip-path="url(#clip420)" d="M1058.89 18.8205 L1058.89 65.8515 L1068.78 65.8515 Q1081.29 65.8515 1087.09 60.1802 Q1092.92 54.509 1092.92 42.2752 Q1092.92 30.1225 1087.09 24.4918 Q1081.29 18.8205 1068.78 18.8205 L1058.89 18.8205 M1050.71 12.096 L1067.52 12.096 Q1085.1 12.096 1093.33 19.4281 Q1101.55 26.7198 1101.55 42.2752 Q1101.55 57.9117 1093.29 65.2439 Q1085.02 72.576 1067.52 72.576 L1050.71 72.576 L1050.71 12.096 Z" fill="#000000" fill-rule="nonzero" fill-opacity="1" /><path clip-path="url(#clip420)" d="M1134.89 49.7694 Q1125.85 49.7694 1122.37 51.8354 Q1118.89 53.9013 1118.89 58.8839 Q1118.89 62.8538 1121.48 65.2034 Q1124.11 67.5124 1128.61 67.5124 Q1134.81 67.5124 1138.53 63.1374 Q1142.3 58.7219 1142.3 51.4303 L1142.3 49.7694 L1134.89 49.7694 M1149.75 46.6907 L1149.75 72.576 L1142.3 72.576 L1142.3 65.6895 Q1139.75 69.8214 1135.94 71.8063 Q1132.13 73.7508 1126.62 73.7508 Q1119.66 73.7508 1115.52 69.8619 Q1111.43 65.9325 1111.43 59.3701 Q1111.43 51.7138 1116.54 47.825 Q1121.68 43.9361 1131.85 43.9361 L1142.3 43.9361 L1142.3 43.2069 Q1142.3 38.0623 1138.9 35.2672 Q1135.54 32.4315 1129.42 32.4315 Q1125.53 32.4315 1121.84 33.3632 Q1118.16 34.295 1114.75 36.1584 L1114.75 29.2718 Q1118.85 27.692 1122.69 26.9223 Q1126.54 26.1121 1130.19 26.1121 Q1140.03 26.1121 1144.89 31.2163 Q1149.75 36.3204 1149.75 46.6907 Z" fill="#000000" fill-rule="nonzero" fill-opacity="1" /><path clip-path="url(#clip420)" d="M1165.11 27.2059 L1172.56 27.2059 L1172.56 72.576 L1165.11 72.576 L1165.11 27.2059 M1165.11 9.54393 L1172.56 9.54393 L1172.56 18.9825 L1165.11 18.9825 L1165.11 9.54393 Z" fill="#000000" fill-rule="nonzero" fill-opacity="1" /><path clip-path="url(#clip420)" d="M1188.16 9.54393 L1195.61 9.54393 L1195.61 72.576 L1188.16 72.576 L1188.16 9.54393 Z" fill="#000000" fill-rule="nonzero" fill-opacity="1" /><path clip-path="url(#clip420)" d="M1230.08 76.7889 Q1226.92 84.8907 1223.93 87.3618 Q1220.93 89.8329 1215.91 89.8329 L1209.95 89.8329 L1209.95 83.5945 L1214.33 83.5945 Q1217.4 83.5945 1219.11 82.1361 Q1220.81 80.6778 1222.87 75.2496 L1224.21 71.8468 L1205.86 27.2059 L1213.76 27.2059 L1227.94 62.6918 L1242.12 27.2059 L1250.01 27.2059 L1230.08 76.7889 Z" fill="#000000" fill-rule="nonzero" fill-opacity="1" /><path clip-path="url(#clip420)" d="M1302.6 72.576 L1279.51 12.096 L1288.05 12.096 L1307.21 63.0159 L1326.41 12.096 L1334.92 12.096 L1311.87 72.576 L1302.6 72.576 Z" fill="#000000" fill-rule="nonzero" fill-opacity="1" /><path clip-path="url(#clip420)" d="M1357.61 49.7694 Q1348.57 49.7694 1345.09 51.8354 Q1341.61 53.9013 1341.61 58.8839 Q1341.61 62.8538 1344.2 65.2034 Q1346.83 67.5124 1351.33 67.5124 Q1357.53 67.5124 1361.25 63.1374 Q1365.02 58.7219 1365.02 51.4303 L1365.02 49.7694 L1357.61 49.7694 M1372.47 46.6907 L1372.47 72.576 L1365.02 72.576 L1365.02 65.6895 Q1362.47 69.8214 1358.66 71.8063 Q1354.85 73.7508 1349.34 73.7508 Q1342.38 73.7508 1338.24 69.8619 Q1334.15 65.9325 1334.15 59.3701 Q1334.15 51.7138 1339.26 47.825 Q1344.4 43.9361 1354.57 43.9361 L1365.02 43.9361 L1365.02 43.2069 Q1365.02 38.0623 1361.62 35.2672 Q1358.25 32.4315 1352.14 32.4315 Q1348.25 32.4315 1344.56 33.3632 Q1340.88 34.295 1337.47 36.1584 L1337.47 29.2718 Q1341.57 27.692 1345.41 26.9223 Q1349.26 26.1121 1352.91 26.1121 Q1362.75 26.1121 1367.61 31.2163 Q1372.47 36.3204 1372.47 46.6907 Z" fill="#000000" fill-rule="nonzero" fill-opacity="1" /><path clip-path="url(#clip420)" d="M1420.48 28.9478 L1420.48 35.9153 Q1417.32 34.1734 1414.12 33.3227 Q1410.96 32.4315 1407.72 32.4315 Q1400.47 32.4315 1396.45 37.0496 Q1392.44 41.6271 1392.44 49.9314 Q1392.44 58.2358 1396.45 62.8538 Q1400.47 67.4314 1407.72 67.4314 Q1410.96 67.4314 1414.12 66.5807 Q1417.32 65.6895 1420.48 63.9476 L1420.48 70.8341 Q1417.36 72.2924 1414 73.0216 Q1410.67 73.7508 1406.91 73.7508 Q1396.66 73.7508 1390.62 67.3098 Q1384.59 60.8689 1384.59 49.9314 Q1384.59 38.832 1390.66 32.472 Q1396.78 26.1121 1407.39 26.1121 Q1410.84 26.1121 1414.12 26.8413 Q1417.4 27.5299 1420.48 28.9478 Z" fill="#000000" fill-rule="nonzero" fill-opacity="1" /><path clip-path="url(#clip420)" d="M1466.09 28.9478 L1466.09 35.9153 Q1462.93 34.1734 1459.73 33.3227 Q1456.57 32.4315 1453.33 32.4315 Q1446.08 32.4315 1442.07 37.0496 Q1438.06 41.6271 1438.06 49.9314 Q1438.06 58.2358 1442.07 62.8538 Q1446.08 67.4314 1453.33 67.4314 Q1456.57 67.4314 1459.73 66.5807 Q1462.93 65.6895 1466.09 63.9476 L1466.09 70.8341 Q1462.97 72.2924 1459.61 73.0216 Q1456.29 73.7508 1452.52 73.7508 Q1442.27 73.7508 1436.23 67.3098 Q1430.2 60.8689 1430.2 49.9314 Q1430.2 38.832 1436.28 32.472 Q1442.39 26.1121 1453.01 26.1121 Q1456.45 26.1121 1459.73 26.8413 Q1463.01 27.5299 1466.09 28.9478 Z" fill="#000000" fill-rule="nonzero" fill-opacity="1" /><path clip-path="url(#clip420)" d="M1479.05 27.2059 L1486.51 27.2059 L1486.51 72.576 L1479.05 72.576 L1479.05 27.2059 M1479.05 9.54393 L1486.51 9.54393 L1486.51 18.9825 L1479.05 18.9825 L1479.05 9.54393 Z" fill="#000000" fill-rule="nonzero" fill-opacity="1" /><path clip-path="url(#clip420)" d="M1539.82 45.1919 L1539.82 72.576 L1532.36 72.576 L1532.36 45.4349 Q1532.36 38.994 1529.85 35.7938 Q1527.34 32.5936 1522.32 32.5936 Q1516.28 32.5936 1512.8 36.4419 Q1509.31 40.2903 1509.31 46.9338 L1509.31 72.576 L1501.82 72.576 L1501.82 27.2059 L1509.31 27.2059 L1509.31 34.2544 Q1511.99 30.163 1515.59 28.1376 Q1519.24 26.1121 1523.98 26.1121 Q1531.8 26.1121 1535.81 30.9732 Q1539.82 35.7938 1539.82 45.1919 Z" fill="#000000" fill-rule="nonzero" fill-opacity="1" /><path clip-path="url(#clip420)" d="M1575.3 49.7694 Q1566.27 49.7694 1562.78 51.8354 Q1559.3 53.9013 1559.3 58.8839 Q1559.3 62.8538 1561.89 65.2034 Q1564.53 67.5124 1569.02 67.5124 Q1575.22 67.5124 1578.95 63.1374 Q1582.72 58.7219 1582.72 51.4303 L1582.72 49.7694 L1575.3 49.7694 M1590.17 46.6907 L1590.17 72.576 L1582.72 72.576 L1582.72 65.6895 Q1580.16 69.8214 1576.36 71.8063 Q1572.55 73.7508 1567.04 73.7508 Q1560.07 73.7508 1555.94 69.8619 Q1551.85 65.9325 1551.85 59.3701 Q1551.85 51.7138 1556.95 47.825 Q1562.1 43.9361 1572.26 43.9361 L1582.72 43.9361 L1582.72 43.2069 Q1582.72 38.0623 1579.31 35.2672 Q1575.95 32.4315 1569.83 32.4315 Q1565.94 32.4315 1562.26 33.3632 Q1558.57 34.295 1555.17 36.1584 L1555.17 29.2718 Q1559.26 27.692 1563.11 26.9223 Q1566.96 26.1121 1570.6 26.1121 Q1580.45 26.1121 1585.31 31.2163 Q1590.17 36.3204 1590.17 46.6907 Z" fill="#000000" fill-rule="nonzero" fill-opacity="1" /><path clip-path="url(#clip420)" d="M1612.89 14.324 L1612.89 27.2059 L1628.25 27.2059 L1628.25 32.9987 L1612.89 32.9987 L1612.89 57.6282 Q1612.89 63.1779 1614.39 64.7578 Q1615.93 66.3376 1620.59 66.3376 L1628.25 66.3376 L1628.25 72.576 L1620.59 72.576 Q1611.96 72.576 1608.68 69.3758 Q1605.4 66.1351 1605.4 57.6282 L1605.4 32.9987 L1599.93 32.9987 L1599.93 27.2059 L1605.4 27.2059 L1605.4 14.324 L1612.89 14.324 Z" fill="#000000" fill-rule="nonzero" fill-opacity="1" /><path clip-path="url(#clip420)" d="M1638.05 27.2059 L1645.5 27.2059 L1645.5 72.576 L1638.05 72.576 L1638.05 27.2059 M1638.05 9.54393 L1645.5 9.54393 L1645.5 18.9825 L1638.05 18.9825 L1638.05 9.54393 Z" fill="#000000" fill-rule="nonzero" fill-opacity="1" /><path clip-path="url(#clip420)" d="M1678.68 32.4315 Q1672.69 32.4315 1669.2 37.1306 Q1665.72 41.7891 1665.72 49.9314 Q1665.72 58.0738 1669.16 62.7728 Q1672.65 67.4314 1678.68 67.4314 Q1684.64 67.4314 1688.12 62.7323 Q1691.6 58.0333 1691.6 49.9314 Q1691.6 41.8701 1688.12 37.1711 Q1684.64 32.4315 1678.68 32.4315 M1678.68 26.1121 Q1688.4 26.1121 1693.95 32.4315 Q1699.5 38.7509 1699.5 49.9314 Q1699.5 61.0714 1693.95 67.4314 Q1688.4 73.7508 1678.68 73.7508 Q1668.92 73.7508 1663.37 67.4314 Q1657.86 61.0714 1657.86 49.9314 Q1657.86 38.7509 1663.37 32.4315 Q1668.92 26.1121 1678.68 26.1121 Z" fill="#000000" fill-rule="nonzero" fill-opacity="1" /><path clip-path="url(#clip420)" d="M1749.57 45.1919 L1749.57 72.576 L1742.12 72.576 L1742.12 45.4349 Q1742.12 38.994 1739.61 35.7938 Q1737.1 32.5936 1732.07 32.5936 Q1726.04 32.5936 1722.55 36.4419 Q1719.07 40.2903 1719.07 46.9338 L1719.07 72.576 L1711.57 72.576 L1711.57 27.2059 L1719.07 27.2059 L1719.07 34.2544 Q1721.74 30.163 1725.35 28.1376 Q1728.99 26.1121 1733.73 26.1121 Q1741.55 26.1121 1745.56 30.9732 Q1749.57 35.7938 1749.57 45.1919 Z" fill="#000000" fill-rule="nonzero" fill-opacity="1" /><path clip-path="url(#clip420)" d="M1799.32 18.8205 L1799.32 41.5461 L1809.61 41.5461 Q1815.32 41.5461 1818.44 38.5889 Q1821.56 35.6318 1821.56 30.163 Q1821.56 24.7348 1818.44 21.7777 Q1815.32 18.8205 1809.61 18.8205 L1799.32 18.8205 M1791.13 12.096 L1809.61 12.096 Q1819.77 12.096 1824.96 16.714 Q1830.19 21.2916 1830.19 30.163 Q1830.19 39.1155 1824.96 43.6931 Q1819.77 48.2706 1809.61 48.2706 L1799.32 48.2706 L1799.32 72.576 L1791.13 72.576 L1791.13 12.096 Z" fill="#000000" fill-rule="nonzero" fill-opacity="1" /><path clip-path="url(#clip420)" d="M1865.67 34.1734 Q1864.42 33.4443 1862.92 33.1202 Q1861.46 32.7556 1859.68 32.7556 Q1853.36 32.7556 1849.95 36.8875 Q1846.59 40.9789 1846.59 48.6757 L1846.59 72.576 L1839.1 72.576 L1839.1 27.2059 L1846.59 27.2059 L1846.59 34.2544 Q1848.94 30.1225 1852.71 28.1376 Q1856.48 26.1121 1861.86 26.1121 Q1862.63 26.1121 1863.56 26.2337 Q1864.5 26.3147 1865.63 26.5172 L1865.67 34.1734 Z" fill="#000000" fill-rule="nonzero" fill-opacity="1" /><path clip-path="url(#clip420)" d="M1889.25 32.4315 Q1883.25 32.4315 1879.77 37.1306 Q1876.28 41.7891 1876.28 49.9314 Q1876.28 58.0738 1879.73 62.7728 Q1883.21 67.4314 1889.25 67.4314 Q1895.2 67.4314 1898.69 62.7323 Q1902.17 58.0333 1902.17 49.9314 Q1902.17 41.8701 1898.69 37.1711 Q1895.2 32.4315 1889.25 32.4315 M1889.25 26.1121 Q1898.97 26.1121 1904.52 32.4315 Q1910.07 38.7509 1910.07 49.9314 Q1910.07 61.0714 1904.52 67.4314 Q1898.97 73.7508 1889.25 73.7508 Q1879.48 73.7508 1873.93 67.4314 Q1868.43 61.0714 1868.43 49.9314 Q1868.43 38.7509 1873.93 32.4315 Q1879.48 26.1121 1889.25 26.1121 Z" fill="#000000" fill-rule="nonzero" fill-opacity="1" /><path clip-path="url(#clip420)" d="M1954.99 49.9314 Q1954.99 41.7081 1951.59 37.0496 Q1948.23 32.3505 1942.31 32.3505 Q1936.4 32.3505 1933 37.0496 Q1929.63 41.7081 1929.63 49.9314 Q1929.63 58.1548 1933 62.8538 Q1936.4 67.5124 1942.31 67.5124 Q1948.23 67.5124 1951.59 62.8538 Q1954.99 58.1548 1954.99 49.9314 M1929.63 34.0924 Q1931.98 30.0415 1935.55 28.0971 Q1939.15 26.1121 1944.14 26.1121 Q1952.4 26.1121 1957.55 32.6746 Q1962.73 39.2371 1962.73 49.9314 Q1962.73 60.6258 1957.55 67.1883 Q1952.4 73.7508 1944.14 73.7508 Q1939.15 73.7508 1935.55 71.8063 Q1931.98 69.8214 1929.63 65.7705 L1929.63 72.576 L1922.14 72.576 L1922.14 9.54393 L1929.63 9.54393 L1929.63 34.0924 Z" fill="#000000" fill-rule="nonzero" fill-opacity="1" /><path clip-path="url(#clip420)" d="M1995.71 49.7694 Q1986.67 49.7694 1983.19 51.8354 Q1979.7 53.9013 1979.7 58.8839 Q1979.7 62.8538 1982.3 65.2034 Q1984.93 67.5124 1989.43 67.5124 Q1995.62 67.5124 1999.35 63.1374 Q2003.12 58.7219 2003.12 51.4303 L2003.12 49.7694 L1995.71 49.7694 M2010.57 46.6907 L2010.57 72.576 L2003.12 72.576 L2003.12 65.6895 Q2000.57 69.8214 1996.76 71.8063 Q1992.95 73.7508 1987.44 73.7508 Q1980.47 73.7508 1976.34 69.8619 Q1972.25 65.9325 1972.25 59.3701 Q1972.25 51.7138 1977.35 47.825 Q1982.5 43.9361 1992.67 43.9361 L2003.12 43.9361 L2003.12 43.2069 Q2003.12 38.0623 1999.72 35.2672 Q1996.35 32.4315 1990.24 32.4315 Q1986.35 32.4315 1982.66 33.3632 Q1978.97 34.295 1975.57 36.1584 L1975.57 29.2718 Q1979.66 27.692 1983.51 26.9223 Q1987.36 26.1121 1991.01 26.1121 Q2000.85 26.1121 2005.71 31.2163 Q2010.57 36.3204 2010.57 46.6907 Z" fill="#000000" fill-rule="nonzero" fill-opacity="1" /><path clip-path="url(#clip420)" d="M2058.49 49.9314 Q2058.49 41.7081 2055.09 37.0496 Q2051.73 32.3505 2045.81 32.3505 Q2039.9 32.3505 2036.5 37.0496 Q2033.14 41.7081 2033.14 49.9314 Q2033.14 58.1548 2036.5 62.8538 Q2039.9 67.5124 2045.81 67.5124 Q2051.73 67.5124 2055.09 62.8538 Q2058.49 58.1548 2058.49 49.9314 M2033.14 34.0924 Q2035.48 30.0415 2039.05 28.0971 Q2042.66 26.1121 2047.64 26.1121 Q2055.9 26.1121 2061.05 32.6746 Q2066.23 39.2371 2066.23 49.9314 Q2066.23 60.6258 2061.05 67.1883 Q2055.9 73.7508 2047.64 73.7508 Q2042.66 73.7508 2039.05 71.8063 Q2035.48 69.8214 2033.14 65.7705 L2033.14 72.576 L2025.64 72.576 L2025.64 9.54393 L2033.14 9.54393 L2033.14 34.0924 Z" fill="#000000" fill-rule="nonzero" fill-opacity="1" /><path clip-path="url(#clip420)" d="M2078.59 27.2059 L2086.04 27.2059 L2086.04 72.576 L2078.59 72.576 L2078.59 27.2059 M2078.59 9.54393 L2086.04 9.54393 L2086.04 18.9825 L2078.59 18.9825 L2078.59 9.54393 Z" fill="#000000" fill-rule="nonzero" fill-opacity="1" /><path clip-path="url(#clip420)" d="M2101.64 9.54393 L2109.09 9.54393 L2109.09 72.576 L2101.64 72.576 L2101.64 9.54393 Z" fill="#000000" fill-rule="nonzero" fill-opacity="1" /><path clip-path="url(#clip420)" d="M2124.69 27.2059 L2132.14 27.2059 L2132.14 72.576 L2124.69 72.576 L2124.69 27.2059 M2124.69 9.54393 L2132.14 9.54393 L2132.14 18.9825 L2124.69 18.9825 L2124.69 9.54393 Z" fill="#000000" fill-rule="nonzero" fill-opacity="1" /><path clip-path="url(#clip420)" d="M2155.11 14.324 L2155.11 27.2059 L2170.46 27.2059 L2170.46 32.9987 L2155.11 32.9987 L2155.11 57.6282 Q2155.11 63.1779 2156.61 64.7578 Q2158.15 66.3376 2162.8 66.3376 L2170.46 66.3376 L2170.46 72.576 L2162.8 72.576 Q2154.18 72.576 2150.9 69.3758 Q2147.61 66.1351 2147.61 57.6282 L2147.61 32.9987 L2142.15 32.9987 L2142.15 27.2059 L2147.61 27.2059 L2147.61 14.324 L2155.11 14.324 Z" fill="#000000" fill-rule="nonzero" fill-opacity="1" /><path clip-path="url(#clip420)" d="M2199.14 76.7889 Q2195.98 84.8907 2192.98 87.3618 Q2189.99 89.8329 2184.96 89.8329 L2179.01 89.8329 L2179.01 83.5945 L2183.38 83.5945 Q2186.46 83.5945 2188.16 82.1361 Q2189.86 80.6778 2191.93 75.2496 L2193.27 71.8468 L2174.92 27.2059 L2182.82 27.2059 L2196.99 62.6918 L2211.17 27.2059 L2219.07 27.2059 L2199.14 76.7889 Z" fill="#000000" fill-rule="nonzero" fill-opacity="1" /><polyline clip-path="url(#clip421)" style="stroke:#808080; stroke-linecap:round; stroke-linejoin:round; stroke-width:8; stroke-opacity:1; fill:none" stroke-dasharray="32, 20" points="323.787,1548.34 380.024,1562.37 436.261,1492.21 492.498,1408.03 548.735,1295.77 604.973,1197.55 661.21,1155.46 717.447,1239.65 773.684,1113.36 829.921,1085.3 886.158,1001.11 942.395,987.081 998.632,832.734 1054.87,790.64 1111.11,762.577 1167.34,594.199 1223.58,439.852 1279.82,369.695 1336.05,355.664 1392.29,173.254 1448.53,243.412 1504.77,397.758 1561,327.601 1617.24,566.136 1673.48,678.388 1729.71,734.514 1785.95,664.356 1842.19,860.797 1898.43,888.86 1954.66,1029.17 2010.9,1043.21 2067.14,973.049 2123.37,1015.14 2179.61,1043.21 2235.85,1071.27 2292.09,1071.27 2348.32,1071.27 2404.56,1169.49 2460.8,1267.71 2517.03,1253.68 2573.27,1379.96 "/>
<polyline clip-path="url(#clip421)" style="stroke:#e26f46; stroke-linecap:round; stroke-linejoin:round; stroke-width:8; stroke-opacity:1; fill:none" points="323.787,1548.34 380.024,1562.37 436.261,1492.21 492.498,1408.03 548.735,1295.77 604.973,1225.62 661.21,1183.52 717.447,1183.52 773.684,1001.11 829.921,1071.27 886.158,944.986 942.395,916.923 998.632,832.734 1054.87,846.766 1111.11,916.923 1167.34,776.608 1223.58,706.451 1279.82,650.325 1336.05,636.293 1392.29,636.293 1448.53,636.293 1504.77,748.545 1561,706.451 1617.24,580.167 1673.48,481.947 1729.71,580.167 1785.95,580.167 1842.19,608.23 1898.43,692.419 1954.66,874.829 2010.9,944.986 2067.14,902.892 2123.37,902.892 2179.61,930.955 2235.85,916.923 2292.09,1015.14 2348.32,1113.36 2404.56,1197.55 2460.8,1197.55 2517.03,1197.55 2573.27,1239.65 "/>
<polyline clip-path="url(#clip421)" style="stroke:#3da44d; stroke-linecap:round; stroke-linejoin:round; stroke-width:8; stroke-opacity:1; fill:none" points="323.787,1548.34 380.024,1562.37 436.261,1492.21 492.498,1408.03 548.735,1295.77 604.973,1239.65 661.21,1197.55 717.447,1169.49 773.684,916.923 829.921,1029.17 886.158,959.018 942.395,888.86 998.632,916.923 1054.87,902.892 1111.11,930.955 1167.34,790.64 1223.58,720.482 1279.82,594.199 1336.05,636.293 1392.29,580.167 1448.53,552.104 1504.77,594.199 1561,804.671 1617.24,790.64 1673.48,790.64 1729.71,804.671 1785.95,959.018 1842.19,944.986 1898.43,832.734 1954.66,987.081 2010.9,1057.24 2067.14,1113.36 2123.37,1211.58 2179.61,1225.62 2235.85,1295.77 2292.09,1253.68 2348.32,1309.8 2404.56,1309.8 2460.8,1365.93 2517.03,1422.06 2573.27,1408.03 "/>
<polyline clip-path="url(#clip421)" style="stroke:#c271d2; stroke-linecap:round; stroke-linejoin:round; stroke-width:8; stroke-opacity:1; fill:none" points="323.787,1548.34 380.024,1562.37 436.261,1492.21 492.498,1422.06 548.735,1323.84 604.973,1197.55 661.21,1015.14 717.447,1029.17 773.684,973.049 829.921,916.923 886.158,987.081 942.395,804.671 998.632,874.829 1054.87,888.86 1111.11,664.356 1167.34,580.167 1223.58,580.167 1279.82,650.325 1336.05,748.545 1392.29,762.577 1448.53,832.734 1504.77,902.892 1561,944.986 1617.24,1029.17 1673.48,1001.11 1729.71,1029.17 1785.95,1197.55 1842.19,1408.03 1898.43,1379.96 1954.66,1351.9 2010.9,1379.96 2067.14,1422.06 2123.37,1450.12 2179.61,1520.28 2235.85,1562.37 2292.09,1534.31 2348.32,1590.43 2404.56,1604.47 2460.8,1632.53 2517.03,1674.62 2573.27,1688.65 "/>
<path clip-path="url(#clip420)" d="M2048.2 440.536 L2561.27 440.536 L2561.27 181.336 L2048.2 181.336  Z" fill="#ffffff" fill-rule="evenodd" fill-opacity="1"/>
<polyline clip-path="url(#clip420)" style="stroke:#000000; stroke-linecap:round; stroke-linejoin:round; stroke-width:4; stroke-opacity:1; fill:none" points="2048.2,440.536 2561.27,440.536 2561.27,181.336 2048.2,181.336 2048.2,440.536 "/>
<polyline clip-path="url(#clip420)" style="stroke:#808080; stroke-linecap:round; stroke-linejoin:round; stroke-width:8; stroke-opacity:1; fill:none" stroke-dasharray="32, 20" points="2074.69,233.176 2233.66,233.176 "/>
<path clip-path="url(#clip420)" d="M2260.15 215.896 L2266.45 215.896 L2281.77 244.808 L2281.77 215.896 L2286.31 215.896 L2286.31 250.456 L2280.01 250.456 L2264.69 221.544 L2264.69 250.456 L2260.15 250.456 L2260.15 215.896 Z" fill="#000000" fill-rule="nonzero" fill-opacity="1" /><path clip-path="url(#clip420)" d="M2305.48 227.517 Q2302.05 227.517 2300.06 230.202 Q2298.07 232.864 2298.07 237.517 Q2298.07 242.169 2300.04 244.854 Q2302.03 247.516 2305.48 247.516 Q2308.88 247.516 2310.87 244.831 Q2312.86 242.146 2312.86 237.517 Q2312.86 232.91 2310.87 230.225 Q2308.88 227.517 2305.48 227.517 M2305.48 223.906 Q2311.03 223.906 2314.2 227.517 Q2317.37 231.128 2317.37 237.517 Q2317.37 243.882 2314.2 247.516 Q2311.03 251.128 2305.48 251.128 Q2299.9 251.128 2296.73 247.516 Q2293.58 243.882 2293.58 237.517 Q2293.58 231.128 2296.73 227.517 Q2299.9 223.906 2305.48 223.906 Z" fill="#000000" fill-rule="nonzero" fill-opacity="1" /><path clip-path="url(#clip420)" d="M2336.45 224.531 L2340.96 224.531 L2349.06 246.29 L2357.17 224.531 L2361.68 224.531 L2351.96 250.456 L2346.17 250.456 L2336.45 224.531 Z" fill="#000000" fill-rule="nonzero" fill-opacity="1" /><path clip-path="url(#clip420)" d="M2379.34 237.424 Q2374.18 237.424 2372.19 238.604 Q2370.2 239.785 2370.2 242.632 Q2370.2 244.901 2371.68 246.243 Q2373.18 247.563 2375.75 247.563 Q2379.29 247.563 2381.42 245.063 Q2383.58 242.54 2383.58 238.373 L2383.58 237.424 L2379.34 237.424 M2387.84 235.665 L2387.84 250.456 L2383.58 250.456 L2383.58 246.521 Q2382.12 248.882 2379.94 250.016 Q2377.77 251.128 2374.62 251.128 Q2370.64 251.128 2368.28 248.905 Q2365.94 246.66 2365.94 242.91 Q2365.94 238.535 2368.86 236.313 Q2371.79 234.091 2377.61 234.091 L2383.58 234.091 L2383.58 233.674 Q2383.58 230.734 2381.63 229.137 Q2379.71 227.517 2376.22 227.517 Q2373.99 227.517 2371.89 228.049 Q2369.78 228.581 2367.84 229.646 L2367.84 225.711 Q2370.17 224.808 2372.37 224.368 Q2374.57 223.906 2376.66 223.906 Q2382.28 223.906 2385.06 226.822 Q2387.84 229.739 2387.84 235.665 Z" fill="#000000" fill-rule="nonzero" fill-opacity="1" /><path clip-path="url(#clip420)" d="M2415.27 225.526 L2415.27 229.507 Q2413.46 228.512 2411.63 228.026 Q2409.83 227.517 2407.98 227.517 Q2403.83 227.517 2401.54 230.155 Q2399.25 232.771 2399.25 237.517 Q2399.25 242.262 2401.54 244.901 Q2403.83 247.516 2407.98 247.516 Q2409.83 247.516 2411.63 247.03 Q2413.46 246.521 2415.27 245.526 L2415.27 249.461 Q2413.48 250.294 2411.56 250.711 Q2409.67 251.128 2407.51 251.128 Q2401.66 251.128 2398.21 247.447 Q2394.76 243.767 2394.76 237.517 Q2394.76 231.174 2398.23 227.54 Q2401.73 223.906 2407.79 223.906 Q2409.76 223.906 2411.63 224.322 Q2413.51 224.716 2415.27 225.526 Z" fill="#000000" fill-rule="nonzero" fill-opacity="1" /><path clip-path="url(#clip420)" d="M2441.33 225.526 L2441.33 229.507 Q2439.53 228.512 2437.7 228.026 Q2435.89 227.517 2434.04 227.517 Q2429.9 227.517 2427.6 230.155 Q2425.31 232.771 2425.31 237.517 Q2425.31 242.262 2427.6 244.901 Q2429.9 247.516 2434.04 247.516 Q2435.89 247.516 2437.7 247.03 Q2439.53 246.521 2441.33 245.526 L2441.33 249.461 Q2439.55 250.294 2437.63 250.711 Q2435.73 251.128 2433.58 251.128 Q2427.72 251.128 2424.27 247.447 Q2420.82 243.767 2420.82 237.517 Q2420.82 231.174 2424.29 227.54 Q2427.79 223.906 2433.85 223.906 Q2435.82 223.906 2437.7 224.322 Q2439.57 224.716 2441.33 225.526 Z" fill="#000000" fill-rule="nonzero" fill-opacity="1" /><path clip-path="url(#clip420)" d="M2448.74 224.531 L2453 224.531 L2453 250.456 L2448.74 250.456 L2448.74 224.531 M2448.74 214.438 L2453 214.438 L2453 219.831 L2448.74 219.831 L2448.74 214.438 Z" fill="#000000" fill-rule="nonzero" fill-opacity="1" /><path clip-path="url(#clip420)" d="M2483.46 234.808 L2483.46 250.456 L2479.2 250.456 L2479.2 234.947 Q2479.2 231.267 2477.77 229.438 Q2476.33 227.609 2473.46 227.609 Q2470.01 227.609 2468.02 229.808 Q2466.03 232.007 2466.03 235.804 L2466.03 250.456 L2461.75 250.456 L2461.75 224.531 L2466.03 224.531 L2466.03 228.558 Q2467.56 226.22 2469.62 225.063 Q2471.7 223.906 2474.41 223.906 Q2478.88 223.906 2481.17 226.683 Q2483.46 229.438 2483.46 234.808 Z" fill="#000000" fill-rule="nonzero" fill-opacity="1" /><path clip-path="url(#clip420)" d="M2514.13 236.429 L2514.13 238.512 L2494.55 238.512 Q2494.83 242.91 2497.19 245.225 Q2499.57 247.516 2503.81 247.516 Q2506.26 247.516 2508.55 246.915 Q2510.87 246.313 2513.14 245.109 L2513.14 249.137 Q2510.85 250.109 2508.44 250.618 Q2506.03 251.128 2503.55 251.128 Q2497.35 251.128 2493.72 247.516 Q2490.1 243.905 2490.1 237.748 Q2490.1 231.382 2493.53 227.655 Q2496.98 223.906 2502.81 223.906 Q2508.04 223.906 2511.08 227.285 Q2514.13 230.642 2514.13 236.429 M2509.87 235.179 Q2509.83 231.683 2507.91 229.6 Q2506.01 227.517 2502.86 227.517 Q2499.29 227.517 2497.14 229.53 Q2495.01 231.544 2494.69 235.202 L2509.87 235.179 Z" fill="#000000" fill-rule="nonzero" fill-opacity="1" /><polyline clip-path="url(#clip420)" style="stroke:#e26f46; stroke-linecap:round; stroke-linejoin:round; stroke-width:8; stroke-opacity:1; fill:none" points="2074.69,285.016 2233.66,285.016 "/>
<path clip-path="url(#clip420)" d="M2264.43 298.407 L2264.43 312.157 L2260.15 312.157 L2260.15 276.371 L2264.43 276.371 L2264.43 280.306 Q2265.78 277.991 2267.81 276.88 Q2269.87 275.746 2272.72 275.746 Q2277.44 275.746 2280.38 279.495 Q2283.35 283.245 2283.35 289.357 Q2283.35 295.468 2280.38 299.218 Q2277.44 302.968 2272.72 302.968 Q2269.87 302.968 2267.81 301.856 Q2265.78 300.722 2264.43 298.407 M2278.93 289.357 Q2278.93 284.657 2276.98 281.995 Q2275.06 279.31 2271.68 279.31 Q2268.3 279.31 2266.36 281.995 Q2264.43 284.657 2264.43 289.357 Q2264.43 294.056 2266.36 296.741 Q2268.3 299.403 2271.68 299.403 Q2275.06 299.403 2276.98 296.741 Q2278.93 294.056 2278.93 289.357 Z" fill="#000000" fill-rule="nonzero" fill-opacity="1" /><path clip-path="url(#clip420)" d="M2305.43 280.352 Q2304.71 279.935 2303.86 279.75 Q2303.02 279.542 2302 279.542 Q2298.39 279.542 2296.45 281.903 Q2294.53 284.241 2294.53 288.639 L2294.53 302.296 L2290.24 302.296 L2290.24 276.371 L2294.53 276.371 L2294.53 280.398 Q2295.87 278.037 2298.02 276.903 Q2300.17 275.746 2303.25 275.746 Q2303.69 275.746 2304.23 275.815 Q2304.76 275.861 2305.41 275.977 L2305.43 280.352 Z" fill="#000000" fill-rule="nonzero" fill-opacity="1" /><path clip-path="url(#clip420)" d="M2318.9 279.357 Q2315.48 279.357 2313.49 282.042 Q2311.49 284.704 2311.49 289.357 Q2311.49 294.009 2313.46 296.694 Q2315.45 299.356 2318.9 299.356 Q2322.3 299.356 2324.3 296.671 Q2326.29 293.986 2326.29 289.357 Q2326.29 284.75 2324.3 282.065 Q2322.3 279.357 2318.9 279.357 M2318.9 275.746 Q2324.46 275.746 2327.63 279.357 Q2330.8 282.968 2330.8 289.357 Q2330.8 295.722 2327.63 299.356 Q2324.46 302.968 2318.9 302.968 Q2313.32 302.968 2310.15 299.356 Q2307 295.722 2307 289.357 Q2307 282.968 2310.15 279.357 Q2313.32 275.746 2318.9 275.746 Z" fill="#000000" fill-rule="nonzero" fill-opacity="1" /><path clip-path="url(#clip420)" d="M2356.47 289.357 Q2356.47 284.657 2354.53 281.995 Q2352.61 279.31 2349.23 279.31 Q2345.85 279.31 2343.9 281.995 Q2341.98 284.657 2341.98 289.357 Q2341.98 294.056 2343.9 296.741 Q2345.85 299.403 2349.23 299.403 Q2352.61 299.403 2354.53 296.741 Q2356.47 294.056 2356.47 289.357 M2341.98 280.306 Q2343.32 277.991 2345.36 276.88 Q2347.42 275.746 2350.27 275.746 Q2354.99 275.746 2357.93 279.495 Q2360.89 283.245 2360.89 289.357 Q2360.89 295.468 2357.93 299.218 Q2354.99 302.968 2350.27 302.968 Q2347.42 302.968 2345.36 301.856 Q2343.32 300.722 2341.98 298.407 L2341.98 302.296 L2337.7 302.296 L2337.7 266.278 L2341.98 266.278 L2341.98 280.306 Z" fill="#000000" fill-rule="nonzero" fill-opacity="1" /><path clip-path="url(#clip420)" d="M2368.51 280.769 L2398.18 280.769 L2398.18 284.657 L2368.51 284.657 L2368.51 280.769 M2368.51 290.213 L2398.18 290.213 L2398.18 294.148 L2368.51 294.148 L2368.51 290.213 Z" fill="#000000" fill-rule="nonzero" fill-opacity="1" /><path clip-path="url(#clip420)" d="M2418.28 270.815 Q2414.67 270.815 2412.84 274.38 Q2411.03 277.921 2411.03 285.051 Q2411.03 292.157 2412.84 295.722 Q2414.67 299.264 2418.28 299.264 Q2421.91 299.264 2423.72 295.722 Q2425.54 292.157 2425.54 285.051 Q2425.54 277.921 2423.72 274.38 Q2421.91 270.815 2418.28 270.815 M2418.28 267.111 Q2424.09 267.111 2427.14 271.718 Q2430.22 276.301 2430.22 285.051 Q2430.22 293.778 2427.14 298.384 Q2424.09 302.968 2418.28 302.968 Q2412.47 302.968 2409.39 298.384 Q2406.33 293.778 2406.33 285.051 Q2406.33 276.301 2409.39 271.718 Q2412.47 267.111 2418.28 267.111 Z" fill="#000000" fill-rule="nonzero" fill-opacity="1" /><path clip-path="url(#clip420)" d="M2438.44 296.417 L2443.32 296.417 L2443.32 302.296 L2438.44 302.296 L2438.44 296.417 Z" fill="#000000" fill-rule="nonzero" fill-opacity="1" /><path clip-path="url(#clip420)" d="M2463.51 270.815 Q2459.9 270.815 2458.07 274.38 Q2456.26 277.921 2456.26 285.051 Q2456.26 292.157 2458.07 295.722 Q2459.9 299.264 2463.51 299.264 Q2467.14 299.264 2468.95 295.722 Q2470.78 292.157 2470.78 285.051 Q2470.78 277.921 2468.95 274.38 Q2467.14 270.815 2463.51 270.815 M2463.51 267.111 Q2469.32 267.111 2472.37 271.718 Q2475.45 276.301 2475.45 285.051 Q2475.45 293.778 2472.37 298.384 Q2469.32 302.968 2463.51 302.968 Q2457.7 302.968 2454.62 298.384 Q2451.56 293.778 2451.56 285.051 Q2451.56 276.301 2454.62 271.718 Q2457.7 267.111 2463.51 267.111 Z" fill="#000000" fill-rule="nonzero" fill-opacity="1" /><path clip-path="url(#clip420)" d="M2493.67 270.815 Q2490.06 270.815 2488.23 274.38 Q2486.42 277.921 2486.42 285.051 Q2486.42 292.157 2488.23 295.722 Q2490.06 299.264 2493.67 299.264 Q2497.3 299.264 2499.11 295.722 Q2500.94 292.157 2500.94 285.051 Q2500.94 277.921 2499.11 274.38 Q2497.3 270.815 2493.67 270.815 M2493.67 267.111 Q2499.48 267.111 2502.53 271.718 Q2505.61 276.301 2505.61 285.051 Q2505.61 293.778 2502.53 298.384 Q2499.48 302.968 2493.67 302.968 Q2487.86 302.968 2484.78 298.384 Q2481.72 293.778 2481.72 285.051 Q2481.72 276.301 2484.78 271.718 Q2487.86 267.111 2493.67 267.111 Z" fill="#000000" fill-rule="nonzero" fill-opacity="1" /><path clip-path="url(#clip420)" d="M2513.88 267.736 L2532.23 267.736 L2532.23 271.671 L2518.16 271.671 L2518.16 280.144 Q2519.18 279.796 2520.2 279.634 Q2521.22 279.449 2522.23 279.449 Q2528.02 279.449 2531.4 282.62 Q2534.78 285.792 2534.78 291.208 Q2534.78 296.787 2531.31 299.889 Q2527.84 302.968 2521.52 302.968 Q2519.34 302.968 2517.07 302.597 Q2514.83 302.227 2512.42 301.486 L2512.42 296.787 Q2514.5 297.921 2516.72 298.477 Q2518.95 299.032 2521.42 299.032 Q2525.43 299.032 2527.77 296.926 Q2530.1 294.819 2530.1 291.208 Q2530.1 287.597 2527.77 285.491 Q2525.43 283.384 2521.42 283.384 Q2519.55 283.384 2517.67 283.801 Q2515.82 284.218 2513.88 285.097 L2513.88 267.736 Z" fill="#000000" fill-rule="nonzero" fill-opacity="1" /><polyline clip-path="url(#clip420)" style="stroke:#3da44d; stroke-linecap:round; stroke-linejoin:round; stroke-width:8; stroke-opacity:1; fill:none" points="2074.69,336.856 2233.66,336.856 "/>
<path clip-path="url(#clip420)" d="M2264.43 350.247 L2264.43 363.997 L2260.15 363.997 L2260.15 328.211 L2264.43 328.211 L2264.43 332.146 Q2265.78 329.831 2267.81 328.72 Q2269.87 327.586 2272.72 327.586 Q2277.44 327.586 2280.38 331.335 Q2283.35 335.085 2283.35 341.197 Q2283.35 347.308 2280.38 351.058 Q2277.44 354.808 2272.72 354.808 Q2269.87 354.808 2267.81 353.696 Q2265.78 352.562 2264.43 350.247 M2278.93 341.197 Q2278.93 336.497 2276.98 333.835 Q2275.06 331.15 2271.68 331.15 Q2268.3 331.15 2266.36 333.835 Q2264.43 336.497 2264.43 341.197 Q2264.43 345.896 2266.36 348.581 Q2268.3 351.243 2271.68 351.243 Q2275.06 351.243 2276.98 348.581 Q2278.93 345.896 2278.93 341.197 Z" fill="#000000" fill-rule="nonzero" fill-opacity="1" /><path clip-path="url(#clip420)" d="M2305.43 332.192 Q2304.71 331.775 2303.86 331.59 Q2303.02 331.382 2302 331.382 Q2298.39 331.382 2296.45 333.743 Q2294.53 336.081 2294.53 340.479 L2294.53 354.136 L2290.24 354.136 L2290.24 328.211 L2294.53 328.211 L2294.53 332.238 Q2295.87 329.877 2298.02 328.743 Q2300.17 327.586 2303.25 327.586 Q2303.69 327.586 2304.23 327.655 Q2304.76 327.701 2305.41 327.817 L2305.43 332.192 Z" fill="#000000" fill-rule="nonzero" fill-opacity="1" /><path clip-path="url(#clip420)" d="M2318.9 331.197 Q2315.48 331.197 2313.49 333.882 Q2311.49 336.544 2311.49 341.197 Q2311.49 345.849 2313.46 348.534 Q2315.45 351.196 2318.9 351.196 Q2322.3 351.196 2324.3 348.511 Q2326.29 345.826 2326.29 341.197 Q2326.29 336.59 2324.3 333.905 Q2322.3 331.197 2318.9 331.197 M2318.9 327.586 Q2324.46 327.586 2327.63 331.197 Q2330.8 334.808 2330.8 341.197 Q2330.8 347.562 2327.63 351.196 Q2324.46 354.808 2318.9 354.808 Q2313.32 354.808 2310.15 351.196 Q2307 347.562 2307 341.197 Q2307 334.808 2310.15 331.197 Q2313.32 327.586 2318.9 327.586 Z" fill="#000000" fill-rule="nonzero" fill-opacity="1" /><path clip-path="url(#clip420)" d="M2356.47 341.197 Q2356.47 336.497 2354.53 333.835 Q2352.61 331.15 2349.23 331.15 Q2345.85 331.15 2343.9 333.835 Q2341.98 336.497 2341.98 341.197 Q2341.98 345.896 2343.9 348.581 Q2345.85 351.243 2349.23 351.243 Q2352.61 351.243 2354.53 348.581 Q2356.47 345.896 2356.47 341.197 M2341.98 332.146 Q2343.32 329.831 2345.36 328.72 Q2347.42 327.586 2350.27 327.586 Q2354.99 327.586 2357.93 331.335 Q2360.89 335.085 2360.89 341.197 Q2360.89 347.308 2357.93 351.058 Q2354.99 354.808 2350.27 354.808 Q2347.42 354.808 2345.36 353.696 Q2343.32 352.562 2341.98 350.247 L2341.98 354.136 L2337.7 354.136 L2337.7 318.118 L2341.98 318.118 L2341.98 332.146 Z" fill="#000000" fill-rule="nonzero" fill-opacity="1" /><path clip-path="url(#clip420)" d="M2368.51 332.609 L2398.18 332.609 L2398.18 336.497 L2368.51 336.497 L2368.51 332.609 M2368.51 342.053 L2398.18 342.053 L2398.18 345.988 L2368.51 345.988 L2368.51 342.053 Z" fill="#000000" fill-rule="nonzero" fill-opacity="1" /><path clip-path="url(#clip420)" d="M2418.28 322.655 Q2414.67 322.655 2412.84 326.22 Q2411.03 329.761 2411.03 336.891 Q2411.03 343.997 2412.84 347.562 Q2414.67 351.104 2418.28 351.104 Q2421.91 351.104 2423.72 347.562 Q2425.54 343.997 2425.54 336.891 Q2425.54 329.761 2423.72 326.22 Q2421.91 322.655 2418.28 322.655 M2418.28 318.951 Q2424.09 318.951 2427.14 323.558 Q2430.22 328.141 2430.22 336.891 Q2430.22 345.618 2427.14 350.224 Q2424.09 354.808 2418.28 354.808 Q2412.47 354.808 2409.39 350.224 Q2406.33 345.618 2406.33 336.891 Q2406.33 328.141 2409.39 323.558 Q2412.47 318.951 2418.28 318.951 Z" fill="#000000" fill-rule="nonzero" fill-opacity="1" /><path clip-path="url(#clip420)" d="M2438.44 348.257 L2443.32 348.257 L2443.32 354.136 L2438.44 354.136 L2438.44 348.257 Z" fill="#000000" fill-rule="nonzero" fill-opacity="1" /><path clip-path="url(#clip420)" d="M2463.51 322.655 Q2459.9 322.655 2458.07 326.22 Q2456.26 329.761 2456.26 336.891 Q2456.26 343.997 2458.07 347.562 Q2459.9 351.104 2463.51 351.104 Q2467.14 351.104 2468.95 347.562 Q2470.78 343.997 2470.78 336.891 Q2470.78 329.761 2468.95 326.22 Q2467.14 322.655 2463.51 322.655 M2463.51 318.951 Q2469.32 318.951 2472.37 323.558 Q2475.45 328.141 2475.45 336.891 Q2475.45 345.618 2472.37 350.224 Q2469.32 354.808 2463.51 354.808 Q2457.7 354.808 2454.62 350.224 Q2451.56 345.618 2451.56 336.891 Q2451.56 328.141 2454.62 323.558 Q2457.7 318.951 2463.51 318.951 Z" fill="#000000" fill-rule="nonzero" fill-opacity="1" /><path clip-path="url(#clip420)" d="M2484.48 350.201 L2492.12 350.201 L2492.12 323.836 L2483.81 325.502 L2483.81 321.243 L2492.07 319.576 L2496.75 319.576 L2496.75 350.201 L2504.39 350.201 L2504.39 354.136 L2484.48 354.136 L2484.48 350.201 Z" fill="#000000" fill-rule="nonzero" fill-opacity="1" /><polyline clip-path="url(#clip420)" style="stroke:#c271d2; stroke-linecap:round; stroke-linejoin:round; stroke-width:8; stroke-opacity:1; fill:none" points="2074.69,388.696 2233.66,388.696 "/>
<path clip-path="url(#clip420)" d="M2264.43 402.087 L2264.43 415.837 L2260.15 415.837 L2260.15 380.051 L2264.43 380.051 L2264.43 383.986 Q2265.78 381.671 2267.81 380.56 Q2269.87 379.426 2272.72 379.426 Q2277.44 379.426 2280.38 383.175 Q2283.35 386.925 2283.35 393.037 Q2283.35 399.148 2280.38 402.898 Q2277.44 406.648 2272.72 406.648 Q2269.87 406.648 2267.81 405.536 Q2265.78 404.402 2264.43 402.087 M2278.93 393.037 Q2278.93 388.337 2276.98 385.675 Q2275.06 382.99 2271.68 382.99 Q2268.3 382.99 2266.36 385.675 Q2264.43 388.337 2264.43 393.037 Q2264.43 397.736 2266.36 400.421 Q2268.3 403.083 2271.68 403.083 Q2275.06 403.083 2276.98 400.421 Q2278.93 397.736 2278.93 393.037 Z" fill="#000000" fill-rule="nonzero" fill-opacity="1" /><path clip-path="url(#clip420)" d="M2305.43 384.032 Q2304.71 383.615 2303.86 383.43 Q2303.02 383.222 2302 383.222 Q2298.39 383.222 2296.45 385.583 Q2294.53 387.921 2294.53 392.319 L2294.53 405.976 L2290.24 405.976 L2290.24 380.051 L2294.53 380.051 L2294.53 384.078 Q2295.87 381.717 2298.02 380.583 Q2300.17 379.426 2303.25 379.426 Q2303.69 379.426 2304.23 379.495 Q2304.76 379.541 2305.41 379.657 L2305.43 384.032 Z" fill="#000000" fill-rule="nonzero" fill-opacity="1" /><path clip-path="url(#clip420)" d="M2318.9 383.037 Q2315.48 383.037 2313.49 385.722 Q2311.49 388.384 2311.49 393.037 Q2311.49 397.689 2313.46 400.374 Q2315.45 403.036 2318.9 403.036 Q2322.3 403.036 2324.3 400.351 Q2326.29 397.666 2326.29 393.037 Q2326.29 388.43 2324.3 385.745 Q2322.3 383.037 2318.9 383.037 M2318.9 379.426 Q2324.46 379.426 2327.63 383.037 Q2330.8 386.648 2330.8 393.037 Q2330.8 399.402 2327.63 403.036 Q2324.46 406.648 2318.9 406.648 Q2313.32 406.648 2310.15 403.036 Q2307 399.402 2307 393.037 Q2307 386.648 2310.15 383.037 Q2313.32 379.426 2318.9 379.426 Z" fill="#000000" fill-rule="nonzero" fill-opacity="1" /><path clip-path="url(#clip420)" d="M2356.47 393.037 Q2356.47 388.337 2354.53 385.675 Q2352.61 382.99 2349.23 382.99 Q2345.85 382.99 2343.9 385.675 Q2341.98 388.337 2341.98 393.037 Q2341.98 397.736 2343.9 400.421 Q2345.85 403.083 2349.23 403.083 Q2352.61 403.083 2354.53 400.421 Q2356.47 397.736 2356.47 393.037 M2341.98 383.986 Q2343.32 381.671 2345.36 380.56 Q2347.42 379.426 2350.27 379.426 Q2354.99 379.426 2357.93 383.175 Q2360.89 386.925 2360.89 393.037 Q2360.89 399.148 2357.93 402.898 Q2354.99 406.648 2350.27 406.648 Q2347.42 406.648 2345.36 405.536 Q2343.32 404.402 2341.98 402.087 L2341.98 405.976 L2337.7 405.976 L2337.7 369.958 L2341.98 369.958 L2341.98 383.986 Z" fill="#000000" fill-rule="nonzero" fill-opacity="1" /><path clip-path="url(#clip420)" d="M2368.51 384.449 L2398.18 384.449 L2398.18 388.337 L2368.51 388.337 L2368.51 384.449 M2368.51 393.893 L2398.18 393.893 L2398.18 397.828 L2368.51 397.828 L2368.51 393.893 Z" fill="#000000" fill-rule="nonzero" fill-opacity="1" /><path clip-path="url(#clip420)" d="M2418.28 374.495 Q2414.67 374.495 2412.84 378.06 Q2411.03 381.601 2411.03 388.731 Q2411.03 395.837 2412.84 399.402 Q2414.67 402.944 2418.28 402.944 Q2421.91 402.944 2423.72 399.402 Q2425.54 395.837 2425.54 388.731 Q2425.54 381.601 2423.72 378.06 Q2421.91 374.495 2418.28 374.495 M2418.28 370.791 Q2424.09 370.791 2427.14 375.398 Q2430.22 379.981 2430.22 388.731 Q2430.22 397.458 2427.14 402.064 Q2424.09 406.648 2418.28 406.648 Q2412.47 406.648 2409.39 402.064 Q2406.33 397.458 2406.33 388.731 Q2406.33 379.981 2409.39 375.398 Q2412.47 370.791 2418.28 370.791 Z" fill="#000000" fill-rule="nonzero" fill-opacity="1" /><path clip-path="url(#clip420)" d="M2438.44 400.097 L2443.32 400.097 L2443.32 405.976 L2438.44 405.976 L2438.44 400.097 Z" fill="#000000" fill-rule="nonzero" fill-opacity="1" /><path clip-path="url(#clip420)" d="M2463.51 374.495 Q2459.9 374.495 2458.07 378.06 Q2456.26 381.601 2456.26 388.731 Q2456.26 395.837 2458.07 399.402 Q2459.9 402.944 2463.51 402.944 Q2467.14 402.944 2468.95 399.402 Q2470.78 395.837 2470.78 388.731 Q2470.78 381.601 2468.95 378.06 Q2467.14 374.495 2463.51 374.495 M2463.51 370.791 Q2469.32 370.791 2472.37 375.398 Q2475.45 379.981 2475.45 388.731 Q2475.45 397.458 2472.37 402.064 Q2469.32 406.648 2463.51 406.648 Q2457.7 406.648 2454.62 402.064 Q2451.56 397.458 2451.56 388.731 Q2451.56 379.981 2454.62 375.398 Q2457.7 370.791 2463.51 370.791 Z" fill="#000000" fill-rule="nonzero" fill-opacity="1" /><path clip-path="url(#clip420)" d="M2487.7 402.041 L2504.02 402.041 L2504.02 405.976 L2482.07 405.976 L2482.07 402.041 Q2484.73 399.287 2489.32 394.657 Q2493.92 390.004 2495.1 388.662 Q2497.35 386.138 2498.23 384.402 Q2499.13 382.643 2499.13 380.953 Q2499.13 378.199 2497.19 376.463 Q2495.27 374.726 2492.16 374.726 Q2489.97 374.726 2487.51 375.49 Q2485.08 376.254 2482.3 377.805 L2482.3 373.083 Q2485.13 371.949 2487.58 371.37 Q2490.04 370.791 2492.07 370.791 Q2497.44 370.791 2500.64 373.476 Q2503.83 376.162 2503.83 380.652 Q2503.83 382.782 2503.02 384.703 Q2502.23 386.601 2500.13 389.194 Q2499.55 389.865 2496.45 393.083 Q2493.35 396.277 2487.7 402.041 Z" fill="#000000" fill-rule="nonzero" fill-opacity="1" /></svg>
