<?xml version="1.0" encoding="utf-8"?>
<svg xmlns="http://www.w3.org/2000/svg" xmlns:xlink="http://www.w3.org/1999/xlink" width="672" height="480" viewBox="0 0 2688 1920">
<defs>
  <clipPath id="clip600">
    <rect x="0" y="0" width="2688" height="1920"/>
  </clipPath>
</defs>
<path clip-path="url(#clip600)" d="M0 1920 L2688 1920 L2688 -4.26326e-14 L0 -4.26326e-14  Z" fill="#ffffff" fill-rule="evenodd" fill-opacity="1"/>
<defs>
  <clipPath id="clip601">
    <rect x="211" y="127" width="2430" height="1607"/>
  </clipPath>
</defs>
<path clip-path="url(#clip600)" d="M211.395 1734.12 L2640.76 1734.12 L2640.76 127.792 L211.395 127.792  Z" fill="#ffffff" fill-rule="evenodd" fill-opacity="1"/>
<polyline clip-path="url(#clip601)" style="stroke:#000000; stroke-linecap:round; stroke-linejoin:round; stroke-width:2; stroke-opacity:0.1; fill:none" points="345.014,1734.12 345.014,127.792 "/>
<polyline clip-path="url(#clip601)" style="stroke:#000000; stroke-linecap:round; stroke-linejoin:round; stroke-width:2; stroke-opacity:0.1; fill:none" points="980.933,1734.12 980.933,127.792 "/>
<polyline clip-path="url(#clip601)" style="stroke:#000000; stroke-linecap:round; stroke-linejoin:round; stroke-width:2; stroke-opacity:0.1; fill:none" points="1616.85,1734.12 1616.85,127.792 "/>
<polyline clip-path="url(#clip601)" style="stroke:#000000; stroke-linecap:round; stroke-linejoin:round; stroke-width:2; stroke-opacity:0.1; fill:none" points="2252.77,1734.12 2252.77,127.792 "/>
<polyline clip-path="url(#clip601)" style="stroke:#000000; stroke-linecap:round; stroke-linejoin:round; stroke-width:2; stroke-opacity:0.1; fill:none" points="211.395,1734.12 2640.76,1734.12 "/>
<polyline clip-path="url(#clip601)" style="stroke:#000000; stroke-linecap:round; stroke-linejoin:round; stroke-width:2; stroke-opacity:0.1; fill:none" points="211.395,1364.85 2640.76,1364.85 "/>
<polyline clip-path="url(#clip601)" style="stroke:#000000; stroke-linecap:round; stroke-linejoin:round; stroke-width:2; stroke-opacity:0.1; fill:none" points="211.395,995.577 2640.76,995.577 "/>
<polyline clip-path="url(#clip601)" style="stroke:#000000; stroke-linecap:round; stroke-linejoin:round; stroke-width:2; stroke-opacity:0.1; fill:none" points="211.395,626.307 2640.76,626.307 "/>
<polyline clip-path="url(#clip601)" style="stroke:#000000; stroke-linecap:round; stroke-linejoin:round; stroke-width:2; stroke-opacity:0.1; fill:none" points="211.395,257.037 2640.76,257.037 "/>
<polyline clip-path="url(#clip600)" style="stroke:#000000; stroke-linecap:round; stroke-linejoin:round; stroke-width:4; stroke-opacity:1; fill:none" points="211.395,1734.12 2640.76,1734.12 "/>
<polyline clip-path="url(#clip600)" style="stroke:#000000; stroke-linecap:round; stroke-linejoin:round; stroke-width:4; stroke-opacity:1; fill:none" points="345.014,1734.12 345.014,1715.22 "/>
<polyline clip-path="url(#clip600)" style="stroke:#000000; stroke-linecap:round; stroke-linejoin:round; stroke-width:4; stroke-opacity:1; fill:none" points="980.933,1734.12 980.933,1715.22 "/>
<polyline clip-path="url(#clip600)" style="stroke:#000000; stroke-linecap:round; stroke-linejoin:round; stroke-width:4; stroke-opacity:1; fill:none" points="1616.85,1734.12 1616.85,1715.22 "/>
<polyline clip-path="url(#clip600)" style="stroke:#000000; stroke-linecap:round; stroke-linejoin:round; stroke-width:4; stroke-opacity:1; fill:none" points="2252.77,1734.12 2252.77,1715.22 "/>
<path clip-path="url(#clip600)" d="M345.014 1767.34 Q341.403 1767.34 339.575 1770.9 Q337.769 1774.45 337.769 1781.58 Q337.769 1788.68 339.575 1792.25 Q341.403 1795.79 345.014 1795.79 Q348.649 1795.79 350.454 1792.25 Q352.283 1788.68 352.283 1781.58 Q352.283 1774.45 350.454 1770.9 Q348.649 1767.34 345.014 1767.34 M345.014 1763.64 Q350.825 1763.64 353.88 1768.24 Q356.959 1772.83 356.959 1781.58 Q356.959 1790.3 353.88 1794.91 Q350.825 1799.49 345.014 1799.49 Q339.204 1799.49 336.126 1794.91 Q333.07 1790.3 333.07 1781.58 Q333.07 1772.83 336.126 1768.24 Q339.204 1763.64 345.014 1763.64 Z" fill="#000000" fill-rule="nonzero" fill-opacity="1" /><path clip-path="url(#clip600)" d="M971.211 1764.26 L989.567 1764.26 L989.567 1768.2 L975.493 1768.2 L975.493 1776.67 Q976.511 1776.32 977.53 1776.16 Q978.549 1775.97 979.567 1775.97 Q985.354 1775.97 988.734 1779.15 Q992.113 1782.32 992.113 1787.73 Q992.113 1793.31 988.641 1796.41 Q985.169 1799.49 978.849 1799.49 Q976.674 1799.49 974.405 1799.12 Q972.16 1798.75 969.752 1798.01 L969.752 1793.31 Q971.836 1794.45 974.058 1795 Q976.28 1795.56 978.757 1795.56 Q982.761 1795.56 985.099 1793.45 Q987.437 1791.34 987.437 1787.73 Q987.437 1784.12 985.099 1782.02 Q982.761 1779.91 978.757 1779.91 Q976.882 1779.91 975.007 1780.33 Q973.155 1780.74 971.211 1781.62 L971.211 1764.26 Z" fill="#000000" fill-rule="nonzero" fill-opacity="1" /><path clip-path="url(#clip600)" d="M1591.54 1794.89 L1599.18 1794.89 L1599.18 1768.52 L1590.87 1770.19 L1590.87 1765.93 L1599.13 1764.26 L1603.81 1764.26 L1603.81 1794.89 L1611.45 1794.89 L1611.45 1798.82 L1591.54 1798.82 L1591.54 1794.89 Z" fill="#000000" fill-rule="nonzero" fill-opacity="1" /><path clip-path="url(#clip600)" d="M1630.89 1767.34 Q1627.28 1767.34 1625.45 1770.9 Q1623.65 1774.45 1623.65 1781.58 Q1623.65 1788.68 1625.45 1792.25 Q1627.28 1795.79 1630.89 1795.79 Q1634.52 1795.79 1636.33 1792.25 Q1638.16 1788.68 1638.16 1781.58 Q1638.16 1774.45 1636.33 1770.9 Q1634.52 1767.34 1630.89 1767.34 M1630.89 1763.64 Q1636.7 1763.64 1639.76 1768.24 Q1642.83 1772.83 1642.83 1781.58 Q1642.83 1790.3 1639.76 1794.91 Q1636.7 1799.49 1630.89 1799.49 Q1625.08 1799.49 1622 1794.91 Q1618.95 1790.3 1618.95 1781.58 Q1618.95 1772.83 1622 1768.24 Q1625.08 1763.64 1630.89 1763.64 Z" fill="#000000" fill-rule="nonzero" fill-opacity="1" /><path clip-path="url(#clip600)" d="M2227.95 1794.89 L2235.59 1794.89 L2235.59 1768.52 L2227.28 1770.19 L2227.28 1765.93 L2235.55 1764.26 L2240.22 1764.26 L2240.22 1794.89 L2247.86 1794.89 L2247.86 1798.82 L2227.95 1798.82 L2227.95 1794.89 Z" fill="#000000" fill-rule="nonzero" fill-opacity="1" /><path clip-path="url(#clip600)" d="M2257.35 1764.26 L2275.71 1764.26 L2275.71 1768.2 L2261.64 1768.2 L2261.64 1776.67 Q2262.65 1776.32 2263.67 1776.16 Q2264.69 1775.97 2265.71 1775.97 Q2271.5 1775.97 2274.88 1779.15 Q2278.26 1782.32 2278.26 1787.73 Q2278.26 1793.31 2274.78 1796.41 Q2271.31 1799.49 2264.99 1799.49 Q2262.82 1799.49 2260.55 1799.12 Q2258.3 1798.75 2255.89 1798.01 L2255.89 1793.31 Q2257.98 1794.45 2260.2 1795 Q2262.42 1795.56 2264.9 1795.56 Q2268.9 1795.56 2271.24 1793.45 Q2273.58 1791.34 2273.58 1787.73 Q2273.58 1784.12 2271.24 1782.02 Q2268.9 1779.91 2264.9 1779.91 Q2263.02 1779.91 2261.15 1780.33 Q2259.3 1780.74 2257.35 1781.62 L2257.35 1764.26 Z" fill="#000000" fill-rule="nonzero" fill-opacity="1" /><path clip-path="url(#clip600)" d="M1318.81 1841.06 L1318.81 1878.02 L1326.58 1878.02 Q1336.41 1878.02 1340.97 1873.56 Q1345.55 1869.11 1345.55 1859.49 Q1345.55 1849.94 1340.97 1845.52 Q1336.41 1841.06 1326.58 1841.06 L1318.81 1841.06 M1312.38 1835.78 L1325.59 1835.78 Q1339.41 1835.78 1345.87 1841.54 Q1352.33 1847.27 1352.33 1859.49 Q1352.33 1871.78 1345.84 1877.54 Q1339.34 1883.3 1325.59 1883.3 L1312.38 1883.3 L1312.38 1835.78 Z" fill="#000000" fill-rule="nonzero" fill-opacity="1" /><path clip-path="url(#clip600)" d="M1392.81 1864.01 L1392.81 1866.88 L1365.89 1866.88 Q1366.27 1872.92 1369.52 1876.11 Q1372.79 1879.26 1378.62 1879.26 Q1381.99 1879.26 1385.14 1878.43 Q1388.33 1877.6 1391.45 1875.95 L1391.45 1881.49 Q1388.3 1882.82 1384.98 1883.52 Q1381.67 1884.22 1378.27 1884.22 Q1369.74 1884.22 1364.74 1879.26 Q1359.78 1874.29 1359.78 1865.83 Q1359.78 1857.07 1364.49 1851.95 Q1369.23 1846.79 1377.25 1846.79 Q1384.44 1846.79 1388.61 1851.44 Q1392.81 1856.06 1392.81 1864.01 M1386.96 1862.29 Q1386.89 1857.49 1384.25 1854.62 Q1381.64 1851.76 1377.31 1851.76 Q1372.41 1851.76 1369.45 1854.53 Q1366.52 1857.3 1366.08 1862.33 L1386.96 1862.29 Z" fill="#000000" fill-rule="nonzero" fill-opacity="1" /><path clip-path="url(#clip600)" d="M1425.88 1865.06 Q1425.88 1858.7 1423.24 1855.2 Q1420.63 1851.7 1415.89 1851.7 Q1411.18 1851.7 1408.54 1855.2 Q1405.93 1858.7 1405.93 1865.06 Q1405.93 1871.4 1408.54 1874.9 Q1411.18 1878.4 1415.89 1878.4 Q1420.63 1878.4 1423.24 1874.9 Q1425.88 1871.4 1425.88 1865.06 M1431.74 1878.88 Q1431.74 1887.98 1427.7 1892.4 Q1423.66 1896.86 1415.32 1896.86 Q1412.23 1896.86 1409.49 1896.38 Q1406.76 1895.94 1404.18 1894.98 L1404.18 1889.28 Q1406.76 1890.69 1409.27 1891.35 Q1411.78 1892.02 1414.39 1892.02 Q1420.16 1892.02 1423.02 1889 Q1425.88 1886.01 1425.88 1879.93 L1425.88 1877.03 Q1424.07 1880.18 1421.24 1881.74 Q1418.4 1883.3 1414.46 1883.3 Q1407.9 1883.3 1403.89 1878.3 Q1399.88 1873.31 1399.88 1865.06 Q1399.88 1856.79 1403.89 1851.79 Q1407.9 1846.79 1414.46 1846.79 Q1418.4 1846.79 1421.24 1848.35 Q1424.07 1849.91 1425.88 1853.06 L1425.88 1847.65 L1431.74 1847.65 L1431.74 1878.88 Z" fill="#000000" fill-rule="nonzero" fill-opacity="1" /><path clip-path="url(#clip600)" d="M1464.46 1853.13 Q1463.47 1852.55 1462.3 1852.3 Q1461.15 1852.01 1459.75 1852.01 Q1454.78 1852.01 1452.11 1855.26 Q1449.47 1858.47 1449.47 1864.52 L1449.47 1883.3 L1443.58 1883.3 L1443.58 1847.65 L1449.47 1847.65 L1449.47 1853.19 Q1451.32 1849.94 1454.28 1848.39 Q1457.24 1846.79 1461.47 1846.79 Q1462.07 1846.79 1462.81 1846.89 Q1463.54 1846.95 1464.43 1847.11 L1464.46 1853.13 Z" fill="#000000" fill-rule="nonzero" fill-opacity="1" /><path clip-path="url(#clip600)" d="M1499.66 1864.01 L1499.66 1866.88 L1472.74 1866.88 Q1473.12 1872.92 1476.36 1876.11 Q1479.64 1879.26 1485.47 1879.26 Q1488.84 1879.26 1491.99 1878.43 Q1495.18 1877.6 1498.29 1875.95 L1498.29 1881.49 Q1495.14 1882.82 1491.83 1883.52 Q1488.52 1884.22 1485.12 1884.22 Q1476.59 1884.22 1471.59 1879.26 Q1466.63 1874.29 1466.63 1865.83 Q1466.63 1857.07 1471.34 1851.95 Q1476.08 1846.79 1484.1 1846.79 Q1491.29 1846.79 1495.46 1851.44 Q1499.66 1856.06 1499.66 1864.01 M1493.81 1862.29 Q1493.74 1857.49 1491.1 1854.62 Q1488.49 1851.76 1484.16 1851.76 Q1479.26 1851.76 1476.3 1854.53 Q1473.37 1857.3 1472.93 1862.33 L1493.81 1862.29 Z" fill="#000000" fill-rule="nonzero" fill-opacity="1" /><path clip-path="url(#clip600)" d="M1539.77 1864.01 L1539.77 1866.88 L1512.84 1866.88 Q1513.22 1872.92 1516.47 1876.11 Q1519.75 1879.26 1525.57 1879.26 Q1528.95 1879.26 1532.1 1878.43 Q1535.28 1877.6 1538.4 1875.95 L1538.4 1881.49 Q1535.25 1882.82 1531.94 1883.52 Q1528.63 1884.22 1525.22 1884.22 Q1516.69 1884.22 1511.69 1879.26 Q1506.73 1874.29 1506.73 1865.83 Q1506.73 1857.07 1511.44 1851.95 Q1516.18 1846.79 1524.2 1846.79 Q1531.4 1846.79 1535.57 1851.44 Q1539.77 1856.06 1539.77 1864.01 M1533.91 1862.29 Q1533.85 1857.49 1531.21 1854.62 Q1528.6 1851.76 1524.27 1851.76 Q1519.37 1851.76 1516.4 1854.53 Q1513.48 1857.3 1513.03 1862.33 L1533.91 1862.29 Z" fill="#000000" fill-rule="nonzero" fill-opacity="1" /><polyline clip-path="url(#clip600)" style="stroke:#000000; stroke-linecap:round; stroke-linejoin:round; stroke-width:4; stroke-opacity:1; fill:none" points="211.395,1734.12 211.395,127.792 "/>
<polyline clip-path="url(#clip600)" style="stroke:#000000; stroke-linecap:round; stroke-linejoin:round; stroke-width:4; stroke-opacity:1; fill:none" points="211.395,1734.12 230.293,1734.12 "/>
<polyline clip-path="url(#clip600)" style="stroke:#000000; stroke-linecap:round; stroke-linejoin:round; stroke-width:4; stroke-opacity:1; fill:none" points="211.395,1364.85 230.293,1364.85 "/>
<polyline clip-path="url(#clip600)" style="stroke:#000000; stroke-linecap:round; stroke-linejoin:round; stroke-width:4; stroke-opacity:1; fill:none" points="211.395,995.577 230.293,995.577 "/>
<polyline clip-path="url(#clip600)" style="stroke:#000000; stroke-linecap:round; stroke-linejoin:round; stroke-width:4; stroke-opacity:1; fill:none" points="211.395,626.307 230.293,626.307 "/>
<polyline clip-path="url(#clip600)" style="stroke:#000000; stroke-linecap:round; stroke-linejoin:round; stroke-width:4; stroke-opacity:1; fill:none" points="211.395,257.037 230.293,257.037 "/>
<path clip-path="url(#clip600)" d="M159.131 1719.92 Q155.52 1719.92 153.691 1723.48 Q151.886 1727.02 151.886 1734.15 Q151.886 1741.26 153.691 1744.82 Q155.52 1748.36 159.131 1748.36 Q162.765 1748.36 164.571 1744.82 Q166.399 1741.26 166.399 1734.15 Q166.399 1727.02 164.571 1723.48 Q162.765 1719.92 159.131 1719.92 M159.131 1716.21 Q164.941 1716.21 167.997 1720.82 Q171.075 1725.4 171.075 1734.15 Q171.075 1742.88 167.997 1747.48 Q164.941 1752.07 159.131 1752.07 Q153.321 1752.07 150.242 1747.48 Q147.186 1742.88 147.186 1734.15 Q147.186 1725.4 150.242 1720.82 Q153.321 1716.21 159.131 1716.21 Z" fill="#000000" fill-rule="nonzero" fill-opacity="1" /><path clip-path="url(#clip600)" d="M122.997 1378.19 L139.316 1378.19 L139.316 1382.13 L117.372 1382.13 L117.372 1378.19 Q120.034 1375.44 124.617 1370.81 Q129.224 1366.15 130.404 1364.81 Q132.65 1362.29 133.529 1360.55 Q134.432 1358.79 134.432 1357.1 Q134.432 1354.35 132.488 1352.61 Q130.566 1350.88 127.464 1350.88 Q125.265 1350.88 122.812 1351.64 Q120.381 1352.4 117.603 1353.96 L117.603 1349.23 Q120.427 1348.1 122.881 1347.52 Q125.335 1346.94 127.372 1346.94 Q132.742 1346.94 135.937 1349.63 Q139.131 1352.31 139.131 1356.8 Q139.131 1358.93 138.321 1360.85 Q137.534 1362.75 135.427 1365.34 Q134.849 1366.02 131.747 1369.23 Q128.645 1372.43 122.997 1378.19 Z" fill="#000000" fill-rule="nonzero" fill-opacity="1" /><path clip-path="url(#clip600)" d="M159.131 1350.65 Q155.52 1350.65 153.691 1354.21 Q151.886 1357.75 151.886 1364.88 Q151.886 1371.99 153.691 1375.55 Q155.52 1379.09 159.131 1379.09 Q162.765 1379.09 164.571 1375.55 Q166.399 1371.99 166.399 1364.88 Q166.399 1357.75 164.571 1354.21 Q162.765 1350.65 159.131 1350.65 M159.131 1346.94 Q164.941 1346.94 167.997 1351.55 Q171.075 1356.13 171.075 1364.88 Q171.075 1373.61 167.997 1378.21 Q164.941 1382.8 159.131 1382.8 Q153.321 1382.8 150.242 1378.21 Q147.186 1373.61 147.186 1364.88 Q147.186 1356.13 150.242 1351.55 Q153.321 1346.94 159.131 1346.94 Z" fill="#000000" fill-rule="nonzero" fill-opacity="1" /><path clip-path="url(#clip600)" d="M131.816 982.371 L120.011 1000.82 L131.816 1000.82 L131.816 982.371 M130.589 978.297 L136.469 978.297 L136.469 1000.82 L141.399 1000.82 L141.399 1004.71 L136.469 1004.71 L136.469 1012.86 L131.816 1012.86 L131.816 1004.71 L116.214 1004.71 L116.214 1000.19 L130.589 978.297 Z" fill="#000000" fill-rule="nonzero" fill-opacity="1" /><path clip-path="url(#clip600)" d="M159.131 981.376 Q155.52 981.376 153.691 984.94 Q151.886 988.482 151.886 995.612 Q151.886 1002.72 153.691 1006.28 Q155.52 1009.82 159.131 1009.82 Q162.765 1009.82 164.571 1006.28 Q166.399 1002.72 166.399 995.612 Q166.399 988.482 164.571 984.94 Q162.765 981.376 159.131 981.376 M159.131 977.672 Q164.941 977.672 167.997 982.278 Q171.075 986.862 171.075 995.612 Q171.075 1004.34 167.997 1008.94 Q164.941 1013.53 159.131 1013.53 Q153.321 1013.53 150.242 1008.94 Q147.186 1004.34 147.186 995.612 Q147.186 986.862 150.242 982.278 Q153.321 977.672 159.131 977.672 Z" fill="#000000" fill-rule="nonzero" fill-opacity="1" /><path clip-path="url(#clip600)" d="M129.548 624.443 Q126.4 624.443 124.548 626.596 Q122.719 628.749 122.719 632.499 Q122.719 636.226 124.548 638.402 Q126.4 640.554 129.548 640.554 Q132.696 640.554 134.525 638.402 Q136.376 636.226 136.376 632.499 Q136.376 628.749 134.525 626.596 Q132.696 624.443 129.548 624.443 M138.83 609.791 L138.83 614.05 Q137.071 613.217 135.265 612.777 Q133.483 612.337 131.724 612.337 Q127.094 612.337 124.64 615.462 Q122.21 618.587 121.863 624.906 Q123.228 622.892 125.288 621.828 Q127.349 620.74 129.825 620.74 Q135.034 620.74 138.043 623.911 Q141.075 627.059 141.075 632.499 Q141.075 637.823 137.927 641.04 Q134.779 644.258 129.548 644.258 Q123.552 644.258 120.381 639.675 Q117.21 635.068 117.21 626.341 Q117.21 618.147 121.099 613.286 Q124.988 608.402 131.538 608.402 Q133.298 608.402 135.08 608.749 Q136.886 609.096 138.83 609.791 Z" fill="#000000" fill-rule="nonzero" fill-opacity="1" /><path clip-path="url(#clip600)" d="M159.131 612.105 Q155.52 612.105 153.691 615.67 Q151.886 619.212 151.886 626.341 Q151.886 633.448 153.691 637.013 Q155.52 640.554 159.131 640.554 Q162.765 640.554 164.571 637.013 Q166.399 633.448 166.399 626.341 Q166.399 619.212 164.571 615.67 Q162.765 612.105 159.131 612.105 M159.131 608.402 Q164.941 608.402 167.997 613.008 Q171.075 617.592 171.075 626.341 Q171.075 635.068 167.997 639.675 Q164.941 644.258 159.131 644.258 Q153.321 644.258 150.242 639.675 Q147.186 635.068 147.186 626.341 Q147.186 617.592 150.242 613.008 Q153.321 608.402 159.131 608.402 Z" fill="#000000" fill-rule="nonzero" fill-opacity="1" /><path clip-path="url(#clip600)" d="M128.969 257.905 Q125.636 257.905 123.714 259.687 Q121.816 261.47 121.816 264.594 Q121.816 267.719 123.714 269.502 Q125.636 271.284 128.969 271.284 Q132.302 271.284 134.224 269.502 Q136.145 267.696 136.145 264.594 Q136.145 261.47 134.224 259.687 Q132.325 257.905 128.969 257.905 M124.293 255.914 Q121.284 255.173 119.594 253.113 Q117.927 251.053 117.927 248.09 Q117.927 243.946 120.867 241.539 Q123.83 239.132 128.969 239.132 Q134.131 239.132 137.071 241.539 Q140.011 243.946 140.011 248.09 Q140.011 251.053 138.321 253.113 Q136.654 255.173 133.668 255.914 Q137.048 256.701 138.923 258.993 Q140.821 261.284 140.821 264.594 Q140.821 269.618 137.742 272.303 Q134.687 274.988 128.969 274.988 Q123.251 274.988 120.173 272.303 Q117.117 269.618 117.117 264.594 Q117.117 261.284 119.015 258.993 Q120.913 256.701 124.293 255.914 M122.58 248.53 Q122.58 251.215 124.247 252.72 Q125.937 254.224 128.969 254.224 Q131.978 254.224 133.668 252.72 Q135.381 251.215 135.381 248.53 Q135.381 245.845 133.668 244.34 Q131.978 242.835 128.969 242.835 Q125.937 242.835 124.247 244.34 Q122.58 245.845 122.58 248.53 Z" fill="#000000" fill-rule="nonzero" fill-opacity="1" /><path clip-path="url(#clip600)" d="M159.131 242.835 Q155.52 242.835 153.691 246.4 Q151.886 249.942 151.886 257.071 Q151.886 264.178 153.691 267.743 Q155.52 271.284 159.131 271.284 Q162.765 271.284 164.571 267.743 Q166.399 264.178 166.399 257.071 Q166.399 249.942 164.571 246.4 Q162.765 242.835 159.131 242.835 M159.131 239.132 Q164.941 239.132 167.997 243.738 Q171.075 248.321 171.075 257.071 Q171.075 265.798 167.997 270.405 Q164.941 274.988 159.131 274.988 Q153.321 274.988 150.242 270.405 Q147.186 265.798 147.186 257.071 Q147.186 248.321 150.242 243.738 Q153.321 239.132 159.131 239.132 Z" fill="#000000" fill-rule="nonzero" fill-opacity="1" /><path clip-path="url(#clip600)" d="M17.7787 986.814 L24.5582 986.814 Q21.5345 990.06 20.0386 993.752 Q18.5426 997.413 18.5426 1001.55 Q18.5426 1009.7 23.5397 1014.03 Q28.5049 1018.36 37.9262 1018.36 Q47.3156 1018.36 52.3127 1014.03 Q57.2779 1009.7 57.2779 1001.55 Q57.2779 997.413 55.782 993.752 Q54.2861 990.06 51.2623 986.814 L57.9782 986.814 Q60.2698 990.187 61.4156 993.975 Q62.5615 997.731 62.5615 1001.93 Q62.5615 1012.72 55.973 1018.93 Q49.3526 1025.14 37.9262 1025.14 Q26.4679 1025.14 19.8794 1018.93 Q13.2591 1012.72 13.2591 1001.93 Q13.2591 997.667 14.4049 993.911 Q15.5189 990.124 17.7787 986.814 Z" fill="#000000" fill-rule="nonzero" fill-opacity="1" /><path clip-path="url(#clip600)" d="M30.0964 963.324 Q30.0964 968.035 33.7885 970.772 Q37.4488 973.509 43.8463 973.509 Q50.2438 973.509 53.9359 970.804 Q57.5962 968.067 57.5962 963.324 Q57.5962 958.645 53.9041 955.908 Q50.212 953.171 43.8463 953.171 Q37.5124 953.171 33.8203 955.908 Q30.0964 958.645 30.0964 963.324 M25.1311 963.324 Q25.1311 955.685 30.0964 951.325 Q35.0616 946.964 43.8463 946.964 Q52.5991 946.964 57.5962 951.325 Q62.5615 955.685 62.5615 963.324 Q62.5615 970.995 57.5962 975.355 Q52.5991 979.684 43.8463 979.684 Q35.0616 979.684 30.0964 975.355 Q25.1311 970.995 25.1311 963.324 Z" fill="#000000" fill-rule="nonzero" fill-opacity="1" /><path clip-path="url(#clip600)" d="M47.5702 937.861 L25.9905 937.861 L25.9905 932.005 L47.3474 932.005 Q52.4082 932.005 54.9545 930.032 Q57.4689 928.058 57.4689 924.111 Q57.4689 919.369 54.4452 916.632 Q51.4215 913.863 46.2016 913.863 L25.9905 913.863 L25.9905 908.006 L61.6384 908.006 L61.6384 913.863 L56.1639 913.863 Q59.4104 915.995 61.0019 918.828 Q62.5615 921.629 62.5615 925.353 Q62.5615 931.496 58.742 934.678 Q54.9226 937.861 47.5702 937.861 M25.1311 923.125 L25.1311 923.125 Z" fill="#000000" fill-rule="nonzero" fill-opacity="1" /><path clip-path="url(#clip600)" d="M40.1224 866.311 L61.6384 866.311 L61.6384 872.167 L40.3133 872.167 Q35.2526 872.167 32.7381 874.141 Q30.2237 876.114 30.2237 880.061 Q30.2237 884.803 33.2474 887.54 Q36.2711 890.278 41.491 890.278 L61.6384 890.278 L61.6384 896.166 L25.9905 896.166 L25.9905 890.278 L31.5287 890.278 Q28.314 888.177 26.7225 885.344 Q25.1311 882.48 25.1311 878.756 Q25.1311 872.613 28.9505 869.462 Q32.7381 866.311 40.1224 866.311 Z" fill="#000000" fill-rule="nonzero" fill-opacity="1" /><path clip-path="url(#clip600)" d="M15.869 848.837 L25.9905 848.837 L25.9905 836.774 L30.542 836.774 L30.542 848.837 L49.8937 848.837 Q54.2542 848.837 55.4955 847.659 Q56.7368 846.45 56.7368 842.79 L56.7368 836.774 L61.6384 836.774 L61.6384 842.79 Q61.6384 849.569 59.124 852.147 Q56.5777 854.725 49.8937 854.725 L30.542 854.725 L30.542 859.022 L25.9905 859.022 L25.9905 854.725 L15.869 854.725 L15.869 848.837 Z" fill="#000000" fill-rule="nonzero" fill-opacity="1" /><path clip-path="url(#clip600)" d="M487.36 18.8205 L487.36 65.8515 L497.244 65.8515 Q509.761 65.8515 515.554 60.1802 Q521.387 54.509 521.387 42.2752 Q521.387 30.1225 515.554 24.4918 Q509.761 18.8205 497.244 18.8205 L487.36 18.8205 M479.177 12.096 L495.988 12.096 Q513.569 12.096 521.792 19.4281 Q530.016 26.7198 530.016 42.2752 Q530.016 57.9117 521.752 65.2439 Q513.488 72.576 495.988 72.576 L479.177 72.576 L479.177 12.096 Z" fill="#000000" fill-rule="nonzero" fill-opacity="1" /><path clip-path="url(#clip600)" d="M581.543 48.0275 L581.543 51.6733 L547.272 51.6733 Q547.759 59.3701 551.89 63.421 Q556.063 67.4314 563.476 67.4314 Q567.77 67.4314 571.78 66.3781 Q575.831 65.3249 579.801 63.2184 L579.801 70.267 Q575.791 71.9684 571.578 72.8596 Q567.365 73.7508 563.03 73.7508 Q552.174 73.7508 545.814 67.4314 Q539.495 61.1119 539.495 50.3365 Q539.495 39.1965 545.49 32.6746 Q551.526 26.1121 561.734 26.1121 Q570.889 26.1121 576.196 32.0264 Q581.543 37.9003 581.543 48.0275 M574.089 45.84 Q574.008 39.7232 570.646 36.0774 Q567.324 32.4315 561.815 32.4315 Q555.577 32.4315 551.809 35.9558 Q548.083 39.4801 547.515 45.8805 L574.089 45.84 Z" fill="#000000" fill-rule="nonzero" fill-opacity="1" /><path clip-path="url(#clip600)" d="M623.632 49.3643 Q623.632 41.2625 620.27 36.8065 Q616.948 32.3505 610.912 32.3505 Q604.917 32.3505 601.555 36.8065 Q598.233 41.2625 598.233 49.3643 Q598.233 57.4256 601.555 61.8816 Q604.917 66.3376 610.912 66.3376 Q616.948 66.3376 620.27 61.8816 Q623.632 57.4256 623.632 49.3643 M631.086 66.9452 Q631.086 78.5308 625.941 84.1616 Q620.796 89.8329 610.183 89.8329 Q606.254 89.8329 602.77 89.2252 Q599.286 88.6581 596.005 87.4428 L596.005 80.1917 Q599.286 81.9741 602.486 82.8248 Q605.686 83.6755 609.008 83.6755 Q616.34 83.6755 619.986 79.8271 Q623.632 76.0193 623.632 68.282 L623.632 64.5957 Q621.323 68.6061 617.718 70.5911 Q614.112 72.576 609.089 72.576 Q600.744 72.576 595.64 66.2161 Q590.536 59.8562 590.536 49.3643 Q590.536 38.832 595.64 32.472 Q600.744 26.1121 609.089 26.1121 Q614.112 26.1121 617.718 28.0971 Q621.323 30.082 623.632 34.0924 L623.632 27.2059 L631.086 27.2059 L631.086 66.9452 Z" fill="#000000" fill-rule="nonzero" fill-opacity="1" /><path clip-path="url(#clip600)" d="M672.729 34.1734 Q671.473 33.4443 669.974 33.1202 Q668.516 32.7556 666.734 32.7556 Q660.414 32.7556 657.011 36.8875 Q653.649 40.9789 653.649 48.6757 L653.649 72.576 L646.155 72.576 L646.155 27.2059 L653.649 27.2059 L653.649 34.2544 Q655.999 30.1225 659.766 28.1376 Q663.533 26.1121 668.921 26.1121 Q669.691 26.1121 670.622 26.2337 Q671.554 26.3147 672.688 26.5172 L672.729 34.1734 Z" fill="#000000" fill-rule="nonzero" fill-opacity="1" /><path clip-path="url(#clip600)" d="M717.532 48.0275 L717.532 51.6733 L683.261 51.6733 Q683.747 59.3701 687.879 63.421 Q692.052 67.4314 699.465 67.4314 Q703.759 67.4314 707.769 66.3781 Q711.82 65.3249 715.79 63.2184 L715.79 70.267 Q711.78 71.9684 707.567 72.8596 Q703.354 73.7508 699.019 73.7508 Q688.163 73.7508 681.803 67.4314 Q675.484 61.1119 675.484 50.3365 Q675.484 39.1965 681.479 32.6746 Q687.515 26.1121 697.723 26.1121 Q706.878 26.1121 712.185 32.0264 Q717.532 37.9003 717.532 48.0275 M710.078 45.84 Q709.997 39.7232 706.635 36.0774 Q703.313 32.4315 697.804 32.4315 Q691.566 32.4315 687.798 35.9558 Q684.071 39.4801 683.504 45.8805 L710.078 45.84 Z" fill="#000000" fill-rule="nonzero" fill-opacity="1" /><path clip-path="url(#clip600)" d="M768.573 48.0275 L768.573 51.6733 L734.303 51.6733 Q734.789 59.3701 738.921 63.421 Q743.093 67.4314 750.506 67.4314 Q754.8 67.4314 758.811 66.3781 Q762.862 65.3249 766.831 63.2184 L766.831 70.267 Q762.821 71.9684 758.608 72.8596 Q754.395 73.7508 750.061 73.7508 Q739.204 73.7508 732.844 67.4314 Q726.525 61.1119 726.525 50.3365 Q726.525 39.1965 732.52 32.6746 Q738.556 26.1121 748.764 26.1121 Q757.919 26.1121 763.226 32.0264 Q768.573 37.9003 768.573 48.0275 M761.12 45.84 Q761.039 39.7232 757.676 36.0774 Q754.355 32.4315 748.845 32.4315 Q742.607 32.4315 738.84 35.9558 Q735.113 39.4801 734.546 45.8805 L761.12 45.84 Z" fill="#000000" fill-rule="nonzero" fill-opacity="1" /><path clip-path="url(#clip600)" d="M815.685 18.8205 L815.685 65.8515 L825.57 65.8515 Q838.087 65.8515 843.88 60.1802 Q849.713 54.509 849.713 42.2752 Q849.713 30.1225 843.88 24.4918 Q838.087 18.8205 825.57 18.8205 L815.685 18.8205 M807.503 12.096 L824.314 12.096 Q841.895 12.096 850.118 19.4281 Q858.341 26.7198 858.341 42.2752 Q858.341 57.9117 850.078 65.2439 Q841.814 72.576 824.314 72.576 L807.503 72.576 L807.503 12.096 Z" fill="#000000" fill-rule="nonzero" fill-opacity="1" /><path clip-path="url(#clip600)" d="M871.061 27.2059 L878.515 27.2059 L878.515 72.576 L871.061 72.576 L871.061 27.2059 M871.061 9.54393 L878.515 9.54393 L878.515 18.9825 L871.061 18.9825 L871.061 9.54393 Z" fill="#000000" fill-rule="nonzero" fill-opacity="1" /><path clip-path="url(#clip600)" d="M923.034 28.5427 L923.034 35.5912 Q919.875 33.9709 916.472 33.1607 Q913.069 32.3505 909.423 32.3505 Q903.874 32.3505 901.078 34.0519 Q898.324 35.7533 898.324 39.156 Q898.324 41.7486 900.309 43.2475 Q902.294 44.7058 908.289 46.0426 L910.841 46.6097 Q918.781 48.3111 922.103 51.4303 Q925.465 54.509 925.465 60.0587 Q925.465 66.3781 920.442 70.0644 Q915.459 73.7508 906.709 73.7508 Q903.063 73.7508 899.093 73.0216 Q895.164 72.3329 890.789 70.9151 L890.789 63.2184 Q894.921 65.3654 898.931 66.4591 Q902.942 67.5124 906.871 67.5124 Q912.137 67.5124 914.973 65.73 Q917.809 63.9071 917.809 60.6258 Q917.809 57.5877 915.743 55.9673 Q913.717 54.3469 906.79 52.8481 L904.198 52.2405 Q897.271 50.7821 894.192 47.7845 Q891.113 44.7463 891.113 39.4801 Q891.113 33.0797 895.65 29.5959 Q900.187 26.1121 908.532 26.1121 Q912.664 26.1121 916.31 26.7198 Q919.956 27.3274 923.034 28.5427 Z" fill="#000000" fill-rule="nonzero" fill-opacity="1" /><path clip-path="url(#clip600)" d="M944.707 14.324 L944.707 27.2059 L960.06 27.2059 L960.06 32.9987 L944.707 32.9987 L944.707 57.6282 Q944.707 63.1779 946.205 64.7578 Q947.745 66.3376 952.403 66.3376 L960.06 66.3376 L960.06 72.576 L952.403 72.576 Q943.775 72.576 940.494 69.3758 Q937.212 66.1351 937.212 57.6282 L937.212 32.9987 L931.744 32.9987 L931.744 27.2059 L937.212 27.2059 L937.212 14.324 L944.707 14.324 Z" fill="#000000" fill-rule="nonzero" fill-opacity="1" /><path clip-path="url(#clip600)" d="M996.153 34.1734 Q994.897 33.4443 993.399 33.1202 Q991.94 32.7556 990.158 32.7556 Q983.838 32.7556 980.436 36.8875 Q977.073 40.9789 977.073 48.6757 L977.073 72.576 L969.579 72.576 L969.579 27.2059 L977.073 27.2059 L977.073 34.2544 Q979.423 30.1225 983.19 28.1376 Q986.958 26.1121 992.345 26.1121 Q993.115 26.1121 994.047 26.2337 Q994.978 26.3147 996.113 26.5172 L996.153 34.1734 Z" fill="#000000" fill-rule="nonzero" fill-opacity="1" /><path clip-path="url(#clip600)" d="M1003.97 27.2059 L1011.43 27.2059 L1011.43 72.576 L1003.97 72.576 L1003.97 27.2059 M1003.97 9.54393 L1011.43 9.54393 L1011.43 18.9825 L1003.97 18.9825 L1003.97 9.54393 Z" fill="#000000" fill-rule="nonzero" fill-opacity="1" /><path clip-path="url(#clip600)" d="M1059.59 49.9314 Q1059.59 41.7081 1056.19 37.0496 Q1052.83 32.3505 1046.91 32.3505 Q1041 32.3505 1037.59 37.0496 Q1034.23 41.7081 1034.23 49.9314 Q1034.23 58.1548 1037.59 62.8538 Q1041 67.5124 1046.91 67.5124 Q1052.83 67.5124 1056.19 62.8538 Q1059.59 58.1548 1059.59 49.9314 M1034.23 34.0924 Q1036.58 30.0415 1040.15 28.0971 Q1043.75 26.1121 1048.73 26.1121 Q1057 26.1121 1062.14 32.6746 Q1067.33 39.2371 1067.33 49.9314 Q1067.33 60.6258 1062.14 67.1883 Q1057 73.7508 1048.73 73.7508 Q1043.75 73.7508 1040.15 71.8063 Q1036.58 69.8214 1034.23 65.7705 L1034.23 72.576 L1026.74 72.576 L1026.74 9.54393 L1034.23 9.54393 L1034.23 34.0924 Z" fill="#000000" fill-rule="nonzero" fill-opacity="1" /><path clip-path="url(#clip600)" d="M1078.91 54.671 L1078.91 27.2059 L1086.37 27.2059 L1086.37 54.3874 Q1086.37 60.8284 1088.88 64.0691 Q1091.39 67.2693 1096.41 67.2693 Q1102.45 67.2693 1105.93 63.421 Q1109.46 59.5726 1109.46 52.9291 L1109.46 27.2059 L1116.91 27.2059 L1116.91 72.576 L1109.46 72.576 L1109.46 65.6084 Q1106.74 69.7404 1103.14 71.7658 Q1099.57 73.7508 1094.83 73.7508 Q1087.01 73.7508 1082.96 68.8897 Q1078.91 64.0286 1078.91 54.671 M1097.67 26.1121 L1097.67 26.1121 Z" fill="#000000" fill-rule="nonzero" fill-opacity="1" /><path clip-path="url(#clip600)" d="M1139.64 14.324 L1139.64 27.2059 L1154.99 27.2059 L1154.99 32.9987 L1139.64 32.9987 L1139.64 57.6282 Q1139.64 63.1779 1141.13 64.7578 Q1142.67 66.3376 1147.33 66.3376 L1154.99 66.3376 L1154.99 72.576 L1147.33 72.576 Q1138.7 72.576 1135.42 69.3758 Q1132.14 66.1351 1132.14 57.6282 L1132.14 32.9987 L1126.67 32.9987 L1126.67 27.2059 L1132.14 27.2059 L1132.14 14.324 L1139.64 14.324 Z" fill="#000000" fill-rule="nonzero" fill-opacity="1" /><path clip-path="url(#clip600)" d="M1164.79 27.2059 L1172.25 27.2059 L1172.25 72.576 L1164.79 72.576 L1164.79 27.2059 M1164.79 9.54393 L1172.25 9.54393 L1172.25 18.9825 L1164.79 18.9825 L1164.79 9.54393 Z" fill="#000000" fill-rule="nonzero" fill-opacity="1" /><path clip-path="url(#clip600)" d="M1205.42 32.4315 Q1199.43 32.4315 1195.94 37.1306 Q1192.46 41.7891 1192.46 49.9314 Q1192.46 58.0738 1195.9 62.7728 Q1199.39 67.4314 1205.42 67.4314 Q1211.38 67.4314 1214.86 62.7323 Q1218.35 58.0333 1218.35 49.9314 Q1218.35 41.8701 1214.86 37.1711 Q1211.38 32.4315 1205.42 32.4315 M1205.42 26.1121 Q1215.15 26.1121 1220.69 32.4315 Q1226.24 38.7509 1226.24 49.9314 Q1226.24 61.0714 1220.69 67.4314 Q1215.15 73.7508 1205.42 73.7508 Q1195.66 73.7508 1190.11 67.4314 Q1184.6 61.0714 1184.6 49.9314 Q1184.6 38.7509 1190.11 32.4315 Q1195.66 26.1121 1205.42 26.1121 Z" fill="#000000" fill-rule="nonzero" fill-opacity="1" /><path clip-path="url(#clip600)" d="M1276.31 45.1919 L1276.31 72.576 L1268.86 72.576 L1268.86 45.4349 Q1268.86 38.994 1266.35 35.7938 Q1263.84 32.5936 1258.81 32.5936 Q1252.78 32.5936 1249.29 36.4419 Q1245.81 40.2903 1245.81 46.9338 L1245.81 72.576 L1238.32 72.576 L1238.32 27.2059 L1245.81 27.2059 L1245.81 34.2544 Q1248.48 30.163 1252.09 28.1376 Q1255.74 26.1121 1260.47 26.1121 Q1268.29 26.1121 1272.3 30.9732 Q1276.31 35.7938 1276.31 45.1919 Z" fill="#000000" fill-rule="nonzero" fill-opacity="1" /><path clip-path="url(#clip600)" d="M1335.46 9.62495 Q1330.03 18.942 1327.4 28.0566 Q1324.76 37.1711 1324.76 46.5287 Q1324.76 55.8863 1327.4 65.0818 Q1330.07 74.2369 1335.46 83.5134 L1328.98 83.5134 Q1322.9 73.9938 1319.86 64.7983 Q1316.86 55.6027 1316.86 46.5287 Q1316.86 37.4952 1319.86 28.3401 Q1322.86 19.1851 1328.98 9.62495 L1335.46 9.62495 Z" fill="#000000" fill-rule="nonzero" fill-opacity="1" /><path clip-path="url(#clip600)" d="M1386.5 14.0809 L1386.5 22.0612 Q1381.84 19.8332 1377.71 18.7395 Q1373.58 17.6457 1369.73 17.6457 Q1363.04 17.6457 1359.4 20.2383 Q1355.79 22.8309 1355.79 27.611 Q1355.79 31.6214 1358.18 33.6873 Q1360.61 35.7128 1367.34 36.9686 L1372.28 37.9813 Q1381.43 39.7232 1385.77 44.1387 Q1390.14 48.5136 1390.14 55.8863 Q1390.14 64.6767 1384.23 69.2137 Q1378.36 73.7508 1366.97 73.7508 Q1362.68 73.7508 1357.82 72.7785 Q1353 71.8063 1347.81 69.9024 L1347.81 61.4765 Q1352.79 64.2716 1357.57 65.6895 Q1362.35 67.1073 1366.97 67.1073 Q1373.98 67.1073 1377.79 64.3527 Q1381.6 61.598 1381.6 56.4939 Q1381.6 52.0379 1378.84 49.5264 Q1376.13 47.0148 1369.89 45.759 L1364.91 44.7868 Q1355.75 42.9639 1351.66 39.075 Q1347.57 35.1862 1347.57 28.2591 Q1347.57 20.2383 1353.2 15.6203 Q1358.87 11.0023 1368.8 11.0023 Q1373.05 11.0023 1377.46 11.7719 Q1381.88 12.5416 1386.5 14.0809 Z" fill="#000000" fill-rule="nonzero" fill-opacity="1" /><path clip-path="url(#clip600)" d="M1409.95 14.324 L1409.95 27.2059 L1425.31 27.2059 L1425.31 32.9987 L1409.95 32.9987 L1409.95 57.6282 Q1409.95 63.1779 1411.45 64.7578 Q1412.99 66.3376 1417.65 66.3376 L1425.31 66.3376 L1425.31 72.576 L1417.65 72.576 Q1409.02 72.576 1405.74 69.3758 Q1402.46 66.1351 1402.46 57.6282 L1402.46 32.9987 L1396.99 32.9987 L1396.99 27.2059 L1402.46 27.2059 L1402.46 14.324 L1409.95 14.324 Z" fill="#000000" fill-rule="nonzero" fill-opacity="1" /><path clip-path="url(#clip600)" d="M1455.73 49.7694 Q1446.69 49.7694 1443.21 51.8354 Q1439.73 53.9013 1439.73 58.8839 Q1439.73 62.8538 1442.32 65.2034 Q1444.95 67.5124 1449.45 67.5124 Q1455.65 67.5124 1459.37 63.1374 Q1463.14 58.7219 1463.14 51.4303 L1463.14 49.7694 L1455.73 49.7694 M1470.6 46.6907 L1470.6 72.576 L1463.14 72.576 L1463.14 65.6895 Q1460.59 69.8214 1456.78 71.8063 Q1452.97 73.7508 1447.46 73.7508 Q1440.5 73.7508 1436.36 69.8619 Q1432.27 65.9325 1432.27 59.3701 Q1432.27 51.7138 1437.38 47.825 Q1442.52 43.9361 1452.69 43.9361 L1463.14 43.9361 L1463.14 43.2069 Q1463.14 38.0623 1459.74 35.2672 Q1456.38 32.4315 1450.26 32.4315 Q1446.37 32.4315 1442.68 33.3632 Q1439 34.295 1435.6 36.1584 L1435.6 29.2718 Q1439.69 27.692 1443.53 26.9223 Q1447.38 26.1121 1451.03 26.1121 Q1460.87 26.1121 1465.73 31.2163 Q1470.6 36.3204 1470.6 46.6907 Z" fill="#000000" fill-rule="nonzero" fill-opacity="1" /><path clip-path="url(#clip600)" d="M1493.32 14.324 L1493.32 27.2059 L1508.67 27.2059 L1508.67 32.9987 L1493.32 32.9987 L1493.32 57.6282 Q1493.32 63.1779 1494.82 64.7578 Q1496.36 66.3376 1501.02 66.3376 L1508.67 66.3376 L1508.67 72.576 L1501.02 72.576 Q1492.39 72.576 1489.11 69.3758 Q1485.83 66.1351 1485.83 57.6282 L1485.83 32.9987 L1480.36 32.9987 L1480.36 27.2059 L1485.83 27.2059 L1485.83 14.324 L1493.32 14.324 Z" fill="#000000" fill-rule="nonzero" fill-opacity="1" /><path clip-path="url(#clip600)" d="M1518.48 27.2059 L1525.93 27.2059 L1525.93 72.576 L1518.48 72.576 L1518.48 27.2059 M1518.48 9.54393 L1525.93 9.54393 L1525.93 18.9825 L1518.48 18.9825 L1518.48 9.54393 Z" fill="#000000" fill-rule="nonzero" fill-opacity="1" /><path clip-path="url(#clip600)" d="M1574.18 28.9478 L1574.18 35.9153 Q1571.02 34.1734 1567.82 33.3227 Q1564.66 32.4315 1561.42 32.4315 Q1554.17 32.4315 1550.15 37.0496 Q1546.14 41.6271 1546.14 49.9314 Q1546.14 58.2358 1550.15 62.8538 Q1554.17 67.4314 1561.42 67.4314 Q1564.66 67.4314 1567.82 66.5807 Q1571.02 65.6895 1574.18 63.9476 L1574.18 70.8341 Q1571.06 72.2924 1567.7 73.0216 Q1564.37 73.7508 1560.61 73.7508 Q1550.36 73.7508 1544.32 67.3098 Q1538.29 60.8689 1538.29 49.9314 Q1538.29 38.832 1544.36 32.472 Q1550.48 26.1121 1561.09 26.1121 Q1564.54 26.1121 1567.82 26.8413 Q1571.1 27.5299 1574.18 28.9478 Z" fill="#000000" fill-rule="nonzero" fill-opacity="1" /><path clip-path="url(#clip600)" d="M1587.46 12.096 L1598.48 12.096 L1625.3 62.6918 L1625.3 12.096 L1633.24 12.096 L1633.24 72.576 L1622.22 72.576 L1595.4 21.9802 L1595.4 72.576 L1587.46 72.576 L1587.46 12.096 Z" fill="#000000" fill-rule="nonzero" fill-opacity="1" /><path clip-path="url(#clip600)" d="M1688.01 48.0275 L1688.01 51.6733 L1653.74 51.6733 Q1654.22 59.3701 1658.35 63.421 Q1662.53 67.4314 1669.94 67.4314 Q1674.23 67.4314 1678.24 66.3781 Q1682.3 65.3249 1686.27 63.2184 L1686.27 70.267 Q1682.25 71.9684 1678.04 72.8596 Q1673.83 73.7508 1669.49 73.7508 Q1658.64 73.7508 1652.28 67.4314 Q1645.96 61.1119 1645.96 50.3365 Q1645.96 39.1965 1651.95 32.6746 Q1657.99 26.1121 1668.2 26.1121 Q1677.35 26.1121 1682.66 32.0264 Q1688.01 37.9003 1688.01 48.0275 M1680.55 45.84 Q1680.47 39.7232 1677.11 36.0774 Q1673.79 32.4315 1668.28 32.4315 Q1662.04 32.4315 1658.27 35.9558 Q1654.55 39.4801 1653.98 45.8805 L1680.55 45.84 Z" fill="#000000" fill-rule="nonzero" fill-opacity="1" /><path clip-path="url(#clip600)" d="M1707.61 14.324 L1707.61 27.2059 L1722.97 27.2059 L1722.97 32.9987 L1707.61 32.9987 L1707.61 57.6282 Q1707.61 63.1779 1709.11 64.7578 Q1710.65 66.3376 1715.31 66.3376 L1722.97 66.3376 L1722.97 72.576 L1715.31 72.576 Q1706.68 72.576 1703.4 69.3758 Q1700.12 66.1351 1700.12 57.6282 L1700.12 32.9987 L1694.65 32.9987 L1694.65 27.2059 L1700.12 27.2059 L1700.12 14.324 L1707.61 14.324 Z" fill="#000000" fill-rule="nonzero" fill-opacity="1" /><path clip-path="url(#clip600)" d="M1734.67 62.2867 L1743.22 62.2867 L1743.22 69.2543 L1736.58 82.2172 L1731.35 82.2172 L1734.67 69.2543 L1734.67 62.2867 Z" fill="#000000" fill-rule="nonzero" fill-opacity="1" /><path clip-path="url(#clip600)" d="M1823.23 45.1919 L1823.23 72.576 L1815.77 72.576 L1815.77 45.4349 Q1815.77 38.994 1813.26 35.7938 Q1810.75 32.5936 1805.73 32.5936 Q1799.69 32.5936 1796.21 36.4419 Q1792.72 40.2903 1792.72 46.9338 L1792.72 72.576 L1785.23 72.576 L1785.23 27.2059 L1792.72 27.2059 L1792.72 34.2544 Q1795.4 30.163 1799 28.1376 Q1802.65 26.1121 1807.39 26.1121 Q1815.21 26.1121 1819.22 30.9732 Q1823.23 35.7938 1823.23 45.1919 Z" fill="#000000" fill-rule="nonzero" fill-opacity="1" /><path clip-path="url(#clip600)" d="M1872.57 86.3491 L1872.57 92.1419 L1829.46 92.1419 L1829.46 86.3491 L1872.57 86.3491 Z" fill="#000000" fill-rule="nonzero" fill-opacity="1" /><path clip-path="url(#clip600)" d="M1912.22 28.9478 L1912.22 35.9153 Q1909.06 34.1734 1905.86 33.3227 Q1902.7 32.4315 1899.46 32.4315 Q1892.21 32.4315 1888.2 37.0496 Q1884.19 41.6271 1884.19 49.9314 Q1884.19 58.2358 1888.2 62.8538 Q1892.21 67.4314 1899.46 67.4314 Q1902.7 67.4314 1905.86 66.5807 Q1909.06 65.6895 1912.22 63.9476 L1912.22 70.8341 Q1909.11 72.2924 1905.74 73.0216 Q1902.42 73.7508 1898.65 73.7508 Q1888.41 73.7508 1882.37 67.3098 Q1876.33 60.8689 1876.33 49.9314 Q1876.33 38.832 1882.41 32.472 Q1888.53 26.1121 1899.14 26.1121 Q1902.58 26.1121 1905.86 26.8413 Q1909.15 27.5299 1912.22 28.9478 Z" fill="#000000" fill-rule="nonzero" fill-opacity="1" /><path clip-path="url(#clip600)" d="M1942.77 32.4315 Q1936.77 32.4315 1933.29 37.1306 Q1929.81 41.7891 1929.81 49.9314 Q1929.81 58.0738 1933.25 62.7728 Q1936.73 67.4314 1942.77 67.4314 Q1948.72 67.4314 1952.21 62.7323 Q1955.69 58.0333 1955.69 49.9314 Q1955.69 41.8701 1952.21 37.1711 Q1948.72 32.4315 1942.77 32.4315 M1942.77 26.1121 Q1952.49 26.1121 1958.04 32.4315 Q1963.59 38.7509 1963.59 49.9314 Q1963.59 61.0714 1958.04 67.4314 Q1952.49 73.7508 1942.77 73.7508 Q1933.01 73.7508 1927.46 67.4314 Q1921.95 61.0714 1921.95 49.9314 Q1921.95 38.7509 1927.46 32.4315 Q1933.01 26.1121 1942.77 26.1121 Z" fill="#000000" fill-rule="nonzero" fill-opacity="1" /><path clip-path="url(#clip600)" d="M2013.66 45.1919 L2013.66 72.576 L2006.21 72.576 L2006.21 45.4349 Q2006.21 38.994 2003.69 35.7938 Q2001.18 32.5936 1996.16 32.5936 Q1990.12 32.5936 1986.64 36.4419 Q1983.16 40.2903 1983.16 46.9338 L1983.16 72.576 L1975.66 72.576 L1975.66 27.2059 L1983.16 27.2059 L1983.16 34.2544 Q1985.83 30.163 1989.43 28.1376 Q1993.08 26.1121 1997.82 26.1121 Q2005.64 26.1121 2009.65 30.9732 Q2013.66 35.7938 2013.66 45.1919 Z" fill="#000000" fill-rule="nonzero" fill-opacity="1" /><path clip-path="url(#clip600)" d="M2035.9 14.324 L2035.9 27.2059 L2051.25 27.2059 L2051.25 32.9987 L2035.9 32.9987 L2035.9 57.6282 Q2035.9 63.1779 2037.4 64.7578 Q2038.94 66.3376 2043.6 66.3376 L2051.25 66.3376 L2051.25 72.576 L2043.6 72.576 Q2034.97 72.576 2031.69 69.3758 Q2028.4 66.1351 2028.4 57.6282 L2028.4 32.9987 L2022.94 32.9987 L2022.94 27.2059 L2028.4 27.2059 L2028.4 14.324 L2035.9 14.324 Z" fill="#000000" fill-rule="nonzero" fill-opacity="1" /><path clip-path="url(#clip600)" d="M2081.67 49.7694 Q2072.64 49.7694 2069.16 51.8354 Q2065.67 53.9013 2065.67 58.8839 Q2065.67 62.8538 2068.27 65.2034 Q2070.9 67.5124 2075.4 67.5124 Q2081.59 67.5124 2085.32 63.1374 Q2089.09 58.7219 2089.09 51.4303 L2089.09 49.7694 L2081.67 49.7694 M2096.54 46.6907 L2096.54 72.576 L2089.09 72.576 L2089.09 65.6895 Q2086.54 69.8214 2082.73 71.8063 Q2078.92 73.7508 2073.41 73.7508 Q2066.44 73.7508 2062.31 69.8619 Q2058.22 65.9325 2058.22 59.3701 Q2058.22 51.7138 2063.32 47.825 Q2068.47 43.9361 2078.64 43.9361 L2089.09 43.9361 L2089.09 43.2069 Q2089.09 38.0623 2085.68 35.2672 Q2082.32 32.4315 2076.21 32.4315 Q2072.32 32.4315 2068.63 33.3632 Q2064.94 34.295 2061.54 36.1584 L2061.54 29.2718 Q2065.63 27.692 2069.48 26.9223 Q2073.33 26.1121 2076.97 26.1121 Q2086.82 26.1121 2091.68 31.2163 Q2096.54 36.3204 2096.54 46.6907 Z" fill="#000000" fill-rule="nonzero" fill-opacity="1" /><path clip-path="url(#clip600)" d="M2144.54 28.9478 L2144.54 35.9153 Q2141.38 34.1734 2138.18 33.3227 Q2135.02 32.4315 2131.78 32.4315 Q2124.53 32.4315 2120.52 37.0496 Q2116.51 41.6271 2116.51 49.9314 Q2116.51 58.2358 2120.52 62.8538 Q2124.53 67.4314 2131.78 67.4314 Q2135.02 67.4314 2138.18 66.5807 Q2141.38 65.6895 2144.54 63.9476 L2144.54 70.8341 Q2141.42 72.2924 2138.06 73.0216 Q2134.74 73.7508 2130.97 73.7508 Q2120.72 73.7508 2114.69 67.3098 Q2108.65 60.8689 2108.65 49.9314 Q2108.65 38.832 2114.73 32.472 Q2120.85 26.1121 2131.46 26.1121 Q2134.9 26.1121 2138.18 26.8413 Q2141.47 27.5299 2144.54 28.9478 Z" fill="#000000" fill-rule="nonzero" fill-opacity="1" /><path clip-path="url(#clip600)" d="M2164.88 14.324 L2164.88 27.2059 L2180.23 27.2059 L2180.23 32.9987 L2164.88 32.9987 L2164.88 57.6282 Q2164.88 63.1779 2166.38 64.7578 Q2167.92 66.3376 2172.58 66.3376 L2180.23 66.3376 L2180.23 72.576 L2172.58 72.576 Q2163.95 72.576 2160.67 69.3758 Q2157.39 66.1351 2157.39 57.6282 L2157.39 32.9987 L2151.92 32.9987 L2151.92 27.2059 L2157.39 27.2059 L2157.39 14.324 L2164.88 14.324 Z" fill="#000000" fill-rule="nonzero" fill-opacity="1" /><path clip-path="url(#clip600)" d="M2218.96 28.5427 L2218.96 35.5912 Q2215.8 33.9709 2212.4 33.1607 Q2208.99 32.3505 2205.35 32.3505 Q2199.8 32.3505 2197 34.0519 Q2194.25 35.7533 2194.25 39.156 Q2194.25 41.7486 2196.23 43.2475 Q2198.22 44.7058 2204.21 46.0426 L2206.77 46.6097 Q2214.71 48.3111 2218.03 51.4303 Q2221.39 54.509 2221.39 60.0587 Q2221.39 66.3781 2216.37 70.0644 Q2211.38 73.7508 2202.63 73.7508 Q2198.99 73.7508 2195.02 73.0216 Q2191.09 72.3329 2186.71 70.9151 L2186.71 63.2184 Q2190.85 65.3654 2194.86 66.4591 Q2198.87 67.5124 2202.8 67.5124 Q2208.06 67.5124 2210.9 65.73 Q2213.73 63.9071 2213.73 60.6258 Q2213.73 57.5877 2211.67 55.9673 Q2209.64 54.3469 2202.71 52.8481 L2200.12 52.2405 Q2193.2 50.7821 2190.12 47.7845 Q2187.04 44.7463 2187.04 39.4801 Q2187.04 33.0797 2191.57 29.5959 Q2196.11 26.1121 2204.46 26.1121 Q2208.59 26.1121 2212.23 26.7198 Q2215.88 27.3274 2218.96 28.5427 Z" fill="#000000" fill-rule="nonzero" fill-opacity="1" /><path clip-path="url(#clip600)" d="M2234.23 34.9026 L2286.16 34.9026 L2286.16 41.7081 L2234.23 41.7081 L2234.23 34.9026 M2234.23 51.4303 L2286.16 51.4303 L2286.16 58.3168 L2234.23 58.3168 L2234.23 51.4303 Z" fill="#000000" fill-rule="nonzero" fill-opacity="1" /><path clip-path="url(#clip600)" d="M2322.34 39.075 Q2316.83 39.075 2313.59 42.8424 Q2310.39 46.6097 2310.39 53.1722 Q2310.39 59.6941 2313.59 63.502 Q2316.83 67.2693 2322.34 67.2693 Q2327.85 67.2693 2331.05 63.502 Q2334.29 59.6941 2334.29 53.1722 Q2334.29 46.6097 2331.05 42.8424 Q2327.85 39.075 2322.34 39.075 M2338.58 13.4328 L2338.58 20.8865 Q2335.5 19.4281 2332.34 18.6585 Q2329.22 17.8888 2326.15 17.8888 Q2318.04 17.8888 2313.75 23.3575 Q2309.5 28.8262 2308.89 39.8852 Q2311.28 36.3609 2314.88 34.4975 Q2318.49 32.5936 2322.82 32.5936 Q2331.94 32.5936 2337.2 38.1433 Q2342.51 43.6525 2342.51 53.1722 Q2342.51 62.4892 2337 68.12 Q2331.49 73.7508 2322.34 73.7508 Q2311.85 73.7508 2306.3 65.73 Q2300.75 57.6687 2300.75 42.3968 Q2300.75 28.0566 2307.55 19.5497 Q2314.36 11.0023 2325.82 11.0023 Q2328.9 11.0023 2332.02 11.6099 Q2335.18 12.2175 2338.58 13.4328 Z" fill="#000000" fill-rule="nonzero" fill-opacity="1" /><path clip-path="url(#clip600)" d="M2354.38 9.62495 L2360.86 9.62495 Q2366.94 19.1851 2369.94 28.3401 Q2372.97 37.4952 2372.97 46.5287 Q2372.97 55.6027 2369.94 64.7983 Q2366.94 73.9938 2360.86 83.5134 L2354.38 83.5134 Q2359.77 74.2369 2362.4 65.0818 Q2365.08 55.8863 2365.08 46.5287 Q2365.08 37.1711 2362.4 28.0566 Q2359.77 18.942 2354.38 9.62495 Z" fill="#000000" fill-rule="nonzero" fill-opacity="1" /><path clip-path="url(#clip601)" d="M345.014 1715.65 L345.014 1734.12 L472.198 1734.12 L472.198 1715.65 L345.014 1715.65 L345.014 1715.65  Z" fill="#4682b4" fill-rule="evenodd" fill-opacity="1"/>
<polyline clip-path="url(#clip601)" style="stroke:#000000; stroke-linecap:round; stroke-linejoin:round; stroke-width:4; stroke-opacity:1; fill:none" points="345.014,1715.65 345.014,1734.12 472.198,1734.12 472.198,1715.65 345.014,1715.65 "/>
<path clip-path="url(#clip601)" d="M472.198 1494.09 L472.198 1734.12 L599.382 1734.12 L599.382 1494.09 L472.198 1494.09 L472.198 1494.09  Z" fill="#4682b4" fill-rule="evenodd" fill-opacity="1"/>
<polyline clip-path="url(#clip601)" style="stroke:#000000; stroke-linecap:round; stroke-linejoin:round; stroke-width:4; stroke-opacity:1; fill:none" points="472.198,1494.09 472.198,1734.12 599.382,1734.12 599.382,1494.09 472.198,1494.09 "/>
<path clip-path="url(#clip601)" d="M599.382 1327.92 L599.382 1734.12 L726.565 1734.12 L726.565 1327.92 L599.382 1327.92 L599.382 1327.92  Z" fill="#4682b4" fill-rule="evenodd" fill-opacity="1"/>
<polyline clip-path="url(#clip601)" style="stroke:#000000; stroke-linecap:round; stroke-linejoin:round; stroke-width:4; stroke-opacity:1; fill:none" points="599.382,1327.92 599.382,1734.12 726.565,1734.12 726.565,1327.92 599.382,1327.92 "/>
<path clip-path="url(#clip601)" d="M726.565 995.577 L726.565 1734.12 L853.749 1734.12 L853.749 995.577 L726.565 995.577 L726.565 995.577  Z" fill="#4682b4" fill-rule="evenodd" fill-opacity="1"/>
<polyline clip-path="url(#clip601)" style="stroke:#000000; stroke-linecap:round; stroke-linejoin:round; stroke-width:4; stroke-opacity:1; fill:none" points="726.565,995.577 726.565,1734.12 853.749,1734.12 853.749,995.577 726.565,995.577 "/>
<path clip-path="url(#clip601)" d="M853.749 515.526 L853.749 1734.12 L980.933 1734.12 L980.933 515.526 L853.749 515.526 L853.749 515.526  Z" fill="#4682b4" fill-rule="evenodd" fill-opacity="1"/>
<polyline clip-path="url(#clip601)" style="stroke:#000000; stroke-linecap:round; stroke-linejoin:round; stroke-width:4; stroke-opacity:1; fill:none" points="853.749,515.526 853.749,1734.12 980.933,1734.12 980.933,515.526 853.749,515.526 "/>
<path clip-path="url(#clip601)" d="M980.933 127.792 L980.933 1734.12 L1108.12 1734.12 L1108.12 127.792 L980.933 127.792 L980.933 127.792  Z" fill="#4682b4" fill-rule="evenodd" fill-opacity="1"/>
<polyline clip-path="url(#clip601)" style="stroke:#000000; stroke-linecap:round; stroke-linejoin:round; stroke-width:4; stroke-opacity:1; fill:none" points="980.933,127.792 980.933,1734.12 1108.12,1734.12 1108.12,127.792 980.933,127.792 "/>
<path clip-path="url(#clip601)" d="M1108.12 330.891 L1108.12 1734.12 L1235.3 1734.12 L1235.3 330.891 L1108.12 330.891 L1108.12 330.891  Z" fill="#4682b4" fill-rule="evenodd" fill-opacity="1"/>
<polyline clip-path="url(#clip601)" style="stroke:#000000; stroke-linecap:round; stroke-linejoin:round; stroke-width:4; stroke-opacity:1; fill:none" points="1108.12,330.891 1108.12,1734.12 1235.3,1734.12 1235.3,330.891 1108.12,330.891 "/>
<path clip-path="url(#clip601)" d="M1235.3 607.843 L1235.3 1734.12 L1362.48 1734.12 L1362.48 607.843 L1235.3 607.843 L1235.3 607.843  Z" fill="#4682b4" fill-rule="evenodd" fill-opacity="1"/>
<polyline clip-path="url(#clip601)" style="stroke:#000000; stroke-linecap:round; stroke-linejoin:round; stroke-width:4; stroke-opacity:1; fill:none" points="1235.3,607.843 1235.3,1734.12 1362.48,1734.12 1362.48,607.843 1235.3,607.843 "/>
<path clip-path="url(#clip601)" d="M1362.48 774.015 L1362.48 1734.12 L1489.67 1734.12 L1489.67 774.015 L1362.48 774.015 L1362.48 774.015  Z" fill="#4682b4" fill-rule="evenodd" fill-opacity="1"/>
<polyline clip-path="url(#clip601)" style="stroke:#000000; stroke-linecap:round; stroke-linejoin:round; stroke-width:4; stroke-opacity:1; fill:none" points="1362.48,774.015 1362.48,1734.12 1489.67,1734.12 1489.67,774.015 1362.48,774.015 "/>
<path clip-path="url(#clip601)" d="M1489.67 1217.14 L1489.67 1734.12 L1616.85 1734.12 L1616.85 1217.14 L1489.67 1217.14 L1489.67 1217.14  Z" fill="#4682b4" fill-rule="evenodd" fill-opacity="1"/>
<polyline clip-path="url(#clip601)" style="stroke:#000000; stroke-linecap:round; stroke-linejoin:round; stroke-width:4; stroke-opacity:1; fill:none" points="1489.67,1217.14 1489.67,1734.12 1616.85,1734.12 1616.85,1217.14 1489.67,1217.14 "/>
<path clip-path="url(#clip601)" d="M1616.85 1327.92 L1616.85 1734.12 L1744.03 1734.12 L1744.03 1327.92 L1616.85 1327.92 L1616.85 1327.92  Z" fill="#4682b4" fill-rule="evenodd" fill-opacity="1"/>
<polyline clip-path="url(#clip601)" style="stroke:#000000; stroke-linecap:round; stroke-linejoin:round; stroke-width:4; stroke-opacity:1; fill:none" points="1616.85,1327.92 1616.85,1734.12 1744.03,1734.12 1744.03,1327.92 1616.85,1327.92 "/>
<path clip-path="url(#clip601)" d="M1744.03 1364.85 L1744.03 1734.12 L1871.22 1734.12 L1871.22 1364.85 L1744.03 1364.85 L1744.03 1364.85  Z" fill="#4682b4" fill-rule="evenodd" fill-opacity="1"/>
<polyline clip-path="url(#clip601)" style="stroke:#000000; stroke-linecap:round; stroke-linejoin:round; stroke-width:4; stroke-opacity:1; fill:none" points="1744.03,1364.85 1744.03,1734.12 1871.22,1734.12 1871.22,1364.85 1744.03,1364.85 "/>
<path clip-path="url(#clip601)" d="M1871.22 1604.87 L1871.22 1734.12 L1998.4 1734.12 L1998.4 1604.87 L1871.22 1604.87 L1871.22 1604.87  Z" fill="#4682b4" fill-rule="evenodd" fill-opacity="1"/>
<polyline clip-path="url(#clip601)" style="stroke:#000000; stroke-linecap:round; stroke-linejoin:round; stroke-width:4; stroke-opacity:1; fill:none" points="1871.22,1604.87 1871.22,1734.12 1998.4,1734.12 1998.4,1604.87 1871.22,1604.87 "/>
<path clip-path="url(#clip601)" d="M1998.4 1697.19 L1998.4 1734.12 L2125.59 1734.12 L2125.59 1697.19 L1998.4 1697.19 L1998.4 1697.19  Z" fill="#4682b4" fill-rule="evenodd" fill-opacity="1"/>
<polyline clip-path="url(#clip601)" style="stroke:#000000; stroke-linecap:round; stroke-linejoin:round; stroke-width:4; stroke-opacity:1; fill:none" points="1998.4,1697.19 1998.4,1734.12 2125.59,1734.12 2125.59,1697.19 1998.4,1697.19 "/>
<path clip-path="url(#clip601)" d="M2125.59 1715.65 L2125.59 1734.12 L2252.77 1734.12 L2252.77 1715.65 L2125.59 1715.65 L2125.59 1715.65  Z" fill="#4682b4" fill-rule="evenodd" fill-opacity="1"/>
<polyline clip-path="url(#clip601)" style="stroke:#000000; stroke-linecap:round; stroke-linejoin:round; stroke-width:4; stroke-opacity:1; fill:none" points="2125.59,1715.65 2125.59,1734.12 2252.77,1734.12 2252.77,1715.65 2125.59,1715.65 "/>
<path clip-path="url(#clip601)" d="M2252.77 1715.65 L2252.77 1734.12 L2379.95 1734.12 L2379.95 1715.65 L2252.77 1715.65 L2252.77 1715.65  Z" fill="#4682b4" fill-rule="evenodd" fill-opacity="1"/>
<polyline clip-path="url(#clip601)" style="stroke:#000000; stroke-linecap:round; stroke-linejoin:round; stroke-width:4; stroke-opacity:1; fill:none" points="2252.77,1715.65 2252.77,1734.12 2379.95,1734.12 2379.95,1715.65 2252.77,1715.65 "/>
<path clip-path="url(#clip601)" d="M2379.95 1715.65 L2379.95 1734.12 L2507.14 1734.12 L2507.14 1715.65 L2379.95 1715.65 L2379.95 1715.65  Z" fill="#4682b4" fill-rule="evenodd" fill-opacity="1"/>
<polyline clip-path="url(#clip601)" style="stroke:#000000; stroke-linecap:round; stroke-linejoin:round; stroke-width:4; stroke-opacity:1; fill:none" points="2379.95,1715.65 2379.95,1734.12 2507.14,1734.12 2507.14,1715.65 2379.95,1715.65 "/>
<circle clip-path="url(#clip601)" style="fill:#4682b4; stroke:none; fill-opacity:0" cx="408.606" cy="1715.65" r="2"/>
<circle clip-path="url(#clip601)" style="fill:#4682b4; stroke:none; fill-opacity:0" cx="535.79" cy="1494.09" r="2"/>
<circle clip-path="url(#clip601)" style="fill:#4682b4; stroke:none; fill-opacity:0" cx="662.974" cy="1327.92" r="2"/>
<circle clip-path="url(#clip601)" style="fill:#4682b4; stroke:none; fill-opacity:0" cx="790.157" cy="995.577" r="2"/>
<circle clip-path="url(#clip601)" style="fill:#4682b4; stroke:none; fill-opacity:0" cx="917.341" cy="515.526" r="2"/>
<circle clip-path="url(#clip601)" style="fill:#4682b4; stroke:none; fill-opacity:0" cx="1044.52" cy="127.792" r="2"/>
<circle clip-path="url(#clip601)" style="fill:#4682b4; stroke:none; fill-opacity:0" cx="1171.71" cy="330.891" r="2"/>
<circle clip-path="url(#clip601)" style="fill:#4682b4; stroke:none; fill-opacity:0" cx="1298.89" cy="607.843" r="2"/>
<circle clip-path="url(#clip601)" style="fill:#4682b4; stroke:none; fill-opacity:0" cx="1426.08" cy="774.015" r="2"/>
<circle clip-path="url(#clip601)" style="fill:#4682b4; stroke:none; fill-opacity:0" cx="1553.26" cy="1217.14" r="2"/>
<circle clip-path="url(#clip601)" style="fill:#4682b4; stroke:none; fill-opacity:0" cx="1680.44" cy="1327.92" r="2"/>
<circle clip-path="url(#clip601)" style="fill:#4682b4; stroke:none; fill-opacity:0" cx="1807.63" cy="1364.85" r="2"/>
<circle clip-path="url(#clip601)" style="fill:#4682b4; stroke:none; fill-opacity:0" cx="1934.81" cy="1604.87" r="2"/>
<circle clip-path="url(#clip601)" style="fill:#4682b4; stroke:none; fill-opacity:0" cx="2061.99" cy="1697.19" r="2"/>
<circle clip-path="url(#clip601)" style="fill:#4682b4; stroke:none; fill-opacity:0" cx="2189.18" cy="1715.65" r="2"/>
<circle clip-path="url(#clip601)" style="fill:#4682b4; stroke:none; fill-opacity:0" cx="2316.36" cy="1715.65" r="2"/>
<circle clip-path="url(#clip601)" style="fill:#4682b4; stroke:none; fill-opacity:0" cx="2443.54" cy="1715.65" r="2"/>
</svg>
