<?xml version="1.0" encoding="utf-8"?>
<svg xmlns="http://www.w3.org/2000/svg" xmlns:xlink="http://www.w3.org/1999/xlink" width="672" height="480" viewBox="0 0 2688 1920">
<defs>
  <clipPath id="clip830">
    <rect x="0" y="0" width="2688" height="1920"/>
  </clipPath>
</defs>
<path clip-path="url(#clip830)" d="M0 1920 L2688 1920 L2688 -4.26326e-14 L0 -4.26326e-14  Z" fill="#ffffff" fill-rule="evenodd" fill-opacity="1"/>
<defs>
  <clipPath id="clip831">
    <rect x="255" y="127" width="2386" height="1607"/>
  </clipPath>
</defs>
<path clip-path="url(#clip830)" d="M255.978 1734.12 L2640.76 1734.12 L2640.76 127.792 L255.978 127.792  Z" fill="#ffffff" fill-rule="evenodd" fill-opacity="1"/>
<polyline clip-path="url(#clip831)" style="stroke:#000000; stroke-linecap:round; stroke-linejoin:round; stroke-width:2; stroke-opacity:0.1; fill:none" points="323.472,1734.12 323.472,127.792 "/>
<polyline clip-path="url(#clip831)" style="stroke:#000000; stroke-linecap:round; stroke-linejoin:round; stroke-width:2; stroke-opacity:0.1; fill:none" points="885.92,1734.12 885.92,127.792 "/>
<polyline clip-path="url(#clip831)" style="stroke:#000000; stroke-linecap:round; stroke-linejoin:round; stroke-width:2; stroke-opacity:0.1; fill:none" points="1448.37,1734.12 1448.37,127.792 "/>
<polyline clip-path="url(#clip831)" style="stroke:#000000; stroke-linecap:round; stroke-linejoin:round; stroke-width:2; stroke-opacity:0.1; fill:none" points="2010.81,1734.12 2010.81,127.792 "/>
<polyline clip-path="url(#clip831)" style="stroke:#000000; stroke-linecap:round; stroke-linejoin:round; stroke-width:2; stroke-opacity:0.1; fill:none" points="2573.26,1734.12 2573.26,127.792 "/>
<polyline clip-path="url(#clip831)" style="stroke:#000000; stroke-linecap:round; stroke-linejoin:round; stroke-width:2; stroke-opacity:0.1; fill:none" points="255.978,1471.59 2640.76,1471.59 "/>
<polyline clip-path="url(#clip831)" style="stroke:#000000; stroke-linecap:round; stroke-linejoin:round; stroke-width:2; stroke-opacity:0.1; fill:none" points="255.978,1165.86 2640.76,1165.86 "/>
<polyline clip-path="url(#clip831)" style="stroke:#000000; stroke-linecap:round; stroke-linejoin:round; stroke-width:2; stroke-opacity:0.1; fill:none" points="255.978,860.127 2640.76,860.127 "/>
<polyline clip-path="url(#clip831)" style="stroke:#000000; stroke-linecap:round; stroke-linejoin:round; stroke-width:2; stroke-opacity:0.1; fill:none" points="255.978,554.397 2640.76,554.397 "/>
<polyline clip-path="url(#clip831)" style="stroke:#000000; stroke-linecap:round; stroke-linejoin:round; stroke-width:2; stroke-opacity:0.1; fill:none" points="255.978,248.668 2640.76,248.668 "/>
<polyline clip-path="url(#clip830)" style="stroke:#000000; stroke-linecap:round; stroke-linejoin:round; stroke-width:4; stroke-opacity:1; fill:none" points="255.978,1734.12 2640.76,1734.12 "/>
<polyline clip-path="url(#clip830)" style="stroke:#000000; stroke-linecap:round; stroke-linejoin:round; stroke-width:4; stroke-opacity:1; fill:none" points="323.472,1734.12 323.472,1715.22 "/>
<polyline clip-path="url(#clip830)" style="stroke:#000000; stroke-linecap:round; stroke-linejoin:round; stroke-width:4; stroke-opacity:1; fill:none" points="885.92,1734.12 885.92,1715.22 "/>
<polyline clip-path="url(#clip830)" style="stroke:#000000; stroke-linecap:round; stroke-linejoin:round; stroke-width:4; stroke-opacity:1; fill:none" points="1448.37,1734.12 1448.37,1715.22 "/>
<polyline clip-path="url(#clip830)" style="stroke:#000000; stroke-linecap:round; stroke-linejoin:round; stroke-width:4; stroke-opacity:1; fill:none" points="2010.81,1734.12 2010.81,1715.22 "/>
<polyline clip-path="url(#clip830)" style="stroke:#000000; stroke-linecap:round; stroke-linejoin:round; stroke-width:4; stroke-opacity:1; fill:none" points="2573.26,1734.12 2573.26,1715.22 "/>
<path clip-path="url(#clip830)" d="M323.472 1767.34 Q319.861 1767.34 318.032 1770.9 Q316.227 1774.45 316.227 1781.58 Q316.227 1788.68 318.032 1792.25 Q319.861 1795.79 323.472 1795.79 Q327.106 1795.79 328.912 1792.25 Q330.741 1788.68 330.741 1781.58 Q330.741 1774.45 328.912 1770.9 Q327.106 1767.34 323.472 1767.34 M323.472 1763.64 Q329.282 1763.64 332.338 1768.24 Q335.416 1772.83 335.416 1781.58 Q335.416 1790.3 332.338 1794.91 Q329.282 1799.49 323.472 1799.49 Q317.662 1799.49 314.583 1794.91 Q311.528 1790.3 311.528 1781.58 Q311.528 1772.83 314.583 1768.24 Q317.662 1763.64 323.472 1763.64 Z" fill="#000000" fill-rule="nonzero" fill-opacity="1" /><path clip-path="url(#clip830)" d="M860.607 1794.89 L868.246 1794.89 L868.246 1768.52 L859.936 1770.19 L859.936 1765.93 L868.2 1764.26 L872.876 1764.26 L872.876 1794.89 L880.515 1794.89 L880.515 1798.82 L860.607 1798.82 L860.607 1794.89 Z" fill="#000000" fill-rule="nonzero" fill-opacity="1" /><path clip-path="url(#clip830)" d="M899.959 1767.34 Q896.348 1767.34 894.519 1770.9 Q892.714 1774.45 892.714 1781.58 Q892.714 1788.68 894.519 1792.25 Q896.348 1795.79 899.959 1795.79 Q903.593 1795.79 905.399 1792.25 Q907.227 1788.68 907.227 1781.58 Q907.227 1774.45 905.399 1770.9 Q903.593 1767.34 899.959 1767.34 M899.959 1763.64 Q905.769 1763.64 908.825 1768.24 Q911.903 1772.83 911.903 1781.58 Q911.903 1790.3 908.825 1794.91 Q905.769 1799.49 899.959 1799.49 Q894.149 1799.49 891.07 1794.91 Q888.014 1790.3 888.014 1781.58 Q888.014 1772.83 891.07 1768.24 Q894.149 1763.64 899.959 1763.64 Z" fill="#000000" fill-rule="nonzero" fill-opacity="1" /><path clip-path="url(#clip830)" d="M1427.14 1794.89 L1443.46 1794.89 L1443.46 1798.82 L1421.52 1798.82 L1421.52 1794.89 Q1424.18 1792.13 1428.76 1787.5 Q1433.37 1782.85 1434.55 1781.51 Q1436.79 1778.98 1437.67 1777.25 Q1438.58 1775.49 1438.58 1773.8 Q1438.58 1771.04 1436.63 1769.31 Q1434.71 1767.57 1431.61 1767.57 Q1429.41 1767.57 1426.96 1768.34 Q1424.52 1769.1 1421.75 1770.65 L1421.75 1765.93 Q1424.57 1764.79 1427.02 1764.21 Q1429.48 1763.64 1431.52 1763.64 Q1436.89 1763.64 1440.08 1766.32 Q1443.27 1769.01 1443.27 1773.5 Q1443.27 1775.63 1442.46 1777.55 Q1441.68 1779.45 1439.57 1782.04 Q1438.99 1782.71 1435.89 1785.93 Q1432.79 1789.12 1427.14 1794.89 Z" fill="#000000" fill-rule="nonzero" fill-opacity="1" /><path clip-path="url(#clip830)" d="M1463.27 1767.34 Q1459.66 1767.34 1457.83 1770.9 Q1456.03 1774.45 1456.03 1781.58 Q1456.03 1788.68 1457.83 1792.25 Q1459.66 1795.79 1463.27 1795.79 Q1466.91 1795.79 1468.71 1792.25 Q1470.54 1788.68 1470.54 1781.58 Q1470.54 1774.45 1468.71 1770.9 Q1466.91 1767.34 1463.27 1767.34 M1463.27 1763.64 Q1469.08 1763.64 1472.14 1768.24 Q1475.22 1772.83 1475.22 1781.58 Q1475.22 1790.3 1472.14 1794.91 Q1469.08 1799.49 1463.27 1799.49 Q1457.46 1799.49 1454.39 1794.91 Q1451.33 1790.3 1451.33 1781.58 Q1451.33 1772.83 1454.39 1768.24 Q1457.46 1763.64 1463.27 1763.64 Z" fill="#000000" fill-rule="nonzero" fill-opacity="1" /><path clip-path="url(#clip830)" d="M1999.66 1780.19 Q2003.01 1780.9 2004.89 1783.17 Q2006.79 1785.44 2006.79 1788.77 Q2006.79 1793.89 2003.27 1796.69 Q1999.75 1799.49 1993.27 1799.49 Q1991.09 1799.49 1988.78 1799.05 Q1986.49 1798.64 1984.03 1797.78 L1984.03 1793.27 Q1985.98 1794.4 1988.29 1794.98 Q1990.61 1795.56 1993.13 1795.56 Q1997.53 1795.56 1999.82 1793.82 Q2002.13 1792.08 2002.13 1788.77 Q2002.13 1785.72 1999.98 1784.01 Q1997.85 1782.27 1994.03 1782.27 L1990 1782.27 L1990 1778.43 L1994.22 1778.43 Q1997.67 1778.43 1999.5 1777.06 Q2001.32 1775.67 2001.32 1773.08 Q2001.32 1770.42 1999.43 1769.01 Q1997.55 1767.57 1994.03 1767.57 Q1992.11 1767.57 1989.91 1767.99 Q1987.71 1768.4 1985.07 1769.28 L1985.07 1765.12 Q1987.74 1764.38 1990.05 1764.01 Q1992.39 1763.64 1994.45 1763.64 Q1999.77 1763.64 2002.87 1766.07 Q2005.98 1768.47 2005.98 1772.59 Q2005.98 1775.46 2004.33 1777.46 Q2002.69 1779.42 1999.66 1780.19 Z" fill="#000000" fill-rule="nonzero" fill-opacity="1" /><path clip-path="url(#clip830)" d="M2025.65 1767.34 Q2022.04 1767.34 2020.21 1770.9 Q2018.41 1774.45 2018.41 1781.58 Q2018.41 1788.68 2020.21 1792.25 Q2022.04 1795.79 2025.65 1795.79 Q2029.29 1795.79 2031.09 1792.25 Q2032.92 1788.68 2032.92 1781.58 Q2032.92 1774.45 2031.09 1770.9 Q2029.29 1767.34 2025.65 1767.34 M2025.65 1763.64 Q2031.46 1763.64 2034.52 1768.24 Q2037.6 1772.83 2037.6 1781.58 Q2037.6 1790.3 2034.52 1794.91 Q2031.46 1799.49 2025.65 1799.49 Q2019.84 1799.49 2016.76 1794.91 Q2013.71 1790.3 2013.71 1781.58 Q2013.71 1772.83 2016.76 1768.24 Q2019.84 1763.64 2025.65 1763.64 Z" fill="#000000" fill-rule="nonzero" fill-opacity="1" /><path clip-path="url(#clip830)" d="M2561.43 1768.34 L2549.63 1786.78 L2561.43 1786.78 L2561.43 1768.34 M2560.21 1764.26 L2566.09 1764.26 L2566.09 1786.78 L2571.02 1786.78 L2571.02 1790.67 L2566.09 1790.67 L2566.09 1798.82 L2561.43 1798.82 L2561.43 1790.67 L2545.83 1790.67 L2545.83 1786.16 L2560.21 1764.26 Z" fill="#000000" fill-rule="nonzero" fill-opacity="1" /><path clip-path="url(#clip830)" d="M2588.75 1767.34 Q2585.14 1767.34 2583.31 1770.9 Q2581.5 1774.45 2581.5 1781.58 Q2581.5 1788.68 2583.31 1792.25 Q2585.14 1795.79 2588.75 1795.79 Q2592.38 1795.79 2594.19 1792.25 Q2596.02 1788.68 2596.02 1781.58 Q2596.02 1774.45 2594.19 1770.9 Q2592.38 1767.34 2588.75 1767.34 M2588.75 1763.64 Q2594.56 1763.64 2597.61 1768.24 Q2600.69 1772.83 2600.69 1781.58 Q2600.69 1790.3 2597.61 1794.91 Q2594.56 1799.49 2588.75 1799.49 Q2582.94 1799.49 2579.86 1794.91 Q2576.8 1790.3 2576.8 1781.58 Q2576.8 1772.83 2579.86 1768.24 Q2582.94 1763.64 2588.75 1763.64 Z" fill="#000000" fill-rule="nonzero" fill-opacity="1" /><path clip-path="url(#clip830)" d="M1394.61 1841.06 L1394.61 1878.02 L1402.37 1878.02 Q1412.21 1878.02 1416.76 1873.56 Q1421.34 1869.11 1421.34 1859.49 Q1421.34 1849.94 1416.76 1845.52 Q1412.21 1841.06 1402.37 1841.06 L1394.61 1841.06 M1388.18 1835.78 L1401.39 1835.78 Q1415.2 1835.78 1421.66 1841.54 Q1428.12 1847.27 1428.12 1859.49 Q1428.12 1871.78 1421.63 1877.54 Q1415.14 1883.3 1401.39 1883.3 L1388.18 1883.3 L1388.18 1835.78 Z" fill="#000000" fill-rule="nonzero" fill-opacity="1" /><path clip-path="url(#clip830)" d="M1454.32 1865.38 Q1447.22 1865.38 1444.48 1867 Q1441.75 1868.63 1441.75 1872.54 Q1441.75 1875.66 1443.78 1877.51 Q1445.85 1879.32 1449.39 1879.32 Q1454.26 1879.32 1457.18 1875.88 Q1460.14 1872.42 1460.14 1866.69 L1460.14 1865.38 L1454.32 1865.38 M1466 1862.96 L1466 1883.3 L1460.14 1883.3 L1460.14 1877.89 Q1458.14 1881.14 1455.15 1882.7 Q1452.15 1884.22 1447.83 1884.22 Q1442.35 1884.22 1439.11 1881.17 Q1435.89 1878.08 1435.89 1872.92 Q1435.89 1866.91 1439.9 1863.85 Q1443.94 1860.8 1451.93 1860.8 L1460.14 1860.8 L1460.14 1860.23 Q1460.14 1856.18 1457.47 1853.99 Q1454.83 1851.76 1450.02 1851.76 Q1446.97 1851.76 1444.07 1852.49 Q1441.17 1853.22 1438.5 1854.69 L1438.5 1849.28 Q1441.71 1848.03 1444.74 1847.43 Q1447.76 1846.79 1450.63 1846.79 Q1458.36 1846.79 1462.18 1850.8 Q1466 1854.81 1466 1862.96 Z" fill="#000000" fill-rule="nonzero" fill-opacity="1" /><path clip-path="url(#clip830)" d="M1492.9 1886.61 Q1490.41 1892.98 1488.06 1894.92 Q1485.7 1896.86 1481.76 1896.86 L1477.08 1896.86 L1477.08 1891.96 L1480.51 1891.96 Q1482.93 1891.96 1484.27 1890.81 Q1485.61 1889.67 1487.23 1885.4 L1488.28 1882.73 L1473.86 1847.65 L1480.07 1847.65 L1491.21 1875.53 L1502.35 1847.65 L1508.55 1847.65 L1492.9 1886.61 Z" fill="#000000" fill-rule="nonzero" fill-opacity="1" /><polyline clip-path="url(#clip830)" style="stroke:#000000; stroke-linecap:round; stroke-linejoin:round; stroke-width:4; stroke-opacity:1; fill:none" points="255.978,1734.12 255.978,127.792 "/>
<polyline clip-path="url(#clip830)" style="stroke:#000000; stroke-linecap:round; stroke-linejoin:round; stroke-width:4; stroke-opacity:1; fill:none" points="255.978,1471.59 274.876,1471.59 "/>
<polyline clip-path="url(#clip830)" style="stroke:#000000; stroke-linecap:round; stroke-linejoin:round; stroke-width:4; stroke-opacity:1; fill:none" points="255.978,1165.86 274.876,1165.86 "/>
<polyline clip-path="url(#clip830)" style="stroke:#000000; stroke-linecap:round; stroke-linejoin:round; stroke-width:4; stroke-opacity:1; fill:none" points="255.978,860.127 274.876,860.127 "/>
<polyline clip-path="url(#clip830)" style="stroke:#000000; stroke-linecap:round; stroke-linejoin:round; stroke-width:4; stroke-opacity:1; fill:none" points="255.978,554.397 274.876,554.397 "/>
<polyline clip-path="url(#clip830)" style="stroke:#000000; stroke-linecap:round; stroke-linejoin:round; stroke-width:4; stroke-opacity:1; fill:none" points="255.978,248.668 274.876,248.668 "/>
<path clip-path="url(#clip830)" d="M128.969 1457.39 Q125.358 1457.39 123.529 1460.95 Q121.724 1464.49 121.724 1471.62 Q121.724 1478.73 123.529 1482.29 Q125.358 1485.83 128.969 1485.83 Q132.603 1485.83 134.409 1482.29 Q136.237 1478.73 136.237 1471.62 Q136.237 1464.49 134.409 1460.95 Q132.603 1457.39 128.969 1457.39 M128.969 1453.68 Q134.779 1453.68 137.835 1458.29 Q140.913 1462.87 140.913 1471.62 Q140.913 1480.35 137.835 1484.95 Q134.779 1489.54 128.969 1489.54 Q123.159 1489.54 120.08 1484.95 Q117.025 1480.35 117.025 1471.62 Q117.025 1462.87 120.08 1458.29 Q123.159 1453.68 128.969 1453.68 Z" fill="#000000" fill-rule="nonzero" fill-opacity="1" /><path clip-path="url(#clip830)" d="M149.131 1482.99 L154.015 1482.99 L154.015 1488.87 L149.131 1488.87 L149.131 1482.99 Z" fill="#000000" fill-rule="nonzero" fill-opacity="1" /><path clip-path="url(#clip830)" d="M174.2 1457.39 Q170.589 1457.39 168.76 1460.95 Q166.955 1464.49 166.955 1471.62 Q166.955 1478.73 168.76 1482.29 Q170.589 1485.83 174.2 1485.83 Q177.834 1485.83 179.64 1482.29 Q181.469 1478.73 181.469 1471.62 Q181.469 1464.49 179.64 1460.95 Q177.834 1457.39 174.2 1457.39 M174.2 1453.68 Q180.01 1453.68 183.066 1458.29 Q186.145 1462.87 186.145 1471.62 Q186.145 1480.35 183.066 1484.95 Q180.01 1489.54 174.2 1489.54 Q168.39 1489.54 165.311 1484.95 Q162.256 1480.35 162.256 1471.62 Q162.256 1462.87 165.311 1458.29 Q168.39 1453.68 174.2 1453.68 Z" fill="#000000" fill-rule="nonzero" fill-opacity="1" /><path clip-path="url(#clip830)" d="M208.529 1470.23 Q211.885 1470.95 213.76 1473.22 Q215.658 1475.49 215.658 1478.82 Q215.658 1483.94 212.14 1486.74 Q208.621 1489.54 202.14 1489.54 Q199.964 1489.54 197.649 1489.1 Q195.358 1488.68 192.904 1487.83 L192.904 1483.31 Q194.848 1484.45 197.163 1485.02 Q199.478 1485.6 202.001 1485.6 Q206.399 1485.6 208.691 1483.87 Q211.006 1482.13 211.006 1478.82 Q211.006 1475.77 208.853 1474.05 Q206.723 1472.32 202.904 1472.32 L198.876 1472.32 L198.876 1468.47 L203.089 1468.47 Q206.538 1468.47 208.367 1467.11 Q210.195 1465.72 210.195 1463.13 Q210.195 1460.46 208.297 1459.05 Q206.422 1457.62 202.904 1457.62 Q200.983 1457.62 198.783 1458.03 Q196.584 1458.45 193.946 1459.33 L193.946 1455.16 Q196.608 1454.42 198.922 1454.05 Q201.26 1453.68 203.32 1453.68 Q208.645 1453.68 211.746 1456.11 Q214.848 1458.52 214.848 1462.64 Q214.848 1465.51 213.205 1467.5 Q211.561 1469.47 208.529 1470.23 Z" fill="#000000" fill-rule="nonzero" fill-opacity="1" /><path clip-path="url(#clip830)" d="M128.159 1151.66 Q124.548 1151.66 122.719 1155.22 Q120.913 1158.76 120.913 1165.89 Q120.913 1173 122.719 1176.56 Q124.548 1180.1 128.159 1180.1 Q131.793 1180.1 133.599 1176.56 Q135.427 1173 135.427 1165.89 Q135.427 1158.76 133.599 1155.22 Q131.793 1151.66 128.159 1151.66 M128.159 1147.95 Q133.969 1147.95 137.025 1152.56 Q140.103 1157.14 140.103 1165.89 Q140.103 1174.62 137.025 1179.22 Q133.969 1183.81 128.159 1183.81 Q122.349 1183.81 119.27 1179.22 Q116.214 1174.62 116.214 1165.89 Q116.214 1157.14 119.27 1152.56 Q122.349 1147.95 128.159 1147.95 Z" fill="#000000" fill-rule="nonzero" fill-opacity="1" /><path clip-path="url(#clip830)" d="M148.321 1177.26 L153.205 1177.26 L153.205 1183.14 L148.321 1183.14 L148.321 1177.26 Z" fill="#000000" fill-rule="nonzero" fill-opacity="1" /><path clip-path="url(#clip830)" d="M173.39 1151.66 Q169.779 1151.66 167.95 1155.22 Q166.145 1158.76 166.145 1165.89 Q166.145 1173 167.95 1176.56 Q169.779 1180.1 173.39 1180.1 Q177.024 1180.1 178.83 1176.56 Q180.659 1173 180.659 1165.89 Q180.659 1158.76 178.83 1155.22 Q177.024 1151.66 173.39 1151.66 M173.39 1147.95 Q179.2 1147.95 182.256 1152.56 Q185.334 1157.14 185.334 1165.89 Q185.334 1174.62 182.256 1179.22 Q179.2 1183.81 173.39 1183.81 Q167.58 1183.81 164.501 1179.22 Q161.446 1174.62 161.446 1165.89 Q161.446 1157.14 164.501 1152.56 Q167.58 1147.95 173.39 1147.95 Z" fill="#000000" fill-rule="nonzero" fill-opacity="1" /><path clip-path="url(#clip830)" d="M204.131 1163.99 Q200.983 1163.99 199.131 1166.15 Q197.302 1168.3 197.302 1172.05 Q197.302 1175.78 199.131 1177.95 Q200.983 1180.1 204.131 1180.1 Q207.279 1180.1 209.107 1177.95 Q210.959 1175.78 210.959 1172.05 Q210.959 1168.3 209.107 1166.15 Q207.279 1163.99 204.131 1163.99 M213.413 1149.34 L213.413 1153.6 Q211.654 1152.77 209.848 1152.33 Q208.066 1151.89 206.307 1151.89 Q201.677 1151.89 199.223 1155.01 Q196.793 1158.14 196.445 1164.46 Q197.811 1162.44 199.871 1161.38 Q201.932 1160.29 204.408 1160.29 Q209.617 1160.29 212.626 1163.46 Q215.658 1166.61 215.658 1172.05 Q215.658 1177.37 212.51 1180.59 Q209.362 1183.81 204.131 1183.81 Q198.135 1183.81 194.964 1179.22 Q191.793 1174.62 191.793 1165.89 Q191.793 1157.7 195.682 1152.84 Q199.57 1147.95 206.121 1147.95 Q207.881 1147.95 209.663 1148.3 Q211.469 1148.65 213.413 1149.34 Z" fill="#000000" fill-rule="nonzero" fill-opacity="1" /><path clip-path="url(#clip830)" d="M128.506 845.926 Q124.895 845.926 123.066 849.491 Q121.261 853.032 121.261 860.162 Q121.261 867.268 123.066 870.833 Q124.895 874.375 128.506 874.375 Q132.14 874.375 133.946 870.833 Q135.775 867.268 135.775 860.162 Q135.775 853.032 133.946 849.491 Q132.14 845.926 128.506 845.926 M128.506 842.222 Q134.316 842.222 137.372 846.829 Q140.45 851.412 140.45 860.162 Q140.45 868.889 137.372 873.495 Q134.316 878.078 128.506 878.078 Q122.696 878.078 119.617 873.495 Q116.562 868.889 116.562 860.162 Q116.562 851.412 119.617 846.829 Q122.696 842.222 128.506 842.222 Z" fill="#000000" fill-rule="nonzero" fill-opacity="1" /><path clip-path="url(#clip830)" d="M148.668 871.528 L153.552 871.528 L153.552 877.407 L148.668 877.407 L148.668 871.528 Z" fill="#000000" fill-rule="nonzero" fill-opacity="1" /><path clip-path="url(#clip830)" d="M173.737 845.926 Q170.126 845.926 168.297 849.491 Q166.492 853.032 166.492 860.162 Q166.492 867.268 168.297 870.833 Q170.126 874.375 173.737 874.375 Q177.372 874.375 179.177 870.833 Q181.006 867.268 181.006 860.162 Q181.006 853.032 179.177 849.491 Q177.372 845.926 173.737 845.926 M173.737 842.222 Q179.547 842.222 182.603 846.829 Q185.682 851.412 185.682 860.162 Q185.682 868.889 182.603 873.495 Q179.547 878.078 173.737 878.078 Q167.927 878.078 164.848 873.495 Q161.793 868.889 161.793 860.162 Q161.793 851.412 164.848 846.829 Q167.927 842.222 173.737 842.222 Z" fill="#000000" fill-rule="nonzero" fill-opacity="1" /><path clip-path="url(#clip830)" d="M194.038 876.69 L194.038 872.43 Q195.797 873.264 197.603 873.703 Q199.408 874.143 201.145 874.143 Q205.774 874.143 208.205 871.041 Q210.658 867.916 211.006 861.574 Q209.663 863.565 207.603 864.629 Q205.543 865.694 203.043 865.694 Q197.858 865.694 194.825 862.569 Q191.816 859.421 191.816 853.981 Q191.816 848.657 194.964 845.44 Q198.112 842.222 203.344 842.222 Q209.339 842.222 212.487 846.829 Q215.658 851.412 215.658 860.162 Q215.658 868.333 211.769 873.217 Q207.904 878.078 201.353 878.078 Q199.594 878.078 197.788 877.731 Q195.983 877.384 194.038 876.69 M203.344 862.037 Q206.492 862.037 208.32 859.884 Q210.172 857.731 210.172 853.981 Q210.172 850.255 208.32 848.102 Q206.492 845.926 203.344 845.926 Q200.195 845.926 198.344 848.102 Q196.515 850.255 196.515 853.981 Q196.515 857.731 198.344 859.884 Q200.195 862.037 203.344 862.037 Z" fill="#000000" fill-rule="nonzero" fill-opacity="1" /><path clip-path="url(#clip830)" d="M129.918 540.196 Q126.307 540.196 124.478 543.761 Q122.673 547.302 122.673 554.432 Q122.673 561.538 124.478 565.103 Q126.307 568.645 129.918 568.645 Q133.552 568.645 135.358 565.103 Q137.187 561.538 137.187 554.432 Q137.187 547.302 135.358 543.761 Q133.552 540.196 129.918 540.196 M129.918 536.492 Q135.728 536.492 138.784 541.099 Q141.862 545.682 141.862 554.432 Q141.862 563.159 138.784 567.765 Q135.728 572.349 129.918 572.349 Q124.108 572.349 121.029 567.765 Q117.974 563.159 117.974 554.432 Q117.974 545.682 121.029 541.099 Q124.108 536.492 129.918 536.492 Z" fill="#000000" fill-rule="nonzero" fill-opacity="1" /><path clip-path="url(#clip830)" d="M150.08 565.798 L154.964 565.798 L154.964 571.677 L150.08 571.677 L150.08 565.798 Z" fill="#000000" fill-rule="nonzero" fill-opacity="1" /><path clip-path="url(#clip830)" d="M165.96 567.742 L173.598 567.742 L173.598 541.377 L165.288 543.043 L165.288 538.784 L173.552 537.117 L178.228 537.117 L178.228 567.742 L185.867 567.742 L185.867 571.677 L165.96 571.677 L165.96 567.742 Z" fill="#000000" fill-rule="nonzero" fill-opacity="1" /><path clip-path="url(#clip830)" d="M199.339 567.742 L215.658 567.742 L215.658 571.677 L193.714 571.677 L193.714 567.742 Q196.376 564.988 200.959 560.358 Q205.566 555.705 206.746 554.363 Q208.992 551.839 209.871 550.103 Q210.774 548.344 210.774 546.654 Q210.774 543.9 208.83 542.164 Q206.908 540.427 203.807 540.427 Q201.608 540.427 199.154 541.191 Q196.723 541.955 193.946 543.506 L193.946 538.784 Q196.77 537.65 199.223 537.071 Q201.677 536.492 203.714 536.492 Q209.084 536.492 212.279 539.178 Q215.473 541.863 215.473 546.353 Q215.473 548.483 214.663 550.404 Q213.876 552.302 211.769 554.895 Q211.191 555.566 208.089 558.784 Q204.987 561.978 199.339 567.742 Z" fill="#000000" fill-rule="nonzero" fill-opacity="1" /><path clip-path="url(#clip830)" d="M129.316 234.466 Q125.705 234.466 123.876 238.031 Q122.071 241.573 122.071 248.702 Q122.071 255.809 123.876 259.373 Q125.705 262.915 129.316 262.915 Q132.95 262.915 134.756 259.373 Q136.585 255.809 136.585 248.702 Q136.585 241.573 134.756 238.031 Q132.95 234.466 129.316 234.466 M129.316 230.763 Q135.126 230.763 138.182 235.369 Q141.261 239.952 141.261 248.702 Q141.261 257.429 138.182 262.035 Q135.126 266.619 129.316 266.619 Q123.506 266.619 120.427 262.035 Q117.372 257.429 117.372 248.702 Q117.372 239.952 120.427 235.369 Q123.506 230.763 129.316 230.763 Z" fill="#000000" fill-rule="nonzero" fill-opacity="1" /><path clip-path="url(#clip830)" d="M149.478 260.068 L154.362 260.068 L154.362 265.948 L149.478 265.948 L149.478 260.068 Z" fill="#000000" fill-rule="nonzero" fill-opacity="1" /><path clip-path="url(#clip830)" d="M165.358 262.012 L172.997 262.012 L172.997 235.647 L164.686 237.313 L164.686 233.054 L172.95 231.388 L177.626 231.388 L177.626 262.012 L185.265 262.012 L185.265 265.948 L165.358 265.948 L165.358 262.012 Z" fill="#000000" fill-rule="nonzero" fill-opacity="1" /><path clip-path="url(#clip830)" d="M194.756 231.388 L213.112 231.388 L213.112 235.323 L199.038 235.323 L199.038 243.795 Q200.057 243.448 201.075 243.286 Q202.094 243.1 203.112 243.1 Q208.899 243.1 212.279 246.272 Q215.658 249.443 215.658 254.86 Q215.658 260.438 212.186 263.54 Q208.714 266.619 202.395 266.619 Q200.219 266.619 197.95 266.248 Q195.705 265.878 193.297 265.137 L193.297 260.438 Q195.381 261.573 197.603 262.128 Q199.825 262.684 202.302 262.684 Q206.307 262.684 208.645 260.577 Q210.982 258.471 210.982 254.86 Q210.982 251.249 208.645 249.142 Q206.307 247.036 202.302 247.036 Q200.427 247.036 198.552 247.452 Q196.7 247.869 194.756 248.749 L194.756 231.388 Z" fill="#000000" fill-rule="nonzero" fill-opacity="1" /><path clip-path="url(#clip830)" d="M19.402 1098.4 L37.2578 1098.4 L37.2578 1090.32 Q37.2578 1085.83 34.9343 1083.38 Q32.6108 1080.93 28.314 1080.93 Q24.0489 1080.93 21.7255 1083.38 Q19.402 1085.83 19.402 1090.32 L19.402 1098.4 M14.1184 1104.83 L14.1184 1090.32 Q14.1184 1082.33 17.7469 1078.26 Q21.3435 1074.15 28.314 1074.15 Q35.3481 1074.15 38.9447 1078.26 Q42.5413 1082.33 42.5413 1090.32 L42.5413 1098.4 L61.6384 1098.4 L61.6384 1104.83 L14.1184 1104.83 Z" fill="#000000" fill-rule="nonzero" fill-opacity="1" /><path clip-path="url(#clip830)" d="M31.465 1046.27 Q30.8921 1047.26 30.6375 1048.43 Q30.351 1049.58 30.351 1050.98 Q30.351 1055.95 33.5975 1058.62 Q36.8122 1061.26 42.8596 1061.26 L61.6384 1061.26 L61.6384 1067.15 L25.9905 1067.15 L25.9905 1061.26 L31.5287 1061.26 Q28.2821 1059.41 26.7225 1056.45 Q25.1311 1053.49 25.1311 1049.26 Q25.1311 1048.66 25.2266 1047.92 Q25.2903 1047.19 25.4494 1046.3 L31.465 1046.27 Z" fill="#000000" fill-rule="nonzero" fill-opacity="1" /><path clip-path="url(#clip830)" d="M42.3504 1011.07 L45.2149 1011.07 L45.2149 1037.99 Q51.2623 1037.61 54.4452 1034.37 Q57.5962 1031.09 57.5962 1025.26 Q57.5962 1021.89 56.7687 1018.74 Q55.9411 1015.55 54.2861 1012.44 L59.8242 1012.44 Q61.161 1015.59 61.8612 1018.9 Q62.5615 1022.21 62.5615 1025.61 Q62.5615 1034.14 57.5962 1039.14 Q52.631 1044.1 44.1646 1044.1 Q35.4117 1044.1 30.2873 1039.39 Q25.1311 1034.65 25.1311 1026.63 Q25.1311 1019.44 29.7781 1015.27 Q34.3932 1011.07 42.3504 1011.07 M40.6316 1016.92 Q35.8255 1016.99 32.9609 1019.63 Q30.0964 1022.24 30.0964 1026.57 Q30.0964 1031.47 32.8654 1034.43 Q35.6345 1037.36 40.6634 1037.8 L40.6316 1016.92 Z" fill="#000000" fill-rule="nonzero" fill-opacity="1" /><path clip-path="url(#clip830)" d="M25.9905 1005.66 L25.9905 999.45 L55.9093 988.31 L25.9905 977.17 L25.9905 970.963 L61.6384 984.331 L61.6384 992.288 L25.9905 1005.66 Z" fill="#000000" fill-rule="nonzero" fill-opacity="1" /><path clip-path="url(#clip830)" d="M43.719 946.678 Q43.719 953.776 45.3422 956.513 Q46.9655 959.25 50.8804 959.25 Q53.9996 959.25 55.8457 957.213 Q57.6599 955.144 57.6599 951.611 Q57.6599 946.742 54.2224 943.813 Q50.7531 940.853 45.0239 940.853 L43.719 940.853 L43.719 946.678 M41.3 934.997 L61.6384 934.997 L61.6384 940.853 L56.2276 940.853 Q59.4741 942.858 61.0337 945.85 Q62.5615 948.842 62.5615 953.171 Q62.5615 958.645 59.5059 961.892 Q56.4186 965.107 51.2623 965.107 Q45.2467 965.107 42.1912 961.096 Q39.1357 957.054 39.1357 949.065 L39.1357 940.853 L38.5628 940.853 Q34.5205 940.853 32.3244 943.527 Q30.0964 946.169 30.0964 950.975 Q30.0964 954.03 30.8284 956.927 Q31.5605 959.823 33.0246 962.497 L27.6137 962.497 Q26.3724 959.282 25.7677 956.258 Q25.1311 953.235 25.1311 950.37 Q25.1311 942.636 29.1415 938.816 Q33.1519 934.997 41.3 934.997 Z" fill="#000000" fill-rule="nonzero" fill-opacity="1" /><path clip-path="url(#clip830)" d="M12.1132 922.934 L12.1132 917.077 L61.6384 917.077 L61.6384 922.934 L12.1132 922.934 Z" fill="#000000" fill-rule="nonzero" fill-opacity="1" /><path clip-path="url(#clip830)" d="M42.3504 874.332 L45.2149 874.332 L45.2149 901.259 Q51.2623 900.877 54.4452 897.63 Q57.5962 894.352 57.5962 888.527 Q57.5962 885.153 56.7687 882.002 Q55.9411 878.819 54.2861 875.7 L59.8242 875.7 Q61.161 878.851 61.8612 882.161 Q62.5615 885.472 62.5615 888.877 Q62.5615 897.407 57.5962 902.404 Q52.631 907.37 44.1646 907.37 Q35.4117 907.37 30.2873 902.659 Q25.1311 897.917 25.1311 889.896 Q25.1311 882.702 29.7781 878.533 Q34.3932 874.332 42.3504 874.332 M40.6316 880.188 Q35.8255 880.252 32.9609 882.893 Q30.0964 885.503 30.0964 889.832 Q30.0964 894.734 32.8654 897.694 Q35.6345 900.622 40.6634 901.068 L40.6316 880.188 Z" fill="#000000" fill-rule="nonzero" fill-opacity="1" /><path clip-path="url(#clip830)" d="M40.1224 835.087 L61.6384 835.087 L61.6384 840.943 L40.3133 840.943 Q35.2526 840.943 32.7381 842.917 Q30.2237 844.89 30.2237 848.837 Q30.2237 853.579 33.2474 856.317 Q36.2711 859.054 41.491 859.054 L61.6384 859.054 L61.6384 864.942 L25.9905 864.942 L25.9905 859.054 L31.5287 859.054 Q28.314 856.953 26.7225 854.12 Q25.1311 851.256 25.1311 847.532 Q25.1311 841.389 28.9505 838.238 Q32.7381 835.087 40.1224 835.087 Z" fill="#000000" fill-rule="nonzero" fill-opacity="1" /><path clip-path="url(#clip830)" d="M27.3591 797.752 L32.8336 797.752 Q31.465 800.235 30.7966 802.749 Q30.0964 805.232 30.0964 807.778 Q30.0964 813.475 33.7248 816.626 Q37.3214 819.777 43.8463 819.777 Q50.3711 819.777 53.9996 816.626 Q57.5962 813.475 57.5962 807.778 Q57.5962 805.232 56.9278 802.749 Q56.2276 800.235 54.859 797.752 L60.2698 797.752 Q61.4156 800.203 61.9886 802.845 Q62.5615 805.455 62.5615 808.415 Q62.5615 816.467 57.5007 821.21 Q52.44 825.952 43.8463 825.952 Q35.1253 825.952 30.1282 821.178 Q25.1311 816.372 25.1311 808.033 Q25.1311 805.327 25.704 802.749 Q26.2451 800.171 27.3591 797.752 Z" fill="#000000" fill-rule="nonzero" fill-opacity="1" /><path clip-path="url(#clip830)" d="M42.3504 757.075 L45.2149 757.075 L45.2149 784.002 Q51.2623 783.62 54.4452 780.374 Q57.5962 777.095 57.5962 771.271 Q57.5962 767.897 56.7687 764.746 Q55.9411 761.563 54.2861 758.444 L59.8242 758.444 Q61.161 761.595 61.8612 764.905 Q62.5615 768.215 62.5615 771.621 Q62.5615 780.151 57.5962 785.148 Q52.631 790.113 44.1646 790.113 Q35.4117 790.113 30.2873 785.403 Q25.1311 780.66 25.1311 772.639 Q25.1311 765.446 29.7781 761.277 Q34.3932 757.075 42.3504 757.075 M40.6316 762.932 Q35.8255 762.995 32.9609 765.637 Q30.0964 768.247 30.0964 772.576 Q30.0964 777.477 32.8654 780.437 Q35.6345 783.366 40.6634 783.811 L40.6316 762.932 Z" fill="#000000" fill-rule="nonzero" fill-opacity="1" /><path clip-path="url(#clip830)" d="M735.165 14.0809 L735.165 22.0612 Q730.506 19.8332 726.374 18.7395 Q722.243 17.6457 718.394 17.6457 Q711.71 17.6457 708.064 20.2383 Q704.459 22.8309 704.459 27.611 Q704.459 31.6214 706.849 33.6873 Q709.28 35.7128 716.004 36.9686 L720.946 37.9813 Q730.101 39.7232 734.436 44.1387 Q738.811 48.5136 738.811 55.8863 Q738.811 64.6767 732.896 69.2137 Q727.023 73.7508 715.64 73.7508 Q711.346 73.7508 706.485 72.7785 Q701.664 71.8063 696.479 69.9024 L696.479 61.4765 Q701.461 64.2716 706.241 65.6895 Q711.022 67.1073 715.64 67.1073 Q722.648 67.1073 726.455 64.3527 Q730.263 61.598 730.263 56.4939 Q730.263 52.0379 727.509 49.5264 Q724.795 47.0148 718.556 45.759 L713.574 44.7868 Q704.419 42.9639 700.327 39.075 Q696.236 35.1862 696.236 28.2591 Q696.236 20.2383 701.867 15.6203 Q707.538 11.0023 717.462 11.0023 Q721.716 11.0023 726.131 11.7719 Q730.547 12.5416 735.165 14.0809 Z" fill="#000000" fill-rule="nonzero" fill-opacity="1" /><path clip-path="url(#clip830)" d="M751.571 12.096 L759.754 12.096 L759.754 72.576 L751.571 72.576 L751.571 12.096 Z" fill="#000000" fill-rule="nonzero" fill-opacity="1" /><path clip-path="url(#clip830)" d="M804.719 44.2197 Q807.352 45.1109 809.823 48.0275 Q812.335 50.9442 814.846 56.0483 L823.151 72.576 L814.36 72.576 L806.623 57.061 Q803.625 50.9847 800.79 48.9997 Q797.994 47.0148 793.133 47.0148 L784.221 47.0148 L784.221 72.576 L776.039 72.576 L776.039 12.096 L794.511 12.096 Q804.881 12.096 809.985 16.4305 Q815.089 20.7649 815.089 29.5149 Q815.089 35.2267 812.416 38.994 Q809.783 42.7613 804.719 44.2197 M784.221 18.8205 L784.221 40.2903 L794.511 40.2903 Q800.425 40.2903 803.423 37.5762 Q806.461 34.8216 806.461 29.5149 Q806.461 24.2082 803.423 21.5346 Q800.425 18.8205 794.511 18.8205 L784.221 18.8205 Z" fill="#000000" fill-rule="nonzero" fill-opacity="1" /><path clip-path="url(#clip830)" d="M868.237 18.8205 L868.237 41.5461 L878.526 41.5461 Q884.238 41.5461 887.357 38.5889 Q890.477 35.6318 890.477 30.163 Q890.477 24.7348 887.357 21.7777 Q884.238 18.8205 878.526 18.8205 L868.237 18.8205 M860.054 12.096 L878.526 12.096 Q888.694 12.096 893.879 16.714 Q899.105 21.2916 899.105 30.163 Q899.105 39.1155 893.879 43.6931 Q888.694 48.2706 878.526 48.2706 L868.237 48.2706 L868.237 72.576 L860.054 72.576 L860.054 12.096 Z" fill="#000000" fill-rule="nonzero" fill-opacity="1" /><path clip-path="url(#clip830)" d="M934.591 34.1734 Q933.335 33.4443 931.836 33.1202 Q930.378 32.7556 928.596 32.7556 Q922.276 32.7556 918.873 36.8875 Q915.511 40.9789 915.511 48.6757 L915.511 72.576 L908.017 72.576 L908.017 27.2059 L915.511 27.2059 L915.511 34.2544 Q917.861 30.1225 921.628 28.1376 Q925.395 26.1121 930.783 26.1121 Q931.553 26.1121 932.484 26.2337 Q933.416 26.3147 934.55 26.5172 L934.591 34.1734 Z" fill="#000000" fill-rule="nonzero" fill-opacity="1" /><path clip-path="url(#clip830)" d="M979.394 48.0275 L979.394 51.6733 L945.123 51.6733 Q945.609 59.3701 949.741 63.421 Q953.914 67.4314 961.327 67.4314 Q965.621 67.4314 969.631 66.3781 Q973.682 65.3249 977.652 63.2184 L977.652 70.267 Q973.642 71.9684 969.429 72.8596 Q965.216 73.7508 960.881 73.7508 Q950.025 73.7508 943.665 67.4314 Q937.346 61.1119 937.346 50.3365 Q937.346 39.1965 943.341 32.6746 Q949.377 26.1121 959.585 26.1121 Q968.74 26.1121 974.047 32.0264 Q979.394 37.9003 979.394 48.0275 M971.94 45.84 Q971.859 39.7232 968.497 36.0774 Q965.175 32.4315 959.666 32.4315 Q953.428 32.4315 949.66 35.9558 Q945.933 39.4801 945.366 45.8805 L971.94 45.84 Z" fill="#000000" fill-rule="nonzero" fill-opacity="1" /><path clip-path="url(#clip830)" d="M986.28 27.2059 L994.18 27.2059 L1008.36 65.2844 L1022.54 27.2059 L1030.44 27.2059 L1013.42 72.576 L1003.29 72.576 L986.28 27.2059 Z" fill="#000000" fill-rule="nonzero" fill-opacity="1" /><path clip-path="url(#clip830)" d="M1061.34 49.7694 Q1052.31 49.7694 1048.83 51.8354 Q1045.34 53.9013 1045.34 58.8839 Q1045.34 62.8538 1047.94 65.2034 Q1050.57 67.5124 1055.06 67.5124 Q1061.26 67.5124 1064.99 63.1374 Q1068.76 58.7219 1068.76 51.4303 L1068.76 49.7694 L1061.34 49.7694 M1076.21 46.6907 L1076.21 72.576 L1068.76 72.576 L1068.76 65.6895 Q1066.2 69.8214 1062.4 71.8063 Q1058.59 73.7508 1053.08 73.7508 Q1046.11 73.7508 1041.98 69.8619 Q1037.89 65.9325 1037.89 59.3701 Q1037.89 51.7138 1042.99 47.825 Q1048.14 43.9361 1058.31 43.9361 L1068.76 43.9361 L1068.76 43.2069 Q1068.76 38.0623 1065.35 35.2672 Q1061.99 32.4315 1055.88 32.4315 Q1051.99 32.4315 1048.3 33.3632 Q1044.61 34.295 1041.21 36.1584 L1041.21 29.2718 Q1045.3 27.692 1049.15 26.9223 Q1053 26.1121 1056.64 26.1121 Q1066.49 26.1121 1071.35 31.2163 Q1076.21 36.3204 1076.21 46.6907 Z" fill="#000000" fill-rule="nonzero" fill-opacity="1" /><path clip-path="url(#clip830)" d="M1091.56 9.54393 L1099.02 9.54393 L1099.02 72.576 L1091.56 72.576 L1091.56 9.54393 Z" fill="#000000" fill-rule="nonzero" fill-opacity="1" /><path clip-path="url(#clip830)" d="M1153.42 48.0275 L1153.42 51.6733 L1119.15 51.6733 Q1119.64 59.3701 1123.77 63.421 Q1127.94 67.4314 1135.35 67.4314 Q1139.65 67.4314 1143.66 66.3781 Q1147.71 65.3249 1151.68 63.2184 L1151.68 70.267 Q1147.67 71.9684 1143.46 72.8596 Q1139.24 73.7508 1134.91 73.7508 Q1124.05 73.7508 1117.69 67.4314 Q1111.37 61.1119 1111.37 50.3365 Q1111.37 39.1965 1117.37 32.6746 Q1123.4 26.1121 1133.61 26.1121 Q1142.77 26.1121 1148.07 32.0264 Q1153.42 37.9003 1153.42 48.0275 M1145.97 45.84 Q1145.89 39.7232 1142.52 36.0774 Q1139.2 32.4315 1133.69 32.4315 Q1127.45 32.4315 1123.69 35.9558 Q1119.96 39.4801 1119.39 45.8805 L1145.97 45.84 Z" fill="#000000" fill-rule="nonzero" fill-opacity="1" /><path clip-path="url(#clip830)" d="M1203.37 45.1919 L1203.37 72.576 L1195.91 72.576 L1195.91 45.4349 Q1195.91 38.994 1193.4 35.7938 Q1190.89 32.5936 1185.87 32.5936 Q1179.83 32.5936 1176.35 36.4419 Q1172.87 40.2903 1172.87 46.9338 L1172.87 72.576 L1165.37 72.576 L1165.37 27.2059 L1172.87 27.2059 L1172.87 34.2544 Q1175.54 30.163 1179.14 28.1376 Q1182.79 26.1121 1187.53 26.1121 Q1195.35 26.1121 1199.36 30.9732 Q1203.37 35.7938 1203.37 45.1919 Z" fill="#000000" fill-rule="nonzero" fill-opacity="1" /><path clip-path="url(#clip830)" d="M1250.89 28.9478 L1250.89 35.9153 Q1247.73 34.1734 1244.53 33.3227 Q1241.37 32.4315 1238.13 32.4315 Q1230.87 32.4315 1226.86 37.0496 Q1222.85 41.6271 1222.85 49.9314 Q1222.85 58.2358 1226.86 62.8538 Q1230.87 67.4314 1238.13 67.4314 Q1241.37 67.4314 1244.53 66.5807 Q1247.73 65.6895 1250.89 63.9476 L1250.89 70.8341 Q1247.77 72.2924 1244.4 73.0216 Q1241.08 73.7508 1237.32 73.7508 Q1227.07 73.7508 1221.03 67.3098 Q1214.99 60.8689 1214.99 49.9314 Q1214.99 38.832 1221.07 32.472 Q1227.19 26.1121 1237.8 26.1121 Q1241.24 26.1121 1244.53 26.8413 Q1247.81 27.5299 1250.89 28.9478 Z" fill="#000000" fill-rule="nonzero" fill-opacity="1" /><path clip-path="url(#clip830)" d="M1302.66 48.0275 L1302.66 51.6733 L1268.39 51.6733 Q1268.87 59.3701 1273 63.421 Q1277.18 67.4314 1284.59 67.4314 Q1288.88 67.4314 1292.89 66.3781 Q1296.94 65.3249 1300.91 63.2184 L1300.91 70.267 Q1296.9 71.9684 1292.69 72.8596 Q1288.48 73.7508 1284.14 73.7508 Q1273.29 73.7508 1266.93 67.4314 Q1260.61 61.1119 1260.61 50.3365 Q1260.61 39.1965 1266.6 32.6746 Q1272.64 26.1121 1282.85 26.1121 Q1292 26.1121 1297.31 32.0264 Q1302.66 37.9003 1302.66 48.0275 M1295.2 45.84 Q1295.12 39.7232 1291.76 36.0774 Q1288.44 32.4315 1282.93 32.4315 Q1276.69 32.4315 1272.92 35.9558 Q1269.2 39.4801 1268.63 45.8805 L1295.2 45.84 Z" fill="#000000" fill-rule="nonzero" fill-opacity="1" /><path clip-path="url(#clip830)" d="M1337.49 46.9338 L1412.35 46.9338 L1412.35 52.7671 L1337.49 52.7671 L1337.49 46.9338 Z" fill="#000000" fill-rule="nonzero" fill-opacity="1" /><path clip-path="url(#clip830)" d="M1450.92 12.096 L1463.11 12.096 L1478.55 53.2532 L1494.06 12.096 L1506.25 12.096 L1506.25 72.576 L1498.27 72.576 L1498.27 19.4686 L1482.68 60.9499 L1474.45 60.9499 L1458.86 19.4686 L1458.86 72.576 L1450.92 72.576 L1450.92 12.096 Z" fill="#000000" fill-rule="nonzero" fill-opacity="1" /><path clip-path="url(#clip830)" d="M1521.4 54.671 L1521.4 27.2059 L1528.86 27.2059 L1528.86 54.3874 Q1528.86 60.8284 1531.37 64.0691 Q1533.88 67.2693 1538.9 67.2693 Q1544.94 67.2693 1548.42 63.421 Q1551.95 59.5726 1551.95 52.9291 L1551.95 27.2059 L1559.4 27.2059 L1559.4 72.576 L1551.95 72.576 L1551.95 65.6084 Q1549.23 69.7404 1545.63 71.7658 Q1542.06 73.7508 1537.32 73.7508 Q1529.51 73.7508 1525.46 68.8897 Q1521.4 64.0286 1521.4 54.671 M1540.16 26.1121 L1540.16 26.1121 Z" fill="#000000" fill-rule="nonzero" fill-opacity="1" /><path clip-path="url(#clip830)" d="M1574.76 9.54393 L1582.21 9.54393 L1582.21 72.576 L1574.76 72.576 L1574.76 9.54393 Z" fill="#000000" fill-rule="nonzero" fill-opacity="1" /><path clip-path="url(#clip830)" d="M1605.18 14.324 L1605.18 27.2059 L1620.53 27.2059 L1620.53 32.9987 L1605.18 32.9987 L1605.18 57.6282 Q1605.18 63.1779 1606.68 64.7578 Q1608.22 66.3376 1612.87 66.3376 L1620.53 66.3376 L1620.53 72.576 L1612.87 72.576 Q1604.25 72.576 1600.96 69.3758 Q1597.68 66.1351 1597.68 57.6282 L1597.68 32.9987 L1592.21 32.9987 L1592.21 27.2059 L1597.68 27.2059 L1597.68 14.324 L1605.18 14.324 Z" fill="#000000" fill-rule="nonzero" fill-opacity="1" /><path clip-path="url(#clip830)" d="M1630.33 27.2059 L1637.79 27.2059 L1637.79 72.576 L1630.33 72.576 L1630.33 27.2059 M1630.33 9.54393 L1637.79 9.54393 L1637.79 18.9825 L1630.33 18.9825 L1630.33 9.54393 Z" fill="#000000" fill-rule="nonzero" fill-opacity="1" /><path clip-path="url(#clip830)" d="M1689.96 14.0809 L1689.96 22.0612 Q1685.3 19.8332 1681.17 18.7395 Q1677.04 17.6457 1673.19 17.6457 Q1666.51 17.6457 1662.86 20.2383 Q1659.26 22.8309 1659.26 27.611 Q1659.26 31.6214 1661.65 33.6873 Q1664.08 35.7128 1670.8 36.9686 L1675.74 37.9813 Q1684.9 39.7232 1689.23 44.1387 Q1693.61 48.5136 1693.61 55.8863 Q1693.61 64.6767 1687.69 69.2137 Q1681.82 73.7508 1670.44 73.7508 Q1666.14 73.7508 1661.28 72.7785 Q1656.46 71.8063 1651.28 69.9024 L1651.28 61.4765 Q1656.26 64.2716 1661.04 65.6895 Q1665.82 67.1073 1670.44 67.1073 Q1677.45 67.1073 1681.25 64.3527 Q1685.06 61.598 1685.06 56.4939 Q1685.06 52.0379 1682.31 49.5264 Q1679.59 47.0148 1673.35 45.759 L1668.37 44.7868 Q1659.22 42.9639 1655.13 39.075 Q1651.03 35.1862 1651.03 28.2591 Q1651.03 20.2383 1656.66 15.6203 Q1662.34 11.0023 1672.26 11.0023 Q1676.51 11.0023 1680.93 11.7719 Q1685.35 12.5416 1689.96 14.0809 Z" fill="#000000" fill-rule="nonzero" fill-opacity="1" /><path clip-path="url(#clip830)" d="M1706.05 27.2059 L1713.5 27.2059 L1713.5 72.576 L1706.05 72.576 L1706.05 27.2059 M1706.05 9.54393 L1713.5 9.54393 L1713.5 18.9825 L1706.05 18.9825 L1706.05 9.54393 Z" fill="#000000" fill-rule="nonzero" fill-opacity="1" /><path clip-path="url(#clip830)" d="M1764.42 35.9153 Q1767.21 30.8922 1771.1 28.5022 Q1774.99 26.1121 1780.26 26.1121 Q1787.35 26.1121 1791.2 31.0947 Q1795.04 36.0368 1795.04 45.1919 L1795.04 72.576 L1787.55 72.576 L1787.55 45.4349 Q1787.55 38.913 1785.24 35.7533 Q1782.93 32.5936 1778.19 32.5936 Q1772.4 32.5936 1769.04 36.4419 Q1765.67 40.2903 1765.67 46.9338 L1765.67 72.576 L1758.18 72.576 L1758.18 45.4349 Q1758.18 38.8725 1755.87 35.7533 Q1753.56 32.5936 1748.74 32.5936 Q1743.03 32.5936 1739.67 36.4824 Q1736.31 40.3308 1736.31 46.9338 L1736.31 72.576 L1728.81 72.576 L1728.81 27.2059 L1736.31 27.2059 L1736.31 34.2544 Q1738.86 30.082 1742.42 28.0971 Q1745.99 26.1121 1750.89 26.1121 Q1755.83 26.1121 1759.27 28.6237 Q1762.76 31.1352 1764.42 35.9153 Z" fill="#000000" fill-rule="nonzero" fill-opacity="1" /><path clip-path="url(#clip830)" d="M1854.19 9.62495 Q1848.76 18.942 1846.13 28.0566 Q1843.49 37.1711 1843.49 46.5287 Q1843.49 55.8863 1846.13 65.0818 Q1848.8 74.2369 1854.19 83.5134 L1847.71 83.5134 Q1841.63 73.9938 1838.59 64.7983 Q1835.59 55.6027 1835.59 46.5287 Q1835.59 37.4952 1838.59 28.3401 Q1841.59 19.1851 1847.71 9.62495 L1854.19 9.62495 Z" fill="#000000" fill-rule="nonzero" fill-opacity="1" /><path clip-path="url(#clip830)" d="M1871.12 65.6895 L1884.49 65.6895 L1884.49 19.5497 L1869.94 22.4663 L1869.94 15.0127 L1884.41 12.096 L1892.59 12.096 L1892.59 65.6895 L1905.96 65.6895 L1905.96 72.576 L1871.12 72.576 L1871.12 65.6895 Z" fill="#000000" fill-rule="nonzero" fill-opacity="1" /><path clip-path="url(#clip830)" d="M1939.98 17.4837 Q1933.67 17.4837 1930.47 23.7221 Q1927.31 29.92 1927.31 42.3968 Q1927.31 54.833 1930.47 61.0714 Q1933.67 67.2693 1939.98 67.2693 Q1946.34 67.2693 1949.5 61.0714 Q1952.7 54.833 1952.7 42.3968 Q1952.7 29.92 1949.5 23.7221 Q1946.34 17.4837 1939.98 17.4837 M1939.98 11.0023 Q1950.15 11.0023 1955.5 19.0636 Q1960.89 27.0843 1960.89 42.3968 Q1960.89 57.6687 1955.5 65.73 Q1950.15 73.7508 1939.98 73.7508 Q1929.82 73.7508 1924.43 65.73 Q1919.08 57.6687 1919.08 42.3968 Q1919.08 27.0843 1924.43 19.0636 Q1929.82 11.0023 1939.98 11.0023 Z" fill="#000000" fill-rule="nonzero" fill-opacity="1" /><path clip-path="url(#clip830)" d="M2026.88 34.1734 Q2025.62 33.4443 2024.12 33.1202 Q2022.66 32.7556 2020.88 32.7556 Q2014.56 32.7556 2011.16 36.8875 Q2007.8 40.9789 2007.8 48.6757 L2007.8 72.576 L2000.3 72.576 L2000.3 27.2059 L2007.8 27.2059 L2007.8 34.2544 Q2010.15 30.1225 2013.91 28.1376 Q2017.68 26.1121 2023.07 26.1121 Q2023.84 26.1121 2024.77 26.2337 Q2025.7 26.3147 2026.84 26.5172 L2026.88 34.1734 Z" fill="#000000" fill-rule="nonzero" fill-opacity="1" /><path clip-path="url(#clip830)" d="M2033.93 54.671 L2033.93 27.2059 L2041.38 27.2059 L2041.38 54.3874 Q2041.38 60.8284 2043.89 64.0691 Q2046.4 67.2693 2051.43 67.2693 Q2057.46 67.2693 2060.94 63.421 Q2064.47 59.5726 2064.47 52.9291 L2064.47 27.2059 L2071.92 27.2059 L2071.92 72.576 L2064.47 72.576 L2064.47 65.6084 Q2061.76 69.7404 2058.15 71.7658 Q2054.58 73.7508 2049.85 73.7508 Q2042.03 73.7508 2037.98 68.8897 Q2033.93 64.0286 2033.93 54.671 M2052.68 26.1121 L2052.68 26.1121 Z" fill="#000000" fill-rule="nonzero" fill-opacity="1" /><path clip-path="url(#clip830)" d="M2124.99 45.1919 L2124.99 72.576 L2117.54 72.576 L2117.54 45.4349 Q2117.54 38.994 2115.02 35.7938 Q2112.51 32.5936 2107.49 32.5936 Q2101.45 32.5936 2097.97 36.4419 Q2094.49 40.2903 2094.49 46.9338 L2094.49 72.576 L2086.99 72.576 L2086.99 27.2059 L2094.49 27.2059 L2094.49 34.2544 Q2097.16 30.163 2100.77 28.1376 Q2104.41 26.1121 2109.15 26.1121 Q2116.97 26.1121 2120.98 30.9732 Q2124.99 35.7938 2124.99 45.1919 Z" fill="#000000" fill-rule="nonzero" fill-opacity="1" /><path clip-path="url(#clip830)" d="M2168.78 28.5427 L2168.78 35.5912 Q2165.62 33.9709 2162.22 33.1607 Q2158.81 32.3505 2155.17 32.3505 Q2149.62 32.3505 2146.82 34.0519 Q2144.07 35.7533 2144.07 39.156 Q2144.07 41.7486 2146.05 43.2475 Q2148.04 44.7058 2154.03 46.0426 L2156.59 46.6097 Q2164.53 48.3111 2167.85 51.4303 Q2171.21 54.509 2171.21 60.0587 Q2171.21 66.3781 2166.19 70.0644 Q2161.2 73.7508 2152.45 73.7508 Q2148.81 73.7508 2144.84 73.0216 Q2140.91 72.3329 2136.53 70.9151 L2136.53 63.2184 Q2140.67 65.3654 2144.68 66.4591 Q2148.69 67.5124 2152.62 67.5124 Q2157.88 67.5124 2160.72 65.73 Q2163.55 63.9071 2163.55 60.6258 Q2163.55 57.5877 2161.49 55.9673 Q2159.46 54.3469 2152.54 52.8481 L2149.94 52.2405 Q2143.02 50.7821 2139.94 47.7845 Q2136.86 44.7463 2136.86 39.4801 Q2136.86 33.0797 2141.4 29.5959 Q2145.93 26.1121 2154.28 26.1121 Q2158.41 26.1121 2162.06 26.7198 Q2165.7 27.3274 2168.78 28.5427 Z" fill="#000000" fill-rule="nonzero" fill-opacity="1" /><path clip-path="url(#clip830)" d="M2181.9 9.62495 L2188.39 9.62495 Q2194.46 19.1851 2197.46 28.3401 Q2200.5 37.4952 2200.5 46.5287 Q2200.5 55.6027 2197.46 64.7983 Q2194.46 73.9938 2188.39 83.5134 L2181.9 83.5134 Q2187.29 74.2369 2189.93 65.0818 Q2192.6 55.8863 2192.6 46.5287 Q2192.6 37.1711 2189.93 28.0566 Q2187.29 18.942 2181.9 9.62495 Z" fill="#000000" fill-rule="nonzero" fill-opacity="1" /><polyline clip-path="url(#clip831)" style="stroke:#8b0000; stroke-linecap:round; stroke-linejoin:round; stroke-width:8; stroke-opacity:1; fill:none" points="323.472,1639.74 379.717,1629.55 435.962,1588.78 492.206,1537.83 548.451,1481.78 604.696,1451.2 660.941,1430.82 717.185,1374.77 773.43,1318.72 829.675,1318.72 885.92,1293.24 942.164,1318.72 998.409,1303.44 1054.65,1211.72 1110.9,1043.57 1167.14,962.037 1223.39,895.796 1279.63,905.987 1335.88,763.313 1392.12,763.313 1448.37,753.122 1504.61,702.167 1560.86,732.74 1617.1,753.122 1673.35,834.65 1729.59,819.363 1785.84,819.363 1842.08,855.032 1898.33,951.846 1954.57,987.515 2010.81,1074.14 2067.06,1160.76 2123.3,1181.14 2179.55,1170.95 2235.79,1181.14 2292.04,1288.15 2348.28,1298.34 2404.53,1364.58 2460.77,1379.87 2517.02,1390.06 2573.26,1395.15 "/>
<polyline clip-path="url(#clip831)" style="stroke:#ff0000; stroke-linecap:round; stroke-linejoin:round; stroke-width:4; stroke-opacity:0.5; fill:none" stroke-dasharray="16, 10" points="323.472,1655.02 379.717,1688.65 435.962,1679.48 492.206,1687.64 548.451,1662.16 604.696,1649.93 660.941,1635.66 717.185,1574.52 773.43,1545.98 829.675,1535.79 885.92,1526.62 942.164,1564.32 998.409,1523.56 1054.65,1503.18 1110.9,1506.24 1167.14,1424.71 1223.39,1293.24 1279.63,1294.26 1335.88,1350.31 1392.12,1308.53 1448.37,1218.85 1504.61,1206.62 1560.86,1250.44 1617.1,1195.41 1673.35,1059.87 1729.59,1193.37 1785.84,1201.53 1842.08,1228.02 1898.33,1249.42 1954.57,1240.25 2010.81,1248.4 2067.06,1239.23 2123.3,1263.69 2179.55,1310.57 2235.79,1349.29 2292.04,1371.72 2348.28,1401.27 2404.53,1431.84 2460.77,1438.98 2517.02,1501.14 2573.26,1541.9 "/>
<polyline clip-path="url(#clip831)" style="stroke:#ff0000; stroke-linecap:round; stroke-linejoin:round; stroke-width:4; stroke-opacity:0.5; fill:none" stroke-dasharray="16, 10" points="323.472,1583.69 379.717,1568.4 435.962,1501.14 492.206,1460.38 548.451,1403.31 604.696,1323.82 660.941,1254.52 717.185,1193.37 773.43,1095.54 829.675,1044.58 885.92,1010.95 942.164,893.757 998.409,762.294 1054.65,677.708 1110.9,616.562 1167.14,543.187 1223.39,311.852 1279.63,344.463 1335.88,246.629 1392.12,185.483 1448.37,173.254 1504.61,417.838 1560.86,561.531 1617.1,621.658 1673.35,672.613 1729.59,626.753 1785.84,638.983 1842.08,704.205 1898.33,755.16 1954.57,795.924 2010.81,890.7 2067.06,850.955 2123.3,907.006 2179.55,858.089 2235.79,1000.76 2292.04,1002.8 2348.28,981.4 2404.53,1088.41 2460.77,1073.12 2517.02,1190.32 2573.26,1227 "/>
<path clip-path="url(#clip830)" d="M1967.19 388.696 L2561.26 388.696 L2561.26 181.336 L1967.19 181.336  Z" fill="#ffffff" fill-rule="evenodd" fill-opacity="1"/>
<polyline clip-path="url(#clip830)" style="stroke:#000000; stroke-linecap:round; stroke-linejoin:round; stroke-width:4; stroke-opacity:1; fill:none" points="1967.19,388.696 2561.26,388.696 2561.26,181.336 1967.19,181.336 1967.19,388.696 "/>
<polyline clip-path="url(#clip830)" style="stroke:#8b0000; stroke-linecap:round; stroke-linejoin:round; stroke-width:8; stroke-opacity:1; fill:none" points="1993.68,233.176 2152.67,233.176 "/>
<path clip-path="url(#clip830)" d="M2179.17 215.896 L2186.13 215.896 L2194.95 239.415 L2203.82 215.896 L2210.79 215.896 L2210.79 250.456 L2206.23 250.456 L2206.23 220.109 L2197.31 243.813 L2192.61 243.813 L2183.7 220.109 L2183.7 250.456 L2179.17 250.456 L2179.17 215.896 Z" fill="#000000" fill-rule="nonzero" fill-opacity="1" /><path clip-path="url(#clip830)" d="M2242.06 236.429 L2242.06 238.512 L2222.48 238.512 Q2222.75 242.91 2225.11 245.225 Q2227.5 247.516 2231.74 247.516 Q2234.19 247.516 2236.48 246.915 Q2238.8 246.313 2241.06 245.109 L2241.06 249.137 Q2238.77 250.109 2236.36 250.618 Q2233.96 251.128 2231.48 251.128 Q2225.28 251.128 2221.64 247.516 Q2218.03 243.905 2218.03 237.748 Q2218.03 231.382 2221.46 227.655 Q2224.91 223.906 2230.74 223.906 Q2235.97 223.906 2239 227.285 Q2242.06 230.642 2242.06 236.429 M2237.8 235.179 Q2237.75 231.683 2235.83 229.6 Q2233.93 227.517 2230.79 227.517 Q2227.22 227.517 2225.07 229.53 Q2222.94 231.544 2222.61 235.202 L2237.8 235.179 Z" fill="#000000" fill-rule="nonzero" fill-opacity="1" /><path clip-path="url(#clip830)" d="M2266.11 228.466 L2266.11 214.438 L2270.37 214.438 L2270.37 250.456 L2266.11 250.456 L2266.11 246.567 Q2264.77 248.882 2262.71 250.016 Q2260.67 251.128 2257.8 251.128 Q2253.1 251.128 2250.14 247.378 Q2247.2 243.628 2247.2 237.517 Q2247.2 231.405 2250.14 227.655 Q2253.1 223.906 2257.8 223.906 Q2260.67 223.906 2262.71 225.04 Q2264.77 226.151 2266.11 228.466 M2251.6 237.517 Q2251.6 242.216 2253.52 244.901 Q2255.46 247.563 2258.84 247.563 Q2262.22 247.563 2264.17 244.901 Q2266.11 242.216 2266.11 237.517 Q2266.11 232.817 2264.17 230.155 Q2262.22 227.47 2258.84 227.47 Q2255.46 227.47 2253.52 230.155 Q2251.6 232.817 2251.6 237.517 Z" fill="#000000" fill-rule="nonzero" fill-opacity="1" /><path clip-path="url(#clip830)" d="M2279.14 224.531 L2283.4 224.531 L2283.4 250.456 L2279.14 250.456 L2279.14 224.531 M2279.14 214.438 L2283.4 214.438 L2283.4 219.831 L2279.14 219.831 L2279.14 214.438 Z" fill="#000000" fill-rule="nonzero" fill-opacity="1" /><path clip-path="url(#clip830)" d="M2304.1 237.424 Q2298.93 237.424 2296.94 238.604 Q2294.95 239.785 2294.95 242.632 Q2294.95 244.901 2296.43 246.243 Q2297.94 247.563 2300.51 247.563 Q2304.05 247.563 2306.18 245.063 Q2308.33 242.54 2308.33 238.373 L2308.33 237.424 L2304.1 237.424 M2312.59 235.665 L2312.59 250.456 L2308.33 250.456 L2308.33 246.521 Q2306.87 248.882 2304.7 250.016 Q2302.52 251.128 2299.37 251.128 Q2295.39 251.128 2293.03 248.905 Q2290.69 246.66 2290.69 242.91 Q2290.69 238.535 2293.61 236.313 Q2296.55 234.091 2302.36 234.091 L2308.33 234.091 L2308.33 233.674 Q2308.33 230.734 2306.39 229.137 Q2304.47 227.517 2300.97 227.517 Q2298.75 227.517 2296.64 228.049 Q2294.54 228.581 2292.59 229.646 L2292.59 225.711 Q2294.93 224.808 2297.13 224.368 Q2299.33 223.906 2301.41 223.906 Q2307.04 223.906 2309.81 226.822 Q2312.59 229.739 2312.59 235.665 Z" fill="#000000" fill-rule="nonzero" fill-opacity="1" /><path clip-path="url(#clip830)" d="M2342.91 234.808 L2342.91 250.456 L2338.66 250.456 L2338.66 234.947 Q2338.66 231.267 2337.22 229.438 Q2335.79 227.609 2332.92 227.609 Q2329.47 227.609 2327.48 229.808 Q2325.48 232.007 2325.48 235.804 L2325.48 250.456 L2321.2 250.456 L2321.2 224.531 L2325.48 224.531 L2325.48 228.558 Q2327.01 226.22 2329.07 225.063 Q2331.16 223.906 2333.86 223.906 Q2338.33 223.906 2340.62 226.683 Q2342.91 229.438 2342.91 234.808 Z" fill="#000000" fill-rule="nonzero" fill-opacity="1" /><polyline clip-path="url(#clip830)" style="stroke:#ff0000; stroke-linecap:round; stroke-linejoin:round; stroke-width:4; stroke-opacity:0.5; fill:none" stroke-dasharray="16, 10" points="1993.68,285.016 2152.67,285.016 "/>
<path clip-path="url(#clip830)" d="M2179.84 298.361 L2187.48 298.361 L2187.48 271.996 L2179.17 273.662 L2179.17 269.403 L2187.43 267.736 L2192.11 267.736 L2192.11 298.361 L2199.74 298.361 L2199.74 302.296 L2179.84 302.296 L2179.84 298.361 Z" fill="#000000" fill-rule="nonzero" fill-opacity="1" /><path clip-path="url(#clip830)" d="M2219.19 270.815 Q2215.58 270.815 2213.75 274.38 Q2211.94 277.921 2211.94 285.051 Q2211.94 292.157 2213.75 295.722 Q2215.58 299.264 2219.19 299.264 Q2222.82 299.264 2224.63 295.722 Q2226.46 292.157 2226.46 285.051 Q2226.46 277.921 2224.63 274.38 Q2222.82 270.815 2219.19 270.815 M2219.19 267.111 Q2225 267.111 2228.05 271.718 Q2231.13 276.301 2231.13 285.051 Q2231.13 293.778 2228.05 298.384 Q2225 302.968 2219.19 302.968 Q2213.38 302.968 2210.3 298.384 Q2207.24 293.778 2207.24 285.051 Q2207.24 276.301 2210.3 271.718 Q2213.38 267.111 2219.19 267.111 Z" fill="#000000" fill-rule="nonzero" fill-opacity="1" /><path clip-path="url(#clip830)" d="M2242.96 269.009 L2242.96 276.371 L2251.73 276.371 L2251.73 279.681 L2242.96 279.681 L2242.96 293.755 Q2242.96 296.926 2243.82 297.829 Q2244.7 298.731 2247.36 298.731 L2251.73 298.731 L2251.73 302.296 L2247.36 302.296 Q2242.43 302.296 2240.55 300.468 Q2238.68 298.616 2238.68 293.755 L2238.68 279.681 L2235.55 279.681 L2235.55 276.371 L2238.68 276.371 L2238.68 269.009 L2242.96 269.009 Z" fill="#000000" fill-rule="nonzero" fill-opacity="1" /><path clip-path="url(#clip830)" d="M2278.89 286.648 L2278.89 302.296 L2274.63 302.296 L2274.63 286.787 Q2274.63 283.107 2273.19 281.278 Q2271.76 279.449 2268.89 279.449 Q2265.44 279.449 2263.45 281.648 Q2261.46 283.847 2261.46 287.644 L2261.46 302.296 L2257.17 302.296 L2257.17 266.278 L2261.46 266.278 L2261.46 280.398 Q2262.98 278.06 2265.05 276.903 Q2267.13 275.746 2269.84 275.746 Q2274.3 275.746 2276.6 278.523 Q2278.89 281.278 2278.89 286.648 Z" fill="#000000" fill-rule="nonzero" fill-opacity="1" /><path clip-path="url(#clip830)" d="M2306.57 298.407 L2306.57 312.157 L2302.29 312.157 L2302.29 276.371 L2306.57 276.371 L2306.57 280.306 Q2307.92 277.991 2309.95 276.88 Q2312.01 275.746 2314.86 275.746 Q2319.58 275.746 2322.52 279.495 Q2325.48 283.245 2325.48 289.357 Q2325.48 295.468 2322.52 299.218 Q2319.58 302.968 2314.86 302.968 Q2312.01 302.968 2309.95 301.856 Q2307.92 300.722 2306.57 298.407 M2321.06 289.357 Q2321.06 284.657 2319.12 281.995 Q2317.2 279.31 2313.82 279.31 Q2310.44 279.31 2308.49 281.995 Q2306.57 284.657 2306.57 289.357 Q2306.57 294.056 2308.49 296.741 Q2310.44 299.403 2313.82 299.403 Q2317.2 299.403 2319.12 296.741 Q2321.06 294.056 2321.06 289.357 Z" fill="#000000" fill-rule="nonzero" fill-opacity="1" /><path clip-path="url(#clip830)" d="M2354.72 288.269 L2354.72 290.352 L2335.14 290.352 Q2335.42 294.75 2337.78 297.065 Q2340.16 299.356 2344.4 299.356 Q2346.85 299.356 2349.14 298.755 Q2351.46 298.153 2353.73 296.949 L2353.73 300.977 Q2351.43 301.949 2349.03 302.458 Q2346.62 302.968 2344.14 302.968 Q2337.94 302.968 2334.3 299.356 Q2330.69 295.745 2330.69 289.588 Q2330.69 283.222 2334.12 279.495 Q2337.57 275.746 2343.4 275.746 Q2348.63 275.746 2351.66 279.125 Q2354.72 282.482 2354.72 288.269 M2350.46 287.019 Q2350.41 283.523 2348.49 281.44 Q2346.6 279.357 2343.45 279.357 Q2339.88 279.357 2337.73 281.37 Q2335.6 283.384 2335.28 287.042 L2350.46 287.019 Z" fill="#000000" fill-rule="nonzero" fill-opacity="1" /><path clip-path="url(#clip830)" d="M2376.73 280.352 Q2376.02 279.935 2375.16 279.75 Q2374.33 279.542 2373.31 279.542 Q2369.7 279.542 2367.75 281.903 Q2365.83 284.241 2365.83 288.639 L2365.83 302.296 L2361.55 302.296 L2361.55 276.371 L2365.83 276.371 L2365.83 280.398 Q2367.17 278.037 2369.33 276.903 Q2371.48 275.746 2374.56 275.746 Q2375 275.746 2375.53 275.815 Q2376.06 275.861 2376.71 275.977 L2376.73 280.352 Z" fill="#000000" fill-rule="nonzero" fill-opacity="1" /><path clip-path="url(#clip830)" d="M2398.82 277.366 L2398.82 281.347 Q2397.01 280.352 2395.18 279.866 Q2393.38 279.357 2391.53 279.357 Q2387.38 279.357 2385.09 281.995 Q2382.8 284.611 2382.8 289.357 Q2382.8 294.102 2385.09 296.741 Q2387.38 299.356 2391.53 299.356 Q2393.38 299.356 2395.18 298.87 Q2397.01 298.361 2398.82 297.366 L2398.82 301.301 Q2397.04 302.134 2395.11 302.551 Q2393.22 302.968 2391.06 302.968 Q2385.21 302.968 2381.76 299.287 Q2378.31 295.607 2378.31 289.357 Q2378.31 283.014 2381.78 279.38 Q2385.28 275.746 2391.34 275.746 Q2393.31 275.746 2395.18 276.162 Q2397.06 276.556 2398.82 277.366 Z" fill="#000000" fill-rule="nonzero" fill-opacity="1" /><path clip-path="url(#clip830)" d="M2428.4 288.269 L2428.4 290.352 L2408.82 290.352 Q2409.1 294.75 2411.46 297.065 Q2413.84 299.356 2418.08 299.356 Q2420.53 299.356 2422.82 298.755 Q2425.14 298.153 2427.41 296.949 L2427.41 300.977 Q2425.11 301.949 2422.71 302.458 Q2420.3 302.968 2417.82 302.968 Q2411.62 302.968 2407.98 299.356 Q2404.37 295.745 2404.37 289.588 Q2404.37 283.222 2407.8 279.495 Q2411.25 275.746 2417.08 275.746 Q2422.31 275.746 2425.35 279.125 Q2428.4 282.482 2428.4 288.269 M2424.14 287.019 Q2424.1 283.523 2422.17 281.44 Q2420.28 279.357 2417.13 279.357 Q2413.56 279.357 2411.41 281.37 Q2409.28 283.384 2408.96 287.042 L2424.14 287.019 Z" fill="#000000" fill-rule="nonzero" fill-opacity="1" /><path clip-path="url(#clip830)" d="M2456.94 286.648 L2456.94 302.296 L2452.68 302.296 L2452.68 286.787 Q2452.68 283.107 2451.25 281.278 Q2449.81 279.449 2446.94 279.449 Q2443.49 279.449 2441.5 281.648 Q2439.51 283.847 2439.51 287.644 L2439.51 302.296 L2435.23 302.296 L2435.23 276.371 L2439.51 276.371 L2439.51 280.398 Q2441.04 278.06 2443.1 276.903 Q2445.18 275.746 2447.89 275.746 Q2452.36 275.746 2454.65 278.523 Q2456.94 281.278 2456.94 286.648 Z" fill="#000000" fill-rule="nonzero" fill-opacity="1" /><path clip-path="url(#clip830)" d="M2469.65 269.009 L2469.65 276.371 L2478.42 276.371 L2478.42 279.681 L2469.65 279.681 L2469.65 293.755 Q2469.65 296.926 2470.51 297.829 Q2471.39 298.731 2474.05 298.731 L2478.42 298.731 L2478.42 302.296 L2474.05 302.296 Q2469.12 302.296 2467.24 300.468 Q2465.37 298.616 2465.37 293.755 L2465.37 279.681 L2462.24 279.681 L2462.24 276.371 L2465.37 276.371 L2465.37 269.009 L2469.65 269.009 Z" fill="#000000" fill-rule="nonzero" fill-opacity="1" /><path clip-path="url(#clip830)" d="M2484.03 276.371 L2488.28 276.371 L2488.28 302.296 L2484.03 302.296 L2484.03 276.371 M2484.03 266.278 L2488.28 266.278 L2488.28 271.671 L2484.03 271.671 L2484.03 266.278 Z" fill="#000000" fill-rule="nonzero" fill-opacity="1" /><path clip-path="url(#clip830)" d="M2497.2 266.278 L2501.46 266.278 L2501.46 302.296 L2497.2 302.296 L2497.2 266.278 Z" fill="#000000" fill-rule="nonzero" fill-opacity="1" /><path clip-path="url(#clip830)" d="M2532.54 288.269 L2532.54 290.352 L2512.96 290.352 Q2513.24 294.75 2515.6 297.065 Q2517.98 299.356 2522.22 299.356 Q2524.67 299.356 2526.96 298.755 Q2529.28 298.153 2531.55 296.949 L2531.55 300.977 Q2529.26 301.949 2526.85 302.458 Q2524.44 302.968 2521.96 302.968 Q2515.76 302.968 2512.13 299.356 Q2508.52 295.745 2508.52 289.588 Q2508.52 283.222 2511.94 279.495 Q2515.39 275.746 2521.22 275.746 Q2526.46 275.746 2529.49 279.125 Q2532.54 282.482 2532.54 288.269 M2528.28 287.019 Q2528.24 283.523 2526.32 281.44 Q2524.42 279.357 2521.27 279.357 Q2517.71 279.357 2515.55 281.37 Q2513.42 283.384 2513.1 287.042 L2528.28 287.019 Z" fill="#000000" fill-rule="nonzero" fill-opacity="1" /><polyline clip-path="url(#clip830)" style="stroke:#ff0000; stroke-linecap:round; stroke-linejoin:round; stroke-width:4; stroke-opacity:0.5; fill:none" stroke-dasharray="16, 10" points="1993.68,336.856 2152.67,336.856 "/>
<path clip-path="url(#clip830)" d="M2181.39 353.419 L2181.39 349.159 Q2183.15 349.993 2184.95 350.433 Q2186.76 350.872 2188.49 350.872 Q2193.12 350.872 2195.55 347.771 Q2198.01 344.646 2198.36 338.303 Q2197.01 340.294 2194.95 341.359 Q2192.89 342.423 2190.39 342.423 Q2185.21 342.423 2182.18 339.298 Q2179.17 336.15 2179.17 330.71 Q2179.17 325.386 2182.31 322.169 Q2185.46 318.951 2190.69 318.951 Q2196.69 318.951 2199.84 323.558 Q2203.01 328.141 2203.01 336.891 Q2203.01 345.062 2199.12 349.946 Q2195.25 354.808 2188.7 354.808 Q2186.94 354.808 2185.14 354.46 Q2183.33 354.113 2181.39 353.419 M2190.69 338.766 Q2193.84 338.766 2195.67 336.613 Q2197.52 334.46 2197.52 330.71 Q2197.52 326.984 2195.67 324.831 Q2193.84 322.655 2190.69 322.655 Q2187.55 322.655 2185.69 324.831 Q2183.86 326.984 2183.86 330.71 Q2183.86 334.46 2185.69 336.613 Q2187.55 338.766 2190.69 338.766 Z" fill="#000000" fill-rule="nonzero" fill-opacity="1" /><path clip-path="url(#clip830)" d="M2221.41 322.655 Q2217.8 322.655 2215.97 326.22 Q2214.17 329.761 2214.17 336.891 Q2214.17 343.997 2215.97 347.562 Q2217.8 351.104 2221.41 351.104 Q2225.05 351.104 2226.85 347.562 Q2228.68 343.997 2228.68 336.891 Q2228.68 329.761 2226.85 326.22 Q2225.05 322.655 2221.41 322.655 M2221.41 318.951 Q2227.22 318.951 2230.28 323.558 Q2233.36 328.141 2233.36 336.891 Q2233.36 345.618 2230.28 350.224 Q2227.22 354.808 2221.41 354.808 Q2215.6 354.808 2212.52 350.224 Q2209.47 345.618 2209.47 336.891 Q2209.47 328.141 2212.52 323.558 Q2215.6 318.951 2221.41 318.951 Z" fill="#000000" fill-rule="nonzero" fill-opacity="1" /><path clip-path="url(#clip830)" d="M2245.18 320.849 L2245.18 328.211 L2253.96 328.211 L2253.96 331.521 L2245.18 331.521 L2245.18 345.595 Q2245.18 348.766 2246.04 349.669 Q2246.92 350.571 2249.58 350.571 L2253.96 350.571 L2253.96 354.136 L2249.58 354.136 Q2244.65 354.136 2242.78 352.308 Q2240.9 350.456 2240.9 345.595 L2240.9 331.521 L2237.78 331.521 L2237.78 328.211 L2240.9 328.211 L2240.9 320.849 L2245.18 320.849 Z" fill="#000000" fill-rule="nonzero" fill-opacity="1" /><path clip-path="url(#clip830)" d="M2281.11 338.488 L2281.11 354.136 L2276.85 354.136 L2276.85 338.627 Q2276.85 334.947 2275.42 333.118 Q2273.98 331.289 2271.11 331.289 Q2267.66 331.289 2265.67 333.488 Q2263.68 335.687 2263.68 339.484 L2263.68 354.136 L2259.4 354.136 L2259.4 318.118 L2263.68 318.118 L2263.68 332.238 Q2265.21 329.9 2267.27 328.743 Q2269.35 327.586 2272.06 327.586 Q2276.53 327.586 2278.82 330.363 Q2281.11 333.118 2281.11 338.488 Z" fill="#000000" fill-rule="nonzero" fill-opacity="1" /><path clip-path="url(#clip830)" d="M2308.79 350.247 L2308.79 363.997 L2304.51 363.997 L2304.51 328.211 L2308.79 328.211 L2308.79 332.146 Q2310.14 329.831 2312.17 328.72 Q2314.23 327.586 2317.08 327.586 Q2321.8 327.586 2324.74 331.335 Q2327.71 335.085 2327.71 341.197 Q2327.71 347.308 2324.74 351.058 Q2321.8 354.808 2317.08 354.808 Q2314.23 354.808 2312.17 353.696 Q2310.14 352.562 2308.79 350.247 M2323.29 341.197 Q2323.29 336.497 2321.34 333.835 Q2319.42 331.15 2316.04 331.15 Q2312.66 331.15 2310.72 333.835 Q2308.79 336.497 2308.79 341.197 Q2308.79 345.896 2310.72 348.581 Q2312.66 351.243 2316.04 351.243 Q2319.42 351.243 2321.34 348.581 Q2323.29 345.896 2323.29 341.197 Z" fill="#000000" fill-rule="nonzero" fill-opacity="1" /><path clip-path="url(#clip830)" d="M2356.94 340.109 L2356.94 342.192 L2337.36 342.192 Q2337.64 346.59 2340 348.905 Q2342.38 351.196 2346.62 351.196 Q2349.07 351.196 2351.36 350.595 Q2353.68 349.993 2355.95 348.789 L2355.95 352.817 Q2353.66 353.789 2351.25 354.298 Q2348.84 354.808 2346.36 354.808 Q2340.16 354.808 2336.53 351.196 Q2332.92 347.585 2332.92 341.428 Q2332.92 335.062 2336.34 331.335 Q2339.79 327.586 2345.62 327.586 Q2350.85 327.586 2353.89 330.965 Q2356.94 334.322 2356.94 340.109 M2352.68 338.859 Q2352.64 335.363 2350.72 333.28 Q2348.82 331.197 2345.67 331.197 Q2342.1 331.197 2339.95 333.21 Q2337.82 335.224 2337.5 338.882 L2352.68 338.859 Z" fill="#000000" fill-rule="nonzero" fill-opacity="1" /><path clip-path="url(#clip830)" d="M2378.96 332.192 Q2378.24 331.775 2377.38 331.59 Q2376.55 331.382 2375.53 331.382 Q2371.92 331.382 2369.98 333.743 Q2368.05 336.081 2368.05 340.479 L2368.05 354.136 L2363.77 354.136 L2363.77 328.211 L2368.05 328.211 L2368.05 332.238 Q2369.4 329.877 2371.55 328.743 Q2373.7 327.586 2376.78 327.586 Q2377.22 327.586 2377.75 327.655 Q2378.29 327.701 2378.93 327.817 L2378.96 332.192 Z" fill="#000000" fill-rule="nonzero" fill-opacity="1" /><path clip-path="url(#clip830)" d="M2401.04 329.206 L2401.04 333.187 Q2399.23 332.192 2397.41 331.706 Q2395.6 331.197 2393.75 331.197 Q2389.6 331.197 2387.31 333.835 Q2385.02 336.451 2385.02 341.197 Q2385.02 345.942 2387.31 348.581 Q2389.6 351.196 2393.75 351.196 Q2395.6 351.196 2397.41 350.71 Q2399.23 350.201 2401.04 349.206 L2401.04 353.141 Q2399.26 353.974 2397.34 354.391 Q2395.44 354.808 2393.29 354.808 Q2387.43 354.808 2383.98 351.127 Q2380.53 347.447 2380.53 341.197 Q2380.53 334.854 2384 331.22 Q2387.5 327.586 2393.56 327.586 Q2395.53 327.586 2397.41 328.002 Q2399.28 328.396 2401.04 329.206 Z" fill="#000000" fill-rule="nonzero" fill-opacity="1" /><path clip-path="url(#clip830)" d="M2430.62 340.109 L2430.62 342.192 L2411.04 342.192 Q2411.32 346.59 2413.68 348.905 Q2416.06 351.196 2420.3 351.196 Q2422.75 351.196 2425.04 350.595 Q2427.36 349.993 2429.63 348.789 L2429.63 352.817 Q2427.34 353.789 2424.93 354.298 Q2422.52 354.808 2420.04 354.808 Q2413.84 354.808 2410.21 351.196 Q2406.6 347.585 2406.6 341.428 Q2406.6 335.062 2410.02 331.335 Q2413.47 327.586 2419.3 327.586 Q2424.53 327.586 2427.57 330.965 Q2430.62 334.322 2430.62 340.109 M2426.36 338.859 Q2426.32 335.363 2424.4 333.28 Q2422.5 331.197 2419.35 331.197 Q2415.78 331.197 2413.63 333.21 Q2411.5 335.224 2411.18 338.882 L2426.36 338.859 Z" fill="#000000" fill-rule="nonzero" fill-opacity="1" /><path clip-path="url(#clip830)" d="M2459.16 338.488 L2459.16 354.136 L2454.91 354.136 L2454.91 338.627 Q2454.91 334.947 2453.47 333.118 Q2452.03 331.289 2449.16 331.289 Q2445.72 331.289 2443.72 333.488 Q2441.73 335.687 2441.73 339.484 L2441.73 354.136 L2437.45 354.136 L2437.45 328.211 L2441.73 328.211 L2441.73 332.238 Q2443.26 329.9 2445.32 328.743 Q2447.41 327.586 2450.11 327.586 Q2454.58 327.586 2456.87 330.363 Q2459.16 333.118 2459.16 338.488 Z" fill="#000000" fill-rule="nonzero" fill-opacity="1" /><path clip-path="url(#clip830)" d="M2471.87 320.849 L2471.87 328.211 L2480.65 328.211 L2480.65 331.521 L2471.87 331.521 L2471.87 345.595 Q2471.87 348.766 2472.73 349.669 Q2473.61 350.571 2476.27 350.571 L2480.65 350.571 L2480.65 354.136 L2476.27 354.136 Q2471.34 354.136 2469.47 352.308 Q2467.59 350.456 2467.59 345.595 L2467.59 331.521 L2464.47 331.521 L2464.47 328.211 L2467.59 328.211 L2467.59 320.849 L2471.87 320.849 Z" fill="#000000" fill-rule="nonzero" fill-opacity="1" /><path clip-path="url(#clip830)" d="M2486.25 328.211 L2490.51 328.211 L2490.51 354.136 L2486.25 354.136 L2486.25 328.211 M2486.25 318.118 L2490.51 318.118 L2490.51 323.511 L2486.25 323.511 L2486.25 318.118 Z" fill="#000000" fill-rule="nonzero" fill-opacity="1" /><path clip-path="url(#clip830)" d="M2499.42 318.118 L2503.68 318.118 L2503.68 354.136 L2499.42 354.136 L2499.42 318.118 Z" fill="#000000" fill-rule="nonzero" fill-opacity="1" /><path clip-path="url(#clip830)" d="M2534.77 340.109 L2534.77 342.192 L2515.18 342.192 Q2515.46 346.59 2517.82 348.905 Q2520.21 351.196 2524.44 351.196 Q2526.9 351.196 2529.19 350.595 Q2531.5 349.993 2533.77 348.789 L2533.77 352.817 Q2531.48 353.789 2529.07 354.298 Q2526.66 354.808 2524.19 354.808 Q2517.98 354.808 2514.35 351.196 Q2510.74 347.585 2510.74 341.428 Q2510.74 335.062 2514.16 331.335 Q2517.61 327.586 2523.45 327.586 Q2528.68 327.586 2531.71 330.965 Q2534.77 334.322 2534.77 340.109 M2530.51 338.859 Q2530.46 335.363 2528.54 333.28 Q2526.64 331.197 2523.49 331.197 Q2519.93 331.197 2517.78 333.21 Q2515.65 335.224 2515.32 338.882 L2530.51 338.859 Z" fill="#000000" fill-rule="nonzero" fill-opacity="1" /></svg>
