<?xml version="1.0" encoding="utf-8"?>
<svg xmlns="http://www.w3.org/2000/svg" xmlns:xlink="http://www.w3.org/1999/xlink" width="672" height="480" viewBox="0 0 2688 1920">
<defs>
  <clipPath id="clip890">
    <rect x="0" y="0" width="2688" height="1920"/>
  </clipPath>
</defs>
<path clip-path="url(#clip890)" d="M0 1920 L2688 1920 L2688 -4.26326e-14 L0 -4.26326e-14  Z" fill="#ffffff" fill-rule="evenodd" fill-opacity="1"/>
<defs>
  <clipPath id="clip891">
    <rect x="255" y="127" width="2386" height="1607"/>
  </clipPath>
</defs>
<path clip-path="url(#clip890)" d="M255.816 1734.12 L2640.76 1734.12 L2640.76 127.792 L255.816 127.792  Z" fill="#ffffff" fill-rule="evenodd" fill-opacity="1"/>
<polyline clip-path="url(#clip891)" style="stroke:#000000; stroke-linecap:round; stroke-linejoin:round; stroke-width:2; stroke-opacity:0.1; fill:none" points="323.315,1734.12 323.315,127.792 "/>
<polyline clip-path="url(#clip891)" style="stroke:#000000; stroke-linecap:round; stroke-linejoin:round; stroke-width:2; stroke-opacity:0.1; fill:none" points="885.8,1734.12 885.8,127.792 "/>
<polyline clip-path="url(#clip891)" style="stroke:#000000; stroke-linecap:round; stroke-linejoin:round; stroke-width:2; stroke-opacity:0.1; fill:none" points="1448.29,1734.12 1448.29,127.792 "/>
<polyline clip-path="url(#clip891)" style="stroke:#000000; stroke-linecap:round; stroke-linejoin:round; stroke-width:2; stroke-opacity:0.1; fill:none" points="2010.77,1734.12 2010.77,127.792 "/>
<polyline clip-path="url(#clip891)" style="stroke:#000000; stroke-linecap:round; stroke-linejoin:round; stroke-width:2; stroke-opacity:0.1; fill:none" points="2573.26,1734.12 2573.26,127.792 "/>
<polyline clip-path="url(#clip891)" style="stroke:#000000; stroke-linecap:round; stroke-linejoin:round; stroke-width:2; stroke-opacity:0.1; fill:none" points="255.816,1731.46 2640.76,1731.46 "/>
<polyline clip-path="url(#clip891)" style="stroke:#000000; stroke-linecap:round; stroke-linejoin:round; stroke-width:2; stroke-opacity:0.1; fill:none" points="255.816,1303.38 2640.76,1303.38 "/>
<polyline clip-path="url(#clip891)" style="stroke:#000000; stroke-linecap:round; stroke-linejoin:round; stroke-width:2; stroke-opacity:0.1; fill:none" points="255.816,875.304 2640.76,875.304 "/>
<polyline clip-path="url(#clip891)" style="stroke:#000000; stroke-linecap:round; stroke-linejoin:round; stroke-width:2; stroke-opacity:0.1; fill:none" points="255.816,447.225 2640.76,447.225 "/>
<polyline clip-path="url(#clip890)" style="stroke:#000000; stroke-linecap:round; stroke-linejoin:round; stroke-width:4; stroke-opacity:1; fill:none" points="255.816,1734.12 2640.76,1734.12 "/>
<polyline clip-path="url(#clip890)" style="stroke:#000000; stroke-linecap:round; stroke-linejoin:round; stroke-width:4; stroke-opacity:1; fill:none" points="323.315,1734.12 323.315,1715.22 "/>
<polyline clip-path="url(#clip890)" style="stroke:#000000; stroke-linecap:round; stroke-linejoin:round; stroke-width:4; stroke-opacity:1; fill:none" points="885.8,1734.12 885.8,1715.22 "/>
<polyline clip-path="url(#clip890)" style="stroke:#000000; stroke-linecap:round; stroke-linejoin:round; stroke-width:4; stroke-opacity:1; fill:none" points="1448.29,1734.12 1448.29,1715.22 "/>
<polyline clip-path="url(#clip890)" style="stroke:#000000; stroke-linecap:round; stroke-linejoin:round; stroke-width:4; stroke-opacity:1; fill:none" points="2010.77,1734.12 2010.77,1715.22 "/>
<polyline clip-path="url(#clip890)" style="stroke:#000000; stroke-linecap:round; stroke-linejoin:round; stroke-width:4; stroke-opacity:1; fill:none" points="2573.26,1734.12 2573.26,1715.22 "/>
<path clip-path="url(#clip890)" d="M323.315 1767.34 Q319.704 1767.34 317.875 1770.9 Q316.069 1774.45 316.069 1781.58 Q316.069 1788.68 317.875 1792.25 Q319.704 1795.79 323.315 1795.79 Q326.949 1795.79 328.754 1792.25 Q330.583 1788.68 330.583 1781.58 Q330.583 1774.45 328.754 1770.9 Q326.949 1767.34 323.315 1767.34 M323.315 1763.64 Q329.125 1763.64 332.18 1768.24 Q335.259 1772.83 335.259 1781.58 Q335.259 1790.3 332.18 1794.91 Q329.125 1799.49 323.315 1799.49 Q317.504 1799.49 314.426 1794.91 Q311.37 1790.3 311.37 1781.58 Q311.37 1772.83 314.426 1768.24 Q317.504 1763.64 323.315 1763.64 Z" fill="#000000" fill-rule="nonzero" fill-opacity="1" /><path clip-path="url(#clip890)" d="M860.488 1794.89 L868.127 1794.89 L868.127 1768.52 L859.817 1770.19 L859.817 1765.93 L868.081 1764.26 L872.756 1764.26 L872.756 1794.89 L880.395 1794.89 L880.395 1798.82 L860.488 1798.82 L860.488 1794.89 Z" fill="#000000" fill-rule="nonzero" fill-opacity="1" /><path clip-path="url(#clip890)" d="M899.84 1767.34 Q896.229 1767.34 894.4 1770.9 Q892.594 1774.45 892.594 1781.58 Q892.594 1788.68 894.4 1792.25 Q896.229 1795.79 899.84 1795.79 Q903.474 1795.79 905.279 1792.25 Q907.108 1788.68 907.108 1781.58 Q907.108 1774.45 905.279 1770.9 Q903.474 1767.34 899.84 1767.34 M899.84 1763.64 Q905.65 1763.64 908.705 1768.24 Q911.784 1772.83 911.784 1781.58 Q911.784 1790.3 908.705 1794.91 Q905.65 1799.49 899.84 1799.49 Q894.029 1799.49 890.951 1794.91 Q887.895 1790.3 887.895 1781.58 Q887.895 1772.83 890.951 1768.24 Q894.029 1763.64 899.84 1763.64 Z" fill="#000000" fill-rule="nonzero" fill-opacity="1" /><path clip-path="url(#clip890)" d="M1427.06 1794.89 L1443.38 1794.89 L1443.38 1798.82 L1421.43 1798.82 L1421.43 1794.89 Q1424.1 1792.13 1428.68 1787.5 Q1433.29 1782.85 1434.47 1781.51 Q1436.71 1778.98 1437.59 1777.25 Q1438.49 1775.49 1438.49 1773.8 Q1438.49 1771.04 1436.55 1769.31 Q1434.63 1767.57 1431.53 1767.57 Q1429.33 1767.57 1426.87 1768.34 Q1424.44 1769.1 1421.67 1770.65 L1421.67 1765.93 Q1424.49 1764.79 1426.94 1764.21 Q1429.4 1763.64 1431.43 1763.64 Q1436.8 1763.64 1440 1766.32 Q1443.19 1769.01 1443.19 1773.5 Q1443.19 1775.63 1442.38 1777.55 Q1441.6 1779.45 1439.49 1782.04 Q1438.91 1782.71 1435.81 1785.93 Q1432.71 1789.12 1427.06 1794.89 Z" fill="#000000" fill-rule="nonzero" fill-opacity="1" /><path clip-path="url(#clip890)" d="M1463.19 1767.34 Q1459.58 1767.34 1457.75 1770.9 Q1455.95 1774.45 1455.95 1781.58 Q1455.95 1788.68 1457.75 1792.25 Q1459.58 1795.79 1463.19 1795.79 Q1466.83 1795.79 1468.63 1792.25 Q1470.46 1788.68 1470.46 1781.58 Q1470.46 1774.45 1468.63 1770.9 Q1466.83 1767.34 1463.19 1767.34 M1463.19 1763.64 Q1469 1763.64 1472.06 1768.24 Q1475.14 1772.83 1475.14 1781.58 Q1475.14 1790.3 1472.06 1794.91 Q1469 1799.49 1463.19 1799.49 Q1457.38 1799.49 1454.3 1794.91 Q1451.25 1790.3 1451.25 1781.58 Q1451.25 1772.83 1454.3 1768.24 Q1457.38 1763.64 1463.19 1763.64 Z" fill="#000000" fill-rule="nonzero" fill-opacity="1" /><path clip-path="url(#clip890)" d="M1999.61 1780.19 Q2002.97 1780.9 2004.85 1783.17 Q2006.74 1785.44 2006.74 1788.77 Q2006.74 1793.89 2003.23 1796.69 Q1999.71 1799.49 1993.23 1799.49 Q1991.05 1799.49 1988.73 1799.05 Q1986.44 1798.64 1983.99 1797.78 L1983.99 1793.27 Q1985.93 1794.4 1988.25 1794.98 Q1990.56 1795.56 1993.09 1795.56 Q1997.48 1795.56 1999.78 1793.82 Q2002.09 1792.08 2002.09 1788.77 Q2002.09 1785.72 1999.94 1784.01 Q1997.81 1782.27 1993.99 1782.27 L1989.96 1782.27 L1989.96 1778.43 L1994.17 1778.43 Q1997.62 1778.43 1999.45 1777.06 Q2001.28 1775.67 2001.28 1773.08 Q2001.28 1770.42 1999.38 1769.01 Q1997.51 1767.57 1993.99 1767.57 Q1992.07 1767.57 1989.87 1767.99 Q1987.67 1768.4 1985.03 1769.28 L1985.03 1765.12 Q1987.69 1764.38 1990.01 1764.01 Q1992.35 1763.64 1994.41 1763.64 Q1999.73 1763.64 2002.83 1766.07 Q2005.93 1768.47 2005.93 1772.59 Q2005.93 1775.46 2004.29 1777.46 Q2002.65 1779.42 1999.61 1780.19 Z" fill="#000000" fill-rule="nonzero" fill-opacity="1" /><path clip-path="url(#clip890)" d="M2025.61 1767.34 Q2022 1767.34 2020.17 1770.9 Q2018.36 1774.45 2018.36 1781.58 Q2018.36 1788.68 2020.17 1792.25 Q2022 1795.79 2025.61 1795.79 Q2029.24 1795.79 2031.05 1792.25 Q2032.88 1788.68 2032.88 1781.58 Q2032.88 1774.45 2031.05 1770.9 Q2029.24 1767.34 2025.61 1767.34 M2025.61 1763.64 Q2031.42 1763.64 2034.48 1768.24 Q2037.55 1772.83 2037.55 1781.58 Q2037.55 1790.3 2034.48 1794.91 Q2031.42 1799.49 2025.61 1799.49 Q2019.8 1799.49 2016.72 1794.91 Q2013.67 1790.3 2013.67 1781.58 Q2013.67 1772.83 2016.72 1768.24 Q2019.8 1763.64 2025.61 1763.64 Z" fill="#000000" fill-rule="nonzero" fill-opacity="1" /><path clip-path="url(#clip890)" d="M2561.43 1768.34 L2549.62 1786.78 L2561.43 1786.78 L2561.43 1768.34 M2560.2 1764.26 L2566.08 1764.26 L2566.08 1786.78 L2571.01 1786.78 L2571.01 1790.67 L2566.08 1790.67 L2566.08 1798.82 L2561.43 1798.82 L2561.43 1790.67 L2545.83 1790.67 L2545.83 1786.16 L2560.2 1764.26 Z" fill="#000000" fill-rule="nonzero" fill-opacity="1" /><path clip-path="url(#clip890)" d="M2588.74 1767.34 Q2585.13 1767.34 2583.3 1770.9 Q2581.5 1774.45 2581.5 1781.58 Q2581.5 1788.68 2583.3 1792.25 Q2585.13 1795.79 2588.74 1795.79 Q2592.38 1795.79 2594.18 1792.25 Q2596.01 1788.68 2596.01 1781.58 Q2596.01 1774.45 2594.18 1770.9 Q2592.38 1767.34 2588.74 1767.34 M2588.74 1763.64 Q2594.55 1763.64 2597.61 1768.24 Q2600.69 1772.83 2600.69 1781.58 Q2600.69 1790.3 2597.61 1794.91 Q2594.55 1799.49 2588.74 1799.49 Q2582.93 1799.49 2579.85 1794.91 Q2576.8 1790.3 2576.8 1781.58 Q2576.8 1772.83 2579.85 1768.24 Q2582.93 1763.64 2588.74 1763.64 Z" fill="#000000" fill-rule="nonzero" fill-opacity="1" /><path clip-path="url(#clip890)" d="M1394.53 1841.06 L1394.53 1878.02 L1402.29 1878.02 Q1412.13 1878.02 1416.68 1873.56 Q1421.26 1869.11 1421.26 1859.49 Q1421.26 1849.94 1416.68 1845.52 Q1412.13 1841.06 1402.29 1841.06 L1394.53 1841.06 M1388.1 1835.78 L1401.31 1835.78 Q1415.12 1835.78 1421.58 1841.54 Q1428.04 1847.27 1428.04 1859.49 Q1428.04 1871.78 1421.55 1877.54 Q1415.06 1883.3 1401.31 1883.3 L1388.1 1883.3 L1388.1 1835.78 Z" fill="#000000" fill-rule="nonzero" fill-opacity="1" /><path clip-path="url(#clip890)" d="M1454.24 1865.38 Q1447.14 1865.38 1444.4 1867 Q1441.67 1868.63 1441.67 1872.54 Q1441.67 1875.66 1443.7 1877.51 Q1445.77 1879.32 1449.3 1879.32 Q1454.17 1879.32 1457.1 1875.88 Q1460.06 1872.42 1460.06 1866.69 L1460.06 1865.38 L1454.24 1865.38 M1465.92 1862.96 L1465.92 1883.3 L1460.06 1883.3 L1460.06 1877.89 Q1458.06 1881.14 1455.07 1882.7 Q1452.07 1884.22 1447.75 1884.22 Q1442.27 1884.22 1439.02 1881.17 Q1435.81 1878.08 1435.81 1872.92 Q1435.81 1866.91 1439.82 1863.85 Q1443.86 1860.8 1451.85 1860.8 L1460.06 1860.8 L1460.06 1860.23 Q1460.06 1856.18 1457.39 1853.99 Q1454.75 1851.76 1449.94 1851.76 Q1446.89 1851.76 1443.99 1852.49 Q1441.09 1853.22 1438.42 1854.69 L1438.42 1849.28 Q1441.63 1848.03 1444.66 1847.43 Q1447.68 1846.79 1450.55 1846.79 Q1458.28 1846.79 1462.1 1850.8 Q1465.92 1854.81 1465.92 1862.96 Z" fill="#000000" fill-rule="nonzero" fill-opacity="1" /><path clip-path="url(#clip890)" d="M1492.81 1886.61 Q1490.33 1892.98 1487.98 1894.92 Q1485.62 1896.86 1481.67 1896.86 L1477 1896.86 L1477 1891.96 L1480.43 1891.96 Q1482.85 1891.96 1484.19 1890.81 Q1485.53 1889.67 1487.15 1885.4 L1488.2 1882.73 L1473.78 1847.65 L1479.99 1847.65 L1491.13 1875.53 L1502.27 1847.65 L1508.47 1847.65 L1492.81 1886.61 Z" fill="#000000" fill-rule="nonzero" fill-opacity="1" /><polyline clip-path="url(#clip890)" style="stroke:#000000; stroke-linecap:round; stroke-linejoin:round; stroke-width:4; stroke-opacity:1; fill:none" points="255.816,1734.12 255.816,127.792 "/>
<polyline clip-path="url(#clip890)" style="stroke:#000000; stroke-linecap:round; stroke-linejoin:round; stroke-width:4; stroke-opacity:1; fill:none" points="255.816,1731.46 274.714,1731.46 "/>
<polyline clip-path="url(#clip890)" style="stroke:#000000; stroke-linecap:round; stroke-linejoin:round; stroke-width:4; stroke-opacity:1; fill:none" points="255.816,1303.38 274.714,1303.38 "/>
<polyline clip-path="url(#clip890)" style="stroke:#000000; stroke-linecap:round; stroke-linejoin:round; stroke-width:4; stroke-opacity:1; fill:none" points="255.816,875.304 274.714,875.304 "/>
<polyline clip-path="url(#clip890)" style="stroke:#000000; stroke-linecap:round; stroke-linejoin:round; stroke-width:4; stroke-opacity:1; fill:none" points="255.816,447.225 274.714,447.225 "/>
<path clip-path="url(#clip890)" d="M128.159 1717.26 Q124.548 1717.26 122.719 1720.83 Q120.913 1724.37 120.913 1731.5 Q120.913 1738.6 122.719 1742.17 Q124.548 1745.71 128.159 1745.71 Q131.793 1745.71 133.599 1742.17 Q135.427 1738.6 135.427 1731.5 Q135.427 1724.37 133.599 1720.83 Q131.793 1717.26 128.159 1717.26 M128.159 1713.56 Q133.969 1713.56 137.025 1718.16 Q140.103 1722.75 140.103 1731.5 Q140.103 1740.22 137.025 1744.83 Q133.969 1749.41 128.159 1749.41 Q122.349 1749.41 119.27 1744.83 Q116.214 1740.22 116.214 1731.5 Q116.214 1722.75 119.27 1718.16 Q122.349 1713.56 128.159 1713.56 Z" fill="#000000" fill-rule="nonzero" fill-opacity="1" /><path clip-path="url(#clip890)" d="M148.321 1742.86 L153.205 1742.86 L153.205 1748.74 L148.321 1748.74 L148.321 1742.86 Z" fill="#000000" fill-rule="nonzero" fill-opacity="1" /><path clip-path="url(#clip890)" d="M173.39 1717.26 Q169.779 1717.26 167.95 1720.83 Q166.145 1724.37 166.145 1731.5 Q166.145 1738.6 167.95 1742.17 Q169.779 1745.71 173.39 1745.71 Q177.024 1745.71 178.83 1742.17 Q180.659 1738.6 180.659 1731.5 Q180.659 1724.37 178.83 1720.83 Q177.024 1717.26 173.39 1717.26 M173.39 1713.56 Q179.2 1713.56 182.256 1718.16 Q185.334 1722.75 185.334 1731.5 Q185.334 1740.22 182.256 1744.83 Q179.2 1749.41 173.39 1749.41 Q167.58 1749.41 164.501 1744.83 Q161.446 1740.22 161.446 1731.5 Q161.446 1722.75 164.501 1718.16 Q167.58 1713.56 173.39 1713.56 Z" fill="#000000" fill-rule="nonzero" fill-opacity="1" /><path clip-path="url(#clip890)" d="M203.552 1717.26 Q199.941 1717.26 198.112 1720.83 Q196.307 1724.37 196.307 1731.5 Q196.307 1738.6 198.112 1742.17 Q199.941 1745.71 203.552 1745.71 Q207.186 1745.71 208.992 1742.17 Q210.82 1738.6 210.82 1731.5 Q210.82 1724.37 208.992 1720.83 Q207.186 1717.26 203.552 1717.26 M203.552 1713.56 Q209.362 1713.56 212.418 1718.16 Q215.496 1722.75 215.496 1731.5 Q215.496 1740.22 212.418 1744.83 Q209.362 1749.41 203.552 1749.41 Q197.742 1749.41 194.663 1744.83 Q191.608 1740.22 191.608 1731.5 Q191.608 1722.75 194.663 1718.16 Q197.742 1713.56 203.552 1713.56 Z" fill="#000000" fill-rule="nonzero" fill-opacity="1" /><path clip-path="url(#clip890)" d="M129.154 1289.18 Q125.543 1289.18 123.714 1292.75 Q121.909 1296.29 121.909 1303.42 Q121.909 1310.52 123.714 1314.09 Q125.543 1317.63 129.154 1317.63 Q132.788 1317.63 134.594 1314.09 Q136.423 1310.52 136.423 1303.42 Q136.423 1296.29 134.594 1292.75 Q132.788 1289.18 129.154 1289.18 M129.154 1285.48 Q134.964 1285.48 138.02 1290.09 Q141.099 1294.67 141.099 1303.42 Q141.099 1312.15 138.02 1316.75 Q134.964 1321.33 129.154 1321.33 Q123.344 1321.33 120.265 1316.75 Q117.21 1312.15 117.21 1303.42 Q117.21 1294.67 120.265 1290.09 Q123.344 1285.48 129.154 1285.48 Z" fill="#000000" fill-rule="nonzero" fill-opacity="1" /><path clip-path="url(#clip890)" d="M149.316 1314.78 L154.2 1314.78 L154.2 1320.66 L149.316 1320.66 L149.316 1314.78 Z" fill="#000000" fill-rule="nonzero" fill-opacity="1" /><path clip-path="url(#clip890)" d="M174.385 1289.18 Q170.774 1289.18 168.946 1292.75 Q167.14 1296.29 167.14 1303.42 Q167.14 1310.52 168.946 1314.09 Q170.774 1317.63 174.385 1317.63 Q178.02 1317.63 179.825 1314.09 Q181.654 1310.52 181.654 1303.42 Q181.654 1296.29 179.825 1292.75 Q178.02 1289.18 174.385 1289.18 M174.385 1285.48 Q180.196 1285.48 183.251 1290.09 Q186.33 1294.67 186.33 1303.42 Q186.33 1312.15 183.251 1316.75 Q180.196 1321.33 174.385 1321.33 Q168.575 1321.33 165.497 1316.75 Q162.441 1312.15 162.441 1303.42 Q162.441 1294.67 165.497 1290.09 Q168.575 1285.48 174.385 1285.48 Z" fill="#000000" fill-rule="nonzero" fill-opacity="1" /><path clip-path="url(#clip890)" d="M194.594 1286.1 L212.95 1286.1 L212.95 1290.04 L198.876 1290.04 L198.876 1298.51 Q199.895 1298.16 200.913 1298 Q201.932 1297.82 202.95 1297.82 Q208.737 1297.82 212.117 1300.99 Q215.496 1304.16 215.496 1309.58 Q215.496 1315.15 212.024 1318.26 Q208.552 1321.33 202.233 1321.33 Q200.057 1321.33 197.788 1320.96 Q195.543 1320.59 193.135 1319.85 L193.135 1315.15 Q195.219 1316.29 197.441 1316.84 Q199.663 1317.4 202.14 1317.4 Q206.145 1317.4 208.482 1315.29 Q210.82 1313.19 210.82 1309.58 Q210.82 1305.96 208.482 1303.86 Q206.145 1301.75 202.14 1301.75 Q200.265 1301.75 198.39 1302.17 Q196.538 1302.58 194.594 1303.46 L194.594 1286.1 Z" fill="#000000" fill-rule="nonzero" fill-opacity="1" /><path clip-path="url(#clip890)" d="M128.159 861.103 Q124.548 861.103 122.719 864.668 Q120.913 868.209 120.913 875.339 Q120.913 882.445 122.719 886.01 Q124.548 889.552 128.159 889.552 Q131.793 889.552 133.599 886.01 Q135.427 882.445 135.427 875.339 Q135.427 868.209 133.599 864.668 Q131.793 861.103 128.159 861.103 M128.159 857.399 Q133.969 857.399 137.025 862.006 Q140.103 866.589 140.103 875.339 Q140.103 884.066 137.025 888.672 Q133.969 893.256 128.159 893.256 Q122.349 893.256 119.27 888.672 Q116.214 884.066 116.214 875.339 Q116.214 866.589 119.27 862.006 Q122.349 857.399 128.159 857.399 Z" fill="#000000" fill-rule="nonzero" fill-opacity="1" /><path clip-path="url(#clip890)" d="M148.321 886.705 L153.205 886.705 L153.205 892.584 L148.321 892.584 L148.321 886.705 Z" fill="#000000" fill-rule="nonzero" fill-opacity="1" /><path clip-path="url(#clip890)" d="M164.2 888.649 L171.839 888.649 L171.839 862.283 L163.529 863.95 L163.529 859.691 L171.793 858.024 L176.469 858.024 L176.469 888.649 L184.108 888.649 L184.108 892.584 L164.2 892.584 L164.2 888.649 Z" fill="#000000" fill-rule="nonzero" fill-opacity="1" /><path clip-path="url(#clip890)" d="M203.552 861.103 Q199.941 861.103 198.112 864.668 Q196.307 868.209 196.307 875.339 Q196.307 882.445 198.112 886.01 Q199.941 889.552 203.552 889.552 Q207.186 889.552 208.992 886.01 Q210.82 882.445 210.82 875.339 Q210.82 868.209 208.992 864.668 Q207.186 861.103 203.552 861.103 M203.552 857.399 Q209.362 857.399 212.418 862.006 Q215.496 866.589 215.496 875.339 Q215.496 884.066 212.418 888.672 Q209.362 893.256 203.552 893.256 Q197.742 893.256 194.663 888.672 Q191.608 884.066 191.608 875.339 Q191.608 866.589 194.663 862.006 Q197.742 857.399 203.552 857.399 Z" fill="#000000" fill-rule="nonzero" fill-opacity="1" /><path clip-path="url(#clip890)" d="M129.154 433.024 Q125.543 433.024 123.714 436.588 Q121.909 440.13 121.909 447.26 Q121.909 454.366 123.714 457.931 Q125.543 461.473 129.154 461.473 Q132.788 461.473 134.594 457.931 Q136.423 454.366 136.423 447.26 Q136.423 440.13 134.594 436.588 Q132.788 433.024 129.154 433.024 M129.154 429.32 Q134.964 429.32 138.02 433.926 Q141.099 438.51 141.099 447.26 Q141.099 455.986 138.02 460.593 Q134.964 465.176 129.154 465.176 Q123.344 465.176 120.265 460.593 Q117.21 455.986 117.21 447.26 Q117.21 438.51 120.265 433.926 Q123.344 429.32 129.154 429.32 Z" fill="#000000" fill-rule="nonzero" fill-opacity="1" /><path clip-path="url(#clip890)" d="M149.316 458.625 L154.2 458.625 L154.2 464.505 L149.316 464.505 L149.316 458.625 Z" fill="#000000" fill-rule="nonzero" fill-opacity="1" /><path clip-path="url(#clip890)" d="M165.196 460.57 L172.835 460.57 L172.835 434.204 L164.524 435.871 L164.524 431.612 L172.788 429.945 L177.464 429.945 L177.464 460.57 L185.103 460.57 L185.103 464.505 L165.196 464.505 L165.196 460.57 Z" fill="#000000" fill-rule="nonzero" fill-opacity="1" /><path clip-path="url(#clip890)" d="M194.594 429.945 L212.95 429.945 L212.95 433.88 L198.876 433.88 L198.876 442.352 Q199.895 442.005 200.913 441.843 Q201.932 441.658 202.95 441.658 Q208.737 441.658 212.117 444.829 Q215.496 448 215.496 453.417 Q215.496 458.996 212.024 462.098 Q208.552 465.176 202.233 465.176 Q200.057 465.176 197.788 464.806 Q195.543 464.435 193.135 463.695 L193.135 458.996 Q195.219 460.13 197.441 460.685 Q199.663 461.241 202.14 461.241 Q206.145 461.241 208.482 459.135 Q210.82 457.028 210.82 453.417 Q210.82 449.806 208.482 447.699 Q206.145 445.593 202.14 445.593 Q200.265 445.593 198.39 446.01 Q196.538 446.426 194.594 447.306 L194.594 429.945 Z" fill="#000000" fill-rule="nonzero" fill-opacity="1" /><path clip-path="url(#clip890)" d="M19.402 1098.4 L37.2578 1098.4 L37.2578 1090.32 Q37.2578 1085.83 34.9343 1083.38 Q32.6108 1080.93 28.314 1080.93 Q24.0489 1080.93 21.7255 1083.38 Q19.402 1085.83 19.402 1090.32 L19.402 1098.4 M14.1184 1104.83 L14.1184 1090.32 Q14.1184 1082.33 17.7469 1078.26 Q21.3435 1074.15 28.314 1074.15 Q35.3481 1074.15 38.9447 1078.26 Q42.5413 1082.33 42.5413 1090.32 L42.5413 1098.4 L61.6384 1098.4 L61.6384 1104.83 L14.1184 1104.83 Z" fill="#000000" fill-rule="nonzero" fill-opacity="1" /><path clip-path="url(#clip890)" d="M31.465 1046.27 Q30.8921 1047.26 30.6375 1048.43 Q30.351 1049.58 30.351 1050.98 Q30.351 1055.95 33.5975 1058.62 Q36.8122 1061.26 42.8596 1061.26 L61.6384 1061.26 L61.6384 1067.15 L25.9905 1067.15 L25.9905 1061.26 L31.5287 1061.26 Q28.2821 1059.41 26.7225 1056.45 Q25.1311 1053.49 25.1311 1049.26 Q25.1311 1048.66 25.2266 1047.92 Q25.2903 1047.19 25.4494 1046.3 L31.465 1046.27 Z" fill="#000000" fill-rule="nonzero" fill-opacity="1" /><path clip-path="url(#clip890)" d="M42.3504 1011.07 L45.2149 1011.07 L45.2149 1037.99 Q51.2623 1037.61 54.4452 1034.37 Q57.5962 1031.09 57.5962 1025.26 Q57.5962 1021.89 56.7687 1018.74 Q55.9411 1015.55 54.2861 1012.44 L59.8242 1012.44 Q61.161 1015.59 61.8612 1018.9 Q62.5615 1022.21 62.5615 1025.61 Q62.5615 1034.14 57.5962 1039.14 Q52.631 1044.1 44.1646 1044.1 Q35.4117 1044.1 30.2873 1039.39 Q25.1311 1034.65 25.1311 1026.63 Q25.1311 1019.44 29.7781 1015.27 Q34.3932 1011.07 42.3504 1011.07 M40.6316 1016.92 Q35.8255 1016.99 32.9609 1019.63 Q30.0964 1022.24 30.0964 1026.57 Q30.0964 1031.47 32.8654 1034.43 Q35.6345 1037.36 40.6634 1037.8 L40.6316 1016.92 Z" fill="#000000" fill-rule="nonzero" fill-opacity="1" /><path clip-path="url(#clip890)" d="M25.9905 1005.66 L25.9905 999.45 L55.9093 988.31 L25.9905 977.17 L25.9905 970.963 L61.6384 984.331 L61.6384 992.288 L25.9905 1005.66 Z" fill="#000000" fill-rule="nonzero" fill-opacity="1" /><path clip-path="url(#clip890)" d="M43.719 946.678 Q43.719 953.776 45.3422 956.513 Q46.9655 959.25 50.8804 959.25 Q53.9996 959.25 55.8457 957.213 Q57.6599 955.144 57.6599 951.611 Q57.6599 946.742 54.2224 943.813 Q50.7531 940.853 45.0239 940.853 L43.719 940.853 L43.719 946.678 M41.3 934.997 L61.6384 934.997 L61.6384 940.853 L56.2276 940.853 Q59.4741 942.858 61.0337 945.85 Q62.5615 948.842 62.5615 953.171 Q62.5615 958.645 59.5059 961.892 Q56.4186 965.107 51.2623 965.107 Q45.2467 965.107 42.1912 961.096 Q39.1357 957.054 39.1357 949.065 L39.1357 940.853 L38.5628 940.853 Q34.5205 940.853 32.3244 943.527 Q30.0964 946.169 30.0964 950.975 Q30.0964 954.03 30.8284 956.927 Q31.5605 959.823 33.0246 962.497 L27.6137 962.497 Q26.3724 959.282 25.7677 956.258 Q25.1311 953.235 25.1311 950.37 Q25.1311 942.636 29.1415 938.816 Q33.1519 934.997 41.3 934.997 Z" fill="#000000" fill-rule="nonzero" fill-opacity="1" /><path clip-path="url(#clip890)" d="M12.1132 922.934 L12.1132 917.077 L61.6384 917.077 L61.6384 922.934 L12.1132 922.934 Z" fill="#000000" fill-rule="nonzero" fill-opacity="1" /><path clip-path="url(#clip890)" d="M42.3504 874.332 L45.2149 874.332 L45.2149 901.259 Q51.2623 900.877 54.4452 897.63 Q57.5962 894.352 57.5962 888.527 Q57.5962 885.153 56.7687 882.002 Q55.9411 878.819 54.2861 875.7 L59.8242 875.7 Q61.161 878.851 61.8612 882.161 Q62.5615 885.472 62.5615 888.877 Q62.5615 897.407 57.5962 902.404 Q52.631 907.37 44.1646 907.37 Q35.4117 907.37 30.2873 902.659 Q25.1311 897.917 25.1311 889.896 Q25.1311 882.702 29.7781 878.533 Q34.3932 874.332 42.3504 874.332 M40.6316 880.188 Q35.8255 880.252 32.9609 882.893 Q30.0964 885.503 30.0964 889.832 Q30.0964 894.734 32.8654 897.694 Q35.6345 900.622 40.6634 901.068 L40.6316 880.188 Z" fill="#000000" fill-rule="nonzero" fill-opacity="1" /><path clip-path="url(#clip890)" d="M40.1224 835.087 L61.6384 835.087 L61.6384 840.943 L40.3133 840.943 Q35.2526 840.943 32.7381 842.917 Q30.2237 844.89 30.2237 848.837 Q30.2237 853.579 33.2474 856.317 Q36.2711 859.054 41.491 859.054 L61.6384 859.054 L61.6384 864.942 L25.9905 864.942 L25.9905 859.054 L31.5287 859.054 Q28.314 856.953 26.7225 854.12 Q25.1311 851.256 25.1311 847.532 Q25.1311 841.389 28.9505 838.238 Q32.7381 835.087 40.1224 835.087 Z" fill="#000000" fill-rule="nonzero" fill-opacity="1" /><path clip-path="url(#clip890)" d="M27.3591 797.752 L32.8336 797.752 Q31.465 800.235 30.7966 802.749 Q30.0964 805.232 30.0964 807.778 Q30.0964 813.475 33.7248 816.626 Q37.3214 819.777 43.8463 819.777 Q50.3711 819.777 53.9996 816.626 Q57.5962 813.475 57.5962 807.778 Q57.5962 805.232 56.9278 802.749 Q56.2276 800.235 54.859 797.752 L60.2698 797.752 Q61.4156 800.203 61.9886 802.845 Q62.5615 805.455 62.5615 808.415 Q62.5615 816.467 57.5007 821.21 Q52.44 825.952 43.8463 825.952 Q35.1253 825.952 30.1282 821.178 Q25.1311 816.372 25.1311 808.033 Q25.1311 805.327 25.704 802.749 Q26.2451 800.171 27.3591 797.752 Z" fill="#000000" fill-rule="nonzero" fill-opacity="1" /><path clip-path="url(#clip890)" d="M42.3504 757.075 L45.2149 757.075 L45.2149 784.002 Q51.2623 783.62 54.4452 780.374 Q57.5962 777.095 57.5962 771.271 Q57.5962 767.897 56.7687 764.746 Q55.9411 761.563 54.2861 758.444 L59.8242 758.444 Q61.161 761.595 61.8612 764.905 Q62.5615 768.215 62.5615 771.621 Q62.5615 780.151 57.5962 785.148 Q52.631 790.113 44.1646 790.113 Q35.4117 790.113 30.2873 785.403 Q25.1311 780.66 25.1311 772.639 Q25.1311 765.446 29.7781 761.277 Q34.3932 757.075 42.3504 757.075 M40.6316 762.932 Q35.8255 762.995 32.9609 765.637 Q30.0964 768.247 30.0964 772.576 Q30.0964 777.477 32.8654 780.437 Q35.6345 783.366 40.6634 783.811 L40.6316 762.932 Z" fill="#000000" fill-rule="nonzero" fill-opacity="1" /><path clip-path="url(#clip890)" d="M849.441 12.096 L857.624 12.096 L857.624 72.576 L849.441 72.576 L849.441 12.096 Z" fill="#000000" fill-rule="nonzero" fill-opacity="1" /><path clip-path="url(#clip890)" d="M911.298 45.1919 L911.298 72.576 L903.845 72.576 L903.845 45.4349 Q903.845 38.994 901.333 35.7938 Q898.821 32.5936 893.798 32.5936 Q887.762 32.5936 884.279 36.4419 Q880.795 40.2903 880.795 46.9338 L880.795 72.576 L873.301 72.576 L873.301 27.2059 L880.795 27.2059 L880.795 34.2544 Q883.469 30.163 887.074 28.1376 Q890.72 26.1121 895.459 26.1121 Q903.277 26.1121 907.288 30.9732 Q911.298 35.7938 911.298 45.1919 Z" fill="#000000" fill-rule="nonzero" fill-opacity="1" /><path clip-path="url(#clip890)" d="M956.02 34.0924 L956.02 9.54393 L963.474 9.54393 L963.474 72.576 L956.02 72.576 L956.02 65.7705 Q953.671 69.8214 950.065 71.8063 Q946.501 73.7508 941.477 73.7508 Q933.254 73.7508 928.069 67.1883 Q922.924 60.6258 922.924 49.9314 Q922.924 39.2371 928.069 32.6746 Q933.254 26.1121 941.477 26.1121 Q946.501 26.1121 950.065 28.0971 Q953.671 30.0415 956.02 34.0924 M930.621 49.9314 Q930.621 58.1548 933.983 62.8538 Q937.386 67.5124 943.3 67.5124 Q949.215 67.5124 952.617 62.8538 Q956.02 58.1548 956.02 49.9314 Q956.02 41.7081 952.617 37.0496 Q949.215 32.3505 943.3 32.3505 Q937.386 32.3505 933.983 37.0496 Q930.621 41.7081 930.621 49.9314 Z" fill="#000000" fill-rule="nonzero" fill-opacity="1" /><path clip-path="url(#clip890)" d="M978.827 27.2059 L986.28 27.2059 L986.28 72.576 L978.827 72.576 L978.827 27.2059 M978.827 9.54393 L986.28 9.54393 L986.28 18.9825 L978.827 18.9825 L978.827 9.54393 Z" fill="#000000" fill-rule="nonzero" fill-opacity="1" /><path clip-path="url(#clip890)" d="M996.529 27.2059 L1004.43 27.2059 L1018.61 65.2844 L1032.78 27.2059 L1040.68 27.2059 L1023.67 72.576 L1013.54 72.576 L996.529 27.2059 Z" fill="#000000" fill-rule="nonzero" fill-opacity="1" /><path clip-path="url(#clip890)" d="M1050.97 27.2059 L1058.43 27.2059 L1058.43 72.576 L1050.97 72.576 L1050.97 27.2059 M1050.97 9.54393 L1058.43 9.54393 L1058.43 18.9825 L1050.97 18.9825 L1050.97 9.54393 Z" fill="#000000" fill-rule="nonzero" fill-opacity="1" /><path clip-path="url(#clip890)" d="M1103.88 34.0924 L1103.88 9.54393 L1111.33 9.54393 L1111.33 72.576 L1103.88 72.576 L1103.88 65.7705 Q1101.53 69.8214 1097.92 71.8063 Q1094.36 73.7508 1089.34 73.7508 Q1081.11 73.7508 1075.93 67.1883 Q1070.78 60.6258 1070.78 49.9314 Q1070.78 39.2371 1075.93 32.6746 Q1081.11 26.1121 1089.34 26.1121 Q1094.36 26.1121 1097.92 28.0971 Q1101.53 30.0415 1103.88 34.0924 M1078.48 49.9314 Q1078.48 58.1548 1081.84 62.8538 Q1085.24 67.5124 1091.16 67.5124 Q1097.07 67.5124 1100.48 62.8538 Q1103.88 58.1548 1103.88 49.9314 Q1103.88 41.7081 1100.48 37.0496 Q1097.07 32.3505 1091.16 32.3505 Q1085.24 32.3505 1081.84 37.0496 Q1078.48 41.7081 1078.48 49.9314 Z" fill="#000000" fill-rule="nonzero" fill-opacity="1" /><path clip-path="url(#clip890)" d="M1125.92 54.671 L1125.92 27.2059 L1133.37 27.2059 L1133.37 54.3874 Q1133.37 60.8284 1135.88 64.0691 Q1138.39 67.2693 1143.42 67.2693 Q1149.45 67.2693 1152.93 63.421 Q1156.46 59.5726 1156.46 52.9291 L1156.46 27.2059 L1163.91 27.2059 L1163.91 72.576 L1156.46 72.576 L1156.46 65.6084 Q1153.74 69.7404 1150.14 71.7658 Q1146.57 73.7508 1141.84 73.7508 Q1134.02 73.7508 1129.97 68.8897 Q1125.92 64.0286 1125.92 54.671 M1144.67 26.1121 L1144.67 26.1121 Z" fill="#000000" fill-rule="nonzero" fill-opacity="1" /><path clip-path="url(#clip890)" d="M1199.88 49.7694 Q1190.85 49.7694 1187.37 51.8354 Q1183.88 53.9013 1183.88 58.8839 Q1183.88 62.8538 1186.48 65.2034 Q1189.11 67.5124 1193.61 67.5124 Q1199.8 67.5124 1203.53 63.1374 Q1207.3 58.7219 1207.3 51.4303 L1207.3 49.7694 L1199.88 49.7694 M1214.75 46.6907 L1214.75 72.576 L1207.3 72.576 L1207.3 65.6895 Q1204.75 69.8214 1200.94 71.8063 Q1197.13 73.7508 1191.62 73.7508 Q1184.65 73.7508 1180.52 69.8619 Q1176.43 65.9325 1176.43 59.3701 Q1176.43 51.7138 1181.53 47.825 Q1186.68 43.9361 1196.85 43.9361 L1207.3 43.9361 L1207.3 43.2069 Q1207.3 38.0623 1203.9 35.2672 Q1200.53 32.4315 1194.42 32.4315 Q1190.53 32.4315 1186.84 33.3632 Q1183.15 34.295 1179.75 36.1584 L1179.75 29.2718 Q1183.84 27.692 1187.69 26.9223 Q1191.54 26.1121 1195.19 26.1121 Q1205.03 26.1121 1209.89 31.2163 Q1214.75 36.3204 1214.75 46.6907 Z" fill="#000000" fill-rule="nonzero" fill-opacity="1" /><path clip-path="url(#clip890)" d="M1230.1 9.54393 L1237.56 9.54393 L1237.56 72.576 L1230.1 72.576 L1230.1 9.54393 Z" fill="#000000" fill-rule="nonzero" fill-opacity="1" /><path clip-path="url(#clip890)" d="M1308.53 44.2197 Q1311.16 45.1109 1313.63 48.0275 Q1316.15 50.9442 1318.66 56.0483 L1326.96 72.576 L1318.17 72.576 L1310.43 57.061 Q1307.44 50.9847 1304.6 48.9997 Q1301.81 47.0148 1296.94 47.0148 L1288.03 47.0148 L1288.03 72.576 L1279.85 72.576 L1279.85 12.096 L1298.32 12.096 Q1308.69 12.096 1313.8 16.4305 Q1318.9 20.7649 1318.9 29.5149 Q1318.9 35.2267 1316.23 38.994 Q1313.59 42.7613 1308.53 44.2197 M1288.03 18.8205 L1288.03 40.2903 L1298.32 40.2903 Q1304.24 40.2903 1307.23 37.5762 Q1310.27 34.8216 1310.27 29.5149 Q1310.27 24.2082 1307.23 21.5346 Q1304.24 18.8205 1298.32 18.8205 L1288.03 18.8205 Z" fill="#000000" fill-rule="nonzero" fill-opacity="1" /><path clip-path="url(#clip890)" d="M1332.67 54.671 L1332.67 27.2059 L1340.13 27.2059 L1340.13 54.3874 Q1340.13 60.8284 1342.64 64.0691 Q1345.15 67.2693 1350.17 67.2693 Q1356.21 67.2693 1359.69 63.421 Q1363.22 59.5726 1363.22 52.9291 L1363.22 27.2059 L1370.67 27.2059 L1370.67 72.576 L1363.22 72.576 L1363.22 65.6084 Q1360.5 69.7404 1356.9 71.7658 Q1353.33 73.7508 1348.59 73.7508 Q1340.78 73.7508 1336.72 68.8897 Q1332.67 64.0286 1332.67 54.671 M1351.43 26.1121 L1351.43 26.1121 Z" fill="#000000" fill-rule="nonzero" fill-opacity="1" /><path clip-path="url(#clip890)" d="M1423.74 45.1919 L1423.74 72.576 L1416.28 72.576 L1416.28 45.4349 Q1416.28 38.994 1413.77 35.7938 Q1411.26 32.5936 1406.24 32.5936 Q1400.2 32.5936 1396.72 36.4419 Q1393.23 40.2903 1393.23 46.9338 L1393.23 72.576 L1385.74 72.576 L1385.74 27.2059 L1393.23 27.2059 L1393.23 34.2544 Q1395.91 30.163 1399.51 28.1376 Q1403.16 26.1121 1407.9 26.1121 Q1415.72 26.1121 1419.73 30.9732 Q1423.74 35.7938 1423.74 45.1919 Z" fill="#000000" fill-rule="nonzero" fill-opacity="1" /><path clip-path="url(#clip890)" d="M1467.53 28.5427 L1467.53 35.5912 Q1464.37 33.9709 1460.97 33.1607 Q1457.56 32.3505 1453.92 32.3505 Q1448.37 32.3505 1445.57 34.0519 Q1442.82 35.7533 1442.82 39.156 Q1442.82 41.7486 1444.8 43.2475 Q1446.79 44.7058 1452.78 46.0426 L1455.33 46.6097 Q1463.27 48.3111 1466.6 51.4303 Q1469.96 54.509 1469.96 60.0587 Q1469.96 66.3781 1464.94 70.0644 Q1459.95 73.7508 1451.2 73.7508 Q1447.56 73.7508 1443.59 73.0216 Q1439.66 72.3329 1435.28 70.9151 L1435.28 63.2184 Q1439.41 65.3654 1443.43 66.4591 Q1447.44 67.5124 1451.36 67.5124 Q1456.63 67.5124 1459.47 65.73 Q1462.3 63.9071 1462.3 60.6258 Q1462.3 57.5877 1460.24 55.9673 Q1458.21 54.3469 1451.28 52.8481 L1448.69 52.2405 Q1441.76 50.7821 1438.69 47.7845 Q1435.61 44.7463 1435.61 39.4801 Q1435.61 33.0797 1440.14 29.5959 Q1444.68 26.1121 1453.03 26.1121 Q1457.16 26.1121 1460.8 26.7198 Q1464.45 27.3274 1467.53 28.5427 Z" fill="#000000" fill-rule="nonzero" fill-opacity="1" /><path clip-path="url(#clip890)" d="M1502.85 27.2059 L1510.75 27.2059 L1524.93 65.2844 L1539.11 27.2059 L1547.01 27.2059 L1529.99 72.576 L1519.87 72.576 L1502.85 27.2059 Z" fill="#000000" fill-rule="nonzero" fill-opacity="1" /><path clip-path="url(#clip890)" d="M1586.22 28.5427 L1586.22 35.5912 Q1583.06 33.9709 1579.66 33.1607 Q1576.25 32.3505 1572.61 32.3505 Q1567.06 32.3505 1564.26 34.0519 Q1561.51 35.7533 1561.51 39.156 Q1561.51 41.7486 1563.49 43.2475 Q1565.48 44.7058 1571.47 46.0426 L1574.03 46.6097 Q1581.97 48.3111 1585.29 51.4303 Q1588.65 54.509 1588.65 60.0587 Q1588.65 66.3781 1583.63 70.0644 Q1578.64 73.7508 1569.89 73.7508 Q1566.25 73.7508 1562.28 73.0216 Q1558.35 72.3329 1553.97 70.9151 L1553.97 63.2184 Q1558.11 65.3654 1562.12 66.4591 Q1566.13 67.5124 1570.06 67.5124 Q1575.32 67.5124 1578.16 65.73 Q1580.99 63.9071 1580.99 60.6258 Q1580.99 57.5877 1578.93 55.9673 Q1576.9 54.3469 1569.98 52.8481 L1567.38 52.2405 Q1560.46 50.7821 1557.38 47.7845 Q1554.3 44.7463 1554.3 39.4801 Q1554.3 33.0797 1558.84 29.5959 Q1563.37 26.1121 1571.72 26.1121 Q1575.85 26.1121 1579.49 26.7198 Q1583.14 27.3274 1586.22 28.5427 Z" fill="#000000" fill-rule="nonzero" fill-opacity="1" /><path clip-path="url(#clip890)" d="M1647.43 20.1573 L1636.33 50.2555 L1658.57 50.2555 L1647.43 20.1573 M1642.81 12.096 L1652.09 12.096 L1675.14 72.576 L1666.63 72.576 L1661.12 57.061 L1633.86 57.061 L1628.35 72.576 L1619.72 72.576 L1642.81 12.096 Z" fill="#000000" fill-rule="nonzero" fill-opacity="1" /><path clip-path="url(#clip890)" d="M1713.5 49.3643 Q1713.5 41.2625 1710.14 36.8065 Q1706.81 32.3505 1700.78 32.3505 Q1694.78 32.3505 1691.42 36.8065 Q1688.1 41.2625 1688.1 49.3643 Q1688.1 57.4256 1691.42 61.8816 Q1694.78 66.3376 1700.78 66.3376 Q1706.81 66.3376 1710.14 61.8816 Q1713.5 57.4256 1713.5 49.3643 M1720.95 66.9452 Q1720.95 78.5308 1715.81 84.1616 Q1710.66 89.8329 1700.05 89.8329 Q1696.12 89.8329 1692.64 89.2252 Q1689.15 88.6581 1685.87 87.4428 L1685.87 80.1917 Q1689.15 81.9741 1692.35 82.8248 Q1695.55 83.6755 1698.88 83.6755 Q1706.21 83.6755 1709.85 79.8271 Q1713.5 76.0193 1713.5 68.282 L1713.5 64.5957 Q1711.19 68.6061 1707.58 70.5911 Q1703.98 72.576 1698.96 72.576 Q1690.61 72.576 1685.51 66.2161 Q1680.4 59.8562 1680.4 49.3643 Q1680.4 38.832 1685.51 32.472 Q1690.61 26.1121 1698.96 26.1121 Q1703.98 26.1121 1707.58 28.0971 Q1711.19 30.082 1713.5 34.0924 L1713.5 27.2059 L1720.95 27.2059 L1720.95 66.9452 Z" fill="#000000" fill-rule="nonzero" fill-opacity="1" /><path clip-path="url(#clip890)" d="M1766.16 49.3643 Q1766.16 41.2625 1762.8 36.8065 Q1759.48 32.3505 1753.44 32.3505 Q1747.45 32.3505 1744.08 36.8065 Q1740.76 41.2625 1740.76 49.3643 Q1740.76 57.4256 1744.08 61.8816 Q1747.45 66.3376 1753.44 66.3376 Q1759.48 66.3376 1762.8 61.8816 Q1766.16 57.4256 1766.16 49.3643 M1773.61 66.9452 Q1773.61 78.5308 1768.47 84.1616 Q1763.32 89.8329 1752.71 89.8329 Q1748.78 89.8329 1745.3 89.2252 Q1741.81 88.6581 1738.53 87.4428 L1738.53 80.1917 Q1741.81 81.9741 1745.01 82.8248 Q1748.22 83.6755 1751.54 83.6755 Q1758.87 83.6755 1762.51 79.8271 Q1766.16 76.0193 1766.16 68.282 L1766.16 64.5957 Q1763.85 68.6061 1760.25 70.5911 Q1756.64 72.576 1751.62 72.576 Q1743.27 72.576 1738.17 66.2161 Q1733.06 59.8562 1733.06 49.3643 Q1733.06 38.832 1738.17 32.472 Q1743.27 26.1121 1751.62 26.1121 Q1756.64 26.1121 1760.25 28.0971 Q1763.85 30.082 1766.16 34.0924 L1766.16 27.2059 L1773.61 27.2059 L1773.61 66.9452 Z" fill="#000000" fill-rule="nonzero" fill-opacity="1" /><path clip-path="url(#clip890)" d="M1815.26 34.1734 Q1814 33.4443 1812.5 33.1202 Q1811.04 32.7556 1809.26 32.7556 Q1802.94 32.7556 1799.54 36.8875 Q1796.18 40.9789 1796.18 48.6757 L1796.18 72.576 L1788.68 72.576 L1788.68 27.2059 L1796.18 27.2059 L1796.18 34.2544 Q1798.53 30.1225 1802.29 28.1376 Q1806.06 26.1121 1811.45 26.1121 Q1812.22 26.1121 1813.15 26.2337 Q1814.08 26.3147 1815.22 26.5172 L1815.26 34.1734 Z" fill="#000000" fill-rule="nonzero" fill-opacity="1" /><path clip-path="url(#clip890)" d="M1860.06 48.0275 L1860.06 51.6733 L1825.79 51.6733 Q1826.28 59.3701 1830.41 63.421 Q1834.58 67.4314 1841.99 67.4314 Q1846.29 67.4314 1850.3 66.3781 Q1854.35 65.3249 1858.32 63.2184 L1858.32 70.267 Q1854.31 71.9684 1850.1 72.8596 Q1845.88 73.7508 1841.55 73.7508 Q1830.69 73.7508 1824.33 67.4314 Q1818.01 61.1119 1818.01 50.3365 Q1818.01 39.1965 1824.01 32.6746 Q1830.04 26.1121 1840.25 26.1121 Q1849.41 26.1121 1854.71 32.0264 Q1860.06 37.9003 1860.06 48.0275 M1852.61 45.84 Q1852.53 39.7232 1849.16 36.0774 Q1845.84 32.4315 1840.33 32.4315 Q1834.09 32.4315 1830.33 35.9558 Q1826.6 39.4801 1826.03 45.8805 L1852.61 45.84 Z" fill="#000000" fill-rule="nonzero" fill-opacity="1" /><path clip-path="url(#clip890)" d="M1902.15 49.3643 Q1902.15 41.2625 1898.79 36.8065 Q1895.47 32.3505 1889.43 32.3505 Q1883.43 32.3505 1880.07 36.8065 Q1876.75 41.2625 1876.75 49.3643 Q1876.75 57.4256 1880.07 61.8816 Q1883.43 66.3376 1889.43 66.3376 Q1895.47 66.3376 1898.79 61.8816 Q1902.15 57.4256 1902.15 49.3643 M1909.6 66.9452 Q1909.6 78.5308 1904.46 84.1616 Q1899.31 89.8329 1888.7 89.8329 Q1884.77 89.8329 1881.29 89.2252 Q1877.8 88.6581 1874.52 87.4428 L1874.52 80.1917 Q1877.8 81.9741 1881 82.8248 Q1884.2 83.6755 1887.53 83.6755 Q1894.86 83.6755 1898.5 79.8271 Q1902.15 76.0193 1902.15 68.282 L1902.15 64.5957 Q1899.84 68.6061 1896.24 70.5911 Q1892.63 72.576 1887.61 72.576 Q1879.26 72.576 1874.16 66.2161 Q1869.05 59.8562 1869.05 49.3643 Q1869.05 38.832 1874.16 32.472 Q1879.26 26.1121 1887.61 26.1121 Q1892.63 26.1121 1896.24 28.0971 Q1899.84 30.082 1902.15 34.0924 L1902.15 27.2059 L1909.6 27.2059 L1909.6 66.9452 Z" fill="#000000" fill-rule="nonzero" fill-opacity="1" /><path clip-path="url(#clip890)" d="M1945.58 49.7694 Q1936.54 49.7694 1933.06 51.8354 Q1929.57 53.9013 1929.57 58.8839 Q1929.57 62.8538 1932.17 65.2034 Q1934.8 67.5124 1939.3 67.5124 Q1945.49 67.5124 1949.22 63.1374 Q1952.99 58.7219 1952.99 51.4303 L1952.99 49.7694 L1945.58 49.7694 M1960.44 46.6907 L1960.44 72.576 L1952.99 72.576 L1952.99 65.6895 Q1950.44 69.8214 1946.63 71.8063 Q1942.82 73.7508 1937.31 73.7508 Q1930.34 73.7508 1926.21 69.8619 Q1922.12 65.9325 1922.12 59.3701 Q1922.12 51.7138 1927.22 47.825 Q1932.37 43.9361 1942.54 43.9361 L1952.99 43.9361 L1952.99 43.2069 Q1952.99 38.0623 1949.59 35.2672 Q1946.22 32.4315 1940.11 32.4315 Q1936.22 32.4315 1932.53 33.3632 Q1928.84 34.295 1925.44 36.1584 L1925.44 29.2718 Q1929.53 27.692 1933.38 26.9223 Q1937.23 26.1121 1940.88 26.1121 Q1950.72 26.1121 1955.58 31.2163 Q1960.44 36.3204 1960.44 46.6907 Z" fill="#000000" fill-rule="nonzero" fill-opacity="1" /><path clip-path="url(#clip890)" d="M1983.17 14.324 L1983.17 27.2059 L1998.52 27.2059 L1998.52 32.9987 L1983.17 32.9987 L1983.17 57.6282 Q1983.17 63.1779 1984.67 64.7578 Q1986.21 66.3376 1990.86 66.3376 L1998.52 66.3376 L1998.52 72.576 L1990.86 72.576 Q1982.24 72.576 1978.95 69.3758 Q1975.67 66.1351 1975.67 57.6282 L1975.67 32.9987 L1970.2 32.9987 L1970.2 27.2059 L1975.67 27.2059 L1975.67 14.324 L1983.17 14.324 Z" fill="#000000" fill-rule="nonzero" fill-opacity="1" /><path clip-path="url(#clip890)" d="M2047.13 48.0275 L2047.13 51.6733 L2012.86 51.6733 Q2013.35 59.3701 2017.48 63.421 Q2021.65 67.4314 2029.06 67.4314 Q2033.36 67.4314 2037.37 66.3781 Q2041.42 65.3249 2045.39 63.2184 L2045.39 70.267 Q2041.38 71.9684 2037.17 72.8596 Q2032.95 73.7508 2028.62 73.7508 Q2017.76 73.7508 2011.4 67.4314 Q2005.08 61.1119 2005.08 50.3365 Q2005.08 39.1965 2011.08 32.6746 Q2017.11 26.1121 2027.32 26.1121 Q2036.48 26.1121 2041.78 32.0264 Q2047.13 37.9003 2047.13 48.0275 M2039.68 45.84 Q2039.6 39.7232 2036.23 36.0774 Q2032.91 32.4315 2027.4 32.4315 Q2021.16 32.4315 2017.4 35.9558 Q2013.67 39.4801 2013.1 45.8805 L2039.68 45.84 Z" fill="#000000" fill-rule="nonzero" fill-opacity="1" /><polyline clip-path="url(#clip891)" style="stroke:#808080; stroke-linecap:round; stroke-linejoin:round; stroke-width:4; stroke-opacity:0.3; fill:none" points="323.315,1628.72 379.563,1611.6 435.812,1620.16 492.06,1543.11 548.309,1517.42 604.557,1491.74 660.806,1457.49 717.055,1406.12 773.303,1354.75 829.552,1346.19 885.8,1354.75 942.049,1354.75 998.298,1363.31 1054.55,1260.58 1110.79,1174.96 1167.04,1166.4 1223.29,1080.78 1279.54,1097.91 1335.79,969.482 1392.04,952.359 1448.29,875.304 1504.53,883.866 1560.78,858.181 1617.03,806.812 1673.28,969.482 1729.53,849.619 1785.78,892.427 1842.03,969.482 1898.27,1003.73 1954.52,1072.22 2010.77,1149.28 2067.02,1209.21 2123.27,1174.96 2179.52,1132.15 2235.77,1209.21 2292.01,1320.51 2348.26,1320.51 2404.51,1286.26 2460.76,1303.38 2517.01,1294.82 2573.26,1406.12 "/>
<polyline clip-path="url(#clip891)" style="stroke:#808080; stroke-linecap:round; stroke-linejoin:round; stroke-width:4; stroke-opacity:0.3; fill:none" points="323.315,1611.6 379.563,1654.41 435.812,1645.85 492.06,1654.41 548.309,1628.72 604.557,1620.16 660.806,1611.6 717.055,1500.3 773.303,1466.05 829.552,1517.42 885.8,1517.42 942.049,1551.67 998.298,1525.98 1054.55,1508.86 1110.79,1500.3 1167.04,1423.25 1223.29,1294.82 1279.54,1269.14 1335.79,1140.71 1392.04,1055.1 1448.29,1020.85 1504.53,1003.73 1560.78,986.605 1617.03,969.482 1673.28,1020.85 1729.53,978.043 1785.78,935.235 1842.03,943.797 1898.27,892.427 1954.52,926.674 2010.77,1003.73 2067.02,960.92 2123.27,1012.29 2179.52,969.482 2235.77,1089.34 2292.01,1097.91 2348.26,1089.34 2404.51,1166.4 2460.76,1157.84 2517.01,1269.14 2573.26,1303.38 "/>
<polyline clip-path="url(#clip891)" style="stroke:#808080; stroke-linecap:round; stroke-linejoin:round; stroke-width:4; stroke-opacity:0.3; fill:none" points="323.315,1620.16 379.563,1585.92 435.812,1628.72 492.06,1594.48 548.309,1551.67 604.557,1568.79 660.806,1560.23 717.055,1560.23 773.303,1560.23 829.552,1525.98 885.8,1491.74 942.049,1423.25 998.298,1397.56 1054.55,1466.05 1110.79,1363.31 1167.04,1320.51 1223.29,1294.82 1279.54,1294.82 1335.79,1346.19 1392.04,1311.95 1448.29,1226.33 1504.53,1217.77 1560.78,1260.58 1617.03,1209.21 1673.28,1080.78 1729.53,1209.21 1785.78,1217.77 1842.03,1243.45 1898.27,1260.58 1954.52,1252.01 2010.77,1269.14 2067.02,1269.14 2123.27,1346.19 2179.52,1354.75 2235.77,1371.88 2292.01,1389 2348.26,1414.68 2404.51,1397.56 2460.76,1440.37 2517.01,1448.93 2573.26,1414.68 "/>
<polyline clip-path="url(#clip891)" style="stroke:#808080; stroke-linecap:round; stroke-linejoin:round; stroke-width:4; stroke-opacity:0.3; fill:none" points="323.315,1568.79 379.563,1560.23 435.812,1491.74 492.06,1380.44 548.309,1363.31 604.557,1234.89 660.806,1192.08 717.055,1140.71 773.303,1089.34 829.552,969.482 885.8,918.112 942.049,781.127 998.298,678.388 1054.55,507.156 1110.79,532.841 1167.04,532.841 1223.29,438.663 1279.54,532.841 1335.79,447.225 1392.04,404.417 1448.29,404.417 1504.53,635.58 1560.78,764.004 1617.03,823.935 1673.28,832.496 1729.53,858.181 1785.78,892.427 1842.03,935.235 1898.27,1046.54 1954.52,1115.03 2010.77,1140.71 2067.02,1252.01 2123.27,1286.26 2179.52,1294.82 2235.77,1363.31 2292.01,1406.12 2348.26,1397.56 2404.51,1397.56 2460.76,1406.12 2517.01,1491.74 2573.26,1508.86 "/>
<polyline clip-path="url(#clip891)" style="stroke:#808080; stroke-linecap:round; stroke-linejoin:round; stroke-width:4; stroke-opacity:0.3; fill:none" points="323.315,1628.72 379.563,1611.6 435.812,1568.79 492.06,1534.55 548.309,1466.05 604.557,1414.68 660.806,1354.75 717.055,1329.07 773.303,1329.07 829.552,1260.58 885.8,1123.59 942.049,1012.29 998.298,995.166 1054.55,1029.41 1110.79,952.359 1167.04,900.989 1223.29,764.004 1279.54,764.004 1335.79,746.88 1392.04,806.812 1448.29,695.511 1504.53,712.634 1560.78,789.688 1617.03,815.373 1673.28,909.551 1729.53,960.92 1785.78,1012.29 1842.03,1020.85 1898.27,1029.41 1954.52,1046.54 2010.77,1072.22 2067.02,1072.22 2123.27,1115.03 2179.52,1157.84 2235.77,1252.01 2292.01,1320.51 2348.26,1337.63 2404.51,1371.88 2460.76,1389 2517.01,1371.88 2573.26,1414.68 "/>
<polyline clip-path="url(#clip891)" style="stroke:#808080; stroke-linecap:round; stroke-linejoin:round; stroke-width:4; stroke-opacity:0.3; fill:none" points="323.315,1577.35 379.563,1603.04 435.812,1551.67 492.06,1525.98 548.309,1500.3 604.557,1474.62 660.806,1423.25 717.055,1346.19 773.303,1337.63 829.552,1346.19 885.8,1294.82 942.049,1346.19 998.298,1329.07 1054.55,1252.01 1110.79,1055.1 1167.04,926.674 1223.29,900.989 1279.54,900.989 1335.79,789.688 1392.04,772.565 1448.29,866.743 1504.53,841.058 1560.78,866.743 1617.03,900.989 1673.28,918.112 1729.53,892.427 1785.78,918.112 1842.03,909.551 1898.27,1046.54 1954.52,1055.1 2010.77,1055.1 2067.02,1183.52 2123.27,1234.89 2179.52,1226.33 2235.77,1183.52 2292.01,1269.14 2348.26,1311.95 2404.51,1440.37 2460.76,1414.68 2517.01,1440.37 2573.26,1389 "/>
<polyline clip-path="url(#clip891)" style="stroke:#808080; stroke-linecap:round; stroke-linejoin:round; stroke-width:4; stroke-opacity:0.3; fill:none" points="323.315,1568.79 379.563,1517.42 435.812,1500.3 492.06,1474.62 548.309,1466.05 604.557,1440.37 660.806,1414.68 717.055,1380.44 773.303,1294.82 829.552,1226.33 885.8,1106.47 942.049,1063.66 998.298,900.989 1054.55,841.058 1110.79,832.496 1167.04,823.935 1223.29,704.073 1279.54,627.018 1335.79,584.21 1392.04,695.511 1448.29,738.319 1504.53,755.442 1560.78,823.935 1617.03,926.674 1673.28,960.92 1729.53,1020.85 1785.78,1046.54 1842.03,1020.85 1898.27,1072.22 1954.52,1123.59 2010.77,1140.71 2067.02,1217.77 2123.27,1260.58 2179.52,1337.63 2235.77,1371.88 2292.01,1329.07 2348.26,1397.56 2404.51,1397.56 2460.76,1440.37 2517.01,1440.37 2573.26,1525.98 "/>
<polyline clip-path="url(#clip891)" style="stroke:#808080; stroke-linecap:round; stroke-linejoin:round; stroke-width:4; stroke-opacity:0.3; fill:none" points="323.315,1620.16 379.563,1568.79 435.812,1577.35 492.06,1508.86 548.309,1431.81 604.557,1363.31 660.806,1303.38 717.055,1252.01 773.303,1166.4 829.552,1132.15 885.8,1123.59 942.049,1020.85 998.298,900.989 1054.55,909.551 1110.79,781.127 1167.04,712.634 1223.29,507.156 1279.54,481.471 1335.79,430.102 1392.04,301.678 1448.29,198.939 1504.53,173.254 1560.78,224.624 1617.03,344.486 1673.28,541.402 1729.53,695.511 1785.78,789.688 1842.03,849.619 1898.27,986.605 1954.52,1063.66 2010.77,1157.84 2067.02,1243.45 2123.27,1226.33 2179.52,1252.01 2235.77,1320.51 2292.01,1371.88 2348.26,1423.25 2404.51,1448.93 2460.76,1508.86 2517.01,1568.79 2573.26,1603.04 "/>
<polyline clip-path="url(#clip891)" style="stroke:#808080; stroke-linecap:round; stroke-linejoin:round; stroke-width:4; stroke-opacity:0.3; fill:none" points="323.315,1620.16 379.563,1680.09 435.812,1680.09 492.06,1671.53 548.309,1688.65 604.557,1662.97 660.806,1620.16 717.055,1568.79 773.303,1500.3 829.552,1491.74 885.8,1448.93 942.049,1346.19 998.298,1337.63 1054.55,1277.7 1110.79,1294.82 1167.04,1286.26 1223.29,1294.82 1279.54,1260.58 1335.79,1192.08 1392.04,1115.03 1448.29,986.605 1504.53,815.373 1560.78,849.619 1617.03,841.058 1673.28,832.496 1729.53,772.565 1785.78,644.141 1842.03,652.703 1898.27,695.511 1954.52,729.757 2010.77,832.496 2067.02,883.866 2123.27,892.427 2179.52,866.743 2235.77,986.605 2292.01,1003.73 2348.26,1055.1 2404.51,1166.4 2460.76,1243.45 2517.01,1320.51 2573.26,1354.75 "/>
<polyline clip-path="url(#clip891)" style="stroke:#808080; stroke-linecap:round; stroke-linejoin:round; stroke-width:4; stroke-opacity:0.3; fill:none" points="323.315,1594.48 379.563,1620.16 435.812,1560.23 492.06,1525.98 548.309,1423.25 604.557,1431.81 660.806,1491.74 717.055,1483.18 773.303,1534.55 829.552,1551.67 885.8,1551.67 942.049,1560.23 998.298,1517.42 1054.55,1500.3 1110.79,1534.55 1167.04,1543.11 1223.29,1594.48 1279.54,1603.04 1335.79,1611.6 1392.04,1568.79 1448.29,1585.92 1504.53,1560.23 1560.78,1543.11 1617.03,1543.11 1673.28,1560.23 1729.53,1525.98 1785.78,1517.42 1842.03,1508.86 1898.27,1534.55 1954.52,1534.55 2010.77,1448.93 2067.02,1371.88 2123.27,1294.82 2179.52,1217.77 2235.77,1183.52 2292.01,1089.34 2348.26,1063.66 2404.51,1029.41 2460.76,978.043 2517.01,960.92 2573.26,960.92 "/>
<polyline clip-path="url(#clip891)" style="stroke:#8b0000; stroke-linecap:round; stroke-linejoin:round; stroke-width:12; stroke-opacity:1; fill:none" points="323.315,1615.88 379.563,1607.32 435.812,1573.07 492.06,1530.27 548.309,1483.18 604.557,1457.49 660.806,1440.37 717.055,1393.28 773.303,1346.19 829.552,1346.19 885.8,1324.79 942.049,1346.19 998.298,1333.35 1054.55,1256.29 1110.79,1115.03 1167.04,1046.54 1223.29,990.886 1279.54,999.447 1335.79,879.585 1392.04,879.585 1448.29,871.023 1504.53,828.216 1560.78,853.9 1617.03,871.023 1673.28,939.516 1729.53,926.674 1785.78,926.674 1842.03,956.639 1898.27,1037.97 1954.52,1067.94 2010.77,1140.71 2067.02,1213.49 2123.27,1230.61 2179.52,1222.05 2235.77,1230.61 2292.01,1320.51 2348.26,1329.07 2404.51,1384.72 2460.76,1397.56 2517.01,1406.12 2573.26,1410.4 "/>
<path clip-path="url(#clip890)" d="M2100.98 336.856 L2561.26 336.856 L2561.26 181.336 L2100.98 181.336  Z" fill="#ffffff" fill-rule="evenodd" fill-opacity="1"/>
<polyline clip-path="url(#clip890)" style="stroke:#000000; stroke-linecap:round; stroke-linejoin:round; stroke-width:4; stroke-opacity:1; fill:none" points="2100.98,336.856 2561.26,336.856 2561.26,181.336 2100.98,181.336 2100.98,336.856 "/>
<polyline clip-path="url(#clip890)" style="stroke:#808080; stroke-linecap:round; stroke-linejoin:round; stroke-width:4; stroke-opacity:0.3; fill:none" points="2127.48,233.176 2286.48,233.176 "/>
<path clip-path="url(#clip890)" d="M2312.98 215.896 L2317.65 215.896 L2317.65 250.456 L2312.98 250.456 L2312.98 215.896 Z" fill="#000000" fill-rule="nonzero" fill-opacity="1" /><path clip-path="url(#clip890)" d="M2348.32 234.808 L2348.32 250.456 L2344.07 250.456 L2344.07 234.947 Q2344.07 231.267 2342.63 229.438 Q2341.19 227.609 2338.32 227.609 Q2334.88 227.609 2332.88 229.808 Q2330.89 232.007 2330.89 235.804 L2330.89 250.456 L2326.61 250.456 L2326.61 224.531 L2330.89 224.531 L2330.89 228.558 Q2332.42 226.22 2334.48 225.063 Q2336.57 223.906 2339.27 223.906 Q2343.74 223.906 2346.03 226.683 Q2348.32 229.438 2348.32 234.808 Z" fill="#000000" fill-rule="nonzero" fill-opacity="1" /><path clip-path="url(#clip890)" d="M2373.88 228.466 L2373.88 214.438 L2378.14 214.438 L2378.14 250.456 L2373.88 250.456 L2373.88 246.567 Q2372.54 248.882 2370.48 250.016 Q2368.44 251.128 2365.57 251.128 Q2360.87 251.128 2357.91 247.378 Q2354.97 243.628 2354.97 237.517 Q2354.97 231.405 2357.91 227.655 Q2360.87 223.906 2365.57 223.906 Q2368.44 223.906 2370.48 225.04 Q2372.54 226.151 2373.88 228.466 M2359.37 237.517 Q2359.37 242.216 2361.29 244.901 Q2363.23 247.563 2366.61 247.563 Q2369.99 247.563 2371.94 244.901 Q2373.88 242.216 2373.88 237.517 Q2373.88 232.817 2371.94 230.155 Q2369.99 227.47 2366.61 227.47 Q2363.23 227.47 2361.29 230.155 Q2359.37 232.817 2359.37 237.517 Z" fill="#000000" fill-rule="nonzero" fill-opacity="1" /><path clip-path="url(#clip890)" d="M2386.91 224.531 L2391.17 224.531 L2391.17 250.456 L2386.91 250.456 L2386.91 224.531 M2386.91 214.438 L2391.17 214.438 L2391.17 219.831 L2386.91 219.831 L2386.91 214.438 Z" fill="#000000" fill-rule="nonzero" fill-opacity="1" /><path clip-path="url(#clip890)" d="M2397.03 224.531 L2401.54 224.531 L2409.64 246.29 L2417.75 224.531 L2422.26 224.531 L2412.54 250.456 L2406.75 250.456 L2397.03 224.531 Z" fill="#000000" fill-rule="nonzero" fill-opacity="1" /><path clip-path="url(#clip890)" d="M2428.14 224.531 L2432.4 224.531 L2432.4 250.456 L2428.14 250.456 L2428.14 224.531 M2428.14 214.438 L2432.4 214.438 L2432.4 219.831 L2428.14 219.831 L2428.14 214.438 Z" fill="#000000" fill-rule="nonzero" fill-opacity="1" /><path clip-path="url(#clip890)" d="M2458.37 228.466 L2458.37 214.438 L2462.63 214.438 L2462.63 250.456 L2458.37 250.456 L2458.37 246.567 Q2457.03 248.882 2454.97 250.016 Q2452.93 251.128 2450.06 251.128 Q2445.36 251.128 2442.4 247.378 Q2439.46 243.628 2439.46 237.517 Q2439.46 231.405 2442.4 227.655 Q2445.36 223.906 2450.06 223.906 Q2452.93 223.906 2454.97 225.04 Q2457.03 226.151 2458.37 228.466 M2443.86 237.517 Q2443.86 242.216 2445.78 244.901 Q2447.72 247.563 2451.1 247.563 Q2454.48 247.563 2456.43 244.901 Q2458.37 242.216 2458.37 237.517 Q2458.37 232.817 2456.43 230.155 Q2454.48 227.47 2451.1 227.47 Q2447.72 227.47 2445.78 230.155 Q2443.86 232.817 2443.86 237.517 Z" fill="#000000" fill-rule="nonzero" fill-opacity="1" /><path clip-path="url(#clip890)" d="M2470.96 240.225 L2470.96 224.531 L2475.22 224.531 L2475.22 240.063 Q2475.22 243.743 2476.66 245.595 Q2478.09 247.424 2480.96 247.424 Q2484.41 247.424 2486.4 245.225 Q2488.42 243.026 2488.42 239.229 L2488.42 224.531 L2492.68 224.531 L2492.68 250.456 L2488.42 250.456 L2488.42 246.475 Q2486.87 248.836 2484.81 249.993 Q2482.77 251.128 2480.06 251.128 Q2475.59 251.128 2473.28 248.35 Q2470.96 245.572 2470.96 240.225 M2481.68 223.906 L2481.68 223.906 Z" fill="#000000" fill-rule="nonzero" fill-opacity="1" /><path clip-path="url(#clip890)" d="M2513.23 237.424 Q2508.07 237.424 2506.08 238.604 Q2504.09 239.785 2504.09 242.632 Q2504.09 244.901 2505.57 246.243 Q2507.07 247.563 2509.64 247.563 Q2513.18 247.563 2515.31 245.063 Q2517.47 242.54 2517.47 238.373 L2517.47 237.424 L2513.23 237.424 M2521.73 235.665 L2521.73 250.456 L2517.47 250.456 L2517.47 246.521 Q2516.01 248.882 2513.83 250.016 Q2511.66 251.128 2508.51 251.128 Q2504.53 251.128 2502.17 248.905 Q2499.83 246.66 2499.83 242.91 Q2499.83 238.535 2502.74 236.313 Q2505.68 234.091 2511.49 234.091 L2517.47 234.091 L2517.47 233.674 Q2517.47 230.734 2515.52 229.137 Q2513.6 227.517 2510.11 227.517 Q2507.88 227.517 2505.78 228.049 Q2503.67 228.581 2501.73 229.646 L2501.73 225.711 Q2504.06 224.808 2506.26 224.368 Q2508.46 223.906 2510.55 223.906 Q2516.17 223.906 2518.95 226.822 Q2521.73 229.739 2521.73 235.665 Z" fill="#000000" fill-rule="nonzero" fill-opacity="1" /><path clip-path="url(#clip890)" d="M2530.5 214.438 L2534.76 214.438 L2534.76 250.456 L2530.5 250.456 L2530.5 214.438 Z" fill="#000000" fill-rule="nonzero" fill-opacity="1" /><polyline clip-path="url(#clip890)" style="stroke:#8b0000; stroke-linecap:round; stroke-linejoin:round; stroke-width:12; stroke-opacity:1; fill:none" points="2127.48,285.016 2286.48,285.016 "/>
<path clip-path="url(#clip890)" d="M2312.98 267.736 L2319.94 267.736 L2328.76 291.255 L2337.63 267.736 L2344.6 267.736 L2344.6 302.296 L2340.04 302.296 L2340.04 271.949 L2331.13 295.653 L2326.43 295.653 L2317.51 271.949 L2317.51 302.296 L2312.98 302.296 L2312.98 267.736 Z" fill="#000000" fill-rule="nonzero" fill-opacity="1" /><path clip-path="url(#clip890)" d="M2375.87 288.269 L2375.87 290.352 L2356.29 290.352 Q2356.57 294.75 2358.93 297.065 Q2361.31 299.356 2365.55 299.356 Q2368 299.356 2370.29 298.755 Q2372.61 298.153 2374.88 296.949 L2374.88 300.977 Q2372.58 301.949 2370.18 302.458 Q2367.77 302.968 2365.29 302.968 Q2359.09 302.968 2355.45 299.356 Q2351.84 295.745 2351.84 289.588 Q2351.84 283.222 2355.27 279.495 Q2358.72 275.746 2364.55 275.746 Q2369.78 275.746 2372.82 279.125 Q2375.87 282.482 2375.87 288.269 M2371.61 287.019 Q2371.57 283.523 2369.64 281.44 Q2367.75 279.357 2364.6 279.357 Q2361.03 279.357 2358.88 281.37 Q2356.75 283.384 2356.43 287.042 L2371.61 287.019 Z" fill="#000000" fill-rule="nonzero" fill-opacity="1" /><path clip-path="url(#clip890)" d="M2399.92 280.306 L2399.92 266.278 L2404.18 266.278 L2404.18 302.296 L2399.92 302.296 L2399.92 298.407 Q2398.58 300.722 2396.52 301.856 Q2394.48 302.968 2391.61 302.968 Q2386.91 302.968 2383.95 299.218 Q2381.01 295.468 2381.01 289.357 Q2381.01 283.245 2383.95 279.495 Q2386.91 275.746 2391.61 275.746 Q2394.48 275.746 2396.52 276.88 Q2398.58 277.991 2399.92 280.306 M2385.41 289.357 Q2385.41 294.056 2387.33 296.741 Q2389.27 299.403 2392.65 299.403 Q2396.03 299.403 2397.98 296.741 Q2399.92 294.056 2399.92 289.357 Q2399.92 284.657 2397.98 281.995 Q2396.03 279.31 2392.65 279.31 Q2389.27 279.31 2387.33 281.995 Q2385.41 284.657 2385.41 289.357 Z" fill="#000000" fill-rule="nonzero" fill-opacity="1" /><path clip-path="url(#clip890)" d="M2412.95 276.371 L2417.21 276.371 L2417.21 302.296 L2412.95 302.296 L2412.95 276.371 M2412.95 266.278 L2417.21 266.278 L2417.21 271.671 L2412.95 271.671 L2412.95 266.278 Z" fill="#000000" fill-rule="nonzero" fill-opacity="1" /><path clip-path="url(#clip890)" d="M2437.91 289.264 Q2432.75 289.264 2430.75 290.444 Q2428.76 291.625 2428.76 294.472 Q2428.76 296.741 2430.25 298.083 Q2431.75 299.403 2434.32 299.403 Q2437.86 299.403 2439.99 296.903 Q2442.14 294.38 2442.14 290.213 L2442.14 289.264 L2437.91 289.264 M2446.4 287.505 L2446.4 302.296 L2442.14 302.296 L2442.14 298.361 Q2440.69 300.722 2438.51 301.856 Q2436.33 302.968 2433.19 302.968 Q2429.2 302.968 2426.84 300.745 Q2424.5 298.5 2424.5 294.75 Q2424.5 290.375 2427.42 288.153 Q2430.36 285.931 2436.17 285.931 L2442.14 285.931 L2442.14 285.514 Q2442.14 282.574 2440.2 280.977 Q2438.28 279.357 2434.78 279.357 Q2432.56 279.357 2430.45 279.889 Q2428.35 280.421 2426.4 281.486 L2426.4 277.551 Q2428.74 276.648 2430.94 276.208 Q2433.14 275.746 2435.22 275.746 Q2440.85 275.746 2443.62 278.662 Q2446.4 281.579 2446.4 287.505 Z" fill="#000000" fill-rule="nonzero" fill-opacity="1" /><path clip-path="url(#clip890)" d="M2476.73 286.648 L2476.73 302.296 L2472.47 302.296 L2472.47 286.787 Q2472.47 283.107 2471.03 281.278 Q2469.6 279.449 2466.73 279.449 Q2463.28 279.449 2461.29 281.648 Q2459.3 283.847 2459.3 287.644 L2459.3 302.296 L2455.01 302.296 L2455.01 276.371 L2459.3 276.371 L2459.3 280.398 Q2460.82 278.06 2462.88 276.903 Q2464.97 275.746 2467.68 275.746 Q2472.14 275.746 2474.43 278.523 Q2476.73 281.278 2476.73 286.648 Z" fill="#000000" fill-rule="nonzero" fill-opacity="1" /></svg>
